<svg width="16" height="16" viewBox="0 0 16 16" fill="none" xmlns="http://www.w3.org/2000/svg">
<path d="M15.0235 4.65728C15.6244 5.25822 15.6244 6.23474 15.0235 6.76056L12.9202 8.86385L7.06103 3.00469L9.16432 0.901408C9.76526 0.300469 10.7418 0.300469 11.2676 0.901408L12.6197 2.25352L14.8732 0L15.9249 1.05164L13.6714 3.30516L15.0235 4.65728ZM10.6667 9.01408L9.61502 7.96244L7.51174 10.0657L5.93427 8.48826L8.03756 6.38498L6.98592 5.33333L4.88263 7.43662L3.75587 6.38498L1.65258 8.48826C1.05164 9.0892 1.05164 10.0657 1.65258 10.5915L3.00469 11.9437L0 14.9484L1.05164 16L4.05634 12.9953L5.40845 14.3474C6.00939 14.9484 6.98592 14.9484 7.51174 14.3474L9.61502 12.2441L8.56338 11.1925L10.6667 9.01408Z" fill="#D8D8D8"/>
</svg>
