<svg width="100" height="65" viewBox="0 0 100 65" fill="none" xmlns="http://www.w3.org/2000/svg">
<path fill-rule="evenodd" clip-rule="evenodd" d="M35.2027 20.6423C34.7975 21.0205 34.5674 21.55 34.5674 22.1044V28.2942H65.1555V30.6471H34.5674V43.8956C34.5674 44.45 34.7975 44.9795 35.2027 45.3577L42.8146 52.4621C43.1849 52.8078 43.6727 53 44.1792 53H55.5438C56.0503 53 56.5381 52.8078 56.9084 52.4621L64.5203 45.3577C64.9255 44.9795 65.1556 44.45 65.1556 43.8956V22.1044C65.1556 21.55 64.9255 21.0205 64.5203 20.6423L56.9084 13.5379C56.5381 13.1922 56.0503 13 55.5438 13H44.1792C43.6727 13 43.1849 13.1922 42.8146 13.5379L35.2027 20.6423ZM42.3383 41.0146L46.9184 43.01V45.7898L40 42.1662V39.8233L46.9184 36.1997V38.9794L42.3383 41.0146ZM57.6697 40.9848L53.0012 38.9695V36.2096L60 39.8332V42.1662L53.0012 45.7997V43.0299L57.6697 40.9848ZM47.2001 49H48.8032L52.8001 33H51.1969L47.2001 49Z" fill="#F1F1F1"/>
<rect x="19.2725" y="28.2942" width="12.9412" height="2.35294" fill="#F1F1F1"/>
<rect x="12.8027" y="19.2354" width="12.9412" height="2.35294" transform="rotate(50 12.8027 19.2354)" fill="#F1F1F1"/>
<rect width="12.9412" height="2.35294" transform="matrix(1 0 0 -1 19.2725 37.7202)" fill="#F1F1F1"/>
<rect width="12.9412" height="2.35294" transform="matrix(0.642788 -0.766045 -0.766045 -0.642788 12.8027 46.7791)" fill="#F1F1F1"/>
<rect width="12.9412" height="2.35294" transform="matrix(-1 0 0 1 80.4502 28.2942)" fill="#F1F1F1"/>
<rect width="12.9412" height="2.35294" transform="matrix(-0.642788 0.766045 0.766045 0.642788 86.9199 19.2354)" fill="#F1F1F1"/>
<rect x="80.4502" y="37.7205" width="12.9412" height="2.35294" transform="rotate(-180 80.4502 37.7205)" fill="#F1F1F1"/>
<rect x="86.9199" y="46.7793" width="12.9412" height="2.35294" transform="rotate(-130 86.9199 46.7793)" fill="#F1F1F1"/>
<rect x="22.8027" y="21.2354" width="9.41177" height="2.35294" fill="#F1F1F1"/>
<rect x="20.1348" y="14.1765" width="9.41177" height="2.35294" transform="rotate(60 20.1348 14.1765)" fill="#F1F1F1"/>
<rect width="9.41177" height="2.35294" transform="matrix(1 0 0 -1 22.8027 44.7791)" fill="#F1F1F1"/>
<rect width="9.41177" height="2.35294" transform="matrix(0.5 -0.866025 -0.866025 -0.5 20.1348 51.8379)" fill="#F1F1F1"/>
<rect width="9.41177" height="2.35294" transform="matrix(-1 0 0 1 76.9189 21.2356)" fill="#F1F1F1"/>
<rect width="9.41177" height="2.35294" transform="matrix(-0.5 0.866025 0.866025 0.5 79.5869 14.1768)" fill="#F1F1F1"/>
<rect x="76.9189" y="44.7791" width="9.41177" height="2.35294" transform="rotate(-180 76.9189 44.7791)" fill="#F1F1F1"/>
<rect x="79.5869" y="51.8379" width="9.41177" height="2.35294" transform="rotate(-120 79.5869 51.8379)" fill="#F1F1F1"/>
</svg>
