<svg width="100" height="65" viewBox="0 0 100 65" fill="none" xmlns="http://www.w3.org/2000/svg">
<path d="M73 15.4C73 9.2212 62.4689 4 50 4C37.5311 4 27 9.2212 27 15.4V21.1C27 27.2788 37.5311 32.5 50 32.5C62.4689 32.5 73 27.2788 73 21.1V15.4ZM50 52.45C37.5311 52.45 27 47.2288 27 41.05V49.6C27 55.7788 37.5311 61 50 61C62.4689 61 73 55.7788 73 49.6V41.05C73 47.2288 62.4689 52.45 50 52.45Z" fill="#F1F1F1"/>
<path d="M73 26.8C73 32.9788 62.4689 38.2 50 38.2C37.5311 38.2 27 32.9788 27 26.8V35.35C27 41.5288 37.5311 46.75 50 46.75C62.4689 46.75 73 41.5288 73 35.35V26.8Z" fill="#F1F1F1"/>
</svg>
