<svg width="100" height="65" viewBox="0 0 100 65" fill="none" xmlns="http://www.w3.org/2000/svg">
<path fill-rule="evenodd" clip-rule="evenodd" d="M67.9049 10.19H55.6538C54.0219 10.1897 52.4571 9.5373 51.3034 8.37636L48.7559 5.81368C47.6022 4.65274 46.0374 4.00035 44.4056 4H33.1082C31.4762 4 29.9111 4.65216 28.7571 5.81302C27.6032 6.97388 26.9549 8.54834 26.9549 10.19L27.078 12.8858C26.2669 14.072 25.8946 15.5066 26.0258 16.9403L27.9856 38.6054C28.1245 40.1434 28.8299 41.5736 29.9632 42.6152C31.0966 43.6568 32.576 44.2347 34.1112 44.2353H65.9482C67.4833 44.2347 68.9628 43.6568 70.0961 42.6152C71.2294 41.5736 71.9348 40.1434 72.0738 38.6054L74.0336 16.9403C74.111 16.0837 74.01 15.2202 73.7372 14.405C73.4643 13.5898 73.0256 12.8407 72.449 12.2056C71.8723 11.5705 71.1704 11.0632 70.3881 10.7162C69.6057 10.3691 68.76 10.19 67.9049 10.19ZM32.1544 10.19C31.416 10.19 30.7084 10.32 30.05 10.5614L30.0315 10.1312C30.0468 9.32062 30.3777 8.54842 30.9531 7.98064C31.5284 7.41287 32.3022 7.09488 33.1082 7.09502H44.4056C45.2215 7.0952 46.0039 7.42139 46.5808 8.00186L48.7559 10.19H32.1544ZM41.5711 24.8776V28.0071H45.3576V29.8847H41.5711V33.64H39.4118V23H46.1891H46.2026H55.3797H56.248H59.2915C61.8159 23 63.0781 24.2309 63.0781 26.6927C63.0781 27.9445 62.7547 28.8989 62.1079 29.5561C61.4716 30.2133 60.5328 30.5419 59.2915 30.5419H57.539V33.64H55.3797V24.9089H51.1962V33.64H49.0369V24.9089H46.1891V24.8776H41.5711ZM60.8875 26.6927C60.8875 28.0279 60.3503 28.6955 59.2758 28.6955H57.539V24.8464H59.2758C59.8391 24.8464 60.2459 24.9924 60.4963 25.2845C60.7571 25.5765 60.8875 26.046 60.8875 26.6927Z" fill="#F1F1F1"/>
<rect x="28.2354" y="55.4119" width="43.5882" height="3.35294" rx="1" fill="#F1F1F1"/>
<rect x="45" y="53.1765" width="10.0588" height="7.82353" rx="2" fill="#F1F1F1"/>
<rect x="48.3525" y="45.353" width="3.35294" height="6.70588" rx="1" fill="#F1F1F1"/>
</svg>
