<svg width="100" height="65" viewBox="0 0 100 65" fill="none" xmlns="http://www.w3.org/2000/svg">
<path d="M33.8407 5C31.79 5 30 6.78267 30 8.81967V57.1803C30 59.2173 31.79 61 33.8407 61H67.1593C69.21 61 71 59.2173 71 57.1803V21.4383H59.4686C58.1415 21.4256 56.8723 20.896 55.9341 19.9636C54.9958 19.0312 54.4633 17.7703 54.4511 16.452V5H33.8407ZM56.8001 6.16667V16.452C56.8001 17.8077 58.1038 19.105 59.4686 19.105H69.8255L56.8001 6.16667ZM40.2512 32.489H60.7488V50.8197H40.2512V32.4867V32.489ZM42.8116 35.037V38.0913H49.2198V35.037H42.8116ZM51.7802 35.037V38.0913H58.1884V35.037H51.7802ZM42.8116 40.1283V43.1803H49.2198V40.1283H42.8116ZM51.7802 40.1283V43.1803H58.1884V40.1283H51.7802ZM42.8116 45.2173V48.2717H49.2198V45.2173H42.8116ZM51.7802 45.2173V48.2717H58.1884V45.2173H51.7802Z" fill="#F1F1F1"/>
</svg>
