<svg width="100" height="65" viewBox="0 0 100 65" fill="none" xmlns="http://www.w3.org/2000/svg">
<path d="M25.8965 28.1355C21.716 33.0118 22.6447 38.9252 23.8034 44.7198C23.1852 43.1575 22.5668 41.5953 21.9483 40.0332L21.2646 35.7362C21.3297 34.2715 21.3945 32.8068 21.4601 31.3424L23.2173 27.1438L25.8536 23.238L29.9546 19.821L34.446 17.9656L39.7189 17.2822L34.8366 22.8476C30.9164 24.1189 28.6051 24.9756 25.8962 28.1355" fill="#B1B1B1"/>
<path d="M45.5781 13.2791C42.672 16.1146 41.0844 18.2535 39.2346 21.5735C37.9118 23.9484 36.4278 26.2361 35.0366 28.5779C34.3333 29.7634 34.2668 30.7571 34.0564 32.1242L32.0059 29.6831C32.3317 28.7066 32.657 27.7302 32.9823 26.754L36.3023 20.7979L43.3327 13.8652C44.0812 13.6697 44.8296 13.4748 45.5781 13.2791Z" fill="#B1B1B1"/>
<path d="M59.9305 6.24878C57.6025 7.12132 53.737 7.4089 53.4687 10.0803C53.2778 11.978 53.6118 12.9314 54.7555 14.939C51.9306 12.0157 51.2319 12.4679 45.7725 13.3765L48.1157 10.0567L52.2167 7.51771L57.4897 6.34608L59.9308 6.24878" fill="#B1B1B1"/>
<path d="M66.3552 42.388C67.1301 42.8664 67.1134 43.213 66.9839 43.5409C67.595 43.2962 68.2065 43.0515 68.8176 42.8077L70.0059 41.212L70.8877 38.939L69.7607 38.0918L64.8352 38.7205C64.7137 39.0521 64.5911 39.384 64.4688 39.7163C64.5036 40.1875 64.539 40.6593 64.5735 41.1306C64.7307 41.4104 64.8882 41.6896 65.0456 41.9691C65.29 42.0912 65.5342 42.2138 65.7788 42.3359C65.9714 42.3531 66.1632 42.371 66.3552 42.388Z" fill="#B1B1B1"/>
<path d="M65.8945 33.9651C63.4254 34.6776 63.4447 34.8739 62.7158 37.3234C63.6782 35.7792 64.3907 35 65.8945 33.9651Z" fill="#B1B1B1"/>
<path d="M82.3121 15.6357C81.8734 15.8387 81.4456 15.936 81.1715 16.3376C80.5808 17.2018 80.0747 17.9286 79.098 18.5352C78.606 18.8409 78.0974 19.039 77.5757 19.2016C77.1431 19.336 76.8828 19.2157 76.5146 19.4808C76.7334 19.5183 76.9519 19.5568 77.1704 19.5951H78.6155L80.3972 18.4952L81.445 17.3946L82.3121 15.6357Z" fill="#B1B1B1"/>
<path d="M42.9833 21.1146C42.0123 23.7725 41.1634 26.0507 39.6924 28.4567C41.5774 26.4255 42.7205 24.6989 43.8003 22.4025C44.22 21.5101 44.2992 20.4634 45.4676 20.8526C45.52 21.7439 45.7083 22.634 45.7607 23.5246C46.392 18.9999 48.1722 17.1071 52.3103 15.3508L48.7997 15.7703L45.4984 16.5038L43.8743 18.8614L42.9833 21.1146Z" fill="#B1B1B1"/>
<path d="M51.0007 21.0103C51.8931 25.2103 53.1781 29.2416 53.7363 33.5085C54.0988 36.2809 54.1382 37.6129 52.7435 40.0051C51.2189 39.9064 50.2724 40.0782 48.7976 40.5616C42.9271 42.486 39.5598 45.3158 35.6045 39.6142L39.3929 41.3996C40.293 41.2225 41.1932 41.0461 42.0931 40.8684C43.6827 39.9432 45.2721 39.0174 46.8617 38.0919L50.5815 37.3579L51.7869 32.3285L50.8959 25.6738C50.8614 24.6259 50.8262 23.5781 50.7911 22.5302C50.8614 22.0236 50.9313 21.5169 51.0007 21.0105" fill="#B1B1B1"/>
<path d="M55.3899 37.0791C55.6666 38.6284 56.147 38.9966 56.8759 40.4964C56.3909 42.9433 55.6116 45.8528 54.6737 48.0119C54.2782 48.9224 53.9592 49.4244 53.2614 50.128C52.084 51.3169 50.8943 52.3521 49.5594 53.3827C48.5979 54.1234 47.9272 53.752 46.7414 53.5842C46.2371 54.4982 46.098 55.0063 45.1697 55.4703C43.7424 56.1836 42.4651 54.6461 41.3447 53.7411C42.1536 55.0048 42.9626 56.2677 43.7709 57.5312C44.3299 58.0551 44.889 58.5787 45.4477 59.1029L46.8626 59.3128L48.7485 58.1596C49.0807 57.5312 49.4123 56.9022 49.7442 56.2737C50.4429 55.7498 51.1418 55.2259 51.8399 54.7014C52.696 53.9682 53.5519 53.2344 54.4077 52.5009L56.0319 50.1954L57.4986 47.4709C58.1279 45.5848 58.7566 43.6984 59.3856 41.8123C59.4377 41.0961 59.4898 40.3801 59.5425 39.6636C58.7566 39.3147 57.9707 38.9649 57.1845 38.6158C56.6082 38.0746 55.9663 37.6206 55.3899 37.0791Z" fill="#B1B1B1"/>
<path d="M36.5924 47.9944C39.2368 47.9944 42.0297 47.8476 44.4522 46.7367C45.1373 45.709 45.8141 44.869 46.6527 43.9602C45.8895 45.4019 45.65 46.2165 45.4476 47.8372L44.6617 48.9902C42.6705 49.0423 40.6796 49.0947 38.6884 49.1473C38.0419 49.0771 37.3959 49.0074 36.7496 48.9378C36.6797 48.8673 36.61 48.7976 36.54 48.7279C36.5579 48.4832 36.5752 48.2388 36.5924 47.9944Z" fill="#B1B1B1"/>
<path d="M36.226 46.1608L36.0205 44.3C35.5688 47.0199 35.6774 48.8426 34.4257 51.2789C33.4907 52.3619 32.3395 53.3475 31.021 53.8752C31.1325 54.5431 31.1658 54.9605 31.1011 55.4501C30.8688 57.2119 27.3452 56.4335 25.8955 56.3633L32.8723 58.1596L34.4441 57.5309C34.6191 56.5181 34.7939 55.5046 34.9683 54.4918L36.4353 51.7674L36.6973 50.0906L36.2257 46.1611" fill="#B1B1B1"/>
<path d="M32.2961 30.8083C32.2232 32.1311 32.1377 32.6824 32.721 33.85C33.4622 35.3343 34.3725 36.7293 35.1779 38.1963L35.4399 35.262C34.3923 33.7772 33.3442 32.2929 32.2964 30.8086" fill="#B1B1B1"/>
<path d="M21.5396 40.7981C21.3125 41.2806 21.0862 41.7636 20.8591 42.2464C21.4832 44.3493 22.0385 45.6812 23.2271 47.5182C23.0198 48.2623 22.865 48.5879 22.3888 49.1944C21.3427 49.0338 20.4137 48.9872 19.3535 48.9906C20.5237 49.8983 21.6939 50.8071 22.8641 51.7153C23.4404 51.6099 24.017 51.5052 24.5933 51.4007L26.3226 49.6717L23.8598 45.8465C23.086 44.1639 22.3128 42.4807 21.5396 40.7981Z" fill="#B1B1B1"/>
<path d="M82.3193 14.9404C83.032 18.1464 83.9515 21.1055 83.866 24.3895C83.7612 28.4182 82.9762 33.5075 79.2431 35.9369C75.0626 38.6578 70.155 37.3707 65.5684 36.2049L71.1749 38.5104C72.9214 38.5979 74.6682 38.6854 76.4148 38.7724C77.6025 38.4232 78.7903 38.074 79.9774 37.7245C80.9032 36.9559 81.829 36.1879 82.7548 35.419L84.8505 31.018L85.6364 25.9354C85.4271 24.2758 85.217 22.6168 85.0077 20.9575L83.8551 16.0323C83.3432 15.6682 82.8314 15.304 82.3193 14.9404Z" fill="#B1B1B1"/>
<path d="M19.9347 24.4967C18.0371 25.7319 17.2915 26.2743 17.4996 28.5637L18.0667 30.6206L18.8708 31.1646L19.8639 31.4957L21.6608 31.0699C21.9685 30.1162 22.2757 29.1628 22.5829 28.2091L20.0294 29.4624H19.4384C19.2178 29.1235 18.9971 28.7845 18.7763 28.4457L19.5804 27.2634L20.0058 25.0171C20.1872 25.0721 20.3686 25.1277 20.5496 25.1824C20.7704 25.3563 20.9909 25.5296 21.2117 25.7026L21.117 24.5206L20.6679 23.764C20.5182 23.6374 20.3686 23.5119 20.2189 23.3855L19.9347 24.4967Z" fill="#B1B1B1"/>
<path d="M62.5117 6.45752C64.1963 8.02181 66.2635 9.38114 67.6108 11.2926C68.1321 12.0324 68.7113 12.411 67.6021 13.4562C68.7741 13.1214 69.2099 13.1577 70.1484 13.2714C71.8554 13.4781 73.4554 15.9049 73.5573 17.6436C73.5372 17.8062 73.0832 18.1756 71.7633 18.54C71.7374 18.5907 71.0183 18.4416 71.0361 18.4905C71.1735 18.8656 71.3565 18.9232 71.6366 19.0985C71.6971 19.5159 71.7362 20.1599 72.0207 20.6164C72.8512 20.6015 73.663 20.6922 74.4762 20.8531C74.7497 21.307 74.7088 21.761 74.6858 22.2153L75.6288 22.0584C75.5419 21.3422 75.4544 20.6262 75.3672 19.91C75.6464 19.4385 75.9256 18.9667 76.2054 18.4957L75.0001 15.7707C74.2318 15.0372 73.4635 14.3034 72.6946 13.5699L72.4729 13.559C71.6086 13.0286 70.7443 12.4982 69.8801 11.9677L65.6512 8.50802L62.5117 6.45752Z" fill="#B1B1B1"/>
<path d="M65.3481 19.3674C65.2591 19.5229 65.125 19.771 64.9531 19.9432C65.6547 20.6067 66.001 21.0512 66.2511 21.9899C65.4578 22.3835 64.665 22.7775 63.8719 23.1708L61.8585 25.101C60.975 24.6254 60.7551 24.2604 60.3276 23.3536C59.8296 23.4857 59.3583 23.6127 58.9473 23.4615C59.2081 23.4635 59.3681 23.3985 59.6289 23.2373L60.91 21.9065C61.6642 21.3353 62.4184 20.7636 63.1726 20.1928L64.6537 19.71C64.8423 19.6326 65.1595 19.4452 65.3481 19.3674Z" fill="#B1B1B1"/>
<path d="M67.6305 21.5003C65.107 22.859 62.6906 24.2253 61.4004 26.8055C61.4004 23.5304 64.6887 22.0887 67.6302 21.5" fill="#B1B1B1"/>
<path d="M60.8066 15.292C58.9329 16.5696 57.6081 19.1477 57.7745 21.6603C57.1642 19.4845 57.3804 17.4289 59.2541 15.9262C59.5708 15.7727 59.8866 15.6187 60.203 15.4653C60.4042 15.4077 60.6051 15.3501 60.8066 15.292Z" fill="#B1B1B1"/>
<path d="M86.0203 21.2236C85.6806 19.0809 85.1173 17.0011 84.3354 15.5056C84.2404 15.3228 84.0959 15.1374 83.9168 14.9606C83.5285 14.5778 82.9536 14.2151 82.3597 14.011C81.7305 13.7945 81.0669 13.7504 80.5401 14.0256C80.4034 14.0976 80.2761 14.1897 80.163 14.3049C79.8219 14.6503 79.534 15.0706 79.2458 15.4912C78.9254 15.9598 78.603 16.4308 78.2173 16.7598C77.7702 17.1421 77.2109 17.3741 76.6832 17.586C76.4611 17.0473 76.1941 16.5281 75.885 16.0341C75.5243 15.4589 75.1135 14.9203 74.6615 14.3817C74.3309 13.985 73.9561 13.6274 73.5443 13.3157C73.1545 13.0184 72.7555 12.7679 72.2909 12.4772C71.0453 11.697 69.9845 10.7667 68.9026 9.81725C68.411 9.38602 67.9144 8.95076 67.4288 8.55033C64.8523 6.42585 62.4492 5.39556 59.8791 5.23406C57.3265 5.07343 54.6312 5.77468 51.4488 7.11443C49.9127 7.7607 48.7721 8.52471 47.7784 9.44331C46.8293 10.3213 46.0235 11.3323 45.1378 12.5129C44.6225 12.5494 44.1659 12.6257 43.6999 12.8123C43.1863 13.0178 42.6693 13.3506 42.0498 13.8972C41.6186 14.2777 41.1963 14.668 40.7831 15.068C40.4047 15.4352 40.0329 15.8092 39.6679 16.1898C36.7708 16.6553 34.4103 17.1692 32.2961 17.9879C30.1342 18.8256 28.2285 19.9777 26.2713 21.7129C25.5006 22.3938 24.7981 23.148 24.1736 23.9649C23.5783 24.7448 23.0687 25.5646 22.6217 26.4291C22.2302 26.8624 21.8378 27.2996 21.4132 27.6822C20.9992 28.055 20.5579 28.3691 20.0634 28.5594L20.0637 28.5597C19.7761 28.6705 19.6572 28.7353 19.6442 28.7309C19.6298 28.7229 19.6218 28.6797 19.6016 28.6002C20.3118 27.9226 20.4235 26.9269 20.4891 25.9383C20.5743 26.0402 20.6561 26.1657 20.741 26.297C20.8349 26.4418 20.931 26.5912 21.0462 26.7366L21.5283 27.3448L21.6976 26.586C21.8398 25.9501 21.9463 25.1035 21.7805 24.3694C21.6734 23.893 21.4523 23.4684 21.0672 23.1675C21.104 23.0714 21.1388 22.9827 21.1731 22.8952C21.294 22.5858 21.4187 22.2682 21.5243 21.9683L21.7333 21.3738L21.1115 21.4815C20.2842 21.6254 18.5063 22.6025 17.254 23.9016C16.7891 24.3844 16.3893 24.9178 16.127 25.4774C15.8541 26.0598 15.7318 26.6692 15.8377 27.2789C15.9298 27.8121 16.1967 28.3354 16.6812 28.8288C16.7695 29.1849 16.851 29.4938 16.9382 29.7725C17.0381 30.0894 17.1455 30.373 17.2799 30.6522C17.6444 31.4099 18.2253 31.8728 18.8978 32.0887C19.4381 32.2622 20.0357 32.2709 20.6218 32.1425C20.5028 32.8407 20.4311 33.5462 20.4071 34.254C20.3699 35.2429 20.4062 36.3353 20.515 37.6031C20.5389 37.8815 20.5749 38.1875 20.6213 38.5203C20.6616 38.8041 20.7093 39.0828 20.7609 39.3594C20.6515 39.6582 20.5412 39.9576 20.4313 40.2564L19.9197 41.6488L18.7941 42.7643C18.4438 43.1107 18.0935 43.4578 17.7434 43.8047C17.7146 43.8335 17.5963 43.9469 17.4892 44.0503C16.7796 44.7331 16.6391 44.8687 16.8407 46.0703C16.9697 46.8392 17.2208 47.5826 17.5842 48.2725C17.9325 48.936 18.4 49.582 19 50.1836C19.7484 50.9338 20.9753 51.866 22.2598 52.3542C22.9939 52.6328 23.7504 52.7693 24.4606 52.6553C24.4243 52.7647 24.3892 52.8735 24.3492 52.9835C24.2368 53.2952 24.1119 53.6023 23.975 53.9041C23.1036 55.8141 23.998 56.8116 25.3901 57.4463C26.0853 57.763 26.9118 57.9783 27.6796 58.1787C27.8367 58.219 27.9939 58.2604 28.192 58.314C29.1016 58.5598 30.6737 59.0115 32.1096 59.1022C33.6768 59.2012 35.0902 58.8776 35.4691 57.4711C35.6187 56.9135 35.706 56.4866 35.7414 56.0683C35.7739 55.6802 35.7615 55.2882 35.716 54.8028C36.1628 53.8125 36.3522 53.5342 36.679 53.0566C36.7429 52.9622 36.8203 52.8493 36.8436 52.8136C37.194 52.2946 37.3581 51.9261 37.4177 51.5113C37.4752 51.1109 37.4263 50.7119 37.354 50.1022C37.3471 50.0443 37.3368 49.9597 37.3215 49.8477C38.2239 49.9649 39.1325 50.0272 40.0425 50.0342C40.499 50.0371 40.9553 50.0236 41.4116 49.9997C41.295 50.0593 41.1807 50.1186 41.0558 50.1828L40.8859 50.27C39.6757 50.8924 39.6253 52.0712 40.0042 53.284C40.3456 54.3776 41.0486 55.4943 41.4896 56.1734C42.4165 57.6021 43.3012 58.8114 44.3738 59.4686C45.4979 60.1575 46.7824 60.2387 48.4402 59.3414C49.2837 58.8848 49.5497 58.4193 49.9078 57.7918C50.0175 57.6003 50.1384 57.3916 50.2731 57.1858C50.6214 56.9549 51.4888 56.2396 52.34 55.5357C52.6299 55.2962 52.9195 55.0579 53.2462 54.7916C53.4713 54.9571 53.7431 55.072 54.0715 55.1503C54.4982 55.2525 55.0063 55.2985 55.6151 55.3423C56.0708 55.3757 57.5568 55.3745 58.5168 55.3742C58.8134 55.3742 59.0595 55.3742 59.2072 55.3751C60.1983 55.3811 60.9983 55.329 61.6028 54.9865C62.2471 54.6212 62.6291 53.9743 62.7126 52.8142C62.7488 52.2989 62.7557 51.9811 62.6841 51.6567C62.6173 51.3527 62.4869 51.0772 62.2629 50.6742C62.2493 50.1728 62.2359 49.6714 62.2226 49.17C62.2088 48.6384 62.1938 48.1061 62.18 47.5744C62.163 46.9474 62.0939 46.4379 61.9667 45.9367C61.8406 45.439 61.6604 44.9602 61.4192 44.3856C61.2691 44.0237 61.1273 43.6584 60.9937 43.29L60.6459 43.4172L60.6995 43.3977L60.9937 43.29V43.2886C60.7864 42.7295 60.582 42.1852 60.2959 41.6028C60.3143 41.4905 60.333 41.3696 60.3512 41.2407L60.9039 41.7732L61.7186 42.5582C62.3398 43.1567 62.9077 43.7011 63.575 44.0943C64.265 44.5016 65.0409 44.738 66.0455 44.6902C67.0974 44.6407 68.223 44.1977 69.1496 43.514C70.0461 42.8521 70.7655 41.9598 71.0657 40.9721L71.3259 40.1154L71.5338 39.4317C73.0088 39.6815 74.5921 39.7621 76.1213 39.6021C77.5969 39.4469 79.0225 39.0713 80.252 38.4155C82.0592 37.4511 83.4142 36.0308 84.3881 34.3441H84.3887C85.4768 32.4592 86.0862 30.2379 86.3177 27.9522C86.5033 26.1191 86.402 23.627 86.0203 21.2236ZM66.9094 36.6298C66.0594 36.3437 65.4683 35.9263 64.7216 35.4556C64.9249 36.3719 65.0173 37.3409 64.7467 38.2554C64.3172 39.7069 63.6234 42.0812 65.5939 42.5194C66.3438 42.6858 66.684 42.6619 67.7425 42.1155C66.8858 42.3095 66.4537 42.2623 65.8648 42.1529C65.331 42.0547 65.0481 41.7159 64.8989 41.3161C65.0855 41.4505 65.3895 41.5236 65.9094 41.6488C67.37 42.0012 68.7619 41.2976 69.0342 40.2849C69.1925 39.6931 69.1658 39.3822 69.5023 38.5755C69.8046 38.6691 70.1169 38.754 70.4376 38.8317L69.8946 40.6019C69.4254 42.1333 67.596 43.3683 65.981 43.3398C64.4882 43.3136 63.5413 42.3783 62.5105 41.4614C61.8006 40.8293 61.1172 40.225 60.4401 39.6263C58.5819 39.0399 57.0925 38.3547 55.3678 37.078C56.5953 38.5203 57.4275 39.3188 59.1392 40.0365C58.8905 42.5755 58.0079 44.4271 57.2557 46.857C56.9148 47.9555 54.227 52.3585 53.482 52.7877C52.9509 53.0937 49.6237 55.8959 48.9981 56.2658C48.5318 56.8847 48.1227 57.7403 47.4217 58.1105C45.2863 59.2398 43.914 57.0776 42.7649 55.2516C42.2418 54.4197 40.7886 52.0234 42.0552 51.3521C43.2528 50.7179 43.9235 50.2648 45.1455 49.4622C45.3252 49.7895 45.6329 50.1056 45.8336 50.4324L45.7006 49.3598C45.62 48.712 45.6234 48.1861 45.6746 47.5344C45.7247 46.9034 45.7743 46.2723 45.8238 45.641C45.6398 46.2827 45.2725 46.9241 45.0891 47.5652C45.0157 47.8219 44.955 48.0292 44.9199 48.2215C42.1782 48.7817 39.4564 48.8165 36.7141 48.3274C36.5391 47.3121 36.326 46.2542 36.1473 45.4957C36.0932 46.3449 36.128 48.6933 36.1237 50.0083C36.1202 51.0268 36.0776 51.3757 35.552 52.2422C35.0603 53.0534 34.8521 53.2377 34.1633 54.6085C34.2208 55.4736 34.2217 56.045 33.992 56.866C33.61 58.2308 29.7545 57.1734 28.7378 56.8948C27.4852 56.5522 24.8961 56.0427 25.5473 54.373C26.1202 52.9037 26.4835 51.3544 26.7636 49.2984C24.4689 45.9928 22.3352 41.4632 21.9256 37.4497C21.6075 34.3335 21.7984 32.4154 22.4726 30.5091C23.5411 27.4888 25.0363 24.8743 27.4349 22.7691C30.6705 19.9299 33.6949 18.7899 38.431 18.0688C37.2921 19.344 36.1654 20.6919 34.9374 22.1373C33.694 23.6005 32.9557 25.0784 32.166 26.6793C31.0756 28.8898 31.0992 29.731 32.5446 31.6718C33.7902 33.3444 34.4627 34.0971 35.0067 35.7337C34.5577 36.6595 34.3941 37.4422 34.2433 38.7062C35.7684 40.3739 36.9021 41.5161 38.3829 41.8679C39.8358 42.2134 41.0486 42.1466 42.3486 41.4822C45.2351 40.0065 47.9059 38.1008 51.162 38.022C52.6685 34.3188 52.5162 31.2242 51.7931 27.6411C51.2991 25.1939 51.1007 22.8768 50.9473 20.3821C50.3367 22.9514 50.2219 25.2106 50.675 27.77C51.2213 30.854 51.646 34.2615 50.1266 36.9721C47.1819 37.1975 44.6588 38.9889 42.0052 40.3632C40.9383 40.9159 39.8277 40.9698 38.6471 40.6456C37.5512 40.3445 36.8117 39.6194 35.6311 38.2577C35.6124 36.8906 35.921 36.2599 36.5489 35.0215C37.5576 33.0332 38.6708 31.1824 39.8925 29.2264C38.3967 31.0319 36.9792 32.5406 35.8018 34.3562C35.3516 33.074 34.7079 32.4229 33.6419 30.9789C32.6007 29.5686 32.4919 28.9514 33.2706 27.3192C34.0533 25.6792 34.7171 24.2379 36.0497 22.7991C38.3518 20.3127 40.461 17.5457 42.9787 15.0971C44.3458 13.7677 44.9009 13.8135 46.7141 13.5388C48.3533 13.2901 49.9533 12.9766 51.6246 12.5886C50.0083 12.7391 48.4457 12.7944 46.8719 12.8333L46.823 12.8347C48.3717 10.8573 49.2701 9.75536 51.7847 8.6626C57.9762 5.97389 61.9103 5.68314 66.7738 9.77119C68.0344 10.8311 69.1353 11.8597 70.4131 12.7737C69.9496 12.8134 69.5504 12.8966 69.0221 13.1039C69.6649 12.9812 70.4073 13.1027 71.0746 13.2248C71.2617 13.3463 71.4546 13.4649 71.6512 13.5809C72.5537 14.1126 73.0658 14.4062 73.6761 15.2563C74.321 16.1547 74.8587 17.0526 75.3322 18.0423C75.0219 17.9312 74.7614 17.8376 74.5294 17.7688C74.2706 17.6502 73.9866 17.5973 73.7025 17.6149C73.4184 17.6325 73.143 17.72 72.9009 17.8696L72.8635 17.8868C72.3643 18.1301 71.5911 18.407 71.0738 18.4911C71.3377 18.5821 71.9216 18.6163 72.1968 18.5072C72.2336 18.4928 72.271 18.4813 72.3096 18.4724C72.1819 18.6896 72.1033 18.9321 72.0793 19.1828C72.0471 19.5139 72.1111 19.8473 72.2638 20.1429L72.2653 20.1461C72.3119 20.256 72.377 20.3571 72.4484 20.4302C72.212 20.5174 71.9705 20.617 71.7215 20.725C72.8756 20.5494 73.9159 20.5191 75.0418 20.6674C75.1161 21.0223 75.1909 21.3986 75.2606 21.7812L74.842 21.814C74.8308 21.8148 74.8195 21.8158 74.8083 21.8169C74.2755 21.3911 73.6819 21.4628 72.871 21.6479C70.4045 22.2101 70.984 23.5939 69.8497 25.6792C71.0277 24.2393 70.9402 22.7326 72.86 22.2777C73.3074 22.1721 73.6119 22.0394 73.9148 22.0849C73.3698 22.3589 72.8986 22.8135 72.7115 23.3411C72.1847 24.8291 72.5117 26.0828 71.9328 27.4727C72.6496 26.2302 72.693 25.0177 73.3344 23.7102C73.5647 23.241 74.4191 22.4896 74.9436 22.4781L75.3754 22.4686C75.5021 23.2954 75.579 24.1167 75.53 24.7978C75.4405 26.0408 75.1175 27.8857 74.9243 28.5919C75.5738 27.7568 75.8697 25.9884 76.155 24.7431C76.4521 23.4471 76.3769 21.8917 76.117 20.499C75.76 18.5884 77.7279 18.8993 78.8702 17.9988C79.7099 17.3367 80.2882 16.28 81.058 15.5309C81.8217 14.7882 83.0242 15.8795 83.3244 16.6052C84.6267 19.7566 85.22 24.714 84.8763 27.8906C84.49 31.4551 82.7685 35.3462 79.6247 37.1011C75.6169 39.3378 70.8915 37.9713 66.9094 36.6298ZM61.2148 52.461C61.0841 53.9317 60.5938 54.0287 59.3024 54.0063C58.7158 53.9959 56.3794 53.9853 55.7864 53.9343C54.9487 53.8621 54.4783 53.7872 54.2224 53.5961C55.5385 52.63 57.7747 48.6412 58.2108 47.2678C58.672 45.8169 59.1767 44.5509 59.552 43.21C59.7248 43.7705 59.8609 44.3258 60.1122 44.9211C60.5317 45.916 60.7369 46.5306 60.7668 47.5977L60.8618 50.9753C61.2225 51.6063 61.2787 51.741 61.2148 52.4607V52.461ZM21.6058 41.3198C22.4415 44.2109 23.8653 47.0519 25.4437 49.4404V49.4821C25.3444 49.8929 25.2301 50.2925 24.9903 50.6134C23.8618 52.123 20.9923 49.9073 20.1615 49.0598C19.2536 48.1323 18.6459 47.0346 18.5011 46.0046C18.3957 45.2539 18.4982 45.2354 19.0221 44.704L21.1414 42.5585L21.6058 41.3198ZM20.0095 23.1379C19.7954 23.5976 19.6434 23.9462 19.54 24.3049C19.0901 25.8589 19.7435 27.2458 18.3327 28.3723C18.9957 29.7097 18.9651 30.2434 20.5073 29.6254C21.102 29.3864 21.5925 29.0525 22.0307 28.657C21.8186 29.2079 21.6236 29.7653 21.446 30.3283C21.4155 30.4233 21.3864 30.5192 21.3585 30.6142C20.2557 31.0823 18.8051 31.3796 18.2501 30.2207C17.9806 29.6579 17.8283 29.1057 17.6317 28.3947C15.8155 26.5132 18.5305 24.0289 20.0095 23.1379ZM20.9022 25.1311C20.678 24.9066 20.4986 24.7549 20.2087 24.7877C20.2332 24.5977 20.2657 24.4143 20.3115 24.2422C20.3345 24.1535 20.3593 24.0666 20.3858 23.9793C20.7617 24.1984 20.8608 24.5954 20.9022 25.1308V25.1311ZM75.361 18.103C75.4295 18.2475 75.4969 18.3946 75.5631 18.5435C75.5084 18.5838 75.4563 18.6261 75.4077 18.6707C75.3182 18.4619 75.1891 18.2724 75.0274 18.1128C75.1356 18.1088 75.2467 18.1053 75.3613 18.103H75.361ZM22.9271 26.6439L22.9268 26.6436V26.6439H22.9271ZM36.8885 49.4168H36.8891H36.8885ZM53.2577 54.3036H53.2575H53.2577ZM59.9104 41.6583H59.911L59.9107 41.6586L59.9104 41.6583ZM20.1972 28.9057H20.1969L20.1846 28.874L20.1969 28.906L20.1972 28.9057ZM84.0625 34.1559L84.0711 34.161L84.0625 34.1559Z" fill="#F1F1F1"/>
<path d="M13.789 28.4528C14.078 25.1805 14.7142 23.7677 17.039 21.3049C14.1229 23.3598 13.3952 24.2936 13.789 28.4525" fill="#B1B1B1"/>
<path d="M13.0368 25.7801C13.3577 24.3074 13.6571 23.7515 14.5653 22.5427C13.0917 23.5719 12.9 23.9945 13.0365 25.7801" fill="#B1B1B1"/>
<path d="M47.2506 5.24976C45.5035 5.67091 45.1704 5.9939 44.6465 7.70645C45.4825 6.45248 45.9638 6.04457 47.2506 5.24976Z" fill="#B1B1B1"/>
<path d="M50.0053 5.00029C46.5402 5.84951 45.522 6.45346 44.3711 10.4695C45.8341 7.52808 46.9418 6.44511 50.0053 5" fill="#B1B1B1"/>
<path d="M57.4682 19.6397C57.8376 18.0035 58.4939 16.4268 61.035 15.2068C57.6669 16.0502 57.0353 17.4651 57.4682 19.64" fill="#F1F1F1"/>
<path d="M78.8994 19.7532C80.8941 19.0422 81.8556 17.4385 82.3331 15.5518C81.5524 17.133 80.3477 18.4555 78.7111 19.2656C77.8329 19.7003 77.2718 19.5486 76.291 19.4556C77.2885 19.742 77.9204 20.1021 78.8994 19.7532Z" fill="#F1F1F1"/>
<path d="M65.3111 20.8636C65.0553 20.3273 64.5991 19.9129 64.0407 19.7096C64.5301 19.4485 65.0105 19.1741 65.3853 18.833C64.2871 19.3414 63.0087 19.2173 62.0662 19.8538C61.2363 20.4146 60.0905 22.1913 59.2471 22.9447C59.8579 22.7075 60.4466 22.2972 60.9887 21.8652C60.9917 22.2756 61.1064 22.6774 61.3206 23.0275C61.5348 23.3776 61.8403 23.6628 62.2044 23.8523C61.8925 24.2607 61.6443 24.714 61.468 25.1967C63.074 23.2933 65.4026 21.8557 67.5922 21.241C66.9801 21.2324 66.2556 21.3467 65.5175 21.5894C65.4899 21.3376 65.4201 21.0922 65.3111 20.8636Z" fill="#F1F1F1"/>
<path d="M62.9994 35.7394C62.9214 36.2322 62.8143 36.8448 62.7363 37.3379C62.945 36.78 63.1961 36.1317 63.4387 35.5998C63.6961 35.0367 63.8409 34.9837 64.387 34.6866C64.7742 34.4759 65.4771 34.1863 65.8643 33.9756C65.4659 34.0427 64.752 34.1892 64.3536 34.2563C63.2896 34.4359 63.1644 34.6915 62.9994 35.7394Z" fill="#F1F1F1"/>
<path d="M44.8245 16.2172C43.5896 17.4378 42.39 21.6263 42.0068 23.3023C42.6105 21.9101 44.1212 18.0158 45.2802 17.0253C45.6003 16.7515 45.824 16.5834 46.0644 16.461C45.2347 17.8523 45.2958 18.1983 45.5868 20.0623C45.8341 18.1672 46.4893 17.4352 47.5645 16.0214C48.743 15.7258 49.8461 15.3714 51.0552 14.8999C49.6934 15.0539 48.3303 15.1953 46.966 15.3242C45.8208 15.4328 45.6363 15.4143 44.8242 16.2172" fill="#F1F1F1"/>
<path d="M61.6475 23.8401C61.5396 23.6132 61.5262 23.3529 61.6102 23.1161C61.6942 22.8794 61.8687 22.6857 62.0954 22.5775C62.219 22.5189 62.3538 22.4877 62.4906 22.4859C62.6274 22.4842 62.763 22.5119 62.8881 22.5673C63.0131 22.6227 63.1248 22.7044 63.2155 22.8068C63.3061 22.9093 63.3736 23.0301 63.4133 23.161C62.9625 23.4958 62.5494 23.8896 62.2028 24.3462C61.9696 24.2523 61.7629 24.0819 61.6472 23.8401" fill="#F1F1F1"/>
<path d="M72.1929 19.7607C72.2309 19.3706 72.5634 19.083 72.9535 19.1208C73.1411 19.1393 73.3138 19.2313 73.4338 19.3768C73.5538 19.5223 73.6113 19.7094 73.5937 19.8971C73.5856 19.9777 73.5639 20.0562 73.5295 20.1295C73.1725 20.1908 72.8156 20.295 72.4477 20.4303C72.2939 20.2728 72.1713 19.9855 72.1929 19.7607Z" fill="#F1F1F1"/>
</svg>
