<svg xmlns="http://www.w3.org/2000/svg" xmlns:xlink="http://www.w3.org/1999/xlink" viewBox="0 0 395.72 396.17"><defs><style>.cls-1{fill:#ffbc3f;}.cls-2{fill:#ffd465;}.cls-3{fill:url(#linear-gradient);}.cls-4{fill:#5a43db;}.cls-5{fill:#d0dbf8;}.cls-6{fill:url(#linear-gradient-2);}.cls-7{fill:#a2b7eb;}.cls-8{fill:url(#linear-gradient-3);}.cls-9{fill:url(#linear-gradient-4);}.cls-10{fill:#f7f9ff;}.cls-11{fill:#cd86ff;}.cls-12{fill:#33e7d2;}.cls-13{fill:#d5dff9;}.cls-14{fill:#fff;}.cls-15{fill:url(#linear-gradient-5);}.cls-16{fill:#211155;}.cls-17{fill:url(#linear-gradient-6);}.cls-18{fill:#ff70e9;}.cls-19{fill:#986dff;}.cls-20{fill:#27145a;}.cls-21{fill:url(#linear-gradient-7);}.cls-22{fill:url(#linear-gradient-8);}.cls-23{fill:#4e90f9;}.cls-24{fill:url(#linear-gradient-9);}.cls-25{fill:url(#linear-gradient-10);}.cls-26{fill:#efeff2;}.cls-27{fill:url(#linear-gradient-11);}.cls-28{fill:#f6f8fd;}.cls-29{fill:url(#linear-gradient-12);}.cls-30{fill:url(#linear-gradient-13);}.cls-31{fill:#3c2da1;}</style><linearGradient id="linear-gradient" x1="235.08" y1="255.81" x2="273.02" y2="255.81" gradientUnits="userSpaceOnUse"><stop offset="0" stop-color="#d0dbf8"/><stop offset="0.01" stop-color="#d0dbf8"/><stop offset="0.29" stop-color="#e1e8fa"/><stop offset="0.6" stop-color="#ebf0fc"/><stop offset="1" stop-color="#eef2fc"/></linearGradient><linearGradient id="linear-gradient-2" x1="6703.92" y1="220.73" x2="6810.77" y2="220.73" gradientTransform="matrix(-1, 0, 0, 1, 6925.63, 0.46)" gradientUnits="userSpaceOnUse"><stop offset="0" stop-color="#d9e2f9"/><stop offset="1" stop-color="#eef2fc"/></linearGradient><linearGradient id="linear-gradient-3" x1="157.5" y1="206.38" x2="238.26" y2="206.38" gradientTransform="matrix(1, 0, 0, 1, 0, 0)" xlink:href="#linear-gradient-2"/><linearGradient id="linear-gradient-4" x1="6630.19" y1="112.21" x2="6811.09" y2="112.21" gradientTransform="matrix(-1, 0, 0, 1, 6930.15, 0)" xlink:href="#linear-gradient-2"/><linearGradient id="linear-gradient-5" x1="213.81" y1="151.64" x2="268.32" y2="151.64" gradientTransform="matrix(1, 0, 0, 1, 0, 0)" xlink:href="#linear-gradient-2"/><linearGradient id="linear-gradient-6" y1="285.7" x2="190.11" y2="285.7" gradientUnits="userSpaceOnUse"><stop offset="0" stop-color="#eef2fc"/><stop offset="0.37" stop-color="#e6ecfb"/><stop offset="1" stop-color="#dde5fa"/></linearGradient><linearGradient id="linear-gradient-7" x1="51.68" y1="117.49" x2="97.54" y2="117.49" xlink:href="#linear-gradient-6"/><linearGradient id="linear-gradient-8" x1="7133.53" y1="138.45" x2="7163.63" y2="138.45" gradientTransform="matrix(-1, 0, 0, 1, 7220.5, 0)" xlink:href="#linear-gradient-2"/><linearGradient id="linear-gradient-9" x1="263.91" y1="264.46" x2="395.72" y2="264.46" gradientTransform="matrix(1, 0, 0, 1, 0, 0)" xlink:href="#linear-gradient-2"/><linearGradient id="linear-gradient-10" x1="183.77" y1="337.17" x2="373.88" y2="337.17" gradientUnits="userSpaceOnUse"><stop offset="0" stop-color="#eef2fc"/><stop offset="0.55" stop-color="#e7edfb"/><stop offset="1" stop-color="#dde5fa"/></linearGradient><linearGradient id="linear-gradient-11" x1="333.16" y1="291.14" x2="372.37" y2="291.14" gradientUnits="userSpaceOnUse"><stop offset="0" stop-color="#e1e8fb"/><stop offset="0.48" stop-color="#e4eafb"/><stop offset="0.81" stop-color="#edf1fc"/><stop offset="1" stop-color="#f6f8fd"/></linearGradient><linearGradient id="linear-gradient-12" x1="127.63" y1="268.18" x2="153.95" y2="253.43" gradientUnits="userSpaceOnUse"><stop offset="0" stop-color="#5a43db"/><stop offset="0.27" stop-color="#5841d8"/><stop offset="0.49" stop-color="#533ccd"/><stop offset="0.71" stop-color="#4b33bb"/><stop offset="0.92" stop-color="#3f27a2"/><stop offset="1" stop-color="#392196"/></linearGradient><linearGradient id="linear-gradient-13" x1="90.01" y1="148.38" x2="143.4" y2="225.54" gradientUnits="userSpaceOnUse"><stop offset="0" stop-color="#5a43db"/><stop offset="0.25" stop-color="#543dcf"/><stop offset="0.7" stop-color="#452daf"/><stop offset="1" stop-color="#392196"/></linearGradient></defs><g id="Layer_2" data-name="Layer 2"><g id="Layer_1-2" data-name="Layer 1"><polygon class="cls-1" points="61.93 306.04 34.67 313.34 50.87 330.89 78.13 323.59 61.93 306.04"/><polygon class="cls-2" points="54.63 320.62 79.07 334.73 54.63 348.83 38.42 339.47 38.42 329.98 54.63 320.62"/><polygon class="cls-1" points="38.42 339.47 38.42 329.98 46.64 334.73 38.42 339.47"/><path class="cls-3" d="M273,253a3.46,3.46,0,0,1,0,.45,5.11,5.11,0,0,1-1.42,3.19,6.05,6.05,0,0,1-3.07,1.66,22.81,22.81,0,0,0-6.94,3,21.71,21.71,0,0,0-3.37,2.63,13,13,0,0,1-8.91,3.51h-.1a20.89,20.89,0,0,1-9.26-2.13c-2.54-1.32-4.15-2.83-4.67-5.35a10.2,10.2,0,0,1-.17-1.91,6.48,6.48,0,0,1,.24-1.71c1-3.65,5.06-6.26,8.74-7.69,3.06-1.19,6.51-2.49,8.29-3,5.61-1.54,9.78-2,13.89-.29.55.25,1.12.51,1.68.82s.87.53,1.25.74c2.26,1.52,3.2,2.86,3.58,3.93A5.65,5.65,0,0,1,273,253Z"/><path class="cls-4" d="M268.17,256.87a4.57,4.57,0,0,0,2.34-1.24,3.66,3.66,0,0,0,1-2.34c0-.1,0-.21,0-.31v-.15a6.17,6.17,0,0,1-3.06,1.66,22.59,22.59,0,0,0-10.31,5.59,13,13,0,0,1-8.91,3.5h-.1a20.76,20.76,0,0,1-9.26-2.14,10,10,0,0,1-3.35-2.56c0,.26.06.5.1.73.39,1.87,1.48,3.09,3.91,4.35a19.46,19.46,0,0,0,8.6,2h.09a11.55,11.55,0,0,0,7.92-3.1,23.15,23.15,0,0,1,3.59-2.81A24.48,24.48,0,0,1,268.17,256.87Z"/><path class="cls-5" d="M222,245.8h-2.36L145.14,203a5.38,5.38,0,0,0-5.39,0l-22.46,13h-2.14v2.69a2.67,2.67,0,0,0,1.34,2.43l75.58,43.41a5.39,5.39,0,0,0,5.38,0l23.24-13.46a2.65,2.65,0,0,0,1.34-2.37Z"/><path class="cls-4" d="M194.77,264.27a4.41,4.41,0,0,1-2.21-.59L117,220.28a1.7,1.7,0,0,1-.85-1.57l0-1a4,4,0,0,1,0-.77h1.44l22.68-13.14a4.45,4.45,0,0,1,2.22-.6,4.41,4.41,0,0,1,2.21.59l74.77,43h1.65v.75s0,1.18,0,1.18a1.71,1.71,0,0,1-.86,1.53L197,263.68A4.38,4.38,0,0,1,194.77,264.27Z"/><path class="cls-6" d="M116.49,213.36l23.26-13.47a5.36,5.36,0,0,1,5.38,0l75.56,43.41a2.69,2.69,0,0,1,0,4.66l-23.24,13.47a5.39,5.39,0,0,1-5.38,0L116.5,218A2.69,2.69,0,0,1,116.49,213.36Z"/><path class="cls-7" d="M124.77,216l-2.64-1.51c-.4-.23-.45-.56-.11-.73l2.23-1.18a1.54,1.54,0,0,1,1.33.09l2.64,1.52c.4.22.45.55.11.73l-2.23,1.18A1.57,1.57,0,0,1,124.77,216Z"/><path class="cls-7" d="M135.63,222.22,133,220.71c-.4-.23-.45-.56-.11-.73l2.23-1.18a1.57,1.57,0,0,1,1.33.09l2.64,1.52c.4.23.45.56.11.73L137,222.32A1.57,1.57,0,0,1,135.63,222.22Z"/><path class="cls-7" d="M130.2,219.11l-2.64-1.51c-.4-.23-.45-.56-.11-.74l2.23-1.17a1.54,1.54,0,0,1,1.33.09l2.64,1.51c.4.23.45.56.11.74l-2.23,1.17A1.54,1.54,0,0,1,130.2,219.11Z"/><path class="cls-7" d="M167,240.22l-2.64-1.51c-.4-.23-.45-.56-.11-.74l2.23-1.17a1.54,1.54,0,0,1,1.33.09l2.64,1.51c.39.23.44.56.11.74l-2.23,1.17A1.53,1.53,0,0,1,167,240.22Z"/><path class="cls-7" d="M141.05,225.33l-2.64-1.51c-.4-.23-.45-.56-.11-.74l2.23-1.17a1.54,1.54,0,0,1,1.33.09l2.63,1.52c.4.22.45.55.12.73l-2.24,1.18A1.55,1.55,0,0,1,141.05,225.33Z"/><path class="cls-7" d="M177.61,246.32,175,244.81c-.4-.23-.45-.56-.11-.74l2.23-1.17a1.54,1.54,0,0,1,1.33.09l2.64,1.52c.39.22.44.55.11.73l-2.23,1.17A1.54,1.54,0,0,1,177.61,246.32Z"/><path class="cls-7" d="M182.91,249.37l-2.63-1.51c-.4-.23-.45-.56-.12-.73l2.23-1.18a1.53,1.53,0,0,1,1.33.09l2.64,1.52c.4.22.45.55.11.73l-2.23,1.18A1.58,1.58,0,0,1,182.91,249.37Z"/><path class="cls-7" d="M193.53,255.48,190.89,254c-.4-.23-.45-.56-.11-.73l2.23-1.18a1.61,1.61,0,0,1,1.33.09l2.63,1.52c.4.23.45.56.12.73l-2.23,1.18A1.57,1.57,0,0,1,193.53,255.48Z"/><path class="cls-7" d="M188.22,252.42l-2.64-1.51c-.4-.23-.45-.56-.11-.73L187.7,249a1.57,1.57,0,0,1,1.33.09l2.64,1.52c.4.23.45.55.11.73l-2.23,1.18A1.57,1.57,0,0,1,188.22,252.42Z"/><path class="cls-7" d="M172.3,243.27l-2.64-1.51c-.39-.23-.44-.56-.11-.74l2.23-1.17a1.54,1.54,0,0,1,1.33.09l2.64,1.51c.4.23.45.56.11.74l-2.23,1.17A1.54,1.54,0,0,1,172.3,243.27Z"/><path class="cls-7" d="M161.5,237.12l-17.75-10.19c-.41-.23-.46-.56-.12-.74l2.26-1.19a1.56,1.56,0,0,1,1.34.09L165,235.28c.4.23.45.57.11.74l-2.25,1.19A1.58,1.58,0,0,1,161.5,237.12Z"/><path class="cls-7" d="M142.87,206.46l-2.64-1.52c-.4-.23-.45-.55-.11-.73l2.23-1.18a1.58,1.58,0,0,1,1.33.1l2.64,1.51c.39.23.44.56.11.73l-2.23,1.18A1.54,1.54,0,0,1,142.87,206.46Z"/><path class="cls-7" d="M153.73,212.69l-2.64-1.52c-.4-.23-.45-.55-.11-.73l2.23-1.18a1.58,1.58,0,0,1,1.33.1l2.63,1.51c.4.23.45.56.12.73l-2.23,1.18A1.53,1.53,0,0,1,153.73,212.69Z"/><path class="cls-7" d="M148.22,209.53,145.59,208c-.4-.23-.45-.56-.12-.74l2.23-1.17a1.53,1.53,0,0,1,1.33.09l2.64,1.51c.4.23.45.56.11.74l-2.23,1.17A1.54,1.54,0,0,1,148.22,209.53Z"/><path class="cls-7" d="M159.23,215.84l-2.64-1.51c-.4-.23-.45-.56-.11-.73l2.23-1.18a1.54,1.54,0,0,1,1.33.09l2.64,1.52c.39.23.44.55.11.73l-2.23,1.18A1.57,1.57,0,0,1,159.23,215.84Z"/><path class="cls-7" d="M164.73,219l-2.64-1.51c-.4-.23-.45-.56-.11-.74l2.23-1.17a1.54,1.54,0,0,1,1.33.09l2.64,1.51c.4.23.45.56.11.74l-2.23,1.17A1.54,1.54,0,0,1,164.73,219Z"/><path class="cls-7" d="M170.23,222.16l-2.64-1.52c-.39-.22-.44-.55-.11-.73l2.23-1.18a1.57,1.57,0,0,1,1.33.1l2.64,1.51c.4.23.45.56.11.74l-2.23,1.17A1.54,1.54,0,0,1,170.23,222.16Z"/><path class="cls-7" d="M175.74,225.32l-2.64-1.52c-.4-.23-.45-.56-.11-.73l2.23-1.18a1.55,1.55,0,0,1,1.32.09l2.64,1.52c.4.23.45.56.11.73l-2.23,1.18A1.55,1.55,0,0,1,175.74,225.32Z"/><path class="cls-7" d="M181.24,228.47,178.6,227c-.4-.23-.45-.56-.11-.74l2.23-1.17a1.54,1.54,0,0,1,1.33.09l2.64,1.52c.39.22.44.55.11.73l-2.23,1.18A1.57,1.57,0,0,1,181.24,228.47Z"/><path class="cls-7" d="M186.74,231.63l-2.64-1.51c-.4-.23-.45-.56-.11-.74l2.23-1.17a1.54,1.54,0,0,1,1.33.09l2.64,1.51c.4.23.45.56.11.74l-2.23,1.17A1.54,1.54,0,0,1,186.74,231.63Z"/><path class="cls-7" d="M192.24,234.79l-2.64-1.52c-.39-.23-.44-.55-.11-.73l2.23-1.18a1.57,1.57,0,0,1,1.33.1l2.64,1.51c.4.23.45.56.11.73l-2.23,1.18A1.57,1.57,0,0,1,192.24,234.79Z"/><path class="cls-7" d="M197.74,237.94l-2.63-1.51c-.4-.23-.45-.56-.12-.73l2.23-1.18a1.53,1.53,0,0,1,1.33.09l2.64,1.52c.4.22.45.55.11.73L199.07,238A1.58,1.58,0,0,1,197.74,237.94Z"/><path class="cls-7" d="M203.25,241.1l-2.64-1.51c-.4-.23-.45-.56-.11-.74l2.23-1.17a1.54,1.54,0,0,1,1.33.09l2.63,1.51c.4.23.45.56.12.74l-2.23,1.17A1.53,1.53,0,0,1,203.25,241.1Z"/><path class="cls-7" d="M211.42,245.71l-5-2.86c-.38-.21-.43-.53-.11-.7l2.13-1.12a1.47,1.47,0,0,1,1.27.09l5,2.85c.38.22.42.53.1.7l-2.13,1.13A1.51,1.51,0,0,1,211.42,245.71Z"/><path class="cls-7" d="M152.07,216.72l-2.64-1.52c-.4-.23-.45-.55-.11-.73l2.23-1.18a1.58,1.58,0,0,1,1.33.1l2.64,1.51c.39.23.44.56.11.73l-2.23,1.18A1.57,1.57,0,0,1,152.07,216.72Z"/><path class="cls-7" d="M146.56,213.56,143.92,212c-.4-.23-.45-.56-.11-.73l2.23-1.18a1.57,1.57,0,0,1,1.33.09l2.64,1.52c.4.23.45.56.11.73l-2.23,1.18A1.57,1.57,0,0,1,146.56,213.56Z"/><path class="cls-7" d="M157.58,219.88l-2.64-1.52c-.4-.23-.45-.55-.11-.73l2.23-1.18a1.58,1.58,0,0,1,1.33.1l2.63,1.51c.4.23.45.56.12.73L158.91,220A1.53,1.53,0,0,1,157.58,219.88Z"/><path class="cls-7" d="M163.09,223l-2.64-1.52c-.4-.22-.45-.55-.11-.73l2.23-1.18a1.55,1.55,0,0,1,1.32.1l2.64,1.51c.4.23.45.56.11.73l-2.23,1.18A1.51,1.51,0,0,1,163.09,223Z"/><path class="cls-7" d="M168.59,226.2,166,224.68c-.4-.22-.45-.55-.12-.73l2.23-1.18a1.57,1.57,0,0,1,1.33.1l2.64,1.51c.4.23.45.56.11.74l-2.23,1.17A1.54,1.54,0,0,1,168.59,226.2Z"/><path class="cls-7" d="M174.1,229.36l-2.64-1.52c-.39-.22-.44-.55-.11-.73l2.23-1.17a1.54,1.54,0,0,1,1.33.09l2.64,1.51c.4.23.45.56.11.74l-2.23,1.17A1.54,1.54,0,0,1,174.1,229.36Z"/><path class="cls-7" d="M179.61,232.52,177,231c-.4-.23-.45-.56-.11-.74l2.23-1.17a1.54,1.54,0,0,1,1.33.09l2.64,1.51c.4.23.45.56.11.74l-2.23,1.17A1.54,1.54,0,0,1,179.61,232.52Z"/><path class="cls-7" d="M185.12,235.68l-2.64-1.51c-.4-.23-.45-.56-.11-.74l2.23-1.17a1.54,1.54,0,0,1,1.33.09l2.64,1.51c.4.23.45.56.11.74l-2.23,1.17A1.54,1.54,0,0,1,185.12,235.68Z"/><path class="cls-7" d="M190.63,238.84,188,237.33c-.4-.23-.45-.56-.11-.74l2.23-1.17a1.54,1.54,0,0,1,1.33.09l2.64,1.51c.39.23.44.56.11.74L192,238.93A1.54,1.54,0,0,1,190.63,238.84Z"/><path class="cls-7" d="M196.14,242l-2.64-1.51c-.4-.23-.45-.56-.11-.74l2.23-1.17a1.54,1.54,0,0,1,1.33.09l2.63,1.51c.4.23.45.56.12.74l-2.23,1.17A1.53,1.53,0,0,1,196.14,242Z"/><path class="cls-7" d="M201.65,245.16,199,243.65c-.4-.23-.45-.56-.12-.74l2.24-1.17a1.51,1.51,0,0,1,1.32.09l2.64,1.52c.4.22.45.55.11.73L203,245.25A1.51,1.51,0,0,1,201.65,245.16Z"/><path class="cls-7" d="M207.09,248.28l-2.64-1.51c-.4-.23-.45-.56-.11-.73l2.23-1.18a1.57,1.57,0,0,1,1.33.09l2.63,1.52c.4.23.45.55.12.73l-2.23,1.18A1.57,1.57,0,0,1,207.09,248.28Z"/><path class="cls-7" d="M141,210.29l-5-2.85c-.38-.22-.43-.53-.11-.7l2.13-1.13a1.53,1.53,0,0,1,1.28.09l5,2.86c.38.21.43.53.1.7l-2.13,1.12A1.47,1.47,0,0,1,141,210.29Z"/><path class="cls-7" d="M148.87,219.86l-2.64-1.51c-.39-.23-.44-.56-.11-.74l2.23-1.17a1.54,1.54,0,0,1,1.33.09l2.64,1.52c.4.22.45.55.11.73L150.2,220A1.54,1.54,0,0,1,148.87,219.86Z"/><path class="cls-7" d="M143.37,216.7l-2.64-1.51c-.4-.23-.45-.56-.11-.73l2.23-1.18a1.54,1.54,0,0,1,1.33.09l2.63,1.52c.4.23.45.55.12.73l-2.23,1.18A1.57,1.57,0,0,1,143.37,216.7Z"/><path class="cls-7" d="M154.38,223l-2.64-1.51c-.4-.23-.45-.56-.11-.74l2.23-1.17a1.54,1.54,0,0,1,1.33.09l2.64,1.51c.39.23.44.56.11.74l-2.23,1.17A1.53,1.53,0,0,1,154.38,223Z"/><path class="cls-7" d="M159.88,226.18l-2.64-1.51c-.39-.23-.44-.56-.11-.74l2.23-1.17a1.54,1.54,0,0,1,1.33.09l2.64,1.51c.4.23.45.56.11.74l-2.23,1.17A1.54,1.54,0,0,1,159.88,226.18Z"/><path class="cls-7" d="M165.39,229.34l-2.64-1.52c-.4-.22-.45-.55-.11-.73l2.23-1.17a1.54,1.54,0,0,1,1.33.09l2.64,1.51c.39.23.44.56.11.74l-2.23,1.17A1.53,1.53,0,0,1,165.39,229.34Z"/><path class="cls-7" d="M170.89,232.5,168.25,231c-.39-.22-.44-.55-.11-.73l2.23-1.18a1.57,1.57,0,0,1,1.33.1l2.64,1.51c.4.23.45.56.11.73l-2.23,1.18A1.54,1.54,0,0,1,170.89,232.5Z"/><path class="cls-7" d="M176.4,235.66l-2.64-1.52c-.4-.23-.45-.55-.11-.73l2.23-1.18a1.58,1.58,0,0,1,1.33.1l2.64,1.51c.39.23.44.56.11.73l-2.23,1.18A1.57,1.57,0,0,1,176.4,235.66Z"/><path class="cls-7" d="M181.9,238.81l-2.64-1.51c-.39-.23-.44-.56-.11-.73l2.23-1.18a1.57,1.57,0,0,1,1.33.09l2.64,1.52c.4.23.45.55.11.73l-2.23,1.18A1.58,1.58,0,0,1,181.9,238.81Z"/><path class="cls-7" d="M187.41,242l-2.64-1.51c-.4-.23-.45-.56-.11-.73l2.23-1.18a1.54,1.54,0,0,1,1.33.09l2.64,1.52c.39.22.44.55.11.73l-2.23,1.18A1.57,1.57,0,0,1,187.41,242Z"/><path class="cls-7" d="M192.91,245.13l-2.64-1.51c-.39-.23-.44-.56-.11-.74l2.23-1.17a1.54,1.54,0,0,1,1.33.09l2.64,1.52c.4.22.45.55.11.73l-2.23,1.17A1.54,1.54,0,0,1,192.91,245.13Z"/><path class="cls-7" d="M137.57,213.31l-6-3.44c-.38-.22-.43-.54-.11-.71l2.15-1.13a1.49,1.49,0,0,1,1.28.09l6,3.44c.39.22.44.53.11.71l-2.15,1.13A1.49,1.49,0,0,1,137.57,213.31Z"/><path class="cls-7" d="M202.3,250.45l-6-3.44c-.39-.22-.44-.54-.11-.71l2.15-1.14a1.49,1.49,0,0,1,1.28.09l6,3.45c.38.22.43.53.11.7l-2.15,1.14A1.49,1.49,0,0,1,202.3,250.45Z"/><path class="cls-7" d="M147.11,223.85l-2.64-1.51c-.4-.23-.45-.56-.11-.73l2.23-1.18a1.57,1.57,0,0,1,1.33.09l2.64,1.52c.39.23.44.55.11.73L148.44,224A1.57,1.57,0,0,1,147.11,223.85Z"/><path class="cls-7" d="M141.61,220.7,139,219.18c-.4-.22-.45-.55-.11-.73l2.23-1.18a1.58,1.58,0,0,1,1.33.1l2.63,1.51c.4.23.45.56.12.74l-2.23,1.17A1.53,1.53,0,0,1,141.61,220.7Z"/><path class="cls-7" d="M152.61,227,150,225.5c-.4-.23-.45-.56-.11-.74l2.23-1.17a1.54,1.54,0,0,1,1.33.09l2.64,1.51c.39.23.44.56.11.74l-2.23,1.17A1.54,1.54,0,0,1,152.61,227Z"/><path class="cls-7" d="M158.11,230.17l-2.64-1.52c-.4-.22-.45-.55-.11-.73l2.23-1.18a1.57,1.57,0,0,1,1.33.1l2.64,1.51c.39.23.44.56.11.73l-2.23,1.18A1.54,1.54,0,0,1,158.11,230.17Z"/><path class="cls-7" d="M163.61,233.32,161,231.81c-.4-.23-.45-.56-.11-.73l2.23-1.18a1.54,1.54,0,0,1,1.33.09l2.64,1.52c.4.22.45.55.11.73l-2.23,1.18A1.57,1.57,0,0,1,163.61,233.32Z"/><path class="cls-7" d="M169.11,236.48,166.47,235c-.4-.23-.45-.56-.11-.74l2.23-1.17a1.54,1.54,0,0,1,1.33.09l2.64,1.51c.4.23.45.56.11.74l-2.23,1.17A1.54,1.54,0,0,1,169.11,236.48Z"/><path class="cls-7" d="M174.61,239.64,172,238.12c-.39-.23-.44-.55-.11-.73l2.23-1.18a1.57,1.57,0,0,1,1.33.1l2.64,1.51c.4.23.45.56.11.73l-2.23,1.18A1.57,1.57,0,0,1,174.61,239.64Z"/><path class="cls-7" d="M180.11,242.79l-2.64-1.51c-.39-.23-.44-.56-.11-.74l2.23-1.17a1.54,1.54,0,0,1,1.33.09l2.64,1.52c.4.22.45.55.11.73l-2.23,1.18A1.58,1.58,0,0,1,180.11,242.79Z"/><path class="cls-7" d="M185.61,246,183,244.44c-.4-.23-.45-.56-.12-.74l2.23-1.17a1.53,1.53,0,0,1,1.33.09l2.64,1.51c.4.23.45.56.11.74L186.94,246A1.54,1.54,0,0,1,185.61,246Z"/><path class="cls-7" d="M135.91,217.43l-9-5.18c-.41-.23-.46-.57-.12-.75l2.3-1.21a1.6,1.6,0,0,1,1.36.09l9,5.18c.41.24.46.58.12.76l-2.3,1.21A1.57,1.57,0,0,1,135.91,217.43Z"/><path class="cls-7" d="M197.76,252.92l-9-5.18c-.4-.23-.46-.57-.11-.75l2.29-1.21a1.59,1.59,0,0,1,1.37.1l9,5.18c.41.23.46.57.11.75L199.13,253A1.59,1.59,0,0,1,197.76,252.92Z"/><polygon class="cls-7" points="219.32 169.92 195.75 158.44 195.75 182.96 219.32 196.62 219.32 169.92"/><path class="cls-8" d="M238.22,216.83c0-1.7-.63-3-2.72-4.15l-12.69-7.3a7,7,0,0,1-3.49-6v-2.67L195.75,183v.77a3.49,3.49,0,0,1-5.23,3l-5.61-3.23c-3.23-1.86-8.07-2.2-10.81-.77l-14.78,7.74a2.89,2.89,0,0,0-1.82,2.55v3.52c0,1.18,1,2.46,2.78,3.49l50.5,29.12c3.23,1.86,8.08,2.2,10.81.76l14.78-7.74C238.71,220.8,238.22,218.88,238.22,216.83Z"/><path class="cls-4" d="M236.15,218.82l-15,7.83a9.74,9.74,0,0,1-9.35-.51L160.6,196.72A3.9,3.9,0,0,1,159,195a4.15,4.15,0,0,1-.27-.77v2.49c0,.49.55,1.37,2.06,2.24l50.52,29a11,11,0,0,0,10.52.54l13.59-7.07c1.13-.69,1.23-1.39,1.19-2.86A4.15,4.15,0,0,1,236.15,218.82Z"/><path class="cls-9" d="M300,210.91V105.79a21,21,0,0,0-10.49-18.27L140.33,1.41a10.34,10.34,0,0,0-9.88-.3c-1.07.57-6.18,3.38-5.85,3.2a10.37,10.37,0,0,0-5.54,9.24V118.36a21,21,0,0,0,10.43,18.13L278.65,223c5.68,3.3,10.49.39,16.34-3.21A10.36,10.36,0,0,0,300,210.91Z"/><path class="cls-4" d="M295.25,216.61a7.88,7.88,0,0,0,2.62-5.88V105.6a18.69,18.69,0,0,0-9.31-16.22L139.42,3.28a7.9,7.9,0,0,0-4-1.09,8.38,8.38,0,0,0-2.16.29,11.23,11.23,0,0,1,2.27,1l149.14,86.1c7.77,4.22,10.95,9.75,10.95,19.07V213.79A11,11,0,0,1,295.25,216.61Z"/><polygon class="cls-10" points="132.65 18.06 132.65 119.89 281.13 206.13 281.13 103.94 132.65 18.06"/><path class="cls-11" d="M268.22,129.78v-.22a1.9,1.9,0,0,0-1-1.65l-14.78-8.74a.76.76,0,0,0-1.14.66v.23a1.9,1.9,0,0,0,1,1.65l14.78,8.73A.76.76,0,0,0,268.22,129.78Z"/><path class="cls-4" d="M256.8,129.5v-.22a1.9,1.9,0,0,0-1-1.65l-3.35-1.95a.76.76,0,0,0-1.14.66v.22a1.92,1.92,0,0,0,1,1.66l3.35,1.94A.77.77,0,0,0,256.8,129.5Z"/><path class="cls-12" d="M268.32,136.66v-.22a1.91,1.91,0,0,0-1-1.65L259.43,130a.76.76,0,0,0-1.14.66v.23a1.9,1.9,0,0,0,.95,1.65l7.93,4.78A.77.77,0,0,0,268.32,136.66Z"/><path class="cls-4" d="M268.22,109.12l-.07,0-16.87-9.68a.14.14,0,0,1-.06-.2.16.16,0,0,1,.21-.06l16.87,9.68a.15.15,0,0,1,.05.2A.14.14,0,0,1,268.22,109.12Z"/><path class="cls-4" d="M268.22,113.38l-.07,0-9-5.15a.15.15,0,1,1,.15-.26l9,5.15a.15.15,0,0,1,.05.2A.14.14,0,0,1,268.22,113.38Z"/><path class="cls-4" d="M257.13,107l-.07,0-5.78-3.32a.14.14,0,0,1-.06-.2.16.16,0,0,1,.21-.06l5.77,3.32a.14.14,0,0,1,.06.2A.16.16,0,0,1,257.13,107Z"/><path class="cls-4" d="M268.22,117.64l-.07,0L251.28,108a.15.15,0,0,1-.06-.21.15.15,0,0,1,.21,0l16.87,9.67a.15.15,0,0,1,.05.2A.14.14,0,0,1,268.22,117.64Z"/><path class="cls-4" d="M261.56,118.08a.1.1,0,0,1-.07,0l-10.21-5.85a.15.15,0,1,1,.15-.26l10.21,5.85a.16.16,0,0,1,.05.21A.14.14,0,0,1,261.56,118.08Z"/><path class="cls-4" d="M268.22,121.9l-.07,0-4.49-2.57a.16.16,0,0,1-.06-.21.15.15,0,0,1,.21,0l4.49,2.57a.15.15,0,0,1,.05.2A.14.14,0,0,1,268.22,121.9Z"/><path class="cls-13" d="M223.23,89.91l-8-5.15c-1.76,5.73.18,12.22,3.07,17.24l5.77-3.31s-.71-1.42-.8-1.64a13.47,13.47,0,0,1-.53-1.63A7.21,7.21,0,0,1,223.23,89.91Z"/><path class="cls-4" d="M242.8,102a26.86,26.86,0,0,0-3.7-11.9L235.74,92l-2.43,1.39c2.35,4.07,2.18,8.54-.37,10-2.87,1.64-6.79-1.13-8.85-4.7,0,0-5.78,3.3-5.78,3.3,3.05,5.29,7.9,9.79,12.7,11.22a9,9,0,0,0,7.24-.63C241.48,110.74,243,106.74,242.8,102Z"/><path class="cls-12" d="M219.16,79.5l0,0A8.23,8.23,0,0,0,216.53,82l-.06.09a10.36,10.36,0,0,0-1,2.11c0,.11-.17.51-.19.59l8,5.15a3.65,3.65,0,0,1,1.23-1.21c2.55-1.46,6.51.64,8.85,4.69L235.74,92l3.36-1.93C233.82,80.94,224.9,76.2,219.16,79.5Z"/><path class="cls-14" d="M233.16,111.27c-4.32,0-9.73-3.18-13.65-10-2.84-4.92-3.86-10.33-2.75-14.48a8,8,0,0,1,3.61-5c5-2.88,12.79,1.18,17.33,9.06,2.84,4.92,3.86,10.33,2.75,14.47a8,8,0,0,1-3.61,5A7.36,7.36,0,0,1,233.16,111.27ZM224,81.64a6.53,6.53,0,0,0-3.26.83A7.23,7.23,0,0,0,217.53,87c-1.06,4-.07,9.13,2.67,13.87,3.77,6.54,11.05,11.75,16.25,8.77a7.17,7.17,0,0,0,3.23-4.55c1.06-3.94.07-9.13-2.67-13.87C233.61,85.34,228.36,81.64,224,81.64Z"/><path class="cls-15" d="M213.81,116v40.5a5.72,5.72,0,0,0,2.86,5l48.22,27.84a2.29,2.29,0,0,0,3.43-2V146.77a5.7,5.7,0,0,0-2.86-4.94L217.25,114A2.29,2.29,0,0,0,213.81,116Z"/><path class="cls-12" d="M224.38,147.37v13.11l-4.59-2.67V144.72Z"/><path class="cls-12" d="M239.22,161.86v7.21l-4.6-2.67v-7.2Z"/><path class="cls-4" d="M246.92,152.39v21.13l-4.59-2.65V149.74Z"/><path class="cls-12" d="M254.61,164.08V178L250,175.3V161.42Z"/><path class="cls-4" d="M262.34,154v28.4c-.81-.48-2.44-1.4-4.61-2.65V151.36Z"/><path class="cls-4" d="M231.52,127.46v37.16l-4.6-2.67V124.81Z"/><path class="cls-16" d="M256.05,178.72a.14.14,0,0,1-.15-.15V158.7a.15.15,0,0,1,.15-.15.15.15,0,0,1,.15.15v19.87A.15.15,0,0,1,256.05,178.72Z"/><path class="cls-16" d="M248.42,174.71a.15.15,0,0,1-.15-.15v-9.62a.15.15,0,0,1,.15-.15.15.15,0,0,1,.15.15v9.62A.15.15,0,0,1,248.42,174.71Z"/><path class="cls-16" d="M240.8,170.25a.15.15,0,0,1-.15-.15V147.52a.15.15,0,1,1,.3,0V170.1A.15.15,0,0,1,240.8,170.25Z"/><path class="cls-16" d="M233.17,165.73a.15.15,0,0,1-.15-.15V153.51a.15.15,0,0,1,.15-.15.14.14,0,0,1,.15.15v12.07A.15.15,0,0,1,233.17,165.73Z"/><path class="cls-16" d="M225.55,161.36a.15.15,0,0,1-.15-.15V132.8a.15.15,0,1,1,.3,0v28.41A.15.15,0,0,1,225.55,161.36Z"/><path class="cls-4" d="M165.89,54.91v-.42a3.59,3.59,0,0,0-1.81-3.12L142.14,38.48A1.44,1.44,0,0,0,140,39.73v.43a3.63,3.63,0,0,0,1.8,3.13l21.95,12.87A1.45,1.45,0,0,0,165.89,54.91Z"/><path class="cls-12" d="M199.08,74.71v-.42a3.63,3.63,0,0,0-1.8-3.13L173.45,56.88a1.44,1.44,0,0,0-2.16,1.25v.43a3.61,3.61,0,0,0,1.8,3.13L196.92,76A1.44,1.44,0,0,0,199.08,74.71Z"/><path class="cls-11" d="M172,125.64v-.42a3.61,3.61,0,0,0-1.8-3.13l-28.34-16.48a1.45,1.45,0,0,0-2.17,1.25v.43a3.61,3.61,0,0,0,1.81,3.13l28.34,16.47A1.44,1.44,0,0,0,172,125.64Z"/><path class="cls-4" d="M142.74,55.37a1.84,1.84,0,0,1-.93-.28,4.58,4.58,0,0,1-2-3.8,1.9,1.9,0,0,1,.75-1.71,1.39,1.39,0,0,1,1.43.12,4.67,4.67,0,0,1,2,3.86,1.85,1.85,0,0,1-.73,1.67A1.12,1.12,0,0,1,142.74,55.37Zm-1.62-5.64a.81.81,0,0,0-.41.11,1.63,1.63,0,0,0-.6,1.45A4.27,4.27,0,0,0,142,54.83a1.2,1.2,0,0,0,1.2.14,1.61,1.61,0,0,0,.58-1.41,4.4,4.4,0,0,0-1.9-3.6A1.47,1.47,0,0,0,141.12,49.73Z"/><path class="cls-4" d="M149.83,59.65a1.9,1.9,0,0,1-.93-.28,4.6,4.6,0,0,1-2-3.8,1.9,1.9,0,0,1,.74-1.71,1.41,1.41,0,0,1,1.44.12,4.69,4.69,0,0,1,2,3.86,1.81,1.81,0,0,1-.73,1.67A1.1,1.1,0,0,1,149.83,59.65ZM148.21,54a.84.84,0,0,0-.41.11,1.61,1.61,0,0,0-.59,1.45,4.27,4.27,0,0,0,1.84,3.54,1.2,1.2,0,0,0,1.2.14,1.55,1.55,0,0,0,.58-1.41,4.42,4.42,0,0,0-1.89-3.6A1.51,1.51,0,0,0,148.21,54Z"/><path class="cls-4" d="M156.93,63.68a1.89,1.89,0,0,1-.93-.29,4.58,4.58,0,0,1-2-3.8,1.9,1.9,0,0,1,.75-1.71,1.43,1.43,0,0,1,1.44.12,4.69,4.69,0,0,1,2,3.86,1.81,1.81,0,0,1-.73,1.67A1.1,1.1,0,0,1,156.93,63.68ZM155.31,58a.81.81,0,0,0-.41.11,1.64,1.64,0,0,0-.6,1.46,4.29,4.29,0,0,0,1.85,3.53,1.2,1.2,0,0,0,1.2.14,1.55,1.55,0,0,0,.58-1.41,4.42,4.42,0,0,0-1.89-3.6A1.54,1.54,0,0,0,155.31,58Z"/><path class="cls-4" d="M142.74,120.26a1.94,1.94,0,0,1-.93-.28,4.61,4.61,0,0,1-2-3.8,1.92,1.92,0,0,1,.75-1.72,1.44,1.44,0,0,1,1.43.12,4.68,4.68,0,0,1,2,3.87,1.83,1.83,0,0,1-.73,1.66A1.13,1.13,0,0,1,142.74,120.26Zm-1.62-5.64a.8.8,0,0,0-.41.1,1.66,1.66,0,0,0-.6,1.46,4.3,4.3,0,0,0,1.85,3.54,1.19,1.19,0,0,0,1.2.13,1.59,1.59,0,0,0,.58-1.41,4.4,4.4,0,0,0-1.9-3.6A1.45,1.45,0,0,0,141.12,114.62Z"/><path class="cls-4" d="M149.83,124.54a2,2,0,0,1-.93-.28,4.63,4.63,0,0,1-2-3.8,1.92,1.92,0,0,1,.74-1.72,1.43,1.43,0,0,1,1.44.12,4.69,4.69,0,0,1,2,3.87,1.8,1.8,0,0,1-.73,1.66A1.1,1.1,0,0,1,149.83,124.54Zm-1.62-5.64a.83.83,0,0,0-.41.1,1.64,1.64,0,0,0-.59,1.46,4.29,4.29,0,0,0,1.84,3.54,1.19,1.19,0,0,0,1.2.13,1.55,1.55,0,0,0,.58-1.41,4.42,4.42,0,0,0-1.89-3.6A1.48,1.48,0,0,0,148.21,118.9Z"/><path class="cls-4" d="M156.93,128.56a1.87,1.87,0,0,1-.93-.28,4.61,4.61,0,0,1-2-3.8,1.92,1.92,0,0,1,.75-1.72,1.44,1.44,0,0,1,1.44.13,4.66,4.66,0,0,1,2,3.86,1.79,1.79,0,0,1-.73,1.66A1.1,1.1,0,0,1,156.93,128.56Zm-1.62-5.64a.8.8,0,0,0-.41.1,1.66,1.66,0,0,0-.6,1.46,4.33,4.33,0,0,0,1.85,3.54,1.17,1.17,0,0,0,1.2.13,1.55,1.55,0,0,0,.58-1.41,4.4,4.4,0,0,0-1.89-3.59A1.43,1.43,0,0,0,155.31,122.92Z"/><path class="cls-4" d="M182.44,57.37l-.08,0L139.89,32.67a.15.15,0,0,1,0-.2.15.15,0,0,1,.2-.06l42.47,24.68a.15.15,0,0,1,.06.2A.16.16,0,0,1,182.44,57.37Z"/><path class="cls-4" d="M153.48,102.48l-.07,0-13.52-7.75a.15.15,0,0,1,0-.2.14.14,0,0,1,.2-.06l13.52,7.75a.15.15,0,0,1,.05.21A.14.14,0,0,1,153.48,102.48Z"/><path class="cls-4" d="M186.58,121.25l-.08,0-30.71-17.61a.15.15,0,0,1,0-.2.15.15,0,0,1,.2-.06L186.65,121a.15.15,0,0,1,.06.2A.16.16,0,0,1,186.58,121.25Z"/><path class="cls-4" d="M198.74,128.1l-.07,0-9.38-5.38a.15.15,0,0,1-.06-.21.15.15,0,0,1,.2,0l9.39,5.38a.15.15,0,0,1,.05.2A.13.13,0,0,1,198.74,128.1Z"/><path class="cls-4" d="M181.4,122l-.07,0L139.89,98.25a.15.15,0,0,1,0-.2A.15.15,0,0,1,140,98l41.44,23.76a.14.14,0,0,1,.05.2A.13.13,0,0,1,181.4,122Z"/><path class="cls-4" d="M199.08,63.09a.1.1,0,0,1-.07,0L139.89,28.75a.16.16,0,0,1,0-.21.15.15,0,0,1,.2-.05l59.12,34.32a.16.16,0,0,1,.05.21A.15.15,0,0,1,199.08,63.09Z"/><polygon class="cls-4" points="199.08 107.36 199.08 108.52 194.13 114.72 178.3 81.52 168.87 100.13 161.57 87.87 151.62 84.52 145.91 69.51 139.71 72.58 139.71 71.77 146.29 68.51 152.18 83.93 162.06 87.26 168.82 98.62 178.32 79.87 194.28 113.37 199.08 107.36"/><path class="cls-11" d="M180.34,79.69c-1-1.78-2.77-2.7-3.88-2.06s-1.2,2.61-.17,4.39c.91,1.57,2.63,2.79,3.89,2.07S181.37,81.48,180.34,79.69Z"/><path class="cls-4" d="M170,98.73c-.57-1-1.54-1.5-2.16-1.15s-.67,1.45-.09,2.44,1.46,1.55,2.16,1.15S170.57,99.72,170,98.73Z"/><path class="cls-4" d="M195.29,113.43c-.57-1-1.54-1.5-2.16-1.15s-.67,1.45-.1,2.44,1.46,1.55,2.17,1.15S195.86,114.42,195.29,113.43Z"/><path class="cls-12" d="M163.12,86.92c-.69-1.19-1.85-1.81-2.59-1.38s-.8,1.74-.11,2.93,1.75,1.86,2.59,1.37S163.8,88.1,163.12,86.92Z"/><path class="cls-4" d="M153.08,83.26c-.57-1-1.54-1.51-2.16-1.15s-.66,1.45-.09,2.44,1.46,1.55,2.16,1.15S153.65,84.25,153.08,83.26Z"/><path class="cls-12" d="M147.14,68.45c-.58-1-1.54-1.5-2.17-1.15s-.66,1.45-.09,2.44,1.46,1.55,2.16,1.15S147.71,69.44,147.14,68.45Z"/><path class="cls-17" d="M190.1,295.7a7.29,7.29,0,0,0-3.66-6.66L81.93,228.66a14.78,14.78,0,0,0-14.7,0L3.66,265.36A7.29,7.29,0,0,0,0,272.23v4.08a7.26,7.26,0,0,0,3.65,6.05l104.55,60.36a14.68,14.68,0,0,0,14.7,0L186.44,306a7.25,7.25,0,0,0,3.64-5.78Z"/><path class="cls-4" d="M185.69,302l-65,36.75a10.26,10.26,0,0,1-10.08-.16l-106.75-61a7.27,7.27,0,0,1-2.44-2.29l0,.46a6,6,0,0,0,3,5L109,340.61a13.55,13.55,0,0,0,13.42,0L185.07,305a6,6,0,0,0,3-4.82l0-.32a1.52,1.52,0,0,0,0-.22A7.21,7.21,0,0,1,185.69,302Z"/><path class="cls-10" d="M13.16,267.06l58.67-34a5.61,5.61,0,0,1,5.67,0l100.52,59a2.51,2.51,0,0,1,0,4.34l-58.67,34a5.64,5.64,0,0,1-5.67,0l-100.51-59A2.51,2.51,0,0,1,13.16,267.06Z"/><path class="cls-18" d="M74.13,243.42c11,0,19.9,4.44,19.9,9.91H74.13l-7.52-9.18A38.07,38.07,0,0,1,74.13,243.42Z"/><path class="cls-19" d="M66.61,244.15l7.52,9.18-15,6.55a11.9,11.9,0,0,1-3.66-3,5.76,5.76,0,0,1-1.27-3.48C54.22,249.21,59.34,245.63,66.61,244.15Z"/><path class="cls-12" d="M59.14,259.85c.15.09.3.18.46.26a31.78,31.78,0,0,0,14.51,3.13c11,0,19.9-4.44,19.9-9.91H74.11Z"/><path class="cls-4" d="M26.89,272.51a.24.24,0,0,1-.21-.12.26.26,0,0,1,.09-.35l22.52-13a.25.25,0,0,1,.25.43L27,272.48A.28.28,0,0,1,26.89,272.51Z"/><path class="cls-4" d="M42.35,269.31a.25.25,0,0,1-.22-.12.25.25,0,0,1,.09-.34l12-6.9a.25.25,0,0,1,.25.43l-12,6.9A.27.27,0,0,1,42.35,269.31Z"/><path class="cls-4" d="M31.81,275.38a.25.25,0,0,1-.12-.47l7.71-4.44a.25.25,0,0,1,.25.43l-7.71,4.45A.28.28,0,0,1,31.81,275.38Z"/><path class="cls-4" d="M36.73,278.25a.27.27,0,0,1-.22-.13.26.26,0,0,1,.1-.34l22.52-13a.24.24,0,0,1,.34.1.25.25,0,0,1-.09.34l-22.52,13A.22.22,0,0,1,36.73,278.25Z"/><path class="cls-4" d="M41.65,281.12a.25.25,0,0,1-.12-.47l13.63-7.85a.25.25,0,1,1,.25.43l-13.63,7.85A.33.33,0,0,1,41.65,281.12Z"/><path class="cls-4" d="M58.18,271.6a.26.26,0,0,1-.22-.13.25.25,0,0,1,.09-.34l6-3.45a.25.25,0,1,1,.25.43l-6,3.46Z"/><polygon class="cls-19" points="96.22 302.35 91.17 305.28 86.28 302.41 85.83 302.14 76.97 296.94 82.04 294.02 86.19 296.46 87.02 296.95 87.48 297.21 88.37 297.74 96.22 302.35"/><polygon class="cls-4" points="104.37 297.69 99.32 300.62 77.44 287.76 82.52 284.86 104.37 297.69"/><polygon class="cls-19" points="112.51 293.03 107.46 295.95 89.38 285.33 94.46 282.43 112.51 293.03"/><polygon class="cls-4" points="120.66 288.38 115.61 291.3 80.13 270.51 85.21 267.6 120.66 288.38"/><polygon class="cls-19" points="128.8 283.72 123.75 286.64 113.55 280.65 118.62 277.74 128.8 283.72"/><polygon class="cls-4" points="136.95 279.06 131.9 281.98 109.84 269.02 114.91 266.11 136.95 279.06"/><path class="cls-20" d="M118.72,268.34s-4.89,3-4.89,3l0,.06.86,3.21.26,1a.24.24,0,0,1-.12.28l-.93.51-4,2.19a.28.28,0,0,1-.18,0l-9.15-2.09-.5-.12-.66-.15-.78.52L95,279.2l-.19,2.32-.09,1-.07.8-.39,4.69a.18.18,0,0,1,0,.1.14.14,0,0,1-.08.09l-1.74,1.06-1.12.68s-.12.78-.12.78l-.67,4.53,0,.09a.26.26,0,0,1-.09.09l-1.81,1.1-1,.64s-.21.82-.21.82l-1,4.38-.45-.27.94-4.17.22-1a.11.11,0,0,1,0-.07.14.14,0,0,1,.08-.09l.94-.57L90,295.11s.67-4.4.67-4.4l.13-.91a.32.32,0,0,1,0-.09l.09-.08,1-.62,1.85-1.13.38-4.53.06-.76.09-1.09.21-2.46a.18.18,0,0,1,0-.1.22.22,0,0,1,.07-.09l3.62-2.41,1-.66.1-.06a.28.28,0,0,1,.2,0l1.43.33,8.89,2,3.61-2,1-.57-.23-.87-.91-3.36a.21.21,0,0,1,0-.19.24.24,0,0,1,.08-.09l4.83-2.92.19-.11a.24.24,0,0,1,.29.39Z"/><ellipse class="cls-12" cx="99.43" cy="275.9" rx="1.5" ry="0.94"/><ellipse class="cls-18" cx="114.64" cy="275.52" rx="1.5" ry="0.94"/><path class="cls-12" d="M120.06,268.16c0,.52-.67.94-1.5.94s-1.5-.42-1.5-.94.67-.94,1.5-.94S120.06,267.64,120.06,268.16Z"/><ellipse class="cls-12" cx="94.43" cy="282.43" rx="1.5" ry="0.94"/><ellipse class="cls-12" cx="91.11" cy="289.82" rx="1.5" ry="0.94"/><path class="cls-12" d="M88.78,297.1c0,.52-.68.93-1.51.93s-1.49-.41-1.49-.93.67-.94,1.5-.94S88.78,296.58,88.78,297.1Z"/><path class="cls-4" d="M127.47,317.65a.55.55,0,0,1-.2.2l-5.19,3a.55.55,0,0,1-.54-.95l5.19-3a.55.55,0,0,1,.75.2A.54.54,0,0,1,127.47,317.65Z"/><path class="cls-7" d="M130.33,309a.24.24,0,0,1-.1.1L116,317.3a.28.28,0,0,1-.38-.1.27.27,0,0,1,.1-.37l14.23-8.2a.27.27,0,0,1,.37.1A.26.26,0,0,1,130.33,309Z"/><path class="cls-7" d="M160.75,291.46a.32.32,0,0,1-.1.1l-25.83,14.89a.27.27,0,0,1-.27-.47l25.83-14.9a.27.27,0,0,1,.37.1A.28.28,0,0,1,160.75,291.46Z"/><path class="cls-4" d="M133.22,300.16a.55.55,0,0,1-.2.2l-23,13.2a.54.54,0,1,1-.54-.94l23-13.21a.55.55,0,0,1,.75.2A.54.54,0,0,1,133.22,300.16Z"/><path class="cls-19" d="M154.41,287.9a.55.55,0,0,1-.2.2l-17.64,10.24a.54.54,0,0,1-.74-.2.55.55,0,0,1,.2-.75l17.64-10.24a.55.55,0,0,1,.74.75Z"/><path class="cls-19" d="M152.67,303.22a.61.61,0,0,1-.2.19l-21.89,12.52A.54.54,0,1,1,130,315l21.89-12.53a.56.56,0,0,1,.75.21A.54.54,0,0,1,152.67,303.22Z"/><path class="cls-4" d="M166.22,295.42a.55.55,0,0,1-.2.2l-10,5.77a.54.54,0,0,1-.74-.2.55.55,0,0,1,.2-.75l10-5.77a.55.55,0,0,1,.75.21A.52.52,0,0,1,166.22,295.42Z"/><path class="cls-7" d="M148.6,284.25a.24.24,0,0,1-.1.1L120,300.72a.27.27,0,0,1-.37-.1.27.27,0,0,1,.1-.37l28.54-16.38a.29.29,0,0,1,.38.11A.26.26,0,0,1,148.6,284.25Z"/><path class="cls-7" d="M114.81,303.64a.18.18,0,0,1-.1.09l-4.26,2.41a.27.27,0,0,1-.37-.1.29.29,0,0,1,.1-.38l4.27-2.4a.28.28,0,0,1,.37.1A.28.28,0,0,1,114.81,303.64Z"/><path class="cls-7" d="M108.43,307.33a.22.22,0,0,1-.09.1l-4.61,2.67a.27.27,0,1,1-.28-.47l4.61-2.67a.27.27,0,0,1,.37.1A.24.24,0,0,1,108.43,307.33Z"/><path class="cls-12" d="M102.73,311.53c0,.52-.67.94-1.5.94s-1.5-.42-1.5-.94.67-.94,1.5-.94S102.73,311,102.73,311.53Z"/><ellipse class="cls-18" cx="107.2" cy="315.06" rx="1.5" ry="0.94"/><ellipse class="cls-12" cx="113.17" cy="318.59" rx="1.5" ry="0.94"/><path class="cls-19" d="M120.64,322.12c0,.52-.67.94-1.5.94s-1.5-.42-1.5-.94.67-.94,1.5-.94S120.64,321.6,120.64,322.12Z"/><path class="cls-21" d="M92.56,80.88l-29.68-17a4.94,4.94,0,0,0-4.7-.13l-.16.08-.2.11-3.28,1.76a5,5,0,0,0-2.86,4.51v75.12a10,10,0,0,0,4.93,8.6l29.67,17.22a5,5,0,0,0,4.45.3,4.78,4.78,0,0,0,.71-.38l3.41-1.81a5,5,0,0,0,2.69-4.41V89.53A10,10,0,0,0,92.56,80.88Z"/><path class="cls-4" d="M92.05,81.77l-29.68-17a3.89,3.89,0,0,0-1.95-.53,4,4,0,0,0-1.78.43l-.71.39a5.06,5.06,0,0,1,1.67.59L90.79,83.57a6.78,6.78,0,0,1,3.4,5.87l.13,77.15a5.08,5.08,0,0,1-.45,2l.49-.32a3.93,3.93,0,0,0,2.15-3.5V89.53A9,9,0,0,0,92.05,81.77Z"/><path class="cls-14" d="M54.76,145.73V72.13a2,2,0,0,1,3-1.72l29.17,17a4.87,4.87,0,0,1,2.41,4.2v73.85a2,2,0,0,1-3,1.71L57.15,149.9A4.84,4.84,0,0,1,54.76,145.73Z"/><path class="cls-14" d="M54.76,146.24V72.65a2,2,0,0,1,3-1.72l29.17,17a4.86,4.86,0,0,1,2.41,4.19v73.86a2,2,0,0,1-3,1.71L57.15,150.42A4.85,4.85,0,0,1,54.76,146.24Z"/><path class="cls-22" d="M56.87,118.75v22.37a3.14,3.14,0,0,0,1.58,2.73l26.63,15.38A1.26,1.26,0,0,0,87,158.14V135.76A3.15,3.15,0,0,0,85.39,133L58.77,117.66A1.26,1.26,0,0,0,56.87,118.75Z"/><path class="cls-23" d="M87,145.59v12.55a1.25,1.25,0,0,1-1.89,1.09L58.45,143.85a3.13,3.13,0,0,1-1.58-2.73v-8.45a4,4,0,0,1,1.56,2.2.52.52,0,0,0,.07.15c.29.74.55,1.57.84,2.33,0,.06.06.12.08.19l.06.17,0,.1a3.31,3.31,0,0,0,.15.33l.11.26c.41.85.89,1.47,1.55,1.53s1.39-.68,2-1.5c.06-.07.1-.14.15-.2l.2-.27,0-.07.1-.12a1.47,1.47,0,0,1,.1-.13,4,4,0,0,1,.46-.53l.1-.08a1.63,1.63,0,0,1,1.2-.54c1.09,0,1.88,1.5,2.56,3.21,0,0,0,.09.05.13q.21.55.42,1.14l.06.16.06.17,0,.08.12.35c0,.08.06.17.1.26.67,1.81,1.33,3.37,2.23,3.4a.88.88,0,0,0,.51-.16,1,1,0,0,0,.21-.15,3.13,3.13,0,0,0,.25-.26.23.23,0,0,1,.08-.09l.11-.16.11-.17c0-.08.09-.15.14-.23l.06-.13c1.44-2.63,2.54-8.19,4.17-8.16s2.25,4.62,3.44,8.22c0,.09,0,.17.07.24.74,2.14,1.61,3.89,2.92,4a2,2,0,0,0,1.3-.34c.09,0,.17-.1.26-.15A9.25,9.25,0,0,0,87,145.59Z"/><path class="cls-4" d="M87,148.55v.38a5,5,0,0,1-2.08,1.43,2.37,2.37,0,0,1-.52.06c-1.29,0-2.05-1.19-2.8-2.35A5.76,5.76,0,0,0,80,146.2a2.25,2.25,0,0,0-2.68.33,5.08,5.08,0,0,0-.67.7c-.57.67-1.22,1.41-2,1.41h-.14c-.72-.12-1.11-.94-1.34-1.45a16.27,16.27,0,0,1-.82-2.4.07.07,0,0,1,0-.05.48.48,0,0,1-.05-.11c-.57-2-1.11-3.79-2.26-3.9a1.46,1.46,0,0,0-1.17.52l-.06.06a4.24,4.24,0,0,0-.6.78c-.42.65-.89,1.38-1.54,1.38-.85-.09-1.23-1.37-1.48-2.22,0-.14-.08-.27-.12-.37l-.12-.38a7.32,7.32,0,0,0-1.24-2.59,1.85,1.85,0,0,0-1.88-.69,4.49,4.49,0,0,0-.67.24,2.41,2.41,0,0,1-1.35.31l-.35,0-.11,0A4.43,4.43,0,0,1,56.94,136l-.07-.08v-.41a.21.21,0,0,1,.13.05l.19.24a4.17,4.17,0,0,0,2.15,1.59.45.45,0,0,0,.11,0,2.23,2.23,0,0,0,.41.06,2.26,2.26,0,0,0,1.19-.27,3.1,3.1,0,0,1,.72-.26,2.11,2.11,0,0,1,2.15.73,7.93,7.93,0,0,1,1.35,2.75l.13.37.11.39c.21.72.57,1.93,1.2,2,.46,0,.88-.66,1.26-1.24a4.5,4.5,0,0,1,.71-.91,1.72,1.72,0,0,1,1.41-.59c1.34.13,1.91,2,2.5,4l0,.09,0,.12a.12.12,0,0,0,0,.07,13.67,13.67,0,0,0,.82,2.38c.2.44.53,1.17,1.09,1.27s1.26-.65,1.83-1.3a6.52,6.52,0,0,1,.69-.75,2.56,2.56,0,0,1,3-.35,5.94,5.94,0,0,1,1.68,2c.81,1.26,1.59,2.46,3,2.14a5.05,5.05,0,0,0,2-1.46A.15.15,0,0,1,87,148.55Z"/><path class="cls-12" d="M63.71,127.22c0,.44-.25.63-.6.42a1.35,1.35,0,0,1-.6-1.12c0-.38.19-.58.47-.5V108.84l.26.15V126.2A1.42,1.42,0,0,1,63.71,127.22Z"/><path class="cls-1" d="M72.65,131.79c0,.43-.26.63-.61.42a1.35,1.35,0,0,1-.6-1.12c0-.38.19-.59.47-.5V114l.26.15v16.62A1.41,1.41,0,0,1,72.65,131.79Z"/><path class="cls-23" d="M81.59,136.36c0,.43-.26.63-.62.42a1.37,1.37,0,0,1-.6-1.12c0-.38.2-.59.48-.5v-16l.26.15v16A1.45,1.45,0,0,1,81.59,136.36Z"/><path class="cls-12" d="M64.68,104.89c0,1.14-.68,1.66-1.6,1.13a3.55,3.55,0,0,1-1.54-2.94c0-1.14.66-1.69,1.57-1.17A3.62,3.62,0,0,1,64.68,104.89Z"/><path class="cls-4" d="M82.55,115.24c0,1.14-.68,1.66-1.6,1.12a3.52,3.52,0,0,1-1.54-2.93c0-1.14.66-1.7,1.57-1.17A3.62,3.62,0,0,1,82.55,115.24Z"/><path class="cls-1" d="M73.62,110.05c0,1.13-.68,1.65-1.61,1.12a3.55,3.55,0,0,1-1.53-2.94c0-1.14.66-1.69,1.56-1.17A3.62,3.62,0,0,1,73.62,110.05Z"/><path class="cls-5" d="M83.39,94.16a.47.47,0,0,1-.25-.07l-22.68-13a.51.51,0,0,1-.19-.69.49.49,0,0,1,.68-.18l22.69,13a.5.5,0,0,1-.25.93Z"/><path class="cls-4" d="M83.39,98.59a.27.27,0,0,1-.12,0L71.19,91.63a.25.25,0,1,1,.25-.43l12.07,6.92a.25.25,0,0,1,.1.34A.24.24,0,0,1,83.39,98.59Z"/><path class="cls-4" d="M68.48,90a.28.28,0,0,1-.13,0l-7.77-4.46a.25.25,0,1,1,.25-.43l7.77,4.45a.25.25,0,0,1-.12.47Z"/><path class="cls-5" d="M83.39,103.52a.57.57,0,0,1-.25-.06l-22.68-13a.5.5,0,0,1,.49-.87l22.69,13a.5.5,0,0,1-.25.93Z"/><path class="cls-4" d="M74.44,102.82a.28.28,0,0,1-.13,0L60.58,94.91a.25.25,0,1,1,.25-.43l13.73,7.87a.26.26,0,0,1,.09.35A.24.24,0,0,1,74.44,102.82Z"/><path class="cls-4" d="M83.39,108a.27.27,0,0,1-.12,0l-6-3.46a.25.25,0,1,1,.25-.43l6,3.46a.24.24,0,0,1-.12.46Z"/><path class="cls-24" d="M383.75,333.88l11.78-80c.87-5.73-1.24-10.78-5.53-13.22l-98-55.83a7.14,7.14,0,0,0-7.1.41l-.47.27L282,187.12a10.72,10.72,0,0,0-6.13,8l-11.74,79.74c-.83,5.68,1.26,10.68,5.5,13.11l98,56.12a7.07,7.07,0,0,0,7-.35v.12c-.09,0,4.29-2.71,4.29-2.71A10.67,10.67,0,0,0,383.75,333.88Z"/><path class="cls-4" d="M394.26,254c.79-5.24-1.15-9.88-5.07-12.12l-98-55.83a5,5,0,0,0-3-.61,6.11,6.11,0,0,0-2.64.81,6,6,0,0,1,2.9.76L386.75,243c4.85,2.67,6.06,6.41,5,13.22l-11.77,80a10,10,0,0,1-1.42,3.75,8.85,8.85,0,0,0,3.91-5.93Z"/><path class="cls-7" d="M337.63,223.22c-.44-1.74-1.81-3.14-3.06-3.13s-1.91,1.43-1.47,3.16c.39,1.53,1.65,3.15,3.06,3.13C337.41,226.37,338.07,225,337.63,223.22Z"/><path class="cls-20" d="M337.5,222.87c-.28-1.11-1.16-2-2-2s-1.22.91-.94,2c.25,1,1.06,2,2,2S337.78,224,337.5,222.87Z"/><path class="cls-14" d="M270.25,271.11l10.29-69.88a2.33,2.33,0,0,1,3.46-1.68l99.77,57.12a3.36,3.36,0,0,1,1.65,3.39l-10.31,70a2.33,2.33,0,0,1-3.46,1.68L271.9,274.49A3.32,3.32,0,0,1,270.25,271.11Z"/><path class="cls-25" d="M373.87,347.2a7.26,7.26,0,0,0-3.66-6.66l-22.57-13.06-35.35-16.55-28-20.05-18.59-10.75a14.73,14.73,0,0,0-14.7,0l-63.58,36.68a7.3,7.3,0,0,0-3.64,6.87s0,4.09,0,4.09a7.3,7.3,0,0,0,3.67,6L292,394.2a14.7,14.7,0,0,0,14.7,0l63.54-36.66a7.27,7.27,0,0,0,3.64-5.79v-.12a1.5,1.5,0,0,0,0-.2,5,5,0,0,0,0-.55Z"/><path class="cls-4" d="M370.21,353.27,306.28,390a14,14,0,0,1-14,0L187.44,329.54a7.18,7.18,0,0,1-2.44-2.29v.22a6,6,0,0,0,3,5l103.08,59.55a16.32,16.32,0,0,0,16.5,0l62-36a6,6,0,0,0,3-4.81V351A7.31,7.31,0,0,1,370.21,353.27Z"/><path class="cls-7" d="M237,305,261,291.21a5.56,5.56,0,0,1,5.54,0l85.66,49.43a2.76,2.76,0,0,1,0,4.79l-23.94,13.82a5.54,5.54,0,0,1-5.54,0L237,309.83A2.76,2.76,0,0,1,237,305Z"/><path class="cls-26" d="M242.64,309.2l-3.08-1.77c-.46-.27-.52-.65-.13-.86L242,305.2a1.84,1.84,0,0,1,1.56.11l3.08,1.78c.46.26.52.65.13.86l-2.61,1.36A1.81,1.81,0,0,1,242.64,309.2Z"/><path class="cls-26" d="M255.32,316.51l-3.08-1.78c-.46-.26-.52-.65-.13-.86l2.61-1.36a1.81,1.81,0,0,1,1.56.11l3.08,1.77c.46.27.52.65.13.86l-2.61,1.37A1.81,1.81,0,0,1,255.32,316.51Z"/><path class="cls-26" d="M249,312.86l-3.08-1.78c-.46-.27-.52-.65-.13-.86l2.61-1.37a1.88,1.88,0,0,1,1.56.11l3.08,1.78c.46.27.52.65.13.86L250.54,313A1.88,1.88,0,0,1,249,312.86Z"/><path class="cls-26" d="M293.68,338.6l-3.08-1.78c-.47-.26-.52-.65-.13-.85l2.61-1.37a1.78,1.78,0,0,1,1.55.11l3.08,1.77c.47.27.53.65.13.86l-2.61,1.37A1.78,1.78,0,0,1,293.68,338.6Z"/><path class="cls-26" d="M261.65,320.15l-3.08-1.77c-.47-.27-.52-.66-.13-.86l2.61-1.37a1.78,1.78,0,0,1,1.55.11l3.08,1.77c.47.27.53.66.13.86l-2.61,1.37A1.78,1.78,0,0,1,261.65,320.15Z"/><path class="cls-26" d="M306.12,345.77,303,344c-.46-.27-.52-.65-.13-.86l2.61-1.37a1.85,1.85,0,0,1,1.55.11l3.09,1.78c.46.27.52.65.12.86l-2.6,1.37A1.88,1.88,0,0,1,306.12,345.77Z"/><path class="cls-26" d="M312.39,349.39l-3.08-1.78c-.47-.26-.52-.65-.13-.86l2.61-1.36a1.78,1.78,0,0,1,1.55.11l3.08,1.77c.47.27.53.65.13.86l-2.61,1.37A1.79,1.79,0,0,1,312.39,349.39Z"/><path class="cls-26" d="M323,355.4,320,353.62c-.47-.27-.52-.65-.13-.86l2.61-1.37a1.85,1.85,0,0,1,1.55.11l3.08,1.78c.47.27.53.65.13.86l-2.61,1.37A1.85,1.85,0,0,1,323,355.4Z"/><path class="cls-26" d="M299.9,342.18l-3.08-1.77c-.46-.27-.52-.65-.13-.86l2.61-1.37a1.78,1.78,0,0,1,1.55.11l3.08,1.77c.47.27.53.66.13.86l-2.61,1.37A1.79,1.79,0,0,1,299.9,342.18Z"/><path class="cls-26" d="M286.48,334.48l-20.73-12c-.47-.27-.53-.65-.13-.86l2.63-1.39a1.83,1.83,0,0,1,1.57.11l20.74,11.95c.47.27.53.66.13.86l-2.64,1.39A1.83,1.83,0,0,1,286.48,334.48Z"/><path class="cls-26" d="M319.81,350.79l-2.19-1.26c-.41-.24-.46-.58-.11-.77l.21-.11a1.64,1.64,0,0,1,1.39.1l2.18,1.26c.42.24.47.58.12.77l-.21.11A1.64,1.64,0,0,1,319.81,350.79Z"/><path class="cls-26" d="M317.17,352.18,315,350.92c-.42-.24-.47-.58-.12-.77l.21-.11a1.64,1.64,0,0,1,1.39.1l2.19,1.26c.41.24.47.58.11.77l-.21.11A1.61,1.61,0,0,1,317.17,352.18Z"/><path class="cls-26" d="M263.82,298.09l-3.09-1.77c-.46-.27-.52-.65-.12-.86l2.6-1.37a1.81,1.81,0,0,1,1.56.11l3.08,1.78c.46.26.52.65.13.85l-2.61,1.37A1.78,1.78,0,0,1,263.82,298.09Z"/><path class="cls-26" d="M276.49,305.39l-3.08-1.77c-.46-.27-.52-.65-.13-.86l2.61-1.37a1.88,1.88,0,0,1,1.56.11l3.08,1.78c.46.27.52.65.13.86l-2.61,1.37A1.84,1.84,0,0,1,276.49,305.39Z"/><path class="cls-26" d="M270.07,301.69,267,299.92c-.47-.27-.52-.65-.13-.86l2.61-1.37a1.85,1.85,0,0,1,1.55.11l3.08,1.78c.47.27.53.65.13.86l-2.61,1.37A1.82,1.82,0,0,1,270.07,301.69Z"/><path class="cls-26" d="M282.92,309.1l-3.08-1.78c-.47-.27-.52-.65-.13-.86l2.61-1.37a1.85,1.85,0,0,1,1.55.11L287,307c.47.27.53.65.13.86l-2.61,1.37A1.85,1.85,0,0,1,282.92,309.1Z"/><path class="cls-26" d="M289.34,312.8,286.26,311c-.46-.27-.52-.65-.13-.86l2.61-1.37a1.88,1.88,0,0,1,1.56.11l3.08,1.78c.46.27.52.65.13.86l-2.61,1.37A1.88,1.88,0,0,1,289.34,312.8Z"/><path class="cls-26" d="M295.77,316.5l-3.08-1.78c-.47-.27-.52-.65-.13-.86l2.61-1.37a1.85,1.85,0,0,1,1.55.11l3.08,1.78c.47.27.53.65.13.86l-2.61,1.37A1.85,1.85,0,0,1,295.77,316.5Z"/><path class="cls-26" d="M302.19,320.2l-3.08-1.78c-.46-.27-.52-.65-.13-.86l2.61-1.37a1.84,1.84,0,0,1,1.56.12l3.08,1.77c.46.27.52.65.13.86l-2.61,1.37A1.88,1.88,0,0,1,302.19,320.2Z"/><path class="cls-26" d="M308.62,323.9l-3.08-1.78c-.47-.26-.52-.65-.13-.86L308,319.9a1.78,1.78,0,0,1,1.55.11l3.08,1.77c.47.27.52.65.13.86L310.17,324A1.85,1.85,0,0,1,308.62,323.9Z"/><path class="cls-26" d="M315,327.6,312,325.82c-.46-.26-.52-.65-.13-.86l2.61-1.36a1.81,1.81,0,0,1,1.56.11l3.08,1.77c.46.27.52.65.13.86l-2.61,1.37A1.84,1.84,0,0,1,315,327.6Z"/><path class="cls-26" d="M321.47,331.3l-3.08-1.78c-.47-.26-.52-.65-.13-.85l2.61-1.37a1.78,1.78,0,0,1,1.55.11l3.08,1.77c.47.27.52.65.13.86L323,331.41A1.78,1.78,0,0,1,321.47,331.3Z"/><path class="cls-26" d="M327.89,335l-3.08-1.78c-.46-.26-.52-.65-.13-.85l2.61-1.37a1.81,1.81,0,0,1,1.56.11l3.08,1.77c.46.27.52.65.13.86l-2.61,1.37A1.81,1.81,0,0,1,327.89,335Z"/><path class="cls-26" d="M334.32,338.7l-3.08-1.78c-.47-.26-.53-.65-.13-.85l2.61-1.37a1.78,1.78,0,0,1,1.55.11l3.08,1.77c.47.27.52.65.13.86l-2.61,1.37A1.78,1.78,0,0,1,334.32,338.7Z"/><path class="cls-26" d="M343.86,344.1l-5.81-3.35c-.44-.25-.5-.62-.12-.82l2.5-1.31a1.73,1.73,0,0,1,1.48.11l5.81,3.34c.44.26.5.63.12.82l-2.49,1.31A1.75,1.75,0,0,1,343.86,344.1Z"/><path class="cls-26" d="M274.55,310.1l-3.08-1.77c-.47-.27-.52-.66-.13-.86L274,306.1a1.78,1.78,0,0,1,1.55.11l3.08,1.77c.47.27.52.66.13.86l-2.61,1.37A1.78,1.78,0,0,1,274.55,310.1Z"/><path class="cls-26" d="M268.12,306.4,265,304.62c-.47-.27-.53-.65-.13-.86l2.61-1.37a1.86,1.86,0,0,1,1.55.11l3.08,1.78c.46.27.52.65.13.86l-2.61,1.37A1.85,1.85,0,0,1,268.12,306.4Z"/><path class="cls-26" d="M281,313.81,277.9,312c-.46-.27-.52-.65-.13-.86l2.61-1.37a1.85,1.85,0,0,1,1.55.11l3.08,1.78c.47.27.53.65.13.86l-2.61,1.37A1.86,1.86,0,0,1,281,313.81Z"/><path class="cls-26" d="M287.41,317.51l-3.08-1.77c-.46-.27-.52-.66-.13-.86l2.61-1.37a1.81,1.81,0,0,1,1.56.11l3.08,1.77c.46.27.52.66.13.86L289,317.62A1.81,1.81,0,0,1,287.41,317.51Z"/><path class="cls-26" d="M293.85,321.22l-3.09-1.78c-.46-.27-.52-.65-.12-.86l2.6-1.37a1.88,1.88,0,0,1,1.56.11l3.08,1.78c.46.27.52.65.13.86l-2.61,1.37A1.85,1.85,0,0,1,293.85,321.22Z"/><path class="cls-26" d="M300.28,324.92l-3.08-1.77c-.47-.27-.53-.66-.13-.86l2.61-1.37a1.78,1.78,0,0,1,1.55.11l3.08,1.77c.47.27.52.65.13.86L301.83,325A1.78,1.78,0,0,1,300.28,324.92Z"/><path class="cls-26" d="M306.71,328.62l-3.08-1.77c-.47-.27-.52-.65-.13-.86l2.61-1.37a1.85,1.85,0,0,1,1.55.11l3.08,1.78c.47.27.53.65.13.86l-2.61,1.37A1.82,1.82,0,0,1,306.71,328.62Z"/><path class="cls-26" d="M313.14,332.33l-3.08-1.78c-.46-.26-.52-.65-.13-.85l2.61-1.37a1.81,1.81,0,0,1,1.56.11l3.08,1.77c.46.27.52.65.12.86l-2.6,1.37A1.81,1.81,0,0,1,313.14,332.33Z"/><path class="cls-26" d="M319.57,336l-3.08-1.77c-.46-.27-.52-.65-.13-.86L319,332a1.84,1.84,0,0,1,1.56.11l3.08,1.78c.46.26.52.65.13.86l-2.61,1.36A1.81,1.81,0,0,1,319.57,336Z"/><path class="cls-26" d="M326,339.74,322.93,338c-.47-.26-.53-.65-.13-.85l2.61-1.37a1.79,1.79,0,0,1,1.55.11l3.08,1.77c.47.27.52.65.13.86l-2.61,1.37A1.78,1.78,0,0,1,326,339.74Z"/><path class="cls-26" d="M332.44,343.44l-3.08-1.77c-.47-.27-.52-.65-.13-.86l2.61-1.37a1.78,1.78,0,0,1,1.55.11l3.08,1.78c.47.26.53.65.13.85L334,343.55A1.78,1.78,0,0,1,332.44,343.44Z"/><path class="cls-26" d="M338.79,347.1l-3.08-1.77c-.46-.27-.52-.65-.13-.86l2.61-1.37a1.81,1.81,0,0,1,1.56.11l3.08,1.78c.46.26.52.65.13.85l-2.61,1.37A1.81,1.81,0,0,1,338.79,347.1Z"/><path class="cls-26" d="M261.65,302.57l-5.81-3.34c-.44-.26-.5-.62-.12-.82l2.49-1.31a1.75,1.75,0,0,1,1.49.1l5.81,3.35c.44.25.5.62.12.82l-2.5,1.31A1.7,1.7,0,0,1,261.65,302.57Z"/><path class="cls-26" d="M270.81,313.77,267.73,312c-.47-.27-.53-.65-.13-.86l2.61-1.37a1.78,1.78,0,0,1,1.55.11l3.08,1.77c.47.27.52.66.13.86l-2.61,1.37A1.78,1.78,0,0,1,270.81,313.77Z"/><path class="cls-26" d="M264.38,310.07l-3.08-1.77c-.47-.27-.52-.66-.13-.86l2.61-1.37a1.78,1.78,0,0,1,1.55.11l3.08,1.77c.47.27.52.65.13.86l-2.61,1.37A1.78,1.78,0,0,1,264.38,310.07Z"/><path class="cls-26" d="M277.24,317.47l-3.09-1.77c-.46-.27-.52-.65-.12-.86l2.6-1.37a1.88,1.88,0,0,1,1.56.11l3.08,1.78c.46.26.52.65.13.86l-2.61,1.37A1.82,1.82,0,0,1,277.24,317.47Z"/><path class="cls-26" d="M283.66,321.18l-3.08-1.78c-.46-.27-.52-.65-.13-.86l2.61-1.37a1.84,1.84,0,0,1,1.56.12l3.08,1.77c.46.27.52.65.13.86l-2.61,1.37A1.88,1.88,0,0,1,283.66,321.18Z"/><path class="cls-26" d="M290.09,324.88,287,323.1c-.46-.26-.52-.65-.13-.85l2.61-1.37A1.78,1.78,0,0,1,291,321l3.09,1.77c.46.27.52.65.12.86l-2.6,1.37A1.81,1.81,0,0,1,290.09,324.88Z"/><path class="cls-26" d="M296.52,328.58l-3.08-1.77c-.47-.27-.52-.65-.13-.86l2.61-1.37a1.78,1.78,0,0,1,1.55.11l3.08,1.77c.47.27.53.66.13.86l-2.61,1.37A1.78,1.78,0,0,1,296.52,328.58Z"/><path class="cls-26" d="M303,332.28l-3.08-1.77c-.47-.27-.53-.65-.13-.86l2.61-1.37a1.82,1.82,0,0,1,1.55.11l3.08,1.78c.47.26.52.65.13.86l-2.61,1.36A1.78,1.78,0,0,1,303,332.28Z"/><path class="cls-26" d="M309.38,336l-3.08-1.78c-.47-.27-.53-.65-.13-.86l2.61-1.37a1.86,1.86,0,0,1,1.55.11l3.08,1.78c.46.27.52.65.13.86l-2.61,1.37A1.85,1.85,0,0,1,309.38,336Z"/><path class="cls-26" d="M315.8,339.69l-3.08-1.78c-.46-.26-.52-.65-.13-.85l2.61-1.37a1.81,1.81,0,0,1,1.56.11l3.08,1.77c.46.27.52.65.13.86l-2.61,1.37A1.81,1.81,0,0,1,315.8,339.69Z"/><path class="cls-26" d="M322.23,343.39l-3.08-1.77c-.46-.27-.52-.66-.13-.86l2.61-1.37a1.81,1.81,0,0,1,1.56.11l3.08,1.77c.46.27.52.66.13.86l-2.61,1.37A1.81,1.81,0,0,1,322.23,343.39Z"/><path class="cls-26" d="M257.61,306.09l-7-4c-.44-.26-.5-.63-.12-.83l2.52-1.32a1.72,1.72,0,0,1,1.49.11l7,4c.45.26.5.63.12.83l-2.51,1.32A1.74,1.74,0,0,1,257.61,306.09Z"/><path class="cls-26" d="M333.19,349.62l-7-4c-.44-.26-.5-.63-.12-.83l2.51-1.32a1.74,1.74,0,0,1,1.5.11l7,4c.45.26.5.63.12.83l-2.51,1.32A1.74,1.74,0,0,1,333.19,349.62Z"/><path class="cls-26" d="M268.74,318.43l-3.08-1.77c-.47-.27-.53-.65-.13-.86l2.61-1.37a1.86,1.86,0,0,1,1.55.11l3.08,1.78c.46.27.52.65.13.86l-2.61,1.37A1.82,1.82,0,0,1,268.74,318.43Z"/><path class="cls-26" d="M262.31,314.74,259.23,313c-.46-.27-.52-.65-.13-.86l2.61-1.37a1.88,1.88,0,0,1,1.56.11l3.08,1.78c.46.27.52.65.13.86l-2.61,1.37A1.88,1.88,0,0,1,262.31,314.74Z"/><path class="cls-26" d="M275.16,322.13l-3.08-1.77c-.47-.27-.52-.65-.13-.86l2.61-1.37a1.85,1.85,0,0,1,1.55.11l3.08,1.78c.47.26.53.65.13.86l-2.61,1.36A1.78,1.78,0,0,1,275.16,322.13Z"/><path class="cls-26" d="M281.58,325.83l-3.08-1.77c-.46-.27-.52-.65-.13-.86l2.61-1.37a1.84,1.84,0,0,1,1.56.11l3.08,1.78c.46.26.52.65.13.86l-2.61,1.36A1.81,1.81,0,0,1,281.58,325.83Z"/><path class="cls-26" d="M288,329.53l-3.08-1.77c-.47-.27-.53-.65-.13-.86l2.61-1.37a1.79,1.79,0,0,1,1.55.11l3.08,1.78c.46.26.52.65.13.85l-2.61,1.37A1.78,1.78,0,0,1,288,329.53Z"/><path class="cls-26" d="M294.43,333.23l-3.08-1.77c-.47-.27-.52-.65-.13-.86l2.61-1.37a1.78,1.78,0,0,1,1.55.11l3.08,1.78c.47.26.53.65.13.85L296,333.34A1.78,1.78,0,0,1,294.43,333.23Z"/><path class="cls-26" d="M300.85,336.93l-3.08-1.77c-.46-.27-.52-.65-.13-.86l2.61-1.37a1.81,1.81,0,0,1,1.56.11l3.08,1.78c.46.26.52.65.13.85L302.41,337A1.81,1.81,0,0,1,300.85,336.93Z"/><path class="cls-26" d="M307.28,340.63l-3.08-1.77c-.47-.27-.53-.65-.13-.86l2.61-1.37a1.79,1.79,0,0,1,1.55.11l3.08,1.78c.47.26.52.65.13.85l-2.61,1.37A1.78,1.78,0,0,1,307.28,340.63Z"/><path class="cls-26" d="M313.7,344.33l-3.08-1.77c-.47-.27-.52-.65-.13-.86l2.61-1.37a1.78,1.78,0,0,1,1.55.11l3.08,1.78c.47.26.53.65.13.85l-2.61,1.37A1.78,1.78,0,0,1,313.7,344.33Z"/><path class="cls-26" d="M255.66,310.91l-10.54-6.08c-.48-.27-.54-.67-.14-.88l2.68-1.41a1.86,1.86,0,0,1,1.6.12l10.54,6.07c.48.28.54.67.14.88L257.25,311A1.87,1.87,0,0,1,255.66,310.91Z"/><path class="cls-26" d="M327.89,352.51l-10.55-6.07c-.47-.28-.53-.67-.13-.89l2.68-1.4a1.82,1.82,0,0,1,1.6.11L332,350.33c.48.28.54.67.14.88l-2.69,1.41A1.87,1.87,0,0,1,327.89,352.51Z"/><path class="cls-7" d="M347.61,327.47l-2.79,1.47a5.15,5.15,0,0,1-4.45-.31l-58.64-33.78c-1.33-.76-1.49-1.86-.37-2.45l2.92-1.53Z"/><path class="cls-27" d="M337.59,267,333.2,295.7a3.22,3.22,0,0,0,1.47,3.4l30.66,17.77a1.92,1.92,0,0,0,2.61-1.54l4.39-28.76a3.22,3.22,0,0,0-1.47-3.39L340.2,265.42A1.92,1.92,0,0,0,337.59,267Z"/><path class="cls-28" d="M318.87,261.7l-4.39,28.74a3.22,3.22,0,0,0,1.46,3.4l30.67,17.77a1.93,1.93,0,0,0,2.6-1.54l4.39-28.76a3.21,3.21,0,0,0-1.46-3.39l-30.66-17.76A1.92,1.92,0,0,0,318.87,261.7Z"/><path class="cls-4" d="M351.67,293.94l-2.46,16.13a1.93,1.93,0,0,1-2.6,1.54l-30.67-17.77a3.23,3.23,0,0,1-1.46-3.4l1.66-10.84c.77.33,1.21,1.4,1.53,2.7a1.33,1.33,0,0,1,.05.19c.23.95.4,2,.63,2.93a2.25,2.25,0,0,1,0,.22.09.09,0,0,1,0,.05c0,.1,0,.2.07.3a2.9,2.9,0,0,0,.12.42l.1.33c.35,1.05.84,1.81,1.66,1.84s1.89-1,2.81-2.07c.08-.09.14-.19.22-.28s.21-.23.3-.35l.08-.09.15-.18a10.39,10.39,0,0,1,.85-.88l.13-.11a2.55,2.55,0,0,1,1.63-.79c1.37,0,2.08,1.78,2.6,3.94a.83.83,0,0,1,0,.15c.12.47.21.95.31,1.42a1.74,1.74,0,0,1,0,.22c0,.13.05.22.07.33l.09.42c0,.11.05.22.07.33.49,2.29,1,4.25,2.16,4.21a1.15,1.15,0,0,0,.67-.24,2.73,2.73,0,0,0,.3-.21,4.13,4.13,0,0,0,.37-.36l.17-.2.11-.13.1-.14.3-.39a1.63,1.63,0,0,1,.11-.17c2.32-3.49,4.8-10.71,6.87-10.8,1.87-.08,1.93,5.76,2.74,10.32,0,.1,0,.19,0,.28.51,2.7,1.27,4.88,2.88,5a3,3,0,0,0,1.73-.54,3.37,3.37,0,0,0,.35-.22A16.2,16.2,0,0,0,351.67,293.94Z"/><path class="cls-12" d="M351,298.32l-.05.35a7.75,7.75,0,0,1-2.54,1.66,3.49,3.49,0,0,1-.66.11c-1.63.1-2.37-1.39-3.09-2.84a5.48,5.48,0,0,0-1.68-2.35c-1-.62-2.33-.38-3.61.64a10,10,0,0,0-1,1c-.86.9-1.83,1.92-2.77,2h-.17c-.87-.11-1.2-1.18-1.38-1.76a17,17,0,0,1-.59-3.08.23.23,0,0,0,0-.11v-.06l0-.07c-.35-2.53-.67-4.9-2.2-5a2.36,2.36,0,0,0-1.66.78,7.59,7.59,0,0,0-1,1.18c-.66.87-1.41,1.85-2.2,1.9-1-.06-1.26-1.68-1.4-2.75,0-.2-.05-.36-.07-.49s-.06-.32-.08-.48a8.68,8.68,0,0,0-1-3.16,1.63,1.63,0,0,0-.11-.17,2,2,0,0,0-2.37-.79,8.1,8.1,0,0,0-.92.38,3.66,3.66,0,0,1-1.77.49h-.19l-.37-.05a4,4,0,0,1-2.56-1.77l.06-.39a3.93,3.93,0,0,0,2.6,1.9.71.71,0,0,0,.21,0l.32,0a3.23,3.23,0,0,0,1.63-.46,7.28,7.28,0,0,1,1-.39,2.24,2.24,0,0,1,2.57.8l.12.19a8.38,8.38,0,0,1,1,3.27q0,.25.09.48l.08.49c.13.95.35,2.54,1.19,2.59.64,0,1.34-1,2-1.76a6.88,6.88,0,0,1,1.08-1.23l.08-.08a2.62,2.62,0,0,1,1.81-.79c1.65.07,2,2.45,2.35,5a.18.18,0,0,1,0,.1l0,.15a.44.44,0,0,0,0,.1,16.74,16.74,0,0,0,.58,3.05c.17.54.47,1.53,1.21,1.62s1.83-1,2.69-1.87a8.73,8.73,0,0,1,1-1c1.39-1.1,2.82-1.35,3.91-.7a5.88,5.88,0,0,1,1.76,2.44c.8,1.63,1.57,3.16,3.49,2.63A7.87,7.87,0,0,0,351,298.32Z"/><path class="cls-4" d="M333.2,271.13a.12.12,0,0,1-.08,0L320.72,264a.16.16,0,1,1,.17-.28l12.39,7.12a.15.15,0,0,1,.06.22A.16.16,0,0,1,333.2,271.13Z"/><path class="cls-4" d="M332.67,274.63a.11.11,0,0,1-.08,0l-6.6-3.79a.15.15,0,0,1-.06-.22.16.16,0,0,1,.22-.06l6.6,3.79a.17.17,0,0,1-.08.31Z"/><path class="cls-4" d="M324.52,269.94l-.08,0-4.25-2.44a.16.16,0,0,1,.16-.28l4.25,2.44a.16.16,0,0,1,.06.22A.17.17,0,0,1,324.52,269.94Z"/><path class="cls-4" d="M332.14,278.12a.16.16,0,0,1-.09,0L319.66,271a.16.16,0,1,1,.16-.28l12.4,7.12a.18.18,0,0,1,.06.22A.16.16,0,0,1,332.14,278.12Z"/><path class="cls-4" d="M326.71,278.8a.11.11,0,0,1-.08,0l-7.51-4.31a.17.17,0,0,1-.06-.22.18.18,0,0,1,.23-.06l7.5,4.31a.15.15,0,0,1,.06.22A.15.15,0,0,1,326.71,278.8Z"/><path class="cls-4" d="M331.6,281.61a.13.13,0,0,1-.08,0l-3.3-1.89a.17.17,0,0,1-.06-.22.16.16,0,0,1,.22-.06l3.3,1.89a.16.16,0,0,1,.06.22A.15.15,0,0,1,331.6,281.61Z"/><path class="cls-4" d="M286.54,259.25l-2.06,13.45-3.45-2,2.05-13.43Z"/><path class="cls-4" d="M292.84,266.82l-1.44,9.88c-1.17-.68-2.33-1.32-3.45-2l1.44-9.89Z"/><path class="cls-12" d="M297.5,260.94l-2.71,17.74c-1.12-.65-2.21-1.31-3.39-2l2.65-17.76Z"/><path class="cls-4" d="M300.65,264.73l-2.4,15.93c-1.07-.63-2.24-1.27-3.46-2l2.43-15.93Z"/><path class="cls-4" d="M306.28,277.23l-1.11,7.5c-1.08-.62-2.25-1.29-3.46-2l1.13-7.48Z"/><path class="cls-12" d="M306.19,253.08l-4.48,29.64c-.61-.36-1.83-1.13-3.46-2.06l4.47-29.58Z"/><path class="cls-12" d="M291.11,253.67l-3.16,21c-1.23-.73-2.39-1.4-3.47-2l3.16-21Z"/><path class="cls-12" d="M281.63,266.65l-.6,4c-1.23-.72-2.35-1.42-3.43-2l.56-4Z"/><path class="cls-4" d="M312.91,244.85a.52.52,0,0,1-.27-.07l-22.78-12.92a.54.54,0,0,1-.21-.74.54.54,0,0,1,.74-.21l22.79,12.93a.54.54,0,0,1,.2.74A.53.53,0,0,1,312.91,244.85Z"/><path class="cls-7" d="M306.4,234.11a.32.32,0,0,1-.14,0l-15.33-8.64a.27.27,0,0,1-.1-.37.28.28,0,0,1,.37-.11l15.33,8.64a.27.27,0,0,1-.13.51Z"/><path class="cls-4" d="M314.89,231.86a.54.54,0,0,1-.27-.07l-22.78-12.92a.57.57,0,0,1-.21-.75.55.55,0,0,1,.75-.2l22.78,12.92a.54.54,0,0,1-.27,1Z"/><path class="cls-7" d="M315.84,225.37a.37.37,0,0,1-.14,0l-9.65-5.55a.27.27,0,0,1-.1-.37.29.29,0,0,1,.38-.1l9.65,5.55a.27.27,0,0,1,.1.37A.28.28,0,0,1,315.84,225.37Z"/><path class="cls-7" d="M304.14,218.64a.31.31,0,0,1-.13,0l-4.25-2.44a.28.28,0,0,1-.1-.37.27.27,0,0,1,.37-.1l4.25,2.43a.29.29,0,0,1,.1.38A.28.28,0,0,1,304.14,218.64Z"/><path class="cls-7" d="M297.71,215a.32.32,0,0,1-.14,0l-4.65-2.6a.28.28,0,0,1-.1-.37.27.27,0,0,1,.37-.11l4.65,2.6a.27.27,0,0,1-.13.51Z"/><path class="cls-4" d="M291.37,211c-.14.86-.7,1.28-1.32.92a2.17,2.17,0,0,1-.8-2.14c.14-.86.69-1.3,1.3-.95A2.21,2.21,0,0,1,291.37,211Z"/><path class="cls-12" d="M290.37,217.47c-.13.85-.69,1.27-1.31.91a2.13,2.13,0,0,1-.8-2.14c.14-.85.68-1.3,1.29-1A2.2,2.2,0,0,1,290.37,217.47Z"/><path class="cls-4" d="M289.38,224c-.14.86-.69,1.28-1.31.92a2.17,2.17,0,0,1-.81-2.14c.14-.86.69-1.3,1.3-.95A2.19,2.19,0,0,1,289.38,224Z"/><path class="cls-11" d="M288.39,230.5c-.14.85-.7,1.27-1.32.91a2.13,2.13,0,0,1-.8-2.14c.14-.86.68-1.3,1.29-1A2.22,2.22,0,0,1,288.39,230.5Z"/><path class="cls-4" d="M371.11,257.41a.5.5,0,0,1-.27-.07l-22.79-12.92a.55.55,0,0,1-.2-.75.54.54,0,0,1,.74-.2l22.79,12.92a.54.54,0,0,1,.2.74A.53.53,0,0,1,371.11,257.41Z"/><path class="cls-7" d="M362.7,259.18a.32.32,0,0,1-.14,0l-15.33-8.64a.28.28,0,0,1,.27-.48l15.33,8.64a.27.27,0,0,1-.13.51Z"/><path class="cls-4" d="M369.12,270.41a.56.56,0,0,1-.27-.08l-22.78-12.92a.55.55,0,0,1,.54-1l22.78,12.93a.54.54,0,0,1,.21.74A.55.55,0,0,1,369.12,270.41Z"/><path class="cls-7" d="M355,269a.37.37,0,0,1-.14,0l-9.65-5.54a.28.28,0,0,1,.28-.48l9.65,5.55a.27.27,0,0,1,.1.37A.28.28,0,0,1,355,269Z"/><path class="cls-7" d="M361.33,272.59a.22.22,0,0,1-.13,0L357,270.12a.28.28,0,0,1,.28-.48l4.24,2.44a.28.28,0,0,1,.1.37A.27.27,0,0,1,361.33,272.59Z"/><path class="cls-7" d="M368.17,276.35a.31.31,0,0,1-.13,0l-4.65-2.6a.27.27,0,0,1-.1-.37.28.28,0,0,1,.37-.11l4.65,2.6a.27.27,0,0,1-.14.51Z"/><path class="cls-4" d="M346.54,242.73c-.13.86-.69,1.28-1.31.92a2.15,2.15,0,0,1-.8-2.14c.13-.86.68-1.3,1.29-.95A2.19,2.19,0,0,1,346.54,242.73Z"/><path class="cls-11" d="M345.55,249.25c-.14.85-.69,1.27-1.32.91a2.17,2.17,0,0,1-.8-2.14c.14-.86.69-1.3,1.3-1A2.2,2.2,0,0,1,345.55,249.25Z"/><path class="cls-4" d="M344.55,255.76c-.13.86-.69,1.27-1.31.91a2.12,2.12,0,0,1-.8-2.13c.14-.86.68-1.31,1.29-.95A2.18,2.18,0,0,1,344.55,255.76Z"/><path class="cls-12" d="M343.56,262.27c-.14.86-.69,1.28-1.31.92a2.13,2.13,0,0,1-.8-2.14c.13-.86.68-1.3,1.29-.95A2.19,2.19,0,0,1,343.56,262.27Z"/><path class="cls-7" d="M228.36,340.83l21.35-12.38a3.77,3.77,0,0,1,3.81,0l37.91,22.31a1.89,1.89,0,0,1,0,3.26l-21.24,12.37a3.74,3.74,0,0,1-3.81,0l-38-22.31A1.88,1.88,0,0,1,228.36,340.83Z"/><polygon class="cls-1" points="198.12 300.92 225.38 308.22 209.18 325.77 181.93 318.47 198.12 300.92"/><polygon class="cls-1" points="382.96 244.27 365.66 234.28 361.61 261.88 386.04 275.99 388.85 256.85 382.96 244.27"/><polygon class="cls-2" points="381.71 252.82 388.85 256.94 382.96 244.36 381.71 252.82"/><polygon class="cls-2" points="217.75 310.34 193.32 324.45 217.75 338.56 233.97 329.2 233.97 319.7 217.75 310.34"/><polygon class="cls-1" points="233.97 329.2 233.97 319.7 225.74 324.45 233.97 329.2"/><path class="cls-20" d="M155.29,290.75a5.74,5.74,0,0,1-5.5-3L112.57,218.1l9.44-6.85,37.91,71.11a5.74,5.74,0,0,1-4.63,8.39Z"/><path class="cls-29" d="M155.15,293.24a9.09,9.09,0,0,1-8.71-4.81l-28.23-52.79a3.26,3.26,0,0,1,1.12-4.26l10.31-5.57a3.23,3.23,0,0,1,4.6,1.23l28.25,52.9a9.08,9.08,0,0,1-7.34,13.3Z"/><path class="cls-30" d="M133.78,189.53c0-22.61-13-48-31.16-58.48-8.24-4.76-15.46-5.39-20.94-2.65l-13,7.36,10.88.2,10.2,3.57,11.56,9.9,9.21,13.48,7.33,15.86,2,20.18L117.11,211,110.34,222l12.77-7.25C129.77,211,133.78,202.08,133.78,189.53Z"/><path class="cls-31" d="M73.67,152.67c0-7.24,1.39-13.17,3.86-17.58-14.1,3.66-15.86,12.33-15.86,24.92,0,21.88,13.27,46.69,30.21,56.47C96,218.84,99.75,220,103.15,220c2.5,0,8.38,0,11-4.42a30.88,30.88,0,0,1-8.54-3.48C87.08,201.43,73.67,175.28,73.67,152.67Z"/><path class="cls-23" d="M90.16,138.13c-18.54-10.7-31.95-.56-31.95,22.05S71.62,209,90.16,219.65c18.15,10.48,31.16-.42,31.16-23S108.31,148.61,90.16,138.13ZM109.8,218a11.74,11.74,0,0,1-6.65,2c-3.4,0-7.19-1.19-11.27-3.55C74.94,206.7,61.67,181.89,61.67,160c0-12.59,4.25-20.71,11.52-22.49a13,13,0,0,1,3.17-.38c3.63,0,7.69,1.28,12.07,3.81,16.78,9.69,29.44,33.55,29.44,55.49C117.87,207,114.89,214.62,109.8,218Z"/><polygon class="cls-1" points="132.11 10.99 123.1 15.21 123.1 35.48 147.54 49.58 147.54 20.12 132.11 10.99"/><polygon class="cls-2" points="132.11 20.54 132.11 10.99 123.1 15.21 132.11 20.54"/><circle class="cls-11" cx="99.43" cy="60.71" r="3" transform="translate(-0.02 121.38) rotate(-62.79)"/><path class="cls-12" d="M94.11,352.64A3,3,0,1,1,91,349.75,3,3,0,0,1,94.11,352.64Z"/><path class="cls-18" d="M368.85,165.24a3,3,0,1,1-3.11-2.88A3,3,0,0,1,368.85,165.24Z"/><path class="cls-4" d="M30.25,215.28a3.62,3.62,0,0,1-1.24-.23,3.49,3.49,0,0,1-2.25-2.71,3.23,3.23,0,0,0-2.08-2.5,3.19,3.19,0,0,0-3.19.58.17.17,0,0,1-.22,0,.16.16,0,0,1,0-.21,3.52,3.52,0,0,1,5.76,2.09,3.24,3.24,0,0,0,5.25,1.95.14.14,0,0,1,.21,0,.14.14,0,0,1,0,.21A3.48,3.48,0,0,1,30.25,215.28Z"/><path class="cls-4" d="M155.68,338.28a.16.16,0,0,1-.15-.16,3.53,3.53,0,0,1,5.33-3,3.23,3.23,0,0,0,4.88-2.74.15.15,0,1,1,.3,0,3.53,3.53,0,0,1-5.33,3,3.19,3.19,0,0,0-3.24,0,3.22,3.22,0,0,0-1.64,2.8A.15.15,0,0,1,155.68,338.28Z"/><path class="cls-4" d="M191.44,21.1a.15.15,0,0,1-.15-.15,3.53,3.53,0,0,1,5.33-3,3.22,3.22,0,0,0,4.87-2.74.16.16,0,0,1,.16-.15.15.15,0,0,1,.15.15,3.53,3.53,0,0,1-5.33,3A3.23,3.23,0,0,0,191.59,21,.15.15,0,0,1,191.44,21.1Z"/><path class="cls-4" d="M316.34,133.75a3.53,3.53,0,0,1-3-5.33,3.23,3.23,0,0,0-2.77-4.88.15.15,0,1,1,0-.3,3.53,3.53,0,0,1,3,5.33,3.23,3.23,0,0,0,2.74,4.88.14.14,0,0,1,.15.15A.15.15,0,0,1,316.34,133.75Z"/><path class="cls-4" d="M319,189.33a.15.15,0,0,1-.11,0l-3.76-3.76a.17.17,0,0,1,0-.21l3.76-3.76a.18.18,0,0,1,.1,0,.21.21,0,0,1,.11,0l3.76,3.76a.15.15,0,0,1,0,.21l-3.75,3.76A.15.15,0,0,1,319,189.33Zm-3.55-3.9L319,189l3.54-3.55L319,181.88Z"/><path class="cls-4" d="M224.38,383.15a.14.14,0,0,1-.1,0l-3.76-3.75a.15.15,0,0,1,0-.21l3.75-3.76a.16.16,0,0,1,.11-.05.12.12,0,0,1,.1.05l3.76,3.75a.15.15,0,0,1,0,.22l-3.75,3.75A.16.16,0,0,1,224.38,383.15Zm-3.54-3.91,3.54,3.54,3.55-3.54-3.55-3.54Z"/><path class="cls-4" d="M48.47,181.94a.21.21,0,0,1-.11,0l-3.76-3.76a.18.18,0,0,1,0-.1.21.21,0,0,1,0-.11l3.76-3.76a.17.17,0,0,1,.21,0l3.76,3.75a.16.16,0,0,1,0,.22l-3.75,3.76A.21.21,0,0,1,48.47,181.94ZM44.92,178l3.55,3.54L52,178l-3.54-3.54Z"/></g></g></svg>