<svg width="1440" height="1024" viewBox="0 0 1440 1024" fill="none" xmlns="http://www.w3.org/2000/svg">
<g clip-path="url(#clip0_9074_471995)">
<path d="M95.6953 1247.92C96.6328 1246.13 97.9745 1246.22 98.9799 1246.29C111.925 1246.3 123.433 1241.85 134.818 1236.54C152.257 1228.11 168.147 1217.21 183.722 1205.96C210.332 1186.52 234.564 1164.4 258.641 1142.1C274.749 1127.18 289.729 1111.34 305.204 1095.71C314.266 1086.72 323.011 1077.37 332.09 1068.04C342.073 1057.6 351.877 1047.31 361.86 1036.87C364.525 1034.18 367.193 1031.5 369.863 1028.81C389.698 1010.27 410.008 992.267 432.221 976.407C471.031 949.025 512.744 927.051 559.414 916.008C634.368 898.087 705.596 908.694 772.599 947.629C776.51 949.906 780.406 952.52 784.141 954.953C790.642 959.087 796.44 963.847 803.313 967.33C807.737 969.473 811.948 972.446 814.746 976.67C817.247 980.2 816.692 984.202 812.879 986.307C809.244 988.253 805.15 989.327 801.074 990.066C791.388 991.951 781.44 992.468 771.685 992.494C757.733 992.414 743.605 992.486 729.529 991.554C685.297 988.626 645.786 1000.99 610.099 1026.55C589.812 1041.03 571.584 1057.83 554.13 1075.85C529.911 1100.84 507.629 1127.29 484.379 1153.01C469.362 1169.52 454.185 1185.84 438.535 1201.63C421.628 1218.86 403.594 1235.16 385.104 1250.6C371.542 1261.98 357.186 1272.47 341.739 1281.38C289.854 1311.09 235.273 1316.06 178.312 1296.64C150.74 1287.24 125.626 1272.78 102.371 1255.09C99.4637 1252.88 96.5376 1251 95.6953 1247.92Z" fill="#36AEBE"/>
<path d="M-37.7668 905.22C-18.3361 909.705 0.189909 906.052 18.4525 901.035C42.8749 894.071 66.1203 884 88.7494 872.879C125.024 855.089 159.907 835.02 194.352 813.742C216.103 800.206 237.871 786.334 259.921 773.493C300.012 750.404 342.812 733.214 388.648 725.144C444.329 715.371 498.348 720.798 549.974 745.59C583.077 761.58 611.671 783.16 635.529 811.498C640.106 817.016 644.667 822.873 650.304 827.451C653.686 830.2 655.498 834.024 657.485 837.687C659.454 841.689 657.579 845.267 653.152 846.318C649.569 847.26 645.529 847.328 641.862 846.748C635.53 845.656 629.024 844.722 622.886 843.136C609.963 839.588 597.393 835.727 584.487 831.842C578.371 829.923 572.271 827.667 565.957 826.241C537.273 818.787 508.96 819.939 480.744 828.673C458.174 835.593 437.415 846.333 417.252 858.459C397.798 869.958 379.277 882.868 360.42 895.753C328.106 918.012 295.796 940.271 261.477 959.201C240.154 971.081 218.193 982.246 195.039 990.641C170.174 999.596 144.714 1003.97 118.082 1002.03C84.0792 999.614 53.7953 987.512 25.7241 968.656C0.59794 951.343 -19.741 929.468 -37.7668 905.22Z" fill="#45B09A"/>
<path d="M-65.5934 651.82C-47.9662 658.539 -31.8945 656.744 -15.7501 653.605C5.82744 649.484 26.5631 642.275 47.0012 634.371C86.8518 618.837 125.19 600.176 162.914 580.463C192.34 564.913 222.664 551.438 254.761 542.459C287.881 533.21 321.438 528.367 355.918 531.323C405.14 535.256 448.716 553.456 486.484 585.743C503.36 600.151 518.274 616.62 530.381 635.26C532.565 638.432 535.102 641.294 537.637 644.154C540.49 647.372 542.654 650.88 544.111 655.017C545.43 658.637 543.554 662.216 539.672 662.462C536.797 662.776 533.605 662.733 530.625 661.865C523.978 660.413 517.348 658.627 510.913 656.351C500.197 652.444 489.476 648.537 479.148 643.646C437.869 623.411 396.275 624.528 354.396 640.262C331.401 648.835 309.6 660.18 287.957 671.704C259.73 686.83 231.961 702.827 202.803 716.544C180.545 727.019 157.849 736.284 134.255 743.472C103.143 752.853 71.7978 754.142 40.224 744.142C19.5585 737.557 1.32165 726.589 -15.2569 712.871C-34.8997 696.762 -51.0101 677.521 -64.118 655.619C-64.2395 654.769 -64.539 654.077 -65.5934 651.82Z" fill="#F3C302"/>
<path d="M-52.6578 387.803C-37.1324 396.067 -21.5214 396.596 -5.85601 396.119C23.7939 395.054 52.854 389.408 81.6329 382.731C107.005 376.841 132.256 370.1 157.226 362.329C187.313 353.217 218.082 347.009 249.623 345.229C288.414 343.087 326.135 348.277 362.057 364.959C388.797 377.332 411.54 395.16 430.327 417.775C438.848 428.099 446.663 439.049 452.574 451.051C456.97 459.925 461.543 468.641 465.763 477.671C467.434 480.979 469.737 485.002 467.033 488.357C464.153 491.868 459.889 489.902 456.431 488.495C451.815 486.845 447.212 484.856 442.984 482.221C432.71 476.324 422.26 470.583 412.709 463.724C383.407 442.768 351.101 436.926 316.223 441.347C293.536 444.221 271.852 450.355 250.127 457.162C223.798 465.176 197.593 474.043 170.983 481.031C147.443 487.212 123.978 492.052 99.6511 494.142C80.8989 495.762 62.4678 494.541 44.4505 488.804C23.2753 482.352 5.05645 471.05 -10.5676 455.206C-27.1408 438.292 -39.8993 419.276 -49.3202 397.615C-51.2041 395.135 -52.7348 392.341 -52.6578 387.803Z" fill="#E25068"/>
<path d="M30.8554 96.3513C40.8026 108.285 52.1189 113.578 63.8242 117.887C78.4911 123.402 93.6035 126.925 108.909 129.959C145.833 137.453 183.291 141.28 220.785 144.437C245.899 146.438 270.608 149.756 295.169 155.758C325.531 163.322 354.863 174.351 380.801 192.225C422.157 220.373 446.968 259.036 454.216 308.482C456.189 321.738 454.792 335.107 455.761 348.298C455.934 351.336 455.75 354.691 452.645 356.167C449.538 357.646 446.771 355.946 444.357 353.936C439.847 350.271 435.497 346.786 431.887 342.005C425.285 333.49 418.332 325.289 412.594 316.326C398.921 295.564 380.545 280.887 357.681 271.463C342.046 265.211 325.773 261.441 309.265 258.833C289.762 255.689 269.991 254.38 250.239 252.736C224.79 250.713 199.497 248.87 174.317 245.015C156.962 242.519 139.825 239.197 122.934 234.375C105.531 229.69 89.4573 222.229 75.0978 211.014C61.8672 200.714 51.9723 187.776 44.5337 172.98C32.997 150.004 29.4732 125.033 30.8554 96.3513Z" fill="#FF8002"/>
<path d="M1402.73 1232.18C1398.91 1234.28 1395.32 1232.36 1391.65 1231.78C1363.7 1226.23 1335.75 1220.67 1307.84 1214.45C1242.21 1199.84 1176.87 1183.06 1112.92 1162.16C1067.99 1147.41 1023.98 1130.86 981.968 1108.73C942.738 1087.96 905.677 1064.3 871.219 1036.1C866.234 1031.9 861.248 1027.7 856.439 1023.34C855.472 1022.61 854.855 1021.56 853.586 1020.13C858.313 1019.77 861.714 1022.18 865.17 1023.58C914.649 1044.53 964.732 1063.67 1015.58 1081.17C1065.77 1098.29 1116.23 1113.58 1168.08 1124.76C1198.99 1131.52 1229.99 1136.6 1261.71 1137.86C1270.44 1138.1 1279.19 1138 1287.94 1137.91C1314.34 1137.81 1338.16 1145.11 1358.77 1161.95C1372.46 1173.13 1383.48 1186.98 1391.71 1202.67C1395.21 1209.46 1398.02 1216.55 1401.01 1223.48C1401.87 1226.23 1403.24 1228.84 1402.73 1232.18Z" fill="#35718F"/>
<path d="M402.439 47.2559C424.925 72.9752 441.533 101.672 450.335 134.732C454.791 151.855 456.036 169.269 456.61 186.638C456.693 188.159 456.447 189.657 455.863 191.133C455.278 192.609 453.725 193.346 452.244 192.743C447.961 191.114 445.796 187.604 443.473 183.916C436.168 172.832 429.219 161.436 422.8 149.567C417.012 138.414 410.025 127.688 401.274 118.525C390.619 107.219 378.376 97.3206 364.857 89.1894C350.689 80.6798 336.112 73.4862 320.988 67.1005C296.506 56.5602 272.02 46.0207 247.731 34.989C229.03 26.3456 211.07 16.407 194.244 4.18629C161.896 -19.4965 142.946 -51.5441 135.473 -90.5735C133.776 -99.6053 132.749 -108.592 132.903 -117.667C132.94 -118.339 133.646 -118.964 134.175 -119.434C134.881 -120.06 135.552 -120.016 136.186 -119.301C136.503 -118.943 136.838 -118.921 137.155 -118.563C151.187 -101.312 170.096 -90.2989 189.025 -79.6224C214.473 -65.1481 241.212 -52.7756 268.341 -41.388C290.041 -32.2104 311.721 -22.6961 331.899 -10.2548C357.945 5.60574 382.17 24.0383 402.439 47.2559Z" fill="#8A8A8A"/>
<path d="M463.335 56.173C462.259 57.4487 459.597 56.9351 458.328 55.5041C455.951 52.8223 455.127 49.4031 454.638 46.0043C452.854 35.4555 451.229 25.0828 449.623 14.3761C448.647 7.57856 447.49 0.940621 445.668 -5.74338C442.263 -17.4113 436.617 -28.0503 430.124 -38.5772C423.015 -50.1535 413.769 -59.516 405.07 -69.6831C401.584 -73.616 398.292 -78.0415 393.375 -80.3863C392.723 -80.7665 392.07 -81.1451 391.772 -81.8393C383.128 -93.0124 370.933 -100.718 361.778 -111.758C358.626 -115.668 354.75 -118.618 351.068 -122.058C341.312 -131.288 332.241 -140.806 324.78 -152.071C323.389 -154.349 321.999 -156.629 320.256 -158.596C302.561 -179.624 294.642 -204.211 293.907 -231.015C293.54 -246.015 298.008 -260.192 302.631 -274.188C303.02 -275.171 303.745 -276.133 304.471 -277.096C305.214 -278.393 307.559 -278.237 308.334 -277.008C309.547 -274.572 310.424 -272.157 311.637 -269.72C317.229 -258.076 323.862 -247.036 332.579 -237.203C342.246 -226.298 351.737 -215.237 361.422 -204.667C367.286 -198.053 372.639 -191.305 380.269 -186.256C383.669 -183.843 385.991 -180.155 389.02 -177.093C393.16 -172.782 396.927 -167.82 402.302 -164.604C404.417 -163.286 406.141 -160.983 407.884 -159.017C412.638 -153.654 417.551 -148.112 422.306 -142.749C442.574 -119.532 458.852 -94.0549 469.391 -65.0858C477.753 -42.4893 481.51 -18.6811 479.532 5.41775C478.097 22.6559 472.022 38.575 465.297 54.1158C464.395 55.2334 463.865 55.7032 463.335 56.173Z" fill="#CDCDCD"/>
</g>
<defs>
<clipPath id="clip0_9074_471995">
<rect width="1440" height="1024" fill="white"/>
</clipPath>
</defs>
</svg>
