<svg width="216" height="301" viewBox="0 0 216 301" fill="none" xmlns="http://www.w3.org/2000/svg">
<path d="M0 163.548C6.20745 167.468 12.6599 167.795 19.0307 168.203C28.8319 168.775 38.5515 168.04 48.3527 167.141C57.5005 166.325 66.5667 165.916 75.6328 167.631C83.7188 169.102 91.2331 171.797 97.9306 176.698C106.507 182.905 112.142 191.154 115.083 201.201C115.655 203.079 116.145 204.958 116.553 206.836C116.798 207.817 115.9 208.633 114.919 208.307C113.776 207.98 112.796 207.326 111.897 206.591C109.61 204.631 107.242 202.753 105.118 200.629C99.3191 194.748 92.2949 191.808 84.1272 191.563C79.0633 191.399 73.9993 191.644 68.8536 192.216C58.2356 193.36 47.6176 194.993 36.918 194.83C33.4875 194.748 30.1388 194.503 26.79 193.85C15.682 191.726 8.00434 185.192 3.34875 175.064C1.63354 171.634 0.490062 168.04 0 163.548Z" fill="#38AEBF"/>
<path d="M20.9084 108.823C21.9702 109.069 22.3786 110.212 23.1954 110.784C24.0938 111.355 24.9106 112.009 25.809 112.581C29.6478 114.868 33.895 116.256 38.1422 117.481C46.8 120.013 55.7028 121.565 64.6056 122.954C71.7114 124.015 78.7357 125.731 85.3515 128.589C92.7841 131.856 99.2366 136.349 104.219 142.801C108.548 148.437 111.161 154.726 112.223 161.668C112.795 165.181 112.795 168.693 112.795 172.205C112.795 172.695 112.713 173.267 112.632 173.757C112.468 174.492 111.406 174.9 110.753 174.41C110.181 173.92 109.528 173.43 109.038 172.777C107.731 170.98 106.506 169.183 105.281 167.304C104.627 166.324 104.056 165.262 103.484 164.282C100.38 158.973 95.8061 155.543 90.0888 153.419C85.6782 151.786 81.0226 150.969 76.367 150.234C69.0161 149.172 61.5835 148.6 54.2326 147.13C49.6587 146.232 45.0848 145.088 40.6742 143.454C30.2196 139.616 24.0121 132.183 21.4801 121.483C20.5 117.481 20.3367 113.479 20.5817 109.395C20.5 109.232 20.745 109.069 20.9084 108.823Z" fill="#47B09A"/>
<path d="M44.922 75.5818C48.8425 80.1557 54.2332 82.2793 59.7055 84.4029C66.6481 87.0166 73.8356 88.8951 81.1049 90.692C86.9856 92.1622 92.6213 94.0408 97.9303 96.9812C103.403 99.9215 108.222 103.679 111.979 108.661C117.778 116.42 119.983 125.241 119.085 134.879C118.921 136.431 118.676 137.983 118.431 139.535C118.268 140.433 117.206 140.678 116.634 140.025C115.899 139.126 115.082 138.228 114.511 137.248C113.367 135.206 112.305 133.082 111.325 130.959C108.793 125.323 104.628 121.403 98.9921 118.952C95.0716 117.155 90.9061 116.012 86.7406 115.032C80.3698 113.562 73.999 112.336 67.7915 110.294C64.8512 109.314 61.8291 108.253 59.0521 106.946C49.4959 102.535 44.677 94.8575 44.0235 84.4846C43.8602 82.0343 44.1052 79.5023 44.1869 77.052C44.1869 76.4802 44.1869 75.9902 44.922 75.5818Z" fill="#F3C404"/>
<path d="M74.4891 44.6262C77.5928 49.8535 82.3301 52.6306 86.9856 55.4893C92.3763 58.7563 98.012 61.4517 103.729 64.0653C108.875 66.434 113.612 69.3743 117.941 73.0498C124.23 78.5221 128.478 85.3013 129.866 93.6324C130.846 99.5948 129.703 105.312 127.742 110.948C127.497 111.601 126.599 111.765 126.191 111.275C125.455 110.458 125.047 109.559 124.72 108.498C124.067 106.374 123.332 104.25 122.76 102.127C121.535 97.5529 118.921 93.9591 115.164 91.1004C112.469 89.0585 109.447 87.4249 106.343 86.0364C102.341 84.1578 98.2571 82.361 94.2549 80.4824C90.4978 78.6855 86.8223 76.6436 83.3102 74.4383C74.3257 68.7209 70.8953 59.4914 73.1822 49.3635C73.3456 47.8933 73.5906 46.3414 74.4891 44.6262Z" fill="#E3516A"/>
<path d="M115.899 18.8152C116.797 23.1441 118.921 26.4111 121.208 29.5149C124.965 34.5788 129.13 39.1527 133.541 43.645C136.563 46.7487 139.422 49.9341 141.872 53.4462C144.404 57.1217 146.609 60.9605 147.834 65.2894C151.101 76.1524 148.569 85.6269 140.647 93.6312C140.238 94.0396 139.748 94.2847 139.258 94.0396C138.931 93.8763 138.768 93.4679 138.686 93.0595C138.278 91.671 138.36 90.2008 138.441 88.8123C138.605 87.2605 138.686 85.7086 138.85 84.1567C139.258 79.8278 138.115 75.9074 135.909 72.2319C134.276 69.5366 132.316 67.0862 130.11 64.881C126.68 61.2872 123.25 57.6934 119.819 54.0996C116.879 50.9959 114.183 47.6471 111.896 43.9717C110.1 41.0313 108.956 37.9276 108.874 34.4155C108.793 28.6981 110.916 23.7158 115.899 18.8152Z" fill="#FF8105"/>
<path d="M160.332 300.765C159.597 299.948 159.025 299.377 158.535 298.723C148.244 285.41 138.524 271.688 130.193 256.986C123.986 245.96 119.493 234.362 117.206 221.947C117.043 221.212 116.961 220.395 116.88 219.66C116.798 219.17 116.88 218.598 116.88 217.781C117.86 218.68 118.186 219.578 118.595 220.477C123.822 231.176 129.458 241.549 135.829 251.595C139.994 258.13 144.323 264.419 149.469 270.218C151.674 272.668 153.961 274.955 156.493 276.997C162.619 281.898 165.477 291.209 160.332 300.765Z" fill="#3B7690"/>
<path d="M152.001 3.78638C152.654 11.464 155.839 18.3249 158.943 25.2674C160.74 29.2696 162.782 33.2718 164.171 37.519C166.212 43.8898 167.193 50.4239 166.294 57.1214C165.396 63.6556 162.864 69.373 158.453 74.2736C158.208 74.5186 157.8 74.7636 157.473 74.7636C156.738 74.6819 156.901 74.0285 156.901 73.5385C156.82 71.1698 157.473 68.8829 157.963 66.5959C159.025 61.8587 158.78 57.2848 157.31 52.7109C156.248 49.4438 154.859 46.4217 153.308 43.3997C151.184 39.2342 149.224 34.987 147.59 30.5764C146.855 28.5345 146.202 26.3292 145.793 24.2056C144.241 16.6097 146.447 10.0755 151.266 4.19476C151.429 3.86805 151.674 3.86805 152.001 3.78638Z" fill="#8C8C8C"/>
<path d="M189.573 3.7061C189.573 3.86945 189.654 3.95113 189.573 4.11448C188.511 7.29988 188.919 10.567 188.919 13.834C188.919 21.43 189.328 29.0259 188.837 36.5402C188.266 45.7697 184.1 53.2023 176.096 58.2663C175.197 58.838 174.217 59.1647 173.237 59.5731C172.747 59.7365 172.502 59.3281 172.584 58.9197C172.665 58.4296 172.829 57.9396 173.074 57.4495C173.646 56.4694 174.299 55.4076 174.952 54.4275C179.036 48.5467 180.425 42.1759 178.955 35.1517C178.791 34.4166 178.791 33.5998 178.791 32.7831C178.791 27.9641 178.71 23.1452 178.71 18.3263C178.71 13.9157 180.261 10.1586 183.447 7.13653C184.917 5.66634 186.224 4.03281 188.266 3.29771C188.919 3.05268 189.573 3.29771 189.573 3.7061Z" fill="#CDCDCD"/>
<path d="M196.598 39.9698C197.741 38.3363 198.476 37.1111 199.375 36.0493C202.07 32.8639 203.295 29.1885 203.949 25.1046C204.684 20.6124 205.011 16.1202 206.154 11.7096C207.134 8.11581 208.849 5.01209 211.708 2.48011C212.607 1.66334 213.587 1.17328 214.567 0.764893C215.302 1.25495 214.975 1.74502 214.812 2.23508C213.178 7.29905 212.362 12.608 211.626 17.8354C210.891 23.8795 208.686 29.3518 205.256 34.4158C203.867 36.4577 201.825 37.5195 200.028 39.0714C199.375 39.7248 198.395 39.9698 196.598 39.9698Z" fill="#CDCDCD"/>
</svg>
