<svg width="128" height="111" viewBox="0 0 128 111" fill="none" xmlns="http://www.w3.org/2000/svg">
<path d="M14 109.5L34 109.503" stroke="#7D8588"/>
<path d="M0 109.5L12 109.507" stroke="#7D8588"/>
<path d="M10 106.5L22 106.507" stroke="#7D8588"/>
<path d="M101 109.5L106 109.51" stroke="#7D8588"/>
<path d="M108 109.5L128 109.503" stroke="#7D8588"/>
<path d="M104 106.5L119 106.506" stroke="#7D8588"/>
<line y1="-0.5" x2="14.9982" y2="-0.5" transform="matrix(0.834122 0.55158 -0.750568 0.660793 14 8.72705)" stroke="#7D8588"/>
<line y1="-0.5" x2="14.5725" y2="-0.5" transform="matrix(0.234342 0.972154 -0.998715 0.0506745 26 0.37793)" stroke="#7D8588"/>
<line y1="-0.5" x2="14.5725" y2="-0.5" transform="matrix(0.987847 0.155428 -0.335284 0.942117 9.84082 17.751)" stroke="#7D8588"/>
<path fill-rule="evenodd" clip-rule="evenodd" d="M35.7273 74.3989L36.0086 74.5786L41.9882 78.3989L47.4535 74.5898L47.7273 74.3989L48.0086 74.5786L53.4664 78.0656L58.4535 74.5898L58.7273 74.3989L59.0086 74.5786L64.9882 78.3989L70.4535 74.5898L70.7273 74.3989L71.0086 74.5786L76.4664 78.0656L81.4535 74.5898L81.7273 74.3989L82.0086 74.5786L87.9882 78.3989L93.4535 74.5898L93.7273 74.3989L94.0086 74.5786L100 78.4065V79H99.0716L93.7515 75.601L88.8747 79H88.0003L88.0003 79L88.0002 79H87.0716L81.7515 75.601L77.101 78.8422L77 79.0004V79H76.0003L75.943 78.9179L70.7515 75.601L65.8747 79H65.0003L65.0003 79L65.0002 79H64.0716L58.7515 75.601L54.101 78.8422L54 79.0004V79H53.0003L52.943 78.9179L47.7515 75.601L42.8747 79H42.0003L42.0003 79L42.0002 79H41.0716L35.7515 75.601L30.8747 79H30.0003L30 78.9996V78.3907L35.4535 74.5898L35.7273 74.3989ZM100 79L100 79.0004V79H100Z" fill="#7D8588"/>
<path fill-rule="evenodd" clip-rule="evenodd" d="M35.7273 81.3989L36.0086 81.5786L41.9882 85.3989L47.4535 81.5898L47.7273 81.3989L48.0086 81.5786L53.4664 85.0656L58.4535 81.5898L58.7273 81.3989L59.0086 81.5786L64.9882 85.3989L70.4535 81.5898L70.7273 81.3989L71.0086 81.5786L76.4664 85.0656L81.4535 81.5898L81.7273 81.3989L82.0086 81.5786L87.9882 85.3989L93.4535 81.5898L93.7273 81.3989L94.0086 81.5786L100 85.4065V86H99.0716L93.7515 82.601L88.8747 86H88.0003L88.0003 86L88.0002 86H87.0716L81.7515 82.601L77.101 85.8422L77 86.0004V86H76.0003L75.943 85.9179L70.7515 82.601L65.8747 86H65.0003L65.0003 86L65.0002 86H64.0716L58.7515 82.601L54.101 85.8422L54 86.0004V86H53.0003L52.943 85.9179L47.7515 82.601L42.8747 86H42.0003L42.0003 86L42.0002 86H41.0716L35.7515 82.601L30.8747 86H30.0003L30 85.9996V85.3907L35.4535 81.5898L35.7273 81.3989ZM100 86L100 86.0004V86H100Z" fill="#7D8588"/>
<g clip-path="url(#clip0)">
<path d="M116.742 68.3441C117.71 67.0228 118.144 65.3846 117.956 63.7572C117.769 62.1299 116.973 60.6334 115.73 59.5672C114.486 58.501 112.886 57.9437 111.249 58.0068C109.612 58.0699 108.059 58.7487 106.901 59.9074C105.743 61.0662 105.066 62.6194 105.004 64.2563C104.942 65.8933 105.5 67.4933 106.567 68.7361C107.634 69.979 109.131 70.7732 110.759 70.9597C112.386 71.1462 114.024 70.7113 115.345 69.7421H115.344C115.374 69.7821 115.406 69.8201 115.442 69.8571L119.292 73.7071C119.479 73.8947 119.734 74.0002 119.999 74.0003C120.264 74.0004 120.519 73.8951 120.706 73.7076C120.894 73.5201 121 73.2657 121 73.0005C121 72.7352 120.894 72.4807 120.707 72.2931L116.857 68.4431C116.821 68.4069 116.783 68.3735 116.742 68.3431V68.3441ZM117 64.5001C117 65.2224 116.858 65.9376 116.581 66.6049C116.305 67.2722 115.9 67.8785 115.389 68.3892C114.878 68.8999 114.272 69.305 113.605 69.5814C112.937 69.8578 112.222 70.0001 111.5 70.0001C110.778 70.0001 110.062 69.8578 109.395 69.5814C108.728 69.305 108.122 68.8999 107.611 68.3892C107.1 67.8785 106.695 67.2722 106.419 66.6049C106.142 65.9376 106 65.2224 106 64.5001C106 63.0414 106.579 61.6425 107.611 60.611C108.642 59.5796 110.041 59.0001 111.5 59.0001C112.959 59.0001 114.358 59.5796 115.389 60.611C116.42 61.6425 117 63.0414 117 64.5001V64.5001Z" fill="#7D8588"/>
</g>
<path fill-rule="evenodd" clip-rule="evenodd" d="M93.0005 19.9995H34.0005C31.7913 19.9995 30.0005 21.7904 30.0005 23.9995V79H31.0005V23.9995C31.0005 22.3427 32.3436 20.9995 34.0005 20.9995H93.0845L91.9047 26.9596C91.7784 27.5976 92.2852 28.1845 92.9348 28.1526L99.0005 27.8542V79H100V26.4493L99.6322 26.0566L96.4427 22.4133L94.8229 20.5374C94.7788 20.4863 94.7314 20.4411 94.6816 20.4016L94.3296 19.9995H93.9527H93.0005ZM100 86H99.0005V106C99.0005 107.656 97.6573 109 96.0005 109H34.0005C32.3436 109 31.0005 107.656 31.0005 106V86H30.0005V106C30.0005 108.209 31.7913 110 34.0005 110H96.0005C98.2096 110 100 108.209 100 106V86ZM93.9869 21.1262L99.0005 26.8531V26.9474C98.9917 26.951 98.9795 26.9542 98.9618 26.955L92.8906 27.2536C92.8256 27.2568 92.775 27.1982 92.7876 27.1343L93.9679 21.1715C93.9728 21.1472 93.9803 21.1342 93.9869 21.1262Z" fill="#7D8588"/>
<path d="M54.0005 59C57.4079 54.4723 66.7783 48.1334 77.0005 59" stroke="#7D8588" stroke-width="2"/>
<circle cx="81.0005" cy="39" r="4" fill="#7D8588"/>
<circle cx="50.0005" cy="39" r="4" fill="#7D8588"/>
<path d="M12 49C12 46.7909 13.7909 45 16 45H30V53H16C13.7909 53 12 51.2091 12 49V49Z" fill="#686666"/>
<path fill-rule="evenodd" clip-rule="evenodd" d="M18.0002 60.9995C20.2093 60.9995 22.0002 59.2087 22.0002 56.9995C22.0002 54.8115 20.2433 53.0337 18.0633 53H30.0002V61H12.0002C11.9791 61 11.958 60.9998 11.937 60.9995H18.0002Z" fill="#686666"/>
<path d="M0 65C0 62.7909 1.79086 61 4 61H30V69H4C1.79086 69 0 67.2091 0 65V65Z" fill="#686666"/>
<defs>
<clipPath id="clip0">
<rect width="16" height="16" fill="white" transform="translate(105 58)"/>
</clipPath>
</defs>
</svg>
