<svg width="194" height="92" viewBox="0 0 194 92" fill="none" xmlns="http://www.w3.org/2000/svg">
<path d="M193.063 60.5143C193.012 60.5484 192.995 60.5996 192.995 60.6508C192.875 61.8283 192.389 62.8522 191.698 63.7907C191.246 64.4136 190.691 64.9341 190.077 65.4034C188.72 66.4358 187.21 67.1354 185.529 67.4426C184.693 67.5877 183.848 67.6389 183.003 67.6047C181.109 67.5194 179.275 67.1098 177.466 66.5552C177.099 66.4443 176.732 66.3419 176.356 66.2907C175.802 66.2054 175.444 66.1969 175.06 66.9392C174.974 67.1098 174.906 67.289 174.838 67.4682C174.795 67.5706 174.735 67.6218 174.624 67.6218C174.556 67.6218 174.488 67.6218 174.42 67.6218C174.104 67.6218 174.104 67.6133 174.095 67.2976C174.095 67.2549 174.095 67.2122 174.095 67.1781C174.095 64.2941 174.095 61.4187 174.095 58.5348C174.095 58.0314 174.087 58.0826 174.573 58.0826C174.769 58.0826 174.778 58.0911 174.829 58.2788C175 58.9273 175.196 59.5672 175.452 60.1815C175.921 61.2907 176.544 62.289 177.423 63.1167C178.754 64.3624 180.307 65.1645 182.116 65.4546C182.858 65.574 183.609 65.6081 184.36 65.5228C185.725 65.3692 186.86 64.772 187.688 63.6542C188.251 62.8863 188.447 62.0075 188.353 61.0604C188.31 60.6508 188.242 60.2498 188.106 59.8658C187.816 59.0467 187.329 58.3641 186.672 57.8095C186.041 57.2805 185.35 56.8454 184.641 56.4358C183.711 55.8983 182.747 55.4034 181.775 54.9426C180.58 54.3795 179.386 53.8078 178.251 53.1167C177.671 52.7583 177.107 52.3744 176.57 51.9563C175.239 50.9068 174.471 49.5416 174.215 47.8778C174.036 46.6918 174.061 45.5143 174.36 44.3454C174.744 42.8181 175.563 41.5467 176.74 40.5058C178.037 39.3539 179.556 38.714 181.271 38.4921C181.502 38.4665 181.732 38.4409 181.962 38.4154C183.455 38.2959 184.897 38.5775 186.314 39.0211C186.834 39.1833 187.355 39.3539 187.875 39.516C188.097 39.5843 188.327 39.6355 188.549 39.6867C188.643 39.7123 188.737 39.7208 188.831 39.7293C189.394 39.7976 189.821 39.6014 190.077 39.0809C190.17 38.9017 190.273 38.7225 190.358 38.5348C190.409 38.4324 190.478 38.3897 190.58 38.3897C190.597 38.3897 190.606 38.3897 190.623 38.3897C191.169 38.3983 191.109 38.33 191.109 38.859C191.109 41.7259 191.109 44.5928 191.109 47.4597C191.109 47.9546 191.143 47.9034 190.674 47.9034C190.435 47.9034 190.435 47.9034 190.367 47.673C190.153 46.9563 189.923 46.2396 189.641 45.5484C189.351 44.8403 189.019 44.1577 188.609 43.5092C187.628 41.9392 186.194 41.0263 184.411 40.6252C183.507 40.429 182.594 40.3863 181.681 40.4717C180.358 40.5911 179.198 41.0775 178.293 42.0928C177.85 42.5877 177.568 43.1508 177.525 43.8164C177.5 44.3283 177.577 44.8232 177.73 45.3095C177.892 45.8129 178.157 46.2566 178.49 46.6491C178.874 47.1013 179.317 47.4768 179.804 47.8181C180.589 48.3641 181.433 48.8078 182.304 49.2174C183.822 49.9341 185.341 50.6423 186.86 51.359C187.961 51.8795 189.01 52.4853 189.966 53.2447C190.87 53.9614 191.655 54.789 192.244 55.7959C192.517 56.2737 192.73 56.7686 192.884 57.2976C192.944 57.5109 193.003 57.7157 193.003 57.9375C193.003 57.9972 193.02 58.0399 193.08 58.074C193.063 58.8761 193.063 59.6952 193.063 60.5143Z" fill="white"/>
<path d="M0 35.5314C0.0853241 35.5996 0.162116 35.6594 0.153584 35.7959C0.145051 35.9068 0.0853241 35.9324 0 35.9409C0 35.8044 0 35.6679 0 35.5314Z" fill="#36AEBE"/>
<path d="M50.7422 48.4068C50.6654 48.5177 50.691 48.6457 50.691 48.7651C50.691 49.4307 50.691 50.1047 50.691 50.7703C50.691 53.8931 50.691 57.0245 50.691 60.1474C50.691 61.0177 50.7081 61.8965 50.7934 62.7668C50.8531 63.3214 50.9385 63.876 51.075 64.4136C51.2712 65.1815 51.732 65.7446 52.3804 66.1883C52.8753 66.5211 53.4299 66.7088 54.0101 66.8197C54.3856 66.888 54.7695 66.9136 55.1535 66.9136C55.6484 66.9136 56.1347 66.9136 56.6296 66.9136C56.7661 66.9136 56.8002 66.9562 56.8088 67.0842C56.8088 67.1269 56.8088 67.1695 56.8088 67.2037C56.8088 67.6388 56.8088 67.6132 56.4077 67.6132C50.5545 67.6132 44.7013 67.6132 38.8395 67.6132C38.4299 67.6132 38.4299 67.6132 38.4385 67.2122C38.4385 67.161 38.4385 67.1013 38.447 67.0501C38.4555 66.9733 38.4982 66.9306 38.5835 66.9221C38.6945 66.9136 38.8054 66.9136 38.9078 66.9136C39.4112 66.9136 39.9146 66.9136 40.4265 66.905C40.9897 66.8965 41.5357 66.7771 42.0648 66.5808C42.5084 66.4187 42.9009 66.1713 43.2508 65.8641C43.8651 65.3265 44.1979 64.6525 44.3258 63.8504C44.4794 62.8948 44.5392 61.9221 44.5647 60.958C44.5733 60.5228 44.5733 60.0876 44.5733 59.644C44.5733 51.103 44.5733 42.5535 44.5733 34.0126C44.5733 33.0826 44.5648 32.1525 44.488 31.231C44.4282 30.5655 44.3429 29.9 44.1723 29.2515C44.0101 28.6457 43.6944 28.1594 43.1996 27.7754C42.6279 27.3232 41.9794 27.0587 41.2798 26.9222C40.8617 26.8368 40.4436 26.8198 40.017 26.8198C39.5648 26.8198 39.1125 26.8198 38.6689 26.8198C38.4811 26.8198 38.4641 26.7856 38.4555 26.5979C38.4555 26.5297 38.4555 26.4614 38.4555 26.3932C38.4641 26.1287 38.4641 26.1201 38.7371 26.1201C38.848 26.1201 38.959 26.1201 39.0613 26.1201C43.7286 26.1201 48.3958 26.1201 53.063 26.1201C54.2234 26.1201 55.3838 26.1372 56.5443 26.2054C58.2337 26.3078 59.9146 26.5041 61.5528 26.9307C64.232 27.6218 66.4418 29.0467 68.1825 31.1969C69.3685 32.6645 70.0937 34.3368 70.3156 36.214C70.5374 38.1082 70.4094 39.9853 69.778 41.7856C68.6859 44.9256 66.5613 47.0842 63.464 48.2873C62.2866 48.7481 61.0579 48.9955 59.8036 49.132C58.5494 49.2685 57.2951 49.2686 56.0408 49.1918C55.0596 49.1235 54.0869 49.004 53.1142 48.8419C52.3634 48.7139 51.6125 48.5774 50.8617 48.4068C50.8275 48.3982 50.7849 48.4068 50.7422 48.4068ZM50.691 37.6559C50.691 40.4802 50.691 43.3044 50.691 46.1286C50.691 46.6406 50.6228 46.5723 51.1347 46.6662C51.9282 46.8112 52.7217 46.9392 53.5152 47.0416C54.3002 47.144 55.0852 47.2122 55.8787 47.2037C57.4487 47.1866 58.848 46.6918 60.0937 45.7447C60.7422 45.2583 61.2968 44.6781 61.7917 44.0382C62.9009 42.5621 63.4214 40.8727 63.5494 39.0553C63.6091 38.2276 63.592 37.3914 63.4982 36.5638C63.3275 35.1133 62.9094 33.7396 62.2268 32.4426C61.732 31.5041 61.092 30.6764 60.2559 30.0109C58.4896 28.6201 56.4504 28.1082 54.2405 28.1935C53.191 28.2362 52.1586 28.4324 51.1347 28.6713C50.6569 28.7822 50.6996 28.6628 50.6996 29.2174C50.691 32.0331 50.691 34.8402 50.691 37.6559Z" fill="white"/>
<path d="M112.466 62.2464C112.303 62.4255 112.141 62.6132 111.979 62.7924C111.16 63.7054 110.298 64.5842 109.36 65.3778C108.387 66.1969 107.321 66.8453 106.1 67.2207C103.737 67.9545 101.484 67.6644 99.3769 66.3846C97.696 65.3607 96.4076 63.9528 95.4179 62.2634C94.6499 60.958 94.1721 59.5416 93.8735 58.0569C93.5151 56.2907 93.4639 54.5075 93.5748 52.7157C93.6943 50.7703 94.0783 48.8761 94.8547 47.0757C96.3052 43.731 98.6431 41.2054 101.92 39.5928C103.174 38.9699 104.522 38.6201 105.913 38.458C106.774 38.3556 107.628 38.3385 108.49 38.4068C110.111 38.5263 111.612 39.0297 112.935 40.0024C112.986 40.045 113.046 40.0792 113.097 40.1303C113.191 40.2157 113.285 40.2242 113.396 40.173C113.583 40.0877 113.771 40.0109 113.959 39.9256C114.863 39.5075 115.751 39.0467 116.604 38.5348C116.792 38.4239 116.971 38.3641 117.184 38.3812C117.414 38.3897 117.645 38.3812 117.884 38.3897C117.96 38.3897 118.012 38.4409 118.012 38.5177C118.02 38.6542 118.02 38.7908 118.02 38.9273C118.02 45.9153 118.02 52.9034 118.02 59.8914C118.02 64.789 118.02 69.6866 118.02 74.5928C118.02 75.1388 118.037 75.6849 118.054 76.231C118.071 76.7088 118.123 77.1866 118.216 77.6559C118.302 78.1252 118.498 78.5347 118.805 78.9016C119.112 79.26 119.488 79.516 119.957 79.6354C120.52 79.7805 121.083 79.8231 121.655 79.8487C122.124 79.8658 122.073 79.8146 122.073 80.318C122.073 80.3436 122.073 80.3692 122.073 80.4033C122.065 80.4801 122.03 80.5313 121.945 80.5313C121.834 80.5398 121.723 80.5398 121.621 80.5398C117.389 80.5398 113.157 80.5398 108.925 80.5398C108.421 80.5398 108.481 80.5654 108.481 80.062C108.481 79.8999 108.515 79.8658 108.669 79.8658C109.104 79.8658 109.539 79.8573 109.974 79.7975C110.298 79.7463 110.614 79.6695 110.921 79.5586C111.373 79.388 111.706 79.0808 111.945 78.6627C112.167 78.2617 112.312 77.8436 112.38 77.3914C112.474 76.7429 112.525 76.0859 112.542 75.4375C112.551 75.1474 112.551 74.8658 112.551 74.5757C112.551 70.6166 112.551 66.6576 112.551 62.6986C112.551 62.5621 112.542 62.4341 112.542 62.2975C112.517 62.2634 112.491 62.2549 112.466 62.2464ZM112.551 53.0996C112.551 52.2976 112.551 51.487 112.551 50.6849C112.551 49.4392 112.551 48.202 112.551 46.9563C112.551 46.1372 112.474 45.3181 112.303 44.516C112.124 43.7054 111.792 42.9631 111.228 42.3402C110.631 41.6832 109.923 41.1884 109.104 40.8471C108.293 40.5143 107.457 40.3949 106.587 40.4119C105.486 40.4375 104.454 40.7191 103.515 41.2908C102.073 42.1611 101.015 43.3897 100.281 44.9C99.9571 45.5655 99.7267 46.2652 99.539 46.9733C99.155 48.4324 99.0271 49.9256 98.9759 51.4273C98.9417 52.4682 98.9929 53.5006 99.1039 54.5331C99.2062 55.5399 99.4025 56.5296 99.7011 57.4938C100.187 59.0638 100.998 60.4375 102.201 61.5638C103.916 63.1849 105.938 63.8078 108.268 63.3726C110.042 63.0484 111.416 62.1269 112.355 60.5655C112.5 60.3266 112.568 60.0877 112.568 59.7976C112.551 57.5791 112.551 55.3351 112.551 53.0996Z" fill="white"/>
<path d="M145.563 50.3437C145.563 53.2532 145.554 56.1628 145.563 59.0638C145.563 59.8317 145.606 60.5911 145.648 61.3505C145.674 61.8112 145.734 62.272 145.879 62.7157C145.938 62.8949 146.007 63.0826 146.1 63.2447C146.391 63.7566 146.834 64.0382 147.44 64.0297C147.815 64.0297 148.165 63.9358 148.515 63.8164C148.669 63.7652 148.822 63.6969 148.967 63.6372C149.223 63.5348 149.215 63.458 149.394 63.7993C149.624 64.243 149.676 64.1747 149.181 64.3795C146.689 65.4119 144.189 66.4529 141.698 67.4938C141.501 67.5706 141.314 67.6218 141.1 67.6133C140.827 67.6047 140.554 67.6133 140.281 67.6047C140.119 67.6047 140.085 67.5621 140.077 67.417C140.068 67.3061 140.077 67.1952 140.077 67.0928C140.077 65.6082 140.077 64.115 140.077 62.6304C140.077 62.5109 140.077 62.3829 140.077 62.2635C140.077 62.2208 140.068 62.1781 140.017 62.1781C139.991 62.1781 139.966 62.1867 139.949 62.2037C139.872 62.2805 139.795 62.3573 139.718 62.4341C138.848 63.3215 137.961 64.1918 137.022 65.0024C136.476 65.4716 135.913 65.9239 135.298 66.3249C134.36 66.9307 133.327 67.3061 132.227 67.4938C131.467 67.6218 130.708 67.6559 129.94 67.5706C128.763 67.4341 127.696 66.9989 126.766 66.2652C125.537 65.2925 124.761 64.0211 124.343 62.5109C124.138 61.7686 124.019 61.0177 123.933 60.2583C123.797 58.9955 123.763 57.7242 123.771 56.4529C123.771 52.5109 123.771 48.5604 123.771 44.6184C123.771 43.987 123.763 43.3642 123.694 42.7413C123.66 42.4256 123.609 42.1184 123.524 41.8198C123.404 41.3761 123.182 40.9922 122.875 40.6509C122.517 40.2498 122.073 40.0024 121.553 39.8915C121.083 39.7976 120.606 39.7635 120.128 39.7464C120.042 39.7464 119.966 39.7464 119.88 39.7464C119.735 39.7379 119.701 39.7038 119.693 39.5416C119.693 39.0297 119.641 39.0724 120.145 39.0724C123.029 39.0724 125.904 39.0724 128.788 39.0724C128.856 39.0724 128.925 39.0724 128.993 39.0724C129.206 39.0809 129.223 39.098 129.223 39.3113C129.223 39.4307 129.223 39.5587 129.223 39.6782C129.223 45.5911 129.223 51.4956 129.223 57.4085C129.223 57.9717 129.232 58.5263 129.257 59.0894C129.292 59.8147 129.385 60.5314 129.573 61.231C129.599 61.3249 129.624 61.4102 129.65 61.5041C130.042 62.8693 130.99 63.6542 132.304 64.0467C133.268 64.3368 134.215 64.2515 135.162 63.9273C136.126 63.586 136.988 63.0826 137.781 62.4341C138.541 61.8112 139.24 61.1201 139.923 60.4119C140.034 60.2925 140.102 60.173 140.085 60.0109C140.077 59.9256 140.085 59.8488 140.085 59.7635C140.085 54.7379 140.085 49.7208 140.085 44.6952C140.085 44.0553 140.077 43.4154 139.991 42.7754C139.932 42.3573 139.846 41.9393 139.71 41.5382C139.479 40.8642 139.027 40.4034 138.362 40.1474C137.858 39.9597 137.338 39.8573 136.809 39.7976C136.621 39.7806 136.425 39.772 136.237 39.7464C136.032 39.7208 136.024 39.7123 136.015 39.4905C136.015 39.4051 136.015 39.3283 136.015 39.243C136.024 39.0894 136.049 39.0638 136.22 39.0553C136.314 39.0553 136.408 39.0553 136.51 39.0553C139.36 39.0553 142.218 39.0553 145.068 39.0553C145.606 39.0553 145.554 39.0041 145.554 39.5331C145.554 43.1338 145.554 46.743 145.554 50.3437C145.546 50.3437 145.554 50.3437 145.563 50.3437Z" fill="white"/>
<path d="M89.7951 53.6457C89.7951 55.9409 89.7866 58.2362 89.8036 60.5228C89.8122 61.2481 89.8207 61.9734 89.9401 62.6901C89.9828 62.9631 90.0425 63.2276 90.1535 63.4751C90.3582 63.9529 90.7251 64.1832 91.2456 64.2003C91.5784 64.2088 91.8941 64.1321 92.1842 63.9614C92.4657 63.7993 92.7388 63.6116 92.9948 63.4068C93.4128 63.074 93.8224 62.7413 94.2405 62.4085C94.3002 62.3573 94.3685 62.3061 94.4367 62.2635C94.4709 62.2379 94.5135 62.2549 94.5306 62.3061C94.5391 62.3488 94.5391 62.3829 94.5391 62.4256C94.5391 62.7413 94.5391 63.057 94.5391 63.3641C94.5391 63.5092 94.505 63.6286 94.4111 63.731C93.4128 64.8402 92.3207 65.8556 91.0323 66.615C90.3241 67.0331 89.5732 67.3573 88.7541 67.5024C88.0886 67.6218 87.4231 67.6559 86.7661 67.4768C85.7593 67.2037 85.0681 66.5809 84.7098 65.5996C84.5135 65.0536 84.4197 64.4904 84.377 63.9187C84.36 63.714 84.36 63.5092 84.3429 63.3044C84.3429 63.2532 84.2661 63.2106 84.2234 63.2362C84.121 63.3044 84.0187 63.3727 83.9248 63.4495C82.8071 64.2771 81.6808 65.0962 80.5289 65.8812C80.2815 66.0518 80.0255 66.2054 79.778 66.3761C78.9333 66.9392 78.0033 67.2635 77.0135 67.4512C76.1347 67.6218 75.2473 67.6559 74.3685 67.5365C72.6194 67.2976 71.203 66.4785 70.1279 65.0792C69.4026 64.1406 69.0016 63.0655 68.8139 61.8966C68.703 61.1798 68.6859 60.4546 68.7371 59.7293C68.8395 58.2959 69.377 57.0331 70.3071 55.9409C71.0835 55.028 72.005 54.2857 72.9948 53.6201C73.9248 52.9973 74.9146 52.4683 75.9214 51.9819C78.2252 50.8727 80.5972 49.9427 82.9862 49.0553C83.3702 48.9102 83.7541 48.7737 84.1381 48.6372C84.2746 48.586 84.3344 48.5092 84.3344 48.3642C84.3344 47.3915 84.3429 46.4273 84.2405 45.4631C84.1722 44.8232 84.0698 44.1918 83.8907 43.5775C83.8053 43.2874 83.703 43.0058 83.575 42.7328C83.1569 41.8369 82.4913 41.1969 81.5869 40.8215C80.4265 40.3352 79.2234 40.2754 78.0204 40.6167C76.8088 40.9666 76.0067 41.7771 75.5972 42.9717C75.4948 43.2874 75.4521 43.6116 75.4606 43.9358C75.4777 44.4648 75.5033 45.0024 75.5204 45.5314C75.5289 45.9154 75.4862 46.2908 75.3924 46.6662C75.1705 47.545 74.4965 48.3642 73.2508 48.5348C72.9009 48.586 72.5426 48.586 72.1927 48.5177C71.2627 48.3215 70.6313 47.7584 70.2985 46.8795C70.0852 46.3249 70.0426 45.7362 70.0938 45.1474C70.1876 44.0894 70.5716 43.1338 71.203 42.2806C72.406 40.6594 73.976 39.5587 75.9043 38.97C76.7405 38.714 77.5937 38.5519 78.4726 38.458C79.5733 38.3386 80.6825 38.3386 81.7832 38.4068C83.319 38.5007 84.8122 38.7993 86.22 39.4478C87.6705 40.1133 88.6688 41.2055 89.2661 42.673C89.4879 43.2191 89.5733 43.8079 89.633 44.3881C89.7695 45.5826 89.8036 46.7857 89.8036 47.9887C89.7951 49.8744 89.8036 51.7601 89.8036 53.6372C89.7866 53.6457 89.7866 53.6457 89.7951 53.6457ZM84.3429 55.9239C84.3429 54.3283 84.3429 52.7328 84.3429 51.1372C84.3429 51.0177 84.3429 50.8898 84.3344 50.7703C84.3344 50.6935 84.2661 50.6508 84.1893 50.6764C84.121 50.6935 84.0613 50.7191 84.0016 50.7447C82.5852 51.3164 81.1774 51.9051 79.7866 52.5365C78.8651 52.9546 77.9862 53.4495 77.1671 54.0382C76.6467 54.4136 76.1518 54.8232 75.7081 55.2925C75.0596 55.9836 74.5903 56.7686 74.3429 57.6816C74.1296 58.458 74.104 59.2345 74.2064 60.0365C74.3941 61.4017 74.9999 62.5194 76.075 63.3727C76.9538 64.0723 77.9521 64.3283 79.0699 64.1235C79.6927 64.0126 80.2729 63.7908 80.8446 63.5092C82.0562 62.9205 83.1313 62.1269 84.1808 61.2993C84.3002 61.2054 84.3599 61.1031 84.3514 60.9495C84.3429 60.8556 84.3514 60.7618 84.3514 60.6594C84.3429 59.0894 84.3429 57.5109 84.3429 55.9239Z" fill="white"/>
<path d="M171.715 55.412C171.971 55.5485 172.141 55.7618 172.346 55.941C172.406 55.9922 172.38 56.069 172.372 56.1372C172.312 56.6406 172.21 57.1355 172.09 57.6219C171.433 60.3096 170.153 62.6475 168.208 64.6184C166.715 66.1287 164.923 67.0843 162.824 67.4427C161.919 67.5962 161.007 67.6389 160.094 67.5792C158.925 67.5024 157.798 67.272 156.706 66.8539C155.273 66.3079 154.018 65.4717 152.892 64.4307C150.93 62.6133 149.701 60.3693 149.087 57.784C148.856 56.8284 148.728 55.8557 148.652 54.8744C148.566 53.697 148.583 52.528 148.677 51.3591C148.839 49.3881 149.24 47.4683 150.077 45.668C151.356 42.9035 153.37 40.8471 156.117 39.5246C157.312 38.953 158.575 38.6287 159.88 38.4666C160.819 38.3557 161.766 38.3386 162.704 38.4154C167.483 38.7994 170.537 41.9478 171.689 45.3523C172.065 46.4529 172.286 47.5877 172.355 48.7567C172.372 49.0553 172.397 49.354 172.406 49.6526C172.414 49.9256 172.406 49.9342 172.141 49.9427C172.03 49.9427 171.919 49.9427 171.817 49.9427C165.853 49.9427 159.889 49.9427 153.925 49.9427C153.788 49.9427 153.652 49.9427 153.515 49.9427C153.413 49.9427 153.37 50.0024 153.37 50.1048C153.37 50.1731 153.37 50.2413 153.37 50.3096C153.413 51.598 153.524 52.8693 153.839 54.1236C154.53 56.8625 156.032 59.0297 158.37 60.6082C159.616 61.4444 160.981 61.9478 162.483 62.1014C163.959 62.255 165.392 62.127 166.792 61.598C168.08 61.1116 169.129 60.3266 169.906 59.1748C170.469 58.3471 170.913 57.4597 171.288 56.5297C171.408 56.2396 171.51 55.941 171.621 55.6509C171.638 55.5741 171.681 55.5058 171.715 55.412ZM159.829 47.8864C161.809 47.8864 163.788 47.8864 165.768 47.8864C165.887 47.8864 166.015 47.8864 166.135 47.8778C166.211 47.8778 166.262 47.8352 166.271 47.7584C166.271 47.7072 166.271 47.6475 166.271 47.5963C166.203 46.9052 166.152 46.214 166.032 45.5229C165.896 44.7038 165.648 43.9359 165.187 43.2362C164.838 42.7072 164.437 42.2294 163.942 41.8284C162.261 40.4547 160.375 40.0536 158.302 40.7192C157.056 41.1202 156.058 41.8966 155.23 42.8864C154.138 44.2004 153.626 45.7533 153.421 47.4171C153.361 47.9034 153.327 47.8778 153.848 47.8778C155.844 47.8864 157.832 47.8864 159.829 47.8864Z" fill="white"/>
<path d="M0.264526 36.2992C0.332785 36.2736 0.366915 36.3078 0.392512 36.3334C0.742341 36.6405 1.16043 36.7941 1.59558 36.9221C2.26964 37.1098 2.96077 37.1951 3.65189 37.2634C4.8379 37.3743 6.0239 37.3572 7.20991 37.3317C8.00342 37.3146 8.7884 37.2463 9.58192 37.1951C10.0427 37.1695 10.5034 37.1269 10.9727 37.0927C11.4932 37.0501 12.0051 37.0074 12.5256 36.9648C12.6621 36.9562 12.7986 36.9477 12.9352 36.9392C13.9164 36.9136 14.8976 36.9136 15.8788 37.016C17.5853 37.2037 19.2406 37.6047 20.7679 38.4153C23.2252 39.7122 24.8976 41.6832 25.7764 44.3112C25.8276 44.4647 25.8703 44.6269 25.913 44.7804C25.9897 45.0449 26.0324 45.3095 26.1348 45.5654C26.2031 45.7275 26.2457 45.9067 26.2201 46.0859C26.2031 46.2395 26.0921 46.3333 25.9385 46.2992C25.7935 46.2651 25.657 46.1968 25.529 46.12C25.2218 45.9409 24.9403 45.719 24.6758 45.4886C24.3003 45.1559 23.9164 44.8231 23.558 44.4647C22.4317 43.3385 21.0665 42.7327 19.488 42.5705C18.5921 42.4767 17.6962 42.4938 16.7918 42.562C15.5375 42.6559 14.3003 42.8351 13.0546 42.9716C12.2526 43.0569 11.4505 43.1337 10.6485 43.1849C9.77816 43.2446 8.89933 43.2531 8.02902 43.2275C7.38909 43.2105 6.74916 43.1508 6.11776 43.0228C4.00172 42.5876 2.40616 41.4272 1.33108 39.5586C0.8106 38.6542 0.477835 37.6729 0.273057 36.6491C0.24746 36.5211 0.213331 36.4016 0.264526 36.2992Z" fill="#36AEBE"/>
<path d="M4.87201 23.9784C5.29009 24.5586 5.87883 24.8999 6.49316 25.1985C7.32081 25.591 8.19111 25.8726 9.06995 26.1115C10.4778 26.4955 11.9027 26.7856 13.3447 27.033C14.2577 27.1866 15.1792 27.3316 16.0836 27.5108C17.7218 27.8436 19.2918 28.3982 20.7252 29.2685C22.4658 30.3265 23.7969 31.7514 24.5989 33.6371C25.1109 34.8487 25.3669 36.1029 25.3327 37.4255C25.3242 37.6814 25.3071 37.946 25.3498 38.2019C25.3754 38.3555 25.3327 38.5006 25.2986 38.6456C25.2559 38.7992 25.1194 38.8504 24.9744 38.7736C24.8549 38.7139 24.744 38.62 24.6587 38.5176C24.5136 38.3384 24.36 38.1593 24.232 37.9715C23.9675 37.5705 23.7201 37.1695 23.4641 36.7599C23.3447 36.5637 23.2338 36.3589 23.0972 36.1712C22.5 35.2924 21.7065 34.6524 20.7338 34.2173C19.9573 33.8675 19.1382 33.6627 18.302 33.5091C17.5 33.3555 16.6894 33.2617 15.8703 33.1593C14.4624 32.9886 13.0546 32.818 11.6723 32.5108C10.8106 32.3231 9.94879 32.1012 9.12115 31.777C8.23378 31.4272 7.44026 30.9408 6.7662 30.2582C5.90443 29.3879 5.37542 28.347 5.06825 27.178C4.80375 26.12 4.77815 25.0535 4.87201 23.9784Z" fill="#45B09A"/>
<path d="M10.1962 16.5469C10.5119 17.1441 10.9897 17.4769 11.5017 17.7755C12.1842 18.1766 12.918 18.4752 13.6604 18.7482C15.1109 19.2772 16.5955 19.6868 18.0887 20.0537C19.2576 20.3353 20.401 20.6936 21.4846 21.2141C22.6023 21.7516 23.6262 22.4172 24.488 23.3131C25.7252 24.5844 26.4675 26.1032 26.7149 27.8609C26.8259 28.6458 26.8344 29.4393 26.7149 30.2243C26.6979 30.3608 26.6979 30.4974 26.6979 30.6339C26.6979 30.7875 26.6723 30.9325 26.6125 31.0776C26.5614 31.2056 26.4248 31.2568 26.3139 31.1714C26.2286 31.1117 26.1433 31.0349 26.0835 30.9411C25.9385 30.7448 25.802 30.54 25.6825 30.3267C25.4863 29.9684 25.29 29.61 25.1279 29.2346C24.4965 27.7158 23.3446 26.7602 21.8344 26.1885C21.0068 25.8728 20.145 25.6595 19.2832 25.4547C18.1569 25.1902 17.0221 24.9598 15.9044 24.6356C15.0511 24.3882 14.215 24.0981 13.4044 23.7312C12.3378 23.2448 11.459 22.5366 10.8447 21.5213C10.4436 20.8557 10.2133 20.1305 10.0938 19.3711C9.94875 18.4752 9.97435 17.5793 10.145 16.6834C10.1621 16.6578 10.1706 16.6322 10.1962 16.5469Z" fill="#F3C302"/>
<path d="M16.8772 9.79761C17.099 10.3863 17.5086 10.7703 17.9438 11.1287C18.7714 11.8027 19.6929 12.3403 20.6315 12.8437C21.4591 13.2874 22.3038 13.7055 23.1656 14.0894C24.198 14.5587 25.1792 15.1218 26.0751 15.8215C27.1758 16.6833 28.0717 17.7157 28.6434 19.0126C29.07 19.9768 29.2577 20.9921 29.2236 22.0416C29.2065 22.5194 29.1553 22.9972 29.0274 23.458C28.9335 23.7993 28.8482 24.1406 28.7458 24.4819C28.7117 24.6099 28.6775 24.772 28.5239 24.7976C28.3618 24.8232 28.2936 24.6696 28.2338 24.5501C28.1485 24.3966 28.0717 24.2344 28.0205 24.0638C27.884 23.6628 27.739 23.2618 27.6451 22.8522C27.355 21.5979 26.6212 20.6764 25.5717 19.9682C24.8891 19.5075 24.1554 19.1577 23.4045 18.8249C22.5001 18.4153 21.5786 18.0314 20.6912 17.5877C19.9062 17.1952 19.1554 16.7686 18.4472 16.2481C17.9011 15.8471 17.4318 15.3778 17.082 14.7976C16.6639 14.1235 16.4421 13.3898 16.3994 12.5962C16.3567 11.7515 16.4676 10.941 16.7322 10.1389C16.7407 10.028 16.7663 9.91706 16.8772 9.79761Z" fill="#E25068"/>
<path d="M26.1262 3.98706C26.1091 4.54167 26.2883 4.95122 26.5016 5.34371C26.7661 5.83859 27.0904 6.29081 27.4317 6.7345C28.2508 7.80958 29.1723 8.79934 30.1108 9.77203C30.7422 10.4205 31.331 11.0946 31.8515 11.8369C32.4914 12.7584 33.0204 13.7481 33.2934 14.8403C33.7371 16.5724 33.4811 18.1935 32.4914 19.6867C32.2269 20.0877 31.8685 20.4119 31.5784 20.7874C31.5102 20.8727 31.4248 20.958 31.3054 20.9239C31.1859 20.8898 31.1518 20.7788 31.1347 20.6679C31.1006 20.4631 31.0665 20.2669 31.0835 20.0536C31.1091 19.6696 31.1177 19.2857 31.1774 18.9102C31.3054 18.0314 31.1603 17.2038 30.7678 16.4102C30.4948 15.8727 30.145 15.3864 29.761 14.9256C29.3088 14.3795 28.8054 13.8761 28.3105 13.3642C27.6706 12.7072 27.0306 12.0587 26.4419 11.3591C26.0323 10.8812 25.6484 10.3864 25.3071 9.85736C24.9487 9.31982 24.6928 8.73961 24.5733 8.09968C24.4624 7.51095 24.505 6.93074 24.6586 6.35907C24.8975 5.4717 25.401 4.72085 26.1262 3.98706Z" fill="#FF8002"/>
<path d="M35.9982 66.8453C35.8446 66.8112 35.7934 66.6746 35.7081 66.5723C35.0852 65.7617 34.4624 64.9511 33.8566 64.1235C32.4316 62.1781 31.0665 60.1815 29.8378 58.1081C28.976 56.6491 28.1825 55.1644 27.5767 53.5774C27.0136 52.0928 26.5784 50.5825 26.3224 49.0126C26.2883 48.7822 26.2542 48.5518 26.2286 48.3214C26.2201 48.2788 26.2286 48.2361 26.2286 48.1678C26.3651 48.2702 26.3992 48.4153 26.459 48.5347C27.2951 50.2668 28.191 51.9648 29.1467 53.6371C30.0938 55.2839 31.0921 56.888 32.2269 58.4153C32.9009 59.3282 33.6177 60.1985 34.4453 60.9835C34.6757 61.1968 34.9146 61.4016 35.1535 61.6064C35.8702 62.2293 36.3395 62.9886 36.4931 63.9272C36.5955 64.5501 36.5613 65.1815 36.4078 65.7958C36.3395 66.0603 36.2456 66.3163 36.1603 66.5723C36.1176 66.6661 36.0921 66.7685 35.9982 66.8453Z" fill="#35718F"/>
<path d="M37.3549 11.4787C37.3464 12.6988 37.1075 13.8592 36.5528 14.9513C36.2627 15.5145 35.8788 16.0094 35.4778 16.4872C35.4436 16.5298 35.401 16.564 35.3498 16.5896C35.2986 16.6152 35.2389 16.5981 35.2133 16.5469C35.1365 16.4019 35.1621 16.2568 35.1877 16.1032C35.2559 15.6339 35.3412 15.1647 35.4522 14.6954C35.5631 14.2602 35.6313 13.808 35.6143 13.3558C35.5972 12.8012 35.5034 12.2466 35.3327 11.709C35.1535 11.1459 34.9317 10.6083 34.6757 10.0793C34.2662 9.21757 33.8566 8.35579 33.4641 7.48549C33.1655 6.81143 32.918 6.1203 32.7559 5.39505C32.4488 3.99573 32.7047 2.69027 33.4385 1.47014C33.6092 1.18857 33.7969 0.924063 34.0187 0.685155C34.0358 0.668091 34.0699 0.668091 34.0955 0.668091C34.1296 0.668091 34.1467 0.685156 34.1467 0.719285C34.1467 0.73635 34.1552 0.744882 34.1552 0.761947C34.1211 1.55546 34.3685 2.29778 34.6245 3.03157C34.9658 4.02133 35.3924 4.98549 35.8532 5.93259C36.2201 6.69197 36.5784 7.45989 36.8259 8.27047C37.1501 9.31142 37.3634 10.378 37.3549 11.4787Z" fill="#8A8A8A"/>
<path d="M38.7883 13.1594C38.7286 13.168 38.6689 13.0912 38.6689 13.0229C38.6689 12.8949 38.7286 12.784 38.7969 12.6816C39.0016 12.3574 39.2064 12.0417 39.4197 11.7175C39.5563 11.5127 39.6842 11.3079 39.7952 11.0861C39.9829 10.6936 40.0853 10.2755 40.1621 9.84033C40.2474 9.36252 40.2218 8.89324 40.2303 8.41542C40.2303 8.22771 40.2474 8.03146 40.1706 7.85228C40.1621 7.82669 40.1535 7.80109 40.1621 7.77549C40.1962 7.27208 40.0511 6.7772 40.0682 6.26526C40.0767 6.08607 40.0426 5.91543 40.0255 5.73625C39.9829 5.25843 39.9658 4.78915 40.0341 4.31133C40.0511 4.21748 40.0682 4.12362 40.0682 4.02976C40.0938 3.04854 40.4692 2.20383 41.0921 1.47004C41.4419 1.06048 41.9027 0.787448 42.3634 0.522943C42.3975 0.505878 42.4402 0.497346 42.4829 0.488813C42.5341 0.471749 42.5938 0.531475 42.5853 0.58267C42.5597 0.676526 42.5255 0.76185 42.4999 0.855707C42.3719 1.29939 42.2866 1.75161 42.2866 2.22089C42.2866 2.74137 42.2781 3.26185 42.2866 3.77379C42.2866 4.08949 42.2696 4.39666 42.3549 4.71236C42.389 4.85741 42.3634 5.01099 42.3719 5.16457C42.3805 5.37788 42.3634 5.59973 42.4317 5.81304C42.4573 5.89836 42.4487 6.00075 42.4487 6.09461C42.4487 6.35058 42.4487 6.61508 42.4487 6.87106C42.4402 7.97174 42.2696 9.03829 41.86 10.0622C41.5443 10.8642 41.075 11.5895 40.4436 12.1867C39.9914 12.6134 39.4453 12.8949 38.8907 13.1509C38.8395 13.1594 38.8139 13.1594 38.7883 13.1594Z" fill="#CDCDCD"/>
<path d="M153.251 87.6559C153.336 87.7668 153.464 87.7924 153.575 87.8436C154.368 88.2702 154.786 89.149 154.531 90.1473C154.403 90.6251 154.087 90.9494 153.66 91.1797C153.157 91.4443 152.602 91.5296 152.039 91.5466C151.578 91.5552 151.109 91.5466 150.648 91.5466C150.153 91.5466 149.667 91.5466 149.172 91.5466C148.728 91.5466 148.763 91.5722 148.763 91.12C148.763 91.0944 148.763 91.0688 148.763 91.0347C148.763 88.8419 148.763 86.649 148.763 84.4477C148.763 84.3368 148.763 84.2258 148.763 84.1234C148.763 84.0466 148.805 83.9955 148.882 83.9869C148.933 83.9784 148.993 83.9784 149.044 83.9784C150 83.9784 150.955 83.9784 151.911 83.9784C152.363 83.9784 152.807 84.0552 153.217 84.26C153.763 84.5245 154.138 84.9255 154.275 85.5313C154.479 86.4443 154.138 87.1695 153.421 87.5449C153.362 87.5791 153.31 87.6217 153.251 87.6559ZM150.887 90.9835C151.297 90.9835 151.706 90.992 152.116 90.975C152.517 90.9664 152.901 90.8982 153.268 90.7275C153.652 90.5483 153.916 90.2753 153.993 89.8487C154.121 89.1234 153.805 88.5176 153.14 88.2019C152.798 88.0398 152.44 87.9716 152.065 87.963C151.228 87.9545 150.401 87.9545 149.565 87.9545C149.368 87.9545 149.343 87.9801 149.343 88.1593C149.343 89.0296 149.343 89.9084 149.343 90.7787C149.343 90.9408 149.377 90.9664 149.539 90.975C149.991 90.9835 150.443 90.9835 150.887 90.9835ZM150.921 87.4084C150.921 87.3999 150.921 87.3999 150.921 87.3914C151.382 87.3914 151.851 87.3999 152.312 87.3914C152.619 87.3828 152.901 87.2975 153.174 87.1524C153.464 86.9903 153.669 86.76 153.737 86.4357C153.874 85.7446 153.686 85.1217 152.978 84.7463C152.679 84.5927 152.372 84.5074 152.039 84.5074C151.723 84.4989 151.408 84.4989 151.1 84.4989C150.597 84.4989 150.094 84.4989 149.582 84.4989C149.385 84.4989 149.351 84.5245 149.351 84.7036C149.351 85.5398 149.351 86.3675 149.351 87.2036C149.351 87.3828 149.385 87.4084 149.573 87.4084C150.017 87.4084 150.469 87.4084 150.921 87.4084Z" fill="white"/>
<path d="M74.1808 87.7924C74.1808 86.6746 74.1808 85.5569 74.1808 84.4306C74.1808 84.3197 74.1808 84.2088 74.1893 84.1064C74.1893 84.0467 74.2234 84.004 74.2917 83.9955C74.3429 83.9869 74.4026 83.9869 74.4538 83.9869C75.2473 83.9869 76.0408 83.9869 76.8258 83.9869C77.1927 83.9869 77.5596 84.0296 77.918 84.132C79.0954 84.4647 79.8975 85.1985 80.3156 86.3504C80.6654 87.3231 80.6654 88.3043 80.29 89.277C79.8122 90.4972 78.9077 91.2139 77.6364 91.4699C77.3292 91.5296 77.0135 91.5552 76.6978 91.5552C75.9896 91.5467 75.2815 91.5552 74.5647 91.5552C74.4794 91.5552 74.4026 91.5552 74.3173 91.5552C74.2149 91.5552 74.1722 91.4869 74.1722 91.4016C74.1722 91.2907 74.1722 91.1798 74.1722 91.0774C74.1808 89.9767 74.1808 88.8845 74.1808 87.7924ZM74.778 87.7412C74.778 88.4921 74.778 89.2429 74.778 89.9938C74.778 90.2497 74.778 90.5142 74.778 90.7702C74.778 90.9579 74.8036 90.9835 74.9914 90.9835C75.5801 90.9835 76.1688 90.9835 76.749 90.9835C77.0221 90.9835 77.2951 90.9579 77.5596 90.8982C78.4811 90.6934 79.1808 90.19 79.5989 89.3368C80.0937 88.3385 80.1108 87.306 79.6586 86.2907C79.2832 85.446 78.6176 84.9084 77.7217 84.661C77.389 84.5757 77.0477 84.5415 76.7064 84.533C76.1859 84.533 75.6654 84.533 75.1535 84.533C75.0681 84.533 74.9914 84.533 74.906 84.5415C74.8292 84.5501 74.778 84.5927 74.778 84.6695C74.7695 84.7805 74.7695 84.8914 74.7695 84.9938C74.778 85.9153 74.778 86.8282 74.778 87.7412Z" fill="white"/>
<path d="M38.6178 90.0621C38.669 89.9767 38.7458 89.9426 38.814 89.9085C39.1041 89.7634 39.0871 89.7634 39.2662 90.0109C39.6843 90.5911 40.2901 90.8897 40.9727 91.0518C41.6126 91.2054 42.244 91.1457 42.8754 90.975C43.1229 90.9068 43.3618 90.7958 43.5666 90.6337C44.0785 90.2242 44.1468 89.6781 44.0358 89.2003C43.9676 88.9102 43.7799 88.6969 43.5324 88.5348C43.3021 88.3812 43.0461 88.2873 42.7901 88.202C42.3038 88.0569 41.8089 87.9716 41.314 87.8692C40.8959 87.7839 40.4864 87.6986 40.0853 87.545C39.8379 87.4511 39.6075 87.3402 39.4028 87.1866C39.0359 86.9051 38.8396 86.5296 38.8225 86.0689C38.7884 85.2583 39.1382 84.6781 39.8379 84.3027C40.1024 84.1576 40.384 84.0638 40.6826 83.9955C41.4249 83.8334 42.1758 83.8334 42.9096 84.0211C43.5154 84.1747 43.9932 84.5331 44.3515 85.0365C44.4283 85.1474 44.4198 85.1901 44.3004 85.2668C44.2321 85.3095 44.1638 85.3522 44.087 85.3948C44.0188 85.429 43.9591 85.429 43.9079 85.3692C43.8908 85.3522 43.8737 85.3266 43.8567 85.301C43.4983 84.8317 43.012 84.5928 42.4318 84.4989C41.8004 84.3965 41.1775 84.4136 40.5717 84.6099C40.3328 84.6866 40.1109 84.789 39.9147 84.9426C39.6758 85.1218 39.5222 85.3522 39.4454 85.6423C39.3089 86.1542 39.4795 86.5979 39.9318 86.8709C40.2304 87.0501 40.5546 87.1525 40.8874 87.2208C41.4164 87.3402 41.9539 87.4341 42.4915 87.5535C42.7731 87.6133 43.0461 87.6986 43.3191 87.7839C43.558 87.8607 43.7713 87.9716 43.9761 88.1167C44.3771 88.3982 44.6075 88.7907 44.6587 89.2771C44.6843 89.5501 44.6843 89.8232 44.6161 90.0877C44.4881 90.5911 44.1809 90.958 43.7287 91.2139C43.3789 91.4187 43.0034 91.5296 42.6109 91.5979C41.7748 91.7344 40.9556 91.7088 40.1536 91.3931C39.5563 91.1542 39.0529 90.7959 38.7031 90.2412C38.669 90.1815 38.6434 90.1218 38.6178 90.0621Z" fill="white"/>
<path d="M45.9641 91.5211C45.9044 91.4187 45.93 91.3078 45.93 91.1968C45.93 89.6525 45.93 88.1166 45.93 86.5723C45.93 86.5211 45.93 86.4614 45.93 86.4102C45.9385 86.2566 45.9641 86.231 46.1262 86.231C46.1518 86.231 46.1774 86.231 46.2115 86.231C46.3992 86.2395 46.4334 86.2566 46.4334 86.4358C46.4419 86.5979 46.4334 86.76 46.4334 86.9648C46.6296 86.8624 46.7064 86.6832 46.8344 86.5808C46.988 86.4614 47.1416 86.3504 47.3207 86.2822C47.4828 86.2139 47.6535 86.1627 47.8327 86.1457C48.0204 86.1286 48.2166 86.1201 48.4044 86.1371C48.5835 86.1542 48.7542 86.1883 48.9248 86.2395C49.0955 86.2992 49.2576 86.3675 49.4026 86.4699C49.5648 86.5723 49.7098 86.7003 49.8207 86.8538C49.9231 86.9989 50.0084 87.1525 50.1023 87.2975C50.1962 87.3061 50.2132 87.2293 50.2388 87.1781C50.9299 85.9494 52.534 85.8982 53.4214 86.5125C53.9334 86.8709 54.2149 87.3658 54.3002 87.9801C54.3258 88.1252 54.3258 88.2788 54.3258 88.4323C54.3258 89.3624 54.3258 90.2839 54.3258 91.2139C54.3258 91.3248 54.3429 91.4357 54.2832 91.5296C54.2576 91.5381 54.232 91.5552 54.2064 91.5552C53.7798 91.5723 53.7968 91.5893 53.7968 91.1712C53.7968 90.2839 53.7968 89.3965 53.7968 88.5091C53.7968 88.2788 53.7798 88.0484 53.72 87.818C53.5409 87.1525 52.9948 86.7003 52.3037 86.6405C51.988 86.6149 51.6723 86.632 51.3822 86.7685C50.7422 87.0586 50.4521 87.5791 50.3839 88.2532C50.3753 88.3726 50.3753 88.5006 50.3753 88.6201C50.3753 89.4562 50.3753 90.2839 50.3753 91.12C50.3753 91.231 50.3753 91.3419 50.3668 91.4443C50.3668 91.504 50.3327 91.5467 50.2644 91.5467C50.1535 91.5467 50.0426 91.5552 49.9402 91.5381C49.9146 91.5381 49.8719 91.4869 49.8634 91.4613C49.8463 91.3504 49.8463 91.248 49.8463 91.1371C49.8463 90.2753 49.8463 89.4136 49.8463 88.5603C49.8463 88.3555 49.8293 88.1508 49.7866 87.946C49.633 87.2037 49.0187 86.6832 48.2593 86.6405C47.3293 86.5808 46.5187 87.161 46.4419 88.2702C46.4334 88.3897 46.4334 88.5177 46.4334 88.6371C46.4334 89.4562 46.4334 90.2753 46.4334 91.0945C46.4334 91.2054 46.4334 91.3163 46.4248 91.4187C46.4248 91.4955 46.3822 91.5467 46.2968 91.5467C46.203 91.5467 46.075 91.5808 45.9641 91.5211Z" fill="white"/>
<path d="M44.1381 8.87615C44.121 8.85055 44.0954 8.82495 44.104 8.80789C44.1296 8.7311 44.1552 8.65431 44.1978 8.58605C44.3429 8.37274 44.4879 8.1509 44.6586 7.96318C45.1705 7.40004 45.4606 6.73452 45.6142 6.00926C45.691 5.64237 45.7251 5.25841 45.7934 4.88298C45.8787 4.3881 45.9214 3.89322 46.0152 3.39834C46.1005 2.94612 46.1944 2.49391 46.3394 2.05875C46.604 1.26524 47.0903 0.650907 47.7814 0.181624C47.8753 0.121897 47.9691 0.0792349 48.0715 0.0280404C48.1227 0.0024432 48.1739 -0.0231542 48.2166 0.0365727C48.2507 0.0877672 48.2422 0.138962 48.2166 0.190156C47.9009 0.80449 47.8156 1.47855 47.679 2.14408C47.5596 2.69868 47.5084 3.27036 47.4231 3.8335C47.2951 4.68674 47.0732 5.51438 46.7234 6.29083C46.3224 7.1782 45.7422 7.92052 44.9401 8.48366C44.7183 8.64578 44.4623 8.73963 44.2149 8.85909C44.1978 8.88468 44.1637 8.87615 44.1381 8.87615Z" fill="#CDCDCD"/>
<path d="M128.831 87.7583C128.831 86.649 128.831 85.5484 128.831 84.4392C128.831 84.3538 128.831 84.277 128.831 84.1917C128.839 84.0125 128.857 83.9955 129.053 83.9869C129.095 83.9869 129.138 83.9869 129.172 83.9869C130.631 83.9869 132.09 83.9869 133.549 83.9869C133.916 83.9869 133.916 83.9955 133.908 84.3538C133.908 84.3965 133.908 84.4392 133.899 84.4733C133.891 84.533 133.848 84.5671 133.788 84.5757C133.677 84.5842 133.566 84.5842 133.464 84.5842C132.235 84.5842 131.007 84.5842 129.778 84.5842C129.403 84.5842 129.411 84.5757 129.411 84.934C129.411 85.702 129.411 86.4613 129.411 87.2293C129.411 87.2975 129.411 87.3658 129.411 87.434C129.411 87.5279 129.454 87.5876 129.556 87.5962C129.667 87.6047 129.778 87.6047 129.88 87.6047C130.998 87.6047 132.116 87.6047 133.234 87.6047C133.345 87.6047 133.455 87.6047 133.558 87.6047C133.72 87.6132 133.737 87.6303 133.737 87.8095C133.737 87.8607 133.737 87.9204 133.737 87.9716C133.729 88.1166 133.711 88.1422 133.575 88.1508C133.464 88.1593 133.353 88.1508 133.251 88.1508C132.09 88.1508 130.93 88.1508 129.769 88.1508C129.386 88.1508 129.394 88.1337 129.394 88.5347C129.394 89.3965 129.394 90.2497 129.394 91.1115C129.394 91.2224 129.394 91.3333 129.386 91.4357C129.386 91.4955 129.343 91.5381 129.283 91.5467C129.189 91.5552 129.095 91.5552 129.002 91.5552C128.839 91.5552 128.814 91.5296 128.814 91.3589C128.805 90.992 128.814 90.6252 128.814 90.2497C128.831 89.4221 128.831 88.5859 128.831 87.7583Z" fill="white"/>
<path d="M180.008 90.3265C180.153 90.3948 180.256 90.4801 180.35 90.591C180.358 90.7105 180.264 90.7617 180.205 90.8214C179.676 91.3419 179.01 91.5723 178.285 91.632C177.943 91.6576 177.602 91.6149 177.269 91.5211C176.186 91.2139 175.486 90.318 175.392 89.1491C175.35 88.5774 175.443 88.0313 175.725 87.5279C176.211 86.6661 176.962 86.2054 177.952 86.1457C178.438 86.1201 178.908 86.1883 179.351 86.3846C180.094 86.7173 180.529 87.289 180.691 88.074C180.751 88.3555 180.776 88.6371 180.751 88.9272C180.734 89.0893 180.699 89.1149 180.554 89.1235C180.443 89.1235 180.333 89.1235 180.23 89.1235C178.959 89.1235 177.696 89.1235 176.425 89.1235C176.331 89.1235 176.237 89.1235 176.135 89.1235C175.99 89.132 175.947 89.1832 175.972 89.3368C176.109 90.2241 176.809 90.9409 177.713 91.0603C178.566 91.1883 179.351 90.975 180.008 90.3265ZM178.037 88.6712C178.626 88.6712 179.215 88.6712 179.795 88.6712C179.889 88.6712 179.983 88.6712 180.085 88.6627C180.187 88.6542 180.23 88.6115 180.23 88.5091C180.205 87.8009 179.914 87.2378 179.275 86.905C178.609 86.5552 177.909 86.5211 177.218 86.8112C176.467 87.1183 176.083 87.7241 175.955 88.5006C175.938 88.6201 175.981 88.6712 176.118 88.6712C176.211 88.6712 176.305 88.6712 176.408 88.6712C176.945 88.6712 177.491 88.6712 178.037 88.6712Z" fill="white"/>
<path d="M60.3924 87.1952C60.3924 86.9136 60.3924 86.6491 60.3924 86.3932C60.3924 86.2652 60.435 86.231 60.5716 86.2225C60.9385 86.214 60.9385 86.2054 60.9385 86.5723C60.9385 88.1167 60.9385 89.6611 60.9385 91.1969C60.9385 91.2481 60.9385 91.3078 60.9385 91.359C60.9299 91.5126 60.9043 91.5382 60.7337 91.5467C60.6654 91.5467 60.5972 91.5467 60.5289 91.5467C60.4521 91.5382 60.4009 91.4955 60.4009 91.4187C60.3924 91.3078 60.3924 91.1969 60.3924 91.0945C60.3924 90.9324 60.3924 90.7703 60.3924 90.6167C60.2388 90.5826 60.2132 90.702 60.1535 90.7618C59.0869 92.016 57.1415 91.8539 56.1774 90.7191C55.8702 90.3607 55.6654 89.9426 55.5801 89.4819C55.4607 88.8505 55.5118 88.2276 55.7934 87.6474C56.5101 86.1457 58.4299 85.7618 59.6757 86.5979C59.8548 86.7174 60.017 86.871 60.162 87.0331C60.2132 87.0843 60.2473 87.1696 60.3924 87.1952ZM58.2252 91.103C59.7098 91.1116 60.435 90.0194 60.4521 88.9017C60.4606 87.6133 59.5391 86.6662 58.2508 86.6747C57.0221 86.6833 56.075 87.528 56.075 88.8846C56.0579 90.2839 57.0733 91.103 58.2252 91.103Z" fill="white"/>
<path d="M124.036 90.6338C123.908 90.8386 123.72 91.0007 123.515 91.1287C122.713 91.6321 121.843 91.7857 120.93 91.5041C119.889 91.1884 119.292 90.4631 119.112 89.3966C119.019 88.8079 119.061 88.2277 119.334 87.6816C119.812 86.7174 120.597 86.2055 121.664 86.1457C121.962 86.1287 122.261 86.1543 122.56 86.2225C123.566 86.4614 124.317 87.1867 124.428 88.4239C124.428 88.4495 124.428 88.4751 124.428 88.5092C124.428 89.2345 124.522 89.1236 123.839 89.1321C122.56 89.1406 121.28 89.1321 119.991 89.1321C119.616 89.1321 119.59 89.1747 119.693 89.5416C119.915 90.3693 120.461 90.8983 121.297 91.0519C122.141 91.214 122.926 91.0348 123.575 90.4375C123.711 90.3181 123.72 90.3181 123.848 90.4205C123.916 90.4717 124.01 90.5143 124.036 90.6338ZM121.792 88.6713C122.449 88.6713 123.106 88.6713 123.754 88.6713C123.882 88.6713 123.925 88.6201 123.916 88.4922C123.848 87.6304 123.404 87.0331 122.679 86.7771C122.269 86.6321 121.851 86.598 121.425 86.6577C120.495 86.7771 119.778 87.5109 119.641 88.4324C119.633 88.4751 119.624 88.5178 119.633 88.5519C119.641 88.6116 119.676 88.6543 119.735 88.6628C119.829 88.6713 119.923 88.6713 120.025 88.6713C120.623 88.6713 121.203 88.6713 121.792 88.6713Z" fill="white"/>
<path d="M86.3565 87.2036C86.5101 86.8708 86.4162 86.5551 86.493 86.2565C86.5186 86.248 86.5272 86.2394 86.5442 86.2394C87.0562 86.1882 86.9964 86.2138 86.9964 86.6404C86.9964 88.1507 86.9964 89.6695 86.9964 91.1797C86.9964 91.5892 86.9964 91.5466 86.6125 91.5466C86.5101 91.5466 86.476 91.4783 86.476 91.3845C86.476 91.1626 86.476 90.9493 86.4674 90.7275C86.4674 90.6848 86.4589 90.6421 86.4418 90.608C86.4333 90.591 86.3821 90.5824 86.3736 90.591C86.3224 90.6336 86.2797 90.6848 86.2371 90.736C85.5118 91.5466 84.5988 91.794 83.5664 91.5124C82.5255 91.2309 81.8941 90.5227 81.6637 89.4732C81.5528 88.9869 81.5784 88.5005 81.7234 88.0142C82.1586 86.5637 83.5494 85.9835 84.7183 86.1626C85.3668 86.265 85.9043 86.5551 86.3053 87.0756C86.3224 87.1353 86.3395 87.1695 86.3565 87.2036ZM82.133 88.8503C82.0988 90.0875 82.9777 91.0602 84.2234 91.1029C85.2473 91.137 86.0579 90.608 86.3821 89.6865C86.5101 89.3367 86.5442 88.9698 86.493 88.6029C86.3906 87.8435 86.0323 87.2377 85.3241 86.8964C84.7695 86.6319 84.1978 86.6063 83.6091 86.777C82.7729 87.0244 82.1244 87.8179 82.133 88.8503Z" fill="white"/>
<path d="M97.0647 91.521C97.005 91.2992 97.0477 91.0688 97.0306 90.8384C97.0306 90.7872 97.0306 90.7275 97.0221 90.6763C97.0221 90.6507 97.005 90.6251 96.9794 90.6166C96.9623 90.608 96.9197 90.6166 96.9112 90.6251C96.86 90.6678 96.8173 90.7275 96.7746 90.7787C95.563 92.2121 93.0545 91.8196 92.3463 89.9425C92.1074 89.3282 92.0818 88.6882 92.2695 88.0568C92.6961 86.6149 94.0699 86.0176 95.2559 86.1882C95.8958 86.2821 96.4504 86.5637 96.8514 87.0927C96.86 87.1012 96.8685 87.1183 96.877 87.1268C96.9026 87.1524 96.9197 87.2036 96.9709 87.1865C97.0221 87.1695 97.0221 87.1268 97.0306 87.0927C97.0306 86.8708 97.0306 86.6575 97.0391 86.4357C97.0477 86.248 97.0647 86.2309 97.2524 86.2309C97.3207 86.2309 97.389 86.2309 97.4572 86.2394C97.5169 86.248 97.5511 86.2821 97.5596 86.3504C97.5681 86.4357 97.5681 86.5125 97.5681 86.5978C97.5681 88.1251 97.5681 89.6524 97.5681 91.1797C97.5681 91.248 97.5681 91.3162 97.5681 91.3845C97.5596 91.5295 97.534 91.5551 97.406 91.5637C97.2951 91.5551 97.1842 91.5722 97.0647 91.521ZM97.0647 88.893C97.0647 88.8077 97.0733 88.7309 97.0647 88.6456C96.9879 87.8521 96.5357 87.0415 95.5545 86.7599C95.3838 86.7087 95.2047 86.6831 95.034 86.6661C93.9077 86.5978 93.0545 87.2548 92.79 88.1848C92.7132 88.4664 92.6961 88.748 92.7047 89.0381C92.7388 90.079 93.5067 91.0261 94.7354 91.0944C95.7678 91.1541 96.604 90.6251 96.9367 89.6865C97.0306 89.4391 97.0818 89.1746 97.0647 88.893Z" fill="white"/>
<path d="M112.619 87.2208C112.705 87.0501 112.67 86.9136 112.679 86.7856C112.688 86.7174 112.679 86.6491 112.679 86.5808C112.679 86.1883 112.67 86.2139 113.072 86.2225C113.148 86.2225 113.199 86.2651 113.199 86.3419C113.199 86.4358 113.208 86.5296 113.208 86.632C113.208 88.1337 113.208 89.6354 113.208 91.1286C113.208 91.2225 113.208 91.3163 113.199 91.4187C113.199 91.4955 113.148 91.5382 113.072 91.5467C113.003 91.5467 112.935 91.5552 112.867 91.5467C112.713 91.5467 112.688 91.5211 112.679 91.3505C112.67 91.1201 112.67 90.8897 112.662 90.6593C112.662 90.6423 112.636 90.6167 112.619 90.5996C112.594 90.5825 112.568 90.5911 112.551 90.6167C112.508 90.6679 112.457 90.7191 112.415 90.7702C111.203 92.1866 108.703 91.8112 107.986 89.917C107.756 89.3027 107.73 88.6627 107.918 88.0313C108.345 86.5894 109.735 85.9921 110.904 86.1798C111.544 86.2822 112.09 86.5638 112.491 87.0928C112.525 87.1269 112.56 87.161 112.619 87.2208ZM108.345 88.8419C108.302 90.0962 109.189 91.0603 110.426 91.103C111.45 91.1371 112.261 90.6167 112.585 89.6952C112.713 89.3453 112.747 88.9784 112.705 88.6115C112.602 87.8351 112.235 87.2208 111.502 86.888C110.964 86.6406 110.401 86.615 109.829 86.7856C108.959 87.0331 108.336 87.8351 108.345 88.8419Z" fill="white"/>
<path d="M140.23 88.8932C140.247 89.6185 140.051 90.2755 139.548 90.8045C138.891 91.5042 138.054 91.7175 137.124 91.6066C136.587 91.5383 136.1 91.3335 135.691 90.9666C135.179 90.5059 134.923 89.9171 134.846 89.2431C134.795 88.7738 134.838 88.313 135 87.8694C135.35 86.9137 136.032 86.3506 137.022 86.1629C137.397 86.0861 137.781 86.0946 138.157 86.1799C139.445 86.4615 140.128 87.4683 140.23 88.5605C140.239 88.6714 140.23 88.7823 140.23 88.8932ZM137.551 86.6322C136.723 86.598 135.742 87.0844 135.443 88.2363C135.333 88.6629 135.324 89.1066 135.435 89.5332C135.631 90.2755 136.092 90.7789 136.834 91.0093C137.312 91.1629 137.807 91.1543 138.285 91.0007C139.036 90.7533 139.488 90.2328 139.667 89.4734C139.752 89.1236 139.744 88.7738 139.684 88.4154C139.471 87.2636 138.515 86.6066 137.551 86.6322Z" fill="white"/>
<path d="M115.171 88.987C115.171 89.6013 115.171 90.1304 115.171 90.6679C115.171 90.8215 115.171 90.9665 115.171 91.1201C115.162 91.5211 115.264 91.615 114.693 91.5297C114.624 91.4273 114.65 91.3164 114.65 91.214C114.65 88.9187 114.65 86.6321 114.65 84.3368C114.65 84.2686 114.65 84.2003 114.65 84.1321C114.65 84.0553 114.701 84.0041 114.778 84.0041C114.846 83.9955 114.915 83.9955 114.983 84.0041C115.136 84.0126 115.171 84.0382 115.171 84.2003C115.171 84.9341 115.171 85.6764 115.171 86.4102C115.171 87.0502 115.171 87.6901 115.171 88.3385C115.171 88.3727 115.162 88.4239 115.222 88.4409C115.264 88.458 115.299 88.4324 115.333 88.4068C115.785 87.9887 116.237 87.5706 116.689 87.1525C116.954 86.9136 117.218 86.6747 117.466 86.4273C117.611 86.2737 117.773 86.214 117.978 86.2396C118.08 86.2481 118.191 86.2396 118.293 86.2396C118.302 86.2822 118.31 86.2908 118.31 86.3078C118.31 86.3164 118.302 86.3334 118.293 86.342C117.449 87.1355 116.595 87.9205 115.751 88.714C115.759 88.8505 115.87 88.9017 115.938 88.9699C116.758 89.7293 117.577 90.4887 118.404 91.2566C118.49 91.3334 118.601 91.4017 118.643 91.5553C118.447 91.5894 118.259 91.5809 118.08 91.5638C117.961 91.5553 117.901 91.4529 117.816 91.3761C117.167 90.7873 116.527 90.1986 115.879 89.6099C115.717 89.4648 115.554 89.3112 115.392 89.1662C115.341 89.1065 115.281 89.0723 115.171 88.987Z" fill="white"/>
<path d="M166.015 86.8453C165.998 86.8709 165.998 86.8965 165.981 86.9221C165.725 87.2037 165.759 87.2122 165.469 86.9989C165.256 86.8453 165.017 86.7514 164.761 86.7002C164.283 86.6064 163.814 86.6064 163.344 86.7258C163.131 86.777 162.926 86.8624 162.764 87.0074C162.372 87.3487 162.397 87.9033 162.833 88.1934C163.029 88.3214 163.251 88.3982 163.472 88.4494C163.891 88.5347 164.3 88.6115 164.718 88.6883C165 88.7395 165.273 88.8248 165.537 88.9357C166.612 89.405 166.433 90.7617 165.725 91.2139C165.409 91.4187 165.06 91.5296 164.693 91.5893C164.061 91.6917 163.438 91.632 162.841 91.4016C162.457 91.248 162.116 91.0262 161.86 90.6934C161.8 90.6166 161.783 90.5484 161.868 90.4801C161.962 90.4033 162.031 90.3009 162.159 90.2583C162.184 90.2753 162.21 90.2839 162.227 90.3009C162.943 91.0944 163.856 91.2224 164.846 91.0347C165.034 91.0006 165.213 90.9238 165.367 90.8129C165.606 90.6422 165.742 90.4204 165.751 90.1217C165.759 89.8572 165.665 89.6439 165.452 89.4818C165.298 89.3709 165.119 89.3026 164.932 89.2429C164.565 89.132 164.181 89.0893 163.814 89.0211C163.558 88.9699 163.302 88.9187 163.054 88.8504C162.909 88.8163 162.773 88.748 162.636 88.6883C161.766 88.2787 161.817 87.2207 162.312 86.7173C162.449 86.5808 162.602 86.4613 162.781 86.3931C163.78 86.0006 164.752 86.0262 165.691 86.5637C165.81 86.632 165.938 86.7088 166.015 86.8453Z" fill="white"/>
<path d="M187.534 90.2327C187.721 90.446 187.892 90.6166 188.105 90.7446C188.575 91.0347 189.087 91.1371 189.633 91.1115C189.889 91.103 190.153 91.0689 190.392 90.9835C190.563 90.9238 190.716 90.8385 190.853 90.7276C191.186 90.446 191.305 89.7293 190.708 89.4136C190.392 89.2429 190.042 89.1832 189.692 89.1149C189.368 89.0552 189.044 89.004 188.728 88.9358C188.472 88.8846 188.225 88.7992 187.995 88.6883C187.141 88.2617 187.201 87.2293 187.67 86.7429C187.824 86.5808 187.995 86.4528 188.208 86.376C189.138 86.0262 190.051 86.0433 190.938 86.4955C191.024 86.5382 191.109 86.5893 191.177 86.6491C191.254 86.7173 191.399 86.76 191.382 86.8795C191.365 86.9989 191.245 87.0757 191.143 87.1525C191.126 87.1695 191.092 87.1695 191.066 87.161C191.032 87.1439 190.998 87.1184 190.964 87.1013C190.239 86.5808 189.437 86.5723 188.617 86.7685C188.447 86.8112 188.293 86.8965 188.148 87.0074C187.764 87.3146 187.739 87.9289 188.208 88.219C188.396 88.3385 188.6 88.4153 188.814 88.4579C189.232 88.5433 189.641 88.6201 190.059 88.6968C190.341 88.748 190.614 88.8248 190.878 88.9443C191.322 89.1491 191.612 89.4648 191.655 89.9596C191.698 90.5057 191.51 90.9494 191.041 91.2566C190.725 91.4613 190.375 91.5552 190 91.6064C189.309 91.7003 188.643 91.6235 188.003 91.3163C187.704 91.1713 187.448 90.975 187.235 90.7105C187.15 90.5996 187.15 90.5569 187.244 90.4716C187.338 90.3948 187.423 90.3265 187.534 90.2327Z" fill="white"/>
<path d="M160.102 90.7276C160.059 90.7873 160.034 90.8215 160.008 90.8556C159.454 91.5126 158.728 91.6918 157.909 91.615C157.764 91.5979 157.611 91.5638 157.466 91.5297C156.544 91.2737 155.955 90.5399 155.879 89.5672C155.87 89.4307 155.87 89.2942 155.87 89.1576C155.87 88.3129 155.87 87.4682 155.87 86.6235C155.87 86.5297 155.87 86.4358 155.87 86.3334C155.87 86.2481 155.921 86.214 155.998 86.2054C156.049 86.2054 156.109 86.1969 156.16 86.1969C156.373 86.1969 156.391 86.214 156.391 86.4358C156.391 87.3061 156.391 88.185 156.391 89.0553C156.391 89.26 156.399 89.4648 156.433 89.6696C156.536 90.3778 156.928 90.8385 157.619 91.0262C158.003 91.1372 158.404 91.1372 158.797 91.0433C159.513 90.8641 160.042 90.2498 160.128 89.4989C160.145 89.3368 160.145 89.1747 160.145 89.0126C160.145 88.2361 160.145 87.4597 160.145 86.6832C160.145 86.5894 160.145 86.4955 160.145 86.3931C160.153 86.2396 160.179 86.214 160.341 86.2054C160.409 86.2054 160.478 86.2054 160.546 86.2054C160.648 86.214 160.691 86.2652 160.682 86.3675C160.682 86.4187 160.682 86.4785 160.682 86.5297C160.682 88.0826 160.682 89.6355 160.682 91.1969C160.682 91.5808 160.691 91.5638 160.29 91.5552C160.213 91.5552 160.162 91.5041 160.162 91.4273C160.153 91.3163 160.162 91.2054 160.153 91.103C160.162 90.9921 160.196 90.8812 160.102 90.7276Z" fill="white"/>
<path d="M169.479 88.876C169.479 88.1422 169.479 87.3999 169.479 86.6661C169.479 86.5552 169.479 86.4443 169.488 86.3419C169.488 86.2821 169.522 86.2395 169.59 86.231C169.667 86.2224 169.752 86.2224 169.838 86.2224C169.974 86.2224 170.008 86.2565 170.017 86.3845C170.025 86.5381 170.017 86.6832 170.025 86.8367C170.025 86.8709 170.042 86.9221 170.068 86.9391C170.102 86.9733 170.136 86.9306 170.17 86.905C170.179 86.8965 170.187 86.8879 170.196 86.8794C170.913 85.9835 172.244 85.975 173.046 86.3419C173.848 86.7002 174.215 87.3658 174.309 88.2105C174.317 88.3214 174.317 88.4323 174.317 88.5347C174.317 89.405 174.317 90.2838 174.317 91.1541C174.317 91.248 174.317 91.3419 174.309 91.4357C174.309 91.4954 174.266 91.5296 174.206 91.5381C174.163 91.5466 174.121 91.5466 174.087 91.5466C173.797 91.5552 173.78 91.5381 173.78 91.2651C173.78 90.7446 173.78 90.2326 173.78 89.7122C173.78 89.3026 173.78 88.8931 173.78 88.4835C173.78 88.2361 173.754 87.9972 173.677 87.7582C173.515 87.289 173.216 86.9562 172.756 86.7856C172.338 86.632 171.911 86.5893 171.467 86.6917C170.682 86.8794 170.145 87.4937 170.059 88.3043C170.042 88.4664 170.042 88.6286 170.042 88.7907C170.042 89.5501 170.042 90.318 170.042 91.0774C170.042 91.1883 170.042 91.2992 170.034 91.4016C170.034 91.4357 170.008 91.4869 169.983 91.5125C169.931 91.5637 169.599 91.5552 169.547 91.5125C169.522 91.4869 169.505 91.4443 169.496 91.4016C169.488 91.2907 169.488 91.1797 169.488 91.0774C169.479 90.3521 169.479 89.6183 169.479 88.876Z" fill="white"/>
<path d="M182.133 90.2411C182.193 90.2838 182.227 90.3094 182.252 90.335C182.756 90.9152 183.421 91.1114 184.155 91.12C184.513 91.12 184.863 91.0688 185.187 90.9152C185.478 90.7787 185.674 90.5739 185.734 90.2497C185.793 89.9425 185.699 89.6865 185.443 89.4903C185.298 89.3794 185.136 89.3196 184.966 89.2599C184.59 89.1405 184.189 89.0978 183.805 89.021C183.549 88.9698 183.293 88.9186 183.046 88.8504C182.892 88.8077 182.739 88.748 182.594 88.6712C181.757 88.2446 181.843 87.2377 182.244 86.7855C182.38 86.6319 182.542 86.5125 182.73 86.4101C183.481 86.0176 184.957 86.0091 185.785 86.6234C185.87 86.6917 185.964 86.7429 186.015 86.8452C185.998 86.8794 185.998 86.905 185.981 86.922C185.734 87.2121 185.742 87.2036 185.461 86.9988C185.239 86.8367 184.983 86.7429 184.71 86.6917C184.249 86.6149 183.788 86.6063 183.327 86.7258C183.14 86.7685 182.969 86.8538 182.807 86.9562C182.363 87.2633 182.346 87.9289 182.85 88.219C183.037 88.3299 183.242 88.4067 183.455 88.4493C183.873 88.5347 184.283 88.6115 184.701 88.6882C185.034 88.7565 185.367 88.8418 185.665 89.021C185.921 89.1661 186.126 89.3708 186.211 89.6609C186.356 90.1388 186.28 90.7787 185.768 91.1712C185.606 91.2992 185.426 91.393 185.23 91.4613C184.394 91.7258 183.566 91.7087 182.747 91.376C182.389 91.2309 182.082 91.0005 181.843 90.6934C181.783 90.6166 181.775 90.5483 181.851 90.48C181.945 90.4033 182.03 90.335 182.133 90.2411Z" fill="white"/>
<path d="M102.065 87.7499C102.065 86.6407 102.065 85.54 102.065 84.4308C102.065 84.3198 102.065 84.2089 102.073 84.1065C102.073 84.0468 102.116 84.0041 102.176 84.0041C102.244 83.9956 102.312 83.9956 102.38 83.9956C102.645 83.9956 102.653 84.0041 102.653 84.2686C102.653 86.3164 102.653 88.3642 102.653 90.412C102.653 90.5997 102.568 90.8301 102.713 90.9581C102.841 91.069 103.054 90.9922 103.234 91.0007C104.309 91.0007 105.392 91.0007 106.467 91.0007C106.578 91.0007 106.689 91.0007 106.792 91.0093C106.851 91.0178 106.886 91.0604 106.894 91.1202C106.894 91.1458 106.903 91.1714 106.903 91.2055C106.92 91.5639 106.911 91.5724 106.553 91.5724C105.179 91.5724 103.797 91.5724 102.423 91.5724C102.355 91.5724 102.287 91.5724 102.218 91.5724C102.116 91.5724 102.073 91.5041 102.073 91.4103C102.073 91.2994 102.073 91.1884 102.073 91.086C102.065 89.9598 102.065 88.8505 102.065 87.7499Z" fill="white"/>
<path d="M91.3992 91.359C90.8958 91.6235 90.418 91.7088 89.8975 91.5808C89.4453 91.4699 89.1552 91.1968 89.0187 90.7617C88.9248 90.4716 88.8992 90.173 88.8992 89.8743C88.8992 88.9614 88.8992 88.0484 88.8992 87.1354C88.8992 86.6149 88.9334 86.6832 88.4385 86.6747C88.302 86.6747 88.1654 86.6747 88.0289 86.6747C87.9521 86.6747 87.8497 86.7003 87.8071 86.6149C87.7559 86.5211 87.7644 86.4016 87.7985 86.2992C87.8156 86.248 87.8753 86.231 87.9351 86.231C88.1398 86.231 88.3446 86.231 88.5494 86.231C88.6347 86.231 88.7115 86.231 88.7968 86.2224C88.8566 86.2139 88.8907 86.1713 88.8992 86.1115C88.9078 86.0006 88.9078 85.8982 88.9078 85.7873C88.9078 85.4887 88.9078 85.19 88.9078 84.8914C88.9078 84.7122 88.9248 84.6952 89.1211 84.6696C89.1467 84.6696 89.1723 84.661 89.2064 84.661C89.4197 84.6354 89.4453 84.661 89.4453 84.8658C89.4453 85.2071 89.4453 85.5484 89.4453 85.8897C89.4453 86.2395 89.4538 86.2395 89.7781 86.2395C90.1364 86.2395 90.4862 86.2395 90.8446 86.2395C90.9385 86.2395 91.0323 86.2395 91.1262 86.248C91.203 86.2566 91.2456 86.2992 91.2542 86.376C91.2542 86.4016 91.2542 86.4272 91.2542 86.4614C91.2542 86.6576 91.2371 86.6832 91.0579 86.6832C90.8105 86.6917 90.563 86.6832 90.3241 86.6832C90.0767 86.6832 89.8293 86.6832 89.5904 86.6917C89.5136 86.6917 89.4624 86.7344 89.4624 86.8197C89.4538 86.905 89.4538 86.9818 89.4538 87.0672C89.4538 88.0228 89.4538 88.9784 89.4538 89.9255C89.4538 90.0791 89.4538 90.2242 89.4794 90.3777C89.5477 90.8897 89.8378 91.1457 90.3583 91.1627C90.6228 91.1712 90.8702 91.0945 91.1091 91.0006C91.203 90.9665 91.2627 91.0006 91.3054 91.0859C91.3224 91.1542 91.3566 91.2395 91.3992 91.359Z" fill="white"/>
<path d="M67.6279 88.5262C67.6279 88.074 67.6279 87.6303 67.6279 87.1781C67.6279 87.0927 67.6279 87.016 67.6279 86.9306C67.6194 86.6917 67.5938 86.6661 67.3719 86.6661C67.261 86.6661 67.1501 86.6661 67.0477 86.6661C66.9368 86.6661 66.8258 86.6661 66.7235 86.6661C66.5187 86.6576 66.5016 86.632 66.5016 86.4187C66.5016 86.2566 66.5272 86.231 66.6979 86.231C66.9453 86.2224 67.1927 86.231 67.4316 86.2224C67.5852 86.2224 67.6194 86.1798 67.6279 86.0262C67.6364 85.702 67.6279 85.3692 67.6279 85.045C67.6279 84.6269 67.6023 84.6951 68.0033 84.6439C68.1057 84.6354 68.1484 84.6695 68.1484 84.789C68.1484 85.0876 68.1484 85.3863 68.1484 85.6849C68.1484 85.8044 68.1484 85.9323 68.1484 86.0518C68.1569 86.1798 68.191 86.2139 68.319 86.2224C68.4299 86.231 68.5409 86.2224 68.6433 86.2224C69.0016 86.2224 69.3514 86.2224 69.7098 86.2224C69.9316 86.2224 69.9572 86.2566 69.9487 86.4869C69.9487 86.504 69.9487 86.5125 69.9487 86.5296C69.9402 86.6149 69.889 86.6491 69.8207 86.6491C69.7098 86.6576 69.5989 86.6576 69.4965 86.6576C69.1125 86.6576 68.7371 86.6576 68.3531 86.6576C68.191 86.6576 68.1654 86.6917 68.1569 86.8453C68.1484 86.9562 68.1569 87.0672 68.1569 87.1695C68.1569 88.0825 68.1569 88.9955 68.1569 89.9084C68.1569 90.1303 68.1654 90.3436 68.2337 90.5569C68.319 90.8214 68.4897 91.0006 68.7627 91.0774C68.976 91.1371 69.1893 91.1456 69.4112 91.0945C69.5562 91.0603 69.7013 91.0091 69.8378 90.9665C69.9146 90.9409 69.9743 90.9665 70.0084 91.0432C70.0426 91.103 70.0682 91.1712 70.0938 91.231C70.1279 91.3078 70.1108 91.359 70.034 91.4016C69.5392 91.6405 69.0187 91.7088 68.4897 91.5296C68.1313 91.4101 67.9009 91.1542 67.7729 90.7958C67.6706 90.5057 67.6535 90.2071 67.645 89.9084C67.6279 89.4562 67.6279 88.9869 67.6279 88.5262Z" fill="white"/>
<path d="M62.9521 86.9732C63.0459 86.922 63.0971 86.8281 63.1654 86.7513C63.6858 86.1797 64.8292 85.9578 65.6739 86.4271C65.7677 86.4783 65.7763 86.521 65.7251 86.6319C65.708 86.666 65.691 86.7087 65.6654 86.7428C65.563 86.9135 65.563 86.922 65.3838 86.8452C65.0596 86.7087 64.7353 86.666 64.3855 86.7172C63.5749 86.8452 62.9521 87.5193 62.9094 88.3384C62.9009 88.4578 62.9009 88.5858 62.9009 88.7053C62.9009 89.5073 62.9009 90.3179 62.9009 91.1199C62.9009 91.2308 62.9009 91.3418 62.8923 91.4442C62.8923 91.5039 62.8582 91.5465 62.7899 91.5551C62.7387 91.5636 62.679 91.5636 62.6278 91.5636C62.3718 91.5636 62.3548 91.5551 62.3463 91.2906C62.3463 89.6779 62.3463 88.0739 62.3463 86.4612C62.3463 86.4186 62.3463 86.3759 62.3548 86.3418C62.3804 86.2053 62.4913 86.2309 62.5852 86.2309C62.6875 86.2394 62.8241 86.1797 62.8582 86.3332C62.8838 86.4527 62.8753 86.5807 62.8838 86.7001C62.8923 86.7769 62.8582 86.8793 62.9521 86.9732Z" fill="white"/>
<path d="M141.467 88.859C141.467 88.1337 141.467 87.4085 141.467 86.6918C141.467 86.5808 141.467 86.4699 141.476 86.3675C141.476 86.2908 141.519 86.2396 141.604 86.2396C141.689 86.2396 141.766 86.2396 141.851 86.2396C141.928 86.2396 141.979 86.2822 141.979 86.3675C141.988 86.5467 141.996 86.7259 142.005 86.8965C142.005 86.9221 142.031 86.9477 142.048 86.9563C142.065 86.9648 142.099 86.9563 142.116 86.9477C142.15 86.9221 142.176 86.888 142.201 86.8624C142.662 86.2395 143.848 85.9495 144.752 86.4187C144.889 86.487 144.906 86.5297 144.829 86.6747C144.812 86.7088 144.786 86.743 144.769 86.7856C144.684 86.9222 144.667 86.9307 144.505 86.8624C144.104 86.6918 143.686 86.6576 143.268 86.7856C142.568 86.9904 142.073 87.6133 142.031 88.3556C142.022 88.475 142.022 88.603 142.022 88.7225C142.022 89.5245 142.022 90.3351 142.022 91.1372C142.022 91.2481 142.022 91.359 142.013 91.4614C142.013 91.5211 141.971 91.5638 141.911 91.5723C141.834 91.5808 141.749 91.5808 141.664 91.5808C141.51 91.5723 141.476 91.5467 141.476 91.3846C141.467 90.5228 141.467 89.6866 141.467 88.859Z" fill="white"/>
<path d="M167.449 88.9016C167.449 88.1422 167.449 87.3743 167.449 86.6149C167.449 86.521 167.449 86.4272 167.457 86.3333C167.457 86.2736 167.491 86.2224 167.551 86.2224C167.67 86.2139 167.798 86.2224 167.918 86.2309C167.952 86.2309 167.995 86.2651 167.995 86.3163C167.995 86.3675 168.003 86.4272 168.003 86.4784C168.003 88.0825 168.003 89.6951 168.003 91.2992C168.003 91.3504 168.003 91.4101 167.995 91.4613C167.986 91.521 167.943 91.5552 167.884 91.5637C167.833 91.5722 167.773 91.5722 167.722 91.5722C167.483 91.5722 167.457 91.5552 167.457 91.3248C167.457 91.0774 167.457 90.8384 167.457 90.591C167.449 90.0108 167.449 89.4562 167.449 88.9016Z" fill="white"/>
<path d="M168.157 84.4904C168.157 84.7293 167.952 84.9255 167.713 84.917C167.483 84.9085 167.303 84.7208 167.303 84.4989C167.303 84.26 167.474 84.0894 167.704 84.0808C167.969 84.0638 168.157 84.243 168.157 84.4904Z" fill="white"/>
</svg>
