<svg width="15" height="16" viewBox="0 0 15 16" fill="none" xmlns="http://www.w3.org/2000/svg">
<path d="M13.9785 11.5039H12.8451C12.762 11.5039 12.694 11.5719 12.694 11.655V14.5641H1.43563V11.655C1.43563 11.5719 1.36763 11.5039 1.28451 11.5039H0.151119C0.0680037 11.5039 0 11.5719 0 11.655V15.3952C0 15.7296 0.270126 15.9997 0.604477 15.9997H13.5252C13.8595 15.9997 14.1297 15.7296 14.1297 15.3952V11.655C14.1297 11.5719 14.0616 11.5039 13.9785 11.5039Z" fill="#000"/>
<path d="M10.8816 8.47327L7.25442 12.0908L3.6272 8.47327L4.53743 7.56546L6.61099 9.63349V8.77798e-05H7.89785V9.63349L9.9714 7.56546L10.8816 8.47327Z" fill="#000"/>
</svg>
