<svg width="15" height="16" viewBox="0 0 15 16" fill="none" xmlns="http://www.w3.org/2000/svg">
<path d="M7.41667 7.68413e-07C4.01 7.68413e-07 1.16133 2.10667 0 5.08333L1.22933 5.58333C2.20067 3.09333 4.55667 1.33333 7.41667 1.33333C9.57667 1.33333 11.506 2.39333 12.7087 4H10.0833V5.33333H14.75V0.666667H13.4167V2.72933C12.6699 1.87186 11.7478 1.18453 10.7128 0.713703C9.67774 0.242874 8.55376 -0.000499086 7.41667 7.68413e-07V7.68413e-07ZM13.6033 10.4167C12.6327 12.9067 10.2767 14.6667 7.41667 14.6667C5.23267 14.6667 3.312 13.592 2.10333 12H4.75V10.6667H0.0833333V15.3333H1.41667V13.2707C2.87667 14.924 5.01333 16 7.41667 16C10.8233 16 13.672 13.8933 14.8333 10.9167L13.604 10.4167H13.6033Z" fill="#000"/>
</svg>
