<svg width="16" height="16" viewBox="0 0 16 16" fill="none" xmlns="http://www.w3.org/2000/svg">
<path d="M4.944 1.6H6.624C6.83617 1.6 7.03966 1.51571 7.18969 1.36569C7.33971 1.21566 7.424 1.01217 7.424 0.8C7.424 0.587827 7.33971 0.384344 7.18969 0.234315C7.03966 0.0842854 6.83617 0 6.624 0H4.944C4.73183 0 4.52834 0.0842854 4.37831 0.234315C4.22829 0.384344 4.144 0.587827 4.144 0.8C4.144 1.01217 4.22829 1.21566 4.37831 1.36569C4.52834 1.51571 4.73183 1.6 4.944 1.6ZM0.8 7.424C1.01217 7.424 1.21566 7.33971 1.36569 7.18969C1.51571 7.03966 1.6 6.83617 1.6 6.624V4.944C1.6 4.73183 1.51571 4.52834 1.36569 4.37831C1.21566 4.22829 1.01217 4.144 0.8 4.144C0.587827 4.144 0.384344 4.22829 0.234315 4.37831C0.0842854 4.52834 0 4.73183 0 4.944V6.624C0 6.83617 0.0842854 7.03966 0.234315 7.18969C0.384344 7.33971 0.587827 7.424 0.8 7.424ZM9.968 1.6C9.968 1.81217 10.0523 2.01566 10.2023 2.16569C10.3523 2.31571 10.5558 2.4 10.768 2.4C10.9802 2.4 11.1837 2.31571 11.3337 2.16569C11.4837 2.01566 11.568 1.81217 11.568 1.6V0.8C11.568 0.587827 11.4837 0.384344 11.3337 0.234315C11.1837 0.0842854 10.9802 0 10.768 0H9.968C9.75583 0 9.55234 0.0842854 9.40232 0.234315C9.25229 0.384344 9.168 0.587827 9.168 0.8C9.168 1.01217 9.25229 1.21566 9.40232 1.36569C9.55234 1.51571 9.75583 1.6 9.968 1.6V1.6ZM15.2 4.432H11.568C11.568 4.21983 11.4837 4.01634 11.3337 3.86631C11.1837 3.71629 10.9802 3.632 10.768 3.632C10.5558 3.632 10.3523 3.71629 10.2023 3.86631C10.0523 4.01634 9.968 4.21983 9.968 4.432H5.232C5.01983 4.432 4.81634 4.51629 4.66631 4.66631C4.51629 4.81634 4.432 5.01983 4.432 5.232V9.968C4.21983 9.968 4.01634 10.0523 3.86631 10.2023C3.71629 10.3523 3.632 10.5558 3.632 10.768C3.632 10.9802 3.71629 11.1837 3.86631 11.3337C4.01634 11.4837 4.21983 11.568 4.432 11.568V15.2C4.432 15.4122 4.51629 15.6157 4.66631 15.7657C4.81634 15.9157 5.01983 16 5.232 16H15.2C15.4122 16 15.6157 15.9157 15.7657 15.7657C15.9157 15.6157 16 15.4122 16 15.2V5.232C16 5.01983 15.9157 4.81634 15.7657 4.66631C15.6157 4.51629 15.4122 4.432 15.2 4.432V4.432ZM14.4 14.4H6.032V6.032H14.4V14.4ZM1.6 0H0.8C0.587827 0 0.384344 0.0842854 0.234315 0.234315C0.0842854 0.384344 0 0.587827 0 0.8V1.6C0 1.81217 0.0842854 2.01566 0.234315 2.16569C0.384344 2.31571 0.587827 2.4 0.8 2.4C1.01217 2.4 1.21566 2.31571 1.36569 2.16569C1.51571 2.01566 1.6 1.81217 1.6 1.6C1.81217 1.6 2.01566 1.51571 2.16569 1.36569C2.31571 1.21566 2.4 1.01217 2.4 0.8C2.4 0.587827 2.31571 0.384344 2.16569 0.234315C2.01566 0.0842854 1.81217 0 1.6 0V0ZM1.6 9.968C1.6 9.75583 1.51571 9.55234 1.36569 9.40232C1.21566 9.25229 1.01217 9.168 0.8 9.168C0.587827 9.168 0.384344 9.25229 0.234315 9.40232C0.0842854 9.55234 0 9.75583 0 9.968V10.768C0 10.9802 0.0842854 11.1837 0.234315 11.3337C0.384344 11.4837 0.587827 11.568 0.8 11.568H1.6C1.81217 11.568 2.01566 11.4837 2.16569 11.3337C2.31571 11.1837 2.4 10.9802 2.4 10.768C2.4 10.5558 2.31571 10.3523 2.16569 10.2023C2.01566 10.0523 1.81217 9.968 1.6 9.968Z" fill="#000"/>
</svg>
