<svg width="16" height="19" viewBox="0 0 16 19" fill="none" xmlns="http://www.w3.org/2000/svg">
<path d="M14.1765 8.82353V5.11765L10.4706 1H1.82353C1.60512 1 1.39565 1.08676 1.24121 1.24121C1.08676 1.39565 1 1.60512 1 1.82353V16.6471C1 16.8655 1.08676 17.0749 1.24121 17.2294C1.39565 17.3838 1.60512 17.4706 1.82353 17.4706H6.76471" stroke="#D8D8D8" stroke-width="2" stroke-linecap="round" stroke-linejoin="round"/>
<path d="M11.7059 16.2353C12.8429 16.2353 13.7647 15.3136 13.7647 14.1765C13.7647 13.0394 12.8429 12.1177 11.7059 12.1177C10.5688 12.1177 9.64706 13.0394 9.64706 14.1765C9.64706 15.3136 10.5688 16.2353 11.7059 16.2353Z" stroke="#D8D8D8" stroke-width="2"/>
<path d="M11.7059 10.8823V12.1176" stroke="#D8D8D8" stroke-width="2" stroke-linecap="round" stroke-linejoin="round"/>
<path d="M11.7059 16.2354V17.4706" stroke="#D8D8D8" stroke-width="2" stroke-linecap="round" stroke-linejoin="round"/>
<path d="M14.1057 11.7058L13.2323 12.5792" stroke="#D8D8D8" stroke-width="2" stroke-linecap="round" stroke-linejoin="round"/>
<path d="M9.98801 15.8235L9.11465 16.6968" stroke="#D8D8D8" stroke-width="2" stroke-linecap="round" stroke-linejoin="round"/>
<path d="M9.23529 11.7058L10.1086 12.5792" stroke="#D8D8D8" stroke-width="2" stroke-linecap="round" stroke-linejoin="round"/>
<path d="M13.3529 15.8235L14.2263 16.6968" stroke="#D8D8D8" stroke-width="2" stroke-linecap="round" stroke-linejoin="round"/>
<path d="M8.41176 14.1765H9.64705" stroke="#D8D8D8" stroke-width="2" stroke-linecap="round" stroke-linejoin="round"/>
<path d="M13.7647 14.1765H15" stroke="#D8D8D8" stroke-width="2" stroke-linecap="round" stroke-linejoin="round"/>
<path d="M10.0588 1V5.11765H14.1765" stroke="#D8D8D8" stroke-width="2" stroke-linecap="round" stroke-linejoin="round"/>
</svg>
