<svg width="12" height="18" viewBox="0 0 12 18" fill="none" xmlns="http://www.w3.org/2000/svg">
<path fill-rule="evenodd" clip-rule="evenodd" d="M4.73506 3.37795C4.73506 3.84308 4.35797 4.22038 3.89263 4.22038C3.42708 4.22038 3.0502 3.84308 3.0502 3.37795C3.0502 2.91324 3.42708 2.53595 3.89263 2.53595C4.35797 2.53595 4.73506 2.91324 4.73506 3.37795ZM8.13391 1.48343C8.13391 2.30264 7.46672 2.96687 6.64372 2.96687C5.82093 2.96687 5.15353 2.30264 5.15353 1.48343C5.15353 0.66423 5.82093 0 6.64372 0C7.46693 0 8.13391 0.66423 8.13391 1.48343ZM7.27501 1.47709C7.27501 1.12681 6.98892 0.841993 6.63717 0.841993C6.28542 0.841993 5.99955 1.12681 5.99933 1.47709C5.99933 1.82715 6.28542 2.11218 6.63717 2.11218C6.98892 2.11218 7.27501 1.82715 7.27501 1.47709ZM11.0718 14.9584L7.62557 10.2195V5.60847H8.57877V4.65527H2.8596V5.60847H3.81279V10.2195L0.366517 14.9584C0.158641 15.2441 0.0338574 15.5817 0.00597364 15.9339C-0.0219102 16.2861 0.0481929 16.6392 0.208526 16.954C0.368859 17.2689 0.613171 17.5332 0.914428 17.7178C1.21568 17.9024 1.56214 18.0001 1.91546 18H9.52243C9.87575 18.0001 10.2222 17.9024 10.5235 17.7178C10.8247 17.5332 11.069 17.2689 11.2294 16.954C11.3897 16.6392 11.4598 16.2861 11.4319 15.9339C11.404 15.5817 11.2792 15.2441 11.0714 14.9584H11.0718ZM4.76599 10.5293V5.60847H6.67238V10.5293L7.94632 12.2808H3.49204L4.76599 10.5293Z" fill="#D8D8D8"/>
</svg>
