<svg width="17" height="21" viewBox="0 0 17 21" fill="none" xmlns="http://www.w3.org/2000/svg">
<path fill-rule="evenodd" clip-rule="evenodd" d="M4.95833 1.11083V0H12C13.1046 0 14 0.895431 14 2V11.0903H10.8752V14.875H7.0835V18H2C0.89543 18 0 17.1046 0 16V2C0 0.89543 0.895431 0 2 0H2.04167V3.58333L3.5 2.61125L4.95833 3.58333V1.11083ZM12.2105 13H13.7895C13.9298 13 14 13.0296 14 13.0889V16H16.907C16.969 16 17 16.0702 17 16.2105V17.7895C17 17.9298 16.969 18 16.907 18H14V20.9111C14 20.9704 13.9298 21 13.7895 21H12.2105C12.0702 21 12 20.9704 12 20.9111V18H9.09302C9.03101 18 9 17.9298 9 17.7895V16.2105C9 16.0702 9.03101 16 9.09302 16H12V13.0889C12 13.0296 12.0702 13 12.2105 13Z" fill="#D9D9D9"/>
</svg>
