<svg width="18" height="19" viewBox="0 0 18 19" fill="none" xmlns="http://www.w3.org/2000/svg">
<path fill-rule="evenodd" clip-rule="evenodd" d="M14 2.28572V3.71428C14 4.97322 10.8646 6 7 6C3.13541 6 0 4.97322 0 3.71428V2.28572C0 1.02678 3.13541 0 7 0C10.8646 0 14 1.02678 14 2.28572ZM14 5.5V8.71428C14 9.47783 12.8467 10.156 11.0768 10.5715L8.87773 9.33893C8.77456 9.28097 8.6558 9.25425 8.5371 9.2623C8.41841 9.27035 8.30537 9.31279 8.2129 9.38403L8.21278 9.38515C8.12061 9.45638 8.05331 9.55292 8.01971 9.66207C7.98611 9.77123 7.98779 9.88788 8.02453 9.9967L8.34936 10.9574C7.91271 10.9854 7.46155 11 7 11C3.13541 11 0 9.97322 0 8.71428V5.5C1.50391 6.53572 4.2565 7.01788 7 7.01788C9.7435 7.01788 12.4961 6.53572 14 5.5ZM7 12.0179C7.56559 12.0179 8.13157 11.9974 8.68691 11.9558L9.98072 15.7824C9.07627 15.9219 8.06587 16 7 16C3.13541 16 0 14.9732 0 13.7143V10.5C1.50391 11.5357 4.2565 12.0179 7 12.0179ZM12.347 11.2834L14 12.2098V10.5C13.5497 10.8101 12.9874 11.0706 12.347 11.2834ZM9.80037 10.8972C9.73632 10.8998 9.67522 10.9196 9.62514 10.9538L9.62507 10.9544C9.57515 10.9887 9.53858 11.0358 9.52015 11.0895C9.50173 11.1433 9.50232 11.2012 9.52184 11.2556L12.2196 18.7628C12.2385 18.8151 12.2741 18.8619 12.3221 18.8974C12.37 18.9329 12.4283 18.9556 12.4897 18.9627C12.5511 18.9698 12.613 18.9609 12.6678 18.9373C12.7227 18.9136 12.7681 18.8762 12.7984 18.8295L14.4153 16.3359L17.5649 15.5657C17.6241 15.5514 17.6767 15.5219 17.7164 15.481C17.7561 15.4401 17.781 15.3895 17.7882 15.3354C17.7954 15.2813 17.7844 15.2261 17.7567 15.1766C17.729 15.127 17.6858 15.0853 17.6323 15.0566L9.98392 10.9392C9.92842 10.9092 9.86443 10.8946 9.80037 10.8972Z" fill="#D9D9D9"/>
</svg>
