<svg width="17" height="20" viewBox="0 0 17 20" fill="none" xmlns="http://www.w3.org/2000/svg">
<path fill-rule="evenodd" clip-rule="evenodd" d="M9.58666 0H2C0.895431 0 0 0.89543 0 2V16C0 17.1046 0.89543 18 2 18H9.39241L7.02453 10.9967C6.98779 10.8879 6.98611 10.7712 7.01971 10.6621C7.05331 10.5529 7.12061 10.4564 7.21278 10.3852L7.2129 10.384C7.30537 10.3128 7.41841 10.2704 7.5371 10.2623C7.65579 10.2542 7.77456 10.281 7.87773 10.3389L14 13.7703V4.61303L9.58666 0ZM8.80037 11.8972C8.73632 11.8998 8.67522 11.9196 8.62514 11.9538L8.62507 11.9544C8.57515 11.9887 8.53858 12.0358 8.52015 12.0895C8.50173 12.1433 8.50232 12.2012 8.52184 12.2556L11.2196 19.7628C11.2385 19.8151 11.2741 19.8619 11.3221 19.8974C11.37 19.9329 11.4283 19.9556 11.4897 19.9627C11.5511 19.9698 11.613 19.9609 11.6678 19.9373C11.7227 19.9136 11.7681 19.8762 11.7984 19.8295L13.4153 17.3359L16.5649 16.5657C16.6241 16.5514 16.6767 16.5219 16.7164 16.481C16.7561 16.4401 16.781 16.3895 16.7882 16.3354C16.7954 16.2813 16.7844 16.2261 16.7567 16.1766C16.729 16.127 16.6858 16.0853 16.6323 16.0566L8.98392 11.9392C8.92842 11.9092 8.86443 11.8946 8.80037 11.8972Z" fill="#D9D9D9"/>
</svg>
