<svg width="19" height="16" viewBox="0 0 19 16" fill="none" xmlns="http://www.w3.org/2000/svg">
<path d="M12.8 11C12.24 11 11.8 11.44 11.8 12C11.8 12.56 12.24 13 12.8 13C13.36 13 13.8 12.56 13.8 12C13.8 11.44 13.36 11 12.8 11ZM18.8 12C17.86 14.34 15.53 16 12.8 16C10.07 16 7.73999 14.34 6.79999 12C7.73999 9.66 10.07 8 12.8 8C15.53 8 17.86 9.66 18.8 12ZM15.3 12C15.3 11.337 15.0366 10.7011 14.5678 10.2322C14.0989 9.76339 13.463 9.5 12.8 9.5C12.1369 9.5 11.5011 9.76339 11.0322 10.2322C10.5634 10.7011 10.3 11.337 10.3 12C10.3 12.663 10.5634 13.2989 11.0322 13.7678C11.5011 14.2366 12.1369 14.5 12.8 14.5C13.463 14.5 14.0989 14.2366 14.5678 13.7678C15.0366 13.2989 15.3 12.663 15.3 12Z" fill="#D8D8D8"/>
<path fill-rule="evenodd" clip-rule="evenodd" d="M13.125 2.8125C13.125 4.36594 10.1869 5.625 6.5625 5.625C2.93813 5.625 0 4.36594 0 2.8125C0 1.25906 2.93813 0 6.5625 0C10.1869 0 13.125 1.25906 13.125 2.8125ZM0 7.5V4.6875C0 6.24094 2.93813 7.5 6.5625 7.5C10.1869 7.5 13.125 6.24094 13.125 4.6875V7.02683C12.9189 7.00906 12.7105 7 12.5 7C9.97107 7 7.73636 8.3082 6.37403 10.3114C2.83682 10.2686 0 9.02642 0 7.5ZM5.5599 12.1549C2.41142 11.9481 0 10.7823 0 9.375V12.1875C0 13.7409 2.93813 15 6.5625 15C6.86937 15 7.17132 14.991 7.46699 14.9735C6.64748 14.1988 5.99161 13.2378 5.5599 12.1549Z" fill="#D8D8D8"/>
</svg>
