<svg width="20" height="19" viewBox="0 0 20 19" fill="none" xmlns="http://www.w3.org/2000/svg">
<path fill-rule="evenodd" clip-rule="evenodd" d="M0 1.86492C0 0.836806 0.836805 0 1.86492 0H14.8383C15.8664 0 16.7032 0.836806 16.7032 1.86492V13.4727C16.7032 14.5008 15.8664 15.3376 14.8383 15.3376H1.86492C0.836805 15.3376 0 14.5008 0 13.4727V1.86492ZM1.86492 0.9986C1.38744 0.9986 0.9986 1.38744 0.9986 1.86492V4.25499H4.78106H8.53652H12.292H15.7046V1.86492C15.7046 1.38744 15.3158 0.9986 14.8383 0.9986H1.86492ZM9.06284 5.30762H11.7657V7.66884H9.06284V5.30762ZM12.8183 5.30762V7.66884H15.7046V5.30762H12.8183ZM11.2855 8.72147H9.06284V11.083H9.51241C9.48692 11.2445 9.47368 11.4102 9.47368 11.5789C9.47368 11.7689 9.49045 11.9549 9.52259 12.1356H9.06284V14.339H11.096C11.5506 14.5924 12.0742 14.7368 12.6316 14.7368C13.1889 14.7368 13.7126 14.5924 14.1671 14.339H14.8383C15.3158 14.339 15.7046 13.9502 15.7046 13.4727V12.3091C15.7601 12.0747 15.7895 11.8303 15.7895 11.5789C15.7895 11.3276 15.7601 11.0832 15.7046 10.8488V8.72147H13.9776C13.5693 8.52879 13.113 8.42105 12.6316 8.42105C12.1501 8.42105 11.6939 8.52879 11.2855 8.72147ZM8.01021 5.30762H5.30738V7.66884H8.01021V5.30762ZM8.01021 8.72147H5.30738V11.083H8.01021V8.72147ZM8.01021 12.1356H5.30738V14.339H8.01021V12.1356ZM0.9986 5.30762H4.25474V7.66884H0.9986V5.30762ZM0.9986 8.72147H4.25474V11.083H0.9986V8.72147ZM0.9986 12.1356H4.25474V14.339H1.86492C1.38744 14.339 0.9986 13.9502 0.9986 13.4727V12.1356Z" fill="#D8D8D8"/>
<path d="M16.5843 13.9678C17.0722 13.2026 17.3495 12.2821 17.3495 11.3062C17.3495 8.53369 15.1315 6.31567 12.359 6.31567C9.58644 6.31567 7.36842 8.53369 7.36842 11.3062C7.36842 14.0787 9.58644 16.2967 12.359 16.2967C13.3238 16.2967 14.2332 16.0195 14.9984 15.5426L18.4585 18.9473L20 17.4057L16.5843 13.9678ZM12.359 14.0787C11.6236 14.0787 10.9184 13.7866 10.3985 13.2667C9.87854 12.7467 9.58644 12.0415 9.58644 11.3062C9.58644 10.5709 9.87854 9.86568 10.3985 9.34574C10.9184 8.82579 11.6236 8.53369 12.359 8.53369C13.0943 8.53369 13.7995 8.82579 14.3194 9.34574C14.8394 9.86568 15.1315 10.5709 15.1315 11.3062C15.1315 12.0415 14.8394 12.7467 14.3194 13.2667C13.7995 13.7866 13.0943 14.0787 12.359 14.0787Z" fill="#D8D8D8"/>
<path d="M16.5843 13.9678C17.0722 13.2026 17.3495 12.2821 17.3495 11.3062C17.3495 8.53369 15.1315 6.31567 12.359 6.31567C9.58644 6.31567 7.36842 8.53369 7.36842 11.3062C7.36842 14.0787 9.58644 16.2967 12.359 16.2967C13.3238 16.2967 14.2332 16.0195 14.9984 15.5426L18.4585 18.9473L20 17.4057L16.5843 13.9678ZM12.359 14.0787C11.6236 14.0787 10.9184 13.7866 10.3985 13.2667C9.87854 12.7467 9.58644 12.0415 9.58644 11.3062C9.58644 10.5709 9.87854 9.86568 10.3985 9.34574C10.9184 8.82579 11.6236 8.53369 12.359 8.53369C13.0943 8.53369 13.7995 8.82579 14.3194 9.34574C14.8394 9.86568 15.1315 10.5709 15.1315 11.3062C15.1315 12.0415 14.8394 12.7467 14.3194 13.2667C13.7995 13.7866 13.0943 14.0787 12.359 14.0787Z" stroke="#383F43"/>
</svg>
