<svg width="16" height="16" viewBox="0 0 16 16" fill="none" xmlns="http://www.w3.org/2000/svg">
<path d="M13.4585 12.6414C13.8216 12.1253 14.0279 11.5044 14.0279 10.8462C14.0279 8.97616 12.3775 7.48013 10.3146 7.48013C8.25168 7.48013 6.60134 8.97616 6.60134 10.8462C6.60134 12.7162 8.25168 14.2122 10.3146 14.2122C11.0325 14.2122 11.7091 14.0252 12.2785 13.7036L14.853 16L16 14.9603L13.4585 12.6414ZM10.3146 12.7162C9.76748 12.7162 9.24276 12.5192 8.85589 12.1685C8.46902 11.8178 8.25168 11.3422 8.25168 10.8462C8.25168 10.3502 8.46902 9.87458 8.85589 9.52388C9.24276 9.17318 9.76748 8.97616 10.3146 8.97616C10.8617 8.97616 11.3864 9.17318 11.7733 9.52388C12.1602 9.87458 12.3775 10.3502 12.3775 10.8462C12.3775 11.3422 12.1602 11.8178 11.7733 12.1685C11.3864 12.5192 10.8617 12.7162 10.3146 12.7162ZM5.43785 12.8658L0 9.02852L1.33677 8.08602L4.95101 10.6367V10.8462C4.95101 11.5643 5.13254 12.2525 5.43785 12.8658ZM5.36359 9.00608L0 5.23609L7.42651 0L14.853 5.23609L12.9221 6.59748C12.3353 6.30756 11.6948 6.11743 11.0325 6.03647L12.163 5.23609L7.42651 1.89247L2.69005 5.23609L6.21351 7.7195C5.85869 8.10846 5.56163 8.54231 5.36359 9.00608Z" fill="#848888"/>
</svg>
