<svg width="14" height="13" viewBox="0 0 14 13" fill="none" xmlns="http://www.w3.org/2000/svg">
<path d="M1.00005 6.13125L3.35786 4.26562C3.40474 4.22813 3.47192 4.2625 3.47192 4.32188V5.65625H5.65942V1.0625H2.47192V3.0625C2.47192 3.09687 2.4438 3.125 2.40942 3.125H1.47192C1.43755 3.125 1.40942 3.09687 1.40942 3.0625V0.4375C1.40942 0.195312 1.60474 0 1.84692 0H6.28442C6.52661 0 6.72192 0.195312 6.72192 0.4375V11.9375C6.72192 12.1797 6.52661 12.375 6.28442 12.375H1.84692C1.60474 12.375 1.40942 12.1797 1.40942 11.9375V9.3125C1.40942 9.27812 1.43755 9.25 1.47192 9.25H2.40942C2.4438 9.25 2.47192 9.27812 2.47192 9.3125V11.3125H5.65942V6.71875H3.47192V8.05313C3.47192 8.1125 3.40317 8.14688 3.35786 8.10938L1.00005 6.24375C0.962549 6.21562 0.962549 6.15937 1.00005 6.13125ZM8.06216 0H12.4997C12.7418 0 12.9372 0.195312 12.9372 0.4375V3.0625C12.9372 3.09687 12.909 3.125 12.8747 3.125H11.9372C11.9028 3.125 11.8747 3.09687 11.8747 3.0625V1.0625H8.68716V5.65625H10.8747V4.32188C10.8747 4.2625 10.9418 4.22813 10.9887 4.26562L13.3481 6.13125C13.384 6.15937 13.384 6.21406 13.3481 6.24219L10.9887 8.10938C10.9434 8.14531 10.8747 8.1125 10.8747 8.05313V6.71875H8.68716V11.3125H11.8747V9.3125C11.8747 9.27812 11.9028 9.25 11.9372 9.25H12.8747C12.909 9.25 12.9372 9.27812 12.9372 9.3125V11.9375C12.9372 12.1797 12.7418 12.375 12.4997 12.375H8.06216C7.81997 12.375 7.62466 12.1797 7.62466 11.9375V0.4375C7.62466 0.195312 7.81997 0 8.06216 0Z" fill="#848888"/>
</svg>
