<svg width="13" height="13" viewBox="0 0 13 13" fill="none" xmlns="http://www.w3.org/2000/svg">
<path d="M11.6998 10.8333H4.43145L8.72222 7.26917C8.84409 7.16846 8.94082 7.04864 9.00683 6.91663C9.07285 6.78461 9.10683 6.64301 9.10683 6.5C9.10683 6.35699 9.07285 6.21539 9.00683 6.08338C8.94082 5.95136 8.84409 5.83154 8.72222 5.73083L4.43145 2.16667H11.6998C12.0446 2.16667 12.3753 2.05253 12.6192 1.84937C12.863 1.6462 13 1.37065 13 1.08333C13 0.796016 12.863 0.520466 12.6192 0.317301C12.3753 0.114137 12.0446 0 11.6998 0H1.29788C1.04118 0.00106761 0.790601 0.0654202 0.577726 0.184948C0.364851 0.304475 0.199204 0.473829 0.10166 0.671667C0.00208911 0.868953 -0.025115 1.08639 0.0234802 1.29655C0.0720754 1.5067 0.194292 1.70016 0.37471 1.8525L5.96572 6.5L0.37471 11.1475C0.194292 11.2998 0.0720754 11.4933 0.0234802 11.7035C-0.025115 11.9136 0.00208911 12.131 0.10166 12.3283C0.199204 12.5262 0.364851 12.6955 0.577726 12.8151C0.790601 12.9346 1.04118 12.9989 1.29788 13H11.6998C12.0446 13 12.3753 12.8859 12.6192 12.6827C12.863 12.4795 13 12.204 13 11.9167C13 11.6293 12.863 11.3538 12.6192 11.1506C12.3753 10.9475 12.0446 10.8333 11.6998 10.8333Z" fill="#848888"/>
</svg>
