<svg width="20" height="12" viewBox="0 0 20 12" fill="none" xmlns="http://www.w3.org/2000/svg">
<path fill-rule="evenodd" clip-rule="evenodd" d="M2.07723 6.50954L0.702062 6.06725L2.07723 5.61614V5L0 5.80319V6.32251L2.07723 7.12571V6.50954Z" fill="#858383"/>
<path fill-rule="evenodd" clip-rule="evenodd" d="M17.9228 6.5267L19.2979 6.0844L17.9228 5.6333V5.01715L20 5.82034V6.33966L17.9228 7.14286V6.5267Z" fill="#858383"/>
<path d="M10 4.07143C6.4496 4.07143 3.57143 3.16001 3.57143 2.03571C3.57143 0.91142 6.4496 0 10 0C13.5504 0 16.4286 0.91142 16.4286 2.03571C16.4286 3.16001 13.5504 4.07143 10 4.07143Z" fill="#D8D8D8"/>
<path d="M10 5.21418C13.5502 5.21418 16.4286 4.30286 16.4286 3.17847V5.89275C16.4286 7.01715 13.5502 7.92847 10 7.92847C6.44983 7.92847 3.57144 7.01715 3.57144 5.89275V3.17847C3.57144 4.30286 6.44983 5.21418 10 5.21418Z" fill="#D8D8D8"/>
<path d="M10 9.2857C13.5502 9.2857 16.4286 8.37439 16.4286 7.25V9.96427C16.4286 11.0887 13.5502 12 10 12C6.44983 12 3.57144 11.0887 3.57144 9.96427V7.25C3.57144 8.37439 6.44983 9.2857 10 9.2857Z" fill="#D8D8D8"/>
</svg>
