<svg width="17" height="16" viewBox="0 0 17 16" fill="none" xmlns="http://www.w3.org/2000/svg">
<path d="M3.00001 0C3.79566 0 4.55872 0.27861 5.12133 0.77454C5.68394 1.27047 6.00001 1.94309 6.00001 2.64444C6.00001 3.78156 5.19001 4.75119 4.04001 5.12141C4.58001 9.52882 9.08 10.375 11.19 10.5425C11.4005 10.0351 11.7831 9.59703 12.2858 9.28793C12.7886 8.97882 13.3871 8.81364 14 8.81481C14.7957 8.81481 15.5587 9.09342 16.1213 9.58935C16.6839 10.0853 17 10.7579 17 11.4593C17 12.1606 16.6839 12.8332 16.1213 13.3292C15.5587 13.8251 14.7957 14.1037 14 14.1037C12.69 14.1037 11.57 13.3633 11.16 12.3407C6.91001 12.1644 5.44001 10.7453 4.00001 9.15859V10.7276C5.17001 11.089 6.00001 12.0675 6.00001 13.2222C6.00001 13.9236 5.68394 14.5962 5.12133 15.0921C4.55872 15.5881 3.79566 15.8667 3.00001 15.8667C2.20436 15.8667 1.4413 15.5881 0.878692 15.0921C0.316083 14.5962 1.25144e-05 13.9236 1.25144e-05 13.2222C1.25144e-05 12.0675 0.830012 11.089 2.00001 10.7276V5.13904C1.41404 4.95779 0.906624 4.62022 0.548223 4.17319C0.189821 3.72615 -0.0017837 3.19184 1.25144e-05 2.64444C1.25144e-05 1.94309 0.316083 1.27047 0.878692 0.77454C1.4413 0.27861 2.20436 0 3.00001 0ZM3.00001 1.76296C2.73479 1.76296 2.48044 1.85583 2.2929 2.02114C2.10537 2.18645 2.00001 2.41066 2.00001 2.64444C2.00001 2.87823 2.10537 3.10244 2.2929 3.26775C2.48044 3.43306 2.73479 3.52593 3.00001 3.52593C3.26523 3.52593 3.51958 3.43306 3.70712 3.26775C3.89465 3.10244 4.00001 2.87823 4.00001 2.64444C4.00001 2.41066 3.89465 2.18645 3.70712 2.02114C3.51958 1.85583 3.26523 1.76296 3.00001 1.76296ZM3.00001 12.3407C2.73479 12.3407 2.48044 12.4336 2.2929 12.5989C2.10537 12.7642 2.00001 12.9884 2.00001 13.2222C2.00001 13.456 2.10537 13.6802 2.2929 13.8455C2.48044 14.0108 2.73479 14.1037 3.00001 14.1037C3.26523 14.1037 3.51958 14.0108 3.70712 13.8455C3.89465 13.6802 4.00001 13.456 4.00001 13.2222C4.00001 12.9884 3.89465 12.7642 3.70712 12.5989C3.51958 12.4336 3.26523 12.3407 3.00001 12.3407ZM14 10.5778C13.7348 10.5778 13.4804 10.6706 13.2929 10.836C13.1054 11.0013 13 11.2255 13 11.4593C13 11.693 13.1054 11.9173 13.2929 12.0826C13.4804 12.2479 13.7348 12.3407 14 12.3407C14.2652 12.3407 14.5196 12.2479 14.7071 12.0826C14.8946 11.9173 15 11.693 15 11.4593C15 11.2255 14.8946 11.0013 14.7071 10.836C14.5196 10.6706 14.2652 10.5778 14 10.5778Z" fill="#848888"/>
</svg>
