<svg width="14" height="16" viewBox="0 0 14 16" fill="none" xmlns="http://www.w3.org/2000/svg">
<path d="M6.125 2.66667H7.875V8.88889H6.125V2.66667ZM4.375 15.1111C4.375 15.3469 4.28281 15.573 4.11872 15.7397C3.95462 15.9064 3.73206 16 3.5 16H0.875C0.642936 16 0.420376 15.9064 0.256282 15.7397C0.0921874 15.573 0 15.3469 0 15.1111V10.6667L1.75 2.66667H5.25V8.88889C5.25 9.12464 5.15781 9.35073 4.99372 9.51743C4.82962 9.68413 4.60706 9.77778 4.375 9.77778V15.1111ZM5.25 1.77778H2.625V0H5.25V1.77778ZM9.625 15.1111V9.77778C9.39294 9.77778 9.17038 9.68413 9.00628 9.51743C8.84219 9.35073 8.75 9.12464 8.75 8.88889V2.66667H12.25L14 10.6667V15.1111C14 15.3469 13.9078 15.573 13.7437 15.7397C13.5796 15.9064 13.3571 16 13.125 16H10.5C10.2679 16 10.0454 15.9064 9.88128 15.7397C9.71719 15.573 9.625 15.3469 9.625 15.1111ZM8.75 1.77778V0H11.375V1.77778H8.75Z" fill="#00D4AE"/>
</svg>
