<svg width="21" height="14" viewBox="0 0 21 14" fill="none" xmlns="http://www.w3.org/2000/svg">
<path d="M14.3032 7.00018C13.7751 7.00018 13.2782 6.71893 13.0095 6.26893L11.0001 2.93768L8.99385 6.26893C8.72198 6.72205 8.2251 7.0033 7.69698 7.0033C7.55635 7.0033 7.41573 6.98455 7.28135 6.94393L3.0001 5.71893V11.2814C3.0001 11.7408 3.3126 12.1408 3.75635 12.2502L10.5126 13.9408C10.8314 14.0189 11.1657 14.0189 11.4814 13.9408L18.2439 12.2502C18.6876 12.1377 19.0001 11.7377 19.0001 11.2814V5.71893L14.7189 6.9408C14.5845 6.98143 14.4439 7.00018 14.3032 7.00018ZM20.947 3.49393L19.3376 0.281429C19.2407 0.0876786 19.0314 -0.0248215 18.8157 0.00330352L11.0001 1.00018L13.8657 5.7533C13.9845 5.95018 14.222 6.04393 14.4439 5.98143L20.6282 4.2158C20.9376 4.12518 21.0876 3.78143 20.947 3.49393ZM2.6626 0.281429L1.05323 3.49393C0.909477 3.78143 1.0626 4.12518 1.36885 4.21268L7.55323 5.9783C7.7751 6.0408 8.0126 5.94705 8.13135 5.75018L11.0001 1.00018L3.18135 0.00330352C2.96573 -0.0216965 2.75948 0.0876786 2.6626 0.281429Z" fill="#848888"/>
</svg>
