<svg width="15" height="13" viewBox="0 0 15 13" fill="none" xmlns="http://www.w3.org/2000/svg">
<path d="M8.74926 13C8.66906 12.9999 8.58939 12.987 8.51332 12.9616L6.00863 12.1281C5.85968 12.0781 5.73029 11.9823 5.63885 11.8545C5.5474 11.7268 5.49856 11.5734 5.49926 11.4163V7.69094C5.49857 7.68942 5.49762 7.68805 5.49645 7.68688L0.226134 1.54813C0.10927 1.41198 0.033929 1.24516 0.0090541 1.06747C-0.0158208 0.889786 0.0108157 0.708691 0.0858012 0.545691C0.160787 0.38269 0.280972 0.244631 0.432087 0.147903C0.583202 0.0511757 0.7589 -0.000156682 0.938321 3.5925e-07H14.0618C14.2412 -0.000156682 14.4169 0.0511757 14.568 0.147903C14.7191 0.244631 14.8393 0.38269 14.9143 0.545691C14.9893 0.708691 15.0159 0.889786 14.991 1.06747C14.9662 1.24516 14.8908 1.41198 14.7739 1.54813L9.50207 7.6875C9.501 7.68875 9.50005 7.69012 9.49926 7.69156V12.25C9.49955 12.3486 9.48035 12.4462 9.44276 12.5374C9.40517 12.6285 9.34993 12.7113 9.28023 12.781C9.21053 12.8507 9.12774 12.9059 9.03661 12.9435C8.94549 12.9811 8.84783 13.0003 8.74926 13Z" fill="#848888"/>
</svg>
