<svg width="13" height="13" viewBox="0 0 13 13" fill="none" xmlns="http://www.w3.org/2000/svg">
<path d="M5.72188 6.13125L3.36406 4.26562C3.31719 4.22813 3.25 4.2625 3.25 4.32188V5.65625H1.0625V1.0625H4.25V3.0625C4.25 3.09687 4.27812 3.125 4.3125 3.125H5.25C5.28438 3.125 5.3125 3.09687 5.3125 3.0625V0.4375C5.3125 0.195312 5.11719 0 4.875 0H0.4375C0.195312 0 0 0.195312 0 0.4375V11.9375C0 12.1797 0.195312 12.375 0.4375 12.375H4.875C5.11719 12.375 5.3125 12.1797 5.3125 11.9375V9.3125C5.3125 9.27812 5.28438 9.25 5.25 9.25H4.3125C4.27812 9.25 4.25 9.27812 4.25 9.3125V11.3125H1.0625V6.71875H3.25V8.05313C3.25 8.1125 3.31875 8.14688 3.36406 8.10938L5.72188 6.24375C5.75938 6.21562 5.75938 6.15937 5.72188 6.13125ZM11.9375 0H7.5C7.25781 0 7.0625 0.195312 7.0625 0.4375V3.0625C7.0625 3.09687 7.09062 3.125 7.125 3.125H8.0625C8.09688 3.125 8.125 3.09687 8.125 3.0625V1.0625H11.3125V5.65625H9.125V4.32188C9.125 4.2625 9.05781 4.22813 9.01094 4.26562L6.65156 6.13125C6.61563 6.15937 6.61563 6.21406 6.65156 6.24219L9.01094 8.10938C9.05625 8.14531 9.125 8.1125 9.125 8.05313V6.71875H11.3125V11.3125H8.125V9.3125C8.125 9.27812 8.09688 9.25 8.0625 9.25H7.125C7.09062 9.25 7.0625 9.27812 7.0625 9.3125V11.9375C7.0625 12.1797 7.25781 12.375 7.5 12.375H11.9375C12.1797 12.375 12.375 12.1797 12.375 11.9375V0.4375C12.375 0.195312 12.1797 0 11.9375 0Z" fill="#848888"/>
</svg>
