<svg width="16" height="16" viewBox="0 0 16 16" fill="none" xmlns="http://www.w3.org/2000/svg">
<path d="M4.512 9.888C4.112 9.704 3.672 9.6 3.2 9.6C1.432 9.6 0 11.032 0 12.8C0 14.568 1.432 16 3.2 16C4.968 16 6.4 14.568 6.4 12.8C6.4 12.328 6.296 11.888 6.112 11.488L8 9.6L9.888 11.488C9.704 11.888 9.6 12.328 9.6 12.8C9.6 14.568 11.032 16 12.8 16C14.568 16 16 14.568 16 12.8C16 11.032 14.568 9.6 12.8 9.6C12.328 9.6 11.888 9.704 11.488 9.888L9.6 8L15.2 2.4L15.2 -2.38419e-07H14.4L4.512 9.888ZM4.8 12.8C4.80482 13.0131 4.76702 13.225 4.68882 13.4232C4.61063 13.6215 4.49361 13.8021 4.34464 13.9545C4.19567 14.107 4.01775 14.2281 3.82132 14.3108C3.6249 14.3935 3.41393 14.4361 3.20081 14.4362C2.98768 14.4362 2.77669 14.3937 2.58023 14.3111C2.38377 14.2285 2.20579 14.1075 2.05674 13.9551C1.90769 13.8028 1.79058 13.6222 1.71229 13.424C1.63399 13.2257 1.59609 13.0139 1.6008 12.8008C1.61004 12.3828 1.78258 11.9849 2.08147 11.6925C2.38036 11.4001 2.78186 11.2363 3.20001 11.2362C3.61816 11.2361 4.01974 11.3997 4.31877 11.6919C4.61781 11.9842 4.79055 12.382 4.8 12.8ZM14.4 12.8C14.4048 13.0131 14.367 13.225 14.2888 13.4232C14.2106 13.6215 14.0936 13.8021 13.9446 13.9545C13.7957 14.107 13.6177 14.2281 13.4213 14.3108C13.2249 14.3935 13.0139 14.4361 12.8008 14.4362C12.5877 14.4362 12.3767 14.3937 12.1802 14.3111C11.9838 14.2285 11.8058 14.1075 11.6567 13.9551C11.5077 13.8028 11.3906 13.6222 11.3123 13.424C11.234 13.2257 11.1961 13.0139 11.2008 12.8008C11.21 12.3828 11.3826 11.9849 11.6815 11.6925C11.9804 11.4001 12.3819 11.2363 12.8 11.2362C13.2182 11.2361 13.6197 11.3997 13.9188 11.6919C14.2178 11.9842 14.3905 12.382 14.4 12.8V12.8ZM8.4 8C8.4 8.224 8.224 8.4 8 8.4C7.776 8.4 7.6 8.224 7.6 8C7.6 7.776 7.776 7.6 8 7.6C8.224 7.6 8.4 7.776 8.4 8ZM0.8 2.4L5.6 7.2L7.2 5.6L1.6 -2.38419e-07H0.8L0.8 2.4Z" fill="#D8D8D8"/>
</svg>
