<svg width="16" height="14" viewBox="0 0 16 14" fill="none" xmlns="http://www.w3.org/2000/svg">
<path d="M7.44 5.52957V7.34146H5.75C5.668 7.34146 5.6 7.40762 5.6 7.49085V8.3872C5.6 8.46829 5.668 8.53659 5.75 8.53659H7.44V10.3485C7.44 10.4317 7.504 10.5 7.58 10.5H8.42C8.498 10.5 8.56 10.4317 8.56 10.3485V8.53659H10.25C10.332 8.53659 10.4 8.46829 10.4 8.3872V7.49085C10.4 7.40762 10.332 7.34146 10.25 7.34146H8.56V5.52957C8.56 5.44634 8.498 5.37805 8.42 5.37805H7.58C7.504 5.37805 7.44 5.44634 7.44 5.52957ZM15.36 2.44146H8.18L5.834 0.0469512C5.80415 0.0171324 5.76489 0.000374109 5.724 0H0.64C0.286 0 0 0.305183 0 0.682927V13.3171C0 13.6948 0.286 14 0.64 14H15.36C15.714 14 16 13.6948 16 13.3171V3.12439C16 2.74665 15.714 2.44146 15.36 2.44146ZM14.56 12.4634H1.44V1.53659H5.21L7.602 3.97805H14.56V12.4634Z" fill="#D8D8D8"/>
</svg>
