<svg width="14" height="16" viewBox="0 0 14 16" fill="none" xmlns="http://www.w3.org/2000/svg">
<path d="M10.1284 4.33028V3.44954C10.1284 3.36881 10.0624 3.30275 9.98165 3.30275H2.93578C2.85505 3.30275 2.78899 3.36881 2.78899 3.44954V4.33028C2.78899 4.41101 2.85505 4.47706 2.93578 4.47706H9.98165C10.0624 4.47706 10.1284 4.41101 10.1284 4.33028ZM2.93578 5.94495C2.85505 5.94495 2.78899 6.01101 2.78899 6.09174V6.97248C2.78899 7.05321 2.85505 7.11927 2.93578 7.11927H6.31193C6.39266 7.11927 6.45872 7.05321 6.45872 6.97248V6.09174C6.45872 6.01101 6.39266 5.94495 6.31193 5.94495H2.93578ZM5.57798 14.2385H1.3211V1.3211H11.5963V7.63303C11.5963 7.71376 11.6624 7.77982 11.7431 7.77982H12.7706C12.8514 7.77982 12.9174 7.71376 12.9174 7.63303V0.587156C12.9174 0.262385 12.655 0 12.3303 0H0.587156C0.262385 0 0 0.262385 0 0.587156V14.9725C0 15.2972 0.262385 15.5596 0.587156 15.5596H5.57798C5.65872 15.5596 5.72477 15.4936 5.72477 15.4128V14.3853C5.72477 14.3046 5.65872 14.2385 5.57798 14.2385ZM13.756 15.1835L12.044 13.4716C12.4532 12.9303 12.6972 12.255 12.6972 11.5229C12.6972 9.73945 11.2514 8.29358 9.46789 8.29358C7.6844 8.29358 6.23853 9.73945 6.23853 11.5229C6.23853 13.3064 7.6844 14.7523 9.46789 14.7523C10.1248 14.7523 10.7339 14.556 11.244 14.2202L12.9817 15.9578C13.011 15.9872 13.0477 16 13.0844 16C13.1211 16 13.1596 15.9853 13.1872 15.9578L13.756 15.389C13.7695 15.3755 13.7802 15.3595 13.7876 15.3419C13.7949 15.3242 13.7987 15.3053 13.7987 15.2862C13.7987 15.2671 13.7949 15.2482 13.7876 15.2306C13.7802 15.213 13.7695 15.197 13.756 15.1835V15.1835ZM9.46789 13.578C8.33211 13.578 7.41284 12.6587 7.41284 11.5229C7.41284 10.3872 8.33211 9.46789 9.46789 9.46789C10.6037 9.46789 11.5229 10.3872 11.5229 11.5229C11.5229 12.6587 10.6037 13.578 9.46789 13.578Z" fill="#D8D8D8"/>
</svg>
