<svg width="16" height="16" viewBox="0 0 16 16" fill="none" xmlns="http://www.w3.org/2000/svg">
<path d="M12.7108 12.6414C13.0537 12.1253 13.2485 11.5044 13.2485 10.8462C13.2485 8.97616 11.6899 7.48013 9.74156 7.48013C7.79325 7.48013 6.2346 8.97616 6.2346 10.8462C6.2346 12.7162 7.79325 14.2122 9.74156 14.2122C10.4196 14.2122 11.0586 14.0252 11.5964 13.7036L14.0278 16L15.1111 14.9603L12.7108 12.6414ZM9.74156 12.7162C9.22484 12.7162 8.72928 12.5192 8.3639 12.1685C7.99852 11.8178 7.79325 11.3422 7.79325 10.8462C7.79325 10.3502 7.99852 9.87458 8.3639 9.52388C8.72928 9.17318 9.22484 8.97616 9.74156 8.97616C10.2583 8.97616 10.7538 9.17318 11.1192 9.52388C11.4846 9.87458 11.6899 10.3502 11.6899 10.8462C11.6899 11.3422 11.4846 11.8178 11.1192 12.1685C10.7538 12.5192 10.2583 12.7162 9.74156 12.7162ZM5.13575 12.8658L0 9.02852L1.26251 8.08602L4.67595 10.6367V10.8462C4.67595 11.5643 4.8474 12.2525 5.13575 12.8658ZM5.06561 9.00608L0 5.23609L7.01392 0L14.0278 5.23609L12.2042 6.59748C11.65 6.30756 11.0451 6.11743 10.4196 6.03647L11.4872 5.23609L7.01392 1.89247L2.5406 5.23609L5.86832 7.7195C5.53321 8.10846 5.25265 8.54231 5.06561 9.00608Z" fill="#D8D8D8"/>
</svg>
