<svg width="16" height="16" viewBox="0 0 16 16" fill="none" xmlns="http://www.w3.org/2000/svg">
<path d="M1.56455 1.91902C0.696226 1.91902 0 2.61525 0 3.48357V14.4354C0 14.8504 0.164836 15.2483 0.458247 15.5418C0.751658 15.8352 1.14961 16 1.56455 16H12.5164C12.9314 16 13.3293 15.8352 13.6227 15.5418C13.9161 15.2483 14.081 14.8504 14.081 14.4354V8.95951H12.5164V14.4354H1.56455V3.48357H7.04049V1.91902H1.56455ZM14.2633 0C14.1226 0.00118811 13.9878 0.0573306 13.8879 0.156455L12.9335 1.10301L14.8892 3.0587L15.8435 2.11215C16.0469 1.90875 16.0469 1.56455 15.8435 1.36898L14.631 0.156455C14.5293 0.0547589 14.3963 0 14.2633 0ZM12.3781 1.65843L6.61268 7.43163V9.38732H8.56837L14.3338 3.61412L12.3781 1.65843Z" fill="#D8D8D8"/>
</svg>
