<svg width="105" height="18" viewBox="0 0 105 18" fill="none" xmlns="http://www.w3.org/2000/svg">
<rect x="74.5" y="0.5" width="30" height="17" rx="3.5" stroke="#C4C4C4" stroke-linejoin="round" stroke-dasharray="4 4"/>
<rect x="0.5" y="0.5" width="67" height="17" rx="3.5" fill="#C4C4C4" stroke="#C4C4C4"/>
<path d="M32.8013 11H29.5405V10.5454L31.2632 8.63135C31.5184 8.34196 31.6938 8.10726 31.7896 7.92725C31.8875 7.74495 31.9365 7.55697 31.9365 7.36328C31.9365 7.10352 31.8579 6.89046 31.7007 6.72412C31.5435 6.55778 31.3338 6.47461 31.0718 6.47461C30.7573 6.47461 30.5124 6.56462 30.3369 6.74463C30.1637 6.92236 30.0771 7.17074 30.0771 7.48975H29.4448C29.4448 7.03174 29.5918 6.66146 29.8857 6.37891C30.182 6.09635 30.5773 5.95508 31.0718 5.95508C31.5343 5.95508 31.9001 6.07699 32.1689 6.3208C32.4378 6.56234 32.5723 6.88477 32.5723 7.28809C32.5723 7.77799 32.2601 8.36133 31.6357 9.03809L30.3027 10.4839H32.8013V11ZM33.6626 11.4272H33.1191L35.1973 6.02344H35.7373L33.6626 11.4272ZM37.2754 8.2041H37.7505C38.049 8.19954 38.2837 8.12093 38.4546 7.96826C38.6255 7.81559 38.7109 7.60938 38.7109 7.34961C38.7109 6.76628 38.4204 6.47461 37.8394 6.47461C37.5659 6.47461 37.3472 6.55322 37.1831 6.71045C37.0213 6.8654 36.9404 7.07161 36.9404 7.3291H36.3081C36.3081 6.9349 36.4517 6.60791 36.7388 6.34814C37.0282 6.0861 37.395 5.95508 37.8394 5.95508C38.3088 5.95508 38.6768 6.07926 38.9434 6.32764C39.21 6.57601 39.3433 6.92122 39.3433 7.36328C39.3433 7.57975 39.2726 7.78939 39.1313 7.99219C38.9924 8.19499 38.8021 8.34652 38.5605 8.44678C38.834 8.53337 39.0448 8.67692 39.1929 8.87744C39.3433 9.07796 39.4185 9.32292 39.4185 9.6123C39.4185 10.0589 39.2726 10.4132 38.981 10.6753C38.6893 10.9373 38.3099 11.0684 37.8428 11.0684C37.3757 11.0684 36.9951 10.9419 36.7012 10.689C36.4095 10.436 36.2637 10.1022 36.2637 9.6875H36.8994C36.8994 9.94954 36.9849 10.1592 37.1558 10.3164C37.3267 10.4736 37.5557 10.5522 37.8428 10.5522C38.1481 10.5522 38.3817 10.4725 38.5435 10.313C38.7052 10.1535 38.7861 9.92448 38.7861 9.62598C38.7861 9.33659 38.6973 9.11442 38.5195 8.95947C38.3418 8.80452 38.0854 8.72477 37.7505 8.72021H37.2754V8.2041Z" fill="#565656"/>
</svg>
