<svg width="105" height="18" viewBox="0 0 105 18" fill="none" xmlns="http://www.w3.org/2000/svg">
<rect x="55.5" y="0.5" width="49" height="17" rx="3.5" stroke="#C4C4C4" stroke-dasharray="4 4"/>
<rect x="0.5" y="0.5" width="49" height="17" rx="3.5" fill="#C4C4C4" stroke="#C4C4C4"/>
<path d="M23.4355 11H22.7759V8.69971H20.2671V11H19.6108V6.02344H20.2671V8.16309H22.7759V6.02344H23.4355V11ZM26.7852 11C26.7487 10.9271 26.7191 10.7972 26.6963 10.6104C26.4023 10.9157 26.0514 11.0684 25.6436 11.0684C25.279 11.0684 24.9793 10.9658 24.7446 10.7607C24.5122 10.5534 24.396 10.2913 24.396 9.97461C24.396 9.58952 24.5418 9.29102 24.8335 9.0791C25.1274 8.86491 25.5399 8.75781 26.0708 8.75781H26.686V8.46729C26.686 8.24626 26.62 8.0708 26.4878 7.94092C26.3556 7.80876 26.1608 7.74268 25.9033 7.74268C25.6777 7.74268 25.4886 7.79964 25.3359 7.91357C25.1833 8.02751 25.1069 8.16536 25.1069 8.32715H24.4712C24.4712 8.14258 24.5361 7.96484 24.666 7.79395C24.7982 7.62077 24.9759 7.48405 25.1992 7.38379C25.4248 7.28353 25.672 7.2334 25.9409 7.2334C26.367 7.2334 26.7008 7.34049 26.9424 7.55469C27.1839 7.7666 27.3092 8.05941 27.3184 8.43311V10.1353C27.3184 10.4748 27.3617 10.7448 27.4482 10.9453V11H26.7852ZM25.7358 10.5181C25.9341 10.5181 26.1221 10.4668 26.2998 10.3643C26.4775 10.2617 26.6063 10.1284 26.686 9.96436V9.20557H26.1904C25.4157 9.20557 25.0283 9.43229 25.0283 9.88574C25.0283 10.084 25.0944 10.2389 25.2266 10.3506C25.3587 10.4622 25.5285 10.5181 25.7358 10.5181ZM28.9966 11H28.3643V5.75H28.9966V11ZM30.3228 11V7.79053H29.7383V7.30176H30.3228V6.92236C30.3228 6.52588 30.4287 6.2194 30.6406 6.00293C30.8525 5.78646 31.1522 5.67822 31.5396 5.67822C31.6854 5.67822 31.8301 5.69759 31.9736 5.73633L31.9395 6.24902C31.8324 6.22852 31.7184 6.21826 31.5977 6.21826C31.3926 6.21826 31.2342 6.27865 31.1226 6.39941C31.0109 6.5179 30.9551 6.6888 30.9551 6.91211V7.30176H31.7446V7.79053H30.9551V11H30.3228Z" fill="#565656"/>
</svg>
