<svg width="105" height="18" viewBox="0 0 105 18" fill="none" xmlns="http://www.w3.org/2000/svg">
<rect x="82.5" y="0.5" width="22" height="17" rx="3.5" stroke="#C4C4C4" stroke-linejoin="round" stroke-dasharray="4 4"/>
<rect x="0.5" y="0.5" width="76" height="17" rx="3.5" fill="#C4C4C4" stroke="#C4C4C4"/>
<path d="M34.46 8.2041H34.9351C35.2336 8.19954 35.4683 8.12093 35.6392 7.96826C35.8101 7.81559 35.8955 7.60938 35.8955 7.34961C35.8955 6.76628 35.605 6.47461 35.0239 6.47461C34.7505 6.47461 34.5317 6.55322 34.3677 6.71045C34.2059 6.8654 34.125 7.07161 34.125 7.3291H33.4927C33.4927 6.9349 33.6362 6.60791 33.9233 6.34814C34.2127 6.0861 34.5796 5.95508 35.0239 5.95508C35.4933 5.95508 35.8613 6.07926 36.1279 6.32764C36.3945 6.57601 36.5278 6.92122 36.5278 7.36328C36.5278 7.57975 36.4572 7.78939 36.3159 7.99219C36.1769 8.19499 35.9867 8.34652 35.7451 8.44678C36.0186 8.53337 36.2293 8.67692 36.3774 8.87744C36.5278 9.07796 36.603 9.32292 36.603 9.6123C36.603 10.0589 36.4572 10.4132 36.1655 10.6753C35.8739 10.9373 35.4945 11.0684 35.0273 11.0684C34.5602 11.0684 34.1797 10.9419 33.8857 10.689C33.5941 10.436 33.4482 10.1022 33.4482 9.6875H34.084C34.084 9.94954 34.1694 10.1592 34.3403 10.3164C34.5112 10.4736 34.7402 10.5522 35.0273 10.5522C35.3327 10.5522 35.5662 10.4725 35.728 10.313C35.8898 10.1535 35.9707 9.92448 35.9707 9.62598C35.9707 9.33659 35.8818 9.11442 35.7041 8.95947C35.5264 8.80452 35.27 8.72477 34.9351 8.72021H34.46V8.2041ZM37.6626 11.4272H37.1191L39.1973 6.02344H39.7373L37.6626 11.4272ZM43.0254 9.32861H43.7158V9.84473H43.0254V11H42.3896V9.84473H40.1235V9.47217L42.3521 6.02344H43.0254V9.32861ZM40.8413 9.32861H42.3896V6.88818L42.3145 7.0249L40.8413 9.32861Z" fill="#565656"/>
</svg>
