<svg width="105" height="18" viewBox="0 0 105 18" fill="none" xmlns="http://www.w3.org/2000/svg">
<rect x="74.5" y="0.5" width="30" height="17" rx="3.5" stroke="#C4C4C4" stroke-linejoin="round" stroke-dasharray="4 4"/>
<rect x="37.5" y="0.5" width="30" height="17" rx="3.5" stroke="#C4C4C4" stroke-linejoin="round" stroke-dasharray="4 4"/>
<rect x="0.5" y="0.5" width="30" height="17" rx="3.5" fill="#C4C4C4" stroke="#C4C4C4"/>
<path d="M12.6187 11H11.9829V6.78564L10.708 7.25391V6.67969L12.5195 5.99951H12.6187V11ZM14.6626 11.4272H14.1191L16.1973 6.02344H16.7373L14.6626 11.4272ZM18.2754 8.2041H18.7505C19.049 8.19954 19.2837 8.12093 19.4546 7.96826C19.6255 7.81559 19.7109 7.60938 19.7109 7.34961C19.7109 6.76628 19.4204 6.47461 18.8394 6.47461C18.5659 6.47461 18.3472 6.55322 18.1831 6.71045C18.0213 6.8654 17.9404 7.07161 17.9404 7.3291H17.3081C17.3081 6.9349 17.4517 6.60791 17.7388 6.34814C18.0282 6.0861 18.395 5.95508 18.8394 5.95508C19.3088 5.95508 19.6768 6.07926 19.9434 6.32764C20.21 6.57601 20.3433 6.92122 20.3433 7.36328C20.3433 7.57975 20.2726 7.78939 20.1313 7.99219C19.9924 8.19499 19.8021 8.34652 19.5605 8.44678C19.834 8.53337 20.0448 8.67692 20.1929 8.87744C20.3433 9.07796 20.4185 9.32292 20.4185 9.6123C20.4185 10.0589 20.2726 10.4132 19.981 10.6753C19.6893 10.9373 19.3099 11.0684 18.8428 11.0684C18.3757 11.0684 17.9951 10.9419 17.7012 10.689C17.4095 10.436 17.2637 10.1022 17.2637 9.6875H17.8994C17.8994 9.94954 17.9849 10.1592 18.1558 10.3164C18.3267 10.4736 18.5557 10.5522 18.8428 10.5522C19.1481 10.5522 19.3817 10.4725 19.5435 10.313C19.7052 10.1535 19.7861 9.92448 19.7861 9.62598C19.7861 9.33659 19.6973 9.11442 19.5195 8.95947C19.3418 8.80452 19.0854 8.72477 18.7505 8.72021H18.2754V8.2041Z" fill="#565656"/>
</svg>
