<svg width="105" height="18" viewBox="0 0 105 18" fill="none" xmlns="http://www.w3.org/2000/svg">
<rect x="72.5" y="0.5" width="14" height="17" rx="3.5" stroke="#C4C4C4" stroke-linejoin="round" stroke-dasharray="4 4"/>
<rect x="90.5" y="0.5" width="14" height="17" rx="3.5" stroke="#C4C4C4" stroke-linejoin="round" stroke-dasharray="4 4"/>
<rect x="36.5" y="0.5" width="14" height="17" rx="3.5" stroke="#C4C4C4" stroke-linejoin="round" stroke-dasharray="4 4"/>
<rect x="54.5" y="0.5" width="14" height="17" rx="3.5" stroke="#C4C4C4" stroke-linejoin="round" stroke-dasharray="4 4"/>
<rect x="18.5" y="0.5" width="14" height="17" rx="3.5" stroke="#C4C4C4" stroke-linejoin="round" stroke-dasharray="4 4"/>
<rect x="0.5" y="0.5" width="14" height="17" rx="3.5" fill="#C4C4C4" stroke="#C4C4C4"/>
<path d="M4.61865 11H3.98291V6.78564L2.70801 7.25391V6.67969L4.51953 5.99951H4.61865V11ZM6.6626 11.4272H6.11914L8.19727 6.02344H8.7373L6.6626 11.4272ZM11.8374 6.02002V6.55664H11.7212C11.229 6.56576 10.8371 6.71159 10.5454 6.99414C10.2537 7.27669 10.0851 7.67432 10.0396 8.18701C10.3016 7.88623 10.6593 7.73584 11.1128 7.73584C11.5457 7.73584 11.891 7.88851 12.1484 8.19385C12.4082 8.49919 12.5381 8.89339 12.5381 9.37646C12.5381 9.88916 12.3979 10.2993 12.1177 10.6069C11.8397 10.9146 11.466 11.0684 10.9966 11.0684C10.5203 11.0684 10.1341 10.8861 9.83789 10.5215C9.54167 10.1546 9.39355 9.68294 9.39355 9.10645V8.86377C9.39355 7.94775 9.58838 7.24821 9.97803 6.76514C10.37 6.27979 10.9521 6.03141 11.7246 6.02002H11.8374ZM11.0068 8.26221C10.7904 8.26221 10.591 8.32715 10.4087 8.45703C10.2264 8.58691 10.0999 8.74984 10.0293 8.9458V9.17822C10.0293 9.58838 10.1216 9.91878 10.3062 10.1694C10.4907 10.4201 10.7209 10.5454 10.9966 10.5454C11.2814 10.5454 11.5047 10.4406 11.6665 10.231C11.8306 10.0213 11.9126 9.74674 11.9126 9.40723C11.9126 9.06543 11.8294 8.78971 11.6631 8.58008C11.499 8.36816 11.2803 8.26221 11.0068 8.26221Z" fill="#565656"/>
</svg>
