<svg width="105" height="18" viewBox="0 0 105 18" fill="none" xmlns="http://www.w3.org/2000/svg">
<rect x="0.5" y="0.5" width="104" height="17" rx="3.5" fill="#C4C4C4" stroke="#C4C4C4"/>
<path d="M42.4297 8.80225H40.3413V11H39.6851V6.02344H42.7681V6.56348H40.3413V8.26562H42.4297V8.80225ZM45.6631 10.6343C45.417 10.9237 45.0558 11.0684 44.5796 11.0684C44.1854 11.0684 43.8846 10.9544 43.6772 10.7266C43.4722 10.4964 43.3685 10.1569 43.3662 9.70801V7.30176H43.9985V9.69092C43.9985 10.2515 44.2264 10.5317 44.6821 10.5317C45.1652 10.5317 45.4865 10.3517 45.646 9.9917V7.30176H46.2783V11H45.6768L45.6631 10.6343ZM47.9292 11H47.2969V5.75H47.9292V11ZM49.6313 11H48.999V5.75H49.6313V11ZM53.9482 8.78174C53.3854 8.61995 52.9753 8.42171 52.7178 8.18701C52.4626 7.95003 52.335 7.65837 52.335 7.31201C52.335 6.92008 52.491 6.59652 52.8032 6.34131C53.1177 6.08382 53.5256 5.95508 54.0269 5.95508C54.3687 5.95508 54.6729 6.02116 54.9395 6.15332C55.2083 6.28548 55.4157 6.46777 55.5615 6.7002C55.7096 6.93262 55.7837 7.18669 55.7837 7.4624H55.124C55.124 7.16162 55.0283 6.92578 54.8369 6.75488C54.6455 6.58171 54.3755 6.49512 54.0269 6.49512C53.7033 6.49512 53.4504 6.56689 53.2681 6.71045C53.0881 6.85173 52.998 7.04883 52.998 7.30176C52.998 7.50456 53.0835 7.6766 53.2544 7.81787C53.4276 7.95687 53.7204 8.08447 54.1328 8.20068C54.5475 8.31689 54.8711 8.44564 55.1035 8.58691C55.3382 8.72591 55.5114 8.88883 55.623 9.07568C55.737 9.26253 55.7939 9.48242 55.7939 9.73535C55.7939 10.1387 55.6367 10.4622 55.3223 10.7061C55.0078 10.9476 54.5874 11.0684 54.061 11.0684C53.7192 11.0684 53.4002 11.0034 53.104 10.8735C52.8078 10.7414 52.5788 10.5614 52.417 10.3335C52.2575 10.1056 52.1777 9.84701 52.1777 9.55762H52.8374C52.8374 9.8584 52.9479 10.0965 53.1689 10.272C53.3923 10.4451 53.6896 10.5317 54.061 10.5317C54.4074 10.5317 54.6729 10.4611 54.8574 10.3198C55.042 10.1785 55.1343 9.986 55.1343 9.74219C55.1343 9.49837 55.0488 9.31038 54.8779 9.17822C54.707 9.04378 54.3971 8.91162 53.9482 8.78174ZM57.2261 11H56.5938V7.30176H57.2261V11ZM56.5425 6.3208C56.5425 6.21826 56.5732 6.13167 56.6348 6.06104C56.6986 5.9904 56.792 5.95508 56.915 5.95508C57.0381 5.95508 57.1315 5.9904 57.1953 6.06104C57.2591 6.13167 57.291 6.21826 57.291 6.3208C57.291 6.42334 57.2591 6.50879 57.1953 6.57715C57.1315 6.64551 57.0381 6.67969 56.915 6.67969C56.792 6.67969 56.6986 6.64551 56.6348 6.57715C56.5732 6.50879 56.5425 6.42334 56.5425 6.3208ZM58.8359 10.4839H60.9995V11H58.0635V10.5352L60.104 7.82471H58.0942V7.30176H60.897V7.74951L58.8359 10.4839ZM63.1938 11.0684C62.6925 11.0684 62.2847 10.9043 61.9702 10.5762C61.6558 10.2458 61.4985 9.80485 61.4985 9.25342V9.13721C61.4985 8.77035 61.568 8.44336 61.707 8.15625C61.8483 7.86686 62.0443 7.64128 62.2949 7.47949C62.5479 7.31543 62.8213 7.2334 63.1152 7.2334C63.596 7.2334 63.9697 7.39176 64.2363 7.7085C64.5029 8.02523 64.6362 8.47868 64.6362 9.06885V9.33203H62.1309C62.14 9.69661 62.2459 9.9917 62.4487 10.2173C62.6538 10.4406 62.9136 10.5522 63.228 10.5522C63.4513 10.5522 63.6405 10.5067 63.7954 10.4155C63.9504 10.3244 64.0859 10.2036 64.2021 10.0532L64.5884 10.354C64.2785 10.8302 63.8136 11.0684 63.1938 11.0684ZM63.1152 7.75293C62.86 7.75293 62.6458 7.84635 62.4727 8.0332C62.2995 8.21777 62.1924 8.47754 62.1514 8.8125H64.0039V8.76465C63.9857 8.44336 63.8991 8.19499 63.7441 8.01953C63.5892 7.8418 63.3796 7.75293 63.1152 7.75293Z" fill="#565656"/>
</svg>
