<svg width="117" height="51" viewBox="0 0 117 51" fill="none" xmlns="http://www.w3.org/2000/svg">
<rect x="0.5" y="18.5" width="116" height="14" rx="3.5" stroke="#C4C4C4" stroke-linejoin="round" stroke-dasharray="4 4"/>
<rect x="0.5" y="36.5" width="116" height="14" rx="3.5" stroke="#C4C4C4" stroke-linejoin="round" stroke-dasharray="4 4"/>
<rect x="0.5" y="0.5" width="116" height="14" rx="3.5" fill="#C4C4C4" stroke="#C4C4C4"/>
<path d="M47.2134 9.1665H46.5776V4.95215L45.3027 5.42041V4.84619L47.1143 4.16602H47.2134V9.1665ZM49.2573 9.59375H48.7139L50.792 4.18994H51.332L49.2573 9.59375ZM52.8701 6.37061H53.3452C53.6437 6.36605 53.8784 6.28743 54.0493 6.13477C54.2202 5.9821 54.3057 5.77588 54.3057 5.51611C54.3057 4.93278 54.0151 4.64111 53.4341 4.64111C53.1606 4.64111 52.9419 4.71973 52.7778 4.87695C52.616 5.0319 52.5352 5.23812 52.5352 5.49561H51.9028C51.9028 5.1014 52.0464 4.77441 52.3335 4.51465C52.6229 4.2526 52.9897 4.12158 53.4341 4.12158C53.9035 4.12158 54.2715 4.24577 54.5381 4.49414C54.8047 4.74251 54.938 5.08773 54.938 5.52979C54.938 5.74626 54.8674 5.95589 54.7261 6.15869C54.5871 6.36149 54.3968 6.51302 54.1553 6.61328C54.4287 6.69987 54.6395 6.84342 54.7876 7.04395C54.938 7.24447 55.0132 7.48942 55.0132 7.77881C55.0132 8.22542 54.8674 8.57975 54.5757 8.8418C54.284 9.10384 53.9046 9.23486 53.4375 9.23486C52.9704 9.23486 52.5898 9.1084 52.2959 8.85547C52.0042 8.60254 51.8584 8.26872 51.8584 7.854H52.4941C52.4941 8.11605 52.5796 8.32568 52.7505 8.48291C52.9214 8.64014 53.1504 8.71875 53.4375 8.71875C53.7428 8.71875 53.9764 8.639 54.1382 8.47949C54.3 8.31999 54.3809 8.09098 54.3809 7.79248C54.3809 7.50309 54.292 7.28092 54.1143 7.12598C53.9365 6.97103 53.6802 6.89128 53.3452 6.88672H52.8701V6.37061ZM59.248 6.94824C58.6852 6.78646 58.2751 6.58822 58.0176 6.35352C57.7624 6.11654 57.6348 5.82487 57.6348 5.47852C57.6348 5.08659 57.7909 4.76302 58.103 4.50781C58.4175 4.25033 58.8254 4.12158 59.3267 4.12158C59.6685 4.12158 59.9727 4.18766 60.2393 4.31982C60.5081 4.45199 60.7155 4.63428 60.8613 4.8667C61.0094 5.09912 61.0835 5.35319 61.0835 5.62891H60.4238C60.4238 5.32812 60.3281 5.09229 60.1367 4.92139C59.9453 4.74821 59.6753 4.66162 59.3267 4.66162C59.0031 4.66162 58.7502 4.7334 58.5679 4.87695C58.3879 5.01823 58.2979 5.21533 58.2979 5.46826C58.2979 5.67106 58.3833 5.8431 58.5542 5.98438C58.7274 6.12337 59.0202 6.25098 59.4326 6.36719C59.8473 6.4834 60.1709 6.61214 60.4033 6.75342C60.638 6.89242 60.8112 7.05534 60.9229 7.24219C61.0368 7.42904 61.0938 7.64893 61.0938 7.90186C61.0938 8.30518 60.9365 8.62874 60.6221 8.87256C60.3076 9.1141 59.8872 9.23486 59.3608 9.23486C59.019 9.23486 58.7 9.16992 58.4038 9.04004C58.1076 8.90788 57.8786 8.72786 57.7168 8.5C57.5573 8.27214 57.4775 8.01351 57.4775 7.72412H58.1372C58.1372 8.0249 58.2477 8.26302 58.4688 8.43848C58.6921 8.61165 58.9894 8.69824 59.3608 8.69824C59.7072 8.69824 59.9727 8.6276 60.1572 8.48633C60.3418 8.34505 60.4341 8.15251 60.4341 7.90869C60.4341 7.66488 60.3486 7.47689 60.1777 7.34473C60.0068 7.21029 59.6969 7.07812 59.248 6.94824ZM62.5259 9.1665H61.8936V5.46826H62.5259V9.1665ZM61.8423 4.4873C61.8423 4.38477 61.873 4.29818 61.9346 4.22754C61.9984 4.1569 62.0918 4.12158 62.2148 4.12158C62.3379 4.12158 62.4313 4.1569 62.4951 4.22754C62.5589 4.29818 62.5908 4.38477 62.5908 4.4873C62.5908 4.58984 62.5589 4.67529 62.4951 4.74365C62.4313 4.81201 62.3379 4.84619 62.2148 4.84619C62.0918 4.84619 61.9984 4.81201 61.9346 4.74365C61.873 4.67529 61.8423 4.58984 61.8423 4.4873ZM64.1357 8.65039H66.2993V9.1665H63.3633V8.70166L65.4038 5.99121H63.394V5.46826H66.1968V5.91602L64.1357 8.65039ZM68.4937 9.23486C67.9924 9.23486 67.5845 9.0708 67.27 8.74268C66.9556 8.41227 66.7983 7.97135 66.7983 7.41992V7.30371C66.7983 6.93685 66.8678 6.60986 67.0068 6.32275C67.1481 6.03337 67.3441 5.80778 67.5947 5.646C67.8477 5.48193 68.1211 5.3999 68.415 5.3999C68.8958 5.3999 69.2695 5.55827 69.5361 5.875C69.8027 6.19173 69.936 6.64518 69.936 7.23535V7.49854H67.4307C67.4398 7.86312 67.5457 8.1582 67.7485 8.38379C67.9536 8.6071 68.2134 8.71875 68.5278 8.71875C68.7511 8.71875 68.9403 8.67318 69.0952 8.58203C69.2502 8.49089 69.3857 8.37012 69.502 8.21973L69.8882 8.52051C69.5783 8.99674 69.1134 9.23486 68.4937 9.23486ZM68.415 5.91943C68.1598 5.91943 67.9456 6.01286 67.7725 6.19971C67.5993 6.38428 67.4922 6.64404 67.4512 6.979H69.3037V6.93115C69.2855 6.60986 69.1989 6.36149 69.0439 6.18604C68.889 6.0083 68.6794 5.91943 68.415 5.91943Z" fill="#565656"/>
</svg>
