<svg width="117" height="51" viewBox="0 0 117 51" fill="none" xmlns="http://www.w3.org/2000/svg">
<rect x="0.5" y="0.5" width="116" height="50" rx="3.5" fill="#C4C4C4" stroke="#C4C4C4"/>
<path d="M47.8867 24.9688H45.7983V27.1665H45.1421V22.1899H48.2251V22.73H45.7983V24.4321H47.8867V24.9688ZM51.1201 26.8008C50.874 27.0902 50.5129 27.2349 50.0366 27.2349C49.6424 27.2349 49.3416 27.1209 49.1343 26.8931C48.9292 26.6629 48.8255 26.3234 48.8232 25.8745V23.4683H49.4556V25.8574C49.4556 26.418 49.6834 26.6982 50.1392 26.6982C50.6222 26.6982 50.9435 26.5182 51.103 26.1582V23.4683H51.7354V27.1665H51.1338L51.1201 26.8008ZM53.3862 27.1665H52.7539V21.9165H53.3862V27.1665ZM55.0884 27.1665H54.4561V21.9165H55.0884V27.1665ZM59.4053 24.9482C58.8424 24.7865 58.4323 24.5882 58.1748 24.3535C57.9196 24.1165 57.792 23.8249 57.792 23.4785C57.792 23.0866 57.9481 22.763 58.2603 22.5078C58.5747 22.2503 58.9826 22.1216 59.4839 22.1216C59.8257 22.1216 60.1299 22.1877 60.3965 22.3198C60.6654 22.452 60.8727 22.6343 61.0186 22.8667C61.1667 23.0991 61.2407 23.3532 61.2407 23.6289H60.5811C60.5811 23.3281 60.4854 23.0923 60.2939 22.9214C60.1025 22.7482 59.8325 22.6616 59.4839 22.6616C59.1603 22.6616 58.9074 22.7334 58.7251 22.877C58.5451 23.0182 58.4551 23.2153 58.4551 23.4683C58.4551 23.6711 58.5405 23.8431 58.7114 23.9844C58.8846 24.1234 59.1774 24.251 59.5898 24.3672C60.0046 24.4834 60.3281 24.6121 60.5605 24.7534C60.7952 24.8924 60.9684 25.0553 61.0801 25.2422C61.194 25.429 61.251 25.6489 61.251 25.9019C61.251 26.3052 61.0938 26.6287 60.7793 26.8726C60.4648 27.1141 60.0444 27.2349 59.5181 27.2349C59.1763 27.2349 58.8573 27.1699 58.561 27.04C58.2648 26.9079 58.0358 26.7279 57.874 26.5C57.7145 26.2721 57.6348 26.0135 57.6348 25.7241H58.2944C58.2944 26.0249 58.4049 26.263 58.626 26.4385C58.8493 26.6117 59.1466 26.6982 59.5181 26.6982C59.8644 26.6982 60.1299 26.6276 60.3145 26.4863C60.499 26.3451 60.5913 26.1525 60.5913 25.9087C60.5913 25.6649 60.5059 25.4769 60.335 25.3447C60.1641 25.2103 59.8542 25.0781 59.4053 24.9482ZM62.6831 27.1665H62.0508V23.4683H62.6831V27.1665ZM61.9995 22.4873C61.9995 22.3848 62.0303 22.2982 62.0918 22.2275C62.1556 22.1569 62.249 22.1216 62.3721 22.1216C62.4951 22.1216 62.5885 22.1569 62.6523 22.2275C62.7161 22.2982 62.748 22.3848 62.748 22.4873C62.748 22.5898 62.7161 22.6753 62.6523 22.7437C62.5885 22.812 62.4951 22.8462 62.3721 22.8462C62.249 22.8462 62.1556 22.812 62.0918 22.7437C62.0303 22.6753 61.9995 22.5898 61.9995 22.4873ZM64.293 26.6504H66.4565V27.1665H63.5205V26.7017L65.561 23.9912H63.5513V23.4683H66.354V23.916L64.293 26.6504ZM68.6509 27.2349C68.1496 27.2349 67.7417 27.0708 67.4272 26.7427C67.1128 26.4123 66.9556 25.9714 66.9556 25.4199V25.3037C66.9556 24.9368 67.0251 24.6099 67.1641 24.3228C67.3053 24.0334 67.5013 23.8078 67.752 23.646C68.0049 23.4819 68.2783 23.3999 68.5723 23.3999C69.0531 23.3999 69.4268 23.5583 69.6934 23.875C69.96 24.1917 70.0933 24.6452 70.0933 25.2354V25.4985H67.5879C67.597 25.8631 67.703 26.1582 67.9058 26.3838C68.1108 26.6071 68.3706 26.7188 68.6851 26.7188C68.9084 26.7188 69.0975 26.6732 69.2524 26.582C69.4074 26.4909 69.543 26.3701 69.6592 26.2197L70.0454 26.5205C69.7355 26.9967 69.2707 27.2349 68.6509 27.2349ZM68.5723 23.9194C68.3171 23.9194 68.1029 24.0129 67.9297 24.1997C67.7565 24.3843 67.6494 24.644 67.6084 24.979H69.4609V24.9312C69.4427 24.6099 69.3561 24.3615 69.2012 24.186C69.0462 24.0083 68.8366 23.9194 68.5723 23.9194Z" fill="#565656"/>
</svg>
