<svg width="117" height="51" viewBox="0 0 117 51" fill="none" xmlns="http://www.w3.org/2000/svg">
<rect x="0.5" y="28.5" width="116" height="22" rx="3.5" stroke="#C4C4C4" stroke-linejoin="round" stroke-dasharray="4 4"/>
<rect x="0.5" y="0.5" width="116" height="22" rx="3.5" fill="#C4C4C4" stroke="#C4C4C4"/>
<path d="M48.0303 13.3887H47.3706V11.0884H44.8618V13.3887H44.2056V8.41211H44.8618V10.5518H47.3706V8.41211H48.0303V13.3887ZM51.3799 13.3887C51.3434 13.3158 51.3138 13.1859 51.291 12.999C50.9971 13.3044 50.6462 13.457 50.2383 13.457C49.8737 13.457 49.5741 13.3545 49.3394 13.1494C49.1069 12.9421 48.9907 12.68 48.9907 12.3633C48.9907 11.9782 49.1366 11.6797 49.4282 11.4678C49.7222 11.2536 50.1346 11.1465 50.6655 11.1465H51.2808V10.856C51.2808 10.6349 51.2147 10.4595 51.0825 10.3296C50.9504 10.1974 50.7555 10.1313 50.498 10.1313C50.2725 10.1313 50.0833 10.1883 49.9307 10.3022C49.778 10.4162 49.7017 10.554 49.7017 10.7158H49.0659C49.0659 10.5312 49.1309 10.3535 49.2607 10.1826C49.3929 10.0094 49.5706 9.87272 49.7939 9.77246C50.0195 9.6722 50.2668 9.62207 50.5356 9.62207C50.9618 9.62207 51.2956 9.72917 51.5371 9.94336C51.7786 10.1553 51.904 10.4481 51.9131 10.8218V12.5239C51.9131 12.8634 51.9564 13.1335 52.043 13.334V13.3887H51.3799ZM50.3306 12.9067C50.5288 12.9067 50.7168 12.8555 50.8945 12.7529C51.0723 12.6504 51.201 12.5171 51.2808 12.353V11.5942H50.7852C50.0104 11.5942 49.623 11.821 49.623 12.2744C49.623 12.4727 49.6891 12.6276 49.8213 12.7393C49.9535 12.8509 50.1232 12.9067 50.3306 12.9067ZM53.5913 13.3887H52.959V8.13867H53.5913V13.3887ZM54.9175 13.3887V10.1792H54.333V9.69043H54.9175V9.31104C54.9175 8.91455 55.0234 8.60807 55.2354 8.3916C55.4473 8.17513 55.7469 8.06689 56.1343 8.06689C56.2801 8.06689 56.4248 8.08626 56.5684 8.125L56.5342 8.6377C56.4271 8.61719 56.3132 8.60693 56.1924 8.60693C55.9873 8.60693 55.8289 8.66732 55.7173 8.78809C55.6056 8.90658 55.5498 9.07747 55.5498 9.30078V9.69043H56.3394V10.1792H55.5498V13.3887H54.9175ZM60.3418 11.1704C59.779 11.0086 59.3688 10.8104 59.1113 10.5757C58.8561 10.3387 58.7285 10.047 58.7285 9.70068C58.7285 9.30876 58.8846 8.98519 59.1968 8.72998C59.5112 8.47249 59.9191 8.34375 60.4204 8.34375C60.7622 8.34375 61.0664 8.40983 61.333 8.54199C61.6019 8.67415 61.8092 8.85645 61.9551 9.08887C62.1032 9.32129 62.1772 9.57536 62.1772 9.85107H61.5176C61.5176 9.55029 61.4219 9.31445 61.2305 9.14355C61.0391 8.97038 60.769 8.88379 60.4204 8.88379C60.0968 8.88379 59.8439 8.95557 59.6616 9.09912C59.4816 9.2404 59.3916 9.4375 59.3916 9.69043C59.3916 9.89323 59.4771 10.0653 59.6479 10.2065C59.8211 10.3455 60.1139 10.4731 60.5264 10.5894C60.9411 10.7056 61.2646 10.8343 61.4971 10.9756C61.7318 11.1146 61.9049 11.2775 62.0166 11.4644C62.1305 11.6512 62.1875 11.8711 62.1875 12.124C62.1875 12.5273 62.0303 12.8509 61.7158 13.0947C61.4014 13.3363 60.981 13.457 60.4546 13.457C60.1128 13.457 59.7938 13.3921 59.4976 13.2622C59.2013 13.13 58.9723 12.95 58.8105 12.7222C58.651 12.4943 58.5713 12.2357 58.5713 11.9463H59.231C59.231 12.2471 59.3415 12.4852 59.5625 12.6606C59.7858 12.8338 60.0832 12.9204 60.4546 12.9204C60.8009 12.9204 61.0664 12.8498 61.251 12.7085C61.4355 12.5672 61.5278 12.3747 61.5278 12.1309C61.5278 11.887 61.4424 11.6991 61.2715 11.5669C61.1006 11.4325 60.7907 11.3003 60.3418 11.1704ZM63.6196 13.3887H62.9873V9.69043H63.6196V13.3887ZM62.936 8.70947C62.936 8.60693 62.9668 8.52035 63.0283 8.44971C63.0921 8.37907 63.1855 8.34375 63.3086 8.34375C63.4316 8.34375 63.5251 8.37907 63.5889 8.44971C63.6527 8.52035 63.6846 8.60693 63.6846 8.70947C63.6846 8.81201 63.6527 8.89746 63.5889 8.96582C63.5251 9.03418 63.4316 9.06836 63.3086 9.06836C63.1855 9.06836 63.0921 9.03418 63.0283 8.96582C62.9668 8.89746 62.936 8.81201 62.936 8.70947ZM65.2295 12.8726H67.3931V13.3887H64.457V12.9238L66.4976 10.2134H64.4878V9.69043H67.2905V10.1382L65.2295 12.8726ZM69.5874 13.457C69.0861 13.457 68.6782 13.293 68.3638 12.9648C68.0493 12.6344 67.8921 12.1935 67.8921 11.6421V11.5259C67.8921 11.159 67.9616 10.832 68.1006 10.5449C68.2419 10.2555 68.4378 10.0299 68.6885 9.86816C68.9414 9.7041 69.2148 9.62207 69.5088 9.62207C69.9896 9.62207 70.3633 9.78044 70.6299 10.0972C70.8965 10.4139 71.0298 10.8674 71.0298 11.4575V11.7207H68.5244C68.5335 12.0853 68.6395 12.3804 68.8423 12.606C69.0474 12.8293 69.3071 12.9409 69.6216 12.9409C69.8449 12.9409 70.034 12.8953 70.189 12.8042C70.3439 12.7131 70.4795 12.5923 70.5957 12.4419L70.9819 12.7427C70.672 13.2189 70.2072 13.457 69.5874 13.457ZM69.5088 10.1416C69.2536 10.1416 69.0394 10.235 68.8662 10.4219C68.693 10.6064 68.5859 10.8662 68.5449 11.2012H70.3975V11.1533C70.3792 10.832 70.2926 10.5837 70.1377 10.4082C69.9827 10.2305 69.7731 10.1416 69.5088 10.1416Z" fill="#565656"/>
</svg>
