<svg width="82" height="88" viewBox="0 0 82 88" fill="none" xmlns="http://www.w3.org/2000/svg">
<line x1="66.9008" y1="78.908" x2="78.1948" y2="78.908" stroke="white" stroke-width="0.35"/>
<line x1="72.6418" y1="78.5459" x2="72.6418" y2="11.3194" stroke="white" stroke-width="0.35"/>
<line x1="66.9008" y1="11.6805" x2="78.1948" y2="11.6805" stroke="white" stroke-width="0.35"/>
<rect x="63.3111" y="55.593" width="18.4734" height="15.7844" fill="#D8D8D8" stroke="white" stroke-width="0.35"/>
<rect x="63.3111" y="42.1486" width="18.4734" height="23.3137" fill="#D8D8D8" stroke="white" stroke-width="0.35"/>
<line x1="35.7292" y1="86.9744" x2="47.0233" y2="86.9744" stroke="white" stroke-width="0.35"/>
<line x1="41.4703" y1="86.6123" x2="41.4703" y2="0.562355" stroke="white" stroke-width="0.35"/>
<line x1="35.7292" y1="0.923633" x2="47.0233" y2="0.923633" stroke="white" stroke-width="0.35"/>
<rect x="32.1396" y="56.1311" width="18.4734" height="20.0869" fill="#9F9F9F" stroke="white" stroke-width="0.35"/>
<rect x="32.1396" y="29.2414" width="18.4734" height="27.6162" fill="#9F9F9F" stroke="white" stroke-width="0.35"/>
<line x1="4.55737" y1="82.6707" x2="15.8514" y2="82.6707" stroke="white" stroke-width="0.35"/>
<line x1="10.2985" y1="82.3096" x2="10.2985" y2="7.01585" stroke="white" stroke-width="0.35"/>
<line x1="4.55737" y1="7.37578" x2="15.8514" y2="7.37578" stroke="white" stroke-width="0.35"/>
<rect x="0.967969" y="56.1311" width="18.4734" height="15.7844" fill="#C4C4C4" stroke="white" stroke-width="0.35"/>
<rect x="0.967969" y="34.6174" width="18.4734" height="21.7003" fill="#C4C4C4" stroke="white" stroke-width="0.35"/>
</svg>
