<svg width="88" height="81" viewBox="0 0 88 81" fill="none" xmlns="http://www.w3.org/2000/svg">
<path d="M16.1532 69.1776C24.6927 69.1776 31.6153 62.255 31.6153 53.7155C31.6153 45.176 24.6927 38.2534 16.1532 38.2534C7.61377 38.2534 0.691162 45.176 0.691162 53.7155C0.691162 62.255 7.61377 69.1776 16.1532 69.1776Z" fill="#9F9F9F"/>
<path d="M52.8757 80.771C58.2128 80.771 62.5395 76.4443 62.5395 71.1072C62.5395 65.77 58.2128 61.4434 52.8757 61.4434C47.5385 61.4434 43.2119 65.77 43.2119 71.1072C43.2119 76.4443 47.5385 80.771 52.8757 80.771Z" fill="white"/>
<path d="M64.0859 46.7559C76.8951 46.7559 87.2791 36.372 87.2791 23.5627C87.2791 10.7535 76.8951 0.369629 64.0859 0.369629C51.2767 0.369629 40.8928 10.7535 40.8928 23.5627C40.8928 36.372 51.2767 46.7559 64.0859 46.7559Z" fill="#C4C4C4"/>
</svg>
