<svg width="86" height="74" viewBox="0 0 86 74" fill="none" xmlns="http://www.w3.org/2000/svg">
<path fill-rule="evenodd" clip-rule="evenodd" d="M13.6742 67.5785C13.6475 67.4786 13.6175 67.3805 13.5843 67.2842L25.5904 58.4382L34.1245 59.9762L34.4567 60.0361L34.6365 59.7503L43.9283 44.9769L56.2204 47.7462L70.7063 56.3454L71.088 56.572L71.3582 56.2198L76.9103 48.9818C77.9313 49.727 79.2681 50.0206 80.5841 49.6684C82.8937 49.0502 84.2648 46.6768 83.6466 44.3672C83.0284 42.0576 80.655 40.6865 78.3454 41.3047C76.0359 41.9229 74.6647 44.2963 75.2829 46.6059C75.4557 47.2515 75.7657 47.8238 76.1731 48.2998L70.835 55.2589L56.6628 46.8459L56.5947 46.8055L56.5175 46.7881L43.8032 43.9237L43.4583 43.846L43.27 44.1453L33.9697 58.9322L25.5558 57.4158L25.3439 57.3776L25.1706 57.5054L13.1422 66.3677C12.1539 64.8186 10.2425 64.0156 8.37304 64.516C6.06347 65.1342 4.69234 67.5076 5.31053 69.8172C5.92873 72.1267 8.30215 73.4979 10.6117 72.8797C12.9213 72.2615 14.2924 69.8881 13.6742 67.5785Z" fill="#9F9F9F"/>
<path fill-rule="evenodd" clip-rule="evenodd" d="M72.2976 7.38634C72.3243 7.48617 72.3543 7.58425 72.3874 7.68049L60.3815 16.5263L51.8474 14.9883L51.5152 14.9284L51.3355 15.2142L42.0436 29.9876L29.7515 27.2183L15.2657 18.6191L14.8839 18.3925L14.6137 18.7447L9.06249 25.9816C8.0414 25.2358 6.7041 24.9418 5.38755 25.2942C3.07798 25.9124 1.70685 28.2858 2.32504 30.5954C2.94323 32.9049 5.31666 34.2761 7.62623 33.6579C9.93579 33.0397 11.3069 30.6663 10.6887 28.3567C10.5161 27.7116 10.2064 27.1396 9.79948 26.6639L15.137 19.7056L29.3091 28.1186L29.3772 28.159L29.4545 28.1764L42.1688 31.0408L42.5137 31.1185L42.7019 30.8193L52.0022 16.0323L60.4161 17.5487L60.628 17.5869L60.8013 17.4591L72.8295 8.59693C73.8178 10.1462 75.7292 10.9493 77.5988 10.4488C79.9083 9.83066 81.2795 7.45724 80.6613 5.14767C80.0431 2.8381 77.6697 1.46696 75.3601 2.08516C73.0505 2.70335 71.6794 5.07677 72.2976 7.38634Z" fill="#F1F1F1"/>
</svg>
