<svg width="88" height="77" viewBox="0 0 88 77" fill="none" xmlns="http://www.w3.org/2000/svg">
<rect x="0.777008" y="0.758301" width="86.5877" height="20.7811" rx="1" fill="#9F9F9F"/>
<path d="M66.5835 0.758301H86.3646C86.9169 0.758301 87.3646 1.20602 87.3646 1.7583V20.5394C87.3646 21.0916 86.9169 21.5394 86.3646 21.5394H66.5835V0.758301Z" fill="#D8D8D8"/>
<rect x="0.777008" y="25.0044" width="65.8067" height="51.9526" rx="1" fill="white"/>
<rect x="7.70398" y="31.9302" width="51.9526" height="10.3905" rx="1" fill="#D8D8D8"/>
<rect x="7.70398" y="45.7856" width="51.9526" height="10.3905" rx="1" fill="#D8D8D8"/>
<rect x="7.70398" y="59.6387" width="51.9526" height="10.3905" rx="1" fill="#D8D8D8"/>
<path d="M83.4365 7.68799H70.5119C70.1242 7.68799 69.9077 8.02782 70.1478 8.25983L76.6102 14.4814C76.7951 14.6595 77.1513 14.6595 77.3382 14.4814L83.8006 8.25983C84.0407 8.02782 83.8242 7.68799 83.4365 7.68799Z" fill="#9F9F9F"/>
</svg>
