<svg width="98" height="68" viewBox="0 0 98 68" fill="none" xmlns="http://www.w3.org/2000/svg">
<path d="M26.9638 22.8578C26.984 22.5457 26.8792 22.238 26.6727 22.0031L17.3276 11.3715C17.1211 11.1366 16.8297 10.9933 16.5173 10.9731C16.2036 10.9531 15.8976 11.0578 15.6627 11.2642C11.3686 15.0388 7.80433 19.4903 5.0683 24.4949C4.91837 24.7695 4.88328 25.0924 4.97126 25.3924C5.05925 25.6926 5.26286 25.9456 5.53746 26.0955L17.9581 32.8848C18.1378 32.9831 18.3317 33.0297 18.5231 33.0297C18.9403 33.0297 19.3448 32.8076 19.5591 32.4157C21.3674 29.1077 23.7248 26.1646 26.5653 23.6678C26.8007 23.4616 26.944 23.1702 26.9638 22.8578Z" fill="#9F9F9F"/>
<path d="M31.9971 19.5201C32.209 19.9195 32.6176 20.1471 33.0403 20.1471C33.2267 20.1471 33.4159 20.1028 33.5918 20.0094C36.9211 18.2438 40.5025 17.0917 44.2369 16.585C44.8823 16.4975 45.3348 15.9032 45.2473 15.2576L43.3448 1.23108C43.2573 0.585629 42.6612 0.133781 42.0173 0.220657C36.3461 0.989831 30.9079 2.7391 25.8537 5.41985C25.2783 5.72511 25.0593 6.43885 25.3642 7.01458L31.9971 19.5201Z" fill="#C4C4C4"/>
<path d="M16.801 38.5005L3.13959 34.7939C2.83767 34.7123 2.51558 34.7535 2.24415 34.9091C1.97273 35.0647 1.77436 35.3217 1.69225 35.6236C0.569535 39.7632 0 44.0536 0 48.3758C0 49.1154 0.0176292 49.8574 0.0543171 50.6444C0.0836992 51.2766 0.605111 51.7693 1.23182 51.7693C1.25025 51.7693 1.26899 51.769 1.28741 51.768L15.4275 51.1148C15.7399 51.1005 16.0342 50.9623 16.2446 50.7313C16.4554 50.5002 16.5658 50.1944 16.5511 49.882C16.5265 49.3514 16.5146 48.8586 16.5146 48.3758C16.5146 45.5138 16.8902 42.6783 17.631 39.9477C17.8011 39.3191 17.4296 38.6713 16.801 38.5005Z" fill="#9F9F9F"/>
<path d="M69.6802 4.5777C64.5326 2.09611 59.0328 0.558239 53.3334 0.00585631C53.0202 -0.0255904 52.7112 0.0706551 52.4696 0.269341C52.228 0.468186 52.0756 0.754702 52.0454 1.06631L50.6806 15.1557C50.6177 15.804 51.0926 16.3807 51.7411 16.4434C55.4976 16.8073 59.1204 17.8203 62.5092 19.4538C62.6704 19.5316 62.8456 19.571 63.0214 19.571C63.1526 19.571 63.2841 19.5489 63.4105 19.5049C63.7058 19.4018 63.9481 19.1853 64.0839 18.9036L70.2304 6.15226C70.5135 5.56558 70.2672 4.86041 69.6802 4.5777Z" fill="#C4C4C4"/>
<path d="M90.4716 24.3649C90.5479 24.0614 90.5008 23.7404 90.3401 23.4717C87.4127 18.5744 83.6802 14.2627 79.2467 10.657C79.0039 10.4597 78.694 10.3673 78.3816 10.3986C78.0705 10.4308 77.7848 10.585 77.5875 10.8277L68.6558 21.8093C68.4586 22.0521 68.3655 22.3632 68.3977 22.6744C68.4297 22.9855 68.584 23.2712 68.8269 23.4688C71.7603 25.8541 74.2292 28.706 76.1652 31.945C76.3863 32.3144 76.7775 32.5196 77.179 32.5196C77.385 32.5196 77.5935 32.4656 77.783 32.3522L89.933 25.0896C90.2013 24.929 90.3951 24.6684 90.4716 24.3649Z" fill="white"/>
<path d="M94.9827 33.8313C94.7877 33.2095 94.1256 32.8631 93.5044 33.0583L79.9969 37.2906C79.3751 37.4853 79.0292 38.1472 79.2239 38.7686C80.1934 41.8634 80.6849 45.0959 80.6849 48.3764C80.6849 48.8594 80.6729 49.3522 80.6484 49.8827C80.6338 50.1951 80.744 50.5008 80.9549 50.7319C81.1657 50.9631 81.4597 51.1011 81.7721 51.1154L95.9121 51.7687C95.9309 51.7695 95.9493 51.7699 95.9677 51.7699C96.5941 51.7699 97.1157 51.2771 97.1452 50.645C97.1816 49.858 97.1996 49.116 97.1996 48.3764C97.1992 43.4189 96.4537 38.5253 94.9827 33.8313Z" fill="white"/>
<path d="M48.558 45.8731C48.3545 45.8731 48.1522 45.8798 47.9507 45.8906L28.7888 34.5848C28.3198 34.3077 27.7244 34.3771 27.3314 34.754C26.9382 35.1305 26.8439 35.7226 27.1002 36.2026L37.5531 55.7941C37.5146 56.1714 37.4941 56.5524 37.4941 56.9368C37.4941 59.8922 38.645 62.6704 40.7346 64.76C42.8244 66.8498 45.6028 68.0006 48.5582 68.0006C51.5135 68.0006 54.2918 66.8495 56.3814 64.76C58.4712 62.6704 59.6218 59.8922 59.6218 56.9368C59.6218 53.9814 58.471 51.2032 56.3814 49.1135C54.2918 47.0239 51.5132 45.8731 48.558 45.8731Z" fill="#9F9F9F"/>
</svg>
