<svg width="95" height="76" viewBox="0 0 95 76" fill="none" xmlns="http://www.w3.org/2000/svg">
<line x1="65.6618" y1="39.2245" x2="88.3097" y2="23.0474" stroke="#9F9F9F"/>
<line x1="63.2051" y1="39.5229" x2="69.676" y2="68.6417" stroke="#9F9F9F"/>
<line x1="37.0986" y1="46.5251" x2="11.2153" y2="62.7022" stroke="#9F9F9F"/>
<line x1="36.5908" y1="46.5382" x2="7.47202" y2="30.3611" stroke="#9F9F9F"/>
<line x1="36.3357" y1="46.1463" x2="33.1003" y2="10.5567" stroke="#9F9F9F"/>
<circle r="6.82762" transform="matrix(-0.962583 -0.270987 -0.270987 0.962583 11.0936 64.0198)" fill="white"/>
<circle r="5.24695" transform="matrix(-0.962583 -0.270987 -0.270987 0.962583 71.4625 68.5379)" fill="white"/>
<circle r="7.27969" transform="matrix(-0.962583 -0.270987 -0.270987 0.962583 32.2409 9.6474)" fill="white"/>
<circle r="5.24138" transform="matrix(-0.962583 -0.270987 -0.270987 0.962583 6.76095 29.7109)" fill="white"/>
<circle r="5.3768" transform="matrix(-0.962583 -0.270987 -0.270987 0.962583 87.7609 22.3314)" fill="white"/>
<circle r="11.1" transform="matrix(-0.962583 -0.270987 -0.270987 0.962583 37.5845 46.8525)" fill="white"/>
<circle r="7.48455" transform="matrix(-0.962583 -0.270987 -0.270987 0.962583 65.479 39.1577)" fill="white"/>
</svg>
