<svg width="82" height="86" viewBox="0 0 82 86" fill="none" xmlns="http://www.w3.org/2000/svg">
<path fill-rule="evenodd" clip-rule="evenodd" d="M12.3241 31.9561H4.87872C2.66958 31.9561 0.878723 33.7469 0.878723 35.9561V41.4241H12.3241V31.9561ZM13.3241 41.4241V31.9561H30.636V41.4241H13.3241ZM31.636 41.4241H48.9485V31.9561H31.636V41.4241ZM49.9485 31.9561V41.4241H67.2611V31.9561H49.9485ZM68.2611 31.9561V41.4241H81.2134V35.9561C81.2134 33.7469 79.4225 31.9561 77.2134 31.9561H68.2611Z" fill="#F1F1F1"/>
<path fill-rule="evenodd" clip-rule="evenodd" d="M12.3241 47.7314H0.878726V54.0435H12.3241V47.7314ZM13.3241 54.0435V47.7314H30.636V54.0435H13.3241ZM12.3241 60.3554H0.878723V66.6674H12.3241V60.3554ZM13.3241 66.6674V60.3554H30.636V66.6674H13.3241ZM12.3241 72.7549H0.878723V79.0669H12.3241V72.7549ZM13.3241 79.0669L13.3241 72.7549H30.636V79.0669H13.3241ZM31.636 79.0669H48.9485L48.9485 72.7549H31.636V79.0669ZM31.636 66.6674H48.9485V60.3554H31.636V66.6674ZM31.636 54.0435H48.9485V47.7314H31.636V54.0435ZM49.9485 47.7314V54.0435H67.2611V47.7314H49.9485ZM68.2611 47.7314V54.0435H81.2134V47.7314H68.2611ZM67.2611 60.3554H49.9485V66.6674H67.2611V60.3554ZM68.2611 66.6674V60.3554H81.2134V66.6674H68.2611ZM67.2611 72.7549H49.9485L49.9485 79.0669H67.2611V72.7549ZM68.2611 79.0669V72.7549H81.2134V79.0669H68.2611Z" fill="#C4C4C4"/>
<path fill-rule="evenodd" clip-rule="evenodd" d="M12.3241 41.4199H0.878726V47.7319H12.3241V41.4199ZM13.3241 47.7319L13.3241 41.4199H30.636V47.7319H13.3241ZM12.3241 54.0486H0.878723V60.3606H12.3241V54.0486ZM13.3241 60.3606V54.0486H30.636L30.636 60.3606H13.3241ZM12.3241 66.6711H0.878723V72.9831H12.3241V66.6711ZM13.3241 72.9831V66.6711H30.636V72.9831H13.3241ZM12.3241 79.0656H0.878723V81.3776C0.878723 83.5868 2.66958 85.3776 4.87872 85.3776H12.3241V79.0656ZM13.3241 85.3776V79.0656H30.636V85.3776H13.3241ZM31.636 85.3776H48.9485V79.0656H31.636V85.3776ZM31.636 72.9831H48.9485V66.6711H31.636V72.9831ZM31.636 60.3606H48.9485V54.0486H31.636L31.636 60.3606ZM31.636 47.7319H48.9485L48.9485 41.4199H31.636V47.7319ZM49.9485 41.4199L49.9485 47.7319H67.2611V41.4199H49.9485ZM68.2611 41.4199V47.7319H81.2134V41.4199H68.2611ZM67.2611 54.0486H49.9485V60.3606H67.2611V54.0486ZM68.2611 60.3606V54.0486H81.2134V60.3606H68.2611ZM67.2611 66.6711H49.9485V72.9831H67.2611V66.6711ZM68.2611 72.9831V66.6711H81.2134V72.9831H68.2611ZM67.2611 79.0656H49.9485V85.3776H67.2611V79.0656ZM68.2611 85.3776V79.0656H81.2134V81.3776C81.2134 83.5868 79.4225 85.3776 77.2134 85.3776H68.2611Z" fill="#9F9F9F"/>
<path fill-rule="evenodd" clip-rule="evenodd" d="M8.78286 14.6427C8.78286 14.5644 8.78059 14.4868 8.7761 14.4097L21.4464 9.44485L28.5924 12.8077L28.8978 12.9514L29.1453 12.7219L40.8041 1.90786L50.9572 7.23405L61.6972 18.2318L62.0074 18.5494L62.3595 18.279L68.9644 13.2064C69.6892 14.0861 70.787 14.6469 72.0158 14.6469C74.1985 14.6469 75.9679 12.8775 75.9679 10.6948C75.9679 8.51213 74.1985 6.74272 72.0158 6.74272C69.8332 6.74272 68.0638 8.51213 68.0638 10.6948C68.0638 11.2884 68.1946 11.8515 68.4291 12.3566L62.1025 17.2155L51.6173 6.47872L51.562 6.42207L51.4919 6.38528L40.9556 0.858076L40.6425 0.693834L40.3833 0.934263L28.7128 11.7591L21.6774 8.44835L21.4825 8.35666L21.282 8.43522L8.58678 13.4098C8.06883 11.8309 6.58297 10.6906 4.83079 10.6906C2.64812 10.6906 0.878723 12.46 0.878723 14.6427C0.878723 16.8253 2.64812 18.5947 4.83079 18.5947C7.01346 18.5947 8.78286 16.8253 8.78286 14.6427Z" fill="#F1F1F1"/>
</svg>
