<svg width="80" height="87" viewBox="0 0 80 87" fill="none" xmlns="http://www.w3.org/2000/svg">
<path d="M5.4439 62.9009L5.67981 62.927L5.8633 62.7832L6.13853 62.8006L6.33949 63.0055L6.51425 63.0578L6.66278 62.9968L6.80695 62.8224L7.01228 62.927L7.14771 63.158L7.23072 63.5329L7.20014 63.7638L7.30061 63.8728V63.9818L5.11187 65.2413L4.53957 65.0539L4.34734 64.8578L4.59199 64.5919L4.67063 64.3697L4.85412 63.4108L4.83664 63.2234L5.1643 62.7658L5.4439 62.9009ZM6.29143 39.9062L6.073 40.5077L5.90699 40.6036L5.77593 40.9305L5.5138 40.961L5.49195 41.1702L5.56622 41.4535L5.76282 41.5929L5.93757 41.8631L6.46181 41.9939L6.52735 42.1464L6.34386 43.0791L6.47492 43.3624L7.27004 44.1513L7.42294 44.2167L7.78554 44.7789L8.34038 44.8007L8.55882 44.8878L8.66804 45.0186L8.7423 45.6244L9.39325 45.9469L9.54616 46.3261L9.73401 46.4786L9.99614 46.4481L10.315 46.5135L10.5116 46.8055L10.5772 47.0321L10.7869 47.2065L10.9704 47.5203L11.1102 47.943H11.5383L11.9621 48.052L12.3553 48.6491L12.5082 48.7668L13.0324 48.9498L13.3513 48.9803L13.5916 48.928L13.7664 48.636L13.963 48.8321L14.1596 48.8234L14.3256 48.684L14.662 48.575L15.077 48.3353L15.3915 48.283L15.6668 48.0433L15.7847 47.7818L17.4667 47.5639L18.3186 47.3154L18.4584 47.4462L19.2229 47.6946L19.4414 47.8341L19.6598 47.8254L19.9656 47.6946L20.302 47.7469L20.6078 48.2568L20.7083 48.2481L20.752 48.0215L20.9792 47.991L21.4728 47.6336L21.5908 47.6249L22.0277 47.8515L22.2811 47.7774L23.0237 47.93L23.1635 47.5944L23.7533 46.9886L25.1601 46.8927L25.147 46.6094L25.2562 46.3479L25.3217 45.6985L25.693 45.3324L25.7149 45.0491L25.5314 44.7658L25.7498 44.5261H25.9333L26.4882 44.1818L27.1741 44.0292L27.4143 43.9116L27.4493 43.7808L27.8949 43.6196L29.1618 43.7808L29.8827 43.7285L30.123 43.9029L30.2759 43.9116L30.5249 43.7808L30.6778 43.576L30.7652 43.5542L31.1234 43.6501L31.5253 43.6196L31.8006 43.6719L32.0277 43.8026L32.0845 43.9769L32.0103 43.9987L31.7918 44.4302L31.5734 44.5043L31.4423 44.6351L31.3768 44.8312L31.7044 44.8617L32.2942 44.6656L32.4559 44.6874L32.6219 44.9794L32.9495 45.0753L33.6485 45.0099L33.9849 45.097L34.2995 45.315L34.3737 45.4675L34.6359 45.6288L34.7669 45.79L34.9417 45.7987L35.0859 45.668L35.3349 45.5721L35.6931 45.5503L35.9858 45.6811L36.3135 46.2651L36.4533 46.3087H36.5843L36.7372 46.2128L36.9033 46.0167L37.7333 45.6811L37.8556 45.315L37.7988 45.2278L37.8294 45.1537L38.6682 44.8094L38.843 44.6133L40.1754 44.4738L40.5992 44.7571L40.6866 44.8791L40.6735 44.8835L40.3152 45.0665L40.2628 45.8162L40.3546 45.8946L40.2104 46.0777V46.3784L40.1186 46.6791L39.9876 46.8099L39.7604 46.7706L39.5201 46.9276L39.3891 46.8622L39.0833 46.8883L38.8561 47.0714L38.8168 47.359L38.6857 47.4636L38.393 47.529L38.3537 47.6859L38.4978 47.8167L38.5503 47.9997L38.4716 48.222L38.2445 48.4443L38.2051 48.5619L38.3231 48.8627L38.5765 49.0719V49.2026L38.3493 49.4772L38.3755 49.8302L38.2969 49.9871L38.0042 50.1048L37.9255 50.3401L37.978 50.4447L37.7552 50.5711L37.6547 50.8806L37.4974 50.9852L37.4144 51.1769L37.2528 51.2467L37.1697 51.4297H36.995L36.6979 51.6128L36.58 52.0878L36.0077 52.4191L35.9378 52.5542L35.5184 52.9116L35.4965 53.0118L35.265 53.1905L34.863 53.4346L34.2602 53.3212L33.9369 53.4084L33.6616 53.574L33.6485 53.6568L34.0985 54.097L34.7757 54.4544L34.7101 55.0384L34.7931 55.191L34.9504 55.2999L34.8368 55.4655L34.7582 55.7968L34.9198 55.8186L34.9504 55.9145L34.7931 56.2588L34.6009 56.3721L34.7495 56.4593L34.7145 56.6031L34.5572 56.6336L34.4393 56.882L34.1946 57.1086L33.8233 57.1871L33.6398 57.4486L33.4083 57.6099L33.3253 57.8714L33.1986 57.9672L33.5393 58.2767L33.6223 58.6166L33.334 58.9653L33.2641 59.1789L33.2117 59.2137L33.1461 59.1527L33.0194 58.9348L32.8054 58.9304L32.7442 58.7779L32.5782 58.8302L32.4602 59.0568H32.2986L32.1544 59.1571L31.5734 59.0961L31.4292 59.2312L30.8001 59.4142L30.5074 59.6888L30.2016 59.7411L29.9482 59.6626L29.6948 59.728L29.6599 60.1028L29.3366 60.1159L29.2274 60.299L28.8385 60.312L28.5764 60.4646V60.5517L28.1745 60.5866L28.1308 60.6694L27.7595 60.5997L27.7245 60.8002L27.624 60.9004L27.4624 60.7871L27.458 60.5212L27.2964 60.4602L27.0823 60.652L26.711 60.7871L26.5319 60.7086L26.3746 60.9004L26.1955 60.6912L25.9159 60.1638L25.7673 60.0375L25.527 60.0244L25.1688 60.5212L25.2693 60.835L25.2256 60.8655H25.0596L24.7232 60.7304L24.2514 60.6825L24.1684 60.7609L24.3038 61.2491L24.2732 61.3842L23.7446 61.5324L23.5829 61.467L23.3689 61.236L23.3077 61.6108L23.4344 61.9421L23.1417 61.8767L23.0762 61.9072L23.0063 62.1556L22.8053 62.2689L22.3641 62.2384L22.0277 62.3561L21.9316 62.4868L21.5253 62.7309L21.2675 62.7483L21.1364 62.9096L21.2151 63.2103L21.0097 63.4195L20.8 63.4849L20.6821 63.7203L20.8175 63.9992L20.7039 64.2084L20.8481 64.3348L20.7957 64.4655L20.2758 64.5527L20.1404 64.666L19.6554 64.6704L19.5593 64.7488L19.5069 64.9842H19.3758L19.2186 65.311L18.9433 65.4549L18.8734 65.7164L18.6899 65.9256L18.5982 65.943L18.6157 66.0694L18.1307 65.9735L18.0783 66.2045L17.9123 66.1435L17.9735 66.4878L17.9385 66.7711L17.8031 66.7101L17.7856 66.4965L17.6677 66.4268L17.3094 66.6404L17.423 66.8103L17.4536 67.0064L17.0997 67.1023L16.9381 66.9193L16.7284 66.9847L16.5973 67.1154L16.3832 66.9454L16.191 67.1808L15.8066 67.2767L15.6799 67.4597L15.4396 67.6253L15.4571 67.9653L15.6493 68.0132L15.7279 68.205L15.8415 68.2878L16.025 68.2442L16.1036 68.1832L16.1517 67.9871L16.3352 67.9086L16.4619 67.9784L16.558 68.205L16.6104 68.728L16.5449 68.8936L16.3832 69.0418L16.3352 69.2336L16.3221 69.5125L16.4663 69.6912L16.4488 69.8525L16.3002 70.0355L16.3658 70.2186L16.5143 70.3188L16.7415 70.2578L17.1303 70.3101L17.1478 70.3755L17.0822 70.5498L17.1128 70.7328L16.807 70.99L17.1041 71.5522L17.0866 71.6524L17.0036 71.7527L17.0167 71.8791L16.7458 72.1929L17.0473 72.6854L17.2745 73.4786L17.3094 74.0495L17.541 74.9474L17.3968 75.3047L17.5934 75.4224L17.7419 75.4181L17.8075 75.6142L17.5803 76.0108L17.1871 76.2069L16.5536 76.3682L16.4881 76.6166L16.2172 76.8432L15.7017 76.9304L15.361 77.1396L14.8323 77.3183L14.6663 77.4447L14.5178 77.8544L13.9367 78.2161L13.7882 78.1551L13.8232 78.0244L13.7402 77.7236L13.7751 77.3575L13.6135 76.9783L13.4081 76.7299L13.1285 76.6994L12.6567 76.8432L12.0844 77.1178L11.2325 77.8151L11.1451 77.6975L10.9398 77.6539L10.8655 77.2442L10.717 76.9958L10.9529 76.5294L10.9966 76.2679L10.848 76.0631L10.6689 75.9803L10.5903 75.2568L10.0398 75.0955L10.3325 74.7469L10.4417 74.1977L9.98739 72.5416L9.66848 72.1624L9.68595 71.6786L9.90002 71.0423L9.90438 70.7459L9.59858 69.9614L9.29714 69.7435L8.56755 69.434L8.22679 69.1072L8.3098 68.7062L8.89521 68.3619L9.19665 67.8389L9.48063 66.3876L9.48499 65.7251L9.38887 65.4026L9.29714 65.237L9.0088 65.0103L8.6593 64.9319L8.27922 64.4525L8.50639 63.8423L7.6676 63.5677L7.15644 62.866L6.86374 62.6873L6.54482 62.9009L6.05115 62.574L5.87204 62.2428L5.74098 62.1251L4.87596 61.8854L4.74927 61.7677L4.53957 61.82L4.62694 62.1861L4.51336 62.3648L4.39977 62.3997L3.64834 62.1512L3.40369 61.9028L3.20273 61.5149L3.29011 60.3818L3.49107 60.4341L3.64834 60.5953L4.15075 60.7435L4.49588 60.7609L4.9546 61.0355L4.96334 60.8132L4.53957 60.4951L4.15949 60.482L4.059 60.2815L4.17696 60.081L4.19443 59.7934L3.57407 59.8065L3.39932 59.8631L2.66537 59.6016L2.35082 59.2486L2.16297 58.4074L1.73046 57.283L1.879 57.0258L2.1586 56.9692L2.08433 56.6162L2.578 55.836L2.74401 55.1343L2.65664 54.62L2.28966 53.7963L1.8091 53.2907L1.45086 53.1861L0.913507 53.1643L0.791181 53.051L0.804288 52.7764L1.00088 52.3668V52.1401L0.690702 51.774L0.896033 50.8501L0.778077 50.4491L0.45916 50.1048L0.568379 49.7256L0.240723 49.3377L0.306251 49.1503L0.607697 48.9106L0.834872 48.8888L1.12758 48.5881L1.29796 48.0912L1.1101 47.4723L0.896033 47.2893L0.690702 46.6966L0.747493 46.6094L1.06642 46.6835V46.3522L1.32854 45.8641L1.64746 45.546L1.74794 45.2016L1.66057 44.6525L1.71736 44.2646L1.879 43.9639L2.20229 43.6632L3.17215 43.0791L3.40806 42.822V42.6259L3.6265 42.1508L3.93231 41.7324L3.95853 41.2748L3.84494 41.0089L3.87552 40.8956L4.08085 40.8215L4.68374 40.8084L4.81917 40.6167L5.0245 40.5295L5.76282 40.5164L6.29143 39.9062Z" fill="#F1F1F1"/>
<path d="M69.2059 36.9611L69.835 37.6454L70.1583 38.1814L70.1495 38.3688L69.883 38.7698L68.6991 39.8376L68.2622 39.6546L68.1312 39.6589L68.3365 39.8507L68.4283 40.1601L68.3889 41.1059L68.4545 41.3674L68.804 41.764L69.8088 42.457L70.4422 43.0933L72.596 44.3572L72.8276 44.9456L73.4043 45.2114L73.662 45.1722L73.9241 45.2507L75.2785 46.41L75.4314 46.811L75.7634 47.1989L76.2745 47.4037L76.3925 47.3906L76.9386 47.5693L77.0172 47.639L77.0478 48.0531L76.8031 48.4018L76.4842 48.7025L75.427 49.4303L74.5358 49.0947L73.2382 49.2168L72.0194 49.1078L70.6738 48.855L69.9617 48.5325L69.6559 48.2187L69.3632 47.4342L69.0705 47.1858L68.7166 47.0114L68.6117 47.0507L68.5986 47.2424L69.6471 49.0294L69.6865 49.3519L69.586 49.5131L69.42 49.5436L69.2714 49.5001L68.9438 49.195L68.6904 49.1514L67.9957 49.3737L67.4715 49.8836L67.3142 50.2192L67.3099 50.6158L66.5628 52.1543L66.1653 52.4419L65.8114 53.1959L65.5012 54.1112L65.3963 54.6473L65.5886 55.1834L65.7939 55.3664L65.8594 55.6671L65.7764 55.8545L65.5012 56.1465L65.1561 57.2231L65.1604 57.4279L65.4226 57.9858L65.226 59.3456L66.3487 58.6177L66.5453 58.5567L66.6371 58.5959L66.6677 58.7136L66.2046 60.2783L66.5628 61.0497L66.5759 61.2415L66.5147 61.3373L65.2959 61.8778L64.361 61.8255L64.0551 61.4637L63.8717 61.577L63.8105 61.9257L62.9586 62.9499L62.063 64.4056L61.897 64.5494L61.2854 64.8197L60.4815 64.9635L59.9048 63.6691L60.0403 63.1809L60.0053 63.0937L59.9005 63.1199L59.6908 63.6821L59.6951 63.9175L60.0009 64.2226L60.2587 64.7935L60.0184 65.6652L59.0355 66.0051L58.3801 66.4627L58.3233 66.5325L58.3627 66.8637L58.5767 67.208L58.5287 67.4172L58.3845 67.5916L57.3491 68.0013L56.6239 68.3543L55.9992 68.7465L56.0516 68.8816L56.2831 68.9993L56.5889 68.9339L56.8467 68.7291L57.2049 68.6506L57.5195 68.6855L57.6724 68.777L57.786 69.7533L57.7685 70.7427L57.5981 70.9562L57.1219 71.1218L57.0127 71.2439L57.5894 71.3659H57.9433L58.1224 71.1916L58.2709 71.5141L58.2491 71.6623L58.8694 71.8279L58.8214 72.4337L58.5156 73.5102L57.9345 73.2443L57.454 73.1179L56.2744 73.1049L55.7152 72.9218L54.5225 72.8565L54.3522 72.8259L54.1206 72.6124L53.8847 72.8259L53.5439 72.9523L53.5002 73.0874L53.3299 73.2443L53.094 73.3184L52.9716 73.0874L52.9847 72.6429L52.6746 71.8889L52.7532 71.2264L52.9105 70.9824L52.8449 70.8734L52.5828 70.7644L52.3644 70.8255L52.2115 70.7034L52.1328 70.7209L52.2246 70.4594L52.1023 70.3199V70.1368L52.242 69.8274L52.2726 69.518L52.2115 68.7029L52.0542 68.3804L51.8401 68.1364L51.7921 67.9184L51.8532 67.7833L51.5431 67.5349L51.4819 67.3954L51.5431 67.0904L51.4207 66.9204L51.1542 66.8724L50.8921 66.9814L50.8135 66.8289L50.844 66.6763L51.1236 66.4279L51.3115 66.1359L51.6697 65.8308L51.8095 65.8613L51.744 66.1969L51.8532 66.2274L52.3207 65.6739L52.4299 65.2424L52.4255 65.2468L52.526 64.6802L52.7226 64.4492L53.1202 64.1615L53.1333 64.0482L52.8012 63.7606L52.6614 63.7911L52.5129 63.9349L52.4124 63.8739L52.3294 63.5732L52.1809 63.5122L52.0061 63.3204L51.8226 63.3422L51.7309 62.9281L51.6304 62.8017L51.0537 62.4356L50.7916 62.0085L50.4465 61.7078L49.7125 61.577L49.5334 61.1369L49.5465 60.6182L49.4242 59.7901L49.2058 59.6027L49.0354 59.1538L48.7208 58.8313L48.6204 58.8051L48.7121 58.3301L48.5505 58.2865L48.4674 57.6502L48.6509 57.6153L48.6684 57.4061L48.5417 57.21L48.782 56.7959V56.5039L48.9742 56.3906L49.1577 56.1378L49.0004 55.6497L47.9432 56.1596L47.8165 56.4473L47.6112 56.4516L47.4058 56.5519L47.0738 56.8395L46.6806 56.7349L46.235 56.8177V56.5867L46.1433 56.3819L46.1782 56.103L45.9816 55.7325L45.9379 55.1049L45.8331 54.9698L45.6715 54.9785L45.5316 54.826L45.2739 54.8739L45.1472 54.656L45.3088 54.2725L45.2739 54.0894L45.4617 53.8802L45.4705 53.7277L45.6409 53.6972L45.7239 53.61L45.9554 53.1175L46.2481 52.9301L46.3661 52.9562L46.4141 53.0478L46.5496 52.978L46.8685 52.9562L46.9428 52.9649L47.0913 53.1742L47.1568 53.0347L47.6767 52.6729L47.7641 52.503L47.7859 52.1935L47.502 51.9451L47.3622 51.6618L47.0432 51.287L46.7986 50.7814L46.6719 50.0797L46.5015 49.7746L46.3049 49.6134L46.0821 49.5524L45.7326 49.8792L45.7151 49.9795L45.8462 50.1887L45.6409 50.1364L45.5535 49.9533L45.3219 49.8095L45.1516 49.9141L44.9331 49.8836L44.5749 50.1451L44.4351 50.0841L44.1948 50.1277L43.9807 50.411L43.5919 50.6899L43.2468 50.703V50.9775L43.155 51.1475L42.7182 51.1606L42.4255 51.3567L42.4517 51.6487L42.3599 51.6749L42.0541 51.6226L41.8313 51.4352L41.5124 51.3567L40.8352 51.4352L40.6518 51.3567L40.6081 51.1737L40.3328 51.0298V50.9383L40.477 50.7945L40.3328 50.3717L40.0139 50.1756L39.8829 50.2279L39.7256 50.1887L39.1664 50.4763L38.9305 50.4371L38.6247 50.5417L38.5198 50.5156L38.4106 50.594L38.2271 50.4502H38.013L37.9606 50.3456L38.0392 50.1102L38.3319 49.9926L38.4106 49.8357L38.3844 49.4783L38.6116 49.2037V49.0729L38.3582 48.8637L38.2402 48.5587L38.2795 48.441L38.5067 48.2187L38.5853 47.9964L38.5329 47.809L38.3844 47.6783L38.4237 47.5214L38.7164 47.456L38.8475 47.3514L38.8911 47.0637L39.114 46.8763L39.4198 46.8502L39.5508 46.9156L39.7911 46.7587L40.0139 46.7979L40.1493 46.6671L40.2411 46.3664V46.0657L40.3853 45.8783L40.2935 45.7998L40.3459 45.0502L40.7042 44.8671L40.8658 44.8018L40.9707 44.6056L41.2765 44.5664L41.9667 44.2744L42.2158 44.0391L43.3429 44.6972L43.5176 44.6449L43.6094 44.4575L43.9545 44.6405L44.0637 44.841L44.3346 45.0633L45.0292 45.2638L45.37 45.6429L45.4574 46.0875L45.5491 46.2008L45.9074 46.0003L46.2219 46.0439L46.4491 46.1354L46.5845 46.3098L46.65 46.58L46.8292 46.7805L47.0301 46.8676L47.3228 46.8894L47.7073 46.4667H48.2927L48.5374 46.58L48.8737 46.6236L49.2364 46.2226L49.6863 46.3098L50.0227 45.9088L50.2455 45.7998L50.3591 45.1068L50.5382 44.9282L51.3945 44.9543L52.4037 44.5751L53.4172 44.5533L53.8672 44.1742L54.1119 43.6599L54.4963 43.3243L55.1909 42.3916L55.7545 41.3194L55.6191 40.8095L55.6628 40.5175L55.8681 40.2734L56.3399 40.0294L56.4491 39.7374L56.7419 39.5587L56.8118 39.2013L56.8336 38.2424L56.921 37.933L57.2836 37.3316L57.4409 37.2182L57.5763 36.6386L57.6855 36.5035L57.9127 36.4817L58.1573 36.7301L58.4981 36.8609L58.6292 36.996V37.1747L58.9 37.3098L59.2146 37.2836L59.6646 37.1529L60.4291 36.6604L61.4164 36.3248L62.2945 35.8148L62.8581 35.7931L63.4872 35.9238L64.1818 35.7451H64.5663L64.7891 36.2376L65.0599 36.4381L65.6235 36.704L65.8463 36.7519L66.3181 36.6386L66.5191 36.7737L67.0171 37.3751L67.62 37.5974L67.7817 37.6192L68.3409 37.2836L68.9045 37.2182" fill="white"/>
<path d="M57.2572 82.6441L57.1829 82.7312L56.7024 81.9555L56.9863 81.2363L57.362 80.7613L57.4625 80.7351L57.5499 80.9313V81.1884L57.2572 82.6441V82.6441ZM55.1995 85.6731L54.9549 85.7429L54.7233 85.7211L54.6927 85.6296L54.719 85.294L54.8893 84.7361L54.8631 83.9559L54.4699 83.4112L54.3607 83.0581L54.3695 82.7705L55.1995 80.3472L56.2699 79.5845L56.3703 79.6107L56.3966 79.7632L56.2393 80.7613L56.3572 81.9162L56.7155 83.6509L56.6106 84.7099L55.5141 85.5293L55.1995 85.6731V85.6731ZM52.4297 65.2412L52.3205 65.6727L51.8574 66.2262L51.7482 66.1957L51.8094 65.8557L51.6696 65.8252L51.3113 66.1347L51.1235 66.4267L50.8439 66.6707L50.8133 66.8233L50.8919 66.9758L51.1541 66.8669L51.4162 66.9148L51.5385 67.0848L51.4773 67.3942L51.5385 67.5337L51.8487 67.7778L51.7875 67.9172L51.8356 68.1308L52.054 68.3749L52.2069 68.6974L52.2681 69.5124L52.2375 69.8218L52.0977 70.1313V70.3143L52.22 70.4538L52.1283 70.7153L52.2069 70.6979L52.3598 70.8199L52.5783 70.7589L52.8404 70.8678L52.9016 70.9768L52.7486 71.2209L52.67 71.8833L52.9802 72.6373L52.9627 73.0819L53.0851 73.3129L53.3166 73.2344L53.487 73.0819L53.535 72.9424L53.8758 72.8204L54.1073 72.6068L54.3389 72.8204L54.5093 72.8509L55.7019 72.9119L56.2611 73.0949L57.4407 73.1124L57.9212 73.2344L58.5023 73.5046L58.3319 74.3196L58.1047 74.6073L57.93 74.616L57.8601 74.5463L57.8077 74.2804L57.4756 74.1061L56.6106 74.2804L56.5888 74.9865L57.03 75.3831L57.1174 76.7385L56.9732 77.109L56.366 77.8935L56.1432 78.0068L56.0427 77.985L55.9378 77.8325L55.8461 77.3095L55.4311 76.5903L55.3437 76.5075L55.2869 76.5685L55.1209 77.3182L55.2039 77.7061L55.632 78.3162L55.881 78.5342L55.9247 78.9613L55.5883 79.1313L55.0422 79.8765L54.3782 81.1274L54.2122 82.1952L54.1073 82.4L53.9413 82.4959L53.0763 82.6223L52.5739 83.1017L52.2899 83.2848L50.8745 83.8862L48.8954 84.5966L46.1868 85.7254L44.531 86.7191L43.9893 86.7889L43.832 86.6189L43.7752 86.3705L43.7709 83.1802L43.7228 82.8141L43.5699 82.509L43.1243 81.925L42.8141 81.6373L42.4952 81.6722L41.8224 81.2886V80.892L42.1632 79.8591L42.801 78.861L42.9714 77.8761L43.6398 76.5685L44.0723 76.4465L44.2252 76.3245L44.3039 76.233L44.2427 76.124L44.3344 75.954L44.4917 76.002L44.8631 75.8625L45.064 75.601L45.2038 74.8165L45.5096 74.5768L45.7281 74.2368L45.7106 73.9579L45.8023 73.8184L46.0514 73.8359L48.6289 71.9749L48.7993 72.0969L48.9391 72.0795L49.0309 71.5085L49.2012 71.1555L48.891 70.4799V70.31L49.3104 69.9874L49.4197 69.6344L49.127 69.2335L49.0789 68.8935L49.3891 67.9259L49.7779 66.2349L49.8391 66.1565L50.6473 66.0954L51.438 65.8034L51.6084 65.664L51.8268 65.7119L52.2594 65.372L52.4297 65.2412V65.2412Z" fill="#F1F1F1"/>
<path d="M14.5308 77.8539L14.6837 77.4486L14.8497 77.3222L15.374 77.1435L15.7147 76.9386L16.2302 76.8471L16.5011 76.6205L16.5666 76.372L17.2001 76.2108L17.5976 76.0147L17.8248 75.6181L17.7549 75.4219L17.6064 75.4306L17.4098 75.3086L17.554 74.9556L17.3224 74.0534L17.2831 73.4868L17.0559 72.6892L16.7588 72.1967L17.0253 71.8829L17.0166 71.7566L17.0996 71.6563L17.1171 71.5561L16.8156 70.9938L17.1215 70.7367L17.0909 70.5537L17.1608 70.3837L17.1389 70.3183L16.7501 70.2616L16.5229 70.3227L16.3744 70.2224L16.3089 70.0394L16.4574 69.852L16.4749 69.6951L16.3351 69.5164L16.3438 69.2374L16.3919 69.0457L16.5535 68.8975L16.6191 68.7319L16.5666 68.2089L16.4705 67.9822L16.3438 67.9125L16.1603 67.9909L16.1123 68.1871L16.0336 68.2437L15.8501 68.2873L15.7366 68.2045L15.6579 68.0127L15.4657 67.9648L15.4482 67.6292L15.6885 67.4636L15.8108 67.2762L16.1953 67.1846L16.3875 66.9449L16.6016 67.1193L16.7326 66.9885L16.9423 66.9232L17.104 67.1062L17.4578 67.0103L17.4273 66.8142L17.3137 66.6442L17.6719 66.4307L17.7942 66.5004L17.8117 66.7139L17.9471 66.775L17.9865 66.4873L17.9253 66.143L18.0913 66.204L18.1481 65.973L18.633 66.0689L18.6112 65.9425L18.7029 65.9251L18.8864 65.7159L18.9607 65.4587L19.2359 65.3149L19.3932 64.988H19.5243L19.5767 64.7527L19.6728 64.6742L20.1577 64.6699L20.2932 64.5566L20.8174 64.465L20.8698 64.3343L20.7257 64.2123L20.8393 64.0031L20.6995 63.7241L20.8218 63.4888L21.0315 63.4234L21.2325 63.2142L21.1582 62.9135L21.2892 62.7522L21.547 62.7348L21.9533 62.4907L22.0494 62.3643L22.3814 62.2423L22.827 62.2728L23.028 62.1595L23.0979 61.9111L23.1634 61.8805L23.4605 61.9459L23.3338 61.6147L23.395 61.2399L23.6091 61.4709L23.7707 61.5362L24.2949 61.388L24.3255 61.2529L24.1901 60.7692L24.2731 60.6907L24.7449 60.7387L25.0813 60.8738H25.2473L25.291 60.8433L25.1862 60.5295L25.5488 60.0326L25.7847 60.0457L25.9376 60.1677L26.2172 60.6951L26.3963 60.9043L26.5536 60.7125L26.7327 60.791L27.1041 60.6558L27.3181 60.4641L27.4798 60.5251L27.4841 60.791L27.6458 60.9043L27.7506 60.804L27.7856 60.5992L28.1569 60.6733L28.1962 60.5905L28.5982 60.5556V60.4641L28.8603 60.3115L29.2491 60.2985L29.3583 60.1154L29.6816 60.1023L29.7166 59.7319L29.9699 59.6665L30.219 59.7406L30.5248 59.6883L30.8175 59.4137L31.4466 59.2307L31.5908 59.0956L32.1718 59.1566L32.316 59.052H32.4776L32.5956 58.8297L32.7659 58.7774L32.8227 58.9299L33.0412 58.9343L33.1635 59.1566L33.229 59.2132L33.2858 59.1784L33.3557 58.9648L33.6441 58.6161L33.5611 58.2762L33.2203 57.9667L33.3426 57.8752L33.43 57.6137L33.6615 57.4525L33.845 57.191L34.2207 57.1125L34.4654 56.8902L34.5833 56.6418L34.7406 56.6113L34.7756 56.4675L34.627 56.3803L34.8193 56.267L34.9722 55.9227L34.9416 55.8268L34.7799 55.805L34.8586 55.4694L34.9722 55.3038L34.8193 55.1992L34.7319 55.0467L34.8018 54.4583L34.1246 54.1053L33.6746 53.6651L33.6877 53.5823L33.963 53.4166L34.2863 53.3295L34.8892 53.4384L35.2911 53.1987L35.5226 53.02L35.5488 52.9198L35.9682 52.5624L36.0381 52.4273L36.6148 52.0961L36.7328 51.621L37.0298 51.4379H37.2046L37.2876 51.2549L37.4492 51.1808L37.5323 50.9934L37.6895 50.8844L37.79 50.575L38.0128 50.4486H38.2269L38.4104 50.5924L38.5196 50.514L38.6244 50.5401L38.9302 50.4355L39.1662 50.4748L39.7254 50.1871L39.8826 50.2263L40.0137 50.174L40.3326 50.3702L40.4768 50.7929L40.3326 50.9367V51.0283L40.6079 51.1721L40.6515 51.3551L40.835 51.4336L41.5122 51.3551L41.8311 51.4336L42.0539 51.621L42.3597 51.6733L42.4515 51.6471L42.4252 51.3551L42.718 51.159L43.1548 51.1459L43.2466 50.976V50.7014L43.5917 50.6883L43.9805 50.4094L44.1946 50.1261L44.4349 50.0825L44.5747 50.1435L44.9329 49.882L45.1514 49.9125L45.3217 49.8079L45.5533 49.9518L45.6406 50.1348L45.846 50.1871L45.7149 49.9779L45.7324 49.8777L46.0819 49.5508L46.3047 49.6118L46.5013 49.7731L46.6717 50.0781L46.7984 50.7798L47.043 51.2854L47.3619 51.6602L47.5017 51.9435L47.7857 52.1919L47.7639 52.5014L47.6765 52.6714L47.1566 53.0331L47.0911 53.1726L46.9425 52.9634L46.8683 52.9547L46.5493 52.9764L46.4139 53.0462L46.3659 52.9547L46.2479 52.9285L45.9552 53.1159L45.7237 53.6084L45.6406 53.6956L45.4703 53.7261L45.4615 53.8786L45.2737 54.0878L45.3086 54.2709L45.147 54.6544L45.2737 54.8723L45.5314 54.8244L45.6712 54.9769L45.8329 54.9682L45.9377 55.1033L45.9814 55.7309L46.178 56.1014L46.1431 56.3803L46.2348 56.5852V56.8161L46.6804 56.7333L47.0736 56.8379L47.4056 56.5503L47.611 56.45L47.8163 56.4457L47.943 56.158L49.0002 55.6481L49.1575 56.1362L48.974 56.389L48.7818 56.5023V56.7944L48.5415 57.2084L48.6682 57.4045L48.6507 57.6137L48.4672 57.6486L48.5502 58.2849L48.7119 58.3285L48.6201 58.8036L48.7206 58.8297L49.0352 59.1522L49.2055 59.6011L49.424 59.7885L49.5463 60.6166L49.5332 61.1353L49.7123 61.5755L50.4463 61.7062L50.7914 62.0069L51.0535 62.4341L51.6302 62.8002L51.7307 62.9265L51.8224 63.3406L52.0059 63.3188L52.1807 63.5106L52.3292 63.5716L52.4122 63.8723L52.5127 63.9333L52.6612 63.7895L52.801 63.759L53.133 64.0466L53.1199 64.16L52.7224 64.4476L52.5258 64.6786L52.4253 65.2452L52.2724 65.3803L51.8399 65.7202L51.6215 65.6723L51.4511 65.8118L50.6603 66.1038L49.8521 66.1648L49.791 66.2432L49.4021 67.9343L49.092 68.9018L49.14 69.2418L49.4327 69.6428L49.3235 69.9958L48.9041 70.3183V70.4883L49.2143 71.1638L49.0439 71.5168L48.9522 72.0878L48.8124 72.1009L48.642 71.9788L46.0688 73.8398L45.8198 73.8268L45.7237 73.9662L45.7411 74.2408L45.5227 74.5808L45.2169 74.8205L45.0771 75.605L44.8761 75.8665L44.5048 76.0016L44.3475 75.958L44.2557 76.128L44.3169 76.2326L44.2383 76.3285L44.0854 76.4505L43.6485 76.5725L42.9844 77.88L42.8141 78.865L42.1762 79.8674L41.8355 80.896V81.2926L40.7782 80.7914L39.9656 80.5735L39.4327 80.6127L37.8643 81.3623L37.0561 81.4844L36.7066 81.4713L36.2391 81.188L36.4532 80.5081L36.4838 79.8195L36.3702 79.4229L36.2129 79.1919L35.2256 79.2529L35.029 79.4665L34.9547 79.728L34.3999 79.8544L33.4868 79.2747L32.1237 77.8539L31.8966 77.8234L31.2544 78.5207L31.2063 78.7691L31.3985 79.0176L31.2675 79.4534L29.8214 80.3381L29.3059 80.6999L29.0001 81.0137L28.2356 81.249L28.0958 81.236L27.2307 80.5517L26.3876 80.2597L25.9332 80.251L25.2998 80.495L23.6877 82.0292L23.4212 82.1774L23.2421 82.2035L22.6086 81.942L22.8926 80.9483L22.6872 79.3531V78.9958L22.8096 78.5251L22.7965 78.2113L22.2023 77.1522L22.0276 76.4549L21.8179 76.4243L21.8484 76.773L21.5994 77.1391L21.7873 77.2917L21.7436 77.4878L21.3329 77.5619L21.2019 77.7057L20.6601 78.0413L20.5859 77.8364L20.1883 77.4878L19.865 77.2394L19.6772 77.2088H19.0306L17.6981 77.9716L17.1651 78.2025L16.7414 78.3333L16.0948 78.4205L15.1424 77.7493L14.5308 77.8539Z" fill="#C4C4C4"/>
<path d="M66.8815 30.8108L66.6368 30.9982L66.0733 30.5536L65.8679 30.0132L65.881 29.8345L65.951 29.7386L66.5888 29.6863L66.947 29.7953L67.0126 29.9348L66.8815 30.8108V30.8108ZM64.8151 28.7231L65.7762 29.2897L65.7718 29.3769L65.5359 29.5817L64.7976 29.2592L63.9544 29.2156L63.6748 29.0805L63.5001 28.8452L63.535 28.6578L63.9326 28.4921L64.8151 28.7231ZM67.3009 25.498L66.9601 25.6244L66.4402 25.2452L66.3616 24.8573L66.3922 24.7614L66.733 24.3909L66.947 24.4127L67.4931 24.8529L67.5368 25.0578L67.3009 25.498V25.498ZM68.5154 24.0554L68.7033 24.1382L68.8868 25.0142L68.6421 25.206L68.4193 25.2408L68.1528 25.1057L66.615 23.8767L66.6412 23.7633L67.0344 23.4408L67.2572 23.4277L67.6941 23.5803L67.7771 23.7459L68.0305 23.929L68.5154 24.0554V24.0554ZM51.9316 24.683L51.9491 24.2776L52.0933 23.9856L52.2549 23.9987L52.6 23.6021L52.7748 23.6282L52.836 23.7721L53.0151 23.7241L53.0719 23.4757L53.3864 23.2142L53.3253 23.0311L53.3777 22.5779L53.6092 22.4951L53.7534 22.7435L54.4131 22.8742L54.531 22.9614L54.5791 23.175L54.8631 23.3929L54.9504 23.3362L55.1208 23.005L55.4922 22.8612L55.549 22.5822L55.6145 22.5343L56.2305 22.6258L56.3616 22.7043L57.0256 22.5517L57.5367 22.9745L57.6241 23.2534L57.8819 23.1924L57.9824 22.957L58.144 23.0268L58.3493 22.9919L58.3275 22.7217L58.5634 22.4297L58.7425 22.6258L58.9085 22.6781L59.0177 22.944L59.3541 22.8394L59.5857 22.9091L59.7211 22.8655L59.8434 22.7958L59.957 22.5779L60.1361 22.6868L60.3022 22.896L60.4158 22.8481L60.6298 22.9701L60.9313 22.883L61.1628 22.7043L61.4817 22.7827L61.6084 22.883L61.8924 22.9091L62.0147 23.0399L62.1633 22.8699L62.6482 22.9353L62.9321 22.8612L63.1899 22.9091L63.4695 22.8394L63.5088 22.7566L63.7404 22.665L65.0597 23.6021L65.2345 23.9769L65.3393 24.0423L65.8679 24.1905L66.2568 24.0771L66.3616 24.1512L66.0077 24.3692L65.6102 24.4912L64.9287 24.2951L64.8544 24.3779V24.6219L65.0248 24.7614L65.4442 24.8616L66.5975 25.8292L65.833 25.9425L66.5582 26.3566L67.2397 26.4306L67.7946 27.0147L67.812 27.128L67.7028 27.4069L68.1659 27.5464L68.131 27.6553L67.6067 28.1435L67.1393 28.235L65.7544 28.3352L64.5879 28.1696L63.8015 28.3004L63.5918 28.4268L63.3996 28.7101L63.4127 28.8888L63.6574 29.2679L64.3039 29.6733L64.8544 29.6079L65.2039 29.6994L65.2126 30.0655L65.0903 30.2921L65.8592 30.6931L65.7849 30.8151L65.2345 30.8892L64.8588 31.0374L64.7321 31.2379L64.3083 31.312L64.234 31.4602L64.47 31.5996L65.3481 31.7522L66.532 32.2665L67.065 33.173L66.9427 33.8747L66.9383 34.4239L67.3839 34.5023L67.7334 34.7159L67.8251 34.8597L67.8863 35.4437L67.9868 35.7575L69.2013 36.9517L68.8999 37.2088L68.3363 37.2742L67.7727 37.6098L67.6154 37.588L67.0082 37.3657L66.5145 36.7643L66.3136 36.6292L65.8417 36.7425L65.6189 36.6989L65.0554 36.4331L64.7845 36.2326L64.5617 35.7401H64.1816L63.4826 35.9188L62.8535 35.7837L62.2899 35.8055L61.4118 36.3197L60.4245 36.6553L59.66 37.1478L59.21 37.2829L58.8954 37.3047L58.6246 37.1696V36.9909L58.4979 36.8558L58.1615 36.7207L57.9125 36.4766L57.6896 36.4984L57.5761 36.6335L57.4406 37.2132L57.2834 37.3265L56.9251 37.928L56.8334 38.2418L56.8115 39.2006L56.746 39.558L56.4533 39.7367L56.3397 40.0243L55.8679 40.2684L55.6669 40.5125L55.6232 40.8045L55.7587 41.3188L55.1951 42.3866L54.4961 43.3236L54.116 43.6592L53.867 44.1735L53.417 44.5527L52.4035 44.5744L51.3943 44.9536L50.538 44.9318L50.3589 45.1105L50.2453 45.7991L50.0225 45.9125L49.6861 46.3134L49.2361 46.2263L48.8779 46.6272L48.5415 46.5836L48.2925 46.4703H47.7071L47.327 46.8931L47.0343 46.8713L46.8333 46.7841L46.6542 46.5836L46.5886 46.3178L46.4532 46.1391L46.2304 46.0519L45.9159 46.0083L45.5576 46.2088L45.4659 46.0955L45.3741 45.651L45.0377 45.2718L44.3431 45.0713L44.0723 44.849L43.9587 44.6485L43.6135 44.4655L43.8276 44.1125L43.749 43.9817L43.8014 43.6548L44.1509 43.45L44.3781 43.049L44.5441 42.9139L44.6009 42.4824L44.5528 41.9638L44.496 41.9071L44.7101 41.6195L44.6795 41.5018L44.9242 41.4321L45.1601 41.541L45.3567 41.2621L45.6494 41.2142L45.8066 41.066L45.6319 40.713L45.6537 40.6127L45.9552 40.3861L45.9464 40.2902L45.7236 40.1812L45.3916 40.3294L45.3042 40.1333L45.3741 39.7149L45.2212 39.6321L45.1513 39.5057L45.1426 39.1483L45.2911 38.5774L46.095 38.4902L46.4357 38.2766L46.4532 38.1764L46.3091 37.989L46.4445 37.7144L46.7372 37.7624L46.925 37.6621L47.1478 37.405H47.4406L47.5279 37.1478L47.7245 36.9691L47.9779 36.8907L48.3187 36.8994L48.5808 36.6815L48.6114 36.5464L48.406 36.3982L48.358 36.25L48.0653 35.9057L47.6328 36.0408L47.4974 35.836L47.6328 35.6703L47.6721 35.4917V35.2781L47.5716 35.2171V35.0515L47.8337 34.8248V34.6374L47.9124 34.4892L47.8337 34.3716L47.6109 34.3149L47.5935 34.2364L48.0129 33.9009L48.1221 33.4389L48.8167 32.9769L48.9652 32.6151L49.2317 32.8984L49.2492 33.0771L49.7866 33.0379L50.1404 32.7023L50.5904 32.6413L50.6691 32.4931V32.127L50.7259 32.0181L51.0797 31.726V31.6389L50.7695 31.4122L50.7477 31.3338L50.9312 30.1091L51.2064 29.5599L51.355 29.5687L51.5297 29.8432L51.7045 29.5905L51.4511 29.1503L51.3943 28.6708L51.2283 28.466L51.1584 28.0912L51.1802 27.4156L51.2414 27.1062L51.4685 26.6529L51.486 26.4089L51.4642 26.3304L51.1234 26.0863L51.0666 25.9512L51.438 25.851L51.6346 25.6723L51.9273 24.7658L51.9316 24.683V24.683Z" fill="#C4C4C4"/>
<path d="M65.1385 5.66556L64.9812 5.683L64.5138 5.56968L64.3958 5.43457L64.4526 5.32997L64.8764 5.2951L65.1734 5.17743L65.2259 5.07719L65.1822 4.98566L64.9157 4.95079L64.8895 4.84619L64.9681 4.76774L65.4006 4.65878L65.5841 4.78953L65.7588 5.08154L65.7414 5.28639L65.6496 5.3997L65.1385 5.66556V5.66556ZM60.228 6.00116L60.3503 6.05781L60.5338 6.03166L60.8222 5.90963L62.2245 4.17937L62.2726 4.04426L62.0847 3.53433L62.0935 3.35128L62.3774 3.01569L62.5347 2.91109L62.9541 2.84571L63.2031 2.92852L63.7405 3.26847L63.7667 3.69559L63.7099 3.89607L63.7711 4.60213L64.0332 5.56532L65.3831 6.32367L66.0778 6.33675L66.7549 6.51108L66.969 6.68542L67.3316 7.1997L67.4452 7.47428L67.3185 8.4549L67.2224 8.51156L66.934 8.46798L66.7112 8.55515L66.4884 8.72948L66.3967 8.93868L66.4098 9.04764L66.8685 9.71882L66.9603 10.5208L66.6195 10.8389L65.6584 11.1702L67.7685 11.0263L68.5592 10.743L69.315 9.96289L69.4679 9.92367L69.7825 10.2375L70.3591 11.4099L70.0227 11.8152L69.7213 11.8675L68.8956 11.789L68.7209 11.9111L68.7951 12.2336L69.0791 12.761L70.3635 12.7261L70.595 11.9939L70.748 11.8675L71.3683 11.6888L72.2377 11.8413L73.0022 12.2118L73.7886 12.7348L74.3172 13.1183L74.6449 13.467L76.4797 14.683L77.502 14.8748L77.7467 14.8094L77.9651 14.6394L78.4064 14.5827L78.7777 14.8835L79.0573 15.3237L79.0311 16.2346L78.6641 16.7968L78.2666 17.0714L77.502 17.3895L76.3181 17.7077L74.7191 18.344L73.5702 18.2263L72.7925 17.9212L72.5391 17.6859L72.0935 17.6467L70.9839 18.2045L70.4771 18.758L70.4159 19.0195L71.5474 20.3183L72.5654 20.9764L72.6615 20.8413L72.7401 20.8283L73.0765 20.9808L73.0896 21.19L72.9411 21.3905L73.26 21.6738L73.5221 21.4864L73.9066 21.5169L74.2866 22.1445L74.1731 22.3144L73.5658 22.7982L72.478 22.82L70.8091 23.1295L70.3679 23.2602L69.3936 23.7571L68.7121 23.5914L68.3888 23.282L67.1044 22.6239L66.6239 22.7808L66.7942 23.4302L66.4098 23.9358L66.3443 24.1537L66.2394 24.0796L65.8506 24.1929L65.322 24.0447L65.2171 23.9793L65.0424 23.6045L63.723 22.6675L63.4915 22.759L63.4521 22.8418L63.1726 22.9115L62.9148 22.8636L62.6308 22.9377L62.1459 22.8723L61.9974 23.0423L61.875 22.9115L61.5911 22.8854L61.4644 22.7851L61.1455 22.7067L60.9139 22.8854L60.6125 22.9726L60.3984 22.8505L60.2848 22.8985L60.1188 22.6893L59.9397 22.5803L59.8261 22.7982L59.7038 22.868L59.5683 22.9115L59.3368 22.8418L59.0004 22.9464L58.8912 22.6806L58.7252 22.6283L58.5461 22.4321L58.3101 22.7241L58.332 22.9944L58.1266 23.0292L57.965 22.9595L57.8645 23.1948L57.6242 23.2559L57.5412 22.9813L57.0301 22.5585L56.366 22.7111L56.235 22.6326L55.619 22.5411L55.5535 22.589L55.4967 22.868L55.1253 23.0118L54.9549 23.343L54.8676 23.3997L54.5836 23.1818L54.5355 22.9682L54.4176 22.881L53.7579 22.7503L53.6137 22.5019L53.3822 22.5847L53.3298 23.0379L53.3909 23.221L53.0764 23.4825L53.0196 23.7309L52.8405 23.7789L52.7793 23.635L52.6046 23.6089L52.2594 24.0055L52.0978 23.9924L51.9536 24.2844L51.9361 24.6897V24.7028L51.7876 24.6723L51.5473 24.4849L51.4119 24.1624L51.5997 23.683V21.1987L51.3289 19.6776L51.1148 17.8864L50.3678 17.7731L50.7522 17.6162L50.9706 17.4157L51.093 16.5832L50.9794 16.4089L50.7566 16.4263L50.4202 16.2738L49.4722 15.607L49.6294 14.9183L50.7478 14.0423L52.5172 14.0205L52.9322 13.9159L53.1681 13.6893L53.5176 13.0791L53.6967 12.3077L54.6972 11.606L54.7147 11.1571L54.9943 10.5731L55.1428 9.44425L56.7942 7.6704L58.0961 6.68977L58.1441 6.30624L59.1752 5.12513L59.1708 4.58033L59.2756 4.02682L59.7213 3.11157L60.0096 2.73239L60.1013 2.69317L60.5994 3.129L60.6518 3.25104L60.8003 4.34934L60.7392 4.69801L60.4246 5.10334L60.2062 5.55224L60.1756 5.8704L60.228 6.00116V6.00116ZM64.0026 0.452979L63.9546 1.06315L63.758 1.51206L62.9934 1.59051L62.6046 1.82586L62.4604 2.06993H62.3643L62.2551 1.57307L62.3338 0.810364L62.3949 0.718839L62.9585 0.339662L63.5439 0.200195L63.8934 0.265571L64.0026 0.452979V0.452979ZM60.9183 1.18954L60.7829 1.47719L60.7479 1.44232L60.9489 0.79293L61.8707 0.200195L61.9974 0.535788L62.0017 0.849589L61.5474 1.037L60.9183 1.18954Z" fill="white"/>
<path d="M19.6295 37.6204L19.3018 37.7468L19.1708 37.6552L18.8169 37.0712L18.878 36.7182L18.7382 34.9487L18.8169 34.6916L19.0091 34.5957L19.2013 34.7482L19.4067 35.2102L19.3717 36.7313L19.6295 37.6204ZM50.3636 17.7725L51.1107 17.8858L51.3248 19.6771L51.5956 21.1981V23.6824L51.4078 24.1618L51.5432 24.4843L51.7835 24.6717L51.932 24.7022L51.9276 24.7589L51.635 25.6654L51.4384 25.8441L51.067 25.9444L51.1238 26.0795L51.4646 26.3235L51.4864 26.402L51.4689 26.6461L51.2418 27.0993L51.1806 27.4088L51.1588 28.0843L51.2287 28.4591L51.3947 28.664L51.4515 29.1434L51.7049 29.5836L51.5301 29.8364L51.3553 29.5618L51.2068 29.5531L50.9316 30.1022L50.7481 31.3269L50.7699 31.4054L51.0801 31.632V31.7192L50.7262 32.0112L50.6695 32.1201V32.4862L50.5908 32.6344L50.1408 32.6954L49.787 33.031L49.2496 33.0703L49.2321 32.8916L48.9656 32.6083L48.8171 32.97L48.1225 33.432L48.0133 33.894L47.5939 34.2296L47.6113 34.308L47.8341 34.3647L47.9128 34.4824L47.8341 34.6305V34.818L47.572 35.0446V35.2102L47.6725 35.2712V35.4848L47.6332 35.6635L47.4977 35.8291L47.6332 36.0339L48.0657 35.8988L48.3584 36.2431L48.4064 36.3913L48.6118 36.5395L48.5812 36.6746L48.3191 36.8925L47.9783 36.8838L47.7249 36.9623L47.5283 37.141L47.4409 37.3981H47.1482L46.9254 37.6552L46.7376 37.7555L46.4449 37.7075L46.3094 37.9821L46.4536 38.1695L46.4361 38.2698L46.0954 38.4833L45.2915 38.5705L45.143 39.1414L45.1517 39.4988L45.2216 39.6252L45.3745 39.708L45.3046 40.1264L45.392 40.3225L45.724 40.1744L45.9468 40.2833L45.9556 40.3792L45.6541 40.6058L45.6323 40.7061L45.807 41.0591L45.6498 41.2073L45.3571 41.2552L45.1605 41.5342L44.9245 41.4252L44.6799 41.4949L44.7105 41.6126L44.4964 41.9003L44.5532 41.9569L44.6013 42.4756L44.5445 42.907L44.3784 43.0422L44.1513 43.4431L43.8018 43.648L43.7493 43.9748L43.828 44.1056L43.6139 44.4586L43.5222 44.6417L43.3518 44.694L42.2247 44.0359L41.9713 44.2712L41.281 44.5589L40.9752 44.5981L40.8703 44.7942L40.7218 44.8552L40.6344 44.7332L40.2107 44.4499L38.8782 44.5894L38.7034 44.7855L37.8646 45.1298L37.8341 45.2039L37.8909 45.2911L37.7685 45.6572L36.9385 45.9928L36.7724 46.1889L36.6196 46.2848H36.4885L36.3487 46.2412L36.021 45.6572L35.7283 45.5264L35.3701 45.5482L35.1211 45.6441L34.9769 45.7748L34.8021 45.7661L34.6711 45.6049L34.409 45.4436L34.3347 45.2911L34.0201 45.0731L33.6837 44.986L32.9847 45.0514L32.6571 44.9555L32.4911 44.6635L32.3294 44.6417L31.7396 44.8378L31.412 44.8073L31.4775 44.6112L31.6086 44.4804L31.827 44.4063L32.0455 43.9748L32.1197 43.953L32.0629 43.7787L31.8358 43.648L31.5605 43.5957L31.1586 43.6262L30.8004 43.5303L30.713 43.5521L30.5601 43.7569L30.3111 43.8877L30.1582 43.879L29.9179 43.7046L29.197 43.7569L27.9301 43.5957L27.4845 43.7569L27.4495 43.8877L27.2093 44.0054L26.5234 44.1579L25.9685 44.5022H25.785L25.5666 44.7419L25.7501 45.0252L25.7282 45.3085L25.3569 45.6746L25.2914 46.324L25.1821 46.5855L25.1953 46.8688L23.7885 46.9647L23.1987 47.5705L23.0589 47.9061L22.3162 47.7535L22.0629 47.8276L21.626 47.601L21.508 47.6097L21.0144 47.9671L20.7872 47.9976L20.7435 48.2242L20.643 48.233L20.3372 47.723L20.0008 47.6707L19.695 47.8015L19.4766 47.8102L19.2581 47.6707L18.4936 47.4223L18.3538 47.2916L17.5019 47.54L15.8199 47.7579L15.702 48.0194L15.4267 48.2591L15.1122 48.3114L14.6971 48.5511L14.3608 48.6601L14.1947 48.7995L13.9982 48.8083L13.8016 48.6121L13.6268 48.9041L13.3865 48.9564L13.0676 48.9259L12.5434 48.7429L12.3904 48.6252L11.9973 48.0281L11.5735 47.9191H11.1454L11.0056 47.4964L10.8221 47.1826L10.6124 47.0083L10.5468 46.7816L10.3502 46.4896L10.0313 46.4242L9.76919 46.4547L9.58134 46.3022L9.42843 45.923L8.77749 45.6005L8.70322 44.9947L8.594 44.864L8.37557 44.7768L7.82073 44.755L7.45813 44.1928L7.30522 44.1274L6.51011 43.3385L6.37904 43.0552L6.56254 42.1225L6.497 41.97L5.97275 41.8393L5.79801 41.569L5.60141 41.4296L5.49219 41.1724L5.51403 40.9676L5.77616 40.9371L5.90722 40.6102L6.07323 40.5143L6.29167 39.9129L6.35721 40.4271L6.32662 40.924L6.47516 41.2117L6.76786 41.5603L8.19645 42.5322L8.41052 42.7676L8.81681 42.8286L10.8658 42.6543L11.3507 41.9918L11.4512 41.9351L11.5385 41.9656L12.5608 43.1206L12.5827 43.2644L14.2646 43.77L14.4962 43.8964L14.5486 44.0359L14.5049 44.1797L14.0593 44.5676L14.1467 44.6112L14.5006 44.5502L14.7146 44.3497L14.8064 43.7264L15.1646 43.6872L16.3311 44.2233L16.9864 44.9075L17.6854 45.217L18.9261 45.448L19.3717 45.3521L18.6815 44.8509L18.3407 44.8291L17.9344 44.9773L17.7203 44.9511L16.9514 44.4848L16.6107 43.9487L16.5145 43.6567L16.733 42.9506L16.9995 42.8286L17.8208 40.8368L18.0655 39.9477L18.3232 39.586L18.4412 39.5206L18.9698 39.6557L19.1533 39.5555L19.3149 39.3506L19.328 39.2635L19.2013 39.2286L17.9693 39.3942L17.8252 39.3594L17.9038 38.4877L18.1179 37.4635L18.2271 37.2848L18.3713 37.2325L18.9086 37.5463L19.3062 37.908L19.5028 37.7816L19.9265 37.6901L19.5683 36.849L19.8217 35.4107L19.9091 35.2451L21.5736 34.0988L22.7444 33.9071L23.7011 33.8548L24.7802 33.6674L30.6125 32.1986L31.2809 31.9894L31.7134 31.754L31.9537 31.5274L32.2595 31.0611L33.7143 29.309L34.7716 27.7662L35.5492 26.8945L36.6982 25.9618L37.1962 25.478L38.6379 23.6214L38.9263 23.0417L39.1534 22.1526L39.1316 21.8127L38.9131 21.1763L38.9437 21.0805L39.1753 20.9541L40.0665 21.0064L40.9009 21.3202L41.5737 22.2267L41.6829 22.9763L42.1679 23.5124L43.2688 24.4451L43.8061 25.0596L43.8324 25.2209L43.9416 25.3298L44.1819 25.3037L44.7454 24.9855L45.2828 24.3972L45.7109 22.8761L45.6847 22.3705L45.5493 22.2354L45.1211 20.126L45.1474 19.9386L45.6323 19.4591L46.3313 19.3807L46.5454 19.3022L46.707 19.1671L46.9036 18.7967L46.9997 19.3676L46.8949 19.6771L46.9735 20.6141L47.1614 21.1502L47.4846 22.5928L48.3715 22.911L49.3108 23.1245L49.4462 23.0722L49.3938 22.6713L48.9351 22.3226L48.8258 22.1613L48.7734 21.8388V21.2243L48.8521 21.0107L48.8258 20.6882L48.3977 19.3545L47.8691 18.6659L48.4152 18.2693L48.9132 18.5134L49.2278 18.7531L49.4462 18.7095L49.7171 18.5134L50.3636 17.7725V17.7725Z" fill="#9F9F9F"/>
<path d="M73.924 20.6435L73.7143 20.9355L73.4216 20.9311L72.0629 20.3907L73.0372 20.26L73.924 20.6435V20.6435ZM47.8688 18.6387L48.3974 19.3273L48.8255 20.6609L48.8518 20.9834L48.7731 21.197L48.8255 22.134L48.9348 22.2953L49.3935 22.644L49.4459 23.0449L49.3105 23.0972L48.3712 22.8837L47.4843 22.5655L47.1611 21.1229L46.9732 20.5868L46.8946 19.6498L46.9994 19.3403L47.1261 19.4449L47.2135 19.4101L47.6897 19.0614L47.8688 18.6387V18.6387ZM46.6717 18.643L46.615 18.7563L46.8902 18.7127L46.9033 18.7738L46.7067 19.1442L46.5451 19.2793L46.331 19.3578L45.632 19.4362L45.1471 19.9156L45.1208 20.1031L45.549 22.2125L45.6844 22.3476L45.7106 22.8532L45.2825 24.3742L44.7451 24.9626L44.1816 25.2808L43.9413 25.3069L43.8321 25.198L43.8058 25.0411L43.2685 24.4265L42.1676 23.4939L41.6826 22.9578L41.5734 22.2081L40.9006 21.3016L40.0662 20.9878L40.5468 20.9834L40.7215 21.0663L41.4598 20.9616L43.12 20.2425L43.3078 20.1205L44.2253 19.1791L44.7582 18.7781L46.0951 17.9457L47.0518 17.5621L47.2703 17.5186L47.4887 17.5621L47.5324 17.6275L46.6717 18.643V18.643Z" fill="white"/>
</svg>
