<svg width="87" height="77" viewBox="0 0 87 77" fill="none" xmlns="http://www.w3.org/2000/svg">
<path d="M85.8688 46.1927L85.9456 46.3148V46.4589V75.6739V76.1739H85.4456H3.36529H2.86529V75.6739V62.4576V62.3148L2.94074 62.1935L17.7152 38.4459L17.9878 38.0077L18.4171 38.294L32.8101 47.8893L45.6566 31.8312L45.8976 31.53L46.2501 31.6867L60.6878 38.1034L71.9364 25.2479L72.3785 24.7426L72.736 25.311L85.8688 46.1927Z" fill="#9F9F9F" stroke="#D8D8D8"/>
<rect width="6.56642" height="36.1153" transform="matrix(-1 0 0 1 75.5963 38.7129)" fill="#D8D8D8"/>
<rect width="6.56642" height="22.9825" transform="matrix(-1 0 0 1 65.7493 51.8408)" fill="white"/>
<rect width="6.29879" height="27.9946" transform="matrix(-1 0 0 1 55.8973 46.5684)" fill="#C4C4C4"/>
<rect width="6.56642" height="32.8321" transform="matrix(-1 0 0 1 46.0475 41.9902)" fill="white"/>
<rect width="6.56642" height="16.416" transform="matrix(-1 0 0 1 36.1979 58.4062)" fill="white"/>
<rect width="6.56642" height="29.5489" transform="matrix(-1 0 0 1 26.3481 45.2764)" fill="#D8D8D8"/>
<path fill-rule="evenodd" clip-rule="evenodd" d="M63.2277 6.32716C63.245 6.39174 63.2638 6.45547 63.2842 6.51832L52.8994 14.1698L45.5426 12.8439L45.2103 12.7841L45.0306 13.0698L37.0149 25.8143L26.4342 23.4306L13.9074 15.9943L13.5257 15.7677L13.2555 16.12L8.44896 22.386C7.57281 21.7698 6.43993 21.5318 5.32427 21.8305C3.32615 22.3653 2.13992 24.4186 2.67475 26.4168C3.20957 28.4149 5.26294 29.6011 7.26105 29.0663C9.25917 28.5315 10.4454 26.4781 9.91058 24.48C9.76755 23.9456 9.51591 23.4693 9.18577 23.0685L13.7787 17.0809L25.9918 24.3309L26.0599 24.3713L26.1372 24.3887L37.14 26.8675L37.4849 26.9452L37.6731 26.646L45.6974 13.8879L52.934 15.1921L53.1459 15.2303L53.3192 15.1026L63.7268 7.43434C64.5925 8.73539 66.2208 9.40313 67.814 8.97669C69.8121 8.44186 70.9983 6.3885 70.4635 4.39038C69.9287 2.39226 67.8753 1.20603 65.8772 1.74085C63.8791 2.27568 62.6928 4.32904 63.2277 6.32716Z" fill="#F1F1F1"/>
</svg>
