<svg width="87" height="37" viewBox="0 0 87 37" fill="none" xmlns="http://www.w3.org/2000/svg">
<path d="M79.4782 22.2981C77.6366 24.1071 75.4854 25.0116 73.0245 25.0116C69.8791 25.0116 67.3612 23.936 65.4707 21.7847C63.5802 19.6172 62.6349 16.6999 62.6349 13.033C62.6349 10.7025 63.1402 8.56758 64.1506 6.6282C65.1773 4.67252 66.6033 3.15687 68.4286 2.08124C70.254 0.98932 72.3074 0.443359 74.589 0.443359C76.9359 0.443359 79.0219 1.03006 80.8472 2.20347C82.6725 3.37688 84.0904 5.06365 85.1008 7.26379C86.1113 9.46393 86.6246 11.9819 86.6409 14.8176V17.4333C86.6409 23.3656 85.166 28.0266 82.2162 31.4164C79.2664 34.8063 75.0861 36.6153 69.6754 36.8434L67.9397 36.8679V30.9764L69.5043 30.952C75.6484 30.6749 78.973 27.7903 79.4782 22.2981ZM74.7602 19.609C75.901 19.609 76.8788 19.3157 77.6937 18.729C78.5248 18.1423 79.1523 17.4333 79.576 16.6022V13.6931C79.576 11.2974 79.1197 9.43949 78.207 8.1194C77.2944 6.79932 76.0721 6.13928 74.5401 6.13928C73.1223 6.13928 71.957 6.79117 71.0444 8.09496C70.1317 9.38245 69.6754 11.004 69.6754 12.9597C69.6754 14.8991 70.1154 16.4962 70.9955 17.7511C71.8918 18.9897 73.1467 19.609 74.7602 19.609Z" fill="#F1F1F1"/>
<path d="M48.1872 22.2981C46.3456 24.1071 44.1944 25.0116 41.7335 25.0116C38.5881 25.0116 36.0702 23.936 34.1797 21.7847C32.2892 19.6172 31.3439 16.6999 31.3439 13.033C31.3439 10.7025 31.8492 8.56758 32.8596 6.6282C33.8863 4.67252 35.3123 3.15687 37.1376 2.08124C38.9629 0.98932 41.0164 0.443359 43.298 0.443359C45.6448 0.443359 47.7309 1.03006 49.5562 2.20347C51.3815 3.37688 52.7994 5.06365 53.8098 7.26379C54.8202 9.46393 55.3336 11.9819 55.3499 14.8176V17.4333C55.3499 23.3656 53.875 28.0266 50.9252 31.4164C47.9754 34.8063 43.7951 36.6153 38.3844 36.8434L36.6487 36.8679V30.9764L38.2133 30.952C44.3574 30.6749 47.682 27.7903 48.1872 22.2981ZM43.4691 19.609C44.61 19.609 45.5878 19.3157 46.4027 18.729C47.2338 18.1423 47.8613 17.4333 48.285 16.6022V13.6931C48.285 11.2974 47.8287 9.43949 46.916 8.1194C46.0034 6.79932 44.7811 6.13928 43.2491 6.13928C41.8313 6.13928 40.666 6.79117 39.7534 8.09496C38.8407 9.38245 38.3844 11.004 38.3844 12.9597C38.3844 14.8991 38.8244 16.4962 39.7045 17.7511C40.6008 18.9897 41.8557 19.609 43.4691 19.609Z" fill="#9F9F9F"/>
<path d="M16.8965 22.2981C15.0549 24.1071 12.9037 25.0116 10.4428 25.0116C7.29739 25.0116 4.77945 23.936 2.88896 21.7847C0.998468 19.6172 0.0532227 16.6999 0.0532227 13.033C0.0532227 10.7025 0.55844 8.56758 1.56887 6.6282C2.59561 4.67252 4.02162 3.15687 5.84692 2.08124C7.67222 0.98932 9.72569 0.443359 12.0073 0.443359C14.3541 0.443359 16.4402 1.03006 18.2655 2.20347C20.0908 3.37688 21.5087 5.06365 22.5191 7.26379C23.5295 9.46393 24.0429 11.9819 24.0592 14.8176V17.4333C24.0592 23.3656 22.5843 28.0266 19.6345 31.4164C16.6846 34.8063 12.5044 36.6153 7.09367 36.8434L5.358 36.8679V30.9764L6.92255 30.952C13.0666 30.6749 16.3913 27.7903 16.8965 22.2981ZM12.1784 19.609C13.3192 19.609 14.2971 19.3157 15.112 18.729C15.9431 18.1423 16.5706 17.4333 16.9943 16.6022V13.6931C16.9943 11.2974 16.538 9.43949 15.6253 8.1194C14.7127 6.79932 13.4904 6.13928 11.9584 6.13928C10.5406 6.13928 9.3753 6.79117 8.46265 8.09496C7.54999 9.38245 7.09367 11.004 7.09367 12.9597C7.09367 14.8991 7.5337 16.4962 8.41375 17.7511C9.31011 18.9897 10.565 19.609 12.1784 19.609Z" fill="#C4C4C4"/>
</svg>
