<svg width="86" height="84" viewBox="0 0 86 84" fill="none" xmlns="http://www.w3.org/2000/svg">
<path d="M47.5167 44.9365H85.5464C85.5464 50.1394 84.5625 55.0854 82.5946 59.7747C80.6267 64.4639 77.8716 68.5649 74.3294 72.0776L47.5167 44.9365Z" fill="#9F9F9F"/>
<path d="M82.3982 38.5749H44.6145V0.398438C51.4694 0.398438 57.7913 2.10511 63.5802 5.51846C69.3691 8.93181 73.9527 13.563 77.3309 19.4121C80.7091 25.2612 82.3982 31.6488 82.3982 38.5749Z" fill="#C4C4C4"/>
<path d="M38.3172 44.638L65.1791 71.7791C61.7024 75.3582 57.6436 78.1419 53.0027 80.1302C48.3617 82.1186 43.4665 83.1128 38.3172 83.1128C31.4623 83.1128 25.1404 81.4061 19.3515 77.9928C13.5626 74.5794 8.97903 69.9482 5.6008 64.0991C2.22256 58.25 0.533447 51.8624 0.533447 44.9363C0.533447 38.0102 2.22256 31.6225 5.6008 25.7735C8.97903 19.9244 13.5626 15.2931 19.3515 11.8798C25.1404 8.46644 31.4623 6.75977 38.3172 6.75977V44.638Z" fill="#F1F1F1"/>
</svg>
