<svg width="86" height="71" viewBox="0 0 86 71" fill="none" xmlns="http://www.w3.org/2000/svg">
<path fill-rule="evenodd" clip-rule="evenodd" d="M31.4959 0.705078H13.1177L13.1177 10.7245H31.4959V0.705078ZM32.4959 10.7245V0.705078H50.8753V10.7245H32.4959ZM51.8753 10.7245H70.2538V0.705078H51.8753V10.7245ZM71.2538 0.705078V10.7245H85.0189V4.70508C85.0189 2.49594 83.2281 0.705078 81.0189 0.705078H71.2538ZM12.1177 10.7245V0.705078H4.00549C1.79635 0.705078 0.00549316 2.49594 0.00549316 4.70508V10.7245H12.1177Z" fill="#F1F1F1"/>
<path fill-rule="evenodd" clip-rule="evenodd" d="M31.4959 17.4019H13.1177V24.0815H31.4959V17.4019ZM32.4959 24.0815V17.4019H50.8753V24.0815H32.4959ZM31.4959 30.7623H13.1177L13.1177 37.4419H31.4959L31.4959 30.7623ZM32.4959 37.4419V30.7623H50.8753L50.8753 37.4419H32.4959ZM31.4959 44.1225H13.1177V50.8022H31.4959V44.1225ZM32.4959 50.8022V44.1225H50.8753V50.8022H32.4959ZM31.4959 57.4808H13.1177L13.1177 64.1604H31.4959V57.4808ZM32.4959 64.1604V57.4808H50.8753V64.1604H32.4959ZM51.8753 64.1604H70.2538V57.4808H51.8753V64.1604ZM51.8753 50.8022H70.2538V44.1225H51.8753V50.8022ZM51.8753 37.4419H70.2538L70.2538 30.7623H51.8753L51.8753 37.4419ZM51.8753 24.0815H70.2538V17.4019H51.8753V24.0815ZM71.2538 17.4019V24.0815H85.0189V17.4019H71.2538ZM71.2538 30.7623L71.2538 37.4419H85.0189V30.7623H71.2538ZM71.2538 44.1225V50.8022H85.0189V44.1225H71.2538ZM71.2538 57.4808V64.1604H85.0189V57.4808H71.2538ZM12.1177 64.1604V57.4808H0.00550554V64.1604H12.1177ZM12.1177 50.8022V44.1225H0.00550554V50.8022H12.1177ZM12.1177 37.4419V30.7623H0.00550554V37.4419H12.1177ZM12.1177 24.0815V17.4019H0.00549316V24.0815H12.1177Z" fill="#C4C4C4"/>
<path fill-rule="evenodd" clip-rule="evenodd" d="M31.4959 10.7236H13.1177V17.4033H31.4959V10.7236ZM32.4959 17.4033V10.7236H50.8753V17.4033H32.4959ZM31.4959 24.0827H13.1177V30.7623H31.4959V24.0827ZM32.4959 30.7623V24.0827H50.8753V30.7623H32.4959ZM31.4959 37.4429H13.1177V44.1225H31.4959V37.4429ZM32.4959 44.1225V37.4429H50.8753V44.1225H32.4959ZM31.4959 50.8022H13.1177V57.4818H31.4959V50.8022ZM32.4959 57.4818V50.8022H50.8753V57.4818H32.4959ZM31.4959 64.1624H13.1177V70.842H31.4959V64.1624ZM32.4959 70.842V64.1624H50.8753V70.842H32.4959ZM51.8753 70.842H70.2538V64.1624H51.8753V70.842ZM51.8753 57.4818H70.2538V50.8022H51.8753V57.4818ZM51.8753 44.1225H70.2538V37.4429H51.8753V44.1225ZM51.8753 30.7623H70.2538V24.0827H51.8753V30.7623ZM51.8753 17.4033H70.2538V10.7236H51.8753V17.4033ZM71.2538 10.7236V17.4033H85.0189V10.7236H71.2538ZM71.2538 24.0827V30.7623H85.0189V24.0827H71.2538ZM71.2538 37.4429V44.1225H85.0189V37.4429H71.2538ZM71.2538 50.8022V57.4818H85.0189V50.8022H71.2538ZM71.2538 64.1624V70.842H81.0189C83.2281 70.842 85.0189 69.0512 85.0189 66.842V64.1624H71.2538ZM12.1177 70.842V64.1624H0.00550554V66.842C0.00550554 69.0512 1.79636 70.842 4.0055 70.842H12.1177ZM12.1177 57.4818V50.8022H0.00550554V57.4818H12.1177ZM12.1177 44.1225V37.4429H0.00550554V44.1225H12.1177ZM12.1177 30.7623V24.0827H0.00550554V30.7623H12.1177ZM12.1177 17.4033V10.7236H0.00549316V17.4033H12.1177Z" fill="#9F9F9F"/>
</svg>
