<svg width="88" height="81" viewBox="0 0 88 81" fill="none" xmlns="http://www.w3.org/2000/svg">
<path d="M23.9865 50.75C23.8101 50.3973 23.6668 49.769 23.5566 48.8651C22.1346 50.3422 20.4371 51.0807 18.4641 51.0807C16.7004 51.0807 15.2509 50.5847 14.1156 49.5926C12.9912 48.5895 12.4291 47.3219 12.4291 45.7898C12.4291 43.9269 13.1345 42.4829 14.5455 41.4578C15.9674 40.4217 17.9625 39.9036 20.5308 39.9036H23.507V38.4982C23.507 37.429 23.1873 36.5802 22.548 35.9519C21.9087 35.3126 20.9662 34.9929 19.7206 34.9929C18.6294 34.9929 17.7145 35.2685 16.976 35.8196C16.2374 36.3708 15.8682 37.0377 15.8682 37.8203H12.7928C12.7928 36.9274 13.107 36.0677 13.7353 35.241C14.3746 34.4032 15.2344 33.7419 16.3146 33.2569C17.4059 32.7718 18.6018 32.5293 19.9025 32.5293C21.9638 32.5293 23.5786 33.0474 24.747 34.0836C25.9155 35.1087 26.5217 36.5251 26.5658 38.3328V46.5669C26.5658 48.2093 26.7752 49.5155 27.1941 50.4855V50.75H23.9865ZM18.9105 48.4187C19.8695 48.4187 20.7788 48.1707 21.6386 47.6747C22.4984 47.1786 23.1212 46.5338 23.507 45.7402V42.0696H21.1095C17.3618 42.0696 15.4879 43.1663 15.4879 45.3599C15.4879 46.3189 15.8076 47.0684 16.4469 47.6085C17.0862 48.1486 17.9074 48.4187 18.9105 48.4187Z" fill="white"/>
<path d="M46.506 42.0034C46.506 44.7371 45.8777 46.9361 44.6211 48.6006C43.3645 50.254 41.678 51.0807 39.5617 51.0807C37.302 51.0807 35.5549 50.2815 34.3203 48.6832L34.1715 50.75H31.3607V25.3535H34.4195V34.8276C35.6541 33.2954 37.3571 32.5293 39.5286 32.5293C41.7001 32.5293 43.4031 33.3505 44.6377 34.9929C45.8832 36.6353 46.506 38.884 46.506 41.7389V42.0034ZM43.4472 41.6562C43.4472 39.5729 43.0449 37.9636 42.2402 36.8282C41.4355 35.6929 40.2781 35.1252 38.768 35.1252C36.7509 35.1252 35.3014 36.0622 34.4195 37.936V45.674C35.3565 47.5479 36.817 48.4848 38.8011 48.4848C40.2671 48.4848 41.408 47.9172 42.2237 46.7818C43.0394 45.6465 43.4472 43.9379 43.4472 41.6562Z" fill="white"/>
<path d="M57.5509 48.584C58.6421 48.584 59.5956 48.2534 60.4113 47.592C61.2269 46.9306 61.6789 46.1039 61.7671 45.1119H64.6605C64.6054 46.137 64.2527 47.1125 63.6024 48.0384C62.952 48.9643 62.0812 49.7028 60.99 50.254C59.9097 50.8051 58.7634 51.0807 57.5509 51.0807C55.1148 51.0807 53.1748 50.2705 51.7308 48.6502C50.2979 47.0188 49.5814 44.7922 49.5814 41.9704V41.4578C49.5814 39.7162 49.901 38.1675 50.5404 36.8117C51.1797 35.4559 52.0946 34.4032 53.285 33.6537C54.4865 32.9041 55.9029 32.5293 57.5343 32.5293C59.5405 32.5293 61.2049 33.1301 62.5276 34.3316C63.8614 35.5331 64.5724 37.0928 64.6605 39.0107H61.7671C61.6789 37.8534 61.238 36.9054 60.4443 36.1669C59.6617 35.4173 58.6917 35.0425 57.5343 35.0425C55.9801 35.0425 54.7731 35.6047 53.9133 36.729C53.0646 37.8423 52.6402 39.4572 52.6402 41.5735V42.1522C52.6402 44.2135 53.0646 45.8008 53.9133 46.9141C54.7621 48.0274 55.9746 48.584 57.5509 48.584Z" fill="white"/>
<path d="M9.3592 19.7095C9.22693 19.4449 9.11946 18.9737 9.03679 18.2958C7.97033 19.4036 6.6972 19.9575 5.21739 19.9575C3.89466 19.9575 2.80754 19.5855 1.95603 18.8414C1.11278 18.0891 0.691162 17.1384 0.691162 15.9893C0.691162 14.5922 1.22026 13.5092 2.27844 12.7403C3.3449 11.9632 4.84124 11.5747 6.76747 11.5747H8.99959V10.5206C8.99959 9.7187 8.75984 9.08214 8.28035 8.61091C7.80086 8.13142 7.09402 7.89168 6.15984 7.89168C5.3414 7.89168 4.65523 8.09835 4.10134 8.51171C3.54744 8.92506 3.27049 9.42522 3.27049 10.0122H0.963976C0.963976 9.34255 1.19959 8.69772 1.67081 8.07769C2.1503 7.44939 2.79514 6.95336 3.60531 6.58961C4.42375 6.22586 5.32073 6.04398 6.29625 6.04398C7.84219 6.04398 9.05332 6.43254 9.92963 7.20964C10.8059 7.97848 11.2606 9.0408 11.2937 10.3966V16.5721C11.2937 17.8039 11.4508 18.7836 11.7649 19.5111V19.7095H9.3592ZM5.55221 17.961C6.27145 17.961 6.95348 17.775 7.59831 17.403C8.24315 17.0309 8.71024 16.5473 8.99959 15.9521V13.1991H7.20149C4.39068 13.1991 2.98528 14.0217 2.98528 15.6669C2.98528 16.3861 3.22502 16.9483 3.70452 17.3534C4.18401 17.7584 4.7999 17.961 5.55221 17.961Z" fill="#9F9F9F"/>
<path d="M26.2489 13.1495C26.2489 15.1998 25.7776 16.8491 24.8352 18.0974C23.8927 19.3375 22.6279 19.9575 21.0406 19.9575C19.3458 19.9575 18.0355 19.3581 17.1096 18.1594L16.998 19.7095H14.8899V0.662109H17.184V7.76767C18.1099 6.61855 19.3872 6.04398 21.0158 6.04398C22.6444 6.04398 23.9217 6.65988 24.8476 7.89168C25.7818 9.12347 26.2489 10.81 26.2489 12.9511V13.1495ZM23.9547 12.8891C23.9547 11.3267 23.653 10.1197 23.0495 9.26815C22.446 8.41664 21.578 7.99088 20.4454 7.99088C18.9325 7.99088 17.8454 8.69359 17.184 10.099V15.9025C17.8867 17.3079 18.9821 18.0106 20.4702 18.0106C21.5697 18.0106 22.4253 17.5848 23.0371 16.7333C23.6489 15.8818 23.9547 14.6004 23.9547 12.8891Z" fill="#9F9F9F"/>
<path d="M34.5325 18.085C35.3509 18.085 36.066 17.837 36.6778 17.341C37.2896 16.8449 37.6285 16.2249 37.6946 15.4809H39.8648C39.8234 16.2497 39.5589 16.9813 39.0711 17.6758C38.5834 18.3702 37.9303 18.9241 37.1118 19.3375C36.3016 19.7508 35.4419 19.9575 34.5325 19.9575C32.7055 19.9575 31.2505 19.3499 30.1675 18.1346C29.0927 16.9111 28.5554 15.2411 28.5554 13.1247V12.7403C28.5554 11.4341 28.7951 10.2726 29.2746 9.25575C29.7541 8.2389 30.4403 7.44939 31.3331 6.88723C32.2342 6.32506 33.2966 6.04398 34.5201 6.04398C36.0247 6.04398 37.273 6.49454 38.2651 7.39565C39.2654 8.29677 39.7986 9.46656 39.8648 10.905H37.6946C37.6285 10.037 37.2978 9.32602 36.7026 8.77212C36.1156 8.20996 35.3881 7.92888 34.5201 7.92888C33.3544 7.92888 32.4492 8.3505 31.8043 9.19374C31.1678 10.0287 30.8495 11.2398 30.8495 12.8271V13.2612C30.8495 14.8071 31.1678 15.9976 31.8043 16.8325C32.4409 17.6675 33.3503 18.085 34.5325 18.085Z" fill="#9F9F9F"/>
<path d="M53.9902 25.3545C53.902 25.1781 53.8304 24.864 53.7752 24.412C53.0643 25.1506 52.2155 25.5198 51.229 25.5198C50.3472 25.5198 49.6224 25.2718 49.0547 24.7758C48.4926 24.2743 48.2115 23.6405 48.2115 22.8744C48.2115 21.9429 48.5642 21.221 49.2697 20.7084C49.9806 20.1903 50.9782 19.9313 52.2624 19.9313H53.7504V19.2286C53.7504 18.694 53.5906 18.2696 53.2709 17.9555C52.9513 17.6358 52.4801 17.476 51.8573 17.476C51.3116 17.476 50.8542 17.6137 50.4849 17.8893C50.1157 18.1649 49.931 18.4983 49.931 18.8896H48.3934C48.3934 18.4432 48.5504 18.0133 48.8646 17.6C49.1842 17.1811 49.6141 16.8504 50.1543 16.6079C50.6999 16.3654 51.2979 16.2442 51.9482 16.2442C52.9788 16.2442 53.7863 16.5032 54.3705 17.0213C54.9547 17.5338 55.2578 18.242 55.2798 19.1459V23.2629C55.2798 24.0841 55.3846 24.7372 55.594 25.2222V25.3545H53.9902ZM51.4522 24.1888C51.9317 24.1888 52.3864 24.0648 52.8163 23.8168C53.2461 23.5688 53.5575 23.2464 53.7504 22.8496V21.0143H52.5517C50.6778 21.0143 49.7409 21.5627 49.7409 22.6594C49.7409 23.1389 49.9007 23.5137 50.2204 23.7838C50.5401 24.0538 50.9506 24.1888 51.4522 24.1888Z" fill="#C4C4C4"/>
<path d="M65.25 20.9812C65.25 22.348 64.9358 23.4476 64.3075 24.2798C63.6792 25.1065 62.836 25.5198 61.7778 25.5198C60.6479 25.5198 59.7744 25.1203 59.1571 24.3211L59.0827 25.3545H57.6773V12.6562H59.2067V17.3933C59.824 16.6272 60.6755 16.2442 61.7612 16.2442C62.847 16.2442 63.6985 16.6548 64.3158 17.476C64.9386 18.2972 65.25 19.4215 65.25 20.8489V20.9812ZM63.7205 20.8076C63.7205 19.7659 63.5194 18.9613 63.117 18.3936C62.7147 17.8259 62.136 17.5421 61.381 17.5421C60.3724 17.5421 59.6476 18.0106 59.2067 18.9475V22.8165C59.6752 23.7534 60.4054 24.2219 61.3975 24.2219C62.1305 24.2219 62.7009 23.9381 63.1088 23.3704C63.5166 22.8027 63.7205 21.9485 63.7205 20.8076Z" fill="#C4C4C4"/>
<path d="M70.7724 24.2715C71.318 24.2715 71.7947 24.1062 72.2026 23.7755C72.6104 23.4448 72.8364 23.0314 72.8805 22.5354H74.3272C74.2997 23.048 74.1233 23.5357 73.7981 23.9987C73.473 24.4617 73.0376 24.8309 72.4919 25.1065C71.9518 25.3821 71.3786 25.5198 70.7724 25.5198C69.5544 25.5198 68.5844 25.1148 67.8624 24.3046C67.1459 23.4889 66.7876 22.3756 66.7876 20.9647V20.7084C66.7876 19.8376 66.9475 19.0632 67.2671 18.3853C67.5868 17.7074 68.0442 17.1811 68.6395 16.8063C69.2402 16.4316 69.9484 16.2442 70.7641 16.2442C71.7672 16.2442 72.5994 16.5445 73.2608 17.1453C73.9276 17.746 74.2831 18.5259 74.3272 19.4849H72.8805C72.8364 18.9062 72.6159 18.4322 72.2191 18.0629C71.8278 17.6882 71.3428 17.5008 70.7641 17.5008C69.987 17.5008 69.3835 17.7818 68.9536 18.344C68.5292 18.9007 68.317 19.7081 68.317 20.7663V21.0556C68.317 22.0862 68.5292 22.8799 68.9536 23.4365C69.378 23.9932 69.9842 24.2715 70.7724 24.2715Z" fill="#C4C4C4"/>
<path d="M31.9335 80.1255C31.8013 79.8609 31.6938 79.3897 31.6111 78.7118C30.5447 79.8196 29.2715 80.3735 27.7917 80.3735C26.469 80.3735 25.3819 80.0015 24.5304 79.2575C23.6871 78.5051 23.2655 77.5544 23.2655 76.4053C23.2655 75.0082 23.7946 73.9252 24.8528 73.1563C25.9192 72.3792 27.4156 71.9907 29.3418 71.9907H31.5739V70.9366C31.5739 70.1347 31.3342 69.4982 30.8547 69.0269C30.3752 68.5474 29.6684 68.3077 28.7342 68.3077C27.9157 68.3077 27.2296 68.5144 26.6757 68.9277C26.1218 69.3411 25.8448 69.8412 25.8448 70.4282H23.5383C23.5383 69.7586 23.7739 69.1137 24.2452 68.4937C24.7246 67.8654 25.3695 67.3694 26.1797 67.0056C26.9981 66.6419 27.8951 66.46 28.8706 66.46C30.4165 66.46 31.6277 66.8486 32.504 67.6257C33.3803 68.3945 33.835 69.4568 33.868 70.8126V76.9881C33.868 78.2199 34.0251 79.1996 34.3393 79.9271V80.1255H31.9335ZM28.1266 78.377C28.8458 78.377 29.5278 78.191 30.1727 77.819C30.8175 77.447 31.2846 76.9633 31.5739 76.3681V73.6152H29.7758C26.965 73.6152 25.5596 74.4377 25.5596 76.0829C25.5596 76.8021 25.7994 77.3643 26.2789 77.7694C26.7583 78.1745 27.3742 78.377 28.1266 78.377Z" fill="#C4C4C4"/>
<path d="M48.8232 73.5656C48.8232 75.6158 48.352 77.2651 47.4095 78.5134C46.4671 79.7535 45.2022 80.3735 43.6149 80.3735C41.9202 80.3735 40.6099 79.7741 39.6839 78.5754L39.5723 80.1255H37.4642V61.0781H39.7583V68.1837C40.6843 67.0346 41.9615 66.46 43.5901 66.46C45.2188 66.46 46.496 67.0759 47.4219 68.3077C48.3561 69.5395 48.8232 71.226 48.8232 73.3672V73.5656ZM46.5291 73.3051C46.5291 71.7427 46.2273 70.5357 45.6238 69.6842C45.0203 68.8327 44.1523 68.4069 43.0197 68.4069C41.5068 68.4069 40.4197 69.1096 39.7583 70.515V76.3185C40.461 77.7239 41.5564 78.4266 43.0445 78.4266C44.144 78.4266 44.9997 78.0009 45.6114 77.1493C46.2232 76.2978 46.5291 75.0164 46.5291 73.3051Z" fill="#C4C4C4"/>
<path d="M57.1068 78.501C57.9253 78.501 58.6404 78.253 59.2521 77.757C59.8639 77.2609 60.2029 76.6409 60.269 75.8969H62.4391C62.3978 76.6657 62.1332 77.3974 61.6455 78.0918C61.1577 78.7862 60.5046 79.3401 59.6862 79.7535C58.876 80.1668 58.0162 80.3735 57.1068 80.3735C55.2798 80.3735 53.8248 79.7659 52.7418 78.5506C51.6671 77.3271 51.1297 75.6571 51.1297 73.5408V73.1563C51.1297 71.8501 51.3695 70.6886 51.849 69.6718C52.3285 68.6549 53.0146 67.8654 53.9075 67.3032C54.8086 66.7411 55.8709 66.46 57.0944 66.46C58.599 66.46 59.8474 66.9106 60.8394 67.8117C61.8397 68.7128 62.373 69.8826 62.4391 71.321H60.269C60.2029 70.453 59.8722 69.742 59.2769 69.1881C58.69 68.626 57.9625 68.3449 57.0944 68.3449C55.9288 68.3449 55.0235 68.7665 54.3787 69.6098C53.7421 70.4447 53.4238 71.6559 53.4238 73.2431V73.6772C53.4238 75.2231 53.7421 76.4136 54.3787 77.2485C55.0153 78.0835 55.9246 78.501 57.1068 78.501Z" fill="#C4C4C4"/>
<path d="M7.12679 64.6129C7.06498 64.4875 7.01476 64.2639 6.97613 63.9424C6.47781 64.4679 5.8829 64.7306 5.19142 64.7306C4.57334 64.7306 4.06535 64.5541 3.66746 64.2012C3.27343 63.8444 3.07642 63.3934 3.07642 62.8483C3.07642 62.1856 3.32365 61.6719 3.81812 61.3072C4.31645 60.9386 5.01565 60.7543 5.91574 60.7543H6.95875V60.2543C6.95875 59.874 6.84672 59.572 6.62267 59.3485C6.39861 59.1211 6.06832 59.0074 5.6318 59.0074C5.24936 59.0074 4.92873 59.1054 4.66991 59.3015C4.41109 59.4975 4.28168 59.7348 4.28168 60.0132H3.2039C3.2039 59.6956 3.31399 59.3897 3.53418 59.0956C3.75824 58.7976 4.05955 58.5623 4.43813 58.3897C4.82057 58.2172 5.23971 58.1309 5.69554 58.1309C6.41793 58.1309 6.98386 58.3152 7.39334 58.6838C7.80282 59.0485 8.01529 59.5524 8.03074 60.1955V63.1248C8.03074 63.7091 8.10414 64.1738 8.25093 64.5188V64.6129H7.12679ZM5.34787 63.7836C5.68395 63.7836 6.00265 63.6953 6.30397 63.5189C6.60528 63.3424 6.82355 63.113 6.95875 62.8307V61.5249H6.11854C4.80512 61.5249 4.1484 61.915 4.1484 62.6954C4.1484 63.0366 4.26043 63.3032 4.48449 63.4954C4.70854 63.6875 4.99634 63.7836 5.34787 63.7836Z" fill="#C4C4C4"/>
<path d="M15.0189 61.5013C15.0189 62.4738 14.7987 63.2562 14.3584 63.8483C13.918 64.4365 13.3269 64.7306 12.5852 64.7306C11.7933 64.7306 11.181 64.4463 10.7484 63.8777L10.6962 64.6129H9.71115V55.5781H10.7831V58.9485C11.2158 58.4035 11.8126 58.1309 12.5737 58.1309C13.3347 58.1309 13.9315 58.4231 14.3642 59.0074C14.8007 59.5916 15.0189 60.3916 15.0189 61.4072V61.5013ZM13.947 61.3778C13.947 60.6367 13.806 60.0642 13.524 59.6603C13.242 59.2564 12.8363 59.0544 12.3071 59.0544C11.6002 59.0544 11.0922 59.3877 10.7831 60.0544V62.8072C11.1115 63.4738 11.6233 63.8071 12.3187 63.8071C12.8325 63.8071 13.2323 63.6052 13.5182 63.2013C13.804 62.7974 13.947 62.1895 13.947 61.3778Z" fill="#C4C4C4"/>
<path d="M18.8897 63.8424C19.2721 63.8424 19.6063 63.7248 19.8921 63.4895C20.178 63.2542 20.3364 62.9601 20.3673 62.6072H21.3813C21.362 62.9719 21.2384 63.3189 21.0105 63.6483C20.7826 63.9777 20.4774 64.2404 20.095 64.4365C19.7164 64.6326 19.3146 64.7306 18.8897 64.7306C18.036 64.7306 17.3561 64.4424 16.85 63.8659C16.3478 63.2856 16.0967 62.4934 16.0967 61.4896V61.3072C16.0967 60.6877 16.2088 60.1367 16.4328 59.6544C16.6569 59.1721 16.9775 58.7976 17.3947 58.5309C17.8158 58.2643 18.3122 58.1309 18.8839 58.1309C19.587 58.1309 20.1703 58.3446 20.6338 58.7721C21.1013 59.1995 21.3504 59.7544 21.3813 60.4367H20.3673C20.3364 60.025 20.1819 59.6877 19.9037 59.425C19.6295 59.1583 19.2895 59.025 18.8839 59.025C18.3392 59.025 17.9162 59.225 17.6149 59.625C17.3174 60.021 17.1687 60.5955 17.1687 61.3484V61.5543C17.1687 62.2876 17.3174 62.8523 17.6149 63.2483C17.9123 63.6444 18.3373 63.8424 18.8897 63.8424Z" fill="#C4C4C4"/>
<path d="M66.9415 62.0361C66.8534 61.8598 66.7817 61.5456 66.7266 61.0937C66.0156 61.8322 65.1669 62.2015 64.1803 62.2015C63.2985 62.2015 62.5738 61.9535 62.0061 61.4574C61.4439 60.9559 61.1628 60.3221 61.1628 59.556C61.1628 58.6246 61.5156 57.9026 62.221 57.39C62.932 56.872 63.9296 56.6129 65.2137 56.6129H66.7018V55.9102C66.7018 55.3756 66.542 54.9512 66.2223 54.6371C65.9026 54.3174 65.4314 54.1576 64.8086 54.1576C64.263 54.1576 63.8056 54.2954 63.4363 54.571C63.067 54.8465 62.8824 55.18 62.8824 55.5713H61.3447C61.3447 55.1249 61.5018 54.695 61.8159 54.2816C62.1356 53.8627 62.5655 53.5321 63.1056 53.2896C63.6512 53.0471 64.2492 52.9258 64.8996 52.9258C65.9302 52.9258 66.7376 53.1848 67.3218 53.7029C67.906 54.2155 68.2092 54.9237 68.2312 55.8276V59.9446C68.2312 60.7658 68.3359 61.4189 68.5454 61.9039V62.0361H66.9415ZM64.4035 60.8705C64.883 60.8705 65.3377 60.7465 65.7676 60.4985C66.1975 60.2504 66.5089 59.928 66.7018 59.5312V57.6959H65.5031C63.6292 57.6959 62.6923 58.2443 62.6923 59.3411C62.6923 59.8206 62.8521 60.1953 63.1717 60.4654C63.4914 60.7355 63.902 60.8705 64.4035 60.8705Z" fill="#9F9F9F"/>
<path d="M78.2013 57.6628C78.2013 59.0297 77.8872 60.1292 77.2589 60.9614C76.6306 61.7881 75.7873 62.2015 74.7291 62.2015C73.5993 62.2015 72.7257 61.8019 72.1085 61.0028L72.0341 62.0361H70.6287V49.3379H72.1581V54.0749C72.7753 53.3088 73.6269 52.9258 74.7126 52.9258C75.7983 52.9258 76.6499 53.3364 77.2671 54.1576C77.8899 54.9788 78.2013 56.1031 78.2013 57.5306V57.6628ZM76.6719 57.4892C76.6719 56.4476 76.4707 55.6429 76.0684 55.0753C75.6661 54.5076 75.0874 54.2237 74.3323 54.2237C73.3237 54.2237 72.599 54.6922 72.1581 55.6291V59.4981C72.6265 60.4351 73.3568 60.9035 74.3488 60.9035C75.0819 60.9035 75.6523 60.6197 76.0601 60.052C76.468 59.4844 76.6719 58.6301 76.6719 57.4892Z" fill="#9F9F9F"/>
<path d="M83.7237 60.9532C84.2694 60.9532 84.7461 60.7878 85.1539 60.4571C85.5618 60.1264 85.7877 59.7131 85.8318 59.2171H87.2786C87.251 59.7296 87.0747 60.2174 86.7495 60.6803C86.4243 61.1433 85.9889 61.5126 85.4433 61.7881C84.9032 62.0637 84.33 62.2015 83.7237 62.2015C82.5057 62.2015 81.5357 61.7964 80.8137 60.9862C80.0972 60.1705 79.739 59.0572 79.739 57.6463V57.39C79.739 56.5192 79.8988 55.7449 80.2185 55.067C80.5381 54.3891 80.9956 53.8627 81.5908 53.488C82.1916 53.1132 82.8998 52.9258 83.7155 52.9258C84.7185 52.9258 85.5508 53.2262 86.2121 53.8269C86.879 54.4277 87.2345 55.2075 87.2786 56.1665H85.8318C85.7877 55.5878 85.5673 55.1138 85.1705 54.7446C84.7792 54.3698 84.2942 54.1824 83.7155 54.1824C82.9384 54.1824 82.3349 54.4635 81.905 55.0256C81.4806 55.5823 81.2684 56.3897 81.2684 57.4479V57.7373C81.2684 58.7679 81.4806 59.5615 81.905 60.1182C82.3293 60.6748 82.9356 60.9532 83.7237 60.9532Z" fill="#9F9F9F"/>
</svg>
