<svg width="20" height="20" viewBox="0 0 20 20" fill="none" xmlns="http://www.w3.org/2000/svg">
<path d="M17.9996 16.6667H6.81761L13.4188 11.1833C13.6063 11.0284 13.7551 10.8441 13.8567 10.641C13.9582 10.4379 14.0105 10.22 14.0105 10C14.0105 9.77998 13.9582 9.56214 13.8567 9.35904C13.7551 9.15594 13.6063 8.9716 13.4188 8.81667L6.81761 3.33333H17.9996C18.5302 3.33333 19.039 3.15774 19.4141 2.84518C19.7892 2.53262 20 2.10869 20 1.66667C20 1.22464 19.7892 0.800716 19.4141 0.488156C19.039 0.175595 18.5302 0 17.9996 0H1.99673C1.60181 0.00164247 1.21631 0.100646 0.88881 0.284535C0.56131 0.468424 0.306468 0.728968 0.156401 1.03333C0.00321402 1.33685 -0.0386384 1.67137 0.0361234 1.99469C0.110885 2.31801 0.298911 2.61563 0.576477 2.85L9.17804 10L0.576477 17.15C0.298911 17.3844 0.110885 17.682 0.0361234 18.0053C-0.0386384 18.3286 0.00321402 18.6631 0.156401 18.9667C0.306468 19.271 0.56131 19.5316 0.88881 19.7155C1.21631 19.8994 1.60181 19.9984 1.99673 20H17.9996C18.5302 20 19.039 19.8244 19.4141 19.5118C19.7892 19.1993 20 18.7754 20 18.3333C20 17.8913 19.7892 17.4674 19.4141 17.1548C19.039 16.8423 18.5302 16.6667 17.9996 16.6667Z" fill="#08AAEF"/>
</svg>
