<svg width="17" height="20" viewBox="0 0 17 20" fill="none" xmlns="http://www.w3.org/2000/svg">
<path d="M14.5395 18.1818H5.13158V5.45455H14.5395V18.1818ZM14.5395 3.63636H5.13158C4.67792 3.63636 4.24284 3.82792 3.92205 4.1689C3.60127 4.50987 3.42105 4.97233 3.42105 5.45455V18.1818C3.42105 18.664 3.60127 19.1265 3.92205 19.4675C4.24284 19.8084 4.67792 20 5.13158 20H14.5395C14.9931 20 15.4282 19.8084 15.749 19.4675C16.0698 19.1265 16.25 18.664 16.25 18.1818V5.45455C16.25 4.97233 16.0698 4.50987 15.749 4.1689C15.4282 3.82792 14.9931 3.63636 14.5395 3.63636V3.63636ZM11.9737 0H1.71053C1.25687 0 0.821787 0.191558 0.501002 0.532533C0.180216 0.873508 0 1.33597 0 1.81818V14.5455H1.71053V1.81818H11.9737V0Z" fill="#A4BE00"/>
</svg>
