<svg width="24" height="20" viewBox="0 0 24 20" fill="none" xmlns="http://www.w3.org/2000/svg">
<path d="M13.6818 1.78629C12.5489 2.91919 11.7646 4.57496 11.7646 6.40503C11.7646 8.23509 12.4618 9.89087 13.6818 11.0238C12.9846 11.4595 12.2003 11.6338 11.3289 11.6338C8.45304 11.6338 6.1001 9.28084 6.1001 6.40503C6.1001 3.52921 8.45304 1.17627 11.3289 1.17627C12.2003 1.17627 12.9846 1.35056 13.6818 1.78629ZM10.7711 9.84729C10.2918 8.80154 10.0217 7.63379 10.0217 6.40503C10.0217 5.17627 10.2918 4.00851 10.7711 2.96276C9.10663 3.23291 7.84302 4.67082 7.84302 6.40503C7.84302 8.13923 9.10663 9.57714 10.7711 9.84729ZM18.3005 1.17627C21.1763 1.17627 23.5293 3.52921 23.5293 6.40503C23.5293 9.28084 21.1763 11.6338 18.3005 11.6338C17.4291 11.6338 16.6448 11.4595 15.9476 11.0238C17.0805 9.89087 17.8648 8.23509 17.8648 6.40503C17.8648 4.57496 17.1676 3.00633 15.9476 1.78629C16.6448 1.35056 17.4291 1.17627 18.3005 1.17627ZM18.8234 2.96276C19.3027 4.00851 19.5729 5.17627 19.5729 6.40503C19.5729 7.63379 19.3027 8.80154 18.8234 9.84729C20.4792 9.57714 21.7515 8.13923 21.7515 6.40503C21.7515 4.67082 20.4792 3.23291 18.8234 2.96276ZM14.8147 2.48346C13.7689 3.52921 13.0718 4.8364 13.0718 6.40503C13.0718 7.97365 13.7689 9.28084 14.8147 10.2394C15.8604 9.28084 16.5576 7.88651 16.5576 6.31788C16.5576 4.74925 15.8604 3.44206 14.8147 2.48346Z" fill="#D8D8D8"/>
<path d="M2.61439 4.66211C3.30776 4.66211 3.97274 4.92225 4.46303 5.3853C4.95332 5.84836 5.22876 6.47639 5.22876 7.13124C5.22876 8.19297 4.52288 9.09832 3.5207 9.444C3.99129 13.5592 7.91286 14.3494 9.75164 14.5057C9.93506 14.0319 10.2685 13.6229 10.7066 13.3343C11.1447 13.0457 11.6663 12.8915 12.2004 12.8926C12.8938 12.8926 13.5588 13.1527 14.0491 13.6158C14.5394 14.0788 14.8148 14.7068 14.8148 15.3617C14.8148 16.0166 14.5394 16.6446 14.0491 17.1076C13.5588 17.5707 12.8938 17.8308 12.2004 17.8308C11.0588 17.8308 10.0828 17.1395 9.72549 16.1847C6.02179 16.0201 4.74075 14.695 3.48585 13.2135V14.6786C4.50545 15.016 5.22876 15.9296 5.22876 17.0078C5.22876 17.6626 4.95332 18.2907 4.46303 18.7537C3.97274 19.2168 3.30776 19.4769 2.61439 19.4769C1.92101 19.4769 1.25604 19.2168 0.765744 18.7537C0.275453 18.2907 1.09058e-05 17.6626 1.09058e-05 17.0078C1.09058e-05 15.9296 0.723322 15.016 1.74293 14.6786V9.46046C1.23228 9.29123 0.790087 8.97604 0.477754 8.55864C0.165421 8.14124 -0.00155442 7.64235 1.09058e-05 7.13124C1.09058e-05 6.47639 0.275453 5.84836 0.765744 5.3853C1.25604 4.92225 1.92101 4.66211 2.61439 4.66211V4.66211ZM2.61439 6.3082C2.38326 6.3082 2.1616 6.39491 1.99817 6.54926C1.83474 6.70362 1.74293 6.91296 1.74293 7.13124C1.74293 7.34953 1.83474 7.55887 1.99817 7.71323C2.1616 7.86758 2.38326 7.95429 2.61439 7.95429C2.84551 7.95429 3.06717 7.86758 3.2306 7.71323C3.39403 7.55887 3.48585 7.34953 3.48585 7.13124C3.48585 6.91296 3.39403 6.70362 3.2306 6.54926C3.06717 6.39491 2.84551 6.3082 2.61439 6.3082ZM2.61439 16.1847C2.38326 16.1847 2.1616 16.2715 1.99817 16.4258C1.83474 16.5802 1.74293 16.7895 1.74293 17.0078C1.74293 17.2261 1.83474 17.4354 1.99817 17.5898C2.1616 17.7441 2.38326 17.8308 2.61439 17.8308C2.84551 17.8308 3.06717 17.7441 3.2306 17.5898C3.39403 17.4354 3.48585 17.2261 3.48585 17.0078C3.48585 16.7895 3.39403 16.5802 3.2306 16.4258C3.06717 16.2715 2.84551 16.1847 2.61439 16.1847ZM12.2004 14.5387C11.9693 14.5387 11.7477 14.6254 11.5842 14.7797C11.4208 14.9341 11.329 15.1434 11.329 15.3617C11.329 15.58 11.4208 15.7893 11.5842 15.9437C11.7477 16.098 11.9693 16.1847 12.2004 16.1847C12.4316 16.1847 12.6532 16.098 12.8167 15.9437C12.9801 15.7893 13.0719 15.58 13.0719 15.3617C13.0719 15.1434 12.9801 14.9341 12.8167 14.7797C12.6532 14.6254 12.4316 14.5387 12.2004 14.5387Z" fill="#D8D8D8"/>
</svg>
