<svg width="21" height="20" viewBox="0 0 21 20" fill="none" xmlns="http://www.w3.org/2000/svg">
<path d="M0.0454545 9.90909L3.85606 6.89394C3.93182 6.83333 4.0404 6.88889 4.0404 6.98485V9.14141H7.57576V1.71717H2.42424V4.94949C2.42424 5.00505 2.37879 5.0505 2.32323 5.0505H0.808081C0.752525 5.0505 0.707071 5.00505 0.707071 4.94949V0.707071C0.707071 0.315657 1.02273 0 1.41414 0H8.58586C8.97727 0 9.29293 0.315657 9.29293 0.707071V19.2929C9.29293 19.6843 8.97727 20 8.58586 20H1.41414C1.02273 20 0.707071 19.6843 0.707071 19.2929V15.0505C0.707071 14.9949 0.752525 14.9495 0.808081 14.9495H2.32323C2.37879 14.9495 2.42424 14.9949 2.42424 15.0505V18.2828H7.57576V10.8586H4.0404V13.0152C4.0404 13.1111 3.92929 13.1667 3.85606 13.1061L0.0454545 10.0909C-0.0151515 10.0455 -0.0151515 9.95455 0.0454545 9.90909ZM11.459 0H18.6307C19.0221 0 19.3377 0.315657 19.3377 0.707071V4.94949C19.3377 5.00505 19.2923 5.0505 19.2367 5.0505H17.7216C17.666 5.0505 17.6206 5.00505 17.6206 4.94949V1.71717H12.4691V9.14141H16.0044V6.98485C16.0044 6.88889 16.113 6.83333 16.1888 6.89394L20.0019 9.90909C20.06 9.95455 20.06 10.0429 20.0019 10.0884L16.1888 13.1061C16.1155 13.1641 16.0044 13.1111 16.0044 13.0152V10.8586H12.4691V18.2828H17.6206V15.0505C17.6206 14.9949 17.666 14.9495 17.7216 14.9495H19.2367C19.2923 14.9495 19.3377 14.9949 19.3377 15.0505V19.2929C19.3377 19.6843 19.0221 20 18.6307 20H11.459C11.0675 20 10.7519 19.6843 10.7519 19.2929V0.707071C10.7519 0.315657 11.0675 0 11.459 0Z" fill="#D8D8D8"/>
</svg>
