<svg width="27" height="20" viewBox="0 0 27 20" fill="none" xmlns="http://www.w3.org/2000/svg">
<path d="M2.27393 1.70557H14.2122V3.41104L9.09581 7.67472V13.6439L7.39034 11.9384V7.67472L2.27393 3.41104V1.70557Z" fill="#D8D8D8"/>
<path d="M2.27393 0H14.2122V0.852736H2.27393V0Z" fill="#D8D8D8"/>
<path d="M18.7452 15.0919C17.7265 14.9572 17.0898 14.3358 16.2677 13.4513C15.8715 13.0249 15.4559 12.5548 14.9466 12.1324C15.7402 11.4707 16.3166 10.7009 16.9266 10.1415C17.5008 9.61852 18.0068 9.27742 18.7458 9.18192V10.6452L23.0407 8.16489L18.7452 5.68457V7.1922C16.8465 7.34342 15.647 8.54407 14.8033 9.47355C14.3372 9.98292 13.9296 10.4354 13.5458 10.7197C13.1564 11.0039 12.8483 11.1347 12.4015 11.1415H10.2327V13.1312H12.4009C12.8477 13.1369 13.157 13.2677 13.5475 13.553C14.1274 13.9754 14.7385 14.7923 15.5668 15.5814C16.3127 16.2966 17.3644 16.9799 18.7458 17.0879V18.6018L23.0413 16.1232L18.7458 13.6446L18.7452 15.0919Z" fill="#D8D8D8"/>
</svg>
