<svg width="27" height="20" viewBox="0 0 27 20" fill="none" xmlns="http://www.w3.org/2000/svg">
<path d="M0 1.70557H11.9383V3.41104L6.82189 7.67472V13.6439L5.11642 11.9384V7.67472L0 3.41104V1.70557Z" fill="#D8D8D8"/>
<path d="M0 0H11.9383V0.852736H0V0Z" fill="#D8D8D8"/>
<path d="M11.2749 6.82178H12.6014V8.14825H11.2749V11.4644C11.2749 11.8162 11.1352 12.1536 10.8864 12.4024C10.6377 12.6512 10.3003 12.7909 9.94845 12.7909C10.3003 12.7909 10.6377 12.9307 10.8864 13.1794C11.1352 13.4282 11.2749 13.7656 11.2749 14.1174V17.4336H12.6014V18.7601H11.2749C10.5653 18.581 9.94845 18.1631 9.94845 17.4336V14.7806C9.94845 14.4288 9.8087 14.0914 9.55994 13.8427C9.31118 13.5939 8.97378 13.4542 8.62198 13.4542H7.95874V12.1277H8.62198C8.97378 12.1277 9.31118 11.9879 9.55994 11.7392C9.8087 11.4904 9.94845 11.153 9.94845 10.8012V8.14825C9.94845 7.79645 10.0882 7.45906 10.337 7.21029C10.5857 6.96153 10.9231 6.82178 11.2749 6.82178V6.82178ZM20.5603 6.82178C20.9121 6.82178 21.2495 6.96153 21.4982 7.21029C21.747 7.45906 21.8867 7.79645 21.8867 8.14825V10.8012C21.8867 11.153 22.0265 11.4904 22.2752 11.7392C22.524 11.9879 22.8614 12.1277 23.2132 12.1277H23.8764V13.4542H23.2132C22.8614 13.4542 22.524 13.5939 22.2752 13.8427C22.0265 14.0914 21.8867 14.4288 21.8867 14.7806V17.4336C21.8867 17.7854 21.747 18.1228 21.4982 18.3715C21.2495 18.6203 20.9121 18.7601 20.5603 18.7601H19.2338V17.4336H20.5603V14.1174C20.5603 13.7656 20.7 13.4282 20.9488 13.1794C21.1975 12.9307 21.5349 12.7909 21.8867 12.7909C21.5349 12.7909 21.1975 12.6512 20.9488 12.4024C20.7 12.1536 20.5603 11.8162 20.5603 11.4644V8.14825H19.2338V6.82178H20.5603ZM15.9176 14.7806C16.0935 14.7806 16.2622 14.8505 16.3866 14.9749C16.511 15.0993 16.5808 15.268 16.5808 15.4439C16.5808 15.6198 16.511 15.7885 16.3866 15.9128C16.2622 16.0372 16.0935 16.1071 15.9176 16.1071C15.7417 16.1071 15.573 16.0372 15.4486 15.9128C15.3242 15.7885 15.2544 15.6198 15.2544 15.4439C15.2544 15.268 15.3242 15.0993 15.4486 14.9749C15.573 14.8505 15.7417 14.7806 15.9176 14.7806V14.7806ZM13.2646 14.7806C13.4405 14.7806 13.6092 14.8505 13.7336 14.9749C13.858 15.0993 13.9279 15.268 13.9279 15.4439C13.9279 15.6198 13.858 15.7885 13.7336 15.9128C13.6092 16.0372 13.4405 16.1071 13.2646 16.1071C13.0887 16.1071 12.92 16.0372 12.7957 15.9128C12.6713 15.7885 12.6014 15.6198 12.6014 15.4439C12.6014 15.268 12.6713 15.0993 12.7957 14.9749C12.92 14.8505 13.0887 14.7806 13.2646 14.7806ZM18.5705 14.7806C18.7464 14.7806 18.9151 14.8505 19.0395 14.9749C19.1639 15.0993 19.2338 15.268 19.2338 15.4439C19.2338 15.6198 19.1639 15.7885 19.0395 15.9128C18.9151 16.0372 18.7464 16.1071 18.5705 16.1071C18.3946 16.1071 18.2259 16.0372 18.1016 15.9128C17.9772 15.7885 17.9073 15.6198 17.9073 15.4439C17.9073 15.268 17.9772 15.0993 18.1016 14.9749C18.2259 14.8505 18.3946 14.7806 18.5705 14.7806V14.7806Z" fill="#D8D8D8"/>
</svg>
