<svg width="27" height="20" viewBox="0 0 27 20" fill="none" xmlns="http://www.w3.org/2000/svg">
<path d="M2.27393 1.70557H14.2122V3.41104L9.09581 7.67472V13.6439L7.39034 11.9384V7.67472L2.27393 3.41104V1.70557Z" fill="#D8D8D8"/>
<path d="M2.27393 0H14.2122V0.852736H2.27393V0Z" fill="#D8D8D8"/>
<path d="M20.7499 14.7124C20.4685 14.7551 20.1871 14.7807 19.8972 14.7807C19.6073 14.7807 19.3259 14.7551 19.0445 14.7124V11.7193L16.9126 13.8341C16.4863 13.5016 16.0599 13.0752 15.7273 12.6488L17.8421 10.517H14.849C14.8064 10.2356 14.7808 9.95419 14.7808 9.66426C14.7808 9.37433 14.8064 9.09292 14.849 8.81152H17.8421L15.7273 6.67969C15.8894 6.4665 16.0599 6.25332 16.2816 6.04866C16.4863 5.82695 16.6995 5.65641 16.9126 5.49439L19.0445 7.60917V4.61607C19.3259 4.57343 19.6073 4.54785 19.8972 4.54785C20.1871 4.54785 20.4685 4.57343 20.7499 4.61607V7.60917L22.8818 5.49439C23.3082 5.82695 23.7345 6.25332 24.0671 6.67969L21.9523 8.81152H24.9454C24.988 9.09292 25.0136 9.37433 25.0136 9.66426C25.0136 9.95419 24.988 10.2356 24.9454 10.517H21.9523L24.0671 12.6488C23.9051 12.862 23.7345 13.0752 23.5128 13.2798C23.3082 13.5016 23.095 13.6721 22.8818 13.8341L20.7499 11.7193V14.7124ZM11.3699 16.4861C11.3699 16.0338 11.5496 15.6 11.8694 15.2802C12.1892 14.9603 12.623 14.7807 13.0753 14.7807C13.5277 14.7807 13.9615 14.9603 14.2813 15.2802C14.6011 15.6 14.7808 16.0338 14.7808 16.4861C14.7808 16.9384 14.6011 17.3722 14.2813 17.6921C13.9615 18.0119 13.5277 18.1916 13.0753 18.1916C12.623 18.1916 12.1892 18.0119 11.8694 17.6921C11.5496 17.3722 11.3699 16.9384 11.3699 16.4861Z" fill="#D8D8D8"/>
</svg>
