<svg width="27" height="20" viewBox="0 0 27 20" fill="none" xmlns="http://www.w3.org/2000/svg">
<path d="M0 1.70557H11.9383V3.41104L6.82189 7.67472V13.6439L5.11642 11.9384V7.67472L0 3.41104V1.70557Z" fill="#D8D8D8"/>
<path d="M0 0H11.9383V0.852736H0V0Z" fill="#D8D8D8"/>
<path d="M12.8513 13.3407C12.4382 13.2301 12.086 12.9598 11.8722 12.5895C11.6584 12.2191 11.6004 11.779 11.7111 11.3659C11.8218 10.9529 12.092 10.6007 12.4624 10.3869C12.8327 10.1731 13.2728 10.1151 13.6859 10.2258C14.099 10.3365 14.4512 10.6067 14.665 10.9771C14.8788 11.3474 14.9367 11.7875 14.8261 12.2006C14.7154 12.6137 14.4451 12.9658 14.0748 13.1797C13.7044 13.3935 13.2643 13.4514 12.8513 13.3407ZM18.0858 11.4047C18.009 10.408 17.6248 9.45972 16.9863 8.69062C16.3477 7.92152 15.4862 7.36955 14.5206 7.11086C13.2814 6.77881 11.961 6.95264 10.85 7.5941C9.73893 8.23556 8.92822 9.2921 8.59618 10.5313C8.26413 11.7705 8.43796 13.0908 9.07942 14.2019C9.72087 15.3129 10.7774 16.1236 12.0166 16.4557C12.9822 16.7144 14.0043 16.6672 14.9419 16.3204C15.8794 15.9736 16.6863 15.3445 17.2511 14.5197L20.6386 15.4274L19.804 18.5423L22.9189 19.3769L23.7536 16.262L25.311 16.6793L26.1457 13.5644L18.0858 11.4047Z" fill="#D8D8D8"/>
</svg>
