<svg width="20" height="20" viewBox="0 0 20 20" fill="none" xmlns="http://www.w3.org/2000/svg">
<path d="M15.8885 15.8018C16.3171 15.1566 16.5607 14.3806 16.5607 13.5577C16.5607 11.2202 14.6123 9.35016 12.177 9.35016C9.74156 9.35016 7.79325 11.2202 7.79325 13.5577C7.79325 15.8953 9.74156 17.7653 12.177 17.7653C13.0245 17.7653 13.8233 17.5316 14.4954 17.1295L17.5348 20L18.8889 18.7003L15.8885 15.8018ZM12.177 15.8953C11.531 15.8953 10.9116 15.649 10.4549 15.2106C9.99815 14.7723 9.74156 14.1777 9.74156 13.5577C9.74156 12.9378 9.99815 12.3432 10.4549 11.9048C10.9116 11.4665 11.531 11.2202 12.177 11.2202C12.8229 11.2202 13.4423 11.4665 13.899 11.9048C14.3558 12.3432 14.6123 12.9378 14.6123 13.5577C14.6123 14.1777 14.3558 14.7723 13.899 15.2106C13.4423 15.649 12.8229 15.8953 12.177 15.8953ZM6.41969 16.0823L0 11.2856L1.57813 10.1075L5.84494 13.2959V13.5577C5.84494 14.4554 6.05925 15.3156 6.41969 16.0823ZM6.33202 11.2576L0 6.54512L8.76741 0L17.5348 6.54512L15.2553 8.24685C14.5625 7.88446 13.8064 7.64679 13.0245 7.54558L14.3591 6.54512L8.76741 2.36559L3.17575 6.54512L7.3354 9.64937C6.91651 10.1356 6.56581 10.6779 6.33202 11.2576Z" fill="#D8D8D8"/>
</svg>
