<svg width="20" height="20" viewBox="0 0 20 20" fill="none" xmlns="http://www.w3.org/2000/svg">
<path d="M10.212 14.4765H2.04239C1.66796 14.4765 1.3616 14.1702 1.3616 13.7957V5.62616C1.3616 5.25172 1.05524 4.94536 0.680798 4.94536C0.306359 4.94536 0 5.25172 0 5.62616V14.4765C0 15.2254 0.612718 15.8381 1.3616 15.8381H10.212C10.5864 15.8381 10.6375 15.3616 10.6375 14.9871C10.6375 14.9871 10.5864 14.4765 10.212 14.4765ZM12.2544 2.22217H4.08479C3.33591 2.22217 2.72319 2.83489 2.72319 3.58376V11.7533C2.72319 12.5022 3.33591 13.1149 4.08479 13.1149H10.2986C10.6375 11.1576 11.914 10.0513 13.616 10.0513V3.58376C13.616 2.83489 13.0032 2.22217 12.2544 2.22217ZM12.2544 9.03015L10.5524 8.00895L8.85038 9.03015V3.58376H12.2544V9.03015Z" fill="#18D77B"/>
<path d="M17.2631 15.6737C17.5914 15.1796 17.7779 14.5852 17.7779 13.955C17.7779 12.1647 16.2857 10.7324 14.4205 10.7324C12.5552 10.7324 11.063 12.1647 11.063 13.955C11.063 15.7453 12.5552 17.1776 14.4205 17.1776C15.0696 17.1776 15.6814 16.9985 16.1962 16.6906L18.524 18.8891L19.5611 17.8937L17.2631 15.6737ZM14.4205 15.7453C13.9258 15.7453 13.4513 15.5567 13.1015 15.2209C12.7517 14.8852 12.5552 14.4298 12.5552 13.955C12.5552 13.4802 12.7517 13.0248 13.1015 12.689C13.4513 12.3533 13.9258 12.1647 14.4205 12.1647C14.9152 12.1647 15.3896 12.3533 15.7394 12.689C16.0892 13.0248 16.2857 13.4802 16.2857 13.955C16.2857 14.4298 16.0892 14.8852 15.7394 15.2209C15.3896 15.5567 14.9152 15.7453 14.4205 15.7453Z" fill="#18D77B"/>
</svg>
