<svg width="26" height="13" viewBox="0 0 26 13" fill="none" xmlns="http://www.w3.org/2000/svg">
<path d="M5.88574 8.35449C5.88574 8.00358 5.76042 7.73014 5.50977 7.53418C5.26367 7.33822 4.82845 7.13542 4.2041 6.92578C3.57975 6.71615 3.06934 6.51335 2.67285 6.31738C1.38314 5.68392 0.738281 4.81348 0.738281 3.70605C0.738281 3.15462 0.897786 2.66927 1.2168 2.25C1.54036 1.82617 1.99609 1.49805 2.58398 1.26562C3.17188 1.02865 3.83268 0.910156 4.56641 0.910156C5.2819 0.910156 5.9222 1.03776 6.4873 1.29297C7.05697 1.54818 7.49902 1.91276 7.81348 2.38672C8.12793 2.85612 8.28516 3.39388 8.28516 4H5.89258C5.89258 3.5944 5.76725 3.27995 5.5166 3.05664C5.27051 2.83333 4.93555 2.72168 4.51172 2.72168C4.08333 2.72168 3.74382 2.81738 3.49316 3.00879C3.24707 3.19564 3.12402 3.4349 3.12402 3.72656C3.12402 3.98177 3.26074 4.21419 3.53418 4.42383C3.80762 4.62891 4.28841 4.8431 4.97656 5.06641C5.66471 5.28516 6.22982 5.52214 6.67188 5.77734C7.7474 6.39714 8.28516 7.25163 8.28516 8.34082C8.28516 9.21126 7.95703 9.89486 7.30078 10.3916C6.64453 10.8883 5.74447 11.1367 4.60059 11.1367C3.79395 11.1367 3.0625 10.9932 2.40625 10.7061C1.75456 10.4144 1.26237 10.0179 0.929688 9.5166C0.601562 9.01074 0.4375 8.42969 0.4375 7.77344H2.84375C2.84375 8.30664 2.98047 8.70085 3.25391 8.95605C3.5319 9.20671 3.98079 9.33203 4.60059 9.33203C4.99707 9.33203 5.30924 9.24772 5.53711 9.0791C5.76953 8.90592 5.88574 8.66439 5.88574 8.35449ZM17.958 6.22852C17.958 7.14909 17.8053 7.95345 17.5 8.6416C17.1947 9.3252 16.7731 9.87435 16.2354 10.2891L17.8418 11.5605L16.3584 12.8184L14.2188 11.0957C14.0182 11.123 13.8177 11.1367 13.6172 11.1367C12.7695 11.1367 12.0176 10.9408 11.3613 10.5488C10.7051 10.1569 10.1924 9.59635 9.82324 8.86719C9.45866 8.13802 9.26953 7.29948 9.25586 6.35156V5.8252C9.25586 4.84538 9.43359 3.98405 9.78906 3.24121C10.1491 2.49837 10.6595 1.92415 11.3203 1.51855C11.9857 1.11296 12.7467 0.910156 13.6035 0.910156C14.4466 0.910156 15.1986 1.11068 15.8594 1.51172C16.5202 1.91276 17.0329 2.4847 17.3975 3.22754C17.7666 3.96582 17.9535 4.81348 17.958 5.77051V6.22852ZM15.5176 5.81152C15.5176 4.82259 15.3512 4.07292 15.0186 3.5625C14.6904 3.04753 14.2188 2.79004 13.6035 2.79004C12.9701 2.79004 12.4938 3.04297 12.1748 3.54883C11.8558 4.05469 11.694 4.79525 11.6895 5.77051V6.22852C11.6895 7.20833 11.8512 7.96029 12.1748 8.48438C12.4984 9.00391 12.9792 9.26367 13.6172 9.26367C14.2279 9.26367 14.695 9.00618 15.0186 8.49121C15.3467 7.97624 15.513 7.23568 15.5176 6.26953V5.81152ZM21.5811 9.1543H25.7578V11H19.1816V1.04688H21.5811V9.1543Z" fill="#D8D8D8"/>
</svg>
