<svg width="21" height="20" viewBox="0 0 21 20" fill="none" xmlns="http://www.w3.org/2000/svg">
<path d="M4.9038 2.94191C4.9038 2.94191 4.84447 3.03609 4.90083 3.17552C4.93495 3.26155 5.03878 3.36538 5.15299 3.47514C5.15299 3.47514 6.35073 4.64397 6.49758 4.81306C7.16134 5.57917 7.44984 6.33342 7.47654 7.37394C7.49286 8.04141 7.36455 8.62879 7.05158 9.31184C6.4909 10.5348 5.30873 11.8838 3.4843 13.3834L3.75129 13.2944C3.92409 13.1661 4.15771 13.0282 4.70949 12.7263C5.97991 12.0322 7.40608 11.3929 9.15858 10.7343C11.6794 9.78723 15.8259 8.67551 18.1858 8.31433L18.4313 8.27651L18.3942 8.21718C18.1776 7.88196 18.0308 7.67504 17.8528 7.45552C17.3359 6.81548 16.7092 6.29337 15.9416 5.86396C14.887 5.27288 13.5187 4.8138 11.7884 4.46968C11.2483 4.36812 10.7066 4.2754 10.1635 4.19157C9.19195 4.04257 8.22185 3.88434 7.25331 3.71692C6.93811 3.66129 6.46717 3.58268 6.15494 3.51519C5.91416 3.46403 5.67625 3.40016 5.44223 3.32385C5.24347 3.24598 4.96387 3.17033 4.9038 2.94191V2.94191ZM5.59797 3.61605C5.6002 3.61457 5.64469 3.62866 5.69958 3.6472C5.80044 3.68132 5.93393 3.72137 6.08968 3.76512C6.19796 3.79479 6.31736 3.82742 6.44492 3.85931C6.6066 3.90084 6.74084 3.93644 6.74232 3.93867C6.76012 3.95869 7.0323 4.82715 7.125 5.16015C7.1606 5.28771 7.1873 5.39376 7.18508 5.39599C7.15923 5.36383 7.13686 5.32902 7.11833 5.29216C6.80387 4.7389 6.30475 4.17599 5.7285 3.72285C5.6837 3.68886 5.64016 3.65324 5.59797 3.61605V3.61605ZM6.9255 3.98242C6.97429 3.98708 7.02264 3.99551 7.07012 4.00764C7.5292 4.1085 8.34945 4.26721 8.87601 4.35621C8.96427 4.37104 9.0362 4.38588 9.0362 4.39107C9.01472 4.41035 8.99015 4.42589 8.96352 4.43705C8.87527 4.48155 8.51706 4.69588 8.39765 4.77598C8.12491 4.95511 7.8692 5.15892 7.63377 5.38486C7.58628 5.43356 7.53757 5.48104 7.48767 5.52726C7.47493 5.49422 7.46476 5.46025 7.45726 5.42565C7.33132 4.97393 7.17014 4.53279 6.97519 4.10628C6.95562 4.06639 6.93804 4.02555 6.92254 3.98391C6.92254 3.98317 6.92254 3.98242 6.9255 3.98242V3.98242ZM9.25944 4.42592C9.27427 4.43112 9.30394 4.52234 9.35511 4.72555C9.47331 5.20472 9.51165 5.70011 9.46858 6.19176L9.45968 6.21995L9.32099 6.17545C8.93683 6.0551 8.55063 5.94137 8.16256 5.8343C8.02233 5.79841 7.88375 5.75634 7.74724 5.70822C7.74724 5.6919 8.08023 5.3589 8.22337 5.23208C8.49703 4.99031 9.23348 4.41777 9.25944 4.42592V4.42592ZM9.44485 4.45262C9.45301 4.44521 10.5603 4.63655 11.0631 4.73296C11.4384 4.8049 11.9805 4.91837 12.0131 4.93246C12.0295 4.9384 11.9731 4.96954 11.7929 5.05113C11.0809 5.37151 10.5529 5.65927 10.0278 6.01006C9.88983 6.10203 9.77488 6.17767 9.77265 6.17767C9.76969 6.17767 9.7682 6.10054 9.7682 6.0071C9.7682 5.49537 9.66511 4.97844 9.47822 4.54162C9.46435 4.51306 9.45318 4.48326 9.44485 4.45262ZM12.3076 5.01923C12.3157 5.02739 12.2794 5.24618 12.2482 5.37522C12.1503 5.77571 11.8908 6.37198 11.5704 6.93192C11.5367 6.99508 11.4991 7.05602 11.4577 7.11436C11.4013 7.09046 11.3469 7.06193 11.2952 7.02907C10.9823 6.84589 10.6278 6.67309 10.2384 6.51215C10.1687 6.48476 10.1 6.45508 10.0322 6.42316C10.0144 6.40684 10.8799 5.83355 11.339 5.55841C11.7061 5.33814 12.2972 5.00885 12.3076 5.01923V5.01923ZM12.5123 5.05113C12.5367 5.05113 13.0277 5.18462 13.2813 5.26101C13.914 5.45013 14.6437 5.71637 15.1169 5.93145L15.3134 6.02045L15.1747 6.05234C14.017 6.31933 13.024 6.62562 12.0688 7.0135C11.9894 7.04613 11.9204 7.07283 11.9152 7.07283C11.9287 7.0252 11.9474 6.97919 11.9709 6.93563C12.2586 6.32526 12.444 5.68448 12.4922 5.14086C12.4967 5.09117 12.5056 5.05113 12.5123 5.05113V5.05113ZM7.63228 6.17248C7.6397 6.16507 8.01349 6.25258 8.21744 6.30969C8.52373 6.39572 9.17563 6.61376 9.17563 6.63081C9.17563 6.63378 9.10369 6.69682 9.01618 6.77024C8.63748 7.08865 8.27061 7.42088 7.91633 7.76626C7.84303 7.83972 7.76682 7.91023 7.68791 7.97763C7.68272 7.97763 7.68049 7.96057 7.68346 7.94055C7.74501 7.48741 7.73166 6.90596 7.64638 6.31414C7.63796 6.2676 7.633 6.2205 7.63154 6.17322L7.63228 6.17248ZM15.5011 6.1799C15.5063 6.18583 15.3275 6.46543 15.2163 6.62488C15.0531 6.85776 14.818 7.16331 14.2811 7.83894L13.5735 8.73039C13.5089 8.81422 13.4424 8.89656 13.374 8.97736C13.3718 8.97736 13.337 8.92841 13.2977 8.86908C12.9945 8.4167 12.6273 8.01074 12.2075 7.66392C12.1417 7.60882 12.0749 7.55492 12.0072 7.50224C11.9872 7.4888 11.9688 7.47313 11.9523 7.45552C11.9523 7.4481 12.4099 7.25231 12.7592 7.10991C13.436 6.8379 14.1233 6.59297 14.8195 6.37569C15.1473 6.27557 15.4959 6.17545 15.5011 6.1799V6.1799ZM15.7072 6.23404C15.7613 6.25231 15.8129 6.27723 15.8608 6.3082C16.5147 6.68284 17.1195 7.13723 17.6615 7.66095C17.8053 7.80186 18.1561 8.16749 18.1509 8.17046L17.8817 8.19196C16.747 8.27725 15.2964 8.51828 13.8991 8.85425C13.8042 8.87649 13.7226 8.89578 13.7167 8.89578C13.7115 8.89578 13.8153 8.79195 13.9473 8.66439C14.7683 7.87602 15.1421 7.37839 15.5826 6.48842C15.6479 6.35641 15.7035 6.24145 15.7058 6.23478H15.7072V6.23404ZM9.70887 6.8496C9.74669 6.85701 10.0967 7.02017 10.3608 7.15219C10.6018 7.27307 10.9674 7.46812 10.986 7.48518C10.9882 7.48741 10.8599 7.55415 10.6997 7.63425C10.2245 7.87022 9.75976 8.12682 9.3069 8.40333C9.17712 8.48269 9.06958 8.54721 9.06587 8.54721C9.05475 8.54721 9.05845 8.53757 9.13113 8.40555C9.38158 7.93843 9.56579 7.43871 9.67846 6.9208C9.68885 6.87481 9.70071 6.84663 9.70887 6.84886V6.8496ZM9.35659 6.9119C9.36401 6.91931 9.27353 7.25305 9.21568 7.43104C9.05898 7.89933 8.85131 8.34899 8.59641 8.77192L8.52967 8.88094L8.37911 8.73484C8.23262 8.58554 8.06341 8.46039 7.87777 8.36402C7.83182 8.34327 7.78809 8.31792 7.74724 8.28838C7.74724 8.26613 8.20705 7.84858 8.56156 7.54822C8.81594 7.33315 9.35066 6.90522 9.35659 6.9119V6.9119ZM11.4984 7.79296L11.6297 7.87825C11.9316 8.07404 12.2883 8.33732 12.5605 8.56352C12.7132 8.69109 13.0092 8.95659 13.07 9.02037L13.1026 9.05523L12.8846 9.11604C11.7697 9.42012 10.6686 9.77248 9.58428 10.1721C9.506 10.2021 9.42686 10.2298 9.34695 10.2552C9.33138 10.2552 9.3158 10.2693 9.59392 10.0134C10.3059 9.35856 10.9341 8.63695 11.4035 7.93536L11.4984 7.79296ZM10.9355 7.93387C10.9422 7.94055 10.5707 8.46044 10.3504 8.75412C10.0864 9.10492 9.61617 9.6923 9.29281 10.0742C9.21024 10.1749 9.12467 10.2731 9.0362 10.3687C9.02879 10.3709 9.02508 10.3316 9.02434 10.27C9.02434 9.94371 8.94128 9.59514 8.79591 9.29997C8.73436 9.17538 8.72398 9.14571 8.73658 9.13384C8.78701 9.08786 9.57241 8.63991 10.0671 8.37515C10.4075 8.1927 10.9296 7.9272 10.9355 7.93387ZM7.53142 8.76822C7.74694 8.87147 7.94915 9.00047 8.13363 9.15238C8.13956 9.15609 8.06911 9.21394 7.97789 9.27995C7.72202 9.46461 7.33266 9.75756 7.10795 9.93704C6.87062 10.1262 6.86246 10.1321 6.88916 10.0906C7.06716 9.81838 7.15615 9.66486 7.2496 9.46758C7.3334 9.29255 7.41573 9.08489 7.47506 8.90394C7.4873 8.85613 7.50654 8.81039 7.53216 8.76822H7.53142ZM8.43844 9.48019C8.45105 9.47796 8.46811 9.50095 8.54153 9.60998C8.69505 9.83988 8.81297 10.1454 8.84338 10.3946L8.84931 10.4488L8.48072 10.5912C7.91453 10.8088 7.35415 11.0413 6.80017 11.2883C6.68521 11.3417 6.48274 11.4381 6.34999 11.5049C6.21724 11.5716 6.10896 11.6235 6.10896 11.6206C6.10896 11.6176 6.19202 11.5546 6.29437 11.4811C7.10053 10.8952 7.79619 10.2545 8.32052 9.61294C8.37615 9.54471 8.42732 9.48538 8.434 9.48093C8.43536 9.48014 8.43688 9.47964 8.43844 9.47945V9.48019ZM8.02016 9.58402C8.03129 9.5944 7.72276 9.94297 7.51511 10.1551C7.01344 10.6706 6.45171 11.124 5.84197 11.5056C5.76187 11.5568 5.68919 11.602 5.67881 11.6079C5.66175 11.6183 5.68474 11.5916 5.96508 11.2861C6.14159 11.094 6.27657 10.9345 6.43083 10.735C6.50194 10.6321 6.59329 10.5448 6.6993 10.4784C7.09756 10.1907 8.00978 9.57289 8.02016 9.58328V9.58402ZM8.76106 1.0841C8.70173 1.07669 7.74427 1.42155 7.12945 1.67074C6.29659 2.00967 5.64914 2.33376 5.25014 2.6141C5.10181 2.71793 4.91492 2.90557 4.88822 2.9775C4.8777 3.00676 4.87243 3.03764 4.87265 3.06873L5.23457 3.40988L6.09339 3.68429L8.13956 4.05066L10.4779 4.45262L10.5017 4.25238L10.4809 4.24867L10.1731 4.19972L10.1101 4.08996C9.79224 3.5292 9.50095 2.9538 9.23719 2.36565C9.08327 2.01218 8.95198 1.64928 8.84412 1.27915C8.79369 1.09893 8.7885 1.08781 8.76106 1.0841ZM8.71582 1.22205H8.71953C8.72175 1.22427 8.73213 1.29992 8.74326 1.38892C8.78924 1.76567 8.87379 2.13055 9.0058 2.52362C9.10518 2.82028 9.10666 2.80322 8.988 2.76985C8.71359 2.69346 7.48099 2.48209 6.58954 2.35824C6.50103 2.34695 6.41275 2.33384 6.32478 2.31893C6.31365 2.30781 6.96778 1.96517 7.25776 1.82945C7.62932 1.65739 8.6424 1.23614 8.71582 1.22205V1.22205ZM6.1186 2.42943L6.22317 2.46503C6.79572 2.65934 8.23004 2.93375 9.02286 2.99901C9.11185 3.00643 9.1875 3.01459 9.18972 3.01681C9.19195 3.01904 9.11556 3.05983 9.02063 3.10729C8.63869 3.29863 8.21744 3.53225 7.92597 3.71469C7.84068 3.76809 7.76281 3.81111 7.75169 3.81036C7.70955 3.80443 7.66751 3.79776 7.62561 3.79034L7.51881 3.77328L7.24812 3.51C6.77273 3.05018 6.40191 2.6942 6.25803 2.5607L6.1186 2.42943ZM6.01255 2.51398L6.39152 2.98715C6.60067 3.24672 6.80981 3.50555 6.85579 3.56117C6.90251 3.6168 6.93811 3.66352 6.93589 3.665C6.9255 3.67316 6.38707 3.56859 6.10154 3.50258C5.9006 3.45987 5.70185 3.4074 5.50601 3.34536L5.35768 3.29789L5.35842 3.26155C5.36065 3.07985 5.58981 2.81138 5.97843 2.53771L6.01255 2.51398ZM9.24016 3.15846C9.25128 3.15921 9.26389 3.1822 9.29726 3.25562C9.38922 3.45734 9.6755 4.00319 9.74447 4.1085C9.76672 4.14336 9.8038 4.14558 9.42334 4.08403C8.51113 3.93718 8.21521 3.88749 8.21521 3.88156C8.23379 3.86544 8.2545 3.85196 8.27677 3.84151C8.56777 3.67823 8.84266 3.48777 9.09776 3.27268L9.22755 3.16366C9.232 3.15995 9.23645 3.15772 9.24016 3.15846V3.15846ZM12.4359 9.39416L8.87008 10.557L5.77003 11.9261L4.90231 12.156C4.44252 12.5907 3.96552 13.0069 3.47244 13.4035C3.21626 13.6154 2.97971 13.8499 2.76565 14.1043C2.51943 14.4113 2.3266 14.7377 2.24354 14.9891C2.09521 15.4415 2.16715 15.8998 2.45491 16.3225C2.82202 16.8625 3.55253 17.4113 4.40171 17.7851C4.83557 17.9749 5.56608 18.2211 6.11489 18.3591C7.02933 18.5905 8.79517 18.8411 9.7682 18.8782C9.96548 18.8856 10.228 18.8856 10.2406 18.8767C10.2614 18.8627 10.4134 18.5764 10.5892 18.2167C11.187 16.996 11.6193 15.8509 11.8522 14.8734C11.9931 14.2808 12.1029 13.4917 12.1741 12.5558C12.196 12.078 12.1999 11.5995 12.1859 11.1214C12.1674 10.6972 12.1221 10.2747 12.0502 9.8562C12.0408 9.81992 12.0378 9.78227 12.0413 9.74495C12.0517 9.73754 12.0851 9.72641 12.5234 9.59885L12.4359 9.39416ZM11.6201 9.87252C11.6534 9.87252 11.7387 10.6987 11.7617 11.2223C11.7662 11.3343 11.7654 11.4055 11.7588 11.4055C11.738 11.4055 11.3027 11.1496 10.9934 10.956C10.7015 10.7722 10.4142 10.5813 10.1316 10.3835C10.1056 10.3627 10.1086 10.362 10.3289 10.2863C10.7034 10.1573 11.5926 9.87252 11.6208 9.87252H11.6201ZM9.80454 10.4681C9.82679 10.4681 9.88983 10.5029 10.0382 10.5956C10.5944 10.9442 11.3479 11.3632 11.6698 11.5041C11.7706 11.5486 11.7818 11.5308 11.5511 11.6873C11.0601 12.021 10.449 12.3488 9.69923 12.6826C9.61825 12.7196 9.5364 12.7547 9.45375 12.7879C9.45922 12.7375 9.46991 12.6878 9.48564 12.6396C9.66734 11.9684 9.76969 11.2898 9.77265 10.7454C9.77413 10.477 9.77414 10.4755 9.80009 10.4688H9.80454V10.4681ZM9.43076 10.6112C9.44633 10.6275 9.43521 11.2297 9.41592 11.3944C9.35945 11.8579 9.25557 12.3144 9.10592 12.7567C9.09554 12.7694 8.72694 12.4097 8.60457 12.2673C8.41081 12.0475 8.24422 11.8052 8.10842 11.5457C8.0476 11.4255 7.94971 11.1867 7.95861 11.18C8.00014 11.1504 9.42037 10.6015 9.43076 10.6112ZM7.66937 11.3054C7.67233 11.3054 7.6753 11.3061 7.67678 11.3083C7.69323 11.3395 7.70712 11.372 7.71831 11.4055C7.83272 11.6903 7.98273 11.9594 8.16478 12.2065C8.3844 12.4972 8.63757 12.7611 8.91903 12.9926C8.93608 13.0074 8.94128 13.0045 8.50223 13.1706C7.94016 13.3825 7.37288 13.5803 6.80091 13.7639C6.55839 13.8425 6.35296 13.9085 6.3448 13.9122C6.32033 13.9204 6.32774 13.9055 6.39894 13.795C6.71562 13.3011 7.19472 12.334 7.46319 11.6502C7.50917 11.5316 7.55367 11.4129 7.56183 11.3862C7.57295 11.3476 7.58482 11.3343 7.62116 11.318C7.63606 11.3101 7.65255 11.3058 7.66937 11.3054V11.3054ZM7.12945 11.5279C7.13687 11.5345 7.00041 11.823 6.86543 12.0848C6.57931 12.6382 6.26926 13.1789 5.93616 13.7053L5.80118 13.9189C5.78783 13.9389 5.7819 13.9322 5.74037 13.8492C5.64341 13.6513 5.57356 13.4413 5.53271 13.2247C5.49457 12.9579 5.49958 12.6867 5.54754 12.4215C5.5824 12.2532 5.58091 12.2569 5.66027 12.2168C6.00291 12.0411 7.11833 11.5182 7.12945 11.5279V11.5279ZM11.778 11.717V11.8312C11.7704 12.5745 11.7072 13.3163 11.5889 14.0502C11.0999 13.909 10.6278 13.7145 10.1813 13.4702C9.91875 13.3263 9.53978 13.0942 9.5509 13.0831C9.55313 13.0801 9.66511 13.0215 9.79861 12.9518C10.3281 12.6774 10.8332 12.3807 11.273 12.087C11.4376 11.9773 11.6846 11.7985 11.7395 11.7503L11.778 11.717ZM5.0944 12.5127C5.10552 12.5127 5.10256 12.5335 5.0855 12.6322C5.0708 12.728 5.06065 12.8246 5.05509 12.9214C5.03284 13.3159 5.09736 13.6067 5.29242 14.0042C5.3473 14.1154 5.39031 14.2074 5.38809 14.2089C5.36806 14.2259 3.58591 14.7473 3.02523 14.9008L2.70261 14.9898C2.68259 14.9958 2.68111 14.9913 2.68778 14.9453C2.74934 14.55 3.05118 14.0316 3.47244 13.5955C3.75277 13.3063 3.97675 13.1342 4.35869 12.9169C4.60143 12.7777 4.84671 12.643 5.0944 12.5127V12.5127ZM9.29874 13.2655C9.30023 13.264 9.36623 13.2989 9.44485 13.3449C10.0211 13.6779 10.8243 13.9901 11.5088 14.1466L11.5711 14.1614L11.4858 14.2081C11.1284 14.4069 9.9499 14.8971 8.74622 15.348C8.61921 15.3955 8.49239 15.4434 8.36576 15.4919C8.34651 15.5014 8.32605 15.5081 8.30495 15.5119C8.30495 15.509 8.35464 15.414 8.41545 15.2998C8.75364 14.6679 9.09034 13.9004 9.26389 13.3679C9.28095 13.3137 9.29652 13.2677 9.29874 13.2655V13.2655ZM8.87008 13.4064C8.85723 13.4492 8.84163 13.491 8.82335 13.5318C8.54977 14.1779 8.23747 14.807 7.88815 15.4155C7.82884 15.5243 7.76652 15.6314 7.70126 15.7366C7.69755 15.7366 7.61671 15.6877 7.5203 15.6291C6.94924 15.2791 6.44344 14.8489 6.11118 14.4299L6.06372 14.3706L6.30994 14.3031C7.11705 14.0872 7.90768 13.8138 8.67577 13.485C8.78108 13.4405 8.86859 13.4042 8.87008 13.4064V13.4064ZM11.5326 14.3357C11.5333 14.3357 11.534 14.3364 11.534 14.3379C11.534 14.3973 11.3983 14.952 11.2849 15.354C11.1899 15.6899 11.1098 15.9532 10.9622 16.4197C10.9246 16.5456 10.883 16.6702 10.8376 16.7935C10.0764 16.6634 9.33071 16.4543 8.61273 16.1698C8.45177 16.1068 8.29364 16.0367 8.13882 15.9599C8.13437 15.9547 8.29679 15.8783 8.49926 15.7893C9.72667 15.2546 10.9978 14.645 11.4324 14.3832C11.4628 14.3616 11.4967 14.3456 11.5326 14.3357V14.3357ZM5.3866 14.5456C5.39328 14.5523 5.0499 15.0432 4.5708 15.7144L4.13546 16.3248C4.06352 16.4279 3.95376 16.5903 3.89146 16.6867L3.77799 16.8617L3.65784 16.7601C3.47797 16.6023 3.31014 16.4312 3.15576 16.2484C2.92436 15.9599 2.76788 15.6566 2.70558 15.3777C2.6774 15.2487 2.67592 15.1834 2.70336 15.1752C3.18083 15.0601 3.65895 14.9476 4.13768 14.8378L5.10181 14.6116C5.25682 14.5745 5.38512 14.5448 5.3866 14.5456V14.5456ZM5.73147 14.6776L5.81824 14.7747C6.18064 15.1862 6.60805 15.5354 7.08347 15.8086C7.13531 15.8343 7.18386 15.8662 7.22809 15.9035C6.16076 16.2905 5.09029 16.6687 4.0168 17.0382C3.99841 17.0273 3.98059 17.0154 3.9634 17.0026L3.91371 16.967L3.99158 16.8543C4.24374 16.4887 4.56116 16.0867 5.25608 15.2509L5.73147 14.6776ZM7.88222 16.215C7.88444 16.2128 8.00459 16.2551 8.15069 16.3099C8.50148 16.4412 8.77663 16.5265 9.14968 16.6199C9.60727 16.7349 10.2695 16.8498 10.6611 16.8825C10.7205 16.8869 10.7516 16.8943 10.7427 16.9003C10.7242 16.9121 10.3274 17.0442 10.0359 17.1361C8.89303 17.4838 7.7469 17.8207 6.5977 18.147C6.57174 18.1522 6.48126 18.1284 6.48126 18.1173C6.48126 18.1106 6.54578 18.0291 6.6244 17.9349C7.01655 17.4653 7.38201 16.974 7.71906 16.4635C7.77315 16.3804 7.82754 16.2976 7.88222 16.215V16.215ZM7.40608 16.2284C7.40979 16.2321 7.21845 16.5384 6.88249 17.0679C6.74009 17.2911 6.57916 17.5462 6.52428 17.633C6.46865 17.7205 6.38782 17.854 6.3448 17.9297L6.26545 18.0669L6.2254 18.0565C6.12898 18.0305 5.44742 17.7895 5.26794 17.7183C5.05371 17.6336 4.84426 17.5373 4.64052 17.4298C4.42618 17.3141 4.15474 17.1421 4.17551 17.1354L4.99502 16.9114C6.17571 16.5895 6.82909 16.4049 7.25702 16.2706C7.33785 16.2462 7.4046 16.2269 7.40534 16.2284H7.40608ZM10.7605 17.0152H10.765C10.7761 17.0434 10.3385 18.2538 10.1791 18.6379C10.1427 18.724 10.1301 18.7455 10.1108 18.744C9.75595 18.6992 9.40167 18.6497 9.04807 18.5957C8.37615 18.4933 7.25108 18.2968 6.96703 18.2323L6.90103 18.2174L7.30374 18.1269C8.16701 17.9326 8.58158 17.8281 9.00209 17.699C9.54412 17.5322 10.0739 17.328 10.5877 17.0879C10.6439 17.0605 10.7016 17.0363 10.7605 17.0152V17.0152Z" fill="#D8D8D8"/>
<path d="M17.9062 14.0431C18.191 13.6146 18.3528 13.099 18.3528 12.5524C18.3528 10.9996 17.0585 9.75732 15.4407 9.75732C13.8228 9.75732 12.5286 10.9996 12.5286 12.5524C12.5286 14.1053 13.8228 15.3475 15.4407 15.3475C16.0037 15.3475 16.5343 15.1922 16.9808 14.9252L18.9999 16.832L19.8994 15.9687L17.9062 14.0431ZM15.4407 14.1053C15.0116 14.1053 14.6001 13.9417 14.2967 13.6504C13.9933 13.3592 13.8228 12.9643 13.8228 12.5524C13.8228 12.1406 13.9933 11.7456 14.2967 11.4544C14.6001 11.1632 15.0116 10.9996 15.4407 10.9996C15.8697 10.9996 16.2812 11.1632 16.5847 11.4544C16.8881 11.7456 17.0585 12.1406 17.0585 12.5524C17.0585 12.9643 16.8881 13.3592 16.5847 13.6504C16.2812 13.9417 15.8697 14.1053 15.4407 14.1053Z" fill="#D8D8D8"/>
</svg>
