<svg width="25" height="24" viewBox="0 0 25 24" fill="none" xmlns="http://www.w3.org/2000/svg">
<path d="M14.6414 6.54762C14.5463 6.54762 14.4829 6.56043 14.4188 6.57629V6.58604H14.4286C14.4731 6.66838 14.5463 6.73241 14.603 6.80865C14.6475 6.89464 14.6853 6.98307 14.7268 7.06907L14.7396 7.05626C14.8159 7.00198 14.8543 6.9166 14.8543 6.78608C14.8226 6.74766 14.8159 6.7068 14.7878 6.67143C14.7561 6.61715 14.686 6.58909 14.6414 6.54762ZM5.99218 17.2772H5.2396C5.21681 16.0793 5.14376 14.8829 5.02065 13.6911H5.01455L3.86799 17.2772H3.29288L2.15546 13.6911H2.1457C2.05731 14.8846 2.00443 16.0805 1.98713 17.2772H1.30103C1.33818 15.7733 1.44951 14.2722 1.63463 12.7793H2.56835L3.65453 16.083H3.66063L4.75658 12.7793H5.64577C5.84276 14.4187 5.96047 15.9177 5.99523 17.2772H5.99218ZM9.25745 13.9582C8.95252 15.6226 8.54573 16.8332 8.04746 17.5857C7.65348 18.167 7.22474 18.4591 6.75758 18.4591C6.63377 18.4591 6.4813 18.4207 6.29712 18.3444V17.9444C6.38921 17.9572 6.49411 17.9663 6.61182 17.9663C6.83076 17.9663 7.0058 17.9029 7.13936 17.7852C7.29793 17.6388 7.37782 17.4741 7.37782 17.293C7.37782 17.1662 7.31744 16.9118 7.19059 16.5246L6.36787 13.9582H7.10825L7.69922 15.8769C7.83279 16.3154 7.89011 16.6173 7.8645 16.7917C8.19139 15.9275 8.41705 14.981 8.54451 13.9582H9.25745ZM19.282 17.2772H17.1413V12.7793H17.8622V16.7246H19.282V17.2772ZM16.5821 17.3857L15.7563 16.9789C15.8295 16.9185 15.899 16.8521 15.963 16.7758C16.3155 16.366 16.4906 15.7531 16.4906 14.9462C16.4906 13.4563 15.9063 12.7135 14.7372 12.7135C14.1651 12.7135 13.7175 12.9007 13.3967 13.2788C13.0472 13.6917 12.8691 14.3016 12.8691 15.1054C12.8691 15.8964 13.0247 16.4746 13.3363 16.846C13.6223 17.1765 14.0511 17.3448 14.6262 17.3448C14.839 17.3448 15.036 17.3192 15.2141 17.2656L16.2911 17.8943L16.5863 17.3863L16.5821 17.3857ZM13.9047 16.3751C13.7205 16.083 13.6315 15.6128 13.6315 14.9645C13.6315 13.8307 13.9748 13.2654 14.664 13.2654C15.0232 13.2654 15.2897 13.402 15.4581 13.6722C15.6392 13.9674 15.7313 14.4315 15.7313 15.0731C15.7313 16.2135 15.3849 16.7886 14.6988 16.7886C14.3365 16.7886 14.073 16.652 13.9017 16.3819L13.9047 16.3751ZM12.5575 16.0324C12.5575 16.4136 12.4178 16.7283 12.1348 16.9692C11.8555 17.2137 11.4835 17.3375 11.0102 17.3375C10.5687 17.3375 10.146 17.1979 9.73011 16.9179L9.92405 16.5307C10.2796 16.7087 10.6004 16.7978 10.8931 16.7978C11.1633 16.7978 11.3762 16.7374 11.5286 16.6197C11.6811 16.499 11.7732 16.3306 11.7732 16.1178C11.7732 15.8507 11.586 15.622 11.2456 15.4317C10.931 15.2572 10.2991 14.898 10.2991 14.898C9.95576 14.6474 9.78744 14.3802 9.78744 13.9387C9.78744 13.5734 9.91429 13.2813 10.1686 13.0586C10.426 12.8299 10.7529 12.7189 11.1597 12.7189C11.5644 12.7154 11.9611 12.8315 12.3001 13.0525L12.1257 13.4398C11.8532 13.3198 11.5592 13.2561 11.2615 13.2526C11.0298 13.2526 10.8517 13.3099 10.7279 13.4209C10.6041 13.5319 10.5278 13.6716 10.5278 13.8466C10.5278 14.1137 10.7187 14.3424 11.0676 14.5388C11.3884 14.7132 12.033 15.0822 12.033 15.0822C12.3855 15.3298 12.5605 15.5969 12.5605 16.0318L12.5575 16.0324ZM20.1846 11.2711C19.7491 11.2613 19.4125 11.3059 19.1301 11.4266C19.0508 11.4583 18.9203 11.4583 18.9075 11.5602C18.952 11.6047 18.9581 11.6748 18.9965 11.7346C19.063 11.8426 19.1746 11.9889 19.2795 12.0652C19.3942 12.1542 19.5082 12.2432 19.6259 12.3195C19.8388 12.45 20.0772 12.5262 20.2864 12.6561C20.4041 12.7324 20.5249 12.8306 20.642 12.9104C20.7024 12.9519 20.7402 13.0251 20.8164 13.0501V13.0343C20.778 12.9867 20.7688 12.9165 20.7304 12.8598C20.6761 12.8055 20.6225 12.758 20.5682 12.7043C20.4091 12.4931 20.2184 12.3078 20.0028 12.1548C19.8284 12.0371 19.4472 11.8718 19.3771 11.6718L19.3674 11.659C19.4851 11.6492 19.6247 11.6047 19.7388 11.573C19.9229 11.5254 20.0943 11.5346 20.2852 11.487C20.3728 11.4643 20.4596 11.4388 20.5456 11.4108V11.3632C20.4474 11.265 20.3743 11.1314 20.2724 11.0394C19.9918 10.7938 19.6922 10.5707 19.3765 10.3721C19.2051 10.2612 18.9892 10.191 18.8081 10.0989C18.7447 10.0672 18.6337 10.0514 18.5983 9.99708C18.5001 9.87632 18.4428 9.7208 18.3726 9.57748C18.2131 9.26742 18.0648 8.95171 17.928 8.63096C17.8299 8.41811 17.7725 8.20831 17.6518 8.01132C17.0925 7.08675 16.4826 6.52811 15.5489 5.97861C15.3489 5.86395 15.1074 5.81638 14.8531 5.75601C14.7164 5.74991 14.5829 5.74015 14.4463 5.73405C14.3572 5.69563 14.2718 5.59439 14.1956 5.54316C13.8846 5.34617 13.0838 4.92353 12.8582 5.48278C12.7118 5.83834 13.0741 6.18475 13.2015 6.36283C13.2936 6.48968 13.4113 6.62996 13.4778 6.76962C13.5162 6.86476 13.5254 6.96356 13.5638 7.06175C13.6498 7.30021 13.7321 7.56672 13.8468 7.78933C13.9071 7.90398 13.9706 8.02413 14.0468 8.12598C14.0913 8.18636 14.1676 8.21197 14.1834 8.31016C14.1072 8.42116 14.1011 8.58339 14.0596 8.71695C13.8626 9.33292 13.9389 10.0922 14.2151 10.5466C14.3042 10.6832 14.5103 10.982 14.7872 10.8674C15.0318 10.7692 14.9781 10.4606 15.0476 10.1874C15.0635 10.1209 15.0537 10.0794 15.086 10.0349V10.0477C15.1653 10.2002 15.2415 10.3465 15.3117 10.499C15.477 10.7661 15.7721 11.0424 16.0167 11.2266C16.1472 11.3248 16.2485 11.4937 16.4107 11.5535V11.5376H16.3979C16.3631 11.49 16.3186 11.4675 16.2741 11.4297C16.1711 11.3276 16.0755 11.2184 15.988 11.1028C15.7624 10.7978 15.5593 10.4612 15.3812 10.1148C15.2954 9.94362 15.2171 9.76883 15.1464 9.5909C15.1147 9.52747 15.1147 9.42867 15.0604 9.39696C14.9781 9.51466 14.8573 9.6159 14.8 9.76532C14.6951 9.99708 14.6853 10.2862 14.6445 10.585C14.6256 10.5911 14.6347 10.585 14.6256 10.5978C14.4512 10.5533 14.3908 10.3752 14.3267 10.2227C14.1615 9.83546 14.1358 9.21583 14.2761 8.77123C14.3145 8.65657 14.4762 8.29796 14.4127 8.19002C14.378 8.08512 14.27 8.02474 14.2127 7.94241C14.1395 7.84056 14.0663 7.71065 14.0157 7.596C13.8852 7.29106 13.8218 6.95441 13.679 6.64947C13.6156 6.50981 13.501 6.36344 13.4089 6.23354C13.304 6.08717 13.1899 5.98288 13.11 5.81089C13.0814 5.75052 13.0436 5.65233 13.0881 5.58829C13.0978 5.54377 13.1198 5.52791 13.1643 5.5151C13.2344 5.45473 13.4375 5.53096 13.5077 5.56572C13.7077 5.64501 13.876 5.72124 14.0444 5.8359C14.1206 5.89018 14.2029 5.99142 14.3017 6.02008H14.4164C14.5908 6.0585 14.7848 6.02984 14.947 6.08046C15.2361 6.17255 15.4965 6.30611 15.7313 6.45187C16.4493 6.91281 17.0333 7.55481 17.4243 8.31321C17.4908 8.43702 17.5194 8.55167 17.5798 8.68158C17.6908 8.95175 17.8341 9.22131 17.9482 9.47868C18.0622 9.73605 18.1708 9.99647 18.3354 10.2093C18.4178 10.324 18.7422 10.3837 18.891 10.4411C18.999 10.4917 19.1673 10.5362 19.2625 10.5935C19.4497 10.7082 19.6339 10.8381 19.8089 10.9649C19.8979 11.0253 20.1681 11.1619 20.184 11.2699L20.1846 11.2711Z" fill="#D8D8D8"/>
<path d="M9.92246 8.75675C10.2641 8.24245 10.4583 7.62381 10.4583 6.96789C10.4583 5.10449 8.90517 3.61377 6.96376 3.61377C5.02236 3.61377 3.46924 5.10449 3.46924 6.96789C3.46924 8.83129 5.02236 10.322 6.96376 10.322C7.63937 10.322 8.27615 10.1357 8.81198 9.81516L11.2348 12.1034L12.3143 11.0674L9.92246 8.75675ZM6.96376 8.83129C6.44887 8.83129 5.95507 8.63497 5.59098 8.28551C5.2269 7.93606 5.02236 7.46209 5.02236 6.96789C5.02236 6.47368 5.2269 5.99972 5.59098 5.65027C5.95507 5.30081 6.44887 5.10449 6.96376 5.10449C7.47865 5.10449 7.97246 5.30081 8.33654 5.65027C8.70063 5.99972 8.90517 6.47368 8.90517 6.96789C8.90517 7.46209 8.70063 7.93606 8.33654 8.28551C7.97246 8.63497 7.47865 8.83129 6.96376 8.83129Z" fill="#D8D8D8"/>
</svg>
