<svg width="25" height="24" viewBox="0 0 25 24" fill="none" xmlns="http://www.w3.org/2000/svg">
<path d="M9.51803 2.60205C14.0579 2.60205 17.735 4.44061 17.735 6.71055C17.735 8.9805 14.0579 10.8191 9.51803 10.8191C4.97814 10.8191 1.30103 8.9805 1.30103 6.71055C1.30103 4.44061 4.97814 2.60205 9.51803 2.60205ZM1.30103 8.76481C1.30103 11.0348 4.97814 12.8733 9.51803 12.8733C14.0579 12.8733 17.735 11.0348 17.735 8.76481V11.8462C17.735 13.0685 16.6566 14.1778 14.9515 14.9276H10.5452V15.9239L9.51803 15.9547C4.97814 15.9547 1.30103 14.1161 1.30103 11.8462V8.76481ZM1.30103 13.9004C1.30103 16.1704 4.97814 18.0089 9.51803 18.0089L10.5452 17.9781V21.0595L9.51803 21.0903C4.97814 21.0903 1.30103 19.2518 1.30103 16.9818V13.9004ZM17.735 13.9004V14.9276H17.4783C17.6426 14.5989 17.735 14.2599 17.735 13.9004Z" fill="#FD2357"/>
<path d="M17.8929 15.9546H14.4972C12.8826 15.9546 11.5737 17.2623 11.5723 18.8766C11.5708 20.4911 12.88 21.8001 14.4943 21.8015H17.8929C19.5075 21.8015 20.8164 20.4923 20.8164 18.878C20.8164 17.2638 19.5075 15.9546 17.8929 15.9546ZM17.8193 20.7708H14.5708C12.0972 20.7211 12.0972 17.035 14.5708 16.9853H17.8193C20.3426 16.9853 20.3426 20.7708 17.8193 20.7708Z" fill="#FD2357"/>
</svg>
