<svg width="21" height="20" viewBox="0 0 21 20" fill="none" xmlns="http://www.w3.org/2000/svg">
<path d="M8.80335 16H7.20015L11.197 0H12.8001L8.80335 16Z" fill="#D8D8D8"/>
<path fill-rule="evenodd" clip-rule="evenodd" d="M6.91844 10.01L2.33829 8.0146L6.91844 5.97944V3.19971L0 6.82328V9.1662L6.91844 12.7898V10.01ZM13.0012 5.96951L17.6697 7.98482L15.8385 8.74092C16.824 8.87977 17.687 9.36315 18.2919 10.0611L20 9.1662V6.83321L13.0012 3.20963V5.96951ZM16.6893 10.9008C16.3537 10.6213 15.938 10.4465 15.4978 10.3987L16.5 11L16.6893 10.9008Z" fill="#D8D8D8"/>
<path d="M18.0959 15.5145C18.4822 14.933 18.7017 14.2336 18.7017 13.492C18.7017 11.3853 16.9457 9.69995 14.7508 9.69995C12.5559 9.69995 10.8 11.3853 10.8 13.492C10.8 15.5988 12.5559 17.2841 14.7508 17.2841C15.5147 17.2841 16.2346 17.0735 16.8404 16.7111L19.5796 19.2982L20.8 18.1268L18.0959 15.5145ZM14.7508 15.5988C14.1687 15.5988 13.6104 15.3768 13.1988 14.9817C12.7872 14.5866 12.5559 14.0508 12.5559 13.492C12.5559 12.9333 12.7872 12.3975 13.1988 12.0024C13.6104 11.6073 14.1687 11.3853 14.7508 11.3853C15.333 11.3853 15.8912 11.6073 16.3029 12.0024C16.7145 12.3975 16.9457 12.9333 16.9457 13.492C16.9457 14.0508 16.7145 14.5866 16.3029 14.9817C15.8912 15.3768 15.333 15.5988 14.7508 15.5988Z" fill="#D8D8D8"/>
</svg>
