<svg width="16" height="17" viewBox="0 0 16 17" fill="none" xmlns="http://www.w3.org/2000/svg">
<path d="M12.5561 12.1677C12.9338 11.5754 13.1484 10.8629 13.1484 10.1074C13.1484 7.96129 11.4315 6.24438 9.28535 6.24438C7.13921 6.24438 5.42231 7.96129 5.42231 10.1074C5.42231 12.2536 7.13921 13.9705 9.28535 13.9705C10.0322 13.9705 10.7361 13.7558 11.3285 13.3867L14.0068 16.0222L15.2001 14.8289L12.5561 12.1677ZM9.28535 12.2536C8.71616 12.2536 8.17028 12.0274 7.7678 11.625C7.36532 11.2225 7.13921 10.6766 7.13921 10.1074C7.13921 9.53823 7.36532 8.99236 7.7678 8.58988C8.17028 8.1874 8.71616 7.96129 9.28535 7.96129C9.85454 7.96129 10.4004 8.1874 10.8029 8.58988C11.2054 8.99236 11.4315 9.53823 11.4315 10.1074C11.4315 10.6766 11.2054 11.2225 10.8029 11.625C10.4004 12.0274 9.85454 12.2536 9.28535 12.2536Z" fill="#D8D8D8"/>
<path d="M5.62806 13.9478C5.09576 13.41 4.68422 12.7649 4.42088 12.0555C1.85155 11.6232 0 10.4078 0 8.97227V11.4193C0 13.2219 2.92007 14.6819 6.52529 14.6819C6.19902 14.4698 5.89723 14.2251 5.62806 13.9478ZM0 4.89396V7.34095C0 8.71126 1.68842 9.88581 4.0783 10.3589V10.1958C4.0783 9.43719 4.24144 8.68679 4.55139 8.00163C1.90865 7.58564 0 6.354 0 4.89396ZM6.52529 0C2.92007 0 0 1.46003 0 3.26264C0 4.89396 2.44698 6.26427 5.58728 6.52529H5.62806C6.60685 5.49755 7.96085 4.89396 9.3801 4.89396C10.1223 4.89396 10.8564 5.04894 11.5334 5.35073C11.9449 5.16305 12.3009 4.87214 12.5667 4.50626C12.8325 4.14038 12.9992 3.71197 13.0506 3.26264C13.0506 1.46003 10.1305 0 6.52529 0Z" fill="#D8D8D8"/>
</svg>
