<svg width="21" height="20" viewBox="0 0 21 20" fill="none" xmlns="http://www.w3.org/2000/svg">
<path d="M2.98156 18.9733H14.3655C14.5344 18.9733 14.6957 18.9448 14.8512 18.9031L11.2852 15.3371C10.5117 15.8523 9.603 16.1273 8.67355 16.1273C6.05808 16.1273 3.93022 13.9994 3.93022 11.384C3.93022 8.76851 6.05808 6.64065 8.67355 6.64065C11.289 6.64065 13.4169 8.76851 13.4169 11.384C13.417 12.3134 13.142 13.2222 12.6266 13.9957L16.1927 17.5617C16.2344 17.4061 16.2629 17.2448 16.2629 17.076V5.69199L10.5709 0H2.98156C2.47835 0 1.99576 0.199897 1.63994 0.555715C1.28413 0.911533 1.08423 1.39413 1.08423 1.89733V17.076C1.08423 17.5792 1.28413 18.0618 1.63994 18.4176C1.99576 18.7734 2.47835 18.9733 2.98156 18.9733Z" fill="#FD2357"/>
<path d="M8.67363 14.2301C10.2454 14.2301 11.5196 12.9559 11.5196 11.3841C11.5196 9.81228 10.2454 8.53809 8.67363 8.53809C7.10183 8.53809 5.82764 9.81228 5.82764 11.3841C5.82764 12.9559 7.10183 14.2301 8.67363 14.2301Z" fill="#FD2357"/>
</svg>
