<svg width="23" height="20" viewBox="0 0 23 20" fill="none" xmlns="http://www.w3.org/2000/svg">
<path d="M2.75876 9.93103C2.45531 9.93103 2.20703 10.1793 2.20703 10.4828V11.5862C2.20703 11.8897 2.45531 12.1379 2.75876 12.1379H6.62082V9.93103H2.75876ZM19.6208 3.62069L16.245 0.241379C16.0898 0.0862069 15.8794 0 15.6588 0H15.4484V4.41379H19.8622V4.20345C19.8622 3.98621 19.776 3.77586 19.6208 3.62069ZM14.345 4.68966V0H7.44841C6.98979 0 6.62082 0.368966 6.62082 0.827586V9.93103H11.0346V7.68276C11.0346 7.18966 11.6312 6.94483 11.9794 7.2931L15.276 10.6207C15.5036 10.8517 15.5036 11.2207 15.276 11.4483L11.976 14.7724C11.6277 15.1207 11.0312 14.8759 11.0312 14.3828V12.1379H6.62082V16.8276C6.62082 17.2862 6.98979 17.6552 7.44841 17.6552H19.0346C19.4932 17.6552 19.8622 17.2862 19.8622 16.8276V5.51724H15.1725C14.7174 5.51724 14.345 5.14483 14.345 4.68966Z" fill="#42CDE1"/>
</svg>
