<svg width="23" height="20" viewBox="0 0 23 20" fill="none" xmlns="http://www.w3.org/2000/svg">
<path fill-rule="evenodd" clip-rule="evenodd" d="M14.7585 15.6554L20.9654 20.0003C21.3016 20.0003 21.5926 19.8774 21.8383 19.6317C22.084 19.386 22.2068 19.0951 22.2068 18.7589V2.62094C22.2068 1.9356 21.9643 1.35047 21.4794 0.865554C20.9945 0.380641 20.4094 0.138184 19.724 0.138184H9.793C9.10766 0.138184 8.52253 0.380641 8.03761 0.865554C7.5527 1.35047 7.31024 1.9356 7.31024 2.62094V9.44853H2.96542C2.34473 9.44853 2.34473 10.0692 2.34473 10.0692V11.3106C2.34473 11.3106 2.34473 11.9313 2.96542 11.9313H7.31024V18.7589C7.31024 19.108 7.42986 19.4022 7.66908 19.6414C7.9083 19.8806 8.20249 20.0003 8.55162 20.0003L14.7585 15.6554ZM7.31024 11.9313V9.44853H11.0344V6.34508L15.9999 10.6899L11.0344 15.0347V11.9313H7.31024Z" fill="#42CDE1"/>
</svg>
