<svg width="19" height="18" viewBox="0 0 19 18" fill="none" xmlns="http://www.w3.org/2000/svg">
<path fill-rule="evenodd" clip-rule="evenodd" d="M1.86492 0C0.836805 0 0 0.836806 0 1.86492V13.4727C0 14.5008 0.836805 15.3376 1.86492 15.3376H8.79615C8.463 15.0435 8.16733 14.7081 7.91688 14.339H5.30738V12.1356H7.05889C7.02009 11.8742 7 11.6064 7 11.3336C7 11.2496 7.00191 11.166 7.00568 11.083H5.30738V8.72147H7.67434C8.02462 8.09383 8.49806 7.5458 9.06284 7.10923V5.30762H11.7657V6.02937C11.9522 6.00995 12.1417 6 12.3336 6C12.4971 6 12.6587 6.00721 12.8183 6.02134V5.30762H15.7046V7.18865C16.0849 7.49752 16.4212 7.85805 16.7032 8.25993V1.86492C16.7032 0.836806 15.8664 0 14.8383 0H1.86492ZM0.9986 1.86492C0.9986 1.38744 1.38744 0.9986 1.86492 0.9986H14.8383C15.3158 0.9986 15.7046 1.38744 15.7046 1.86492V4.25499H12.292H8.53652H4.78106H0.9986V1.86492ZM5.30738 5.30762H8.01021V7.66884H5.30738V5.30762ZM4.25474 5.30762H0.9986V7.66884H4.25474V5.30762ZM4.25474 8.72147H0.9986V11.083H4.25474V8.72147ZM4.25474 12.1356H0.9986V13.4727C0.9986 13.9502 1.38744 14.339 1.86492 14.339H4.25474V12.1356Z" fill="#D8D8D8"/>
<path d="M15.7959 13.5579C16.1822 12.9522 16.4017 12.2234 16.4017 11.4508C16.4017 9.25593 14.6457 7.5 12.4508 7.5C10.2559 7.5 8.5 9.25593 8.5 11.4508C8.5 13.6457 10.2559 15.4017 12.4508 15.4017C13.2147 15.4017 13.9346 15.1822 14.5404 14.8047L17.2796 17.5L18.5 16.2796L15.7959 13.5579ZM12.4508 13.6457C11.8687 13.6457 11.3104 13.4145 10.8988 13.0029C10.4872 12.5912 10.2559 12.033 10.2559 11.4508C10.2559 10.8687 10.4872 10.3104 10.8988 9.8988C11.3104 9.48717 11.8687 9.25593 12.4508 9.25593C13.033 9.25593 13.5912 9.48717 14.0029 9.8988C14.4145 10.3104 14.6457 10.8687 14.6457 11.4508C14.6457 12.033 14.4145 12.5912 14.0029 13.0029C13.5912 13.4145 13.033 13.6457 12.4508 13.6457Z" fill="#D8D8D8"/>
</svg>
