<svg width="22" height="16" viewBox="0 0 22 16" fill="none" xmlns="http://www.w3.org/2000/svg">
<path d="M0.964912 0H4.82456C5.08047 0 5.3259 0.0991187 5.50685 0.275551C5.68781 0.451983 5.78947 0.691276 5.78947 0.940789V14.1118C5.78947 14.3613 5.68781 14.6006 5.50685 14.7771C5.3259 14.9535 5.08047 15.0526 4.82456 15.0526H0.964912C0.709001 15.0526 0.463572 14.9535 0.282616 14.7771C0.10166 14.6006 0 14.3613 0 14.1118V0.940789C0 0.691276 0.10166 0.451983 0.282616 0.275551C0.463572 0.0991187 0.709001 0 0.964912 0ZM1.92982 13.171H3.85965V8.4671H1.92982V13.171Z" fill="#9ED600"/>
<path d="M6.94727 4.82464L6.94727 0.964993C6.94727 0.709083 7.04638 0.463653 7.22282 0.282697C7.39925 0.101741 7.63854 8.12266e-05 7.88805 8.12157e-05L21.0591 8.064e-05C21.3086 8.06291e-05 21.5479 0.101741 21.7243 0.282697C21.9008 0.463653 21.9999 0.709082 21.9999 0.964992L21.9999 4.82464C21.9999 5.08055 21.9008 5.32598 21.7243 5.50693C21.5479 5.68789 21.3086 5.78955 21.0591 5.78955L7.88805 5.78955C7.63854 5.78955 7.39925 5.68789 7.22282 5.50693C7.04638 5.32598 6.94727 5.08055 6.94727 4.82464ZM20.1183 3.85973L20.1183 1.9299L15.4144 1.9299L15.4144 3.85973L20.1183 3.85973Z" fill="#9ED600"/>
</svg>
