<svg width="18" height="20" viewBox="0 0 18 20" fill="none" xmlns="http://www.w3.org/2000/svg">
<path d="M7.65625 3.33333H9.84375V11.1111H7.65625V3.33333ZM5.46875 18.8889C5.46875 19.1836 5.35352 19.4662 5.1484 19.6746C4.94328 19.8829 4.66508 20 4.375 20H1.09375C0.803669 20 0.52547 19.8829 0.320352 19.6746C0.115234 19.4662 0 19.1836 0 18.8889V13.3333L2.1875 3.33333H6.5625V11.1111C6.5625 11.4058 6.44727 11.6884 6.24215 11.8968C6.03703 12.1052 5.75883 12.2222 5.46875 12.2222V18.8889ZM6.5625 2.22222H3.28125V0H6.5625V2.22222ZM12.0312 18.8889V12.2222C11.7412 12.2222 11.463 12.1052 11.2579 11.8968C11.0527 11.6884 10.9375 11.4058 10.9375 11.1111V3.33333H15.3125L17.5 13.3333V18.8889C17.5 19.1836 17.3848 19.4662 17.1796 19.6746C16.9745 19.8829 16.6963 20 16.4062 20H13.125C12.8349 20 12.5567 19.8829 12.3516 19.6746C12.1465 19.4662 12.0312 19.1836 12.0312 18.8889ZM10.9375 2.22222V0H14.2188V2.22222H10.9375Z" fill="#D8D8D8"/>
</svg>
