<svg width="27" height="20" viewBox="0 0 27 20" fill="none" xmlns="http://www.w3.org/2000/svg">
<path d="M0 1.70557H11.9383V3.41104L6.82189 7.67472V10.2329L5.11642 11.9384V7.67472L0 3.41104V1.70557Z" fill="#000"/>
<path d="M0 0H11.9383V0.852736H0V0Z" fill="#000"/>
<path d="M19.5146 7.95898L18.2963 9.37412L21.3256 12.3424H9.37267L12.402 9.37412L11.1837 7.95898L5.68481 13.4124L11.1837 18.8659L12.402 17.4507L9.37267 14.4824H21.3256L18.2963 17.4507L19.5146 18.8659L25.0135 13.4124L19.5146 7.95898V7.95898Z" fill="#000"/>
<path d="M19.5146 7.95898L18.2963 9.37412L21.3256 12.3424H9.37267L12.402 9.37412L11.1837 7.95898L5.68481 13.4124L11.1837 18.8659L12.402 17.4507L9.37267 14.4824H21.3256L18.2963 17.4507L19.5146 18.8659L25.0135 13.4124L19.5146 7.95898V7.95898Z" fill="#000"/>
</svg>
