<svg width="27" height="20" viewBox="0 0 27 20" fill="none" xmlns="http://www.w3.org/2000/svg">
<path d="M0 1.70557H11.9383V3.41104L6.82189 7.67472V13.6439L5.11642 11.9384V7.67472L0 3.41104V1.70557Z" fill="#000"/>
<path d="M0 0H11.9383V0.852736H0V0Z" fill="#000"/>
<path d="M20.3817 3.30844C19.1914 3.20024 18.1418 4.07669 18.0336 5.27776L17.7631 8.40487H20.8145V10.569H17.5684L17.0923 16.0549C17.0438 16.621 16.884 17.1718 16.6221 17.6759C16.3601 18.1801 16.0012 18.6274 15.5658 18.9924C15.1305 19.3574 14.6273 19.6328 14.0852 19.8027C13.5431 19.9727 12.9728 20.0338 12.407 19.9827C11.7359 19.9258 11.0872 19.7133 10.5125 19.3621C9.93775 19.0109 9.45275 18.5306 9.09595 17.9593L10.719 16.3363C10.9787 17.137 11.6929 17.7537 12.591 17.8295C13.7812 17.9377 14.8308 17.0612 14.939 15.8602L15.4043 10.569H12.1581V8.40487H15.5882L15.8804 5.083C16.086 2.7025 18.1851 0.938766 20.5656 1.15517C21.9831 1.2742 23.1733 2.06409 23.8767 3.1786L22.2536 4.80166C21.9939 4.00095 21.2798 3.38419 20.3817 3.30844V3.30844Z" fill="#000"/>
</svg>
