<svg width="24" height="20" viewBox="0 0 24 20" fill="none" xmlns="http://www.w3.org/2000/svg">
<path d="M13.4604 20C13.337 19.9999 13.2144 19.9799 13.0974 19.9409L9.24405 18.6586C9.01489 18.5816 8.81583 18.4344 8.67515 18.2378C8.53447 18.0411 8.45932 17.8052 8.4604 17.5635V11.8322C8.45934 11.8299 8.45788 11.8278 8.45607 11.826L0.347898 2.38173C0.168108 2.17228 0.0521985 1.91564 0.0139294 1.64227C-0.0243397 1.3689 0.0166396 1.09029 0.132002 0.839524C0.247364 0.588754 0.432264 0.376355 0.664749 0.227543C0.897233 0.0787319 1.16754 -0.000241049 1.44357 5.52692e-07H21.6335C21.9095 -0.000241049 22.1798 0.0787319 22.4123 0.227543C22.6448 0.376355 22.8297 0.588754 22.945 0.839524C23.0604 1.09029 23.1014 1.3689 23.0631 1.64227C23.0248 1.91564 22.9089 2.17228 22.7291 2.38173L14.6186 11.8269C14.6169 11.8288 14.6155 11.8309 14.6142 11.8332V18.8461C14.6147 18.9978 14.5851 19.148 14.5273 19.2882C14.4695 19.4284 14.3845 19.5558 14.2773 19.663C14.17 19.7703 14.0427 19.8552 13.9025 19.9131C13.7623 19.9709 13.612 20.0004 13.4604 20V20Z" fill="#000"/>
</svg>
