<svg width="20" height="20" viewBox="0 0 20 20" fill="none" xmlns="http://www.w3.org/2000/svg">
<path d="M9.24747 9.90909L5.43687 6.89394C5.36111 6.83333 5.25253 6.88889 5.25253 6.98485V9.14141H1.71717V1.71717H6.86869V4.94949C6.86869 5.00505 6.91414 5.0505 6.9697 5.0505H8.48485C8.5404 5.0505 8.58586 5.00505 8.58586 4.94949V0.707071C8.58586 0.315657 8.2702 0 7.87879 0H0.707071C0.315657 0 0 0.315657 0 0.707071V19.2929C0 19.6843 0.315657 20 0.707071 20H7.87879C8.2702 20 8.58586 19.6843 8.58586 19.2929V15.0505C8.58586 14.9949 8.5404 14.9495 8.48485 14.9495H6.9697C6.91414 14.9495 6.86869 14.9949 6.86869 15.0505V18.2828H1.71717V10.8586H5.25253V13.0152C5.25253 13.1111 5.36364 13.1667 5.43687 13.1061L9.24747 10.0909C9.30808 10.0455 9.30808 9.95455 9.24747 9.90909V9.90909ZM19.2929 0H12.1212C11.7298 0 11.4141 0.315657 11.4141 0.707071V4.94949C11.4141 5.00505 11.4596 5.0505 11.5152 5.0505H13.0303C13.0859 5.0505 13.1313 5.00505 13.1313 4.94949V1.71717H18.2828V9.14141H14.7475V6.98485C14.7475 6.88889 14.6389 6.83333 14.5631 6.89394L10.75 9.90909C10.6919 9.95455 10.6919 10.0429 10.75 10.0884L14.5631 13.1061C14.6364 13.1641 14.7475 13.1111 14.7475 13.0152V10.8586H18.2828V18.2828H13.1313V15.0505C13.1313 14.9949 13.0859 14.9495 13.0303 14.9495H11.5152C11.4596 14.9495 11.4141 14.9949 11.4141 15.0505V19.2929C11.4141 19.6843 11.7298 20 12.1212 20H19.2929C19.6843 20 20 19.6843 20 19.2929V0.707071C20 0.315657 19.6843 0 19.2929 0Z" fill="#000"/>
</svg>
