<svg width="25" height="24" viewBox="0 0 25 24" fill="none" xmlns="http://www.w3.org/2000/svg">
<path d="M8.62327 19.4472C7.93073 18.7475 7.39531 17.9082 7.05271 16.9853C3.70994 16.4228 1.30103 14.8416 1.30103 12.9739V16.1575C1.30103 18.5028 5.10011 20.4023 9.79059 20.4023C9.36611 20.1264 8.97347 19.808 8.62327 19.4472ZM1.30103 7.66795V10.8515C1.30103 12.6343 3.4977 14.1625 6.607 14.778V14.5657C6.607 13.5788 6.81924 12.6025 7.2225 11.7111C3.78422 11.1699 1.30103 9.56749 1.30103 7.66795ZM9.79059 1.30078C5.10011 1.30078 1.30103 3.20032 1.30103 5.54556C1.30103 7.66795 4.48461 9.45076 8.57022 9.79035H8.62327C9.89671 8.45324 11.6583 7.66795 13.5048 7.66795C14.4705 7.66795 15.4255 7.86958 16.3063 8.26222C16.8417 8.01804 17.3048 7.63956 17.6506 7.16355C17.9965 6.68753 18.2133 6.13015 18.2802 5.54556C18.2802 3.20032 14.4811 1.30078 9.79059 1.30078Z" fill="#000"/>
<path d="M9.61499 17.1064V11.4189H11.365C11.865 11.4189 12.3116 11.5322 12.7048 11.7588C13.1007 11.9827 13.4093 12.3031 13.6306 12.7197C13.852 13.1338 13.9626 13.6051 13.9626 14.1338V14.3955C13.9626 14.9242 13.8533 15.3942 13.6345 15.8057C13.4184 16.2171 13.1124 16.5361 12.7166 16.7627C12.3207 16.9893 11.8741 17.1038 11.3767 17.1064H9.61499ZM10.7869 12.3682V16.165H11.3533C11.8116 16.165 12.1619 16.0153 12.4041 15.7158C12.6462 15.4163 12.7699 14.988 12.7751 14.4307V14.1299C12.7751 13.5518 12.6554 13.1143 12.4158 12.8174C12.1762 12.5179 11.8259 12.3682 11.365 12.3682H10.7869ZM14.8181 17.1064V11.4189H16.8103C17.5004 11.4189 18.0238 11.5518 18.3806 11.8174C18.7374 12.0804 18.9158 12.4671 18.9158 12.9775C18.9158 13.2562 18.8442 13.5023 18.7009 13.7158C18.5577 13.9268 18.3585 14.0817 18.1033 14.1807C18.3949 14.2536 18.6241 14.4007 18.7908 14.6221C18.96 14.8434 19.0447 15.1143 19.0447 15.4346C19.0447 15.9814 18.8702 16.3955 18.5212 16.6768C18.1723 16.958 17.6749 17.1012 17.0291 17.1064H14.8181ZM15.99 14.6299V16.165H16.9939C17.2699 16.165 17.4848 16.0999 17.6384 15.9697C17.7947 15.8369 17.8728 15.6546 17.8728 15.4229C17.8728 14.902 17.6033 14.6377 17.0642 14.6299H15.99ZM15.99 13.8018H16.8572C17.4483 13.7913 17.7439 13.5557 17.7439 13.0947C17.7439 12.8369 17.6684 12.652 17.5173 12.54C17.3689 12.4255 17.1332 12.3682 16.8103 12.3682H15.99V13.8018ZM23.7048 17.1064H19.8064V16.333L21.6462 14.3721C21.8988 14.096 22.085 13.8551 22.2048 13.6494C22.3272 13.4437 22.3884 13.2484 22.3884 13.0635C22.3884 12.8109 22.3246 12.613 22.197 12.4697C22.0694 12.3239 21.8871 12.251 21.6501 12.251C21.3949 12.251 21.1931 12.3395 21.0447 12.5166C20.8988 12.6911 20.8259 12.9215 20.8259 13.208H19.6931C19.6931 12.8617 19.7751 12.5452 19.9392 12.2588C20.1059 11.9723 20.3403 11.7484 20.6423 11.5869C20.9444 11.4229 21.2869 11.3408 21.6697 11.3408C22.2556 11.3408 22.71 11.4814 23.033 11.7627C23.3585 12.0439 23.5212 12.4411 23.5212 12.9541C23.5212 13.2354 23.4483 13.5218 23.3025 13.8135C23.1567 14.1051 22.9067 14.445 22.5525 14.833L21.2595 16.1963H23.7048V17.1064Z" fill="#000"/>
</svg>
