<svg width="21" height="20" viewBox="0 0 21 20" fill="none" xmlns="http://www.w3.org/2000/svg">
<path d="M12.3382 9.92728C14.5491 9.92728 16.3177 11.6959 16.3177 13.9068C16.3177 14.685 16.0966 15.419 15.7075 16.0292L18.4313 18.7706L17.2021 19.9998L14.443 17.2849C13.8328 17.6652 13.1076 17.8862 12.3382 17.8862C10.1274 17.8862 8.35877 16.1176 8.35877 13.9068C8.35877 11.6959 10.1274 9.92728 12.3382 9.92728ZM12.3382 11.6959C11.7519 11.6959 11.1896 11.9289 10.775 12.3435C10.3604 12.7581 10.1274 13.3204 10.1274 13.9068C10.1274 14.4931 10.3604 15.0554 10.775 15.4701C11.1896 15.8847 11.7519 16.1176 12.3382 16.1176C12.9246 16.1176 13.4869 15.8847 13.9015 15.4701C14.3161 15.0554 14.5491 14.4931 14.5491 13.9068C14.5491 13.3204 14.3161 12.7581 13.9015 12.3435C13.4869 11.9289 12.9246 11.6959 12.3382 11.6959ZM3.93712 18.7706C3.46804 18.7706 3.01817 18.5842 2.68649 18.2525C2.3548 17.9209 2.16846 17.471 2.16846 17.0019V2.85264C2.16846 2.38357 2.3548 1.9337 2.68649 1.60201C3.01817 1.27032 3.46804 1.08398 3.93712 1.08398H4.82145V7.27429L7.03227 5.9478L9.24309 7.27429V1.08398H14.5491C15.0182 1.08398 15.468 1.27032 15.7997 1.60201C16.1314 1.9337 16.3177 2.38357 16.3177 2.85264V9.75926C15.2485 8.73066 13.8219 8.15688 12.3382 8.15862C10.8137 8.15862 9.35168 8.76423 8.2737 9.84221C7.19571 10.9202 6.59011 12.3823 6.59011 13.9068C6.59011 15.9496 7.66014 17.7536 9.26962 18.7706H3.93712Z" fill="#000"/>
</svg>
