<svg width="25" height="24" viewBox="0 0 25 24" fill="none" xmlns="http://www.w3.org/2000/svg">
<path d="M13.0687 2.60205C12.4122 2.60705 11.7595 2.70219 11.1289 2.88482L11.0851 2.89907C10.6883 2.83033 10.2869 2.79171 9.88434 2.78353C9.05449 2.76929 8.34229 2.96976 7.7683 3.30529C7.20223 3.11062 6.02894 2.76929 4.79234 2.8384C3.93295 2.88482 2.99284 3.14596 2.29435 3.88244C1.6022 4.61627 1.23449 5.75369 1.31098 7.30365C1.33261 7.72939 1.45395 8.42419 1.65706 9.3279C1.85753 10.2295 2.14083 11.2846 2.49535 12.249C2.84987 13.2107 3.23657 14.0759 3.84168 14.6636C4.14345 14.9575 4.56127 15.2081 5.05296 15.1864C5.39693 15.1722 5.70713 15.0213 5.97671 14.7987C6.10807 14.9717 6.24893 15.0456 6.37502 15.1147C6.53751 15.2028 6.69103 15.2629 6.85351 15.302C7.14473 15.3758 7.64221 15.4724 8.22464 15.3732C8.43672 15.335 8.64344 15.2714 8.8403 15.1838L8.8651 15.8733C8.89517 16.6013 8.91521 17.2745 9.13151 17.8654C9.16739 17.9619 9.26393 18.4562 9.64272 18.8957C10.0247 19.3352 10.7659 19.6074 11.6153 19.4259C12.2119 19.2993 12.9727 19.0687 13.4786 18.3492C13.9787 17.6401 14.204 16.6209 14.2483 14.9664C14.2589 14.8757 14.2731 14.8018 14.2863 14.7301L14.4045 14.7412H14.4187C15.056 14.7686 15.7487 14.6779 16.3285 14.4083C16.8391 14.1719 17.2269 13.933 17.5097 13.5072C17.5788 13.4022 17.6579 13.2735 17.678 13.0535C17.6996 12.8367 17.573 12.4927 17.3641 12.3339C16.9468 12.0153 16.683 12.1361 16.3997 12.1968C16.1222 12.2565 15.8398 12.2904 15.5561 12.2981C16.3691 10.9301 16.9515 9.47403 17.2844 8.18732C17.4822 7.42605 17.5925 6.72545 17.6004 6.11295C17.6115 5.50046 17.5598 4.95918 17.1937 4.48966C16.0452 3.02515 14.4319 2.61788 13.1847 2.60469H13.0692L13.0687 2.60205ZM13.0354 3.05311C14.2145 3.04203 15.7223 3.37176 16.8049 4.75607C17.0496 5.06681 17.1214 5.51998 17.1129 6.08077C17.1045 6.64157 17.0006 7.30893 16.8107 8.04276C16.4456 9.46664 15.7497 11.12 14.7748 12.6072C14.8084 12.6325 14.8453 12.6529 14.8845 12.6679C15.0877 12.7528 15.5519 12.824 16.4804 12.6346C16.7141 12.5845 16.885 12.5523 17.0634 12.6869C17.1066 12.7234 17.1408 12.7694 17.1632 12.8215C17.1855 12.8735 17.1954 12.93 17.1921 12.9865C17.1825 13.0722 17.1502 13.1538 17.0987 13.2229C16.9199 13.4914 16.5664 13.7478 16.1127 13.9593C15.7118 14.1456 15.1341 14.2421 14.6266 14.2479C14.3686 14.2505 14.1322 14.231 13.9307 14.1677L13.9202 14.1656C13.8426 14.91 13.6648 16.3829 13.5488 17.0529C13.4559 17.5937 13.2934 18.0258 12.9832 18.347C12.6725 18.6715 12.2357 18.8635 11.6448 18.9901C10.9141 19.1468 10.3834 18.9791 10.0405 18.6905C9.69758 18.4019 9.54037 18.0173 9.44699 17.7836C9.38158 17.6216 9.34834 17.4127 9.31563 17.1321C9.27972 16.797 9.25579 16.4607 9.24388 16.1239C9.22225 15.533 9.21381 14.9422 9.22225 14.3487C8.91744 14.6282 8.53876 14.8142 8.13126 14.8847C7.64538 14.967 7.21384 14.8847 6.95586 14.8214C6.82859 14.7889 6.7058 14.7409 6.59026 14.6784C6.46945 14.6151 6.35655 14.5439 6.28006 14.4004C6.23598 14.3182 6.22234 14.2231 6.24155 14.1318C6.26435 14.0392 6.31768 13.9568 6.39296 13.8981C6.53276 13.7847 6.7174 13.7225 6.99437 13.6644C7.5003 13.5594 7.67862 13.4888 7.78571 13.4028C7.87645 13.3315 7.98144 13.1833 8.16186 12.9659C8.16186 12.958 8.16186 12.947 8.15922 12.9385C7.8323 12.9286 7.51228 12.842 7.22492 12.6858C7.12099 12.7955 6.57918 13.3674 5.9229 14.1588C5.64804 14.4879 5.34311 14.6779 5.01919 14.6921C4.69791 14.7053 4.40564 14.5439 4.15874 14.3044C3.66442 13.8232 3.26823 12.996 2.92479 12.0617C2.58134 11.1274 2.30385 10.0865 2.10338 9.20181C1.90554 8.31393 1.78737 7.59961 1.77049 7.25617C1.69663 5.79167 2.04007 4.80566 2.62777 4.18156C3.21547 3.55746 4.02105 3.32428 4.80711 3.27785C6.21675 3.19819 7.55728 3.68988 7.82686 3.79433C8.34862 3.43981 9.02178 3.22035 9.86271 3.23354C10.2612 3.2394 10.6577 3.29109 11.0444 3.38759L11.0587 3.37914C11.2288 3.32022 11.4021 3.2709 11.5778 3.23143C12.0553 3.11938 12.5435 3.05941 13.0339 3.05259L13.0354 3.05311ZM13.1425 3.52264H13.0386C12.6377 3.52739 12.233 3.57487 11.8405 3.65981C12.7168 4.04756 13.3789 4.64318 13.8458 5.24248C14.1702 5.65451 14.4366 6.10768 14.6398 6.59145C14.7199 6.77873 14.7722 6.93489 14.7996 7.0557C14.816 7.11637 14.8244 7.16807 14.8297 7.2203C14.8297 7.24773 14.8323 7.27569 14.8186 7.32212C14.8186 7.32476 14.816 7.33056 14.816 7.3332C14.8386 7.94886 14.6846 8.36563 14.6645 8.95386C14.6514 9.38013 14.7611 9.88025 14.7885 10.4268C14.8133 10.9401 14.7505 11.5035 14.4177 12.0585C14.4451 12.0918 14.4699 12.1245 14.4973 12.1604C15.3794 10.7697 16.0167 9.23399 16.3548 7.92301C16.5363 7.21661 16.6318 6.57668 16.6403 6.0718C16.6487 5.56588 16.5553 5.19764 16.434 5.04412C15.4886 3.83759 14.2114 3.5295 13.142 3.52211L13.1425 3.52264ZM9.77091 3.70359C8.94159 3.70623 8.34492 3.95682 7.89228 4.33297C7.42433 4.72336 7.11149 5.25356 6.90838 5.80011C6.66359 6.44584 6.57866 7.07206 6.54542 7.49832L6.5565 7.49252C6.8494 7.32851 7.16392 7.2065 7.49081 7.13009C7.84269 7.04726 8.22464 7.02247 8.56755 7.15752C8.91416 7.28888 9.19693 7.60489 9.30139 8.08022C9.79676 10.3719 9.14787 11.2239 8.90888 11.8665C8.81814 12.1002 8.73848 12.3366 8.67517 12.5782C8.70525 12.5724 8.73584 12.5639 8.76591 12.5613C8.93632 12.5481 9.06768 12.603 9.14523 12.6357C9.38738 12.737 9.55198 12.9459 9.64272 13.1849C9.66499 13.2501 9.68141 13.3172 9.69178 13.3854C9.70087 13.4139 9.70567 13.4435 9.70602 13.4735C9.67833 14.3497 9.68097 15.2267 9.71394 16.1028C9.73082 16.4821 9.75561 16.8145 9.78569 17.0783C9.81576 17.3394 9.85691 17.5399 9.88487 17.6085C9.97508 17.8337 10.107 18.1276 10.3465 18.328C10.5828 18.529 10.9231 18.6609 11.5472 18.529C12.088 18.4109 12.4208 18.251 12.6429 18.0205C12.8661 17.7868 12.9975 17.4655 13.0824 16.9738C13.2117 16.2347 13.467 14.0912 13.4976 13.6903C13.4844 13.3848 13.5277 13.1516 13.6268 12.9728C13.7255 12.7913 13.8795 12.679 14.0146 12.6183C14.08 12.5882 14.1433 12.5692 14.1955 12.5523C14.1403 12.4752 14.0835 12.3993 14.0251 12.3244C13.8326 12.0908 13.6743 11.8309 13.5551 11.5526C13.5003 11.4359 13.4397 11.322 13.3736 11.2113C13.2808 11.044 13.1626 10.832 13.0386 10.593C12.7912 10.1203 12.5221 9.54367 12.3818 8.98287C12.242 8.42208 12.223 7.84282 12.5802 7.43607C12.8962 7.07311 13.4538 6.92276 14.2858 7.00769C14.261 6.93331 14.2478 6.87 14.2061 6.77399C14.0169 6.32954 13.7702 5.91185 13.4723 5.53158C12.7659 4.62788 11.62 3.73155 9.85374 3.70148L9.77091 3.70359ZM5.10044 3.73947C5.01156 3.73937 4.92271 3.74219 4.83402 3.74791C4.12234 3.78959 3.45182 3.99481 2.97068 4.50337C2.49008 5.01458 2.1746 5.84706 2.24265 7.22927C2.2569 7.49305 2.36927 8.22372 2.56394 9.09472C2.75966 9.96624 3.03663 10.9913 3.36952 11.8976C3.70135 12.8013 4.10335 13.59 4.48794 13.9636C4.67997 14.1477 4.84721 14.2247 4.99862 14.2194C5.15003 14.211 5.33415 14.1229 5.55941 13.8538C5.96822 13.3606 6.39259 12.8804 6.83188 12.4141C6.52033 12.1429 6.28203 11.7976 6.13895 11.4102C5.99586 11.0227 5.95259 10.6054 6.01311 10.1968C6.08433 9.67767 6.09541 9.19073 6.08433 8.80614C6.07642 8.43263 6.0511 8.18573 6.0511 8.02905V8.01217L6.04846 8.00742C6.04846 7.19656 6.19196 6.39467 6.46629 5.6334C6.66412 5.10795 6.95586 4.57829 7.39479 4.14622C6.96377 4.00325 6.1967 3.78959 5.36738 3.74791C5.27869 3.74221 5.18984 3.73939 5.10096 3.73947H5.10044ZM13.821 7.45401C13.3435 7.46245 13.0766 7.58643 12.9342 7.74522C12.7358 7.97365 12.7168 8.3746 12.8408 8.86945C12.9637 9.36377 13.2201 9.91613 13.4591 10.3756C13.5773 10.6062 13.6928 10.8124 13.7856 10.9797C13.8822 11.1501 13.9508 11.2683 13.9919 11.3727C14.0304 11.4661 14.0747 11.5484 14.1185 11.6254C14.3026 11.235 14.3359 10.8531 14.3164 10.4521C14.2916 9.9578 14.1766 9.45187 14.1955 8.9412C14.2151 8.34189 14.3332 7.9515 14.3417 7.48988C14.1694 7.4671 13.9958 7.45512 13.822 7.45401H13.821ZM8.02944 7.53736C7.88384 7.53736 7.73823 7.55636 7.59526 7.58959C7.31192 7.65774 7.03914 7.76405 6.7844 7.9056C6.69868 7.95199 6.61697 8.00546 6.54014 8.06545L6.52326 8.07864C6.52907 8.18362 6.54806 8.43052 6.5565 8.79876C6.56494 9.1997 6.5565 9.71038 6.48 10.2633C6.3096 11.4666 7.18324 12.4616 8.20829 12.4642C8.26895 12.2168 8.36708 11.9662 8.46626 11.703C8.75167 10.9333 9.31247 10.373 8.83977 8.18046C8.76328 7.8233 8.60923 7.67769 8.39715 7.59539C8.27914 7.55386 8.1545 7.53436 8.02944 7.53789V7.53736ZM13.5989 7.6798H13.6348C13.6785 7.68244 13.7229 7.68561 13.7608 7.69616C13.7951 7.70287 13.8279 7.71593 13.8574 7.73467C13.8711 7.7429 13.8829 7.75399 13.8919 7.7672C13.9009 7.7804 13.9069 7.7954 13.9096 7.81117V7.81697C13.9095 7.85071 13.901 7.88388 13.8848 7.91351C13.8641 7.95141 13.8383 7.98636 13.8083 8.01744C13.7374 8.09676 13.6412 8.14912 13.5361 8.16569C13.4344 8.17873 13.3315 8.15333 13.2475 8.09446C13.2143 8.07034 13.1838 8.04256 13.1568 8.01164C13.133 7.98666 13.1176 7.95498 13.1125 7.9209C13.1094 7.88839 13.1192 7.85597 13.1399 7.83069C13.1643 7.80572 13.1922 7.7844 13.2227 7.76738C13.2908 7.72887 13.3815 7.70143 13.4865 7.68719C13.5245 7.68244 13.563 7.67928 13.5989 7.67664V7.6798ZM8.0975 7.79798C8.13337 7.79798 8.17505 7.80061 8.21356 7.80589C8.32329 7.82277 8.41667 7.85021 8.49053 7.89399C8.52674 7.91163 8.55862 7.93703 8.58391 7.96838C8.61131 8.00144 8.62508 8.0437 8.62242 8.08655C8.61491 8.12717 8.5967 8.16505 8.56966 8.19628C8.54073 8.23152 8.50657 8.26212 8.46837 8.28702C8.37696 8.3527 8.26399 8.38118 8.15236 8.36669C8.03928 8.34851 7.93569 8.29253 7.85851 8.20789C7.82611 8.17306 7.79827 8.13423 7.77569 8.09235C7.75107 8.05501 7.74042 8.01017 7.74562 7.96574C7.75669 7.89188 7.82 7.8502 7.88067 7.82858C7.94978 7.80589 8.02364 7.7985 8.0975 7.80114V7.79798ZM14.4699 12.9633H14.4672C14.366 13.0018 14.281 13.0161 14.2093 13.0493C14.1366 13.0767 14.077 13.1303 14.042 13.1997C13.9951 13.2798 13.9597 13.4228 13.9703 13.6665C14.002 13.6894 14.0376 13.7063 14.0753 13.7167C14.1934 13.7525 14.3965 13.7773 14.6218 13.7742C15.0697 13.7684 15.6221 13.6644 15.9159 13.5267C16.1561 13.4154 16.379 13.2703 16.578 13.0957C15.5973 13.2962 15.0454 13.244 14.7041 13.1042C14.6203 13.0679 14.5417 13.0205 14.4704 12.9633H14.4699ZM8.82078 13.0292H8.80654C8.76855 13.0319 8.7158 13.0461 8.6087 13.1617C8.36392 13.436 8.27898 13.609 8.07851 13.7689C7.8754 13.9308 7.61425 14.0163 7.08933 14.1234C6.97737 14.1434 6.86836 14.1775 6.76488 14.2247C6.78388 14.2416 6.78388 14.2474 6.81395 14.2606C6.8915 14.3049 6.98962 14.3408 7.06981 14.3624C7.29508 14.4173 7.66279 14.4832 8.05055 14.4173C8.43514 14.3513 8.83608 14.1667 9.18005 13.6866C9.24072 13.6043 9.24547 13.4803 9.1964 13.3484C9.14734 13.2197 9.03972 13.1042 8.96586 13.0741C8.91964 13.0526 8.87062 13.0377 8.82025 13.0298L8.82078 13.0292Z" fill="#000"/>
<path d="M20.616 19.6274C20.9115 19.1825 21.0795 18.6474 21.0795 18.08C21.0795 16.4682 19.736 15.1787 18.0567 15.1787C16.3774 15.1787 15.0339 16.4682 15.0339 18.08C15.0339 19.6919 16.3774 20.9813 18.0567 20.9813C18.6411 20.9813 19.1919 20.8202 19.6554 20.5429L21.7512 22.5223L22.6849 21.6261L20.616 19.6274ZM18.0567 19.6919C17.6113 19.6919 17.1842 19.5221 16.8692 19.2198C16.5543 18.9175 16.3774 18.5075 16.3774 18.08C16.3774 17.6525 16.5543 17.2426 16.8692 16.9403C17.1842 16.638 17.6113 16.4682 18.0567 16.4682C18.5021 16.4682 18.9292 16.638 19.2442 16.9403C19.5591 17.2426 19.736 17.6525 19.736 18.08C19.736 18.5075 19.5591 18.9175 19.2442 19.2198C18.9292 19.5221 18.5021 19.6919 18.0567 19.6919Z" fill="#000"/>
</svg>
