<svg width="21" height="20" viewBox="0 0 21 20" fill="none" xmlns="http://www.w3.org/2000/svg">
<path d="M14.0844 8.87823C16.1812 8.87823 17.8587 10.5557 17.8587 12.6525C17.8587 13.3906 17.649 14.0867 17.28 14.6654L19.8632 17.2655L18.6974 18.4313L16.0806 15.8564C15.5019 16.2171 14.8141 16.4267 14.0844 16.4267C11.9876 16.4267 10.3102 14.7493 10.3102 12.6525C10.3102 10.5557 11.9876 8.87823 14.0844 8.87823ZM14.0844 10.5557C13.5283 10.5557 12.995 10.7766 12.6018 11.1698C12.2085 11.563 11.9876 12.0964 11.9876 12.6525C11.9876 13.2086 12.2085 13.7419 12.6018 14.1352C12.995 14.5284 13.5283 14.7493 14.0844 14.7493C14.6405 14.7493 15.1739 14.5284 15.5671 14.1352C15.9603 13.7419 16.1812 13.2086 16.1812 12.6525C16.1812 12.0964 15.9603 11.563 15.5671 11.1698C15.1739 10.7766 14.6405 10.5557 14.0844 10.5557ZM7.79401 2.16846L9.47145 3.8459H16.1812C16.6261 3.8459 17.0528 4.02263 17.3674 4.33721C17.6819 4.6518 17.8587 5.07846 17.8587 5.52335V8.71888C16.8446 7.74333 15.4916 7.19914 14.0844 7.20079C12.6385 7.20079 11.2519 7.77516 10.2295 8.79755C9.2071 9.81995 8.63273 11.2066 8.63273 12.6525C8.63273 13.7344 8.94306 14.7493 9.47145 15.588H2.76167C2.31679 15.588 1.89012 15.4113 1.57554 15.0967C1.26096 14.7821 1.08423 14.3555 1.08423 13.9106V3.8459C1.08423 2.91492 1.83069 2.16846 2.76167 2.16846H7.79401Z" fill="#000"/>
</svg>
