<svg width="54" height="90" viewBox="0 0 54 90" fill="none" xmlns="http://www.w3.org/2000/svg">
<path d="M26.9693 13.3928C25.6377 13.3928 24.75 12.4999 24.75 11.1608V2.23207C24.75 0.892945 25.6377 0 26.9693 0C28.301 0 29.1886 0.892945 29.1886 2.23207V11.1606C29.1886 12.5001 28.301 13.3928 26.9693 13.3928Z" fill="white"/>
<path d="M42 33.8399H11.2799C10.1279 33.8399 9.35999 33.1198 9.35999 32.0399V28.4399C9.35999 27.3598 10.1281 26.6399 11.2799 26.6399H42C43.1521 26.6399 43.92 27.36 43.92 28.4399V32.0399C43.92 33.1198 43.1521 33.8399 42 33.8399Z" fill="white"/>
<path d="M42 46.0799H11.2799C10.1279 46.0799 9.35999 45.3598 9.35999 44.2799V40.6798C9.35999 39.5998 10.1281 38.8799 11.2799 38.8799H42C43.1521 38.8799 43.92 39.6 43.92 40.6798V44.2799C43.92 45.3598 43.1521 46.0799 42 46.0799Z" fill="white"/>
<path d="M42 57.5999H11.2799C10.1279 57.5999 9.35999 56.8078 9.35999 55.62V51.6599C9.35999 50.4718 10.1281 49.6799 11.2799 49.6799H42C43.1521 49.6799 43.92 50.472 43.92 51.6599V55.62C43.92 56.808 43.1521 57.5999 42 57.5999Z" fill="white"/>
<path d="M42 68.4H11.2799C10.1279 68.4 9.35999 67.6799 9.35999 66.6V62.9999C9.35999 61.9199 10.1281 61.2 11.2799 61.2H42C43.1521 61.2 43.92 61.92 43.92 62.9999V66.6C43.92 67.68 43.1521 68.4 42 68.4Z" fill="white"/>
<path fill-rule="evenodd" clip-rule="evenodd" d="M0 89.9999V18.5714C0 17.2321 0.887843 16.3393 2.21932 16.3393H13.3163C14.648 16.3393 15.5356 15.4464 15.5356 14.1073V9.64272C15.5356 8.3034 16.4235 7.41064 17.7549 7.41064H35.5101C36.8417 7.41064 37.7294 8.30359 37.7294 9.64272V14.1071C37.7294 15.4464 38.6172 16.3391 39.9487 16.3391H51.0459C52.3776 16.3391 53.2652 17.2321 53.2652 18.5712V89.9999L33.2908 89.9999V76.6071H19.9745V89.9999L0 89.9999ZM6.48 26.4999C6.48 24.2908 8.27086 22.4999 10.48 22.4999H42.23C44.4391 22.4999 46.23 24.2908 46.23 26.4999V67.9999C46.23 70.209 44.4391 71.9999 42.23 71.9999H10.48C8.27086 71.9999 6.48 70.209 6.48 67.9999V26.4999ZM44.3877 85.5358H39.9489C38.6172 85.5358 37.7296 84.6428 37.7296 83.3037V78.8393C37.7296 77.5 38.6174 76.6073 39.9489 76.6073H44.3877C45.7194 76.6073 46.6071 77.5002 46.6071 78.8393V83.3037C46.6071 84.6428 45.7194 85.5358 44.3877 85.5358ZM8.87747 85.5363H13.3163C14.648 85.5363 15.5356 84.6433 15.5356 83.3042V78.8399C15.5356 77.5007 14.648 76.6078 13.3163 76.6078H8.87747C7.546 76.6078 6.65815 77.5006 6.65815 78.8399V83.3042C6.65815 84.6433 7.54581 85.5363 8.87747 85.5363Z" fill="white"/>
<path d="M35.5101 7.41064H17.7549C16.4233 7.41064 15.5356 8.30359 15.5356 9.64272V14.1071C15.5356 15.4464 14.6478 16.3391 13.3163 16.3391H39.9489C38.6172 16.3391 37.7296 15.4462 37.7296 14.1071V9.64272C37.7296 8.3034 36.8417 7.41064 35.5101 7.41064Z" fill="white"/>
<path d="M27.7423 85.5358C28.3552 85.5358 28.852 85.0361 28.852 84.4197C28.852 83.8034 28.3552 83.3037 27.7423 83.3037C27.1295 83.3037 26.6327 83.8034 26.6327 84.4197C26.6327 85.0361 27.1295 85.5358 27.7423 85.5358Z" fill="white"/>
<path d="M25.523 85.5358C26.1358 85.5358 26.6327 85.0361 26.6327 84.4197C26.6327 83.8034 26.1358 83.3037 25.523 83.3037C24.9101 83.3037 24.4133 83.8034 24.4133 84.4197C24.4133 85.0361 24.9101 85.5358 25.523 85.5358Z" fill="white"/>
</svg>
