<svg width="82" height="66" viewBox="0 0 82 66" fill="none" xmlns="http://www.w3.org/2000/svg">
<path fill-rule="evenodd" clip-rule="evenodd" d="M81.023 47.7194V4.16079C81.023 2.23431 79.7137 0.612186 77.9344 0.140076C77.592 0.0484211 77.2323 0 76.8622 0H6.67181C4.37352 0 2.51085 1.8625 2.51085 4.16079V42.7544H0V65.0629H41.9935V51.8802H76.8622C77.2323 51.8802 77.592 51.8319 77.9344 51.7401C79.7137 51.268 81.023 49.6459 81.023 47.7194ZM8.21716 6.74388C9.64979 6.74388 10.8112 5.5825 10.8112 4.14987C10.8112 2.71724 9.64979 1.55587 8.21716 1.55587C6.78453 1.55587 5.62315 2.71724 5.62315 4.14987C5.62315 5.5825 6.78453 6.74388 8.21716 6.74388ZM27.8422 10.8027H7.28022V13.6616H27.8422V10.8027ZM17.7284 4.14988C17.7284 5.58251 16.5671 6.74389 15.1344 6.74389C13.7018 6.74389 12.5404 5.58251 12.5404 4.14988C12.5404 2.71725 13.7018 1.55588 15.1344 1.55588C16.5671 1.55588 17.7284 2.71725 17.7284 4.14988ZM59.7882 25.4446L58.8821 28.3308L54.6365 41.8508C50.4377 40.5331 46.7421 37.6122 44.5441 33.403C42.3461 29.1921 42.0625 24.4917 43.3803 20.2929L57.8133 24.8237L59.7882 25.4446ZM65.3529 45.3095C66.7104 44.9861 68.0507 44.4915 69.3442 43.8171L61.3841 28.5713L60.8099 30.4026L56.2324 44.9792C59.1428 45.894 62.292 46.0376 65.3529 45.3095ZM69.0431 38.7442L61.0846 23.5001L59.1097 22.8792L44.6767 18.3483C45.9962 14.1478 48.9153 10.4522 53.1245 8.2542C53.5655 8.02419 54.0099 7.81494 54.4613 7.62818C58.3125 6.0147 62.4768 5.91094 66.2363 7.09208C70.4369 8.40984 74.1325 11.329 76.3305 15.5399C80.7248 23.9601 77.4632 34.3482 69.0431 38.7442ZM39.5391 15.5869H7.12989V42.8106H9.96133V29.0476H16.1866V42.8106H19.9769V23.8598H26.2024V42.8106H29.9927V18.1533H36.2178V42.8106H39.5391V15.5869ZM2.59388 62.4689V45.3485H39.3987V62.4689H2.59388ZM15.1158 57.0794L18.6879 60.9493L23.8062 51.7077L27.8703 58.2393L33.8469 47.5784L32.5795 46.868L27.8051 55.3846L23.7332 48.8407L18.3913 58.486L14.9899 54.8012L12.4339 58.2697L13.6036 59.1314L15.1158 57.0794ZM9.16533 48.2883H4.49611V50.1906H9.16533V48.2883ZM4.49611 52.9575H9.16533V54.8598H4.49611V52.9575ZM9.16533 57.6267H4.49611V59.529H9.16533V57.6267Z" fill="white"/>
</svg>
