<svg width="87" height="70" viewBox="0 0 87 70" fill="none" xmlns="http://www.w3.org/2000/svg">
<path fill-rule="evenodd" clip-rule="evenodd" d="M67.2305 0C67.9531 0 68.5395 0.585683 68.5395 1.30902V3.40292C68.5395 4.12625 67.9531 4.71194 67.2305 4.71194H19.5115C18.7889 4.71194 18.2025 4.12625 18.2025 3.40292V1.30902C18.2025 0.586345 18.7889 0 19.5115 0H67.2305ZM1.89075 64.4853H1.30902H1.27063C0.569137 64.4853 0 65.0545 0 65.7566V65.7944V66.7109V68.1636C0 68.8651 0.569137 69.4342 1.27063 69.4342H85.4712C86.1726 69.4342 86.7418 68.8651 86.7418 68.1636V66.7109V65.7944V65.7566C86.7418 65.0545 86.1726 64.4853 85.4712 64.4853H85.4328H84.8513V18.1787L85.4331 18.1787C86.1564 18.1787 86.7421 17.5923 86.7421 16.8696V14.7757C86.7421 14.0524 86.1564 13.4667 85.4331 13.4667H65.2207V18.1787V64.4853L65.2112 64.4853V4.71194H21.512V13.4667H1.27063C0.569138 13.4667 0 14.0352 0 14.7374V16.9074C0 17.6095 0.569138 18.1787 1.27063 18.1787L1.89075 18.1787V64.4853ZM24.9817 17.1848C24.9817 14.9756 26.7726 13.1848 28.9817 13.1848H57.0663C59.2755 13.1848 61.0663 14.9756 61.0663 17.1848V25.1453C61.0663 27.3544 59.2755 29.1453 57.0663 29.1453H28.9817C26.7726 29.1453 24.9817 27.3544 24.9817 25.1453V17.1848ZM55.0642 46.0843V64.4853H31.6772V46.0843C31.6772 44.0877 33.296 42.469 35.2926 42.469H51.4495C53.4461 42.469 55.0642 44.0877 55.0642 46.0843ZM9.52237 48.3714H13.8895C14.644 48.3714 15.2548 47.7606 15.2548 47.0062V35.6578C15.2548 34.904 14.644 34.2925 13.8895 34.2925H9.52237C8.7686 34.2925 8.1571 34.904 8.1571 35.6578V47.0062C8.1571 47.7599 8.7686 48.3714 9.52237 48.3714ZM72.8523 48.3714H77.2195C77.9733 48.3714 78.5847 47.7599 78.5847 47.0062V35.6578C78.5847 34.904 77.9733 34.2925 77.2195 34.2925H72.8523C72.0979 34.2925 71.4871 34.904 71.4871 35.6578V47.0062C71.4871 47.7606 72.0979 48.3714 72.8523 48.3714Z" fill="white"/>
<path d="M33.4959 27.0635H29.6522C28.9888 27.0635 28.4513 26.5511 28.4513 25.9195V16.4106C28.4513 15.779 28.9888 15.2666 29.6522 15.2666H33.4959C34.1592 15.2666 34.6967 15.779 34.6967 16.4106V25.9195C34.6973 26.5511 34.1592 27.0635 33.4959 27.0635Z" fill="white"/>
<path d="M45.1594 27.0635H40.8886C40.1516 27.0635 39.5543 26.5511 39.5543 25.9195V16.4106C39.5543 15.779 40.1516 15.2666 40.8886 15.2666H45.1594C45.8964 15.2666 46.4937 15.779 46.4937 16.4106V25.9195C46.4937 26.5511 45.8964 27.0635 45.1594 27.0635Z" fill="white"/>
<path d="M56.3958 27.0635H52.5521C51.8887 27.0635 51.3512 26.5511 51.3512 25.9195V16.4106C51.3512 15.779 51.8887 15.2666 52.5521 15.2666H56.3958C57.0591 15.2666 57.5966 15.779 57.5966 16.4106V25.9195C57.5966 26.5511 57.0591 27.0635 56.3958 27.0635Z" fill="white"/>
<circle cx="40.5952" cy="54.4739" r="1.73484" fill="white"/>
<circle cx="45.4527" cy="54.4739" r="1.73484" fill="white"/>
</svg>
