<svg width="78" height="82" viewBox="0 0 78 82" fill="none" xmlns="http://www.w3.org/2000/svg">
<path fill-rule="evenodd" clip-rule="evenodd" d="M71.6629 22.1768H68.7229C68.5533 22.1768 68.384 22.1746 68.2151 22.1704L67.8662 21.2345C67.9144 20.8892 67.7099 20.482 67.2529 20.3287C66.8854 20.1439 66.3342 20.3287 66.1504 20.8832L65.7599 21.9593C62.982 21.5516 60.331 20.5884 57.8816 19.2199C53.246 16.4571 47.3272 15.9531 42.2233 18.0092C41.8849 17.7103 41.5097 17.4524 41.1055 17.2434L40.4251 1.84801C40.4251 0.739299 39.5064 0 38.5877 0C37.669 0 36.7503 0.739299 36.7503 1.84801L36.062 17.2474C35.7095 17.4305 35.3792 17.6507 35.0761 17.9028C29.9632 15.9243 24.1395 16.2502 19.2938 19.0352C16.7983 20.569 13.9888 21.5769 11.1811 21.9792L10.9034 21.2344C10.9515 20.8891 10.747 20.482 10.2901 20.3287C9.92264 20.1439 9.37137 20.3287 9.18772 20.8832L8.71896 22.175C8.63003 22.1763 8.54121 22.1769 8.45249 22.1769H5.5125C4.40997 22.1769 3.67506 22.9162 3.67506 24.0249C3.67506 25.1197 4.39152 25.854 5.47056 25.8726C5.48454 25.8729 5.49853 25.8731 5.51251 25.8731H7.37698L0.000158818 46.2017H0V48.4194C0 54.3332 4.59378 59.1382 10.1063 59.1382C15.6188 59.1382 20.2126 54.3332 20.2126 48.4194L20.2126 46.2017L12.5004 25.5175C15.5198 24.991 18.4579 23.8981 21.1313 22.3616C24.7431 20.2426 29.2177 19.8591 33.1418 21.3125C33.0979 21.5942 33.0752 21.8828 33.0752 22.1768C33.0752 24.0577 34.0065 25.7199 35.4307 26.7223L33.075 72.0748C32.1563 72.0748 23.7038 76.8798 23.7038 76.8798C22.7851 77.2494 22.05 78.5431 22.05 79.4671C22.05 80.3911 22.9689 81.315 23.8876 81.315H53.2878C54.2065 81.315 55.1252 80.391 55.1252 79.467C55.1252 78.543 54.3901 77.2492 53.4714 76.8797C53.4714 76.8797 45.2026 72.0746 44.1002 72.0746L41.9072 26.6035C43.2393 25.5914 44.1002 23.9852 44.1002 22.1768C44.1002 21.9056 44.0808 21.6389 44.0434 21.3781C48.0088 19.8479 52.5625 20.2111 56.2278 22.3615C58.7889 23.9561 61.593 24.9808 64.4788 25.4896L56.9628 46.2017V48.4194C56.9628 54.3332 61.5566 59.1382 67.0691 59.1382C72.5816 59.1382 77.1754 54.3332 77.1754 48.4194V46.2017L77.1753 46.2017L69.5956 25.8728H71.6629C72.7654 25.8728 73.5004 25.1335 73.5004 24.0248C73.5004 23.9914 73.4997 23.9583 73.4984 23.9256C73.4996 23.8973 73.5002 23.8688 73.5002 23.84H73.4933C73.4159 22.8347 72.7029 22.1768 71.6629 22.1768ZM59.0104 46.2017H65.0478H74.8785L67.6489 25.8425C67.1907 25.8204 66.733 25.7861 66.2766 25.7394L59.0104 46.2017ZM2.04756 46.2017H8.08503H17.9158L10.6592 25.7664C10.3564 25.7955 10.0532 25.8187 9.74978 25.8359C9.59044 25.8451 9.43103 25.8525 9.27157 25.8583L2.04756 46.2017ZM41.0969 22.1177C41.0969 23.5548 39.9319 24.7197 38.4948 24.7197C37.0577 24.7197 35.8927 23.5548 35.8927 22.1177C35.8927 20.6806 37.0577 19.5156 38.4948 19.5156C39.9319 19.5156 41.0969 20.6806 41.0969 22.1177ZM8.70097 48.789H15.7266V50.0157C15.7266 53.2868 13.0654 55.9447 9.87191 55.9447C6.67845 55.9447 4.01723 53.2868 4.01723 50.0157V48.789H8.70097ZM72.9724 48.789H65.9467H61.263V50.0157C61.263 53.2868 63.9242 55.9447 67.1177 55.9447C70.3111 55.9447 72.9724 53.2868 72.9724 50.0157V48.789Z" fill="white"/>
</svg>
