<svg width="85" height="78" viewBox="0 0 85 78" fill="none" xmlns="http://www.w3.org/2000/svg">
<path d="M14.8922 74.8928L39.7494 50.0694C42.1207 47.7012 42.8016 44.3202 41.8722 41.3293L49.5679 33.644C51.8679 35.5142 54.2531 37.0095 56.5981 38.1007C56.777 37.5682 57.0533 37.0788 57.4564 36.6763L70.3445 23.8057C70.7441 23.4066 71.2373 23.136 71.7776 22.9644C70.2002 19.5781 67.7821 16.098 64.6065 12.9268C61.3684 9.69306 57.809 7.23829 54.3537 5.66665C54.1732 6.16627 53.9124 6.6294 53.5303 7.01291L40.6423 19.8835C40.2619 20.2634 39.8084 20.541 39.3029 20.7265C40.4025 23.1309 41.9382 25.5823 43.8631 27.945L36.1674 35.6303C33.1724 34.7022 29.7868 35.3823 27.4155 37.7503L2.55491 62.5739C-0.851638 65.9758 -0.851638 71.4909 2.55491 74.8928C5.96147 78.2947 11.4857 78.2947 14.8922 74.8928Z" fill="white"/>
<path d="M58.1904 38.0295C57.9506 38.2692 57.7977 38.573 57.7039 38.9099C57.3841 40.0665 57.8984 41.6658 59.1096 42.8762C60.0582 43.8226 61.2745 44.3888 62.3658 44.3888C62.8228 44.3888 63.4692 44.2862 63.9591 43.7966L67.9451 39.8129L72.8641 34.8967L76.85 30.9131C77.3382 30.4251 77.5364 29.6785 77.4043 28.8118C77.2583 27.8463 76.7335 26.8719 75.9291 26.068C74.9805 25.1216 73.7642 24.5555 72.6747 24.5555C72.4643 24.5555 72.2125 24.5833 71.9554 24.6544C71.6531 24.7377 71.3438 24.8836 71.0796 25.1494L58.1904 38.0295Z" fill="white"/>
<path d="M11.2769 59.7833C11.0071 60.0529 10.8351 60.3947 10.7296 60.7737C10.3698 62.0749 10.9484 63.8741 12.311 65.2359C13.3782 66.3006 14.7465 66.9375 15.9742 66.9375C16.4883 66.9375 17.2155 66.8221 17.7667 66.2713L22.2509 61.7896L27.7848 56.2589L32.269 51.7773C32.8182 51.2284 33.0412 50.3884 32.8925 49.4133C32.7283 48.3272 32.1379 47.231 31.233 46.3266C30.1658 45.2619 28.7974 44.625 27.5717 44.625C27.3351 44.625 27.0518 44.6562 26.7625 44.7363C26.4225 44.83 26.0745 44.9942 25.7773 45.2931L11.2769 59.7833Z" fill="#2393ED"/>
<path d="M37.8214 19.8333C38.0577 19.8333 38.3464 19.8021 38.6383 19.7066C38.9078 19.618 39.1807 19.4757 39.4172 19.2394L52.3136 6.35703C52.5291 6.14171 52.6681 5.86913 52.7654 5.57391C53.1444 4.41226 52.6403 2.75737 51.3921 1.51241C50.443 0.566086 49.2262 0 48.1362 0C47.679 0 47.0324 0.102536 46.5422 0.592147L42.1478 4.98176L38.0385 9.08492L33.6441 13.4745C32.5802 14.539 33.0008 16.7581 34.5654 18.3209C35.5146 19.2672 36.7314 19.8333 37.8214 19.8333Z" fill="white"/>
<path d="M53.6222 67.3933C55.3877 67.2193 57.281 67.1699 59.2584 67.1699C60.1014 67.1699 60.9645 67.1758 61.8437 67.1829C63.6658 67.1974 65.5925 67.1974 67.4148 67.1829C68.2939 67.1756 69.1571 67.1699 70 67.1699C71.9774 67.1699 73.8707 67.2191 75.6362 67.3933V63.1832H53.6222V67.3933Z" fill="white"/>
<path d="M70.0003 68.6207C69.1618 68.6207 68.3029 68.6266 67.4266 68.6338C65.5958 68.6468 63.6632 68.6468 61.8338 68.6338C60.9574 68.6265 60.0986 68.6207 59.2601 68.6207C57.2072 68.6207 55.3241 68.6614 53.6239 68.8224C48.0166 69.352 44.4984 71.2439 44.259 77.7536H85.0001C84.7607 71.2439 81.2425 69.3536 75.6352 68.8226C73.9363 68.6614 72.0515 68.6207 70.0003 68.6207Z" fill="white"/>
</svg>
