<svg width="82" height="88" viewBox="0 0 82 88" fill="none" xmlns="http://www.w3.org/2000/svg">
<path fill-rule="evenodd" clip-rule="evenodd" d="M19.7849 88L19.766 88H19.7242L19.7516 87.9999C17.2533 87.982 15.2332 85.9509 15.2332 83.4483V51.5862L15.2332 33.3793H0.00012207V24.2759H15.2332L15.2332 4.55172C15.2332 2.03805 17.2712 0 19.7849 0H60.7504C64.102 0 66.8194 2.7174 66.8194 6.06897V46.8524H81.9311V55.9558H66.8194V78.8965H69.7932C72.3068 78.8965 74.3449 80.9346 74.3449 83.4482C74.3449 85.9619 72.3068 88 69.7932 88L66.8194 88H19.7849ZM61.1147 46.6146V46.8524H37.9311V43.8179L28.8277 51.4041L37.9311 58.9903V55.9558H61.1147V78.8965H24.2759V81.4907C22.473 81.3146 21.0595 79.6548 21.0595 77.6335V45.5242C21.0595 43.3856 22.8649 41.451 24.8166 41.451H56.4023C59.0047 41.451 61.1147 43.763 61.1147 46.6146ZM61.1146 34.5379C61.1146 36.7471 59.3237 38.5379 57.1146 38.5379H24.5937C22.6419 38.5379 21.0594 36.8046 21.0594 34.6669V33.3793H44.0001V36.4138L53.1036 28.8276L44.0001 21.2414V24.2759H21.0594V9.76185C21.0594 7.62407 22.8648 5.76551 24.8166 5.76551H56.4022C59.0046 5.76551 61.1146 8.07656 61.1146 10.9269V34.5379ZM30.3449 65.2414C29.507 65.2414 28.8277 65.9206 28.8277 66.7586C28.8277 67.5965 29.507 68.2758 30.3449 68.2758H57.6553C58.4932 68.2758 59.1725 67.5965 59.1725 66.7586C59.1725 65.9206 58.4932 65.2414 57.6553 65.2414H30.3449ZM28.8277 72.8276C28.8277 71.9896 29.507 71.3103 30.3449 71.3103H57.6553C58.4932 71.3103 59.1725 71.9896 59.1725 72.8276C59.1725 73.6655 58.4932 74.3448 57.6553 74.3448H30.3449C29.507 74.3448 28.8277 73.6655 28.8277 72.8276ZM51.5863 59.1724C50.7483 59.1724 50.0691 59.8517 50.0691 60.6896C50.0691 61.5276 50.7483 62.2069 51.5863 62.2069H57.6553C58.4932 62.2069 59.1725 61.5276 59.1725 60.6896C59.1725 59.8517 58.4932 59.1724 57.6553 59.1724H51.5863ZM25.7325 11.2276C24.8945 11.2276 24.2152 11.9069 24.2152 12.7448C24.2152 13.5828 24.8945 14.2621 25.7325 14.2621H37.8704C38.7084 14.2621 39.3877 13.5828 39.3877 12.7448C39.3877 11.9069 38.7084 11.2276 37.8704 11.2276H25.7325ZM25.7325 17.2965C24.8945 17.2965 24.2152 17.9758 24.2152 18.8138C24.2152 19.6517 24.8945 20.331 25.7325 20.331H37.8704C38.7084 20.331 39.3877 19.6517 39.3877 18.8138C39.3877 17.9758 38.7084 17.2965 37.8704 17.2965H25.7325Z" fill="white"/>
</svg>
