<svg width="56" height="80" viewBox="0 0 56 80" fill="none" xmlns="http://www.w3.org/2000/svg">
<path fill-rule="evenodd" clip-rule="evenodd" d="M33.5203 4.50427C33.8467 5.6362 34.671 6.55676 35.7591 7.00578L38.4483 8.08144C39.2583 8.40417 39.8319 9.11952 39.984 9.95757H50.0303C52.7932 9.95757 55.0333 12.1977 55.0333 14.9606V74.997C55.0333 77.7599 52.7932 80 50.0303 80H5.00303C2.24011 80 0 77.7599 0 74.997V14.9606C0 12.1977 2.24011 9.95757 5.00303 9.95757H15.0492C15.2014 9.11952 15.775 8.40417 16.585 8.08144L19.2741 7.00578C20.3623 6.55676 21.1866 5.6362 21.513 4.50427C22.1109 2.45303 23.7143 0.849554 25.7656 0.251692C29.0813 -0.715144 32.5534 1.18851 33.5203 4.50427ZM25.0151 6.2053C25.0151 7.58739 26.1346 8.70682 27.5166 8.70682C28.8987 8.70682 30.0182 7.58739 30.0182 6.2053C30.0182 4.82321 28.8987 3.70378 27.5166 3.70378C26.1346 3.70378 25.0151 4.82321 25.0151 6.2053ZM6.82052 12.7591H48.2129C50.7528 12.7591 52.8121 14.8277 52.8121 17.3791V72.8185C52.8121 75.3699 50.7528 77.4385 48.2129 77.4385H6.82052C4.28063 77.4385 2.22136 75.3699 2.22136 72.8185V17.3791C2.22136 14.8277 4.28063 12.7591 6.82052 12.7591ZM5.00304 73.7462C5.00304 74.4366 5.56338 74.997 6.2538 74.997H36.272L36.272 62.4894C36.272 61.799 36.8323 61.2387 37.5227 61.2387L50.0303 61.2386V16.2114C50.0303 15.5209 49.47 14.9606 48.7796 14.9606H6.2538C5.56338 14.9606 5.00304 15.5209 5.00304 16.2114V73.7462ZM13.133 44.9788H41.9004C42.936 44.9788 43.7765 45.8193 43.7765 46.8549C43.7765 47.8906 42.936 48.7311 41.9004 48.7311H13.133C12.0973 48.7311 11.2568 47.8906 11.2568 46.8549C11.2568 45.8193 12.0973 44.9788 13.133 44.9788ZM41.9004 52.4833H13.133C12.0973 52.4833 11.2568 53.3239 11.2568 54.3595C11.2568 55.3951 12.0973 56.2356 13.133 56.2356H41.9004C42.936 56.2356 43.7765 55.3951 43.7765 54.3595C43.7765 53.3239 42.936 52.4833 41.9004 52.4833ZM13.133 59.9879H29.3928C30.4284 59.9879 31.269 60.8284 31.269 61.864C31.269 62.8997 30.4284 63.7402 29.3928 63.7402H13.133C12.0973 63.7402 11.2568 62.8997 11.2568 61.864C11.2568 60.8284 12.0973 59.9879 13.133 59.9879ZM20.0121 41.2265H35.0212C35.7116 41.2265 36.2719 40.6662 36.2719 39.9758V35.473C36.2719 34.7826 35.7116 34.2223 35.0212 34.2223C34.3308 34.2223 33.7704 34.7826 33.7704 35.473V38.725H21.2629V26.2174H32.0194C32.7098 26.2174 33.2701 25.6571 33.2701 24.9667C33.2701 24.2763 32.7098 23.7159 32.0194 23.7159H20.0121C19.3217 23.7159 18.7613 24.2763 18.7613 24.9667V39.9758C18.7613 40.6662 19.3217 41.2265 20.0121 41.2265ZM28.1421 35.5981C27.8093 35.6006 27.4904 35.4693 27.254 35.2354L24.1271 32.1085C23.6781 31.5844 23.7394 30.794 24.2635 30.3449C24.7312 29.9434 25.4229 29.9434 25.8907 30.3449L28.2046 32.6588L35.459 26.5176C35.9868 26.0723 36.7773 26.1399 37.2225 26.6677C37.6678 27.1955 37.6003 27.986 37.0725 28.4313L28.9425 35.3104C28.7174 35.4968 28.4347 35.5994 28.1421 35.5981Z" fill="white"/>
</svg>
