<svg width="81" height="73" viewBox="0 0 81 73" fill="none" xmlns="http://www.w3.org/2000/svg">
<path fill-rule="evenodd" clip-rule="evenodd" d="M38.6465 40.9824V12.8069C47.6114 12.8069 61.6992 8.9649 71.9447 0V53.7894C61.6992 44.8245 47.6114 40.9824 38.6465 40.9824ZM48.4906 35.7752V19.1806C53.7126 19.1806 61.9188 16.9178 67.8868 11.6377V43.3182C61.9188 38.0381 53.7126 35.7752 48.4906 35.7752ZM2.56138 35.8597H3.84214V17.9298H2.56138C1.14671 17.9298 0 19.0766 0 20.4912V33.2983C0 34.7129 1.14671 35.8597 2.56138 35.8597ZM74.4138 33.2982L78.7582 32.4292C79.9556 32.19 80.8174 31.1386 80.8174 29.9176V23.8717C80.8174 22.6507 79.9556 21.5996 78.7582 21.3602L74.4138 20.4912V33.2982ZM36.8317 69.4092C36.9516 70.0078 37.4773 70.4386 38.0877 70.4386C38.7951 70.4386 39.3685 71.012 39.3685 71.7193C39.3685 72.4265 38.795 73 38.0877 73H26.6122C24.7807 73 23.2038 71.7074 22.8446 69.9114L18.0916 46.1465L12.1468 47.1373C11.3662 47.2674 10.6555 46.6655 10.6555 45.8741V40.9824H17.0588H31.1467H33.7082V42.4589C33.7082 43.085 33.2557 43.6192 32.6379 43.7221L31.725 43.8742L36.8317 69.4092ZM10.6554 40.9824H36.2694H36.2695V12.8071H10.6554C7.82624 12.8071 5.53267 15.1006 5.53267 17.9298V35.8596C5.53267 38.6888 7.82624 40.9824 10.6554 40.9824Z" fill="white"/>
</svg>
