<svg width="80" height="59" viewBox="0 0 80 59" fill="none" xmlns="http://www.w3.org/2000/svg">
<path fill-rule="evenodd" clip-rule="evenodd" d="M54.1936 2.58062V13.39C54.1936 14.7767 53.97 16.1545 53.5313 17.4703L53.1017 18.7589C52.9702 19.1536 52.9031 19.5669 52.9031 19.983V20.6451H52.9028V21.9355C52.9031 26.1568 50.8761 29.9047 47.7422 32.2588V37.8864C48.3169 37.7494 48.9378 38.023 49.2064 38.589L50.3209 40.9377L57.3885 43.5078L63.225 41.8401V38.9638C60.9114 37.625 59.3549 35.1233 59.3549 32.2581V30.9679L58.5942 28.6858C58.2434 27.6333 58.0645 26.5311 58.0645 25.4216V24.5161C58.0645 22.4844 59.6296 20.8185 61.6198 20.6577C62.3289 19.8586 63.3637 19.355 64.5161 19.355H73.5483C74.9736 19.355 76.1289 20.5105 76.1289 21.9356V24.3609C76.1291 25.3198 75.9953 26.2742 75.7319 27.1966L74.8273 30.3627C74.835 30.446 74.8388 30.5298 74.8388 30.6139V32.2581C74.8388 35.1238 73.2818 37.6258 70.9677 38.9644V41.3225L70.9669 41.3228V41.8403L70.9673 41.84L77.1923 43.6184C78.8542 44.0933 80 45.612 80 47.3405V56.7742C80 57.4869 79.4223 58.0645 78.7097 58.0645H55.4839C55.4809 58.0645 55.4779 58.0645 55.4749 58.0645H19.3548C19.3484 58.0645 19.342 58.0645 19.3356 58.0644H1.29031C1.11215 58.0644 0.942422 58.0282 0.788049 57.9629C0.324932 57.767 0 57.3084 0 56.7741V49.1487C0 49.1144 0.000454989 49.0801 0.00136052 49.0459C0.0390911 47.6202 0.859017 46.327 2.13969 45.6867L3.49209 45.0105L5.11453 44.1992L5.11457 44.1993L6.31531 43.5989C6.62171 43.4457 6.88853 43.2365 7.10591 42.9873C4.3894 42.5242 2.16789 41.5959 1.08012 41.103C0.445899 40.8155 0.16543 40.1053 0.408399 39.4612C1.51106 36.5397 2.38559 31.5172 2.57449 28.9025C2.93387 23.9267 6.68371 19.8703 11.7528 19.8703C14.9209 19.8703 17.5738 21.4548 19.2056 23.858C19.2872 23.9781 19.3663 24.1003 19.4427 24.2245C20.2834 25.5902 20.8076 27.1921 20.9311 28.9027L20.9341 28.9444L20.9404 29.0268C20.9536 29.1954 20.9694 29.3731 20.9878 29.559C21.2583 32.2911 22.0808 36.7685 23.0972 39.4612C23.1916 39.7116 23.2069 39.9719 23.1532 40.2136C23.0687 40.5936 22.8131 40.9274 22.4255 41.1031C21.3087 41.6091 18.9712 42.5784 16.1551 43.0271C16.3658 43.2589 16.6204 43.4541 16.9103 43.5991L18.1112 44.1994L18.1112 44.1994L19.7092 44.9983C20.2055 44.5361 20.7976 44.1675 21.462 43.9259L29.679 40.9379L30.7936 38.5891C31.0622 38.023 31.6831 37.7494 32.2578 37.8864V32.2588C29.1239 29.9047 27.0967 26.1568 27.0967 21.9355V20.4237L27.0967 20.4206V19.983C27.0967 19.5669 27.0297 19.1536 26.8981 18.7589L26.4686 17.4703C26.03 16.1547 25.8064 14.7769 25.8064 13.39V10.3227C25.8064 4.62156 30.4281 0 36.1291 0H51.613C53.0381 0 54.1936 1.15531 54.1936 2.58062ZM29.4401 22.0508C29.4401 27.8506 34.1681 32.5523 40.0003 32.5523C45.8325 32.5523 50.5605 27.8506 50.5601 22.0508V20.8205C50.5601 20.2634 50.3376 19.7292 49.9415 19.3353L49.0667 18.4654C48.6707 18.0714 48.4482 17.5372 48.4482 16.9802V16.4223C48.4482 15.9984 48.2583 15.5857 47.9148 15.3346C42.6257 11.4662 34.8537 12.8557 32.3562 13.4423C31.8803 13.5541 31.552 13.9765 31.552 14.4628V16.9802C31.552 17.5373 31.3295 18.0715 30.9334 18.4654L30.0586 19.3353C29.6626 19.7293 29.4401 20.2635 29.4401 20.8205V22.0508ZM37.7422 46.0308C37.7422 46.4735 38.0606 46.8418 38.481 46.9191L37.4195 58.0644H42.5808L41.5193 46.9191C41.9396 46.8418 42.2581 46.4734 42.2579 46.0308V42.5806H37.7422V46.0308ZM60.8 32.3123C60.8 35.9794 63.6653 38.9523 67.1999 38.9523C70.7346 38.9523 73.6 35.9795 73.6 32.3123V30.9021C73.6 30.3164 73.3892 29.7439 72.9853 29.3346C71.3354 27.6628 68.3173 26.905 64.9076 26.7934C64.3287 26.7745 63.7686 27.0188 63.359 27.4437L61.4248 29.4506C61.0247 29.8657 60.8 30.4287 60.8 31.0157V32.3123ZM3.93536 33.2601C4.42677 37.0625 7.67677 40 11.613 40C15.6825 40 19.0186 36.86 19.3313 32.8709C19.3622 32.4747 19.1886 32.0926 18.8874 31.8336C17.7652 30.8686 14.6722 28.505 10.1291 27.3462C9.54067 27.1961 8.93692 27.5058 8.67427 28.0533C8.36927 28.689 7.82927 29.5551 6.9088 30.3764C6.08224 31.1139 5.21896 31.6192 4.62489 31.9189C4.12896 32.169 3.86411 32.7092 3.93536 33.2601Z" fill="white"/>
</svg>
