<svg width="67" height="97" viewBox="0 0 67 97" fill="none" xmlns="http://www.w3.org/2000/svg">
<path d="M46.9843 80.3282C50.6219 76.6906 51.8343 71.8407 51.5313 66.6875C46.3782 66.0813 41.5282 67.5969 37.8906 71.2345C34.253 74.8721 33.0407 79.722 33.3436 84.8752C38.4968 85.1782 43.3467 83.6626 46.9843 80.3282Z" fill="white"/>
<path d="M36.3752 60.625H30.3126V96.9999H36.3752V60.625Z" fill="white"/>
<path d="M19.703 86.3905C16.0654 82.7529 14.853 77.9029 15.156 72.7498C20.3092 72.1436 25.1591 73.6592 28.7967 77.2967C32.4343 80.9343 33.6467 85.7843 33.3437 90.9375C28.1905 91.2407 23.3406 89.7248 19.703 86.3905Z" fill="white"/>
<path fill-rule="evenodd" clip-rule="evenodd" d="M66.6874 33.3437C66.6874 51.7589 51.759 66.6874 33.3437 66.6874C14.9285 66.6874 0 51.7589 0 33.3437C0 14.9285 14.9285 0 33.3437 0C51.759 0 66.6874 14.9285 66.6874 33.3437ZM60.6249 33.3437C60.6249 48.4107 48.4107 60.6249 33.3438 60.6249C18.2768 60.6249 6.06262 48.4107 6.06262 33.3437C6.06262 18.2767 18.2768 6.06256 33.3438 6.06256C48.4107 6.06256 60.6249 18.2767 60.6249 33.3437Z" fill="white"/>
<path fill-rule="evenodd" clip-rule="evenodd" d="M33.5 57C46.4787 57 57 46.4787 57 33.5C57 20.5213 46.4787 10 33.5 10C20.5213 10 10 20.5213 10 33.5C10 46.4787 20.5213 57 33.5 57ZM29.9336 40H34.3867L29.4941 33.8184C30.334 33.4082 31.0046 32.8581 31.5059 32.168C32.0072 31.4714 32.2578 30.5664 32.2578 29.4531C32.2578 28.6654 32.1048 28.0176 31.7988 27.5098C31.4928 26.9954 31.0794 26.5723 30.5586 26.2402C30.0508 25.9212 29.4974 25.7129 28.8984 25.6152C28.2995 25.5111 27.5964 25.459 26.7891 25.459H20.9395V40H24.5723V34.668H25.8809L29.9336 40ZM28.293 28.9746C28.4362 29.235 28.5078 29.5475 28.5078 29.9121C28.5078 30.3223 28.4492 30.6543 28.332 30.9082C28.2214 31.1621 28.0488 31.3802 27.8145 31.5625C27.5671 31.7643 27.2643 31.8978 26.9062 31.9629C26.5547 32.0215 26.125 32.0508 25.6172 32.0508H24.5723V28.1348H25.793C26.2096 28.1348 26.5579 28.1478 26.8379 28.1738C27.1178 28.1999 27.3717 28.2617 27.5996 28.3594C27.9251 28.5026 28.1562 28.7077 28.293 28.9746ZM44.6895 38.6035C45.5814 37.5293 46.0273 36.1165 46.0273 34.3652C46.0273 32.627 45.679 31.2533 44.9824 30.2441C44.2858 29.235 43.3027 28.7305 42.0332 28.7305C41.3496 28.7305 40.7474 28.8639 40.2266 29.1309C39.7057 29.3978 39.1947 29.7461 38.6934 30.1758V29.0332H35.2754V44.0234H38.6934V39.4531C39.1491 39.7135 39.5788 39.9056 39.9824 40.0293C40.3861 40.153 40.8613 40.2148 41.4082 40.2148C42.7103 40.2148 43.804 39.6777 44.6895 38.6035ZM42.0332 32.1094C42.3652 32.5911 42.5312 33.3659 42.5312 34.4336C42.5312 35.5273 42.3294 36.3477 41.9258 36.8945C41.5221 37.4349 40.9036 37.7051 40.0703 37.7051C39.7708 37.7051 39.5104 37.6888 39.2891 37.6562C39.0742 37.6237 38.8757 37.5684 38.6934 37.4902V31.9727C38.9863 31.7773 39.2826 31.6309 39.582 31.5332C39.888 31.4355 40.194 31.3867 40.5 31.3867C41.1966 31.3867 41.7077 31.6276 42.0332 32.1094Z" fill="white"/>
</svg>
