<svg width="40" height="34" viewBox="0 0 40 34" fill="none" xmlns="http://www.w3.org/2000/svg">
<path d="M39.2245 18.8202C39.98 18.0641 39.9795 16.9303 39.2233 16.1748L35.8206 12.7751C35.0644 12.0197 33.9307 12.0202 33.1752 12.7763L19.0098 26.9544L19.0125 33.001L25.0591 32.9983L39.2245 18.8202ZM34.4985 14.0984L37.9012 17.4981L35.0681 20.3337L31.6654 16.934L34.4985 14.0984ZM20.9012 31.1106L20.8997 27.7094L30.3433 18.2573L33.746 21.657L24.3024 31.1091L20.9012 31.1106Z" fill="#5CC5CD"/>
<path fill-rule="evenodd" clip-rule="evenodd" d="M27.5238 16.1905V16.9059V18.7132V19.6169C27.5238 20.1013 27.5161 20.2405 27.5112 20.3305C27.5052 20.4399 27.5032 20.4765 27.5238 20.9724V21.0327L20.8995 27.3315L20.9012 31.1106L24.2079 31.1091L27.5238 27.7902V30.7619C27.5238 31.6207 27.1826 32.4444 26.5754 33.0516C25.9681 33.6589 25.1445 34 24.2857 34H18.1333V31.5715C18.1333 29.1429 16.1905 27.2 13.7619 27.2C11.3333 27.2 9.39048 29.1429 9.39048 31.5715V34H3.23809C2.3793 34 1.55568 33.6589 0.948416 33.0516C0.341155 32.4444 0 31.6207 0 30.7619V24.6096H2.42857C4.85714 24.6096 6.8 22.6667 6.8 20.2381C6.8 17.8096 4.85714 15.8667 2.42857 15.8667H0V9.71432C0 8.85552 0.341155 8.0319 0.948416 7.42464C1.55568 6.81738 2.3793 6.47622 3.23809 6.47622H9.71428V4.04765C9.71428 2.97415 10.1407 1.94463 10.8998 1.18555C11.6589 0.426475 12.6884 3.05176e-05 13.7619 3.05176e-05C14.8354 3.05176e-05 15.8649 0.426475 16.624 1.18555C17.3831 1.94463 17.8095 2.97415 17.8095 4.04765V6.47622H24.2857C25.1445 6.47622 25.9681 6.81738 26.5754 7.42464C27.1826 8.0319 27.5238 8.85552 27.5238 9.71432V16.1905Z" fill="#5CC5CD"/>
</svg>
