<svg width="34" height="34" viewBox="0 0 34 34" fill="none" xmlns="http://www.w3.org/2000/svg">
<path d="M2.125 34H25.5C26.0977 34 26.6012 33.7954 27.0107 33.3863C27.4202 32.9772 27.625 32.4741 27.625 31.8771V29.1902C29.5065 28.5047 31.0394 27.3437 32.2236 25.7073C33.4079 24.0709 34 22.2244 34 20.1678C34 18.1112 33.4079 16.2647 32.2236 14.6283C31.0394 12.9919 29.5065 11.842 27.625 11.1785V2.1561C27.625 1.58114 27.4202 1.08358 27.0107 0.663415C26.6012 0.243252 26.0977 0.0331707 25.5 0.0331707H12.75V11.7093C12.75 11.9967 12.6449 12.2455 12.4346 12.4556C12.2243 12.6657 11.9753 12.7707 11.6875 12.7707H0.0332031L0 12.8039V31.8771C0 32.452 0.210285 32.9496 0.630859 33.3698C1.05143 33.7899 1.54948 34 2.125 34ZM13.0156 28.8585L18.0293 23.8829C17.3431 22.7109 17 21.4725 17 20.1678C17 18.1333 17.7249 16.3863 19.1748 14.9268C20.6247 13.4673 22.3789 12.7376 24.4375 12.7376C26.4961 12.7376 28.2503 13.4618 29.7002 14.9102C31.1501 16.3587 31.875 18.1112 31.875 20.1678C31.875 22.2244 31.1501 23.9769 29.7002 25.4254C28.2503 26.8738 26.4961 27.598 24.4375 27.598C23.1536 27.598 21.9141 27.2553 20.7188 26.5698L15.7383 31.5785C15.5612 31.7554 15.3398 31.8439 15.0742 31.8439C14.8086 31.8439 14.5762 31.7554 14.377 31.5785L13.0156 30.2185C12.8385 30.0416 12.75 29.8205 12.75 29.5551C12.75 29.2898 12.8385 29.0576 13.0156 28.8585ZM24.4375 25.4751C25.8984 25.4751 27.1491 24.961 28.1895 23.9327C29.2298 22.9044 29.75 21.655 29.75 20.1844C29.75 18.7138 29.2298 17.4589 28.1895 16.4195C27.1491 15.3802 25.8984 14.8605 24.4375 14.8605C22.9766 14.8605 21.7259 15.3802 20.6855 16.4195C19.6452 17.4589 19.125 18.7138 19.125 20.1844C19.125 21.655 19.6452 22.9044 20.6855 23.9327C21.7259 24.961 22.9766 25.4751 24.4375 25.4751ZM10.625 0C10.0495 0.0221138 9.5625 0.232195 9.16406 0.630244L0.630859 9.15512C0.210285 9.57528 0.0110664 10.0728 0.0332031 10.6478H10.625V0Z" fill="#5CC5CD"/>
</svg>
