<svg width="33" height="34" viewBox="0 0 33 34" fill="none" xmlns="http://www.w3.org/2000/svg">
<path d="M10.5858 22L10.5857 22C9.80477 22.7811 9.80472 24.0474 10.5858 24.8284L17.0857 31.3284C17.8668 32.1095 19.1331 32.1095 19.9142 31.3285L19.9142 31.3285L31.4142 19.8284L31.4143 19.8284C32.1952 19.0473 32.1953 17.781 31.4142 17L30.0001 15.5858L30 15.5858C29.219 14.8047 27.9526 14.8047 27.1716 15.5858L18.5 24.2574L14.8284 20.5858C14.8284 20.5858 14.8284 20.5858 14.8284 20.5858C14.0474 19.8047 12.781 19.8047 11.9999 20.5858C11.9999 20.5858 11.9999 20.5858 11.9999 20.5858L10.5858 22Z" stroke="#616161" stroke-width="2"/>
<path d="M10.5858 22L10.5857 22C9.80477 22.7811 9.80472 24.0474 10.5858 24.8284L17.0857 31.3284C17.8668 32.1095 19.1331 32.1095 19.9142 31.3285L19.9142 31.3285L31.4142 19.8284L31.4143 19.8284C32.1952 19.0473 32.1953 17.781 31.4142 17L30.0001 15.5858L30 15.5858C29.219 14.8047 27.9526 14.8047 27.1716 15.5858L18.5 24.2574L14.8284 20.5858C14.8284 20.5858 14.8284 20.5858 14.8284 20.5858C14.0474 19.8047 12.781 19.8047 11.9999 20.5858C11.9999 20.5858 11.9999 20.5858 11.9999 20.5858L10.5858 22Z" stroke="#5CC5CD" stroke-width="2"/>
<path fill-rule="evenodd" clip-rule="evenodd" d="M17 4.25H22.3125C24.0723 4.25 25.5 5.67773 25.5 7.4375V18.6716L18.5 25.6716L14.1213 21.2929C13.7308 20.9023 13.0976 20.9023 12.7071 21.2929L11.2929 22.7071C10.9024 23.0977 10.9024 23.7308 11.2929 24.1213L17.7929 30.6213C18.1834 31.0119 18.8166 31.0119 19.2071 30.6214L25.5 24.3285V30.8125C25.5 32.5723 24.0723 34 22.3125 34H3.1875C1.42773 34 0 32.5723 0 30.8125V7.4375C0 5.67773 1.42773 4.25 3.1875 4.25H8.5C8.5 1.90586 10.4059 0 12.75 0C15.0941 0 17 1.90586 17 4.25ZM14.3438 4.25C14.3438 3.3668 13.6332 2.65625 12.75 2.65625C11.8668 2.65625 11.1563 3.3668 11.1563 4.25C11.1563 5.1332 11.8668 5.84375 12.75 5.84375C13.6332 5.84375 14.3438 5.1332 14.3438 4.25Z" fill="#5CC5CD"/>
</svg>
