<svg width="75" height="62" viewBox="0 0 75 62" fill="none" xmlns="http://www.w3.org/2000/svg">
<rect x="0.5" y="9.5" width="74" height="52" stroke="white"/>
<path d="M5 0.5H70C72.4853 0.5 74.5 2.51472 74.5 5V9.5H0.5V5C0.5 2.51472 2.51472 0.5 5 0.5Z" stroke="white"/>
<rect x="66" y="3" width="4" height="4" fill="#B1B1B1"/>
<rect x="60" y="3" width="4" height="4" fill="#D1D1D1"/>
<rect x="54" y="3" width="4" height="4" fill="#F1F1F1"/>
<path d="M5 49H70V57H5V49Z" fill="#B1B1B1"/>
<path d="M28 14H47V22H28V14Z" fill="#B1B1B1"/>
<path d="M5 14H24V22H5V14Z" fill="#F1F1F1"/>
<path d="M70 14V22H51V14H70Z" fill="#F1F1F1"/>
<path d="M5 26H70V45H5V26Z" fill="#D1D1D1"/>
</svg>
