<svg width="30" height="31" viewBox="0 0 30 31" fill="none" xmlns="http://www.w3.org/2000/svg">
<line x1="23.7729" y1="27.7566" x2="27.7585" y2="27.7566" stroke="white" stroke-width="0.35"/>
<line x1="25.6856" y1="27.7417" x2="25.6856" y2="4.01843" stroke="white" stroke-width="0.35"/>
<line x1="23.7729" y1="4.03301" x2="27.7585" y2="4.03301" stroke="white" stroke-width="0.35"/>
<rect x="22.6195" y="19.7561" width="6.29252" height="5.34358" fill="#D8D8D8" stroke="white" stroke-width="0.35"/>
<rect x="22.6195" y="15.0114" width="6.29252" height="8.00059" fill="#D8D8D8" stroke="white" stroke-width="0.35"/>
<line x1="12.7729" y1="30.6028" x2="16.7585" y2="30.6028" stroke="white" stroke-width="0.35"/>
<line x1="14.6856" y1="30.5879" x2="14.6856" y2="0.222107" stroke="white" stroke-width="0.35"/>
<line x1="12.7729" y1="0.237109" x2="16.7585" y2="0.237109" stroke="white" stroke-width="0.35"/>
<rect x="11.6195" y="19.945" width="6.29252" height="6.86187" fill="#9F9F9F" stroke="white" stroke-width="0.35"/>
<rect x="11.6195" y="10.4562" width="6.29252" height="9.51888" fill="#9F9F9F" stroke="white" stroke-width="0.35"/>
<line x1="1.77295" y1="29.0848" x2="5.75846" y2="29.0848" stroke="white" stroke-width="0.35"/>
<line x1="3.6856" y1="29.0698" x2="3.68559" y2="2.49976" stroke="white" stroke-width="0.35"/>
<line x1="1.77295" y1="2.51445" x2="5.75846" y2="2.51445" stroke="white" stroke-width="0.35"/>
<rect x="0.619458" y="19.9455" width="6.29252" height="5.34358" fill="#C4C4C4" stroke="white" stroke-width="0.35"/>
<rect x="0.619458" y="12.3542" width="6.29252" height="7.43123" fill="#C4C4C4" stroke="white" stroke-width="0.35"/>
</svg>
