<svg width="31" height="29" viewBox="0 0 31 29" fill="none" xmlns="http://www.w3.org/2000/svg">
<path d="M5.67851 24.2813C8.69197 24.2813 11.1349 21.8385 11.1349 18.825C11.1349 15.8115 8.69197 13.3687 5.67851 13.3687C2.66506 13.3687 0.222168 15.8115 0.222168 18.825C0.222168 21.8385 2.66506 24.2813 5.67851 24.2813Z" fill="#9F9F9F"/>
<path d="M18.6373 28.3727C20.5207 28.3727 22.0475 26.8459 22.0475 24.9625C22.0475 23.0791 20.5207 21.5522 18.6373 21.5522C16.7539 21.5522 15.2271 23.0791 15.2271 24.9625C15.2271 26.8459 16.7539 28.3727 18.6373 28.3727Z" fill="white"/>
<path d="M22.5932 16.369C27.1134 16.369 30.7777 12.7047 30.7777 8.18452C30.7777 3.66433 27.1134 0 22.5932 0C18.073 0 14.4087 3.66433 14.4087 8.18452C14.4087 12.7047 18.073 16.369 22.5932 16.369Z" fill="#C4C4C4"/>
</svg>
