<svg width="31" height="28" viewBox="0 0 31 28" fill="none" xmlns="http://www.w3.org/2000/svg">
<path fill-rule="evenodd" clip-rule="evenodd" d="M25.4989 21.2362L25.7691 20.8839L27.7542 18.296C28.0622 18.4327 28.4173 18.4689 28.7681 18.375C29.5831 18.1568 30.067 17.3193 29.8488 16.5043C29.6307 15.6893 28.7931 15.2054 27.9781 15.4236C27.1631 15.6417 26.6792 16.4793 26.8974 17.2943C26.9273 17.406 26.9688 17.5115 27.0203 17.6098L25.2459 19.9231L20.4918 17.1009L20.4237 17.0605L20.3464 17.0431L15.8597 16.0323L15.5148 15.9546L15.3266 16.2538L12.1609 21.287L9.4068 20.7907L9.19488 20.7525L9.02153 20.8802L4.76661 24.0152C4.39337 23.6389 3.83451 23.4676 3.28585 23.6145C2.47084 23.8326 1.98699 24.6702 2.20514 25.4852C2.42329 26.3002 3.26084 26.7841 4.07585 26.5659C4.81021 26.3694 5.27571 25.6699 5.20106 24.9372L9.44135 21.813L12.3158 22.331L12.648 22.3909L12.8277 22.1052L15.9849 17.0855L20.0494 18.0012L25.1172 21.0096L25.4989 21.2362Z" fill="#9F9F9F"/>
<path fill-rule="evenodd" clip-rule="evenodd" d="M5.50151 6.91222L5.23131 7.26447L3.24619 9.85238C2.9382 9.71569 2.58318 9.67951 2.23232 9.77342C1.41731 9.99157 0.933459 10.8291 1.15161 11.6441C1.36976 12.4591 2.20731 12.943 3.02232 12.7248C3.83733 12.5067 4.32119 11.6691 4.10304 10.8541C4.07314 10.7424 4.03161 10.637 3.98009 10.5387L5.75456 8.22536L10.5087 11.0475L10.5768 11.0879L10.654 11.1054L15.1407 12.1162L15.4856 12.1939L15.6738 11.8946L18.8395 6.8614L21.5936 7.35776L21.8056 7.39595L21.9789 7.26822L26.2338 4.13327C26.607 4.50952 27.1659 4.68078 27.7145 4.53393C28.5295 4.31577 29.0134 3.47823 28.7952 2.66322C28.5771 1.8482 27.7395 1.36435 26.9245 1.5825C26.1901 1.77907 25.7246 2.47853 25.7993 3.21127L21.5591 6.33542L18.6846 5.81739L18.3524 5.75752L18.1727 6.04326L15.0156 11.0629L10.951 10.1472L5.88327 7.13884L5.50151 6.91222Z" fill="#F1F1F1"/>
</svg>
