<svg width="31" height="28" viewBox="0 0 31 28" fill="none" xmlns="http://www.w3.org/2000/svg">
<rect x="0.222168" y="0.666504" width="30.5556" height="7.33333" rx="1" fill="#9F9F9F"/>
<path d="M23.4443 0.666504H29.7777C30.33 0.666504 30.7777 1.11422 30.7777 1.6665V6.99984C30.7777 7.55212 30.33 7.99984 29.7777 7.99984H23.4443V0.666504Z" fill="#D8D8D8"/>
<rect x="0.222168" y="9.22217" width="23.2222" height="18.3333" rx="1" fill="white"/>
<rect x="2.66663" y="11.6665" width="18.3333" height="3.66667" rx="1" fill="#D8D8D8"/>
<rect x="2.66663" y="16.5557" width="18.3333" height="3.66667" rx="1" fill="#D8D8D8"/>
<rect x="2.66663" y="21.4443" width="18.3333" height="3.66667" rx="1" fill="#D8D8D8"/>
<path d="M29.3915 3.11133H24.8306C24.6938 3.11133 24.6174 3.23125 24.7021 3.31312L26.9826 5.50864C27.0479 5.57148 27.1736 5.57148 27.2395 5.50864L29.52 3.31312C29.6047 3.23125 29.5283 3.11133 29.3915 3.11133Z" fill="#9F9F9F"/>
</svg>
