<svg width="35" height="25" viewBox="0 0 35 25" fill="none" xmlns="http://www.w3.org/2000/svg">
<path d="M9.74895 8.59272C9.75607 8.48259 9.71907 8.37403 9.64621 8.29114L6.34847 4.53937C6.27561 4.45648 6.17277 4.40592 6.06252 4.3988C5.95183 4.39174 5.84383 4.42868 5.76094 4.50154C4.24563 5.83352 2.98784 7.40438 2.02234 9.17044C1.96943 9.26735 1.95705 9.38129 1.9881 9.48716C2.01914 9.59309 2.091 9.68237 2.1879 9.73528L6.57097 12.1311C6.63436 12.1658 6.70279 12.1822 6.77033 12.1822C6.91756 12.1822 7.06031 12.1039 7.13592 11.9656C7.77406 10.7982 8.60595 9.75966 9.60833 8.87856C9.69139 8.80581 9.74194 8.70296 9.74895 8.59272Z" fill="#9F9F9F"/>
<path d="M11.5251 7.41533C11.5998 7.55628 11.744 7.6366 11.8932 7.6366C11.959 7.6366 12.0257 7.62096 12.0878 7.58801C13.2626 6.96494 14.5265 6.55839 15.8443 6.3796C16.0721 6.34872 16.2317 6.13899 16.2009 5.91117L15.5295 0.961413C15.4986 0.733642 15.2883 0.574191 15.061 0.604849C13.0598 0.876279 11.1407 1.49357 9.35714 2.43957C9.15408 2.54729 9.0768 2.79916 9.1844 3.00233L11.5251 7.41533Z" fill="#C4C4C4"/>
<path d="M6.16259 14.1135L1.34168 12.8055C1.23514 12.7767 1.12148 12.7912 1.02569 12.8461C0.929911 12.901 0.85991 12.9917 0.830934 13.0983C0.434745 14.5591 0.233765 16.0731 0.233765 17.5983C0.233765 17.8593 0.239986 18.1212 0.252932 18.3989C0.263301 18.622 0.4473 18.7959 0.668457 18.7959C0.674958 18.7959 0.681572 18.7957 0.688073 18.7954L5.6779 18.5649C5.78814 18.5598 5.892 18.5111 5.96626 18.4295C6.04063 18.348 6.07958 18.2401 6.07443 18.1299C6.06574 17.9426 6.06153 17.7687 6.06153 17.5983C6.06153 16.5884 6.19408 15.5878 6.45548 14.6242C6.51551 14.4024 6.38442 14.1737 6.16259 14.1135Z" fill="#9F9F9F"/>
<path d="M24.8228 2.14226C23.0063 1.26654 21.0655 0.72385 19.0543 0.528922C18.9438 0.517825 18.8347 0.551789 18.7495 0.621902C18.6642 0.692072 18.6104 0.793179 18.5998 0.903141L18.1182 5.87509C18.096 6.10387 18.2636 6.30737 18.4924 6.32951C19.818 6.45791 21.0965 6.81537 22.2923 7.39181C22.3492 7.41927 22.411 7.43317 22.4731 7.43317C22.5194 7.43317 22.5658 7.42538 22.6104 7.40985C22.7146 7.37348 22.8001 7.29709 22.848 7.19766L25.017 2.6979C25.1169 2.49087 25.03 2.24202 24.8228 2.14226Z" fill="#C4C4C4"/>
<path d="M32.1599 9.12496C32.1868 9.01785 32.1702 8.90458 32.1135 8.80975C31.0805 7.08158 29.7633 5.56004 28.1988 4.28763C28.1131 4.21802 28.0038 4.1854 27.8935 4.19644C27.7837 4.20782 27.6829 4.26224 27.6133 4.34788L24.4615 8.22312C24.3918 8.30882 24.359 8.41861 24.3704 8.5284C24.3816 8.6382 24.4361 8.73902 24.5218 8.80875C25.557 9.6505 26.4282 10.6569 27.1114 11.7999C27.1894 11.9302 27.3275 12.0026 27.4692 12.0026C27.5418 12.0026 27.6154 11.9836 27.6823 11.9436L31.9699 9.38069C32.0645 9.32403 32.1329 9.23206 32.1599 9.12496Z" fill="white"/>
<path d="M33.7518 12.4653C33.683 12.2459 33.4493 12.1237 33.2301 12.1925L28.4636 13.6861C28.2441 13.7548 28.1221 13.9883 28.1908 14.2076C28.5329 15.2997 28.7063 16.4404 28.7063 17.5981C28.7063 17.7685 28.7021 17.9424 28.6935 18.1296C28.6883 18.2399 28.7272 18.3477 28.8016 18.4293C28.876 18.5109 28.9797 18.5596 29.09 18.5646L34.0798 18.7952C34.0864 18.7954 34.0929 18.7956 34.0994 18.7956C34.3205 18.7956 34.5045 18.6217 34.5149 18.3986C34.5278 18.1209 34.5341 17.8591 34.5341 17.5981C34.534 15.8487 34.2709 14.1218 33.7518 12.4653Z" fill="white"/>
<path d="M17.3691 16.7149C17.2973 16.7149 17.2259 16.7173 17.1548 16.7211L10.3929 12.7314C10.2274 12.6336 10.0172 12.6581 9.87859 12.7911C9.73982 12.924 9.70652 13.133 9.79698 13.3023L13.4856 20.2159C13.4721 20.349 13.4649 20.4835 13.4649 20.6191C13.4649 21.662 13.871 22.6424 14.6084 23.3798C15.3458 24.1173 16.3263 24.5234 17.3692 24.5234C18.4121 24.5234 19.3925 24.1172 20.1299 23.3798C20.8673 22.6424 21.2734 21.662 21.2734 20.6191C21.2734 19.5762 20.8673 18.5958 20.1299 17.8584C19.3925 17.121 18.412 16.7149 17.3691 16.7149Z" fill="#9F9F9F"/>
</svg>
