<svg width="34" height="27" viewBox="0 0 34 27" fill="none" xmlns="http://www.w3.org/2000/svg">
<line x1="23.1173" y1="13.5658" x2="31.1095" y2="7.85713" stroke="#9F9F9F"/>
<line x1="22.7543" y1="13.8642" x2="25.0378" y2="24.1398" stroke="#9F9F9F"/>
<line x1="13.3973" y1="16.6799" x2="4.26346" y2="22.3885" stroke="#9F9F9F"/>
<line x1="12.8895" y1="16.6929" x2="2.61391" y2="10.9843" stroke="#9F9F9F"/>
<line x1="12.6344" y1="16.3011" x2="11.4926" y2="3.74207" stroke="#9F9F9F"/>
<circle r="2.40937" transform="matrix(-0.962583 -0.270987 -0.270987 0.962583 4.04912 22.5794)" fill="white"/>
<circle r="1.85157" transform="matrix(-0.962583 -0.270987 -0.270987 0.962583 25.3524 24.1736)" fill="white"/>
<circle r="2.5689" transform="matrix(-0.962583 -0.270987 -0.270987 0.962583 11.5116 3.39187)" fill="white"/>
<circle r="1.84961" transform="matrix(-0.962583 -0.270987 -0.270987 0.962583 2.52014 10.4721)" fill="white"/>
<circle r="1.89739" transform="matrix(-0.962583 -0.270987 -0.270987 0.962583 31.1039 7.86789)" fill="white"/>
<circle r="3.91703" transform="matrix(-0.962583 -0.270987 -0.270987 0.962583 13.3973 16.521)" fill="white"/>
<circle r="2.64119" transform="matrix(-0.962583 -0.270987 -0.270987 0.962583 23.2409 13.8056)" fill="white"/>
</svg>
