<svg width="29" height="31" viewBox="0 0 29 31" fill="none" xmlns="http://www.w3.org/2000/svg">
<path fill-rule="evenodd" clip-rule="evenodd" d="M4.4834 11.7817H3.78558C1.94033 11.7817 0.444458 13.2776 0.444458 15.1229H4.4834V11.7817ZM5.4834 15.1229V11.7817H10.9454V15.1229H5.4834ZM11.9454 15.1229H17.4076V11.7817H11.9454V15.1229ZM18.4076 11.7817V15.1229H23.8699V11.7817H18.4076ZM24.8699 11.7817V15.1229H28.7934C28.7934 13.2776 27.2975 11.7817 25.4523 11.7817H24.8699Z" fill="#F1F1F1"/>
<path fill-rule="evenodd" clip-rule="evenodd" d="M4.4834 17.3496H0.444458V19.577H4.4834V17.3496ZM5.4834 19.577V17.3496H10.9454V19.577H5.4834ZM4.4834 21.8047H0.444458V24.0321H4.4834V21.8047ZM5.4834 24.0321V21.8047H10.9454V24.0321H5.4834ZM4.4834 26.1797H0.444458V28.4071H4.4834V26.1797ZM5.4834 28.4071V26.1797H10.9454V28.4071H5.4834ZM11.9454 28.4071H17.4076V26.1797H11.9454V28.4071ZM11.9454 24.0321H17.4076V21.8047H11.9454V24.0321ZM11.9454 19.577H17.4076V17.3496H11.9454V19.577ZM18.4076 17.3496V19.577H23.8699V17.3496H18.4076ZM24.8699 17.3496V19.577H28.7934V17.3496H24.8699ZM23.8699 21.8047H18.4076V24.0321H23.8699V21.8047ZM24.8699 24.0321V21.8047H28.7934V24.0321H24.8699ZM23.8699 26.1797H18.4076V28.4071H23.8699V26.1797ZM24.8699 28.4071V26.1797H28.7934V28.4071H24.8699Z" fill="#C4C4C4"/>
<path fill-rule="evenodd" clip-rule="evenodd" d="M4.4834 15.1226H0.444458V17.35H4.4834V15.1226ZM5.4834 17.35V15.1226H10.9454V17.35H5.4834ZM4.4834 19.5781H0.444458V21.8055H4.4834V19.5781ZM5.4834 21.8055L5.4834 19.5781H10.9454V21.8055H5.4834ZM4.4834 24.0332H0.444458V26.2606H4.4834V24.0332ZM5.4834 26.2606V24.0332H10.9454V26.2606H5.4834ZM4.4834 28.4062H0.444458C0.444458 29.6364 1.44171 30.6337 2.67188 30.6337H4.4834V28.4062ZM5.4834 30.6337V28.4062H10.9454V30.6337H5.4834ZM11.9454 30.6337H17.4076V28.4062H11.9454V30.6337ZM11.9454 26.2606H17.4076V24.0332H11.9454V26.2606ZM11.9454 21.8055H17.4076V19.5781H11.9454V21.8055ZM11.9454 17.35H17.4076V15.1226H11.9454V17.35ZM18.4076 15.1226V17.35H23.8699V15.1226H18.4076ZM24.8699 15.1226V17.35H28.7934V15.1226H24.8699ZM23.8699 19.5781H18.4076V21.8055H23.8699V19.5781ZM24.8699 21.8055V19.5781H28.7934V21.8055H24.8699ZM23.8699 24.0332H18.4076V26.2606H23.8699V24.0332ZM24.8699 26.2606V24.0332H28.7934V26.2606H24.8699ZM23.8699 28.4062H18.4076V30.6337H23.8699V28.4062ZM24.8699 30.6337V28.4062H28.7934C28.7934 29.6364 27.7962 30.6337 26.566 30.6337H24.8699Z" fill="#9F9F9F"/>
<path fill-rule="evenodd" clip-rule="evenodd" d="M21.9852 7.48242L22.3373 7.21201L24.7075 5.39173C24.9411 5.56842 25.2322 5.67321 25.5478 5.67321C26.318 5.67321 26.9424 5.04882 26.9424 4.27859C26.9424 3.50836 26.318 2.88396 25.5478 2.88396C24.7775 2.88396 24.1531 3.50836 24.1531 4.27859C24.1531 4.36725 24.1614 4.45399 24.1772 4.53806L22.0803 6.14851L18.581 2.56519L18.5256 2.50853L18.4555 2.47175L14.7374 0.521277L14.4243 0.357036L14.1651 0.597464L10.2069 4.26885L7.92186 3.19354L7.72703 3.10185L7.52655 3.18041L3.02794 4.94318C2.78255 4.54414 2.34189 4.27806 1.83909 4.27806C1.06885 4.27806 0.444458 4.90245 0.444458 5.67268C0.444458 6.44291 1.06885 7.06731 1.83909 7.06731C2.51536 7.06731 3.07921 6.58595 3.20671 5.94716L7.6909 4.19004L10.0865 5.3174L10.392 5.46114L10.6395 5.23158L14.586 1.57106L17.9208 3.32051L21.675 7.1648L21.9852 7.48242Z" fill="#F1F1F1"/>
</svg>
