<svg width="58" height="55" viewBox="0 0 58 55" fill="none" xmlns="http://www.w3.org/2000/svg">
<path d="M15.2806 34.3474L15.3638 34.3566L15.4286 34.3059L15.5257 34.312L15.5966 34.3843L15.6583 34.4028L15.7107 34.3812L15.7616 34.3197L15.834 34.3566L15.8818 34.4381L15.9111 34.5704L15.9003 34.6519L15.9358 34.6904V34.7288L15.1634 35.1733L14.9615 35.1072L14.8936 35.0379L14.98 34.9441L15.0077 34.8657L15.0725 34.5273L15.0663 34.4612L15.1819 34.2997L15.2806 34.3474ZM15.5797 26.2329L15.5026 26.4452L15.444 26.479L15.3978 26.5943L15.3052 26.6051L15.2975 26.6789L15.3237 26.7789L15.3931 26.8281L15.4548 26.9235L15.6398 26.9696L15.6629 27.0234L15.5982 27.3526L15.6444 27.4525L15.925 27.7309L15.979 27.754L16.1069 27.9524L16.3027 27.9601L16.3798 27.9908L16.4183 28.037L16.4445 28.2508L16.6743 28.3646L16.7282 28.4984L16.7945 28.5522L16.887 28.5414L16.9995 28.5645L17.0689 28.6676L17.092 28.7475L17.166 28.8091L17.2308 28.9198L17.2801 29.069H17.4312L17.5808 29.1074L17.7195 29.3181L17.7735 29.3597L17.9585 29.4243L18.071 29.435L18.1558 29.4166L18.2175 29.3135L18.2868 29.3827L18.3562 29.3797L18.4148 29.3304L18.5335 29.292L18.68 29.2074L18.791 29.1889L18.8881 29.1044L18.9297 29.0121L19.5233 28.9352L19.8239 28.8475L19.8732 28.8936L20.143 28.9813L20.2201 29.0305L20.2972 29.0275L20.4051 28.9813L20.5238 28.9998L20.6317 29.1797L20.6672 29.1766L20.6826 29.0967L20.7628 29.0859L20.937 28.9598L20.9786 28.9567L21.1328 29.0367L21.2222 29.0105L21.4843 29.0644L21.5336 28.9459L21.7417 28.7322L22.2381 28.6983L22.2335 28.5984L22.272 28.5061L22.2952 28.2769L22.4262 28.1477L22.4339 28.0477L22.3692 27.9478L22.4463 27.8632H22.511L22.7068 27.7417L22.9488 27.6879L23.0336 27.6463L23.046 27.6002L23.2032 27.5433L23.6503 27.6002L23.9047 27.5817L23.9895 27.6433L24.0434 27.6463L24.1313 27.6002L24.1853 27.5279L24.2161 27.5202L24.3425 27.5541L24.4843 27.5433L24.5815 27.5617L24.6616 27.6079L24.6817 27.6694L24.6555 27.6771L24.5784 27.8294L24.5013 27.8555L24.4551 27.9016L24.4319 27.9708L24.5476 27.9816L24.7557 27.9124L24.8127 27.9201L24.8713 28.0231L24.9869 28.057L25.2336 28.0339L25.3523 28.0647L25.4633 28.1416L25.4895 28.1954L25.582 28.2523L25.6283 28.3092L25.6899 28.3123L25.7408 28.2661L25.8287 28.2323L25.9551 28.2246L26.0584 28.2708L26.174 28.4768L26.2233 28.4922H26.2696L26.3236 28.4584L26.3821 28.3892L26.6751 28.2708L26.7182 28.1416L26.6982 28.1108L26.709 28.0847L27.005 27.9632L27.0666 27.8939L27.5368 27.8447L27.6864 27.9447L27.7172 27.9878L27.7126 27.9893L27.5862 28.0539L27.5677 28.3184L27.6001 28.3461L27.5492 28.4107V28.5168L27.5168 28.623L27.4706 28.6691L27.3904 28.6553L27.3056 28.7106L27.2593 28.6876L27.1514 28.6968L27.0713 28.7614L27.0574 28.8629L27.0111 28.8998L26.9078 28.9229L26.894 28.9782L26.9448 29.0244L26.9633 29.089L26.9356 29.1674L26.8554 29.2458L26.8416 29.2874L26.8832 29.3935L26.9726 29.4673V29.5135L26.8924 29.6104L26.9017 29.7349L26.8739 29.7903L26.7706 29.8318L26.7429 29.9149L26.7614 29.9518L26.6828 29.9964L26.6473 30.1056L26.5918 30.1425L26.5625 30.2102L26.5055 30.2348L26.4762 30.2994H26.4145L26.3097 30.364L26.2681 30.5316L26.0661 30.6485L26.0414 30.6962L25.8934 30.8223L25.8857 30.8577L25.804 30.9207L25.6622 31.0069L25.4494 30.9669L25.3353 30.9976L25.2382 31.0561L25.2336 31.0853L25.3924 31.2406L25.6313 31.3667L25.6082 31.5728L25.6375 31.6267L25.693 31.6651L25.6529 31.7236L25.6252 31.8405L25.6822 31.8481L25.693 31.882L25.6375 32.0035L25.5697 32.0435L25.6221 32.0742L25.6098 32.125L25.5543 32.1357L25.5126 32.2234L25.4263 32.3034L25.2953 32.3311L25.2305 32.4234L25.1488 32.4803L25.1195 32.5725L25.0748 32.6064L25.1951 32.7156L25.2243 32.8355L25.1226 32.9586L25.0979 33.0339L25.0794 33.0462L25.0563 33.0247L25.0116 32.9478L24.9361 32.9463L24.9145 32.8924L24.8559 32.9109L24.8143 32.9909H24.7572L24.7063 33.0262L24.5013 33.0047L24.4504 33.0524L24.2284 33.117L24.1251 33.2139L24.0172 33.2323L23.9278 33.2047L23.8384 33.2277L23.826 33.36L23.712 33.3646L23.6734 33.4292L23.5362 33.4338L23.4437 33.4876V33.5184L23.3019 33.5307L23.2865 33.5599L23.1554 33.5353L23.1431 33.6061L23.1076 33.6414L23.0506 33.6015L23.0491 33.5076L22.992 33.4861L22.9165 33.5538L22.7854 33.6015L22.7222 33.5738L22.6667 33.6414L22.6035 33.5676L22.5048 33.3815L22.4524 33.3369L22.3676 33.3323L22.2412 33.5076L22.2767 33.6184L22.2613 33.6291H22.2027L22.084 33.5815L21.9175 33.5645L21.8882 33.5922L21.936 33.7645L21.9252 33.8122L21.7386 33.8645L21.6816 33.8414L21.606 33.7599L21.5845 33.8921L21.6292 34.009L21.5259 33.986L21.5028 33.9967L21.4781 34.0844L21.4072 34.1244L21.2515 34.1136L21.1328 34.1551L21.0988 34.2013L20.9555 34.2874L20.8645 34.2936L20.8183 34.3505L20.846 34.4566L20.7735 34.5304L20.6995 34.5535L20.6579 34.6365L20.7057 34.735L20.6656 34.8088L20.7165 34.8534L20.698 34.8995L20.5145 34.9303L20.4668 34.9703L20.2956 34.9718L20.2617 34.9995L20.2432 35.0825H20.197L20.1415 35.1979L20.0443 35.2487L20.0197 35.3409L19.9549 35.4148L19.9225 35.4209L19.9287 35.4655L19.7576 35.4317L19.7391 35.5132L19.6805 35.4917L19.7021 35.6132L19.6898 35.7131L19.642 35.6916L19.6358 35.6162L19.5942 35.5916L19.4678 35.667L19.5078 35.727L19.5186 35.7962L19.3938 35.83L19.3367 35.7654L19.2627 35.7885L19.2165 35.8346L19.1409 35.7746L19.0731 35.8577L18.9374 35.8915L18.8927 35.9561L18.8079 36.0146L18.8141 36.1345L18.8819 36.1515L18.9097 36.2191L18.9498 36.2484L19.0145 36.233L19.0423 36.2114L19.0592 36.1422L19.124 36.1145L19.1687 36.1392L19.2026 36.2191L19.2211 36.4037L19.198 36.4621L19.1409 36.5144L19.124 36.5821L19.1193 36.6805L19.1702 36.7436L19.164 36.8005L19.1116 36.8651L19.1348 36.9297L19.1872 36.9651L19.2673 36.9435L19.4045 36.962L19.4107 36.9851L19.3876 37.0466L19.3984 37.1112L19.2905 37.2019L19.3953 37.4003L19.3891 37.4357L19.3598 37.4711L19.3645 37.5157L19.2689 37.6264L19.3753 37.8002L19.4554 38.0801L19.4678 38.2816L19.5495 38.5984L19.4986 38.7245L19.568 38.7661L19.6204 38.7645L19.6435 38.8337L19.5633 38.9737L19.4246 39.0429L19.201 39.0998L19.1779 39.1875L19.0823 39.2674L18.9004 39.2982L18.7802 39.372L18.5936 39.4351L18.535 39.4797L18.4826 39.6243L18.2776 39.7519L18.2252 39.7304L18.2375 39.6842L18.2082 39.5781L18.2205 39.4489L18.1635 39.3151L18.091 39.2275L17.9924 39.2167L17.8259 39.2674L17.6239 39.3643L17.3233 39.6104L17.2925 39.5689L17.22 39.5535L17.1938 39.4089L17.1414 39.3213L17.2246 39.1567L17.24 39.0644L17.1876 38.9921L17.1244 38.9629L17.0967 38.7076L16.9024 38.6507L17.0057 38.5277L17.0443 38.3339L16.8839 37.7494L16.7714 37.6156L16.7775 37.4449L16.8531 37.2204L16.8546 37.1158L16.7467 36.8389L16.6403 36.762L16.3829 36.6528L16.2626 36.5375L16.2919 36.396L16.4985 36.2745L16.6049 36.0899L16.7051 35.5778L16.7066 35.344L16.6727 35.2302L16.6403 35.1718L16.5386 35.0918L16.4153 35.0641L16.2811 34.8949L16.3613 34.6796L16.0653 34.5827L15.8849 34.3351L15.7816 34.272L15.6691 34.3474L15.4949 34.232L15.4317 34.1151L15.3854 34.0736L15.0802 33.989L15.0355 33.9475L14.9615 33.966L14.9923 34.0952L14.9522 34.1582L14.9121 34.1705L14.647 34.0828L14.5606 33.9952L14.4897 33.8583L14.5205 33.4584L14.5915 33.4769L14.647 33.5338L14.8243 33.5861L14.946 33.5922L15.1079 33.6891L15.111 33.6107L14.9615 33.4984L14.8273 33.4938L14.7919 33.423L14.8335 33.3523L14.8397 33.2508L14.6207 33.2554L14.5591 33.2754L14.3001 33.1831L14.1891 33.0585L14.1228 32.7617L13.9702 32.3649L14.0226 32.2742L14.1212 32.2542L14.095 32.1296L14.2692 31.8543L14.3278 31.6067L14.297 31.4252L14.1675 31.1345L13.9979 30.9561L13.8715 30.9192L13.6819 30.9115L13.6387 30.8715L13.6433 30.7746L13.7127 30.63V30.5501L13.6032 30.4209L13.6757 30.0948L13.6341 29.9533L13.5215 29.8318L13.5601 29.698L13.4445 29.5611L13.4676 29.495L13.574 29.4104L13.6541 29.4027L13.7574 29.2966L13.8175 29.1213L13.7512 28.9029L13.6757 28.8383L13.6032 28.6291L13.6233 28.5984L13.7358 28.6245V28.5076L13.8283 28.3354L13.9409 28.2231L13.9763 28.1016L13.9455 27.9078L13.9655 27.7709L14.0226 27.6648L14.1367 27.5587L14.4789 27.3526L14.5622 27.2618V27.1926L14.6393 27.025L14.7472 26.8773L14.7564 26.7158L14.7163 26.622L14.7271 26.582L14.7996 26.5559L15.0123 26.5513L15.0601 26.4836L15.1326 26.4528L15.3931 26.4482L15.5797 26.2329Z" fill="#F1F1F1"/>
<path d="M37.7813 25.1937L38.0033 25.4352L38.1173 25.6244L38.1143 25.6905L38.0202 25.832L37.6024 26.2088L37.4483 26.1442L37.402 26.1458L37.4745 26.2134L37.5068 26.3226L37.493 26.6564L37.5161 26.7487L37.6394 26.8886L37.994 27.1332L38.2176 27.3577L38.9776 27.8037L39.0593 28.0114L39.2628 28.1052L39.3538 28.0913L39.4463 28.119L39.9242 28.5281L39.9781 28.6696L40.0953 28.8065L40.2757 28.8788L40.3173 28.8742L40.51 28.9372L40.5378 28.9618L40.5486 29.108L40.4622 29.231L40.3497 29.3371L39.9766 29.594L39.6621 29.4755L39.2042 29.5186L38.7741 29.4802L38.2993 29.3909L38.048 29.2771L37.9401 29.1664L37.8368 28.8896L37.7335 28.8019L37.6086 28.7404L37.5716 28.7542L37.567 28.8219L37.937 29.4525L37.9508 29.5663L37.9154 29.6232L37.8568 29.634L37.8044 29.6186L37.6888 29.5109L37.5993 29.4955L37.3542 29.574L37.1692 29.7539L37.1137 29.8723L37.1122 30.0123L36.8485 30.5552L36.7083 30.6567L36.5834 30.9228L36.4739 31.2458L36.4369 31.4349L36.5048 31.6241L36.5772 31.6887L36.6003 31.7948L36.5711 31.861L36.4739 31.964L36.3521 32.3439L36.3537 32.4162L36.4462 32.6131L36.3768 33.0929L36.773 32.8361L36.8424 32.8145L36.8748 32.8284L36.8856 32.8699L36.7221 33.422L36.8485 33.6943L36.8532 33.7619L36.8316 33.7958L36.4015 33.9865L36.0716 33.968L35.9636 33.8404L35.8989 33.8804L35.8773 34.0034L35.5767 34.3648L35.2606 34.8785L35.202 34.9293L34.9862 35.0246L34.7026 35.0754L34.499 34.6186L34.5468 34.4463L34.5345 34.4156L34.4975 34.4248L34.4235 34.6232L34.425 34.7063L34.533 34.8139L34.6239 35.0154L34.5391 35.323L34.1923 35.443L33.961 35.6045L33.941 35.6291L33.9548 35.746L34.0304 35.8675L34.0134 35.9413L33.9625 36.0028L33.5972 36.1474L33.3413 36.2719L33.1208 36.4104L33.1393 36.458L33.221 36.4996L33.3289 36.4765L33.4199 36.4042L33.5463 36.3765L33.6573 36.3888L33.7113 36.4211L33.7513 36.7656L33.7452 37.1148L33.685 37.1901L33.517 37.2486L33.4785 37.2916L33.682 37.3347H33.8068L33.8701 37.2732L33.9225 37.387L33.9148 37.4393L34.1337 37.4977L34.1167 37.7115L34.0088 38.0914L33.8038 37.9976L33.6342 37.953L33.2179 37.9484L33.0206 37.8838L32.5997 37.8607L32.5396 37.8499L32.4579 37.7746L32.3746 37.8499L32.2544 37.8945L32.239 37.9422L32.1788 37.9976L32.0956 38.0237L32.0524 37.9422L32.057 37.7853L31.9476 37.5193L31.9753 37.2855L32.0308 37.1994L32.0077 37.1609L31.9152 37.1225L31.8381 37.144L31.7842 37.1009L31.7564 37.1071L31.7888 37.0148L31.7456 36.9656V36.901L31.795 36.7918L31.8058 36.6826L31.7842 36.395L31.7287 36.2812L31.6531 36.195L31.6362 36.1181L31.6578 36.0705L31.5483 35.9828L31.5267 35.9336L31.5483 35.8259L31.5051 35.7659L31.4111 35.749L31.3186 35.7875L31.2908 35.7337L31.3016 35.6798L31.4003 35.5922L31.4666 35.4891L31.593 35.3814L31.6423 35.3922L31.6192 35.5106L31.6578 35.5214L31.8227 35.3261L31.8613 35.1738L31.8597 35.1754L31.8952 34.9754L31.9645 34.8939L32.1048 34.7924L32.1095 34.7524L31.9923 34.6509L31.943 34.6617L31.8905 34.7124L31.8551 34.6909L31.8258 34.5848L31.7734 34.5632L31.7117 34.4956L31.647 34.5033L31.6146 34.3571L31.5791 34.3125L31.3756 34.1833L31.2831 34.0326L31.1613 33.9265L30.9023 33.8804L30.8391 33.725L30.8438 33.542L30.8006 33.2498L30.7235 33.1837L30.6634 33.0252L30.5524 32.9114L30.5169 32.9022L30.5493 32.7346L30.4923 32.7192L30.463 32.4946L30.5277 32.4823L30.5339 32.4085L30.4892 32.3393L30.574 32.1932V32.0901L30.6418 32.0501L30.7065 31.9609L30.651 31.7887L30.278 31.9686L30.2333 32.0701L30.1608 32.0717L30.0883 32.1071L29.9712 32.2086L29.8324 32.1716L29.6752 32.2009V32.1194L29.6428 32.0471L29.6551 31.9486L29.5858 31.8179L29.5703 31.5964L29.5333 31.5488L29.4763 31.5518L29.427 31.498L29.336 31.5149L29.2913 31.438L29.3483 31.3027L29.336 31.2381L29.4023 31.1643L29.4054 31.1104L29.4655 31.0997L29.4948 31.0689L29.5765 30.8951L29.6798 30.829L29.7214 30.8382L29.7384 30.8705L29.7862 30.8459L29.8987 30.8382L29.9249 30.8413L29.9773 30.9151L30.0005 30.8659L30.1839 30.7382L30.2148 30.6783L30.2225 30.5691L30.1223 30.4814L30.0729 30.3814L29.9604 30.2491L29.874 30.0707L29.8293 29.8231L29.7692 29.7155L29.6998 29.6586L29.6212 29.637L29.4979 29.7524L29.4917 29.7878L29.538 29.8616L29.4655 29.8431L29.4347 29.7785L29.353 29.7278L29.2928 29.7647L29.2158 29.7539L29.0893 29.8462L29.04 29.8247L28.9552 29.84L28.8797 29.94L28.7425 30.0384L28.6207 30.0431V30.14L28.5883 30.1999L28.4341 30.2045L28.3308 30.2738L28.3401 30.3768L28.3077 30.386L28.1998 30.3676L28.1212 30.3014L28.0086 30.2738L27.7697 30.3014L27.7049 30.2738L27.6895 30.2092L27.5924 30.1584V30.1261L27.6433 30.0754L27.5924 29.9262L27.4798 29.857L27.4336 29.8754L27.3781 29.8616L27.1808 29.9631L27.0975 29.9492L26.9896 29.9862L26.9526 29.9769L26.914 30.0046L26.8493 29.9539H26.7738L26.7552 29.9169L26.783 29.8339L26.8863 29.7924L26.914 29.737L26.9048 29.6109L26.985 29.514V29.4678L26.8955 29.394L26.8539 29.2864L26.8678 29.2448L26.948 29.1664L26.9757 29.088L26.9572 29.0218L26.9048 28.9757L26.9187 28.9203L27.022 28.8972L27.0682 28.8603L27.0836 28.7588L27.1623 28.6927L27.2702 28.6835L27.3164 28.7065L27.4012 28.6512L27.4798 28.665L27.5276 28.6189L27.56 28.5127V28.4066L27.6109 28.3405L27.5785 28.3128L27.597 28.0483L27.7234 27.9837L27.7805 27.9606L27.8175 27.8914L27.9254 27.8776L28.169 27.7745L28.2568 27.6915L28.6546 27.9237L28.7163 27.9052L28.7486 27.8391L28.8704 27.9037L28.909 27.9745L29.0045 28.0529L29.2497 28.1236L29.3699 28.2574L29.4008 28.4143L29.4331 28.4543L29.5595 28.3836L29.6705 28.3989L29.7507 28.4312L29.7985 28.4928L29.8216 28.5881L29.8848 28.6589L29.9558 28.6896L30.059 28.6973L30.1947 28.5481H30.4013L30.4876 28.5881L30.6063 28.6035L30.7343 28.462L30.8931 28.4928L31.0118 28.3513L31.0904 28.3128L31.1305 28.0683L31.1937 28.0052L31.4959 28.0144L31.852 27.8806L32.2097 27.8729L32.3685 27.7391L32.4548 27.5577L32.5905 27.4392L32.8356 27.1101L33.0345 26.7317L32.9867 26.5518L33.0021 26.4488L33.0745 26.3626L33.241 26.2765L33.2796 26.1735L33.3829 26.1104L33.4076 25.9843L33.4153 25.6459L33.4461 25.5367L33.574 25.3245L33.6296 25.2845L33.6773 25.0799L33.7159 25.0323L33.796 25.0246L33.8824 25.1122L34.0026 25.1584L34.0489 25.2061V25.2691L34.1445 25.3168L34.2555 25.3076L34.4143 25.2614L34.6841 25.0876L35.0325 24.9692L35.3423 24.7893L35.5412 24.7816L35.7632 24.8277L36.0083 24.7646H36.144L36.2226 24.9384L36.3182 25.0092L36.5171 25.103L36.5957 25.1199L36.7622 25.0799L36.8331 25.1276L37.0089 25.3399L37.2216 25.4183L37.2787 25.426L37.476 25.3076L37.6749 25.2845" fill="white"/>
<path d="M33.5648 41.315L33.5385 41.3458L33.369 41.072L33.4692 40.8183L33.6018 40.6506L33.6372 40.6414L33.668 40.7106V40.8014L33.5648 41.315ZM32.8386 42.384L32.7523 42.4086L32.6706 42.4009L32.6598 42.3686L32.669 42.2502L32.7292 42.0533L32.7199 41.778L32.5812 41.5857L32.5426 41.4612L32.5457 41.3597L32.8386 40.5045L33.2163 40.2354L33.2518 40.2446L33.261 40.2984L33.2055 40.6506L33.2472 41.0582L33.3736 41.6703L33.3366 42.0441L32.9496 42.3332L32.8386 42.384ZM31.8612 35.1738L31.8227 35.3261L31.6593 35.5214L31.6207 35.5106L31.6423 35.3907L31.593 35.3799L31.4665 35.4891L31.4002 35.5922L31.3016 35.6783L31.2908 35.7321L31.3185 35.786L31.411 35.7475L31.5035 35.7644L31.5467 35.8244L31.5251 35.9336L31.5467 35.9828L31.6562 36.0689L31.6346 36.1182L31.6515 36.1935L31.7286 36.2796L31.7826 36.3935L31.8042 36.6811L31.7934 36.7903L31.744 36.8995V36.9641L31.7872 37.0133L31.7548 37.1056L31.7826 37.0994L31.8365 37.1425L31.9136 37.1209L32.0061 37.1594L32.0277 37.1978L31.9738 37.284L31.946 37.5177L32.0555 37.7838L32.0493 37.9407L32.0925 38.0222L32.1742 37.9945L32.2343 37.9407L32.2513 37.8915L32.3715 37.8484L32.4532 37.773L32.5349 37.8484L32.595 37.8592L33.0159 37.8807L33.2133 37.9453L33.6295 37.9515L33.7991 37.9945L34.0041 38.0899L33.944 38.3775L33.8638 38.479L33.8022 38.4821L33.7775 38.4575L33.759 38.3636L33.6418 38.3021L33.3366 38.3636L33.3289 38.6128L33.4846 38.7527L33.5154 39.2311L33.4645 39.3618L33.2503 39.6386L33.1716 39.6786L33.1362 39.6709L33.0992 39.6171L33.0668 39.4325L32.9203 39.1788L32.8895 39.1495L32.8695 39.1711L32.8109 39.4356L32.8402 39.5725L32.9913 39.7878L33.0791 39.8647L33.0945 40.0154L32.9758 40.0754L32.7831 40.3384L32.5488 40.7798L32.4902 41.1566L32.4532 41.2289L32.3946 41.2628L32.0894 41.3074L31.9121 41.4765L31.8119 41.5411L31.3124 41.7534L30.614 42.0041L29.6582 42.4024L29.0739 42.7531L28.8827 42.7777L28.8272 42.7177L28.8072 42.63L28.8056 41.5042L28.7887 41.375L28.7347 41.2674L28.5775 41.0613L28.468 40.9598L28.3555 40.9721L28.118 40.8367V40.6968L28.2383 40.3323L28.4634 39.9801L28.5235 39.6325L28.7594 39.1711L28.912 39.128L28.966 39.085L28.9937 39.0527L28.9721 39.0142L29.0045 38.9542L29.06 38.9711L29.191 38.9219L29.262 38.8296L29.3113 38.5528L29.4192 38.4682L29.4963 38.3483L29.4901 38.2498L29.5225 38.2006L29.6104 38.2068L30.52 37.55L30.5801 37.5931L30.6294 37.5869L30.6618 37.3855L30.7219 37.2609L30.6125 37.0225V36.9625L30.7605 36.8487L30.799 36.7241L30.6957 36.5826L30.6788 36.4627L30.7882 36.1212L30.9254 35.5245L30.947 35.4968L31.2322 35.4753L31.5112 35.3722L31.5714 35.323L31.6485 35.3399L31.8011 35.22L31.8612 35.1738Z" fill="#F1F1F1"/>
<path d="M18.4872 39.6245L18.5411 39.4814L18.5997 39.4368L18.7847 39.3738L18.905 39.3015L19.0869 39.2692L19.1825 39.1892L19.2056 39.1016L19.4291 39.0446L19.5694 38.9754L19.6496 38.8355L19.6249 38.7663L19.5725 38.7693L19.5031 38.7263L19.554 38.6017L19.4723 38.2833L19.4584 38.0834L19.3783 37.8019L19.2734 37.6282L19.3675 37.5174L19.3644 37.4728L19.3937 37.4374L19.3998 37.4021L19.2935 37.2037L19.4014 37.1129L19.3906 37.0483L19.4153 36.9883L19.4076 36.9653L19.2703 36.9453L19.1902 36.9668L19.1378 36.9314L19.1146 36.8668L19.1671 36.8007L19.1732 36.7453L19.1239 36.6823L19.127 36.5839L19.1439 36.5162L19.201 36.4639L19.2241 36.4054L19.2056 36.2209L19.1717 36.1409L19.127 36.1163L19.0622 36.144L19.0453 36.2132L19.0175 36.2332L18.9528 36.2486L18.9127 36.2193L18.8849 36.1517L18.8171 36.1348L18.8109 36.0163L18.8957 35.9579L18.9389 35.8918L19.0746 35.8595L19.1424 35.7749L19.2179 35.8364L19.2642 35.7902L19.3382 35.7672L19.3952 35.8318L19.5201 35.7979L19.5093 35.7287L19.4692 35.6687L19.5956 35.5934L19.6388 35.618L19.645 35.6934L19.6928 35.7149L19.7066 35.6134L19.6851 35.4919L19.7436 35.5134L19.7637 35.4319L19.9348 35.4657L19.9271 35.4211L19.9595 35.415L20.0242 35.3412L20.0504 35.2504L20.1476 35.1997L20.2031 35.0843H20.2493L20.2678 35.0013L20.3017 34.9736L20.4728 34.972L20.5206 34.932L20.7056 34.8997L20.7241 34.8536L20.6733 34.8105L20.7134 34.7367L20.664 34.6383L20.7072 34.5552L20.7812 34.5322L20.8521 34.4583L20.8259 34.3522L20.8721 34.2953L20.9631 34.2892L21.1065 34.203L21.1404 34.1584L21.2576 34.1154L21.4148 34.1261L21.4857 34.0861L21.5104 33.9985L21.5335 33.9877L21.6384 34.0108L21.5936 33.8939L21.6152 33.7616L21.6908 33.8431L21.7478 33.8662L21.9328 33.8139L21.9436 33.7662L21.8958 33.5955L21.9251 33.5678L22.0916 33.5848L22.2103 33.6324H22.2689L22.2843 33.6217L22.2473 33.5109L22.3753 33.3356L22.4585 33.3402L22.5125 33.3833L22.6111 33.5694L22.6743 33.6432L22.7299 33.5755L22.7931 33.6032L22.9241 33.5555L22.9996 33.4879L23.0567 33.5094L23.0582 33.6032L23.1153 33.6432L23.1523 33.6078L23.1646 33.5355L23.2956 33.5617L23.3095 33.5325L23.4514 33.5202V33.4879L23.5439 33.434L23.6811 33.4294L23.7196 33.3648L23.8337 33.3602L23.846 33.2295L23.9354 33.2064L24.0233 33.2326L24.1312 33.2141L24.2345 33.1172L24.4565 33.0526L24.5074 33.0049L24.7124 33.0265L24.7633 32.9896H24.8204L24.862 32.9111L24.9221 32.8927L24.9421 32.9465L25.0192 32.948L25.0624 33.0265L25.0855 33.0465L25.1056 33.0342L25.1302 32.9588L25.232 32.8358L25.2027 32.7158L25.0824 32.6066L25.1256 32.5743L25.1564 32.482L25.2381 32.4251L25.3029 32.3328L25.4355 32.3051L25.5218 32.2267L25.5634 32.139L25.6189 32.1283L25.6313 32.0775L25.5789 32.0468L25.6467 32.0068L25.7006 31.8853L25.6899 31.8514L25.6328 31.8437L25.6606 31.7253L25.7006 31.6669L25.6467 31.63L25.6159 31.5761L25.6405 31.3685L25.4016 31.2439L25.2428 31.0886L25.2474 31.0594L25.3445 31.0009L25.4586 30.9702L25.6714 31.0086L25.8132 30.924L25.8949 30.861L25.9041 30.8256L26.0521 30.6995L26.0768 30.6518L26.2803 30.5349L26.3219 30.3673L26.4268 30.3027H26.4884L26.5177 30.2381L26.5748 30.2119L26.6041 30.1458L26.6596 30.1073L26.695 29.9981L26.7737 29.9535H26.8492L26.9139 30.0043L26.9525 29.9766L26.9895 29.9858L27.0974 29.9489L27.1806 29.9628L27.378 29.8613L27.4335 29.8751L27.4797 29.8567L27.5923 29.9259L27.6431 30.075L27.5923 30.1258V30.1581L27.6894 30.2089L27.7048 30.2734L27.7696 30.3011L28.0085 30.2734L28.1211 30.3011L28.1997 30.3673L28.3076 30.3857L28.34 30.3765L28.3307 30.2734L28.434 30.2042L28.5882 30.1996L28.6206 30.1396V30.0427L28.7424 30.0381L28.8796 29.9397L28.9551 29.8397L29.0399 29.8244L29.0892 29.8459L29.2157 29.7536L29.2927 29.7644L29.3529 29.7275L29.4346 29.7782L29.4654 29.8428L29.5379 29.8613L29.4916 29.7874L29.4978 29.7521L29.6211 29.6367L29.6997 29.6583L29.7691 29.7152L29.8292 29.8228L29.8739 30.0704L29.9603 30.2488L30.0728 30.3811L30.1222 30.4811L30.2224 30.5687L30.2147 30.6779L30.1838 30.7379L30.0004 30.8656L29.9772 30.9148L29.9248 30.841L29.8986 30.8379L29.7861 30.8456L29.7383 30.8702L29.7213 30.8379L29.6797 30.8287L29.5764 30.8948L29.4947 31.0686L29.4654 31.0994L29.4053 31.1101L29.4022 31.164L29.3359 31.2378L29.3482 31.3024L29.2912 31.4377L29.3359 31.5146L29.4269 31.4977L29.4762 31.5515L29.5332 31.5484L29.5702 31.5961L29.5857 31.8176L29.655 31.9483L29.6427 32.0468L29.6751 32.119V32.2006L29.8323 32.1713L29.9711 32.2083L30.0882 32.1067L30.1607 32.0714L30.2332 32.0698L30.2779 31.9683L30.6509 31.7884L30.7064 31.9606L30.6417 32.0498L30.5739 32.0898V32.1929L30.4891 32.339L30.5338 32.4082L30.5276 32.482L30.4629 32.4943L30.4922 32.7189L30.5492 32.7342L30.5168 32.9019L30.5523 32.9111L30.6633 33.0249L30.7234 33.1833L30.8005 33.2495L30.8437 33.5417L30.839 33.7247L30.9022 33.8801L31.1612 33.9262L31.283 34.0323L31.3755 34.183L31.579 34.3122L31.6145 34.3568L31.6469 34.5029L31.7116 34.4953L31.7733 34.5629L31.8257 34.5845L31.855 34.6906L31.8904 34.7121L31.9429 34.6614L31.9922 34.6506L32.1094 34.7521L32.1047 34.7921L31.9644 34.8936L31.8951 34.9751L31.8596 35.175L31.8057 35.2227L31.653 35.3427L31.5759 35.3258L31.5158 35.375L31.2368 35.478L30.9516 35.4996L30.93 35.5272L30.7928 36.124L30.6833 36.4654L30.7003 36.5854L30.8036 36.7269L30.765 36.8515L30.617 36.9653V37.0253L30.7265 37.2636L30.6664 37.3882L30.634 37.5897L30.5847 37.5943L30.5245 37.5513L29.6165 38.208L29.5286 38.2034L29.4947 38.2526L29.5009 38.3495L29.4238 38.4694L29.3159 38.554L29.2665 38.8309L29.1956 38.9231L29.0646 38.9708L29.0091 38.9554L28.9767 39.0154L28.9983 39.0523L28.9705 39.0862L28.9166 39.1292L28.7624 39.1723L28.5281 39.6337L28.4679 39.9813L28.2429 40.335L28.1226 40.698V40.838L27.7495 40.6611L27.4628 40.5842L27.2747 40.598L26.7212 40.8626L26.436 40.9056L26.3127 40.901L26.1477 40.801L26.2233 40.5611L26.2341 40.3181L26.194 40.1782L26.1385 40.0966L25.7901 40.1182L25.7207 40.1935L25.6945 40.2858L25.4987 40.3304L25.1765 40.1259L24.6955 39.6245L24.6153 39.6137L24.3887 39.8598L24.3717 39.9475L24.4396 40.0351L24.3933 40.1889L23.883 40.5011L23.7011 40.6288L23.5932 40.7395L23.3234 40.8226L23.2741 40.818L22.9688 40.5765L22.6713 40.4734L22.5109 40.4704L22.2874 40.5565L21.7185 41.0979L21.6245 41.1502L21.5613 41.1594L21.3377 41.0671L21.4379 40.7165L21.3655 40.1535V40.0274L21.4086 39.8613L21.404 39.7506L21.1944 39.3769L21.1327 39.1308L21.0587 39.12L21.0695 39.243L20.9816 39.3722L21.0479 39.4261L21.0325 39.4953L20.8876 39.5214L20.8413 39.5722L20.6501 39.6906L20.6239 39.6183L20.4836 39.4953L20.3696 39.4076L20.3033 39.3968H20.0751L19.6049 39.666L19.4168 39.7475L19.2673 39.7937L19.0391 39.8244L18.703 39.5876L18.4872 39.6245Z" fill="#C4C4C4"/>
<path d="M36.9611 23.0245L36.8747 23.0906L36.6758 22.9337L36.6034 22.743L36.608 22.68L36.6327 22.6461L36.8578 22.6277L36.9842 22.6661L37.0073 22.7153L36.9611 23.0245ZM36.2318 22.2878L36.571 22.4877L36.5695 22.5185L36.4862 22.5907L36.2257 22.4769L35.9281 22.4616L35.8295 22.4139L35.7678 22.3308L35.7801 22.2647L35.9204 22.2062L36.2318 22.2878ZM37.1091 21.1496L36.9888 21.1942L36.8053 21.0604L36.7776 20.9236L36.7884 20.8897L36.9086 20.759L36.9842 20.7667L37.1769 20.922L37.1923 20.9943L37.1091 21.1496ZM37.5376 20.6406L37.6039 20.6698L37.6687 20.9789L37.5823 21.0466L37.5037 21.0589L37.4097 21.0112L36.867 20.5775L36.8763 20.5375L37.015 20.4237L37.0936 20.4191L37.2478 20.4729L37.2771 20.5314L37.3665 20.596L37.5376 20.6406ZM31.6855 20.862L31.6916 20.719L31.7425 20.616L31.7995 20.6206L31.9213 20.4806L31.983 20.4898L32.0046 20.5406L32.0678 20.5237L32.0878 20.436L32.1988 20.3437L32.1773 20.2791L32.1958 20.1192L32.2775 20.09L32.3283 20.1776L32.5611 20.2238L32.6028 20.2545L32.6197 20.3299L32.7199 20.4068L32.7508 20.3868L32.8109 20.2699L32.9419 20.2192L32.962 20.1207L32.9851 20.1038L33.2025 20.1361L33.2487 20.1638L33.483 20.11L33.6634 20.2591L33.6943 20.3576L33.7852 20.336L33.8207 20.253L33.8777 20.2776L33.9502 20.2653L33.9425 20.1699L34.0257 20.0669L34.0889 20.1361L34.1475 20.1546L34.186 20.2484L34.3048 20.2115L34.3865 20.2361L34.4343 20.2207L34.4774 20.1961L34.5175 20.1192L34.5807 20.1576L34.6393 20.2315L34.6794 20.2145L34.7549 20.2576L34.8613 20.2268L34.943 20.1638L35.0556 20.1915L35.1003 20.2268L35.2005 20.2361L35.2436 20.2822L35.2961 20.2222L35.4672 20.2453L35.5674 20.2192L35.6583 20.2361L35.757 20.2115L35.7709 20.1822L35.8526 20.1499L36.3182 20.4806L36.3798 20.6129L36.4168 20.636L36.6034 20.6882L36.7406 20.6483L36.7776 20.6744L36.6527 20.7513L36.5124 20.7944L36.2719 20.7252L36.2457 20.7544V20.8405L36.3058 20.8897L36.4538 20.9251L36.8608 21.2665L36.5911 21.3065L36.847 21.4526L37.0875 21.4788L37.2833 21.6849L37.2894 21.7249L37.2509 21.8233L37.4143 21.8725L37.402 21.911L37.217 22.0832L37.052 22.1155L36.5633 22.1509L36.1517 22.0924L35.8742 22.1386L35.8002 22.1832L35.7323 22.2831L35.737 22.3462L35.8233 22.48L36.0515 22.623L36.2457 22.6L36.3691 22.6323L36.3721 22.7615L36.329 22.8414L36.6003 22.9829L36.5741 23.026L36.3798 23.0521L36.2473 23.1044L36.2025 23.1752L36.053 23.2013L36.0268 23.2536L36.1101 23.3028L36.4199 23.3567L36.8377 23.5382L37.0258 23.8581L36.9826 24.1057L36.9811 24.2995L37.1383 24.3271L37.2617 24.4025L37.2941 24.4533L37.3156 24.6594L37.3511 24.7701L37.7797 25.1915L37.6733 25.2822L37.4744 25.3053L37.2756 25.4237L37.2201 25.4161L37.0058 25.3376L36.8316 25.1254L36.7606 25.0777L36.5941 25.1177L36.5155 25.1023L36.3166 25.0085L36.2211 24.9377L36.1424 24.7639H36.0083L35.7616 24.827L35.5396 24.7793L35.3408 24.787L35.0309 24.9685L34.6825 25.0869L34.4127 25.2607L34.2539 25.3084L34.1429 25.3161L34.0473 25.2684V25.2053L34.0026 25.1577L33.8839 25.11L33.796 25.0239L33.7174 25.0316L33.6773 25.0792L33.6295 25.2838L33.574 25.3238L33.4476 25.536L33.4152 25.6468L33.4075 25.9851L33.3844 26.1112L33.2811 26.1743L33.241 26.2758L33.0745 26.3619L33.0036 26.448L32.9882 26.5511L33.036 26.7326L32.8371 27.1094L32.5904 27.4401L32.4563 27.5585L32.3684 27.74L32.2096 27.8738L31.852 27.8815L31.4958 28.0153L31.1937 28.0076L31.1305 28.0706L31.0904 28.3136L31.0118 28.3536L30.893 28.4951L30.7343 28.4644L30.6078 28.6059L30.4891 28.5905L30.4013 28.5505H30.1947L30.0605 28.6997L29.9573 28.692L29.8863 28.6612L29.8231 28.5905L29.8 28.4967L29.7522 28.4336L29.6736 28.4028L29.5626 28.3875L29.4362 28.4582L29.4038 28.4182L29.3714 28.2613L29.2527 28.1275L29.0076 28.0568L28.912 27.9784L28.8719 27.9076L28.7501 27.843L28.8257 27.7184L28.7979 27.6723L28.8164 27.5569L28.9397 27.4847L29.0199 27.3432L29.0785 27.2955L29.0985 27.1432L29.0816 26.9602L29.0615 26.9402L29.1371 26.8387L29.1263 26.7972L29.2126 26.7726L29.2959 26.811L29.3653 26.7126L29.4685 26.6957L29.524 26.6434L29.4624 26.5188L29.4701 26.4834L29.5765 26.4034L29.5734 26.3696L29.4948 26.3312L29.3776 26.3835L29.3468 26.3142L29.3714 26.1666L29.3175 26.1374L29.2928 26.0928L29.2897 25.9667L29.3421 25.7652L29.6258 25.7344L29.746 25.6591L29.7522 25.6237L29.7013 25.5575L29.7491 25.4607L29.8524 25.4776L29.9187 25.4422L29.9973 25.3515H30.1006L30.1315 25.2607L30.2008 25.1977L30.2903 25.17L30.4105 25.173L30.503 25.0961L30.5138 25.0485L30.4413 24.9962L30.4244 24.9439L30.3211 24.8224L30.1685 24.8701L30.1207 24.7978L30.1685 24.7393L30.1823 24.6763V24.6009L30.1469 24.5794V24.5209L30.2394 24.441V24.3748L30.2671 24.3225L30.2394 24.281L30.1608 24.261L30.1546 24.2333L30.3026 24.1149L30.3411 23.9519L30.5863 23.7888L30.6387 23.6612L30.7327 23.7612L30.7389 23.8242L30.9285 23.8104L31.0534 23.692L31.2122 23.6704L31.2399 23.6181V23.4889L31.26 23.4505L31.3848 23.3474V23.3167L31.2754 23.2367L31.2677 23.209L31.3324 22.7768L31.4295 22.5831L31.482 22.5861L31.5436 22.683L31.6053 22.5938L31.5159 22.4385L31.4958 22.2693L31.4373 22.197L31.4126 22.0648L31.4203 21.8264L31.4419 21.7172L31.522 21.5572L31.5282 21.4711L31.5205 21.4434L31.4003 21.3573L31.3802 21.3096L31.5113 21.2742L31.5806 21.2112L31.6839 20.8913L31.6855 20.862Z" fill="#C4C4C4"/>
<path d="M36.3459 14.1503L36.2904 14.1565L36.1255 14.1165L36.0838 14.0688L36.1039 14.0319L36.2534 14.0196L36.3583 13.9781L36.3768 13.9427L36.3613 13.9104L36.2673 13.8981L36.258 13.8612L36.2858 13.8335L36.4384 13.7951L36.5032 13.8412L36.5648 13.9442L36.5587 14.0165L36.5263 14.0565L36.3459 14.1503ZM34.6131 14.2688L34.6563 14.2887L34.721 14.2795L34.8228 14.2365L35.3176 13.6259L35.3346 13.5782L35.2683 13.3982L35.2714 13.3337L35.3716 13.2152L35.4271 13.1783L35.5751 13.1552L35.663 13.1845L35.8526 13.3044L35.8618 13.4552L35.8418 13.5259L35.8634 13.7751L35.9559 14.115L36.4323 14.3826L36.6774 14.3872L36.9163 14.4487L36.9919 14.5102L37.1198 14.6917L37.1599 14.7886L37.1152 15.1346L37.0813 15.1546L36.9795 15.1393L36.9009 15.17L36.8223 15.2315L36.7899 15.3054L36.7945 15.3438L36.9564 15.5807L36.9888 15.8637L36.8685 15.9759L36.5294 16.0928L37.274 16.0421L37.553 15.9421L37.8198 15.6668L37.8737 15.653L37.9847 15.7637L38.1882 16.1774L38.0695 16.3204L37.9631 16.3389L37.6718 16.3112L37.6101 16.3543L37.6363 16.4681L37.7365 16.6542L38.1898 16.6419L38.2715 16.3835L38.3254 16.3389L38.5443 16.2758L38.8511 16.3297L39.1209 16.4604L39.3984 16.645L39.585 16.7803L39.7006 16.9033L40.3481 17.3324L40.7088 17.4001L40.7952 17.377L40.8723 17.3171L41.028 17.2971L41.159 17.4032L41.2577 17.5585L41.2484 17.88L41.1189 18.0784L40.9786 18.1753L40.7088 18.2875L40.291 18.3998L39.7268 18.6244L39.3213 18.5828L39.0469 18.4752L38.9575 18.3921L38.8003 18.3783L38.4087 18.5751L38.2298 18.7705L38.2083 18.8628L38.6075 19.3211L38.9668 19.5533L39.0007 19.5056L39.0284 19.501L39.1471 19.5549L39.1518 19.6287L39.0993 19.6994L39.2119 19.7994L39.3044 19.7333L39.44 19.744L39.5742 19.9655L39.5341 20.0255L39.3198 20.1962L38.9359 20.2039L38.347 20.3131L38.1913 20.3592L37.8475 20.5346L37.607 20.4761L37.4929 20.3669L37.0397 20.1347L36.8701 20.19L36.9302 20.4192L36.7945 20.5976L36.7714 20.6745L36.7344 20.6484L36.5972 20.6884L36.4107 20.6361L36.3737 20.613L36.312 20.4807L35.8464 20.1501L35.7647 20.1824L35.7508 20.2116L35.6522 20.2362L35.5612 20.2193L35.461 20.2454L35.2899 20.2223L35.2375 20.2823L35.1943 20.2362L35.0941 20.227L35.0494 20.1916L34.9368 20.1639L34.8551 20.227L34.7488 20.2577L34.6732 20.2147L34.6331 20.2316L34.5745 20.1577L34.5113 20.1193L34.4713 20.1962L34.4281 20.2208L34.3803 20.2362L34.2986 20.2116L34.1799 20.2485L34.1413 20.1547L34.0828 20.1362L34.0195 20.067L33.9363 20.1701L33.944 20.2654L33.8715 20.2777L33.8145 20.2531L33.779 20.3362L33.6943 20.3577L33.665 20.2608L33.4846 20.1116L33.2503 20.1654L33.204 20.1378L32.9866 20.1055L32.9635 20.1224L32.9435 20.2208L32.8124 20.2716L32.7523 20.3884L32.7215 20.4084L32.6213 20.3315L32.6043 20.2562L32.5627 20.2254L32.3299 20.1793L32.279 20.0916L32.1973 20.1208L32.1788 20.2808L32.2004 20.3454L32.0894 20.4377L32.0693 20.5253L32.0061 20.5422L31.9845 20.4915L31.9229 20.4823L31.8011 20.6222L31.744 20.6176L31.6932 20.7207L31.687 20.8637V20.8683L31.6346 20.8575L31.5498 20.7914L31.502 20.6776L31.5683 20.5084V19.6318L31.4727 19.095L31.3972 18.4629L31.1335 18.4229L31.2692 18.3675L31.3463 18.2968L31.3895 18.003L31.3494 17.9415L31.2708 17.9476L31.152 17.8938L30.8175 17.6585L30.873 17.4155L31.2677 17.1064L31.892 17.0987L32.0385 17.0618L32.1218 16.9818L32.2451 16.7665L32.3083 16.4942L32.6613 16.2466L32.6675 16.0882L32.7662 15.8821L32.8186 15.4838L33.4013 14.8578L33.8608 14.5118L33.8777 14.3764L34.2415 13.9596L34.24 13.7674L34.277 13.572L34.4343 13.2491L34.536 13.1153L34.5684 13.1014L34.7441 13.2552L34.7626 13.2983L34.815 13.6859L34.7935 13.8089L34.6825 13.9519L34.6054 14.1103L34.5946 14.2226L34.6131 14.2688ZM35.9451 12.3109L35.9281 12.5262L35.8588 12.6846L35.589 12.7123L35.4518 12.7954L35.4009 12.8815H35.367L35.3284 12.7061L35.3562 12.437L35.3778 12.4047L35.5766 12.2709L35.7832 12.2217L35.9065 12.2447L35.9451 12.3109ZM34.8567 12.5708L34.8089 12.6723L34.7965 12.66L34.8675 12.4308L35.1928 12.2217L35.2375 12.3401L35.239 12.4508L35.0787 12.517L34.8567 12.5708Z" fill="white"/>
<path d="M20.2864 25.4259L20.1708 25.4705L20.1246 25.4382L19.9997 25.2321L20.0213 25.1076L19.9719 24.4831L19.9997 24.3924L20.0675 24.3585L20.1354 24.4124L20.2078 24.5754L20.1955 25.1122L20.2864 25.4259ZM31.1321 18.4219L31.3957 18.4619L31.4713 19.094L31.5668 19.6307V20.5074L31.5006 20.6766L31.5483 20.7904L31.6331 20.8565L31.6856 20.8673L31.684 20.8873L31.5807 21.2072L31.5113 21.2702L31.3803 21.3056L31.4003 21.3533L31.5206 21.4394L31.5283 21.4671L31.5221 21.5532L31.442 21.7132L31.4204 21.8224L31.4127 22.0608L31.4373 22.193L31.4959 22.2653L31.516 22.4345L31.6054 22.5898L31.5437 22.6791L31.4821 22.5822L31.4296 22.5791L31.3325 22.7729L31.2678 23.205L31.2755 23.2327L31.3849 23.3127V23.3435L31.2601 23.4465L31.24 23.485V23.6142L31.2123 23.6664L31.0535 23.688L30.9286 23.8064L30.739 23.8202L30.7328 23.7572L30.6388 23.6572L30.5863 23.7849L30.3412 23.9479L30.3027 24.1109L30.1547 24.2294L30.1608 24.257L30.2395 24.277L30.2672 24.3186L30.2395 24.3708V24.437L30.147 24.517V24.5754L30.1824 24.5969V24.6723L30.1686 24.7354L30.1208 24.7938L30.1686 24.8661L30.3212 24.8184L30.4245 24.9399L30.4414 24.9922L30.5139 25.0445L30.5031 25.0922L30.4106 25.1691L30.2903 25.166L30.2009 25.1937L30.1316 25.2567L30.1007 25.3475H29.9974L29.9188 25.4382L29.8525 25.4736L29.7492 25.4567L29.7014 25.5536L29.7523 25.6197L29.7461 25.6551L29.6259 25.7304L29.3422 25.7612L29.2898 25.9627L29.2929 26.0888L29.3176 26.1334L29.3715 26.1626L29.3468 26.3103L29.3777 26.3795L29.4948 26.3272L29.5735 26.3656L29.5766 26.3995L29.4702 26.4794L29.4625 26.5148L29.5241 26.6394L29.4686 26.6917L29.3653 26.7086L29.296 26.807L29.2127 26.7686L29.1264 26.7932L29.1372 26.8347L29.0616 26.9362L29.0817 26.9562L29.0986 27.1392L29.0786 27.2915L29.02 27.3392L28.9398 27.4807L28.8165 27.553L28.798 27.6683L28.8258 27.7145L28.7502 27.839L28.7178 27.9036L28.6577 27.9221L28.26 27.6898L28.1705 27.7729L27.927 27.8744L27.819 27.8883L27.782 27.9575L27.7296 27.979L27.6988 27.9359L27.5493 27.836L27.079 27.8852L27.0174 27.9544L26.7214 28.0759L26.7106 28.102L26.7306 28.1328L26.6875 28.262L26.3945 28.3804L26.336 28.4496L26.282 28.4835H26.2358L26.1864 28.4681L26.0708 28.262L25.9675 28.2158L25.8411 28.2235L25.7532 28.2574L25.7023 28.3035L25.6407 28.3004L25.5944 28.2435L25.5019 28.1866L25.4757 28.1328L25.3647 28.0559L25.246 28.0251L24.9993 28.0482L24.8837 28.0144L24.8251 27.9113L24.7681 27.9036L24.56 27.9728L24.4443 27.9621L24.4675 27.8929L24.5137 27.8467L24.5908 27.8206L24.6679 27.6683L24.6941 27.6606L24.674 27.5991L24.5939 27.553L24.4967 27.5345L24.3549 27.5453L24.2285 27.5114L24.1977 27.5191L24.1437 27.5914L24.0558 27.6376L24.0019 27.6345L23.9171 27.573L23.6627 27.5914L23.2156 27.5345L23.0584 27.5914L23.046 27.6376L22.9612 27.6791L22.7192 27.7329L22.5234 27.8544H22.4587L22.3816 27.939L22.4463 28.039L22.4386 28.1389L22.3076 28.2681L22.2845 28.4973L22.2459 28.5896L22.2505 28.6896L21.7541 28.7234L21.546 28.9372L21.4967 29.0556L21.2346 29.0018L21.1452 29.0279L20.991 28.9479L20.9494 28.951L20.7752 29.0771L20.695 29.0879L20.6796 29.1679L20.6441 29.1709L20.5362 28.991L20.4175 28.9725L20.3096 29.0187L20.2325 29.0218L20.1554 28.9725L19.8856 28.8849L19.8363 28.8387L19.5357 28.9264L18.9421 29.0033L18.9005 29.0956L18.8034 29.1802L18.6924 29.1986L18.5459 29.2832L18.4272 29.3217L18.3686 29.3709L18.2992 29.374L18.2299 29.3048L18.1682 29.4078L18.0834 29.4263L17.9709 29.4155L17.7859 29.3509L17.7319 29.3094L17.5932 29.0987L17.4436 29.0602H17.2925L17.2432 28.911L17.1784 28.8003L17.1044 28.7388L17.0813 28.6588L17.0119 28.5557L16.8994 28.5327L16.8069 28.5434L16.7406 28.4896L16.6867 28.3558L16.4569 28.242L16.4307 28.0282L16.3922 27.9821L16.3151 27.9513L16.1193 27.9436L15.9914 27.7452L15.9374 27.7221L15.6568 27.4438L15.6106 27.3438L15.6753 27.0147L15.6522 26.9608L15.4672 26.9147L15.4055 26.8193L15.3361 26.7701L15.2976 26.6794L15.3053 26.6071L15.3978 26.5963L15.4441 26.481L15.5026 26.4471L15.5797 26.2349L15.6029 26.4164L15.5921 26.5917L15.6445 26.6932L15.7478 26.8163L16.2519 27.1592L16.3274 27.2423L16.4708 27.2638L17.1939 27.2023L17.365 26.9685L17.4004 26.9485L17.4313 26.9593L17.792 27.3669L17.7997 27.4176L18.3933 27.596L18.475 27.6406L18.4935 27.6899L18.4781 27.7406L18.3208 27.8775L18.3517 27.8929L18.4765 27.8713L18.5521 27.8006L18.5844 27.5807L18.7109 27.5668L19.1225 27.756L19.3537 27.9975L19.6004 28.1066L20.0382 28.1882L20.1955 28.1543L19.9519 27.9775L19.8317 27.9698L19.6883 28.0221L19.6127 28.0128L19.3414 27.8483L19.2212 27.6591L19.1872 27.556L19.2643 27.3069L19.3584 27.2638L19.6482 26.561L19.7345 26.2472L19.8255 26.1196L19.8671 26.0965L20.0537 26.1442L20.1184 26.1088L20.1754 26.0365L20.1801 26.0057L20.1354 25.9934L19.7006 26.0519L19.6497 26.0396L19.6775 25.732L19.753 25.3706L19.7916 25.3075L19.8424 25.289L20.0321 25.3998L20.1724 25.5274L20.2417 25.4828L20.3913 25.4505L20.2649 25.1537L20.3543 24.6462L20.3851 24.5877L20.9725 24.1832L21.3857 24.1155L21.7233 24.0971L22.1041 24.031L24.1622 23.5127L24.3981 23.4388L24.5507 23.3558L24.6355 23.2758L24.7434 23.1112L25.2568 22.493L25.6299 21.9485L25.9043 21.6409L26.3098 21.3118L26.4855 21.1411L26.9943 20.4859L27.096 20.2813L27.1762 19.9676L27.1685 19.8476L27.0914 19.6231L27.1022 19.5892L27.1839 19.5446L27.4984 19.5631L27.7928 19.6738L28.0303 19.9937L28.0688 20.2582L28.2399 20.4474L28.6284 20.7766L28.818 20.9934L28.8273 21.0503L28.8658 21.0888L28.9506 21.0795L29.1495 20.9673L29.3391 20.7596L29.4902 20.2229L29.481 20.0445L29.4332 19.9968L29.2821 19.2524L29.2913 19.1863L29.4625 19.0171L29.7091 18.9894L29.7847 18.9617L29.8417 18.914L29.9111 18.7833L29.945 18.9848L29.908 19.094L29.9358 19.4247L30.0021 19.6138L30.1161 20.1229L30.4291 20.2352L30.7606 20.3105L30.8083 20.2921L30.7898 20.1506L30.628 20.0275L30.5894 19.9706L30.5709 19.8568V19.64L30.5987 19.5646L30.5894 19.4508L30.4383 18.9802L30.2518 18.7372L30.4445 18.5972L30.6203 18.6833L30.7313 18.7679L30.8083 18.7525L30.9039 18.6833L31.1321 18.4219V18.4219Z" fill="#9F9F9F"/>
<path d="M39.4462 19.4362L39.3722 19.5393L39.2689 19.5377L38.7895 19.347L39.1333 19.3009L39.4462 19.4362ZM30.2517 18.7288L30.4383 18.9718L30.5893 19.4424L30.5986 19.5562L30.5708 19.6316L30.5893 19.9622L30.6279 20.0191L30.7898 20.1422L30.8083 20.2837L30.7605 20.3021L30.429 20.2268L30.116 20.1145L30.002 19.6054L29.9357 19.4162L29.9079 19.0856L29.9449 18.9764L29.9896 19.0133L30.0205 19.001L30.1885 18.8779L30.2517 18.7288ZM29.8293 18.7303L29.8093 18.7703L29.9064 18.7549L29.911 18.7764L29.8416 18.9072L29.7846 18.9548L29.709 18.9825L29.4624 19.0102L29.2913 19.1794L29.282 19.2455L29.4331 19.9899L29.4809 20.0376L29.4901 20.216L29.339 20.7528L29.1494 20.9604L28.9505 21.0727L28.8658 21.0819L28.8272 21.0434L28.818 20.9881L28.6283 20.7712L28.2398 20.4421L28.0687 20.2529L28.0302 19.9884L27.7928 19.6685L27.4983 19.5577L27.6679 19.5562L27.7295 19.5854L27.9901 19.5485L28.5759 19.2947L28.6422 19.2517L28.966 18.9195L29.154 18.778L29.6258 18.4842L29.9634 18.3489L30.0405 18.3335L30.1176 18.3489L30.133 18.3719L29.8293 18.7303Z" fill="white"/>
<g filter="url(#filter0_d)">
<line x1="17.5629" y1="38.7572" x2="27.5629" y2="20.7572" stroke="#FFDEDE"/>
</g>
<g filter="url(#filter1_d)">
<line x1="26.3363" y1="19.63" x2="37.3363" y2="29.63" stroke="#FFDEDE"/>
</g>
<path d="M30.5 20.5C30.5 22.1569 29.1569 23.5 27.5 23.5C25.8431 23.5 24.5 22.1569 24.5 20.5C24.5 18.8431 25.8431 17.5 27.5 17.5C29.1569 17.5 30.5 18.8431 30.5 20.5Z" fill="#9F9F9F" stroke="white"/>
<path d="M20.5 39C20.5 40.3807 19.3807 41.5 18 41.5C16.6193 41.5 15.5 40.3807 15.5 39C15.5 37.6193 16.6193 36.5 18 36.5C19.3807 36.5 20.5 37.6193 20.5 39Z" fill="#9F9F9F" stroke="white"/>
<path d="M39.5 29C39.5 30.3807 38.3807 31.5 37 31.5C35.6193 31.5 34.5 30.3807 34.5 29C34.5 27.6193 35.6193 26.5 37 26.5C38.3807 26.5 39.5 27.6193 39.5 29Z" fill="#9F9F9F" stroke="white"/>
<defs>
<filter id="filter0_d" x="13.1259" y="20.5142" width="18.8742" height="26.4856" filterUnits="userSpaceOnUse" color-interpolation-filters="sRGB">
<feFlood flood-opacity="0" result="BackgroundImageFix"/>
<feColorMatrix in="SourceAlpha" type="matrix" values="0 0 0 0 0 0 0 0 0 0 0 0 0 0 0 0 0 0 127 0"/>
<feOffset dy="4"/>
<feGaussianBlur stdDeviation="2"/>
<feColorMatrix type="matrix" values="0 0 0 0 0 0 0 0 0 0 0 0 0 0 0 0 0 0 1 0"/>
<feBlend mode="normal" in2="BackgroundImageFix" result="effect1_dropShadow"/>
<feBlend mode="normal" in="SourceGraphic" in2="effect1_dropShadow" result="shape"/>
</filter>
<filter id="filter1_d" x="6" y="3.26025" width="51.6727" height="50.7399" filterUnits="userSpaceOnUse" color-interpolation-filters="sRGB">
<feFlood flood-opacity="0" result="BackgroundImageFix"/>
<feColorMatrix in="SourceAlpha" type="matrix" values="0 0 0 0 0 0 0 0 0 0 0 0 0 0 0 0 0 0 127 0"/>
<feOffset dy="4"/>
<feGaussianBlur stdDeviation="10"/>
<feColorMatrix type="matrix" values="0 0 0 0 0 0 0 0 0 0 0 0 0 0 0 0 0 0 1 0"/>
<feBlend mode="normal" in2="BackgroundImageFix" result="effect1_dropShadow"/>
<feBlend mode="normal" in="SourceGraphic" in2="effect1_dropShadow" result="shape"/>
</filter>
</defs>
</svg>
