<svg width="29" height="31" viewBox="0 0 29 31" fill="none" xmlns="http://www.w3.org/2000/svg">
<path d="M2.28058 22.3479L2.36383 22.3571L2.42858 22.3063L2.52571 22.3125L2.59663 22.3848L2.65829 22.4032L2.71071 22.3817L2.76158 22.3202L2.83404 22.3571L2.88183 22.4386L2.91113 22.5709L2.90033 22.6524L2.93579 22.6909V22.7293L2.16342 23.1738L1.96146 23.1076L1.89363 23.0384L1.97996 22.9446L2.00771 22.8662L2.07246 22.5278L2.06629 22.4617L2.18192 22.3002L2.28058 22.3479ZM2.57967 14.2334L2.50258 14.4456L2.444 14.4795L2.39775 14.5948L2.30525 14.6056L2.29754 14.6794L2.32375 14.7794L2.39313 14.8286L2.45479 14.924L2.63979 14.9701L2.66292 15.0239L2.59817 15.3531L2.64442 15.453L2.925 15.7314L2.97896 15.7545L3.10692 15.9529L3.30271 15.9606L3.37979 15.9913L3.41833 16.0375L3.44454 16.2513L3.67425 16.3651L3.72821 16.4989L3.7945 16.5527L3.887 16.5419L3.99954 16.565L4.06892 16.6681L4.09204 16.748L4.16604 16.8095L4.23079 16.9203L4.28013 17.0695H4.43121L4.58075 17.1079L4.7195 17.3186L4.77346 17.3601L4.95846 17.4247L5.071 17.4355L5.15579 17.4171L5.21746 17.314L5.28684 17.3832L5.35621 17.3801L5.4148 17.3309L5.5335 17.2925L5.67996 17.2079L5.79096 17.1894L5.88808 17.1048L5.92971 17.0126L6.52326 16.9357L6.82388 16.848L6.87321 16.8941L7.143 16.9818L7.22009 17.031L7.29717 17.0279L7.40509 16.9818L7.5238 17.0003L7.63171 17.1802L7.66717 17.1771L7.68259 17.0972L7.76275 17.0864L7.93696 16.9603L7.97859 16.9572L8.13275 17.0372L8.22217 17.011L8.48426 17.0649L8.53359 16.9464L8.74171 16.7326L9.23813 16.6988L9.23351 16.5988L9.27205 16.5066L9.29517 16.2774L9.42622 16.1482L9.43392 16.0482L9.36917 15.9483L9.44626 15.8637H9.511L9.7068 15.7422L9.94884 15.6883L10.0336 15.6468L10.046 15.6007L10.2032 15.5438L10.6503 15.6007L10.9047 15.5822L10.9895 15.6437L11.0434 15.6468L11.1313 15.6007L11.1853 15.5284L11.2161 15.5207L11.3425 15.5545L11.4843 15.5438L11.5815 15.5622L11.6616 15.6084L11.6817 15.6699L11.6555 15.6776L11.5784 15.8298L11.5013 15.856L11.4551 15.9021L11.4319 15.9713L11.5476 15.9821L11.7557 15.9129L11.8127 15.9206L11.8713 16.0236L11.9869 16.0575L12.2336 16.0344L12.3523 16.0652L12.4633 16.1421L12.4895 16.1959L12.582 16.2528L12.6283 16.3097L12.6899 16.3128L12.7408 16.2666L12.8287 16.2328L12.9551 16.2251L13.0584 16.2712L13.174 16.4773L13.2233 16.4927H13.2696L13.3236 16.4589L13.3821 16.3897L13.6751 16.2712L13.7182 16.1421L13.6982 16.1113L13.709 16.0851L14.005 15.9636L14.0666 15.8944L14.5368 15.8452L14.6864 15.9452L14.7172 15.9883L14.7126 15.9898L14.5862 16.0544L14.5677 16.3189L14.6001 16.3466L14.5492 16.4112V16.5173L14.5168 16.6234L14.4706 16.6696L14.3904 16.6557L14.3056 16.7111L14.2593 16.688L14.1514 16.6973L14.0713 16.7619L14.0574 16.8634L14.0111 16.9003L13.9078 16.9234L13.894 16.9787L13.9448 17.0249L13.9633 17.0895L13.9356 17.1679L13.8554 17.2463L13.8416 17.2879L13.8832 17.394L13.9726 17.4678V17.5139L13.8924 17.6108L13.9017 17.7354L13.8739 17.7908L13.7706 17.8323L13.7429 17.9154L13.7614 17.9523L13.6828 17.9969L13.6473 18.1061L13.5918 18.143L13.5625 18.2107L13.5055 18.2353L13.4762 18.2999H13.4145L13.3097 18.3645L13.2681 18.5321L13.0661 18.649L13.0414 18.6967L12.8934 18.8228L12.8857 18.8582L12.804 18.9212L12.6622 19.0073L12.4494 18.9674L12.3353 18.9981L12.2382 19.0566L12.2336 19.0858L12.3924 19.2411L12.6313 19.3672L12.6082 19.5733L12.6375 19.6272L12.693 19.6656L12.6529 19.7241L12.6252 19.8409L12.6822 19.8486L12.693 19.8825L12.6375 20.004L12.5697 20.044L12.6221 20.0747L12.6098 20.1255L12.5543 20.1362L12.5126 20.2239L12.4263 20.3039L12.2953 20.3316L12.2305 20.4238L12.1488 20.4807L12.1195 20.573L12.0748 20.6069L12.1951 20.7161L12.2243 20.836L12.1226 20.9591L12.0979 21.0344L12.0794 21.0467L12.0563 21.0252L12.0116 20.9483L11.9361 20.9468L11.9145 20.8929L11.8559 20.9114L11.8143 20.9914H11.7572L11.7063 21.0267L11.5013 21.0052L11.4504 21.0529L11.2284 21.1175L11.1251 21.2144L11.0172 21.2328L10.9278 21.2051L10.8384 21.2282L10.826 21.3605L10.712 21.3651L10.6734 21.4297L10.5362 21.4343L10.4437 21.4881V21.5189L10.3019 21.5312L10.2865 21.5604L10.1554 21.5358L10.1431 21.6066L10.1076 21.6419L10.0506 21.6019L10.0491 21.5081L9.99201 21.4866L9.91646 21.5543L9.78542 21.6019L9.72222 21.5743L9.66671 21.6419L9.60351 21.5681L9.50484 21.382L9.45243 21.3374L9.36763 21.3328L9.24121 21.5081L9.27667 21.6189L9.26126 21.6296H9.20267L9.08396 21.582L8.91747 21.565L8.88817 21.5927L8.93597 21.765L8.92517 21.8127L8.73863 21.8649L8.68159 21.8419L8.60605 21.7604L8.58447 21.8926L8.62917 22.0095L8.52588 21.9864L8.50276 21.9972L8.47809 22.0849L8.40717 22.1249L8.25146 22.1141L8.13275 22.1556L8.09884 22.2018L7.95546 22.2879L7.86451 22.294L7.81826 22.351L7.846 22.4571L7.77355 22.5309L7.69954 22.554L7.65792 22.637L7.70571 22.7355L7.66563 22.8093L7.71651 22.8539L7.69801 22.9L7.51455 22.9308L7.46676 22.9708L7.29563 22.9723L7.26171 23L7.24321 23.083H7.19696L7.14146 23.1984L7.04434 23.2491L7.01967 23.3414L6.95492 23.4152L6.92255 23.4214L6.92871 23.466L6.75759 23.4322L6.73909 23.5137L6.68051 23.4921L6.70209 23.6136L6.68975 23.7136L6.64196 23.6921L6.63579 23.6167L6.59417 23.5921L6.46775 23.6675L6.50784 23.7275L6.51863 23.7967L6.39375 23.8305L6.33671 23.7659L6.26271 23.789L6.21646 23.8351L6.14092 23.7751L6.07309 23.8582L5.93742 23.892L5.89271 23.9566L5.80792 24.0151L5.81409 24.135L5.88192 24.1519L5.90967 24.2196L5.94976 24.2488L6.0145 24.2335L6.04225 24.2119L6.05921 24.1427L6.12396 24.115L6.16867 24.1396L6.20259 24.2196L6.22109 24.4042L6.19796 24.4626L6.14092 24.5149L6.12396 24.5826L6.11934 24.681L6.17021 24.7441L6.16404 24.801L6.11163 24.8656L6.13475 24.9302L6.18717 24.9655L6.26734 24.944L6.40455 24.9625L6.41071 24.9855L6.38759 25.0471L6.39838 25.1117L6.29046 25.2024L6.3953 25.4008L6.38913 25.4362L6.35983 25.4715L6.36446 25.5162L6.26888 25.6269L6.37525 25.8007L6.45542 26.0806L6.46775 26.2821L6.54946 26.5989L6.49859 26.725L6.56796 26.7665L6.62038 26.765L6.64351 26.8342L6.56334 26.9742L6.42459 27.0434L6.20104 27.1003L6.17792 27.188L6.08234 27.2679L5.90042 27.2987L5.78017 27.3725L5.59363 27.4356L5.53505 27.4802L5.48263 27.6247L5.27759 27.7524L5.22517 27.7309L5.2375 27.6847L5.20821 27.5786L5.22054 27.4494L5.1635 27.3156L5.09105 27.2279L4.99238 27.2172L4.82588 27.2679L4.62392 27.3648L4.32329 27.6109L4.29246 27.5694L4.22 27.554L4.19379 27.4094L4.14138 27.3218L4.22463 27.1572L4.24004 27.0649L4.18763 26.9926L4.12442 26.9634L4.09667 26.7081L3.90242 26.6512L4.00571 26.5282L4.04425 26.3344L3.88392 25.7499L3.77138 25.6161L3.77754 25.4454L3.85309 25.2209L3.85462 25.1163L3.74671 24.8394L3.64034 24.7625L3.38288 24.6533L3.26263 24.538L3.29192 24.3965L3.4985 24.275L3.60488 24.0904L3.70509 23.5783L3.70663 23.3445L3.67271 23.2307L3.64034 23.1722L3.53858 23.0923L3.41525 23.0646L3.28113 22.8954L3.36129 22.6801L3.06529 22.5832L2.88492 22.3356L2.78162 22.2725L2.66908 22.3479L2.49487 22.2325L2.43167 22.1156L2.38542 22.0741L2.08017 21.9895L2.03546 21.948L1.96146 21.9665L1.99229 22.0956L1.95221 22.1587L1.91212 22.171L1.64696 22.0833L1.56062 21.9957L1.48971 21.8588L1.52054 21.4589L1.59146 21.4774L1.64696 21.5343L1.82425 21.5866L1.94604 21.5927L2.10792 21.6896L2.111 21.6112L1.96146 21.4989L1.82733 21.4943L1.79187 21.4235L1.8335 21.3528L1.83967 21.2513L1.62075 21.2559L1.55908 21.2759L1.30008 21.1836L1.18908 21.059L1.12279 20.7622L0.970165 20.3654L1.02258 20.2747L1.12125 20.2547L1.09504 20.1301L1.26925 19.8548L1.32783 19.6072L1.297 19.4257L1.1675 19.135L0.997916 18.9566L0.871498 18.9197L0.681874 18.912L0.638707 18.872L0.643332 18.7751L0.712707 18.6305V18.5506L0.603249 18.4214L0.675708 18.0953L0.634083 17.9538L0.521542 17.8323L0.560083 17.6985L0.444458 17.5616L0.467582 17.4955L0.573958 17.4109L0.654125 17.4032L0.757416 17.2971L0.817541 17.1218L0.751249 16.9034L0.675708 16.8388L0.603249 16.6296L0.62329 16.5988L0.735833 16.625V16.5081L0.828331 16.3358L0.940875 16.2236L0.976333 16.1021L0.9455 15.9083L0.96554 15.7714L1.02258 15.6653L1.13667 15.5592L1.47892 15.3531L1.56217 15.2623V15.1931L1.63925 15.0255L1.74717 14.8778L1.75642 14.7163L1.71633 14.6225L1.72712 14.5825L1.79958 14.5564L2.01233 14.5518L2.06012 14.4841L2.13258 14.4533L2.39313 14.4487L2.57967 14.2334Z" fill="#F1F1F1"/>
<path d="M24.7813 13.1942L25.0033 13.4357L25.1173 13.6249L25.1143 13.691L25.0202 13.8325L24.6024 14.2093L24.4483 14.1447L24.402 14.1463L24.4745 14.2139L24.5068 14.3231L24.493 14.6569L24.5161 14.7492L24.6394 14.8891L24.994 15.1337L25.2176 15.3582L25.9776 15.8042L26.0593 16.0119L26.2628 16.1057L26.3538 16.0918L26.4463 16.1195L26.9242 16.5286L26.9781 16.6701L27.0953 16.807L27.2757 16.8793L27.3173 16.8747L27.51 16.9377L27.5378 16.9623L27.5486 17.1084L27.4622 17.2315L27.3497 17.3376L26.9766 17.5945L26.6621 17.476L26.2042 17.5191L25.7741 17.4806L25.2993 17.3914L25.048 17.2776L24.9401 17.1669L24.8368 16.89L24.7335 16.8024L24.6086 16.7409L24.5716 16.7547L24.567 16.8224L24.937 17.453L24.9508 17.5668L24.9154 17.6237L24.8568 17.6344L24.8044 17.6191L24.6888 17.5114L24.5993 17.496L24.3542 17.5745L24.1692 17.7544L24.1137 17.8728L24.1122 18.0128L23.8485 18.5557L23.7083 18.6572L23.5834 18.9233L23.4739 19.2463L23.4369 19.4354L23.5048 19.6246L23.5772 19.6892L23.6003 19.7953L23.5711 19.8615L23.4739 19.9645L23.3521 20.3444L23.3537 20.4167L23.4462 20.6135L23.3768 21.0934L23.773 20.8365L23.8424 20.815L23.8748 20.8289L23.8856 20.8704L23.7221 21.4225L23.8485 21.6948L23.8532 21.7624L23.8316 21.7963L23.4015 21.987L23.0716 21.9685L22.9636 21.8409L22.8989 21.8809L22.8773 22.0039L22.5767 22.3653L22.2606 22.879L22.202 22.9298L21.9862 23.0251L21.7026 23.0759L21.499 22.6191L21.5468 22.4468L21.5345 22.4161L21.4975 22.4253L21.4235 22.6237L21.425 22.7068L21.533 22.8144L21.6239 23.0159L21.5391 23.3235L21.1923 23.4435L20.961 23.6049L20.941 23.6296L20.9548 23.7464L21.0304 23.8679L21.0134 23.9418L20.9625 24.0033L20.5972 24.1479L20.3413 24.2724L20.1208 24.4109L20.1393 24.4585L20.221 24.5001L20.3289 24.477L20.4199 24.4047L20.5463 24.377L20.6573 24.3893L20.7113 24.4216L20.7513 24.7661L20.7452 25.1153L20.685 25.1906L20.517 25.2491L20.4785 25.2921L20.682 25.3352H20.8068L20.8701 25.2737L20.9225 25.3875L20.9148 25.4398L21.1337 25.4982L21.1167 25.712L21.0088 26.0919L20.8038 25.9981L20.6342 25.9535L20.2179 25.9489L20.0206 25.8843L19.5997 25.8612L19.5396 25.8504L19.4579 25.7751L19.3746 25.8504L19.2544 25.895L19.239 25.9427L19.1788 25.9981L19.0956 26.0242L19.0524 25.9427L19.057 25.7858L18.9476 25.5198L18.9753 25.286L19.0308 25.1999L19.0077 25.1614L18.9152 25.123L18.8381 25.1445L18.7842 25.1014L18.7564 25.1076L18.7888 25.0153L18.7456 24.9661V24.9015L18.795 24.7923L18.8058 24.6831L18.7842 24.3955L18.7287 24.2817L18.6531 24.1955L18.6362 24.1186L18.6578 24.071L18.5483 23.9833L18.5267 23.9341L18.5483 23.8264L18.5051 23.7664L18.4111 23.7495L18.3186 23.788L18.2908 23.7341L18.3016 23.6803L18.4003 23.5926L18.4666 23.4896L18.593 23.3819L18.6423 23.3927L18.6192 23.5111L18.6578 23.5219L18.8227 23.3266L18.8613 23.1743L18.8597 23.1758L18.8952 22.9759L18.9645 22.8944L19.1048 22.7929L19.1095 22.7529L18.9923 22.6514L18.943 22.6622L18.8905 22.7129L18.8551 22.6914L18.8258 22.5853L18.7734 22.5637L18.7117 22.496L18.647 22.5037L18.6146 22.3576L18.5791 22.313L18.3756 22.1838L18.2831 22.0331L18.1613 21.927L17.9023 21.8809L17.8391 21.7255L17.8438 21.5425L17.8006 21.2503L17.7235 21.1841L17.6634 21.0257L17.5524 20.9119L17.5169 20.9027L17.5493 20.735L17.4923 20.7197L17.463 20.4951L17.5277 20.4828L17.5339 20.409L17.4892 20.3398L17.574 20.1937V20.0906L17.6418 20.0506L17.7065 19.9614L17.651 19.7892L17.278 19.9691L17.2333 20.0706L17.1608 20.0722L17.0883 20.1075L16.9712 20.209L16.8324 20.1721L16.6752 20.2014V20.1198L16.6428 20.0476L16.6551 19.9491L16.5858 19.8184L16.5703 19.5969L16.5333 19.5492L16.4763 19.5523L16.427 19.4985L16.336 19.5154L16.2913 19.4385L16.3483 19.3032L16.336 19.2386L16.4023 19.1647L16.4054 19.1109L16.4655 19.1002L16.4948 19.0694L16.5765 18.8956L16.6798 18.8295L16.7214 18.8387L16.7384 18.871L16.7862 18.8464L16.8987 18.8387L16.9249 18.8418L16.9773 18.9156L17.0005 18.8664L17.1839 18.7387L17.2148 18.6787L17.2225 18.5695L17.1223 18.4819L17.0729 18.3819L16.9604 18.2496L16.874 18.0712L16.8293 17.8236L16.7692 17.716L16.6998 17.659L16.6212 17.6375L16.4979 17.7529L16.4917 17.7882L16.538 17.8621L16.4655 17.8436L16.4347 17.779L16.353 17.7283L16.2928 17.7652L16.2158 17.7544L16.0893 17.8467L16.04 17.8252L15.9552 17.8405L15.8797 17.9405L15.7425 18.0389L15.6207 18.0435V18.1404L15.5883 18.2004L15.4341 18.205L15.3308 18.2742L15.3401 18.3773L15.3077 18.3865L15.1998 18.3681L15.1212 18.3019L15.0086 18.2742L14.7697 18.3019L14.7049 18.2742L14.6895 18.2096L14.5924 18.1589V18.1266L14.6433 18.0758L14.5924 17.9267L14.4798 17.8574L14.4336 17.8759L14.3781 17.8621L14.1808 17.9636L14.0975 17.9497L13.9896 17.9866L13.9526 17.9774L13.914 18.0051L13.8493 17.9543H13.7738L13.7552 17.9174L13.783 17.8344L13.8863 17.7929L13.914 17.7375L13.9048 17.6114L13.985 17.5145V17.4683L13.8955 17.3945L13.8539 17.2869L13.8678 17.2453L13.948 17.1669L13.9757 17.0884L13.9572 17.0223L13.9048 16.9762L13.9187 16.9208L14.022 16.8977L14.0682 16.8608L14.0836 16.7593L14.1623 16.6932L14.2702 16.684L14.3164 16.707L14.4012 16.6517L14.4798 16.6655L14.5276 16.6194L14.56 16.5132V16.4071L14.6109 16.341L14.5785 16.3133L14.597 16.0488L14.7234 15.9842L14.7805 15.9611L14.8175 15.8919L14.9254 15.878L15.169 15.775L15.2568 15.6919L15.6546 15.9242L15.7163 15.9057L15.7486 15.8396L15.8704 15.9042L15.909 15.9749L16.0045 16.0534L16.2497 16.1241L16.3699 16.2579L16.4008 16.4148L16.4331 16.4548L16.5595 16.384L16.6705 16.3994L16.7507 16.4317L16.7985 16.4932L16.8216 16.5886L16.8848 16.6593L16.9558 16.6901L17.059 16.6978L17.1947 16.5486H17.4013L17.4876 16.5886L17.6063 16.604L17.7343 16.4625L17.8931 16.4932L18.0118 16.3517L18.0904 16.3133L18.1305 16.0688L18.1937 16.0057L18.4959 16.0149L18.852 15.8811L19.2097 15.8734L19.3685 15.7396L19.4548 15.5581L19.5905 15.4397L19.8356 15.1106L20.0345 14.7322L19.9867 14.5523L20.0021 14.4492L20.0745 14.3631L20.241 14.277L20.2796 14.1739L20.3829 14.1109L20.4076 13.9848L20.4153 13.6464L20.4461 13.5372L20.574 13.325L20.6296 13.285L20.6773 13.0804L20.7159 13.0327L20.796 13.0251L20.8824 13.1127L21.0026 13.1589L21.0489 13.2065V13.2696L21.1445 13.3173L21.2555 13.308L21.4143 13.2619L21.6841 13.0881L22.0325 12.9697L22.3423 12.7897L22.5412 12.7821L22.7632 12.8282L23.0083 12.7651H23.144L23.2226 12.9389L23.3182 13.0097L23.5171 13.1035L23.5957 13.1204L23.7622 13.0804L23.8331 13.1281L24.0089 13.3403L24.2216 13.4188L24.2787 13.4265L24.476 13.308L24.6749 13.285" fill="white"/>
<path d="M20.5648 29.3155L20.5385 29.3463L20.369 29.0725L20.4692 28.8188L20.6018 28.6511L20.6372 28.6419L20.668 28.7111V28.8018L20.5648 29.3155ZM19.8386 30.3844L19.7523 30.4091L19.6706 30.4014L19.6598 30.3691L19.669 30.2506L19.7292 30.0538L19.7199 29.7785L19.5812 29.5862L19.5426 29.4616L19.5457 29.3601L19.8386 28.505L20.2163 28.2359L20.2518 28.2451L20.261 28.2989L20.2055 28.6511L20.2472 29.0587L20.3736 29.6708L20.3366 30.0445L19.9496 30.3337L19.8386 30.3844ZM18.8612 23.1743L18.8227 23.3266L18.6593 23.5219L18.6207 23.5111L18.6423 23.3912L18.593 23.3804L18.4665 23.4896L18.4002 23.5927L18.3016 23.6788L18.2908 23.7326L18.3185 23.7864L18.411 23.748L18.5035 23.7649L18.5467 23.8249L18.5251 23.9341L18.5467 23.9833L18.6562 24.0694L18.6346 24.1186L18.6515 24.194L18.7286 24.2801L18.7826 24.3939L18.8042 24.6816L18.7934 24.7908L18.744 24.8999V24.9645L18.7872 25.0138L18.7548 25.106L18.7826 25.0999L18.8365 25.143L18.9136 25.1214L19.0061 25.1599L19.0277 25.1983L18.9738 25.2844L18.946 25.5182L19.0555 25.7843L19.0493 25.9412L19.0925 26.0227L19.1742 25.995L19.2343 25.9412L19.2513 25.892L19.3715 25.8489L19.4532 25.7735L19.5349 25.8489L19.595 25.8597L20.0159 25.8812L20.2133 25.9458L20.6295 25.9519L20.7991 25.995L21.0041 26.0904L20.944 26.378L20.8638 26.4795L20.8022 26.4825L20.7775 26.4579L20.759 26.3641L20.6418 26.3026L20.3366 26.3641L20.3289 26.6133L20.4846 26.7532L20.5154 27.2316L20.4645 27.3623L20.2503 27.6391L20.1716 27.6791L20.1362 27.6714L20.0992 27.6176L20.0668 27.433L19.9203 27.1793L19.8895 27.15L19.8695 27.1716L19.8109 27.4361L19.8402 27.573L19.9913 27.7883L20.0791 27.8652L20.0945 28.0159L19.9758 28.0759L19.7831 28.3389L19.5488 28.7803L19.4902 29.1571L19.4532 29.2294L19.3946 29.2632L19.0894 29.3078L18.9121 29.477L18.8119 29.5416L18.3124 29.7539L17.614 30.0046L16.6582 30.4029L16.0739 30.7536L15.8827 30.7782L15.8272 30.7182L15.8072 30.6305L15.8056 29.5047L15.7887 29.3755L15.7347 29.2679L15.5775 29.0618L15.468 28.9603L15.3555 28.9726L15.118 28.8372V28.6973L15.2383 28.3328L15.4634 27.9806L15.5235 27.633L15.7594 27.1716L15.912 27.1285L15.966 27.0854L15.9937 27.0531L15.9721 27.0147L16.0045 26.9547L16.06 26.9716L16.191 26.9224L16.262 26.8301L16.3113 26.5533L16.4192 26.4687L16.4963 26.3487L16.4901 26.2503L16.5225 26.2011L16.6104 26.2072L17.52 25.5505L17.5801 25.5936L17.6294 25.5874L17.6618 25.386L17.7219 25.2614L17.6125 25.023V24.963L17.7605 24.8492L17.799 24.7246L17.6957 24.5831L17.6788 24.4632L17.7882 24.1217L17.9254 23.525L17.947 23.4973L18.2322 23.4758L18.5112 23.3727L18.5714 23.3235L18.6485 23.3404L18.8011 23.2205L18.8612 23.1743Z" fill="#F1F1F1"/>
<path d="M5.48718 27.625L5.54114 27.4819L5.59972 27.4373L5.78472 27.3743L5.90497 27.302L6.08689 27.2697L6.18247 27.1897L6.2056 27.102L6.42914 27.0451L6.56943 26.9759L6.6496 26.836L6.62493 26.7668L6.57251 26.7698L6.50314 26.7268L6.55401 26.6022L6.47231 26.2838L6.45843 26.0839L6.37827 25.8024L6.27343 25.6286L6.36747 25.5179L6.36439 25.4733L6.39368 25.4379L6.39985 25.4026L6.29347 25.2042L6.40139 25.1134L6.3906 25.0488L6.41527 24.9888L6.40756 24.9658L6.27035 24.9458L6.19018 24.9673L6.13777 24.9319L6.11464 24.8673L6.16705 24.8012L6.17322 24.7458L6.12389 24.6828L6.12697 24.5843L6.14393 24.5167L6.20097 24.4644L6.2241 24.4059L6.2056 24.2214L6.17168 24.1414L6.12697 24.1168L6.06222 24.1445L6.04527 24.2137L6.01752 24.2337L5.95276 24.2491L5.91268 24.2198L5.88493 24.1522L5.8171 24.1352L5.81093 24.0168L5.89572 23.9584L5.93889 23.8922L6.07456 23.8599L6.14239 23.7754L6.21793 23.8369L6.26418 23.7907L6.33818 23.7677L6.39522 23.8323L6.5201 23.7984L6.5093 23.7292L6.46922 23.6692L6.59564 23.5939L6.63881 23.6185L6.64497 23.6938L6.69276 23.7154L6.70664 23.6139L6.68506 23.4924L6.74364 23.5139L6.76368 23.4324L6.93481 23.4662L6.9271 23.4216L6.95947 23.4155L7.02423 23.3416L7.05043 23.2509L7.14756 23.2001L7.20306 23.0848H7.24931L7.26781 23.0017L7.30172 22.9741L7.47285 22.9725L7.52064 22.9325L7.70564 22.9002L7.72414 22.8541L7.67327 22.811L7.71335 22.7372L7.66402 22.6388L7.70718 22.5557L7.78118 22.5327L7.8521 22.4588L7.82589 22.3527L7.87214 22.2958L7.9631 22.2896L8.10648 22.2035L8.14039 22.1589L8.25756 22.1159L8.41481 22.1266L8.48572 22.0866L8.51039 21.999L8.53352 21.9882L8.63835 22.0113L8.59364 21.8944L8.61522 21.7621L8.69077 21.8436L8.74781 21.8667L8.93281 21.8144L8.9436 21.7667L8.89581 21.596L8.9251 21.5683L9.0916 21.5852L9.21031 21.6329H9.26889L9.28431 21.6222L9.24731 21.5114L9.37527 21.3361L9.45852 21.3407L9.51248 21.3838L9.61115 21.5699L9.67435 21.6437L9.72985 21.576L9.79306 21.6037L9.9241 21.556L9.99964 21.4884L10.0567 21.5099L10.0582 21.6037L10.1153 21.6437L10.1523 21.6083L10.1646 21.536L10.2956 21.5622L10.3095 21.533L10.4514 21.5207V21.4884L10.5439 21.4345L10.6811 21.4299L10.7196 21.3653L10.8337 21.3607L10.846 21.23L10.9354 21.2069L11.0233 21.233L11.1312 21.2146L11.2345 21.1177L11.4565 21.0531L11.5074 21.0054L11.7124 21.027L11.7633 20.99H11.8204L11.862 20.9116L11.9221 20.8931L11.9421 20.947L12.0192 20.9485L12.0624 21.027L12.0855 21.0469L12.1056 21.0346L12.1302 20.9593L12.232 20.8362L12.2027 20.7163L12.0824 20.6071L12.1256 20.5748L12.1564 20.4825L12.2381 20.4256L12.3029 20.3333L12.4355 20.3056L12.5218 20.2272L12.5634 20.1395L12.6189 20.1288L12.6313 20.078L12.5789 20.0472L12.6467 20.0073L12.7006 19.8858L12.6899 19.8519L12.6328 19.8442L12.6606 19.7258L12.7006 19.6674L12.6467 19.6305L12.6159 19.5766L12.6405 19.369L12.4016 19.2444L12.2428 19.0891L12.2474 19.0599L12.3445 19.0014L12.4586 18.9707L12.6714 19.0091L12.8132 18.9245L12.8949 18.8615L12.9041 18.8261L13.0521 18.7L13.0768 18.6523L13.2803 18.5354L13.3219 18.3678L13.4268 18.3032H13.4884L13.5177 18.2386L13.5748 18.2124L13.6041 18.1463L13.6596 18.1078L13.695 17.9986L13.7737 17.954H13.8492L13.9139 18.0048L13.9525 17.9771L13.9895 17.9863L14.0974 17.9494L14.1806 17.9633L14.378 17.8618L14.4335 17.8756L14.4797 17.8571L14.5923 17.9264L14.6431 18.0755L14.5923 18.1263V18.1586L14.6894 18.2093L14.7048 18.2739L14.7696 18.3016L15.0085 18.2739L15.1211 18.3016L15.1997 18.3678L15.3076 18.3862L15.34 18.377L15.3307 18.2739L15.434 18.2047L15.5882 18.2001L15.6206 18.1401V18.0432L15.7424 18.0386L15.8796 17.9402L15.9551 17.8402L16.0399 17.8248L16.0892 17.8464L16.2157 17.7541L16.2927 17.7649L16.3529 17.7279L16.4346 17.7787L16.4654 17.8433L16.5379 17.8618L16.4916 17.7879L16.4978 17.7526L16.6211 17.6372L16.6997 17.6587L16.7691 17.7156L16.8292 17.8233L16.8739 18.0709L16.9603 18.2493L17.0728 18.3816L17.1222 18.4816L17.2224 18.5692L17.2147 18.6784L17.1838 18.7384L17.0004 18.8661L16.9772 18.9153L16.9248 18.8415L16.8986 18.8384L16.7861 18.8461L16.7383 18.8707L16.7213 18.8384L16.6797 18.8292L16.5764 18.8953L16.4947 19.0691L16.4654 19.0998L16.4053 19.1106L16.4022 19.1644L16.3359 19.2383L16.3482 19.3029L16.2912 19.4382L16.3359 19.5151L16.4269 19.4982L16.4762 19.552L16.5332 19.5489L16.5702 19.5966L16.5857 19.8181L16.655 19.9488L16.6427 20.0472L16.6751 20.1195V20.201L16.8323 20.1718L16.9711 20.2087L17.0882 20.1072L17.1607 20.0719L17.2332 20.0703L17.2779 19.9688L17.6509 19.7889L17.7064 19.9611L17.6417 20.0503L17.5739 20.0903V20.1934L17.4891 20.3395L17.5338 20.4087L17.5276 20.4825L17.4629 20.4948L17.4922 20.7194L17.5492 20.7347L17.5168 20.9024L17.5523 20.9116L17.6633 21.0254L17.7234 21.1838L17.8005 21.25L17.8437 21.5422L17.839 21.7252L17.9022 21.8805L18.1612 21.9267L18.283 22.0328L18.3755 22.1835L18.579 22.3127L18.6145 22.3573L18.6469 22.5034L18.7116 22.4957L18.7733 22.5634L18.8257 22.5849L18.855 22.6911L18.8904 22.7126L18.9429 22.6618L18.9922 22.6511L19.1094 22.7526L19.1047 22.7926L18.9644 22.8941L18.8951 22.9756L18.8596 23.1755L18.8057 23.2232L18.653 23.3432L18.5759 23.3263L18.5158 23.3755L18.2368 23.4785L17.9516 23.5001L17.93 23.5277L17.7928 24.1245L17.6833 24.4659L17.7003 24.5859L17.8036 24.7274L17.765 24.852L17.617 24.9658V25.0257L17.7265 25.2641L17.6664 25.3887L17.634 25.5902L17.5847 25.5948L17.5245 25.5517L16.6165 26.2085L16.5286 26.2039L16.4947 26.2531L16.5009 26.35L16.4238 26.4699L16.3159 26.5545L16.2665 26.8314L16.1956 26.9236L16.0646 26.9713L16.0091 26.9559L15.9767 27.0159L15.9983 27.0528L15.9705 27.0867L15.9166 27.1297L15.7624 27.1728L15.5281 27.6342L15.4679 27.9818L15.2429 28.3355L15.1226 28.6985V28.8384L14.7495 28.6616L14.4628 28.5847L14.2747 28.5985L13.7212 28.863L13.436 28.9061L13.3127 28.9015L13.1477 28.8015L13.2233 28.5616L13.2341 28.3186L13.194 28.1786L13.1385 28.0971L12.7901 28.1187L12.7207 28.194L12.6945 28.2863L12.4987 28.3309L12.1765 28.1263L11.6955 27.625L11.6153 27.6142L11.3887 27.8603L11.3717 27.9479L11.4396 28.0356L11.3933 28.1894L10.883 28.5016L10.7011 28.6293L10.5932 28.74L10.3234 28.8231L10.2741 28.8184L9.96881 28.577L9.67127 28.4739L9.51093 28.4709L9.28739 28.557L8.71852 29.0984L8.62447 29.1507L8.56127 29.1599L8.33773 29.0676L8.43793 28.7169L8.36547 28.154V28.0279L8.40864 27.8618L8.40402 27.7511L8.19435 27.3773L8.13268 27.1313L8.05868 27.1205L8.06948 27.2435L7.9816 27.3727L8.04789 27.4266L8.03247 27.4958L7.88756 27.5219L7.84131 27.5727L7.65014 27.6911L7.62393 27.6188L7.48364 27.4958L7.36956 27.4081L7.30327 27.3973H7.0751L6.60489 27.6665L6.41681 27.748L6.26727 27.7941L6.0391 27.8249L5.70302 27.588L5.48718 27.625Z" fill="#C4C4C4"/>
<path d="M23.9611 11.025L23.8747 11.0911L23.6758 10.9342L23.6034 10.7435L23.608 10.6804L23.6327 10.6466L23.8578 10.6281L23.9842 10.6666L24.0073 10.7158L23.9611 11.025ZM23.2318 10.2883L23.571 10.4882L23.5695 10.519L23.4862 10.5912L23.2257 10.4774L22.9281 10.462L22.8295 10.4144L22.7678 10.3313L22.7801 10.2652L22.9204 10.2067L23.2318 10.2883ZM24.1091 9.15013L23.9888 9.19473L23.8053 9.06093L23.7776 8.92405L23.7884 8.89021L23.9086 8.75948L23.9842 8.76717L24.1769 8.92251L24.1923 8.9948L24.1091 9.15013ZM24.5376 8.64106L24.6039 8.67028L24.6687 8.97942L24.5823 9.04709L24.5037 9.05939L24.4097 9.01171L23.867 8.578L23.8763 8.53801L24.015 8.4242L24.0936 8.41958L24.2478 8.47341L24.2771 8.53186L24.3665 8.59645L24.5376 8.64106ZM18.6855 8.86253L18.6916 8.71949L18.7425 8.61645L18.7995 8.62106L18.9213 8.4811L18.983 8.49033L19.0046 8.54109L19.0678 8.52417L19.0878 8.4365L19.1988 8.34422L19.1773 8.27963L19.1958 8.11967L19.2775 8.09045L19.3283 8.17812L19.5611 8.22426L19.6028 8.25502L19.6197 8.33038L19.7199 8.40728L19.7508 8.38729L19.8109 8.2704L19.9419 8.21964L19.962 8.12121L19.9851 8.10429L20.2025 8.13659L20.2487 8.16428L20.483 8.11045L20.6634 8.25963L20.6943 8.35806L20.7852 8.33653L20.8207 8.25348L20.8777 8.27809L20.9502 8.26578L20.9425 8.17043L21.0257 8.06738L21.0889 8.13659L21.1475 8.15505L21.186 8.24887L21.3048 8.21195L21.3865 8.23656L21.4343 8.22118L21.4774 8.19657L21.5175 8.11967L21.5807 8.15812L21.6393 8.23195L21.6794 8.21503L21.7549 8.25809L21.8613 8.22733L21.943 8.16428L22.0556 8.19196L22.1003 8.22733L22.2005 8.23656L22.2436 8.2827L22.2961 8.22272L22.4672 8.24579L22.5674 8.21964L22.6583 8.23656L22.757 8.21195L22.7709 8.18273L22.8526 8.15043L23.3182 8.4811L23.3798 8.61337L23.4168 8.63644L23.6034 8.68873L23.7406 8.64875L23.7776 8.67489L23.6527 8.75179L23.5124 8.79486L23.2719 8.72565L23.2457 8.75487V8.841L23.3058 8.89021L23.4538 8.92559L23.8608 9.26702L23.5911 9.30701L23.847 9.45312L24.0875 9.47926L24.2833 9.68536L24.2894 9.72534L24.2509 9.82378L24.4143 9.87299L24.402 9.91144L24.217 10.0837L24.052 10.116L23.5633 10.1514L23.1517 10.0929L22.8742 10.1391L22.8002 10.1837L22.7323 10.2836L22.737 10.3467L22.8233 10.4805L23.0515 10.6235L23.2457 10.6005L23.3691 10.6328L23.3721 10.762L23.329 10.8419L23.6003 10.9834L23.5741 11.0265L23.3798 11.0526L23.2473 11.1049L23.2025 11.1757L23.053 11.2018L23.0268 11.2541L23.1101 11.3033L23.4199 11.3572L23.8377 11.5386L24.0258 11.8585L23.9826 12.1062L23.9811 12.3L24.1383 12.3276L24.2617 12.403L24.2941 12.4538L24.3156 12.6598L24.3511 12.7706L24.7797 13.192L24.6733 13.2827L24.4744 13.3058L24.2756 13.4242L24.2201 13.4165L24.0058 13.3381L23.8316 13.1259L23.7606 13.0782L23.5941 13.1182L23.5155 13.1028L23.3166 13.009L23.2211 12.9382L23.1424 12.7644H23.0083L22.7616 12.8275L22.5396 12.7798L22.3408 12.7875L22.0309 12.969L21.6825 13.0874L21.4127 13.2612L21.2539 13.3089L21.1429 13.3166L21.0473 13.2689V13.2058L21.0026 13.1582L20.8839 13.1105L20.796 13.0243L20.7174 13.032L20.6773 13.0797L20.6295 13.2843L20.574 13.3243L20.4476 13.5365L20.4152 13.6472L20.4075 13.9856L20.3844 14.1117L20.2811 14.1748L20.241 14.2763L20.0745 14.3624L20.0036 14.4485L19.9882 14.5516L20.036 14.7331L19.8371 15.1099L19.5904 15.4405L19.4563 15.559L19.3684 15.7405L19.2096 15.8743L18.852 15.882L18.4958 16.0158L18.1937 16.0081L18.1305 16.0711L18.0904 16.3141L18.0118 16.3541L17.893 16.4956L17.7343 16.4649L17.6078 16.6063L17.4891 16.591L17.4013 16.551H17.1947L17.0605 16.7002L16.9573 16.6925L16.8863 16.6617L16.8231 16.591L16.8 16.4972L16.7522 16.4341L16.6736 16.4033L16.5626 16.388L16.4362 16.4587L16.4038 16.4187L16.3714 16.2618L16.2527 16.128L16.0076 16.0573L15.912 15.9788L15.8719 15.9081L15.7501 15.8435L15.8257 15.7189L15.7979 15.6728L15.8164 15.5574L15.9397 15.4851L16.0199 15.3437L16.0785 15.296L16.0985 15.1437L16.0816 14.9607L16.0615 14.9407L16.1371 14.8392L16.1263 14.7977L16.2126 14.7731L16.2959 14.8115L16.3653 14.7131L16.4685 14.6962L16.524 14.6439L16.4624 14.5193L16.4701 14.4839L16.5765 14.4039L16.5734 14.3701L16.4948 14.3316L16.3776 14.3839L16.3468 14.3147L16.3714 14.1671L16.3175 14.1379L16.2928 14.0933L16.2897 13.9671L16.3421 13.7657L16.6258 13.7349L16.746 13.6595L16.7522 13.6242L16.7013 13.558L16.7491 13.4611L16.8524 13.4781L16.9187 13.4427L16.9973 13.3519H17.1006L17.1315 13.2612L17.2008 13.1981L17.2903 13.1705L17.4105 13.1735L17.503 13.0966L17.5138 13.049L17.4413 12.9967L17.4244 12.9444L17.3211 12.8229L17.1685 12.8705L17.1207 12.7983L17.1685 12.7398L17.1823 12.6768V12.6014L17.1469 12.5799V12.5214L17.2394 12.4414V12.3753L17.2671 12.323L17.2394 12.2815L17.1608 12.2615L17.1546 12.2338L17.3026 12.1154L17.3411 11.9524L17.5863 11.7893L17.6387 11.6617L17.7327 11.7617L17.7389 11.8247L17.9285 11.8109L18.0534 11.6924L18.2122 11.6709L18.2399 11.6186V11.4894L18.26 11.451L18.3848 11.3479V11.3172L18.2754 11.2372L18.2677 11.2095L18.3324 10.7773L18.4295 10.5835L18.482 10.5866L18.5436 10.6835L18.6053 10.5943L18.5159 10.439L18.4958 10.2698L18.4373 10.1975L18.4126 10.0652L18.4203 9.82685L18.4419 9.71765L18.522 9.5577L18.5282 9.47157L18.5205 9.44389L18.4003 9.35776L18.3802 9.31008L18.5113 9.27471L18.5806 9.21165L18.6839 8.89175L18.6855 8.86253Z" fill="#C4C4C4"/>
<path d="M23.3459 2.15082L23.2904 2.15697L23.1255 2.11698L23.0838 2.0693L23.1039 2.03239L23.2534 2.02009L23.3583 1.97856L23.3768 1.94319L23.3613 1.91089L23.2673 1.89859L23.258 1.86167L23.2858 1.83399L23.4384 1.79554L23.5032 1.84168L23.5648 1.94473L23.5587 2.01701L23.5263 2.057L23.3459 2.15082ZM21.6131 2.26924L21.6563 2.28924L21.721 2.28001L21.8228 2.23694L22.3176 1.62636L22.3346 1.57868L22.2683 1.39874L22.2714 1.33414L22.3716 1.21571L22.4271 1.1788L22.5751 1.15573L22.663 1.18495L22.8526 1.30492L22.8618 1.45564L22.8418 1.52639L22.8634 1.77555L22.9559 2.11544L23.4323 2.38305L23.6774 2.38767L23.9163 2.44919L23.9919 2.51071L24.1198 2.69219L24.1599 2.78909L24.1152 3.13514L24.0813 3.15513L23.9795 3.13975L23.9009 3.17051L23.8223 3.23203L23.7899 3.30585L23.7945 3.3443L23.9564 3.58115L23.9888 3.86415L23.8685 3.97642L23.5294 4.09331L24.274 4.04255L24.553 3.94258L24.8198 3.66728L24.8737 3.65344L24.9847 3.76418L25.1882 4.1779L25.0695 4.32093L24.9631 4.33939L24.6718 4.3117L24.6101 4.35477L24.6363 4.46858L24.7365 4.65468L25.1898 4.64237L25.2715 4.38399L25.3254 4.33939L25.5443 4.27633L25.8511 4.33016L26.1209 4.46089L26.3984 4.64545L26.585 4.78079L26.7006 4.90383L27.3481 5.33293L27.7088 5.40061L27.7952 5.37754L27.8723 5.31755L28.028 5.29756L28.159 5.40368L28.2577 5.55902L28.2484 5.88046L28.1189 6.07886L27.9786 6.17576L27.7088 6.28803L27.291 6.4003L26.7268 6.62485L26.3213 6.58333L26.0469 6.47567L25.9575 6.39261L25.8003 6.37877L25.4087 6.57564L25.2298 6.77096L25.2083 6.86324L25.6075 7.32156L25.9668 7.5538L26.0007 7.50612L26.0284 7.50151L26.1471 7.55534L26.1518 7.62916L26.0993 7.69991L26.2119 7.79988L26.3044 7.73375L26.44 7.74451L26.5742 7.96599L26.5341 8.02597L26.3198 8.19669L25.9359 8.20438L25.347 8.31357L25.1913 8.35971L24.8475 8.53504L24.607 8.4766L24.4929 8.3674L24.0397 8.13517L23.8701 8.19053L23.9302 8.41969L23.7945 8.5981L23.7714 8.675L23.7344 8.64886L23.5972 8.68884L23.4107 8.63655L23.3737 8.61348L23.312 8.48122L22.8464 8.15055L22.7647 8.18284L22.7508 8.21207L22.6522 8.23667L22.5612 8.21976L22.461 8.2459L22.2899 8.22283L22.2375 8.28281L22.1943 8.23667L22.0941 8.22745L22.0494 8.19207L21.9368 8.16439L21.8551 8.22745L21.7488 8.25821L21.6732 8.21514L21.6331 8.23206L21.5745 8.15824L21.5113 8.11979L21.4713 8.19669L21.4281 8.22129L21.3803 8.23667L21.2986 8.21207L21.1799 8.24898L21.1413 8.15516L21.0828 8.1367L21.0195 8.06749L20.9363 8.17054L20.944 8.26589L20.8715 8.2782L20.8145 8.25359L20.779 8.33664L20.6943 8.35818L20.665 8.26128L20.4846 8.1121L20.2503 8.16593L20.204 8.13824L19.9866 8.10594L19.9635 8.12286L19.9435 8.22129L19.8124 8.27205L19.7523 8.38894L19.7215 8.40893L19.6213 8.33203L19.6043 8.25667L19.5627 8.22591L19.3299 8.17977L19.279 8.0921L19.1973 8.12132L19.1788 8.28128L19.2004 8.34587L19.0894 8.43815L19.0693 8.52582L19.0061 8.54274L18.9845 8.49198L18.9229 8.48275L18.8011 8.62271L18.744 8.6181L18.6932 8.72114L18.687 8.86418V8.86879L18.6346 8.85802L18.5498 8.79189L18.502 8.67808L18.5683 8.5089V7.63224L18.4727 7.09548L18.3972 6.46336L18.1335 6.42337L18.2692 6.36801L18.3463 6.29726L18.3895 6.0035L18.3494 5.94198L18.2708 5.94813L18.152 5.8943L17.8175 5.65899L17.873 5.41599L18.2677 5.10685L18.892 5.09916L19.0385 5.06225L19.1218 4.98227L19.2451 4.76695L19.3083 4.49473L19.6613 4.24711L19.6675 4.08869L19.7662 3.8826L19.8186 3.48426L20.4013 2.8583L20.8608 2.51225L20.8777 2.3769L21.2415 1.96011L21.24 1.76786L21.277 1.57253L21.4343 1.24955L21.536 1.11574L21.5684 1.1019L21.7441 1.2557L21.7626 1.29877L21.815 1.68634L21.7935 1.80938L21.6825 1.95242L21.6054 2.11083L21.5946 2.2231L21.6131 2.26924ZM22.9451 0.311372L22.9281 0.526691L22.8588 0.685105L22.589 0.712789L22.4518 0.795841L22.4009 0.881969H22.367L22.3284 0.706637L22.3562 0.437488L22.3778 0.40519L22.5766 0.271384L22.7832 0.222168L22.9065 0.245238L22.9451 0.311372ZM21.8567 0.571293L21.8089 0.672801L21.7965 0.660497L21.8675 0.431336L22.1928 0.222168L22.2375 0.340594L22.239 0.45133L22.0787 0.517464L21.8567 0.571293Z" fill="white"/>
<path d="M7.28645 13.4264L7.17082 13.471L7.12458 13.4387L6.9997 13.2326L7.02128 13.108L6.97195 12.4836L6.9997 12.3929L7.06754 12.359L7.13537 12.4129L7.20782 12.5759L7.19549 13.1127L7.28645 13.4264ZM18.1321 6.42236L18.3957 6.46235L18.4713 7.09447L18.5668 7.63123V8.50789L18.5006 8.67707L18.5483 8.79088L18.6331 8.85701L18.6856 8.86778L18.684 8.88777L18.5807 9.20768L18.5113 9.27074L18.3803 9.30611L18.4003 9.35379L18.5206 9.43991L18.5283 9.4676L18.5221 9.55373L18.442 9.71368L18.4204 9.82288L18.4127 10.0613L18.4373 10.1935L18.4959 10.2658L18.516 10.435L18.6054 10.5903L18.5437 10.6795L18.4821 10.5826L18.4296 10.5796L18.3325 10.7734L18.2678 11.2055L18.2755 11.2332L18.3849 11.3132V11.344L18.2601 11.447L18.24 11.4855V11.6146L18.2123 11.6669L18.0535 11.6885L17.9286 11.8069L17.739 11.8207L17.7328 11.7577L17.6388 11.6577L17.5863 11.7854L17.3412 11.9484L17.3027 12.1114L17.1547 12.2298L17.1608 12.2575L17.2395 12.2775L17.2672 12.319L17.2395 12.3713V12.4375L17.147 12.5174V12.5759L17.1824 12.5974V12.6728L17.1686 12.7358L17.1208 12.7943L17.1686 12.8666L17.3212 12.8189L17.4245 12.9404L17.4414 12.9927L17.5139 13.045L17.5031 13.0927L17.4106 13.1696L17.2903 13.1665L17.2009 13.1942L17.1316 13.2572L17.1007 13.348H16.9974L16.9188 13.4387L16.8525 13.4741L16.7492 13.4572L16.7014 13.5541L16.7523 13.6202L16.7461 13.6556L16.6259 13.7309L16.3422 13.7617L16.2898 13.9632L16.2929 14.0893L16.3176 14.1339L16.3715 14.1631L16.3468 14.3108L16.3777 14.38L16.4948 14.3277L16.5735 14.3661L16.5766 14.4L16.4702 14.4799L16.4625 14.5153L16.5241 14.6399L16.4686 14.6922L16.3653 14.7091L16.296 14.8075L16.2127 14.7691L16.1264 14.7937L16.1372 14.8352L16.0616 14.9367L16.0817 14.9567L16.0986 15.1397L16.0786 15.292L16.02 15.3397L15.9398 15.4812L15.8165 15.5535L15.798 15.6688L15.8258 15.7149L15.7502 15.8395L15.7178 15.9041L15.6577 15.9226L15.26 15.6903L15.1705 15.7734L14.927 15.8749L14.819 15.8887L14.782 15.9579L14.7296 15.9795L14.6988 15.9364L14.5493 15.8364L14.079 15.8857L14.0174 15.9549L13.7214 16.0764L13.7106 16.1025L13.7306 16.1333L13.6875 16.2625L13.3945 16.3809L13.336 16.4501L13.282 16.4839H13.2358L13.1864 16.4686L13.0708 16.2625L12.9675 16.2163L12.8411 16.224L12.7532 16.2579L12.7023 16.304L12.6407 16.3009L12.5944 16.244L12.5019 16.1871L12.4757 16.1333L12.3647 16.0564L12.246 16.0256L11.9993 16.0487L11.8837 16.0149L11.8251 15.9118L11.7681 15.9041L11.56 15.9733L11.4443 15.9626L11.4675 15.8934L11.5137 15.8472L11.5908 15.8211L11.6679 15.6688L11.6941 15.6611L11.674 15.5996L11.5939 15.5535L11.4967 15.535L11.3549 15.5458L11.2285 15.5119L11.1977 15.5196L11.1437 15.5919L11.0558 15.638L11.0019 15.635L10.9171 15.5735L10.6627 15.5919L10.2156 15.535L10.0584 15.5919L10.046 15.638L9.96125 15.6796L9.7192 15.7334L9.52341 15.8549H9.45866L9.38158 15.9395L9.44633 16.0395L9.43862 16.1394L9.30758 16.2686L9.28445 16.4978L9.24591 16.5901L9.25054 16.69L8.75412 16.7239L8.546 16.9377L8.49666 17.0561L8.23458 17.0023L8.14516 17.0284L7.99099 16.9484L7.94937 16.9515L7.77516 17.0776L7.69499 17.0884L7.67958 17.1684L7.64412 17.1714L7.5362 16.9915L7.41749 16.973L7.30957 17.0192L7.23249 17.0222L7.15541 16.973L6.88561 16.8854L6.83628 16.8392L6.53566 16.9269L5.94211 17.0038L5.90049 17.0961L5.80336 17.1807L5.69236 17.1991L5.5459 17.2837L5.4272 17.3222L5.36861 17.3714L5.29924 17.3744L5.22986 17.3052L5.1682 17.4083L5.0834 17.4267L4.97086 17.416L4.78586 17.3514L4.7319 17.3099L4.59315 17.0991L4.44361 17.0607H4.29253L4.2432 16.9115L4.17844 16.8008L4.10445 16.7393L4.08132 16.6593L4.01195 16.5562L3.8994 16.5332L3.8069 16.5439L3.74061 16.4901L3.68665 16.3563L3.45694 16.2425L3.43074 16.0287L3.39219 15.9826L3.31511 15.9518L3.11932 15.9441L2.99136 15.7457L2.9374 15.7226L2.65682 15.4443L2.61057 15.3443L2.67532 15.0152L2.65219 14.9613L2.46719 14.9152L2.40553 14.8198L2.33615 14.7706L2.29761 14.6799L2.30532 14.6076L2.39782 14.5968L2.44407 14.4815L2.50265 14.4476L2.57973 14.2354L2.60286 14.4169L2.59207 14.5922L2.64448 14.6937L2.74777 14.8168L3.2519 15.1597L3.32744 15.2428L3.47082 15.2643L4.19386 15.2028L4.36499 14.969L4.40044 14.949L4.43128 14.9598L4.79203 15.3674L4.79974 15.4181L5.39328 15.5965L5.47499 15.6411L5.49349 15.6903L5.47807 15.7411L5.32082 15.878L5.35166 15.8934L5.47653 15.8718L5.55207 15.8011L5.58445 15.5811L5.71086 15.5673L6.12249 15.7565L6.35374 15.9979L6.60041 16.1071L7.03824 16.1887L7.19549 16.1548L6.95191 15.9779L6.83166 15.9703L6.68828 16.0225L6.61274 16.0133L6.34141 15.8488L6.22116 15.6596L6.18724 15.5565L6.26432 15.3074L6.35837 15.2643L6.6482 14.5615L6.73453 14.2477L6.82549 14.12L6.86712 14.097L7.05366 14.1447L7.11841 14.1093L7.17545 14.037L7.18007 14.0062L7.13537 13.9939L6.70062 14.0524L6.64974 14.0401L6.67749 13.7325L6.75303 13.371L6.79157 13.308L6.84245 13.2895L7.03207 13.4003L7.17237 13.5279L7.24174 13.4833L7.39128 13.451L7.26487 13.1542L7.35428 12.6466L7.38512 12.5882L7.97249 12.1837L8.38566 12.116L8.72329 12.0976L9.10408 12.0314L11.1622 11.5131L11.3981 11.4393L11.5507 11.3563L11.6355 11.2763L11.7434 11.1117L12.2568 10.4934L12.6299 9.949L12.9043 9.6414L13.3098 9.31226L13.4855 9.14155L13.9943 8.48636L14.096 8.28181L14.1762 7.96805L14.1685 7.84809L14.0914 7.62354L14.1022 7.58971L14.1839 7.5451L14.4984 7.56356L14.7928 7.6743L15.0303 7.9942L15.0688 8.25874L15.2399 8.44791L15.6284 8.77704L15.818 8.9939L15.8273 9.0508L15.8658 9.08925L15.9506 9.08003L16.1495 8.96775L16.3391 8.76012L16.4902 8.22336L16.481 8.04495L16.4332 7.99728L16.2821 7.25289L16.2913 7.18675L16.4625 7.01757L16.7091 6.98989L16.7847 6.9622L16.8417 6.91453L16.9111 6.7838L16.945 6.98527L16.908 7.09447L16.9358 7.42514L17.0021 7.61431L17.1161 8.12339L17.4291 8.23567L17.7606 8.31103L17.8083 8.29257L17.7898 8.15108L17.628 8.02804L17.5894 7.97113L17.5709 7.85732V7.64046L17.5987 7.5651L17.5894 7.45129L17.4383 6.98066L17.2518 6.73766L17.4445 6.5977L17.6203 6.68383L17.7313 6.76842L17.8083 6.75304L17.9039 6.68383L18.1321 6.42237V6.42236Z" fill="#9F9F9F"/>
<path d="M26.4462 7.43673L26.3722 7.53978L26.2689 7.53824L25.7895 7.34753L26.1333 7.30139L26.4462 7.43673ZM17.2517 6.72925L17.4383 6.97225L17.5893 7.44288L17.5986 7.55669L17.5708 7.63205L17.5893 7.96272L17.6279 8.01963L17.7898 8.14267L17.8083 8.28417L17.7605 8.30262L17.429 8.22726L17.116 8.11499L17.002 7.60591L16.9357 7.41674L16.9079 7.08607L16.9449 6.97687L16.9896 7.01378L17.0205 7.00148L17.1885 6.87844L17.2517 6.72925ZM16.8293 6.73079L16.8093 6.77078L16.9064 6.7554L16.911 6.77693L16.8416 6.90766L16.7846 6.95534L16.709 6.98302L16.4624 7.0107L16.2913 7.17988L16.282 7.24602L16.4331 7.99041L16.4809 8.03809L16.4901 8.21649L16.339 8.75326L16.1494 8.96089L15.9505 9.07316L15.8658 9.08239L15.8272 9.04394L15.818 8.98857L15.6283 8.77171L15.2398 8.44258L15.0687 8.25341L15.0302 7.98887L14.7928 7.66897L14.4983 7.55823L14.6679 7.55669L14.7295 7.58591L14.9901 7.549L15.5759 7.29523L15.6422 7.25217L15.966 6.91996L16.154 6.77847L16.6258 6.48471L16.9634 6.34936L17.0405 6.33398L17.1176 6.34936L17.133 6.37243L16.8293 6.73079Z" fill="white"/>
</svg>
