<svg width="32" height="28" viewBox="0 0 32 28" fill="none" xmlns="http://www.w3.org/2000/svg">
<path d="M30.4263 16.2692L30.5031 16.3912V16.5354V26.8449V27.3449H30.0031H1.03812H0.53812V26.8449V22.1811V22.0382L0.613577 21.917L5.82726 13.5368L6.09983 13.0987L6.52916 13.3849L11.3614 16.6064L15.7095 11.1714L15.9504 10.8701L16.303 11.0268L21.1799 13.1943L24.9924 8.83725L25.4345 8.33198L25.7919 8.90031L30.4263 16.2692Z" fill="#9F9F9F" stroke="#D8D8D8"/>
<rect width="2.31719" height="12.7446" transform="matrix(-1 0 0 1 26.5273 13.8013)" fill="#D8D8D8"/>
<rect width="2.31719" height="8.11018" transform="matrix(-1 0 0 1 23.0525 18.4336)" fill="white"/>
<rect width="2.22275" height="9.8789" transform="matrix(-1 0 0 1 19.5758 16.5732)" fill="#C4C4C4"/>
<rect width="2.31719" height="11.586" transform="matrix(-1 0 0 1 16.1 14.9585)" fill="white"/>
<rect width="2.31719" height="5.79299" transform="matrix(-1 0 0 1 12.6241 20.752)" fill="white"/>
<rect width="2.31719" height="10.4274" transform="matrix(-1 0 0 1 9.14832 16.1172)" fill="#D8D8D8"/>
<path fill-rule="evenodd" clip-rule="evenodd" d="M4.54164 5.27895L4.27143 5.6312L2.54208 7.88568C2.29115 7.78976 2.00874 7.76921 1.7294 7.84398C1.02429 8.03271 0.605687 8.75731 0.794421 9.46242C0.983154 10.1675 1.70775 10.5861 2.41286 10.3974C3.11797 10.2087 3.53657 9.48406 3.34784 8.77896C3.32872 8.70752 3.3041 8.63902 3.27456 8.5738L4.79468 6.59209L8.85747 9.00387L8.92556 9.04429L9.00281 9.06169L12.8856 9.93644L13.2305 10.0141L13.4187 9.71486L16.134 5.39765L18.4727 5.81913L18.6846 5.85732L18.858 5.7296L22.5499 3.00946C22.8715 3.30154 23.3303 3.42919 23.7812 3.3085C24.4863 3.11977 24.9049 2.39517 24.7162 1.69006C24.5274 0.984954 23.8028 0.56635 23.0977 0.755083C22.4889 0.918054 22.0936 1.48058 22.1186 2.0851L18.4382 4.79679L15.9792 4.35363L15.647 4.29376L15.4673 4.5795L12.7604 8.88318L9.29984 8.10355L4.92339 5.50557L4.54164 5.27895Z" fill="#F1F1F1"/>
</svg>
