<svg width="31" height="14" viewBox="0 0 31 14" fill="none" xmlns="http://www.w3.org/2000/svg">
<path d="M28.2502 8.49005C27.6003 9.12842 26.8411 9.4476 25.9727 9.4476C24.8628 9.4476 23.9742 9.06803 23.3071 8.30889C22.64 7.54399 22.3064 6.51455 22.3064 5.22055C22.3064 4.39814 22.4847 3.64475 22.8412 2.96037C23.2036 2.27024 23.7068 1.73539 24.3509 1.35582C24.995 0.970494 25.7197 0.777832 26.5248 0.777832C27.353 0.777832 28.0891 0.984871 28.7332 1.39895C29.3774 1.81303 29.8777 2.40827 30.2343 3.18466C30.5908 3.96106 30.772 4.84961 30.7778 5.8503V6.77335C30.7778 8.86674 30.2573 10.5116 29.2163 11.7078C28.1754 12.904 26.7002 13.5424 24.7909 13.6229L24.1784 13.6315V11.5525L24.7305 11.5439C26.8986 11.4461 28.0719 10.4282 28.2502 8.49005ZM26.5852 7.54112C26.9878 7.54112 27.3329 7.4376 27.6204 7.23056C27.9137 7.02352 28.1351 6.77335 28.2847 6.48004V5.45347C28.2847 4.60806 28.1236 3.95244 27.8016 3.4866C27.4795 3.02076 27.0482 2.78784 26.5076 2.78784C26.0072 2.78784 25.596 3.01788 25.274 3.47797C24.9519 3.93231 24.7909 4.50454 24.7909 5.19467C24.7909 5.87905 24.9461 6.44266 25.2567 6.88549C25.573 7.32258 26.0159 7.54112 26.5852 7.54112Z" fill="#F1F1F1"/>
<path d="M17.208 8.49005C16.5582 9.12842 15.799 9.4476 14.9306 9.4476C13.8206 9.4476 12.9321 9.06803 12.265 8.30889C11.5978 7.54399 11.2643 6.51455 11.2643 5.22055C11.2643 4.39814 11.4426 3.64475 11.7991 2.96037C12.1615 2.27024 12.6647 1.73539 13.3088 1.35582C13.9529 0.970494 14.6776 0.777832 15.4827 0.777832C16.3109 0.777832 17.047 0.984871 17.6911 1.39895C18.3353 1.81303 18.8356 2.40827 19.1922 3.18466C19.5487 3.96106 19.7299 4.84961 19.7356 5.8503V6.77335C19.7356 8.86674 19.2152 10.5116 18.1742 11.7078C17.1333 12.904 15.6581 13.5424 13.7488 13.6229L13.1363 13.6315V11.5525L13.6884 11.5439C15.8565 11.4461 17.0298 10.4282 17.208 8.49005ZM15.5431 7.54112C15.9457 7.54112 16.2907 7.4376 16.5783 7.23056C16.8716 7.02352 17.093 6.77335 17.2425 6.48004V5.45347C17.2425 4.60806 17.0815 3.95244 16.7595 3.4866C16.4374 3.02076 16.0061 2.78784 15.4655 2.78784C14.9651 2.78784 14.5539 3.01788 14.2318 3.47797C13.9098 3.93231 13.7488 4.50454 13.7488 5.19467C13.7488 5.87905 13.904 6.44266 14.2146 6.88549C14.5309 7.32258 14.9737 7.54112 15.5431 7.54112Z" fill="#9F9F9F"/>
<path d="M6.16592 8.49005C5.51605 9.12842 4.7569 9.4476 3.88849 9.4476C2.77853 9.4476 1.88998 9.06803 1.22286 8.30889C0.555731 7.54399 0.222168 6.51455 0.222168 5.22055C0.222168 4.39814 0.400452 3.64475 0.75702 2.96037C1.11934 2.27024 1.62256 1.73539 2.26668 1.35582C2.9108 0.970494 3.63544 0.777832 4.44059 0.777832C5.26875 0.777832 6.00489 0.984871 6.64901 1.39895C7.29314 1.81303 7.79348 2.40827 8.15005 3.18466C8.50662 3.96106 8.68778 4.84961 8.69353 5.8503V6.77335C8.69353 8.86674 8.17305 10.5116 7.13211 11.7078C6.09116 12.904 4.616 13.5424 2.70664 13.6229L2.09415 13.6315V11.5525L2.64625 11.5439C4.81442 11.4461 5.98764 10.4282 6.16592 8.49005ZM4.50098 7.54112C4.90356 7.54112 5.24862 7.4376 5.53618 7.23056C5.82948 7.02352 6.0509 6.77335 6.20043 6.48004V5.45347C6.20043 4.60806 6.0394 3.95244 5.71734 3.4866C5.39528 3.02076 4.96394 2.78784 4.42334 2.78784C3.923 2.78784 3.51179 3.01788 3.18973 3.47797C2.86767 3.93231 2.70664 4.50454 2.70664 5.19467C2.70664 5.87905 2.86192 6.44266 3.17248 6.88549C3.48879 7.32258 3.93162 7.54112 4.50098 7.54112Z" fill="#C4C4C4"/>
</svg>
