<svg width="30" height="30" viewBox="0 0 30 30" fill="none" xmlns="http://www.w3.org/2000/svg">
<path d="M16.5798 15.7173H30C30 17.5533 29.6527 19.2987 28.9583 20.9534C28.2639 22.6082 27.2916 24.0554 26.0416 25.295L16.5798 15.7173Z" fill="#9F9F9F"/>
<path d="M28.8889 13.4719H15.5555V0C17.9745 0 20.2054 0.602261 22.2483 1.80678C24.2911 3.0113 25.9086 4.6456 27.1007 6.70965C28.2928 8.77371 28.8889 11.0278 28.8889 13.4719Z" fill="#C4C4C4"/>
<path d="M13.3333 15.6118L22.8125 25.1895C21.5857 26.4525 20.1534 27.4348 18.5156 28.1365C16.8779 28.8382 15.1505 29.189 13.3333 29.189C10.9144 29.189 8.68345 28.5867 6.64063 27.3822C4.5978 26.1777 2.98032 24.5434 1.78819 22.4793C0.596065 20.4153 0 18.1612 0 15.7171C0 13.2729 0.596065 11.0188 1.78819 8.95477C2.98032 6.89071 4.5978 5.25642 6.64063 4.0519C8.68345 2.84738 10.9144 2.24512 13.3333 2.24512V15.6118Z" fill="#F1F1F1"/>
</svg>
