<svg width="31" height="17" viewBox="0 0 31 17" fill="none" xmlns="http://www.w3.org/2000/svg">
<rect x="0.222168" y="7.74805" width="30.5556" height="8.55556" rx="1" fill="#9F9F9F"/>
<path d="M4.49999 8.97021H6.94443L4.49999 15.0813H2.05554L4.49999 8.97021Z" fill="#F1F1F1"/>
<path d="M8.7777 8.97021H11.2221L8.7777 15.0813H6.33325L8.7777 8.97021Z" fill="#F1F1F1"/>
<path d="M13.6666 8.97021H16.1111L13.6666 15.0813H11.2222L13.6666 8.97021Z" fill="#F1F1F1"/>
<path d="M18.5555 8.97021H21L18.5555 15.0813H16.1111L18.5555 8.97021Z" fill="#F1F1F1"/>
<path d="M12.1598 1.1533L10.3075 5.37924H9.3041L11.1596 1.38844H8.77771V0.624246H12.1598V1.1533Z" fill="#F1F1F1"/>
<path d="M12.9132 3.04093L13.1896 0.624246H15.8742V1.4113H13.9693L13.8508 2.43349C14.0767 2.31375 14.3169 2.25388 14.5713 2.25388C15.0275 2.25388 15.3851 2.3943 15.6439 2.67516C15.9027 2.95602 16.0321 3.349 16.0321 3.85411C16.0321 4.1611 15.9663 4.43651 15.8347 4.68036C15.7053 4.92203 15.5188 5.11035 15.2754 5.24534C15.0319 5.37815 14.7446 5.44455 14.4134 5.44455C14.1239 5.44455 13.8552 5.38686 13.6074 5.27147C13.3595 5.1539 13.1632 4.98952 13.0185 4.77833C12.8759 4.56714 12.8002 4.32656 12.7915 4.05659H13.7324C13.7521 4.25472 13.8212 4.4093 13.9397 4.52033C14.0603 4.62919 14.2171 4.68362 14.4101 4.68362C14.6251 4.68362 14.7907 4.60742 14.9069 4.45502C15.0232 4.30044 15.0813 4.08272 15.0813 3.80186C15.0813 3.53189 15.0144 3.32505 14.8806 3.18136C14.7468 3.03767 14.5571 2.96582 14.3114 2.96582C14.0855 2.96582 13.9024 3.0246 13.762 3.14217L13.6699 3.22708L12.9132 3.04093Z" fill="#F1F1F1"/>
<path d="M16.6276 1.53867C16.6276 1.24692 16.723 1.0107 16.9138 0.829991C17.1046 0.647106 17.3547 0.555664 17.6639 0.555664C17.9776 0.555664 18.2298 0.646018 18.4206 0.826725C18.6114 1.00525 18.7068 1.24801 18.7068 1.555V1.79013C18.7068 2.08405 18.6114 2.32028 18.4206 2.49881C18.2298 2.67734 17.9797 2.7666 17.6705 2.7666C17.359 2.7666 17.1068 2.67734 16.9138 2.49881C16.723 2.3181 16.6276 2.07535 16.6276 1.77054V1.53867ZM17.2592 1.79013C17.2592 1.92076 17.2965 2.02636 17.3711 2.10691C17.4479 2.18529 17.5477 2.22448 17.6705 2.22448C17.7933 2.22448 17.8909 2.18421 17.9633 2.10365C18.0357 2.02309 18.0719 1.91532 18.0719 1.78034V1.53867C18.0719 1.40804 18.0357 1.30244 17.9633 1.22189C17.8909 1.14133 17.7911 1.10105 17.6639 1.10105C17.5433 1.10105 17.4457 1.14133 17.3711 1.22189C17.2965 1.30026 17.2592 1.41021 17.2592 1.55173V1.79013ZM18.9174 4.21335C18.9174 3.91943 19.0139 3.6832 19.2069 3.50467C19.3999 3.32397 19.65 3.23361 19.957 3.23361C20.2685 3.23361 20.5196 3.32288 20.7104 3.50141C20.9034 3.67776 20.9999 3.92161 20.9999 4.23294V4.46808C20.9999 4.75983 20.9056 4.99605 20.717 5.17676C20.5284 5.35529 20.2772 5.44455 19.9636 5.44455C19.6478 5.44455 19.3944 5.3542 19.2036 5.17349C19.0128 4.99279 18.9174 4.75329 18.9174 4.45502V4.21335ZM19.5491 4.46808C19.5491 4.58783 19.5885 4.69016 19.6675 4.77507C19.7465 4.85998 19.8452 4.90243 19.9636 4.90243C20.2312 4.90243 20.365 4.75547 20.365 4.46155V4.21335C20.365 4.08272 20.3277 3.97821 20.2531 3.89983C20.1785 3.81928 20.0798 3.779 19.957 3.779C19.8342 3.779 19.7355 3.81928 19.6609 3.89983C19.5863 3.97821 19.5491 4.08598 19.5491 4.22315V4.46808ZM17.858 5.02327L17.3941 4.77507L19.7333 1.0586L20.1972 1.3068L17.858 5.02327Z" fill="#F1F1F1"/>
</svg>
