<svg width="30" height="30" viewBox="0 0 30 30" fill="none" xmlns="http://www.w3.org/2000/svg">
<circle cx="15" cy="15" r="14.5" fill="#9F9F9F" stroke="#F1F1F1"/>
<circle cx="15" cy="15" r="10.75" fill="#C4C4C4" stroke="#F1F1F1"/>
<circle cx="15" cy="15" r="7" stroke="#F1F1F1"/>
<circle cx="15" cy="15" r="3.75" fill="#F1F1F1"/>
<line x1="14.5" y1="12" x2="14.5" y2="0.75" stroke="#F1F1F1"/>
<line x1="7.14645" y1="7.85355" x2="4.14645" y2="4.85355" stroke="#F1F1F1"/>
<line x1="5.05494" y1="11.5819" x2="1.32828" y2="10.22" stroke="#F1F1F1"/>
<line x1="25.2969" y1="18.4569" x2="18.5469" y2="15.4569" stroke="#F1F1F1"/>
<line x1="26.527" y1="5.66626" x2="19.777" y2="10.1579" stroke="#F1F1F1"/>
<line x1="21.3985" y1="1.84784" x2="18.3592" y2="4.98627" stroke="#F1F1F1"/>
<line x1="8.02639" y1="13.1972" x2="3.52639" y2="10.9472" stroke="#F1F1F1"/>
<line x1="10.2" y1="10.15" x2="7.20001" y2="7.90001" stroke="#F1F1F1"/>
<line x1="29.3775" y1="10.9835" x2="25.424" y2="12.0264" stroke="#F1F1F1"/>
<line x1="27.5238" y1="22.9459" x2="23.9313" y2="21.1235" stroke="#F1F1F1"/>
<line x1="7.6361" y1="15.4811" x2="4.39596" y2="16.3977" stroke="#F1F1F1"/>
<line x1="23.6237" y1="27.3293" x2="18.3737" y2="21.3293" stroke="#F1F1F1"/>
<line x1="15.466" y1="15.1812" x2="10.216" y2="28.6812" stroke="#F1F1F1"/>
</svg>
