<svg width="30" height="25" viewBox="0 0 30 25" fill="none" xmlns="http://www.w3.org/2000/svg">
<path fill-rule="evenodd" clip-rule="evenodd" d="M4.27412 0H3.53571C1.58299 0 0 1.58299 0 3.53571H4.27412V0ZM5.27412 3.53571V0H11.1125V3.53571H5.27412ZM12.1125 3.53571H17.9512V0H12.1125V3.53571ZM18.9512 0V3.53571H24.7897V0H18.9512ZM25.7897 0V3.53571H30C30 1.58299 28.417 0 26.4643 0H25.7897Z" fill="#F1F1F1"/>
<path fill-rule="evenodd" clip-rule="evenodd" d="M4.27412 5.89258H0V8.24972H4.27412V5.89258ZM5.27412 8.24972V5.89258H11.1125V8.24972H5.27412ZM4.27412 10.6068H0V12.9639H4.27412V10.6068ZM5.27412 12.9639V10.6068H11.1125V12.9639H5.27412ZM4.27412 15.3217H0V17.6789H4.27412V15.3217ZM5.27412 17.6789V15.3217H11.1125V17.6789H5.27412ZM4.27412 20.0357H0V22.3928H4.27412V20.0357ZM5.27412 22.3928V20.0357H11.1125V22.3928H5.27412ZM12.1125 22.3928H17.9512V20.0357H12.1125V22.3928ZM12.1125 17.6789H17.9512V15.3217H12.1125V17.6789ZM12.1125 12.9639H17.9512L17.9512 10.6068H12.1125V12.9639ZM12.1125 8.24972H17.9512V5.89258H12.1125V8.24972ZM18.9512 5.89258V8.24972H24.7897V5.89258H18.9512ZM25.7897 5.89258V8.24972H30V5.89258H25.7897ZM24.7897 10.6068H18.9512L18.9512 12.9639H24.7897V10.6068ZM25.7897 12.9639V10.6068H30V12.9639H25.7897ZM24.7897 15.3217H18.9512V17.6789H24.7897V15.3217ZM25.7897 17.6789V15.3217H30V17.6789H25.7897ZM24.7897 20.0357H18.9512V22.3928H24.7897V20.0357ZM25.7897 22.3928V20.0357H30V22.3928H25.7897Z" fill="#C4C4C4"/>
<path fill-rule="evenodd" clip-rule="evenodd" d="M4.27412 3.53564H0V5.89279H4.27412V3.53564ZM5.27412 5.89279L5.27412 3.53564H11.1125V5.89279H5.27412ZM4.27412 8.25005H0V10.6072H4.27412V8.25005ZM5.27412 10.6072V8.25005H11.1125V10.6072H5.27412ZM4.27412 12.9645H0V15.3216H4.27412V12.9645ZM5.27412 15.3216V12.9645H11.1125V15.3216H5.27412ZM4.27412 17.6785H0V20.0356H4.27412V17.6785ZM5.27412 20.0356L5.27412 17.6785H11.1125V20.0356H5.27412ZM4.27412 22.3934H0C0 23.6952 1.05533 24.7506 2.35714 24.7506H4.27412V22.3934ZM5.27412 24.7506V22.3934H11.1125V24.7506H5.27412ZM12.1125 24.7506H17.9512V22.3934H12.1125V24.7506ZM12.1125 20.0356H17.9512V17.6785H12.1125V20.0356ZM12.1125 15.3216H17.9512V12.9645H12.1125V15.3216ZM12.1125 10.6072H17.9512V8.25005H12.1125V10.6072ZM12.1125 5.89279H17.9512V3.53564H12.1125V5.89279ZM18.9512 3.53564V5.89279H24.7897V3.53564H18.9512ZM25.7897 3.53564V5.89279H30V3.53564H25.7897ZM24.7897 8.25005H18.9512V10.6072H24.7897V8.25005ZM25.7897 10.6072V8.25005H30V10.6072H25.7897ZM24.7897 12.9645H18.9512V15.3216H24.7897V12.9645ZM25.7897 15.3216V12.9645H30V15.3216H25.7897ZM24.7897 17.6785H18.9512V20.0356H24.7897V17.6785ZM25.7897 20.0356V17.6785H30V20.0356H25.7897ZM24.7897 22.3934H18.9512V24.7506H24.7897V22.3934ZM25.7897 24.7506V22.3934H30C30 23.6952 28.9447 24.7506 27.6429 24.7506H25.7897Z" fill="#9F9F9F"/>
</svg>
