<svg width="27" height="25" viewBox="0 0 27 25" fill="none" xmlns="http://www.w3.org/2000/svg">
<path d="M0.468262 4.17432C0.468262 1.96518 2.25912 0.174316 4.46826 0.174316H12.8193V24.8763H4.46827C2.25913 24.8763 0.468262 23.0854 0.468262 20.8763V4.17432Z" fill="#F1F1F1"/>
<path d="M13.8779 0.174316H22.2289C24.4381 0.174316 26.2289 1.96518 26.2289 4.17432V20.8763C26.2289 23.0854 24.4381 24.8763 22.2289 24.8763H13.8779V0.174316Z" fill="#F1F1F1"/>
<mask id="mask0" mask-type="alpha" maskUnits="userSpaceOnUse" x="0" y="0" width="27" height="25">
<path fill-rule="evenodd" clip-rule="evenodd" d="M22.2289 0.173828H13.878V24.8758H22.2289C24.4381 24.8758 26.229 23.0849 26.229 20.8758V4.17383C26.229 1.96469 24.4381 0.173828 22.2289 0.173828ZM4.46826 0.174067C2.25912 0.174067 0.468262 1.96493 0.468262 4.17407V20.8761C0.468262 23.0852 2.25913 24.8761 4.46827 24.8761H12.8193V0.174067H4.46826Z" fill="#F1F1F1"/>
</mask>
<g mask="url(#mask0)">
<rect x="0.468262" y="5.11426" width="25.7606" height="2.4702" fill="#9F9F9F"/>
<rect x="0.468262" y="10.0547" width="25.7606" height="2.4702" fill="#9F9F9F"/>
<rect x="0.468262" y="14.9951" width="25.7606" height="2.4702" fill="#9F9F9F"/>
<rect x="0.468262" y="19.9355" width="25.7606" height="2.4702" fill="#9F9F9F"/>
<rect x="0.468262" y="7.58447" width="25.7606" height="2.4702" fill="#D1D1D1"/>
<rect x="0.468262" y="12.5249" width="25.7606" height="2.4702" fill="#D1D1D1"/>
<rect x="0.468262" y="17.4653" width="25.7606" height="2.4702" fill="#D1D1D1"/>
<rect x="0.468262" y="22.4058" width="25.7606" height="2.4702" fill="#D1D1D1"/>
</g>
</svg>
