<svg width="31" height="29" viewBox="0 0 31 29" fill="none" xmlns="http://www.w3.org/2000/svg">
<path d="M8.44275 18.1198C8.38052 17.9953 8.32995 17.7736 8.29105 17.4546C7.78927 17.9758 7.19024 18.2365 6.49397 18.2365C5.87161 18.2365 5.3601 18.0614 4.95946 17.7113C4.5627 17.3574 4.36432 16.91 4.36432 16.3694C4.36432 15.712 4.61326 15.2024 5.11116 14.8407C5.61294 14.475 6.31699 14.2922 7.22331 14.2922H8.27355V13.7963C8.27355 13.419 8.16075 13.1195 7.93514 12.8977C7.70953 12.6721 7.37695 12.5593 6.93741 12.5593C6.55232 12.5593 6.22947 12.6566 5.96885 12.8511C5.70824 13.0456 5.57793 13.2809 5.57793 13.5571H4.49268C4.49268 13.242 4.60354 12.9386 4.82526 12.6468C5.05087 12.3512 5.35427 12.1178 5.73547 11.9467C6.12056 11.7755 6.5426 11.69 7.00159 11.69C7.72898 11.69 8.29883 11.8728 8.71115 12.2384C9.12347 12.6002 9.3374 13.1 9.35296 13.7379V16.6436C9.35296 17.2232 9.42687 17.6841 9.57468 18.0264V18.1198H8.44275ZM6.65151 17.2971C6.98992 17.2971 7.31083 17.2096 7.61423 17.0345C7.91763 16.8595 8.13741 16.6319 8.27355 16.3519V15.0566H7.42752C6.105 15.0566 5.44373 15.4436 5.44373 16.2177C5.44373 16.5561 5.55654 16.8206 5.78214 17.0112C6.00775 17.2018 6.29754 17.2971 6.65151 17.2971Z" fill="white"/>
<path d="M16.3896 15.0332C16.3896 15.9979 16.1679 16.7739 15.7244 17.3613C15.281 17.9447 14.6859 18.2365 13.939 18.2365C13.1416 18.2365 12.5251 17.9545 12.0894 17.3904L12.0369 18.1198H11.045V9.15771H12.1244V12.501C12.5601 11.9603 13.1611 11.69 13.9273 11.69C14.6936 11.69 15.2946 11.9798 15.7303 12.5593C16.1698 13.1389 16.3896 13.9324 16.3896 14.9399V15.0332ZM15.3102 14.9107C15.3102 14.1755 15.1682 13.6076 14.8842 13.207C14.6003 12.8063 14.1919 12.606 13.659 12.606C12.9471 12.606 12.4356 12.9366 12.1244 13.5979V16.3285C12.4551 16.9898 12.9705 17.3204 13.6706 17.3204C14.188 17.3204 14.5906 17.1201 14.8784 16.7194C15.1662 16.3188 15.3102 15.7159 15.3102 14.9107Z" fill="white"/>
<path d="M20.2871 17.3554C20.6722 17.3554 21.0087 17.2387 21.2965 17.0053C21.5844 16.772 21.7439 16.4802 21.775 16.1301H22.796C22.7766 16.4919 22.6521 16.8361 22.4226 17.1629C22.1931 17.4896 21.8858 17.7502 21.5007 17.9447C21.1196 18.1392 20.715 18.2365 20.2871 18.2365C19.4275 18.2365 18.7429 17.9506 18.2333 17.3788C17.7277 16.8031 17.4748 16.0173 17.4748 15.0216V14.8407C17.4748 14.2261 17.5876 13.6796 17.8132 13.2011C18.0388 12.7227 18.3617 12.3512 18.7818 12.0867C19.2058 11.8222 19.7056 11.69 20.2813 11.69C20.9892 11.69 21.5766 11.902 22.0434 12.3259C22.514 12.7499 22.7649 13.3003 22.796 13.9772H21.775C21.7439 13.5687 21.5883 13.2342 21.3082 12.9736C21.032 12.7091 20.6897 12.5768 20.2813 12.5768C19.7328 12.5768 19.3069 12.7752 19.0035 13.172C18.704 13.5648 18.5542 14.1347 18.5542 14.8815V15.0857C18.5542 15.8131 18.704 16.3733 19.0035 16.7661C19.303 17.159 19.7309 17.3554 20.2871 17.3554Z" fill="white"/>
<path d="M3.28106 7.16588C3.23438 7.07252 3.19645 6.90623 3.16728 6.66701C2.79094 7.05794 2.34167 7.2534 1.81947 7.2534C1.3527 7.2534 0.969067 7.12212 0.668581 6.85956C0.371013 6.59408 0.222229 6.25859 0.222229 5.85308C0.222229 5.36005 0.408938 4.97788 0.782357 4.70656C1.15869 4.43233 1.68673 4.29522 2.36647 4.29522H3.15415V3.92326C3.15415 3.64028 3.06955 3.41564 2.90034 3.24935C2.73114 3.08015 2.48171 2.99555 2.15205 2.99555C1.86323 2.99555 1.62109 3.06848 1.42563 3.21435C1.23017 3.36021 1.13244 3.53671 1.13244 3.74384H0.318501C0.318501 3.50754 0.401645 3.27999 0.567933 3.06119C0.737139 2.83947 0.964691 2.66443 1.25059 2.53607C1.53941 2.4077 1.85594 2.34352 2.20018 2.34352C2.74572 2.34352 3.17311 2.48064 3.48235 2.75487C3.79159 3.02618 3.95204 3.40106 3.96371 3.8795V6.05875C3.96371 6.49343 4.01914 6.83914 4.13 7.09586V7.16588H3.28106ZM1.93762 6.54886C2.19143 6.54886 2.43211 6.48322 2.65966 6.35194C2.88722 6.22066 3.05204 6.05 3.15415 5.83995V4.86848H2.51963C1.52774 4.86848 1.03179 5.15875 1.03179 5.7393C1.03179 5.99311 1.11639 6.19149 1.2856 6.33444C1.4548 6.47739 1.67214 6.54886 1.93762 6.54886Z" fill="#9F9F9F"/>
<path d="M9.24117 4.85097C9.24117 5.57447 9.07488 6.15648 8.74231 6.597C8.40973 7.0346 7.96338 7.2534 7.40325 7.2534C6.8052 7.2534 6.3428 7.04189 6.01606 6.61888L5.97667 7.16588H5.23275V0.444336H6.04231V2.95179C6.36906 2.54628 6.81978 2.34352 7.3945 2.34352C7.96921 2.34352 8.41994 2.56086 8.74668 2.99555C9.07634 3.43023 9.24117 4.02537 9.24117 4.78096V4.85097ZM8.43161 4.75908C8.43161 4.2077 8.32513 3.78177 8.11216 3.48128C7.8992 3.1808 7.59288 3.03055 7.1932 3.03055C6.65933 3.03055 6.2757 3.27853 6.04231 3.77447V5.82244C6.29029 6.31839 6.67683 6.56636 7.20195 6.56636C7.58996 6.56636 7.8919 6.41612 8.10779 6.11564C8.32367 5.81515 8.43161 5.36296 8.43161 4.75908Z" fill="#9F9F9F"/>
<path d="M12.1643 6.59262C12.4532 6.59262 12.7055 6.5051 12.9214 6.33006C13.1373 6.15502 13.2569 5.93622 13.2802 5.67366H14.046C14.0314 5.94497 13.9381 6.20316 13.766 6.44821C13.5938 6.69327 13.3634 6.88873 13.0746 7.0346C12.7887 7.18046 12.4852 7.2534 12.1643 7.2534C11.5196 7.2534 11.0062 7.03897 10.624 6.61012C10.2447 6.17836 10.0551 5.58906 10.0551 4.84222V4.70656C10.0551 4.24562 10.1397 3.83574 10.3089 3.47691C10.4781 3.11807 10.7203 2.83947 11.0353 2.64109C11.3533 2.44271 11.7282 2.34352 12.16 2.34352C12.6909 2.34352 13.1314 2.50252 13.4815 2.82051C13.8345 3.1385 14.0227 3.5513 14.046 4.05891H13.2802C13.2569 3.75259 13.1402 3.5017 12.9301 3.30624C12.723 3.10786 12.4663 3.00867 12.16 3.00867C11.7486 3.00867 11.4292 3.15746 11.2016 3.45503C10.977 3.74968 10.8647 4.17707 10.8647 4.7372V4.89036C10.8647 5.4359 10.977 5.85599 11.2016 6.15064C11.4263 6.4453 11.7472 6.59262 12.1643 6.59262Z" fill="#9F9F9F"/>
<path d="M19.0307 9.15779C18.9996 9.09555 18.9743 8.98469 18.9548 8.82521C18.7039 9.08582 18.4044 9.21613 18.0563 9.21613C17.7451 9.21613 17.4893 9.12861 17.289 8.95357C17.0906 8.77659 16.9915 8.55292 16.9915 8.28258C16.9915 7.9539 17.1159 7.69912 17.3649 7.51824C17.6158 7.33542 17.9678 7.24401 18.4209 7.24401H18.9461V6.99604C18.9461 6.80739 18.8897 6.65763 18.7769 6.54677C18.6641 6.43397 18.4978 6.37756 18.278 6.37756C18.0855 6.37756 17.924 6.42619 17.7937 6.52343C17.6634 6.62068 17.5983 6.73834 17.5983 6.87643H17.0556C17.0556 6.71889 17.1111 6.56719 17.2219 6.42132C17.3347 6.27351 17.4864 6.15682 17.677 6.07124C17.8696 5.98567 18.0806 5.94288 18.3101 5.94288C18.6738 5.94288 18.9587 6.03429 19.1649 6.21711C19.371 6.39799 19.478 6.6479 19.4858 6.96687V8.4197C19.4858 8.70949 19.5227 8.93996 19.5966 9.11111V9.15779H19.0307ZM18.1351 8.74644C18.3043 8.74644 18.4647 8.70268 18.6164 8.61516C18.7681 8.52764 18.878 8.41386 18.9461 8.27383V7.62618H18.5231C17.8618 7.62618 17.5312 7.8197 17.5312 8.20673C17.5312 8.37594 17.5876 8.50819 17.7004 8.60349C17.8132 8.69879 17.9581 8.74644 18.1351 8.74644Z" fill="#D8D8D8"/>
<path d="M23.0041 7.61451C23.0041 8.09685 22.8932 8.48485 22.6715 8.77853C22.4498 9.07027 22.1522 9.21613 21.7788 9.21613C21.3801 9.21613 21.0718 9.07513 20.854 8.79312L20.8278 9.15779H20.3318V4.67676H20.8715V6.34839C21.0893 6.07805 21.3898 5.94288 21.773 5.94288C22.1561 5.94288 22.4566 6.08778 22.6744 6.37756C22.8942 6.66735 23.0041 7.06411 23.0041 7.56784V7.61451ZM22.4644 7.55325C22.4644 7.18567 22.3934 6.90171 22.2514 6.70139C22.1094 6.50107 21.9052 6.4009 21.6388 6.4009C21.2829 6.4009 21.0271 6.56622 20.8715 6.89685V8.26216C21.0368 8.59279 21.2945 8.75811 21.6446 8.75811C21.9033 8.75811 22.1046 8.65795 22.2485 8.45762C22.3924 8.2573 22.4644 7.95584 22.4644 7.55325Z" fill="#D8D8D8"/>
<path d="M24.9529 8.77561C25.1454 8.77561 25.3136 8.71727 25.4576 8.60057C25.6015 8.48388 25.6812 8.33801 25.6968 8.16297H26.2073C26.1976 8.34385 26.1354 8.51597 26.0206 8.67934C25.9059 8.84271 25.7522 8.97302 25.5597 9.07027C25.3691 9.16751 25.1668 9.21613 24.9529 9.21613C24.523 9.21613 24.1807 9.07318 23.926 8.78728C23.6731 8.49944 23.5467 8.10657 23.5467 7.60868V7.51824C23.5467 7.21095 23.6031 6.93769 23.7159 6.69847C23.8287 6.45925 23.9901 6.27351 24.2002 6.14126C24.4122 6.00901 24.6621 5.94288 24.9499 5.94288C25.3039 5.94288 25.5976 6.04888 25.831 6.26087C26.0663 6.47286 26.1918 6.74807 26.2073 7.08648H25.6968C25.6812 6.88226 25.6034 6.715 25.4634 6.5847C25.3253 6.45244 25.1542 6.38632 24.9499 6.38632C24.6757 6.38632 24.4628 6.48551 24.3111 6.68388C24.1613 6.88032 24.0864 7.16525 24.0864 7.53866V7.64077C24.0864 8.00447 24.1613 8.28453 24.3111 8.48096C24.4608 8.6774 24.6747 8.77561 24.9529 8.77561Z" fill="#D8D8D8"/>
<path d="M11.2473 28.4862C11.2006 28.3928 11.1627 28.2265 11.1335 27.9873C10.7572 28.3782 10.3079 28.5737 9.78572 28.5737C9.31894 28.5737 8.93531 28.4424 8.63483 28.1799C8.33726 27.9144 8.18848 27.5789 8.18848 27.1734C8.18848 26.6804 8.37519 26.2982 8.74861 26.0269C9.12494 25.7526 9.65298 25.6155 10.3327 25.6155H11.1204V25.2436C11.1204 24.9606 11.0358 24.736 10.8666 24.5697C10.6974 24.4005 10.448 24.3159 10.1183 24.3159C9.82948 24.3159 9.58734 24.3888 9.39188 24.5347C9.19642 24.6805 9.09869 24.857 9.09869 25.0642H8.28475C8.28475 24.8279 8.36789 24.6003 8.53418 24.3815C8.70339 24.1598 8.93094 23.9847 9.21684 23.8564C9.50565 23.728 9.82218 23.6638 10.1664 23.6638C10.712 23.6638 11.1394 23.8009 11.4486 24.0752C11.7578 24.3465 11.9183 24.7214 11.93 25.1998V27.3791C11.93 27.8137 11.9854 28.1594 12.0962 28.4162V28.4862H11.2473ZM9.90387 27.8692C10.1577 27.8692 10.3984 27.8035 10.6259 27.6723C10.8535 27.541 11.0183 27.3703 11.1204 27.1603V26.1888H10.4859C9.49398 26.1888 8.99804 26.4791 8.99804 27.0596C8.99804 27.3134 9.08264 27.5118 9.25185 27.6547C9.42105 27.7977 9.63839 27.8692 9.90387 27.8692Z" fill="#D8D8D8"/>
<path d="M17.2074 26.1713C17.2074 26.8948 17.0411 27.4768 16.7086 27.9173C16.376 28.3549 15.9296 28.5737 15.3695 28.5737C14.7714 28.5737 14.309 28.3622 13.9823 27.9392L13.9429 28.4862H13.199V21.7646H14.0086V24.2721C14.3353 23.8666 14.786 23.6638 15.3607 23.6638C15.9355 23.6638 16.3862 23.8812 16.7129 24.3159C17.0426 24.7505 17.2074 25.3457 17.2074 26.1013V26.1713ZM16.3979 26.0794C16.3979 25.528 16.2914 25.1021 16.0784 24.8016C15.8654 24.5011 15.5591 24.3509 15.1595 24.3509C14.6256 24.3509 14.2419 24.5988 14.0086 25.0948V27.1428C14.2565 27.6387 14.6431 27.8867 15.1682 27.8867C15.5562 27.8867 15.8582 27.7364 16.074 27.4359C16.2899 27.1355 16.3979 26.6833 16.3979 26.0794Z" fill="#D8D8D8"/>
<path d="M20.1306 27.9129C20.4194 27.9129 20.6718 27.8254 20.8876 27.6504C21.1035 27.4753 21.2231 27.2565 21.2465 26.994H22.0123C21.9977 27.2653 21.9043 27.5235 21.7322 27.7685C21.5601 28.0136 21.3296 28.209 21.0408 28.3549C20.7549 28.5008 20.4515 28.5737 20.1306 28.5737C19.4859 28.5737 18.9724 28.3593 18.5902 27.9304C18.211 27.4987 18.0214 26.9094 18.0214 26.1625V26.0269C18.0214 25.5659 18.106 25.1561 18.2752 24.7972C18.4444 24.4384 18.6865 24.1598 19.0016 23.9614C19.3196 23.763 19.6944 23.6638 20.1262 23.6638C20.6572 23.6638 21.0977 23.8228 21.4478 24.1408C21.8008 24.4588 21.9889 24.8716 22.0123 25.3792H21.2465C21.2231 25.0729 21.1064 24.822 20.8964 24.6266C20.6893 24.4282 20.4325 24.329 20.1262 24.329C19.7149 24.329 19.3954 24.4778 19.1679 24.7753C18.9432 25.07 18.8309 25.4974 18.8309 26.0575V26.2107C18.8309 26.7562 18.9432 27.1763 19.1679 27.471C19.3925 27.7656 19.7134 27.9129 20.1306 27.9129Z" fill="#D8D8D8"/>
<path d="M2.49322 23.0115C2.47141 22.9672 2.45369 22.8883 2.44006 22.7749C2.2642 22.9603 2.05427 23.053 1.81026 23.053C1.59215 23.053 1.41288 22.9907 1.27247 22.8662C1.13343 22.7403 1.0639 22.5811 1.0639 22.3888C1.0639 22.1549 1.15115 21.9737 1.32564 21.845C1.50149 21.7149 1.74823 21.6498 2.06586 21.6498H2.43392V21.4734C2.43392 21.3392 2.39439 21.2326 2.31533 21.1538C2.23626 21.0735 2.11971 21.0334 1.96566 21.0334C1.83071 21.0334 1.71756 21.068 1.62623 21.1372C1.53489 21.2063 1.48922 21.2901 1.48922 21.3883H1.10889C1.10889 21.2762 1.14774 21.1683 1.22544 21.0645C1.30451 20.9593 1.41084 20.8763 1.54443 20.8154C1.67939 20.7545 1.8273 20.7241 1.98816 20.7241C2.24308 20.7241 2.44278 20.7891 2.58728 20.9192C2.73178 21.0479 2.80676 21.2257 2.81221 21.4527V22.4864C2.81221 22.6925 2.83811 22.8565 2.88992 22.9783V23.0115H2.49322ZM1.86547 22.7188C1.98407 22.7188 2.09653 22.6877 2.20286 22.6254C2.30919 22.5632 2.38621 22.4822 2.43392 22.3826V21.9218H2.13743C1.67394 21.9218 1.44219 22.0595 1.44219 22.3348C1.44219 22.4552 1.48173 22.5493 1.56079 22.6171C1.63986 22.6849 1.74142 22.7188 1.86547 22.7188Z" fill="#D8D8D8"/>
<path d="M5.27825 21.9135C5.27825 22.2566 5.20055 22.5327 5.04514 22.7417C4.88974 22.9492 4.68117 23.053 4.41943 23.053C4.13997 23.053 3.92391 22.9527 3.77123 22.752L3.75282 23.0115H3.40521V19.8232H3.7835V21.0126C3.93617 20.8203 4.14679 20.7241 4.41534 20.7241C4.68389 20.7241 4.89451 20.8272 5.04719 21.0334C5.20123 21.2396 5.27825 21.5218 5.27825 21.8802V21.9135ZM4.89996 21.8699C4.89996 21.6083 4.8502 21.4063 4.75069 21.2638C4.65118 21.1212 4.50804 21.05 4.32128 21.05C4.07181 21.05 3.89255 21.1676 3.7835 21.4028V22.3743C3.89937 22.6095 4.07999 22.7271 4.32537 22.7271C4.50668 22.7271 4.64777 22.6559 4.74864 22.5133C4.84952 22.3708 4.89996 22.1563 4.89996 21.8699Z" fill="#D8D8D8"/>
<path d="M6.64418 22.7396C6.77914 22.7396 6.89705 22.6981 6.99793 22.615C7.09881 22.532 7.1547 22.4282 7.1656 22.3037H7.52345C7.51663 22.4324 7.47301 22.5548 7.39258 22.6711C7.31215 22.7873 7.20446 22.88 7.0695 22.9492C6.9359 23.0184 6.79413 23.053 6.64418 23.053C6.34291 23.053 6.10299 22.9513 5.92441 22.7479C5.74719 22.5431 5.65858 22.2636 5.65858 21.9093V21.845C5.65858 21.6263 5.69812 21.4319 5.77718 21.2617C5.85625 21.0915 5.96939 20.9593 6.11662 20.8652C6.26521 20.7711 6.44038 20.7241 6.64213 20.7241C6.89024 20.7241 7.09608 20.7995 7.25967 20.9503C7.42461 21.1012 7.51254 21.297 7.52345 21.5378H7.1656C7.1547 21.3925 7.10017 21.2735 7.00202 21.1807C6.90523 21.0866 6.78527 21.0396 6.64213 21.0396C6.44992 21.0396 6.30065 21.1102 6.19432 21.2513C6.08936 21.3911 6.03687 21.5938 6.03687 21.8595V21.9321C6.03687 22.1909 6.08936 22.3902 6.19432 22.5299C6.29929 22.6697 6.44924 22.7396 6.64418 22.7396Z" fill="#D8D8D8"/>
<path d="M23.6011 22.1026C23.57 22.0404 23.5447 21.9295 23.5253 21.77C23.2744 22.0306 22.9749 22.161 22.6267 22.161C22.3155 22.161 22.0598 22.0734 21.8595 21.8984C21.6611 21.7214 21.5619 21.4977 21.5619 21.2274C21.5619 20.8987 21.6864 20.6439 21.9353 20.4631C22.1862 20.2802 22.5382 20.1888 22.9914 20.1888H23.5165V19.9409C23.5165 19.7522 23.4601 19.6025 23.3473 19.4916C23.2345 19.3788 23.0682 19.3224 22.8484 19.3224C22.6559 19.3224 22.4945 19.371 22.3642 19.4683C22.2338 19.5655 22.1687 19.6832 22.1687 19.8213H21.6261C21.6261 19.6637 21.6815 19.512 21.7924 19.3661C21.9052 19.2183 22.0569 19.1016 22.2475 19.0161C22.44 18.9305 22.651 18.8877 22.8805 18.8877C23.2442 18.8877 23.5291 18.9791 23.7353 19.1619C23.9415 19.3428 24.0484 19.5927 24.0562 19.9117V21.3645C24.0562 21.6543 24.0932 21.8848 24.1671 22.0559V22.1026H23.6011ZM22.7055 21.6913C22.8747 21.6913 23.0351 21.6475 23.1868 21.56C23.3385 21.4725 23.4484 21.3587 23.5165 21.2187V20.571H23.0935C22.4322 20.571 22.1016 20.7645 22.1016 21.1516C22.1016 21.3208 22.158 21.453 22.2708 21.5483C22.3836 21.6436 22.5285 21.6913 22.7055 21.6913Z" fill="#9F9F9F"/>
<path d="M27.5745 20.5593C27.5745 21.0417 27.4637 21.4297 27.2419 21.7234C27.0202 22.0151 26.7227 22.161 26.3492 22.161C25.9505 22.161 25.6423 22.02 25.4244 21.7379L25.3982 22.1026H24.9022V17.6216H25.4419V19.2932C25.6598 19.0229 25.9603 18.8877 26.3434 18.8877C26.7265 18.8877 27.027 19.0326 27.2449 19.3224C27.4646 19.6122 27.5745 20.0089 27.5745 20.5127V20.5593ZM27.0348 20.4981C27.0348 20.1305 26.9638 19.8465 26.8218 19.6462C26.6799 19.4459 26.4757 19.3457 26.2092 19.3457C25.8533 19.3457 25.5975 19.511 25.4419 19.8417V21.207C25.6073 21.5376 25.865 21.7029 26.215 21.7029C26.4737 21.7029 26.675 21.6028 26.8189 21.4024C26.9629 21.2021 27.0348 20.9007 27.0348 20.4981Z" fill="#9F9F9F"/>
<path d="M29.5233 21.7204C29.7158 21.7204 29.8841 21.6621 30.028 21.5454C30.1719 21.4287 30.2517 21.2828 30.2672 21.1078H30.7778C30.768 21.2887 30.7058 21.4608 30.591 21.6242C30.4763 21.7875 30.3226 21.9178 30.1301 22.0151C29.9395 22.1123 29.7372 22.161 29.5233 22.161C29.0935 22.161 28.7512 22.018 28.4964 21.7321C28.2436 21.4443 28.1171 21.0514 28.1171 20.5535V20.4631C28.1171 20.1558 28.1735 19.8825 28.2863 19.6433C28.3992 19.4041 28.5606 19.2183 28.7706 19.0861C28.9826 18.9538 29.2325 18.8877 29.5204 18.8877C29.8744 18.8877 30.168 18.9937 30.4014 19.2057C30.6367 19.4177 30.7622 19.6929 30.7778 20.0313H30.2672C30.2517 19.8271 30.1739 19.6598 30.0338 19.5295C29.8957 19.3973 29.7246 19.3311 29.5204 19.3311C29.2462 19.3311 29.0332 19.4303 28.8815 19.6287C28.7317 19.8251 28.6569 20.1101 28.6569 20.4835V20.5856C28.6569 20.9493 28.7317 21.2294 28.8815 21.4258C29.0312 21.6222 29.2452 21.7204 29.5233 21.7204Z" fill="#9F9F9F"/>
</svg>
