<svg width="31" height="29" viewBox="0 0 31 29" fill="none" xmlns="http://www.w3.org/2000/svg">
<path d="M8.44269 18.1198C8.38046 17.9953 8.32989 17.7736 8.29099 17.4546C7.78921 17.9758 7.19018 18.2365 6.49391 18.2365C5.87155 18.2365 5.36004 18.0614 4.95939 17.7113C4.56264 17.3574 4.36426 16.91 4.36426 16.3694C4.36426 15.712 4.6132 15.2024 5.1111 14.8407C5.61288 14.475 6.31693 14.2922 7.22325 14.2922H8.27349V13.7963C8.27349 13.419 8.16068 13.1195 7.93508 12.8977C7.70947 12.6721 7.37689 12.5593 6.93735 12.5593C6.55226 12.5593 6.22941 12.6566 5.96879 12.8511C5.70818 13.0456 5.57787 13.2809 5.57787 13.5571H4.49262C4.49262 13.242 4.60348 12.9386 4.8252 12.6468C5.0508 12.3512 5.35421 12.1178 5.73541 11.9467C6.12049 11.7755 6.54254 11.69 7.00153 11.69C7.72892 11.69 8.29877 11.8728 8.71109 12.2384C9.1234 12.6002 9.33734 13.1 9.3529 13.7379V16.6436C9.3529 17.2232 9.42681 17.6841 9.57462 18.0264V18.1198H8.44269ZM6.65145 17.2971C6.98986 17.2971 7.31077 17.2096 7.61417 17.0345C7.91757 16.8595 8.13735 16.6319 8.27349 16.3519V15.0566H7.42746C6.10493 15.0566 5.44367 15.4436 5.44367 16.2177C5.44367 16.5561 5.55648 16.8206 5.78208 17.0112C6.00769 17.2018 6.29748 17.2971 6.65145 17.2971Z" fill="white"/>
<path d="M16.3895 15.0332C16.3895 15.9979 16.1678 16.7739 15.7244 17.3613C15.2809 17.9447 14.6858 18.2365 13.939 18.2365C13.1415 18.2365 12.525 17.9545 12.0894 17.3904L12.0369 18.1198H11.045V9.15771H12.1244V12.501C12.56 11.9603 13.161 11.69 13.9273 11.69C14.6936 11.69 15.2945 11.9798 15.7302 12.5593C16.1697 13.1389 16.3895 13.9324 16.3895 14.9399V15.0332ZM15.3101 14.9107C15.3101 14.1755 15.1681 13.6076 14.8842 13.207C14.6002 12.8063 14.1918 12.606 13.6589 12.606C12.9471 12.606 12.4356 12.9366 12.1244 13.5979V16.3285C12.455 16.9898 12.9704 17.3204 13.6706 17.3204C14.1879 17.3204 14.5905 17.1201 14.8783 16.7194C15.1662 16.3188 15.3101 15.7159 15.3101 14.9107Z" fill="white"/>
<path d="M20.2871 17.3554C20.6722 17.3554 21.0086 17.2387 21.2965 17.0053C21.5843 16.772 21.7438 16.4802 21.7749 16.1301H22.796C22.7765 16.4919 22.6521 16.8361 22.4226 17.1629C22.1931 17.4896 21.8858 17.7502 21.5007 17.9447C21.1195 18.1392 20.715 18.2365 20.2871 18.2365C19.4274 18.2365 18.7428 17.9506 18.2333 17.3788C17.7276 16.8031 17.4748 16.0173 17.4748 15.0216V14.8407C17.4748 14.2261 17.5876 13.6796 17.8132 13.2011C18.0388 12.7227 18.3616 12.3512 18.7817 12.0867C19.2057 11.8222 19.7056 11.69 20.2812 11.69C20.9892 11.69 21.5765 11.902 22.0433 12.3259C22.514 12.7499 22.7649 13.3003 22.796 13.9772H21.7749C21.7438 13.5687 21.5882 13.2342 21.3081 12.9736C21.032 12.7091 20.6897 12.5768 20.2812 12.5768C19.7328 12.5768 19.3069 12.7752 19.0034 13.172C18.7039 13.5648 18.5542 14.1347 18.5542 14.8815V15.0857C18.5542 15.8131 18.7039 16.3733 19.0034 16.7661C19.303 17.159 19.7308 17.3554 20.2871 17.3554Z" fill="white"/>
<path d="M3.28099 7.16588C3.23432 7.07252 3.19639 6.90623 3.16722 6.66701C2.79088 7.05794 2.34161 7.2534 1.81941 7.2534C1.35264 7.2534 0.969006 7.12212 0.66852 6.85956C0.370952 6.59408 0.222168 6.25859 0.222168 5.85308C0.222168 5.36005 0.408877 4.97788 0.782296 4.70656C1.15863 4.43233 1.68667 4.29522 2.36641 4.29522H3.15409V3.92326C3.15409 3.64028 3.06949 3.41564 2.90028 3.24935C2.73108 3.08015 2.48164 2.99555 2.15199 2.99555C1.86317 2.99555 1.62103 3.06848 1.42557 3.21435C1.23011 3.36021 1.13238 3.53671 1.13238 3.74384H0.31844C0.31844 3.50754 0.401584 3.27999 0.567872 3.06119C0.737078 2.83947 0.96463 2.66443 1.25053 2.53607C1.53935 2.4077 1.85588 2.34352 2.20012 2.34352C2.74566 2.34352 3.17305 2.48064 3.48229 2.75487C3.79153 3.02618 3.95198 3.40106 3.96365 3.8795V6.05875C3.96365 6.49343 4.01908 6.83914 4.12994 7.09586V7.16588H3.28099ZM1.93756 6.54886C2.19137 6.54886 2.43205 6.48322 2.6596 6.35194C2.88715 6.22066 3.05198 6.05 3.15409 5.83995V4.86848H2.51957C1.52768 4.86848 1.03173 5.15875 1.03173 5.7393C1.03173 5.99311 1.11633 6.19149 1.28554 6.33444C1.45474 6.47739 1.67208 6.54886 1.93756 6.54886Z" fill="#9F9F9F"/>
<path d="M9.24111 4.85097C9.24111 5.57447 9.07482 6.15648 8.74225 6.597C8.40967 7.0346 7.96332 7.2534 7.40319 7.2534C6.80514 7.2534 6.34274 7.04189 6.016 6.61888L5.97661 7.16588H5.23269V0.444336H6.04225V2.95179C6.36899 2.54628 6.81972 2.34352 7.39444 2.34352C7.96915 2.34352 8.41988 2.56086 8.74662 2.99555C9.07628 3.43023 9.24111 4.02537 9.24111 4.78096V4.85097ZM8.43155 4.75908C8.43155 4.2077 8.32507 3.78177 8.1121 3.48128C7.89914 3.1808 7.59282 3.03055 7.19314 3.03055C6.65927 3.03055 6.27564 3.27853 6.04225 3.77447V5.82244C6.29023 6.31839 6.67677 6.56636 7.20189 6.56636C7.5899 6.56636 7.89184 6.41612 8.10773 6.11564C8.32361 5.81515 8.43155 5.36296 8.43155 4.75908Z" fill="#9F9F9F"/>
<path d="M12.1643 6.59262C12.4531 6.59262 12.7054 6.5051 12.9213 6.33006C13.1372 6.15502 13.2568 5.93622 13.2802 5.67366H14.046C14.0314 5.94497 13.938 6.20316 13.7659 6.44821C13.5938 6.69327 13.3633 6.88873 13.0745 7.0346C12.7886 7.18046 12.4852 7.2534 12.1643 7.2534C11.5196 7.2534 11.0061 7.03897 10.6239 6.61013C10.2447 6.17836 10.055 5.58906 10.055 4.84222V4.70656C10.055 4.24562 10.1397 3.83574 10.3089 3.47691C10.4781 3.11807 10.7202 2.83947 11.0353 2.64109C11.3533 2.44271 11.7281 2.34352 12.1599 2.34352C12.6909 2.34352 13.1314 2.50252 13.4815 2.82051C13.8345 3.1385 14.0226 3.5513 14.046 4.05891H13.2802C13.2568 3.75259 13.1401 3.5017 12.9301 3.30624C12.723 3.10786 12.4662 3.00867 12.1599 3.00867C11.7486 3.00867 11.4291 3.15746 11.2016 3.45503C10.9769 3.74968 10.8646 4.17707 10.8646 4.7372V4.89036C10.8646 5.4359 10.9769 5.85599 11.2016 6.15064C11.4262 6.4453 11.7471 6.59262 12.1643 6.59262Z" fill="#9F9F9F"/>
<path d="M19.0306 9.15779C18.9994 9.09555 18.9741 8.98469 18.9547 8.82521C18.7038 9.08582 18.4043 9.21613 18.0562 9.21613C17.745 9.21613 17.4892 9.12861 17.2889 8.95357C17.0905 8.77659 16.9913 8.55292 16.9913 8.28258C16.9913 7.9539 17.1158 7.69912 17.3648 7.51824C17.6156 7.33542 17.9677 7.24401 18.4208 7.24401H18.9459V6.99604C18.9459 6.80739 18.8895 6.65763 18.7767 6.54677C18.6639 6.43397 18.4977 6.37756 18.2779 6.37756C18.0853 6.37756 17.9239 6.42619 17.7936 6.52343C17.6633 6.62068 17.5981 6.73834 17.5981 6.87643H17.0555C17.0555 6.71889 17.1109 6.56719 17.2218 6.42132C17.3346 6.27351 17.4863 6.15682 17.6769 6.07124C17.8695 5.98567 18.0805 5.94288 18.31 5.94288C18.6737 5.94288 18.9586 6.03429 19.1647 6.21711C19.3709 6.39799 19.4779 6.6479 19.4857 6.96687V8.4197C19.4857 8.70949 19.5226 8.93996 19.5965 9.11111V9.15779H19.0306ZM18.1349 8.74644C18.3041 8.74644 18.4646 8.70268 18.6163 8.61516C18.768 8.52764 18.8779 8.41386 18.9459 8.27383V7.62618H18.5229C17.8617 7.62618 17.531 7.8197 17.531 8.20673C17.531 8.37594 17.5874 8.50819 17.7002 8.60349C17.813 8.69879 17.9579 8.74644 18.1349 8.74644Z" fill="#C4C4C4"/>
<path d="M23.004 7.61451C23.004 8.09685 22.8931 8.48485 22.6714 8.77853C22.4497 9.07027 22.1521 9.21613 21.7787 9.21613C21.38 9.21613 21.0717 9.07513 20.8539 8.79312L20.8276 9.15779H20.3317V4.67676H20.8714V6.34839C21.0892 6.07805 21.3897 5.94288 21.7728 5.94288C22.156 5.94288 22.4565 6.08778 22.6743 6.37756C22.8941 6.66735 23.004 7.06411 23.004 7.56784V7.61451ZM22.4643 7.55325C22.4643 7.18567 22.3933 6.90171 22.2513 6.70139C22.1093 6.50107 21.9051 6.4009 21.6386 6.4009C21.2827 6.4009 21.027 6.56622 20.8714 6.89685V8.26216C21.0367 8.59279 21.2944 8.75811 21.6445 8.75811C21.9032 8.75811 22.1045 8.65795 22.2484 8.45762C22.3923 8.2573 22.4643 7.95584 22.4643 7.55325Z" fill="#C4C4C4"/>
<path d="M24.9527 8.77561C25.1453 8.77561 25.3135 8.71727 25.4574 8.60057C25.6014 8.48388 25.6811 8.33801 25.6967 8.16297H26.2072C26.1975 8.34385 26.1352 8.51597 26.0205 8.67934C25.9057 8.84271 25.7521 8.97302 25.5595 9.07027C25.3689 9.16751 25.1667 9.21613 24.9527 9.21613C24.5229 9.21613 24.1806 9.07318 23.9258 8.78728C23.673 8.49944 23.5466 8.10657 23.5466 7.60868V7.51824C23.5466 7.21095 23.603 6.93769 23.7158 6.69847C23.8286 6.45925 23.99 6.27351 24.2001 6.14126C24.4121 6.00901 24.662 5.94288 24.9498 5.94288C25.3038 5.94288 25.5975 6.04888 25.8309 6.26087C26.0662 6.47286 26.1916 6.74807 26.2072 7.08648H25.6967C25.6811 6.88226 25.6033 6.715 25.4633 6.5847C25.3252 6.45244 25.154 6.38632 24.9498 6.38632C24.6756 6.38632 24.4626 6.48551 24.3109 6.68388C24.1612 6.88032 24.0863 7.16525 24.0863 7.53866V7.64077C24.0863 8.00447 24.1612 8.28453 24.3109 8.48096C24.4607 8.6774 24.6746 8.77561 24.9527 8.77561Z" fill="#C4C4C4"/>
<path d="M11.2472 28.4862C11.2005 28.3928 11.1626 28.2265 11.1334 27.9873C10.7571 28.3782 10.3078 28.5737 9.7856 28.5737C9.31882 28.5737 8.93519 28.4424 8.63471 28.1799C8.33714 27.9144 8.18835 27.5789 8.18835 27.1734C8.18835 26.6804 8.37506 26.2982 8.74848 26.0269C9.12482 25.7526 9.65286 25.6155 10.3326 25.6155H11.1203V25.2436C11.1203 24.9606 11.0357 24.736 10.8665 24.5697C10.6973 24.4005 10.4478 24.3159 10.1182 24.3159C9.82936 24.3159 9.58722 24.3888 9.39176 24.5347C9.19629 24.6805 9.09856 24.857 9.09856 25.0642H8.28463C8.28463 24.8279 8.36777 24.6003 8.53406 24.3815C8.70326 24.1598 8.93082 23.9847 9.21672 23.8564C9.50553 23.728 9.82206 23.6638 10.1663 23.6638C10.7118 23.6638 11.1392 23.8009 11.4485 24.0752C11.7577 24.3465 11.9182 24.7214 11.9298 25.1998V27.3791C11.9298 27.8137 11.9853 28.1594 12.0961 28.4162V28.4862H11.2472ZM9.90375 27.8692C10.1576 27.8692 10.3982 27.8035 10.6258 27.6723C10.8533 27.541 11.0182 27.3703 11.1203 27.1603V26.1888H10.4858C9.49386 26.1888 8.99792 26.4791 8.99792 27.0596C8.99792 27.3134 9.08252 27.5118 9.25172 27.6547C9.42093 27.7977 9.63827 27.8692 9.90375 27.8692Z" fill="#C4C4C4"/>
<path d="M17.2073 26.1713C17.2073 26.8948 17.041 27.4768 16.7084 27.9173C16.3759 28.3549 15.9295 28.5737 15.3694 28.5737C14.7713 28.5737 14.3089 28.3622 13.9822 27.9392L13.9428 28.4862H13.1989V21.7646H14.0084V24.2721C14.3352 23.8666 14.7859 23.6638 15.3606 23.6638C15.9353 23.6638 16.3861 23.8812 16.7128 24.3159C17.0425 24.7505 17.2073 25.3457 17.2073 26.1013V26.1713ZM16.3977 26.0794C16.3977 25.528 16.2913 25.1021 16.0783 24.8016C15.8653 24.5011 15.559 24.3509 15.1593 24.3509C14.6255 24.3509 14.2418 24.5988 14.0084 25.0948V27.1428C14.2564 27.6387 14.643 27.8867 15.1681 27.8867C15.5561 27.8867 15.858 27.7364 16.0739 27.4359C16.2898 27.1355 16.3977 26.6833 16.3977 26.0794Z" fill="#C4C4C4"/>
<path d="M20.1305 27.9129C20.4193 27.9129 20.6716 27.8254 20.8875 27.6504C21.1034 27.4753 21.223 27.2565 21.2463 26.994H22.0121C21.9976 27.2653 21.9042 27.5235 21.7321 27.7685C21.56 28.0136 21.3295 28.209 21.0407 28.3549C20.7548 28.5008 20.4514 28.5737 20.1305 28.5737C19.4857 28.5737 18.9723 28.3593 18.5901 27.9304C18.2109 27.4987 18.0212 26.9094 18.0212 26.1625V26.0269C18.0212 25.5659 18.1058 25.1561 18.275 24.7972C18.4442 24.4384 18.6864 24.1598 19.0015 23.9614C19.3194 23.763 19.6943 23.6638 20.1261 23.6638C20.657 23.6638 21.0976 23.8228 21.4476 24.1408C21.8006 24.4588 21.9888 24.8716 22.0121 25.3792H21.2463C21.223 25.0729 21.1063 24.822 20.8963 24.6266C20.6891 24.4282 20.4324 24.329 20.1261 24.329C19.7147 24.329 19.3953 24.4778 19.1677 24.7753C18.9431 25.07 18.8308 25.4974 18.8308 26.0575V26.2107C18.8308 26.7562 18.9431 27.1763 19.1677 27.471C19.3924 27.7656 19.7133 27.9129 20.1305 27.9129Z" fill="#C4C4C4"/>
<path d="M2.49316 23.0115C2.47135 22.9672 2.45363 22.8883 2.44 22.7749C2.26414 22.9603 2.05421 23.053 1.8102 23.053C1.59208 23.053 1.41282 22.9907 1.27241 22.8662C1.13337 22.7403 1.06384 22.5811 1.06384 22.3888C1.06384 22.1549 1.15109 21.9737 1.32558 21.845C1.50143 21.7149 1.74817 21.6498 2.0658 21.6498H2.43386V21.4734C2.43386 21.3392 2.39433 21.2326 2.31526 21.1538C2.2362 21.0735 2.11964 21.0334 1.9656 21.0334C1.83065 21.0334 1.7175 21.068 1.62616 21.1372C1.53483 21.2063 1.48916 21.2901 1.48916 21.3883H1.10883C1.10883 21.2762 1.14768 21.1683 1.22538 21.0645C1.30445 20.9593 1.41078 20.8763 1.54437 20.8154C1.67933 20.7545 1.82724 20.7241 1.9881 20.7241C2.24301 20.7241 2.44272 20.7891 2.58722 20.9192C2.73172 21.0479 2.8067 21.2257 2.81215 21.4527V22.4864C2.81215 22.6925 2.83805 22.8565 2.88985 22.9783V23.0115H2.49316ZM1.86541 22.7188C1.98401 22.7188 2.09647 22.6877 2.2028 22.6254C2.30913 22.5632 2.38615 22.4822 2.43386 22.3826V21.9218H2.13737C1.67388 21.9218 1.44213 22.0595 1.44213 22.3348C1.44213 22.4552 1.48166 22.5493 1.56073 22.6171C1.6398 22.6849 1.74136 22.7188 1.86541 22.7188Z" fill="#C4C4C4"/>
<path d="M5.27819 21.9135C5.27819 22.2566 5.20049 22.5327 5.04508 22.7417C4.88967 22.9492 4.6811 23.053 4.41937 23.053C4.13991 23.053 3.92384 22.9527 3.77117 22.752L3.75276 23.0115H3.40515V19.8232H3.78343V21.0126C3.93611 20.8203 4.14673 20.7241 4.41528 20.7241C4.68383 20.7241 4.89445 20.8272 5.04712 21.0334C5.20117 21.2396 5.27819 21.5218 5.27819 21.8802V21.9135ZM4.8999 21.8699C4.8999 21.6083 4.85014 21.4063 4.75063 21.2638C4.65111 21.1212 4.50798 21.05 4.32122 21.05C4.07175 21.05 3.89249 21.1676 3.78343 21.4028V22.3743C3.89931 22.6095 4.07993 22.7271 4.32531 22.7271C4.50661 22.7271 4.64771 22.6559 4.74858 22.5133C4.84946 22.3708 4.8999 22.1563 4.8999 21.8699Z" fill="#C4C4C4"/>
<path d="M6.64412 22.7396C6.77908 22.7396 6.89699 22.6981 6.99787 22.615C7.09875 22.532 7.15464 22.4282 7.16554 22.3037H7.52339C7.51657 22.4324 7.47295 22.5548 7.39252 22.6711C7.31209 22.7873 7.2044 22.88 7.06944 22.9492C6.93584 23.0184 6.79407 23.053 6.64412 23.053C6.34285 23.053 6.10293 22.9513 5.92435 22.7479C5.74713 22.5431 5.65852 22.2636 5.65852 21.9093V21.845C5.65852 21.6263 5.69805 21.4319 5.77712 21.2617C5.85619 21.0915 5.96933 20.9593 6.11656 20.8652C6.26515 20.7711 6.44032 20.7241 6.64207 20.7241C6.89018 20.7241 7.09602 20.7995 7.2596 20.9503C7.42455 21.1012 7.51248 21.297 7.52339 21.5378H7.16554C7.15464 21.3925 7.10011 21.2735 7.00196 21.1807C6.90517 21.0866 6.78521 21.0396 6.64207 21.0396C6.44986 21.0396 6.30059 21.1102 6.19426 21.2513C6.08929 21.3911 6.03681 21.5938 6.03681 21.8595V21.9321C6.03681 22.1909 6.08929 22.3902 6.19426 22.5299C6.29923 22.6697 6.44918 22.7396 6.64412 22.7396Z" fill="#C4C4C4"/>
<path d="M23.601 22.1026C23.5699 22.0404 23.5446 21.9295 23.5251 21.77C23.2742 22.0306 22.9747 22.161 22.6266 22.161C22.3154 22.161 22.0597 22.0734 21.8593 21.8984C21.661 21.7214 21.5618 21.4977 21.5618 21.2274C21.5618 20.8987 21.6862 20.6439 21.9352 20.4631C22.1861 20.2802 22.5381 20.1888 22.9913 20.1888H23.5164V19.9409C23.5164 19.7522 23.46 19.6025 23.3472 19.4916C23.2344 19.3788 23.0681 19.3224 22.8483 19.3224C22.6558 19.3224 22.4943 19.371 22.364 19.4683C22.2337 19.5655 22.1686 19.6832 22.1686 19.8213H21.6259C21.6259 19.6637 21.6814 19.512 21.7922 19.3661C21.905 19.2183 22.0567 19.1016 22.2473 19.0161C22.4399 18.9305 22.6509 18.8877 22.8804 18.8877C23.2441 18.8877 23.529 18.9791 23.7352 19.1619C23.9413 19.3428 24.0483 19.5927 24.0561 19.9117V21.3645C24.0561 21.6543 24.093 21.8848 24.1669 22.0559V22.1026H23.601ZM22.7054 21.6913C22.8746 21.6913 23.035 21.6475 23.1867 21.56C23.3384 21.4725 23.4483 21.3587 23.5164 21.2187V20.571H23.0934C22.4321 20.571 22.1015 20.7645 22.1015 21.1516C22.1015 21.3208 22.1579 21.453 22.2707 21.5483C22.3835 21.6436 22.5284 21.6913 22.7054 21.6913Z" fill="#9F9F9F"/>
<path d="M27.5744 20.5593C27.5744 21.0417 27.4635 21.4297 27.2418 21.7234C27.0201 22.0151 26.7225 22.161 26.3491 22.161C25.9504 22.161 25.6421 22.02 25.4243 21.7379L25.3981 22.1026H24.9021V17.6216H25.4418V19.2932C25.6597 19.0229 25.9601 18.8877 26.3433 18.8877C26.7264 18.8877 27.0269 19.0326 27.2447 19.3224C27.4645 19.6122 27.5744 20.0089 27.5744 20.5127V20.5593ZM27.0347 20.4981C27.0347 20.1305 26.9637 19.8465 26.8217 19.6462C26.6797 19.4459 26.4755 19.3457 26.2091 19.3457C25.8532 19.3457 25.5974 19.511 25.4418 19.8417V21.207C25.6071 21.5376 25.8648 21.7029 26.2149 21.7029C26.4736 21.7029 26.6749 21.6028 26.8188 21.4024C26.9627 21.2021 27.0347 20.9007 27.0347 20.4981Z" fill="#9F9F9F"/>
<path d="M29.5232 21.7204C29.7157 21.7204 29.884 21.6621 30.0279 21.5454C30.1718 21.4287 30.2515 21.2828 30.2671 21.1078H30.7776C30.7679 21.2887 30.7057 21.4608 30.5909 21.6242C30.4762 21.7875 30.3225 21.9178 30.13 22.0151C29.9394 22.1123 29.7371 22.161 29.5232 22.161C29.0934 22.161 28.7511 22.018 28.4963 21.7321C28.2434 21.4443 28.117 21.0514 28.117 20.5535V20.4631C28.117 20.1558 28.1734 19.8825 28.2862 19.6433C28.399 19.4041 28.5605 19.2183 28.7705 19.0861C28.9825 18.9538 29.2324 18.8877 29.5203 18.8877C29.8742 18.8877 30.1679 18.9937 30.4013 19.2057C30.6366 19.4177 30.7621 19.6929 30.7776 20.0313H30.2671C30.2515 19.8271 30.1737 19.6598 30.0337 19.5295C29.8956 19.3973 29.7245 19.3311 29.5203 19.3311C29.246 19.3311 29.0331 19.4303 28.8814 19.6287C28.7316 19.8251 28.6567 20.1101 28.6567 20.4835V20.5856C28.6567 20.9493 28.7316 21.2294 28.8814 21.4258C29.0311 21.6222 29.2451 21.7204 29.5232 21.7204Z" fill="#9F9F9F"/>
</svg>
