<svg width="37" height="42" viewBox="0 0 37 42" fill="none" xmlns="http://www.w3.org/2000/svg">
<path d="M11.6777 28.063C12.6032 28.4709 13.6843 28.0514 14.0922 27.1258C14.5002 26.2003 14.0806 25.1193 13.1551 24.7113C12.2295 24.3033 11.1485 24.7229 10.7405 25.6484C10.3326 26.574 10.7521 27.655 11.6777 28.063Z" fill="white"/>
<path d="M11.13 16.7735C11.3522 16.8714 11.6116 16.7707 11.7095 16.5486C11.8074 16.3265 11.7067 16.067 11.4846 15.9691C11.2625 15.8712 11.003 15.9719 10.9051 16.194C10.8072 16.4162 10.9079 16.6756 11.13 16.7735Z" fill="white"/>
<path d="M8.68666 20.5C8.90879 20.598 9.16824 20.4973 9.26615 20.2751C9.36407 20.053 9.26337 19.7936 9.04124 19.6956C8.81911 19.5977 8.55966 19.6984 8.46175 19.9206C8.36384 20.1427 8.46453 20.4021 8.68666 20.5Z" fill="white"/>
<path d="M6.38027 20.2839C6.6024 20.3819 6.86184 20.2812 6.95976 20.059C7.05767 19.8369 6.95697 19.5774 6.73484 19.4795C6.51271 19.3816 6.25327 19.4823 6.15535 19.7044C6.05744 19.9266 6.15814 20.186 6.38027 20.2839Z" fill="white"/>
<path d="M16.2765 21.4438C16.4986 21.5418 16.7581 21.4411 16.856 21.2189C16.9539 20.9968 16.8532 20.7374 16.6311 20.6394C16.409 20.5415 16.1495 20.6422 16.0516 20.8644C15.9537 21.0865 16.0544 21.3459 16.2765 21.4438Z" fill="white"/>
<path d="M14.1862 18.9213C14.4083 19.0192 14.6678 18.9185 14.7657 18.6963C14.8636 18.4742 14.7629 18.2148 14.5408 18.1169C14.3186 18.0189 14.0592 18.1196 13.9613 18.3418C13.8633 18.5639 13.964 18.8233 14.1862 18.9213Z" fill="white"/>
<path d="M5.86867 23.2608C6.0908 23.3587 6.35025 23.258 6.44816 23.0359C6.54607 22.8137 6.44538 22.5543 6.22325 22.4564C6.00112 22.3585 5.74167 22.4592 5.64376 22.6813C5.54584 22.9034 5.64654 23.1629 5.86867 23.2608Z" fill="white"/>
<path d="M19.174 20.3193C19.3961 20.4172 19.6555 20.3165 19.7535 20.0944C19.8514 19.8722 19.7507 19.6128 19.5285 19.5149C19.3064 19.417 19.047 19.5177 18.9491 19.7398C18.8511 19.9619 18.9518 20.2214 19.174 20.3193Z" fill="white"/>
<path d="M19.9237 22.2509C20.1459 22.3488 20.4053 22.2481 20.5032 22.026C20.6011 21.8039 20.5004 21.5444 20.2783 21.4465C20.0562 21.3486 19.7967 21.4493 19.6988 21.6714C19.6009 21.8936 19.7016 22.153 19.9237 22.2509Z" fill="white"/>
<path d="M21.3438 24.478C21.5659 24.576 21.8253 24.4753 21.9233 24.2531C22.0212 24.031 21.9205 23.7715 21.6983 23.6736C21.4762 23.5757 21.2168 23.6764 21.1189 23.8985C21.0209 24.1207 21.1216 24.3801 21.3438 24.478Z" fill="white"/>
<path d="M19.3328 23.5916C19.5549 23.6895 19.8144 23.5888 19.9123 23.3667C20.0102 23.1445 19.9095 22.8851 19.6874 22.7872C19.4652 22.6893 19.2058 22.79 19.1079 23.0121C19.01 23.2342 19.1107 23.4937 19.3328 23.5916Z" fill="white"/>
<path d="M20.5368 28.1252C20.7589 28.2231 21.0183 28.1224 21.1163 27.9003C21.2142 27.6782 21.1135 27.4187 20.8913 27.3208C20.6692 27.2229 20.4098 27.3236 20.3118 27.5457C20.2139 27.7678 20.3146 28.0273 20.5368 28.1252Z" fill="white"/>
<path d="M19.787 26.1936C20.0091 26.2915 20.2686 26.1908 20.3665 25.9687C20.4644 25.7465 20.3637 25.4871 20.1416 25.3892C19.9195 25.2913 19.66 25.3919 19.5621 25.6141C19.4642 25.8362 19.5649 26.0957 19.787 26.1936Z" fill="white"/>
<path d="M15.8664 33.2718C16.0885 33.3697 16.3479 33.269 16.4458 33.0469C16.5438 32.8247 16.4431 32.5653 16.2209 32.4674C15.9988 32.3695 15.7394 32.4702 15.6414 32.6923C15.5435 32.9144 15.6442 33.1739 15.8664 33.2718Z" fill="white"/>
<path d="M19.4342 32.4427C19.6564 32.5406 19.9158 32.4399 20.0137 32.2178C20.1116 31.9956 20.0109 31.7362 19.7888 31.6383C19.5667 31.5404 19.3072 31.6411 19.2093 31.8632C19.1114 32.0853 19.2121 32.3448 19.4342 32.4427Z" fill="white"/>
<path d="M21.6613 31.0226C21.8834 31.1206 22.1428 31.0199 22.2408 30.7977C22.3387 30.5756 22.238 30.3161 22.0158 30.2182C21.7937 30.1203 21.5343 30.221 21.4364 30.4431C21.3384 30.6653 21.4391 30.9247 21.6613 31.0226Z" fill="white"/>
<path d="M5.14101 28.5441C5.36314 28.642 5.62259 28.5413 5.7205 28.3192C5.81841 28.0971 5.71772 27.8376 5.49559 27.7397C5.27346 27.6418 5.01401 27.7425 4.9161 27.9646C4.81818 28.1867 4.91888 28.4462 5.14101 28.5441Z" fill="white"/>
<path d="M6.48171 29.1351C6.70384 29.233 6.96328 29.1323 7.0612 28.9101C7.15911 28.688 7.05841 28.4286 6.83628 28.3307C6.61415 28.2327 6.35471 28.3334 6.25679 28.5556C6.15888 28.7777 6.25958 29.0371 6.48171 29.1351Z" fill="white"/>
<path d="M5.59523 31.1461C5.81736 31.244 6.07681 31.1433 6.17472 30.9211C6.27264 30.699 6.17194 30.4396 5.94981 30.3417C5.72768 30.2437 5.46823 30.3444 5.37032 30.5666C5.27241 30.7887 5.3731 31.0481 5.59523 31.1461Z" fill="white"/>
<path d="M4.09584 27.2828C4.31797 27.3807 4.57742 27.28 4.67533 27.0579C4.77325 26.8358 4.67255 26.5763 4.45042 26.4784C4.22829 26.3805 3.96884 26.4812 3.87093 26.7033C3.77302 26.9254 3.87371 27.1849 4.09584 27.2828Z" fill="white"/>
<path d="M9.85168 35.1534C11.574 28.6765 12.5396 25.0451 14.2619 18.5681L14.5569 18.6466L10.1467 35.2319L9.85168 35.1534Z" fill="white"/>
<path d="M13.0485 36.0325C13.2706 36.1304 13.5301 36.0297 13.628 35.8076C13.7259 35.5855 13.6252 35.326 13.4031 35.2281C13.1809 35.1302 12.9215 35.2309 12.8236 35.453C12.7257 35.6751 12.8264 35.9346 13.0485 36.0325Z" fill="white"/>
<path d="M8.49609 31.6879C11.671 27.3987 13.451 24.9939 16.6259 20.7048L16.8712 20.8864L8.74143 31.8695L8.49609 31.6879Z" fill="white"/>
<path d="M10.0637 35.3573C9.87858 35.2757 9.79467 35.0595 9.87626 34.8744C9.95785 34.6893 10.1741 34.6054 10.3592 34.687C10.5443 34.7686 10.6282 34.9848 10.5466 35.1699C10.465 35.355 10.2488 35.4389 10.0637 35.3573Z" fill="white"/>
<path d="M13.1196 35.951C12.3754 28.3183 11.9582 24.0389 11.2139 16.4062L11.5177 16.3766L13.4234 35.9213L13.1196 35.951Z" fill="white"/>
<path d="M6.297 28.5967C11.3851 26.509 14.2377 25.3385 19.3258 23.2508L19.4417 23.5332L6.41287 28.8791L6.297 28.5967Z" fill="white"/>
<path d="M21.7367 30.5372C15.7162 27.5825 12.3407 25.9259 6.32024 22.9711L6.45472 22.6971L21.8712 30.2632L21.7367 30.5372Z" fill="white"/>
<path d="M5.94814 24.8969C6.17027 24.9949 6.42971 24.8942 6.52763 24.672C6.62554 24.4499 6.52484 24.1905 6.30271 24.0925C6.08058 23.9946 5.82114 24.0953 5.72322 24.3175C5.62531 24.5396 5.72601 24.799 5.94814 24.8969Z" fill="white"/>
<path d="M16.1791 33.2566C13.3141 28.2499 11.7078 25.4429 8.84279 20.4362L9.10772 20.2846L16.444 33.105L16.1791 33.2566Z" fill="white"/>
<path d="M20.1266 25.7494C13.9477 26.2211 10.4834 26.4856 4.30445 26.9572L4.28122 26.6529L20.1034 25.4451L20.1266 25.7494Z" fill="white"/>
<path d="M20.5769 27.876C14.8713 26.6358 11.6724 25.9405 5.96687 24.7004L6.0317 24.4021L20.6417 27.5777L20.5769 27.876Z" fill="white"/>
<path d="M21.6669 24.037C15.3067 25.6949 11.7408 26.6245 5.38059 28.2824L5.30359 27.9871L21.5899 23.7416L21.6669 24.037Z" fill="white"/>
<path d="M19.749 32.2854C14.5866 27.5409 11.6923 24.8809 6.52991 20.1364L6.73646 19.9117L19.9556 32.0606L19.749 32.2854Z" fill="white"/>
<path d="M19.6542 19.873C14.6832 24.6467 11.8962 27.3232 6.92528 32.097L6.71386 31.8768L19.4427 19.6528L19.6542 19.873Z" fill="white"/>
<path d="M20.2841 21.727C14.5337 25.3795 11.3096 27.4274 5.55922 31.0799L5.39556 30.8223L20.1204 21.4693L20.2841 21.727Z" fill="white"/>
<path d="M6.64052 32.4074C6.86265 32.5053 7.1221 32.4046 7.22001 32.1825C7.31792 31.9603 7.21723 31.7009 6.9951 31.603C6.77297 31.505 6.51352 31.6057 6.41561 31.8279C6.31769 32.05 6.41839 32.3095 6.64052 32.4074Z" fill="white"/>
<path d="M8.27675 32.328C8.49888 32.4259 8.75833 32.3252 8.85624 32.1031C8.95415 31.8809 8.85346 31.6215 8.63133 31.5236C8.4092 31.4257 8.14975 31.5264 8.05184 31.7485C7.95392 31.9706 8.05462 32.2301 8.27675 32.328Z" fill="white"/>
<path d="M23.7071 14.8479C24.5126 15.203 25.4535 14.8378 25.8086 14.0323C26.1636 13.2268 25.7985 12.2859 24.9929 11.9308C24.1874 11.5758 23.2466 11.9409 22.8915 12.7465C22.5364 13.552 22.9016 14.4928 23.7071 14.8479Z" fill="#9F9F9F"/>
<path d="M23.2305 5.02243C23.4239 5.10765 23.6497 5.02001 23.7349 4.82669C23.8201 4.63336 23.7325 4.40756 23.5391 4.32234C23.3458 4.23713 23.12 4.32477 23.0348 4.51809C22.9496 4.71142 23.0372 4.93722 23.2305 5.02243Z" fill="#9F9F9F"/>
<path d="M21.1041 8.26573C21.2974 8.35094 21.5232 8.2633 21.6084 8.06998C21.6936 7.87666 21.606 7.65085 21.4127 7.56564C21.2193 7.48042 20.9935 7.56806 20.9083 7.76138C20.8231 7.95471 20.9107 8.18051 21.1041 8.26573Z" fill="#9F9F9F"/>
<path d="M19.0967 8.07764C19.2901 8.16286 19.5159 8.07522 19.6011 7.88189C19.6863 7.68857 19.5987 7.46277 19.4053 7.37755C19.212 7.29233 18.9862 7.37997 18.901 7.5733C18.8158 7.76662 18.9034 7.99242 19.0967 8.07764Z" fill="#9F9F9F"/>
<path d="M27.7097 9.08712C27.903 9.17234 28.1288 9.0847 28.214 8.89138C28.2992 8.69805 28.2116 8.47225 28.0183 8.38703C27.8249 8.30182 27.5991 8.38946 27.5139 8.58278C27.4287 8.7761 27.5163 9.00191 27.7097 9.08712Z" fill="#9F9F9F"/>
<path d="M25.8903 6.89165C26.0837 6.97687 26.3095 6.88923 26.3947 6.69591C26.4799 6.50258 26.3922 6.27678 26.1989 6.19156C26.0056 6.10635 25.7798 6.19399 25.6946 6.38731C25.6094 6.58064 25.697 6.80644 25.8903 6.89165Z" fill="#9F9F9F"/>
<path d="M18.6514 10.6684C18.8448 10.7537 19.0706 10.666 19.1558 10.4727C19.241 10.2794 19.1534 10.0536 18.96 9.96835C18.7667 9.88314 18.5409 9.97078 18.4557 10.1641C18.3705 10.3574 18.4581 10.5832 18.6514 10.6684Z" fill="#9F9F9F"/>
<path d="M30.2314 8.10839C30.4247 8.19361 30.6505 8.10597 30.7357 7.91264C30.821 7.71932 30.7333 7.49352 30.54 7.4083C30.3467 7.32308 30.1209 7.41072 30.0356 7.60405C29.9504 7.79737 30.0381 8.02317 30.2314 8.10839Z" fill="#9F9F9F"/>
<path d="M30.8839 9.78954C31.0772 9.87476 31.303 9.78712 31.3882 9.59379C31.4734 9.40047 31.3858 9.17466 31.1925 9.08945C30.9991 9.00423 30.7733 9.09187 30.6881 9.2852C30.6029 9.47852 30.6905 9.70432 30.8839 9.78954Z" fill="#9F9F9F"/>
<path d="M32.1198 11.7278C32.3131 11.8131 32.5389 11.7254 32.6242 11.5321C32.7094 11.3388 32.6217 11.113 32.4284 11.0278C32.2351 10.9425 32.0093 11.0302 31.9241 11.2235C31.8389 11.4168 31.9265 11.6426 32.1198 11.7278Z" fill="#9F9F9F"/>
<path d="M30.3696 10.9564C30.5629 11.0416 30.7887 10.9539 30.8739 10.7606C30.9591 10.5673 30.8715 10.3415 30.6782 10.2563C30.4848 10.171 30.259 10.2587 30.1738 10.452C30.0886 10.6453 30.1762 10.8711 30.3696 10.9564Z" fill="#9F9F9F"/>
<path d="M31.4173 14.902C31.6106 14.9873 31.8364 14.8996 31.9216 14.7063C32.0069 14.513 31.9192 14.2872 31.7259 14.202C31.5326 14.1167 31.3068 14.2044 31.2216 14.3977C31.1363 14.591 31.224 14.8168 31.4173 14.902Z" fill="#9F9F9F"/>
<path d="M30.7648 13.2209C30.9582 13.3061 31.184 13.2185 31.2692 13.0251C31.3544 12.8318 31.2668 12.606 31.0734 12.5208C30.8801 12.4356 30.6543 12.5232 30.5691 12.7166C30.4839 12.9099 30.5715 13.1357 30.7648 13.2209Z" fill="#9F9F9F"/>
<path d="M27.3527 19.3813C27.5461 19.4665 27.7719 19.3788 27.8571 19.1855C27.9423 18.9922 27.8546 18.7664 27.6613 18.6812C27.468 18.5959 27.2422 18.6836 27.157 18.8769C27.0718 19.0702 27.1594 19.296 27.3527 19.3813Z" fill="#9F9F9F"/>
<path d="M30.4578 18.6597C30.6512 18.7449 30.877 18.6572 30.9622 18.4639C31.0474 18.2706 30.9598 18.0448 30.7664 17.9596C30.5731 17.8744 30.3473 17.962 30.2621 18.1553C30.1769 18.3487 30.2645 18.5745 30.4578 18.6597Z" fill="#9F9F9F"/>
<path d="M32.3962 17.4238C32.5895 17.509 32.8153 17.4214 32.9005 17.228C32.9857 17.0347 32.8981 16.8089 32.7048 16.7237C32.5115 16.6385 32.2857 16.7261 32.2004 16.9194C32.1152 17.1128 32.2029 17.3386 32.3962 17.4238Z" fill="#9F9F9F"/>
<path d="M18.0181 15.2666C18.2115 15.3519 18.4373 15.2642 18.5225 15.0709C18.6077 14.8776 18.5201 14.6518 18.3267 14.5665C18.1334 14.4813 17.9076 14.569 17.8224 14.7623C17.7372 14.9556 17.8248 15.1814 18.0181 15.2666Z" fill="#9F9F9F"/>
<path d="M19.1849 15.781C19.3782 15.8662 19.604 15.7785 19.6892 15.5852C19.7744 15.3919 19.6868 15.1661 19.4935 15.0809C19.3002 14.9956 19.0744 15.0833 18.9891 15.2766C18.9039 15.4699 18.9916 15.6957 19.1849 15.781Z" fill="#9F9F9F"/>
<path d="M18.4134 17.5312C18.6067 17.6164 18.8325 17.5288 18.9177 17.3354C19.003 17.1421 18.9153 16.9163 18.722 16.8311C18.5287 16.7459 18.3029 16.8335 18.2177 17.0268C18.1324 17.2202 18.2201 17.446 18.4134 17.5312Z" fill="#9F9F9F"/>
<path d="M17.1083 14.1689C17.3017 14.2541 17.5275 14.1665 17.6127 13.9731C17.6979 13.7798 17.6103 13.554 17.4169 13.4688C17.2236 13.3836 16.9978 13.4712 16.9126 13.6645C16.8274 13.8579 16.915 14.0837 17.1083 14.1689Z" fill="#9F9F9F"/>
<path d="M22.1178 21.0189C23.6168 15.3818 24.4572 12.2213 25.9561 6.58429L26.2128 6.65256L22.3745 21.0871L22.1178 21.0189Z" fill="#9F9F9F"/>
<path d="M24.9 21.7839C25.0933 21.8691 25.3191 21.7815 25.4043 21.5882C25.4895 21.3949 25.4019 21.169 25.2086 21.0838C25.0152 20.9986 24.7894 21.0863 24.7042 21.2796C24.619 21.4729 24.7066 21.6987 24.9 21.7839Z" fill="#9F9F9F"/>
<path d="M20.938 18.0027C23.7012 14.2697 25.2504 12.1768 28.0135 8.44384L28.2271 8.6019L21.1515 18.1607L20.938 18.0027Z" fill="#9F9F9F"/>
<path d="M22.3022 21.1963C22.1411 21.1253 22.0681 20.9371 22.1391 20.776C22.2101 20.6149 22.3983 20.5419 22.5594 20.6129C22.7205 20.6839 22.7935 20.872 22.7225 21.0332C22.6515 21.1943 22.4633 21.2673 22.3022 21.1963Z" fill="#9F9F9F"/>
<path d="M24.962 21.713C24.3143 15.0701 23.9512 11.3456 23.3035 4.70274L23.5679 4.67696L25.2264 21.6872L24.962 21.713Z" fill="#9F9F9F"/>
<path d="M19.024 15.3124C23.4523 13.4954 25.935 12.4767 30.3633 10.6597L30.4641 10.9055L19.1249 15.5581L19.024 15.3124Z" fill="#9F9F9F"/>
<path d="M32.4617 17.0013C27.2219 14.4297 24.2841 12.9879 19.0444 10.4163L19.1614 10.1778L32.5787 16.7628L32.4617 17.0013Z" fill="#9F9F9F"/>
<path d="M18.7205 12.0924C18.9139 12.1776 19.1397 12.09 19.2249 11.8966C19.3101 11.7033 19.2224 11.4775 19.0291 11.3923C18.8358 11.3071 18.61 11.3947 18.5248 11.588C18.4396 11.7814 18.5272 12.0072 18.7205 12.0924Z" fill="#9F9F9F"/>
<path d="M27.6246 19.368C25.1312 15.0106 23.7332 12.5675 21.2397 8.21007L21.4703 8.07813L27.8552 19.2361L27.6246 19.368Z" fill="#9F9F9F"/>
<path d="M31.0604 12.8344C25.6828 13.2449 22.6677 13.475 17.29 13.8855L17.2698 13.6206L31.0402 12.5695L31.0604 12.8344Z" fill="#9F9F9F"/>
<path d="M31.4523 14.6851C26.4866 13.6058 23.7025 13.0007 18.7368 11.9213L18.7932 11.6617L31.5087 14.4255L31.4523 14.6851Z" fill="#9F9F9F"/>
<path d="M32.4008 11.3439C26.8653 12.7869 23.7618 13.5959 18.2264 15.0388L18.1594 14.7818L32.3337 11.0869L32.4008 11.3439Z" fill="#9F9F9F"/>
<path d="M30.7317 18.5227C26.2387 14.3935 23.7197 12.0784 19.2268 7.94919L19.4065 7.75359L30.9115 18.3271L30.7317 18.5227Z" fill="#9F9F9F"/>
<path d="M30.6492 7.7199C26.3228 11.8746 23.8972 14.204 19.5709 18.3587L19.3869 18.1671L30.4652 7.52829L30.6492 7.7199Z" fill="#9F9F9F"/>
<path d="M31.1973 9.33348C26.1926 12.5124 23.3866 14.2947 18.3819 17.4736L18.2395 17.2493L31.0548 9.10924L31.1973 9.33348Z" fill="#9F9F9F"/>
<path d="M19.3231 18.6289C19.5164 18.7141 19.7422 18.6265 19.8274 18.4331C19.9126 18.2398 19.825 18.014 19.6317 17.9288C19.4383 17.8436 19.2125 17.9312 19.1273 18.1245C19.0421 18.3179 19.1297 18.5437 19.3231 18.6289Z" fill="#9F9F9F"/>
<path d="M20.747 18.5598C20.9403 18.645 21.1661 18.5574 21.2514 18.364C21.3366 18.1707 21.2489 17.9449 21.0556 17.8597C20.8623 17.7745 20.6365 17.8621 20.5513 18.0555C20.4661 18.2488 20.5537 18.4746 20.747 18.5598Z" fill="#9F9F9F"/>
</svg>
