<svg width="31" height="30" viewBox="0 0 31 30" fill="none" xmlns="http://www.w3.org/2000/svg">
<rect y="28.9286" width="28.9286" height="1.07143" transform="rotate(-90 0 28.9286)" fill="#9F9F9F"/>
<rect y="28.9286" width="29.9999" height="1.07143" fill="#9F9F9F"/>
<path d="M2.78992 22.4553C3.62503 22.305 5.4478 21.4963 6.38307 21.964C7.15285 22.3488 7.51186 23.2415 8.04144 23.8373C9.78348 25.7971 9.42766 22.4331 10.0376 21.6876C10.7904 20.7675 11.0288 19.1652 11.6346 18.0637C12.2047 17.0271 12.6608 15.9352 13.293 14.9312C14.8726 12.4223 15.75 15.6768 17.5771 16.0829C18.7003 16.3324 19.2524 15.5495 20.0647 15.008C20.7976 14.5193 20.8848 14.4398 21.8613 14.4398C23.2935 14.4398 24.5259 13.9926 24.9016 12.4897C25.3887 10.5415 26.0284 8.15414 27.2663 6.56254C27.9965 5.62376 29.8767 4.0484 29.8767 2.83119" stroke="#C4C4C4" stroke-width="0.5" stroke-linecap="round" stroke-linejoin="round"/>
<path d="M3.9939 19.9511C5.83929 19.9511 7.20826 20.3244 9.03448 20.3244C10.7228 20.3244 11.6498 20.098 12.789 21.2371C14.7543 23.2024 16.1601 16.6257 16.7717 15.4705C17.0176 15.0059 16.8539 14.0101 17.1451 13.6866C17.3827 13.4226 18.4728 12.8665 18.5348 12.6495C18.9257 11.2815 20.2574 10.2433 21.7293 10.2433C24.5888 10.2433 26.4946 9.49651 29.3835 9.49651" stroke="white" stroke-width="0.5" stroke-linecap="round" stroke-linejoin="round"/>
</svg>
