<svg width="30" height="29" viewBox="0 0 30 29" fill="none" xmlns="http://www.w3.org/2000/svg">
<rect y="28.3333" width="28.3333" height="0.416667" transform="rotate(-90 0 28.3333)" fill="#9F9F9F"/>
<rect y="28.3333" width="30" height="0.416667" fill="#9F9F9F"/>
<path d="M6.49996 14.6667C6.9602 14.6667 7.33329 14.2936 7.33329 13.8333C7.33329 13.3731 6.9602 13 6.49996 13C6.03972 13 5.66663 13.3731 5.66663 13.8333C5.66663 14.2936 6.03972 14.6667 6.49996 14.6667Z" fill="white"/>
<path d="M8.83333 14.6667C9.29357 14.6667 9.66667 14.2936 9.66667 13.8333C9.66667 13.3731 9.29357 13 8.83333 13C8.3731 13 8 13.3731 8 13.8333C8 14.2936 8.3731 14.6667 8.83333 14.6667Z" fill="white"/>
<path d="M8.83333 11.6667C9.29357 11.6667 9.66667 11.2936 9.66667 10.8333C9.66667 10.3731 9.29357 10 8.83333 10C8.3731 10 8 10.3731 8 10.8333C8 11.2936 8.3731 11.6667 8.83333 11.6667Z" fill="white"/>
<path d="M7.83333 12.6667C8.29357 12.6667 8.66667 12.2936 8.66667 11.8333C8.66667 11.3731 8.29357 11 7.83333 11C7.3731 11 7 11.3731 7 11.8333C7 12.2936 7.3731 12.6667 7.83333 12.6667Z" fill="white"/>
<path d="M7.83333 15.6667C8.29357 15.6667 8.66667 15.2936 8.66667 14.8333C8.66667 14.3731 8.29357 14 7.83333 14C7.3731 14 7 14.3731 7 14.8333C7 15.2936 7.3731 15.6667 7.83333 15.6667Z" fill="white"/>
<path d="M5.83333 12.6667C6.29357 12.6667 6.66667 12.2936 6.66667 11.8333C6.66667 11.3731 6.29357 11 5.83333 11C5.3731 11 5 11.3731 5 11.8333C5 12.2936 5.3731 12.6667 5.83333 12.6667Z" fill="white"/>
<path d="M10.8333 16.6667C11.2936 16.6667 11.6667 16.2936 11.6667 15.8333C11.6667 15.3731 11.2936 15 10.8333 15C10.3731 15 10 15.3731 10 15.8333C10 16.2936 10.3731 16.6667 10.8333 16.6667Z" fill="white"/>
<path d="M10.8333 13.6667C11.2936 13.6667 11.6667 13.2936 11.6667 12.8333C11.6667 12.3731 11.2936 12 10.8333 12C10.3731 12 10 12.3731 10 12.8333C10 13.2936 10.3731 13.6667 10.8333 13.6667Z" fill="white"/>
<path d="M6.83333 10.6667C7.29357 10.6667 7.66667 10.2936 7.66667 9.83333C7.66667 9.37309 7.29357 9 6.83333 9C6.3731 9 6 9.37309 6 9.83333C6 10.2936 6.3731 10.6667 6.83333 10.6667Z" fill="white"/>
<path d="M4.83333 15.6667C5.29357 15.6667 5.66667 15.2936 5.66667 14.8333C5.66667 14.3731 5.29357 14 4.83333 14C4.3731 14 4 14.3731 4 14.8333C4 15.2936 4.3731 15.6667 4.83333 15.6667Z" fill="white"/>
<path d="M6.83333 17.6667C7.29357 17.6667 7.66667 17.2936 7.66667 16.8333C7.66667 16.3731 7.29357 16 6.83333 16C6.3731 16 6 16.3731 6 16.8333C6 17.2936 6.3731 17.6667 6.83333 17.6667Z" fill="white"/>
<path d="M11.8333 10.6667C12.2936 10.6667 12.6667 10.2936 12.6667 9.83333C12.6667 9.37309 12.2936 9 11.8333 9C11.3731 9 11 9.37309 11 9.83333C11 10.2936 11.3731 10.6667 11.8333 10.6667Z" fill="white"/>
<path d="M18.1667 23.1667C18.6269 23.1667 19 22.7936 19 22.3333C19 21.8731 18.6269 21.5 18.1667 21.5C17.7065 21.5 17.3334 21.8731 17.3334 22.3333C17.3334 22.7936 17.7065 23.1667 18.1667 23.1667Z" fill="#C4C4C4"/>
<path d="M19.8333 24.6667C20.2936 24.6667 20.6667 24.2936 20.6667 23.8333C20.6667 23.3731 20.2936 23 19.8333 23C19.3731 23 19 23.3731 19 23.8333C19 24.2936 19.3731 24.6667 19.8333 24.6667Z" fill="#C4C4C4"/>
<path d="M19.8333 21.6667C20.2936 21.6667 20.6667 21.2936 20.6667 20.8333C20.6667 20.3731 20.2936 20 19.8333 20C19.3731 20 19 20.3731 19 20.8333C19 21.2936 19.3731 21.6667 19.8333 21.6667Z" fill="#C4C4C4"/>
<path d="M22.8333 24.6667C23.2936 24.6667 23.6667 24.2936 23.6667 23.8333C23.6667 23.3731 23.2936 23 22.8333 23C22.3731 23 22 23.3731 22 23.8333C22 24.2936 22.3731 24.6667 22.8333 24.6667Z" fill="#C4C4C4"/>
<path d="M21.8333 26.6667C22.2936 26.6667 22.6667 26.2936 22.6667 25.8333C22.6667 25.3731 22.2936 25 21.8333 25C21.3731 25 21 25.3731 21 25.8333C21 26.2936 21.3731 26.6667 21.8333 26.6667Z" fill="#C4C4C4"/>
<path d="M17.8333 20.6667C18.2936 20.6667 18.6667 20.2936 18.6667 19.8333C18.6667 19.3731 18.2936 19 17.8333 19C17.3731 19 17 19.3731 17 19.8333C17 20.2936 17.3731 20.6667 17.8333 20.6667Z" fill="#C4C4C4"/>
<path d="M15.8333 22.6667C16.2936 22.6667 16.6667 22.2936 16.6667 21.8333C16.6667 21.3731 16.2936 21 15.8333 21C15.3731 21 15 21.3731 15 21.8333C15 22.2936 15.3731 22.6667 15.8333 22.6667Z" fill="#C4C4C4"/>
<path d="M23.8333 22.6667C24.2936 22.6667 24.6667 22.2936 24.6667 21.8333C24.6667 21.3731 24.2936 21 23.8333 21C23.3731 21 23 21.3731 23 21.8333C23 22.2936 23.3731 22.6667 23.8333 22.6667Z" fill="#C4C4C4"/>
<path d="M19.8333 19.6667C20.2936 19.6667 20.6667 19.2936 20.6667 18.8333C20.6667 18.3731 20.2936 18 19.8333 18C19.3731 18 19 18.3731 19 18.8333C19 19.2936 19.3731 19.6667 19.8333 19.6667Z" fill="#C4C4C4"/>
<path d="M21.8333 22.6667C22.2936 22.6667 22.6667 22.2936 22.6667 21.8333C22.6667 21.3731 22.2936 21 21.8333 21C21.3731 21 21 21.3731 21 21.8333C21 22.2936 21.3731 22.6667 21.8333 22.6667Z" fill="#C4C4C4"/>
<path d="M23 5.83333C23.4602 5.83333 23.8333 5.46023 23.8333 5C23.8333 4.53976 23.4602 4.16666 23 4.16666C22.5397 4.16666 22.1666 4.53976 22.1666 5C22.1666 5.46023 22.5397 5.83333 23 5.83333Z" fill="#9F9F9F"/>
<path d="M24.8333 4.66666C25.2936 4.66666 25.6667 4.29357 25.6667 3.83333C25.6667 3.37309 25.2936 3 24.8333 3C24.3731 3 24 3.37309 24 3.83333C24 4.29357 24.3731 4.66666 24.8333 4.66666Z" fill="#9F9F9F"/>
<path d="M21.8333 4.66666C22.2936 4.66666 22.6667 4.29357 22.6667 3.83333C22.6667 3.37309 22.2936 3 21.8333 3C21.3731 3 21 3.37309 21 3.83333C21 4.29357 21.3731 4.66666 21.8333 4.66666Z" fill="#9F9F9F"/>
<path d="M26.8333 5.66666C27.2936 5.66666 27.6667 5.29357 27.6667 4.83333C27.6667 4.37309 27.2936 4 26.8333 4C26.3731 4 26 4.37309 26 4.83333C26 5.29357 26.3731 5.66666 26.8333 5.66666Z" fill="#9F9F9F"/>
<path d="M23.8333 8.66666C24.2936 8.66666 24.6667 8.29357 24.6667 7.83333C24.6667 7.37309 24.2936 7 23.8333 7C23.3731 7 23 7.37309 23 7.83333C23 8.29357 23.3731 8.66666 23.8333 8.66666Z" fill="#9F9F9F"/>
<path d="M26.8333 7.66666C27.2936 7.66666 27.6667 7.29357 27.6667 6.83333C27.6667 6.37309 27.2936 6 26.8333 6C26.3731 6 26 6.37309 26 6.83333C26 7.29357 26.3731 7.66666 26.8333 7.66666Z" fill="#9F9F9F"/>
<path d="M20.8333 6.66666C21.2936 6.66666 21.6667 6.29357 21.6667 5.83333C21.6667 5.37309 21.2936 5 20.8333 5C20.3731 5 20 5.37309 20 5.83333C20 6.29357 20.3731 6.66666 20.8333 6.66666Z" fill="#9F9F9F"/>
<path d="M20.8333 9.66666C21.2936 9.66666 21.6667 9.29357 21.6667 8.83333C21.6667 8.37309 21.2936 8 20.8333 8C20.3731 8 20 8.37309 20 8.83333C20 9.29357 20.3731 9.66666 20.8333 9.66666Z" fill="#9F9F9F"/>
<path d="M25.8333 9.66666C26.2936 9.66666 26.6667 9.29357 26.6667 8.83333C26.6667 8.37309 26.2936 8 25.8333 8C25.3731 8 25 8.37309 25 8.83333C25 9.29357 25.3731 9.66666 25.8333 9.66666Z" fill="#9F9F9F"/>
<path d="M23.8333 2.66666C24.2936 2.66666 24.6667 2.29357 24.6667 1.83333C24.6667 1.37309 24.2936 0.999996 23.8333 0.999996C23.3731 0.999996 23 1.37309 23 1.83333C23 2.29357 23.3731 2.66666 23.8333 2.66666Z" fill="#9F9F9F"/>
<path d="M27.8333 6.66666C28.2936 6.66666 28.6667 6.29357 28.6667 5.83333C28.6667 5.37309 28.2936 5 27.8333 5C27.3731 5 27 5.37309 27 5.83333C27 6.29357 27.3731 6.66666 27.8333 6.66666Z" fill="#9F9F9F"/>
<path d="M23.8333 10.6667C24.2936 10.6667 24.6667 10.2936 24.6667 9.83333C24.6667 9.37309 24.2936 9 23.8333 9C23.3731 9 23 9.37309 23 9.83333C23 10.2936 23.3731 10.6667 23.8333 10.6667Z" fill="#9F9F9F"/>
<path d="M24.8333 6.66666C25.2936 6.66666 25.6667 6.29357 25.6667 5.83333C25.6667 5.37309 25.2936 5 24.8333 5C24.3731 5 24 5.37309 24 5.83333C24 6.29357 24.3731 6.66666 24.8333 6.66666Z" fill="#9F9F9F"/>
</svg>
