<svg width="30" height="30" viewBox="0 0 30 30" fill="none" xmlns="http://www.w3.org/2000/svg">
<path d="M14.5831 4.37496C15.7912 4.37496 16.7706 3.39558 16.7706 2.18746C16.7706 0.979343 15.7912 -3.05176e-05 14.5831 -3.05176e-05C13.375 -3.05176e-05 12.3956 0.979343 12.3956 2.18746C12.3956 3.39558 13.375 4.37496 14.5831 4.37496Z" fill="#9F9F9F"/>
<path d="M14.2184 3.8869C14.2184 6.75253 6.56217 6.17941 6.56217 9.33157" stroke="#9F9F9F" stroke-linecap="round" stroke-linejoin="round"/>
<path d="M14.3952 3.8869C14.3952 6.75253 22.0514 6.17941 22.0514 9.33157" stroke="#9F9F9F" stroke-linecap="round" stroke-linejoin="round"/>
<path d="M6.21899 12.8294C6.21898 15.6204 2.23422 15.1063 2.23422 18.1764" stroke="#C4C4C4" stroke-linecap="round" stroke-linejoin="round"/>
<path d="M21.3928 12.8294C21.3928 15.6204 17.4081 15.1063 17.4081 18.1764" stroke="#C4C4C4" stroke-linecap="round" stroke-linejoin="round"/>
<path d="M22.5122 13.125C22.5122 15.916 26.497 15.4019 26.497 18.472" stroke="#C4C4C4" stroke-linecap="round" stroke-linejoin="round"/>
<path d="M15.9761 20.9545C15.9761 23.7455 11.9913 23.2314 11.9913 26.3015" stroke="#C4C4C4" stroke-linecap="round" stroke-linejoin="round"/>
<path d="M17.0956 21.25C17.0956 24.041 21.0804 23.5269 21.0804 26.597" stroke="#C4C4C4" stroke-linecap="round" stroke-linejoin="round"/>
<path d="M6.69787 12.7028C6.41478 15.7556 10.6631 14.8711 10.3517 18.2291" stroke="#C4C4C4" stroke-linecap="round" stroke-linejoin="round"/>
<path d="M2.18749 21.875C3.39561 21.875 4.37498 20.8956 4.37498 19.6875C4.37498 18.4793 3.39561 17.5 2.18749 17.5C0.979374 17.5 0 18.4793 0 19.6875C0 20.8956 0.979374 21.875 2.18749 21.875Z" fill="white"/>
<path d="M10.2084 21.875C11.4165 21.875 12.3959 20.8956 12.3959 19.6875C12.3959 18.4793 11.4165 17.5 10.2084 17.5C9.00025 17.5 8.02087 18.4793 8.02087 19.6875C8.02087 20.8956 9.00025 21.875 10.2084 21.875Z" fill="white"/>
<path d="M16.7707 21.875C17.9789 21.875 18.9582 20.8956 18.9582 19.6875C18.9582 18.4793 17.9789 17.5 16.7707 17.5C15.5626 17.5 14.5833 18.4793 14.5833 19.6875C14.5833 20.8956 15.5626 21.875 16.7707 21.875Z" fill="#C4C4C4"/>
<path d="M26.979 21.875C28.1871 21.875 29.1665 20.8956 29.1665 19.6875C29.1665 18.4793 28.1871 17.5 26.979 17.5C25.7709 17.5 24.7915 18.4793 24.7915 19.6875C24.7915 20.8956 25.7709 21.875 26.979 21.875Z" fill="white"/>
<path d="M12.0832 30C13.2914 30 14.2707 29.0206 14.2707 27.8125C14.2707 26.6044 13.2914 25.625 12.0832 25.625C10.8751 25.625 9.89575 26.6044 9.89575 27.8125C9.89575 29.0206 10.8751 30 12.0832 30Z" fill="white"/>
<path d="M21.5624 30C22.7705 30 23.7499 29.0206 23.7499 27.8125C23.7499 26.6044 22.7705 25.625 21.5624 25.625C20.3543 25.625 19.3749 26.6044 19.3749 27.8125C19.3749 29.0206 20.3543 30 21.5624 30Z" fill="white"/>
<path d="M6.56237 13.1249C7.77049 13.1249 8.74986 12.1455 8.74986 10.9374C8.74986 9.72928 7.77049 8.74991 6.56237 8.74991C5.35425 8.74991 4.37488 9.72928 4.37488 10.9374C4.37488 12.1455 5.35425 13.1249 6.56237 13.1249Z" fill="#C4C4C4"/>
<path d="M21.8747 13.1249C23.0829 13.1249 24.0622 12.1455 24.0622 10.9374C24.0622 9.72928 23.0829 8.74991 21.8747 8.74991C20.6666 8.74991 19.6873 9.72928 19.6873 10.9374C19.6873 12.1455 20.6666 13.1249 21.8747 13.1249Z" fill="#C4C4C4"/>
</svg>
