<svg width="30" height="29" viewBox="0 0 30 29" fill="none" xmlns="http://www.w3.org/2000/svg">
<rect y="28.3333" width="28.3333" height="0.416667" transform="rotate(-90 0 28.3333)" fill="#9F9F9F"/>
<rect y="28.3333" width="29.1667" height="0.416667" fill="#9F9F9F"/>
<path d="M5.49996 23.6667C5.9602 23.6667 6.33329 23.2936 6.33329 22.8333C6.33329 22.3731 5.9602 22 5.49996 22C5.03972 22 4.66663 22.3731 4.66663 22.8333C4.66663 23.2936 5.03972 23.6667 5.49996 23.6667Z" fill="white"/>
<path d="M7.83333 23.6667C8.29357 23.6667 8.66667 23.2936 8.66667 22.8333C8.66667 22.3731 8.29357 22 7.83333 22C7.3731 22 7 22.3731 7 22.8333C7 23.2936 7.3731 23.6667 7.83333 23.6667Z" fill="white"/>
<path d="M7.83333 20.6667C8.29357 20.6667 8.66667 20.2936 8.66667 19.8333C8.66667 19.3731 8.29357 19 7.83333 19C7.3731 19 7 19.3731 7 19.8333C7 20.2936 7.3731 20.6667 7.83333 20.6667Z" fill="white"/>
<path d="M6.83333 21.6667C7.29357 21.6667 7.66667 21.2936 7.66667 20.8333C7.66667 20.3731 7.29357 20 6.83333 20C6.3731 20 6 20.3731 6 20.8333C6 21.2936 6.3731 21.6667 6.83333 21.6667Z" fill="white"/>
<path d="M6.83333 24.6667C7.29357 24.6667 7.66667 24.2936 7.66667 23.8333C7.66667 23.3731 7.29357 23 6.83333 23C6.3731 23 6 23.3731 6 23.8333C6 24.2936 6.3731 24.6667 6.83333 24.6667Z" fill="white"/>
<path d="M4.83333 21.6667C5.29357 21.6667 5.66667 21.2936 5.66667 20.8333C5.66667 20.3731 5.29357 20 4.83333 20C4.3731 20 4 20.3731 4 20.8333C4 21.2936 4.3731 21.6667 4.83333 21.6667Z" fill="white"/>
<path d="M9.83333 25.6667C10.2936 25.6667 10.6667 25.2936 10.6667 24.8333C10.6667 24.3731 10.2936 24 9.83333 24C9.3731 24 9 24.3731 9 24.8333C9 25.2936 9.3731 25.6667 9.83333 25.6667Z" fill="white"/>
<path d="M9.83333 22.6667C10.2936 22.6667 10.6667 22.2936 10.6667 21.8333C10.6667 21.3731 10.2936 21 9.83333 21C9.3731 21 9 21.3731 9 21.8333C9 22.2936 9.3731 22.6667 9.83333 22.6667Z" fill="white"/>
<path d="M5.83333 19.6667C6.29357 19.6667 6.66667 19.2936 6.66667 18.8333C6.66667 18.3731 6.29357 18 5.83333 18C5.3731 18 5 18.3731 5 18.8333C5 19.2936 5.3731 19.6667 5.83333 19.6667Z" fill="white"/>
<path d="M3.83333 24.6667C4.29357 24.6667 4.66667 24.2936 4.66667 23.8333C4.66667 23.3731 4.29357 23 3.83333 23C3.3731 23 3 23.3731 3 23.8333C3 24.2936 3.3731 24.6667 3.83333 24.6667Z" fill="white"/>
<path d="M5.83333 26.6667C6.29357 26.6667 6.66667 26.2936 6.66667 25.8333C6.66667 25.3731 6.29357 25 5.83333 25C5.3731 25 5 25.3731 5 25.8333C5 26.2936 5.3731 26.6667 5.83333 26.6667Z" fill="white"/>
<path d="M10.8333 19.6667C11.2936 19.6667 11.6667 19.2936 11.6667 18.8333C11.6667 18.3731 11.2936 18 10.8333 18C10.3731 18 10 18.3731 10 18.8333C10 19.2936 10.3731 19.6667 10.8333 19.6667Z" fill="white"/>
<path d="M13.1667 15.1667C13.6269 15.1667 14 14.7936 14 14.3333C14 13.8731 13.6269 13.5 13.1667 13.5C12.7065 13.5 12.3334 13.8731 12.3334 14.3333C12.3334 14.7936 12.7065 15.1667 13.1667 15.1667Z" fill="#C4C4C4"/>
<path d="M14.8333 16.6667C15.2936 16.6667 15.6667 16.2936 15.6667 15.8333C15.6667 15.3731 15.2936 15 14.8333 15C14.3731 15 14 15.3731 14 15.8333C14 16.2936 14.3731 16.6667 14.8333 16.6667Z" fill="#C4C4C4"/>
<path d="M14.8333 13.6667C15.2936 13.6667 15.6667 13.2936 15.6667 12.8333C15.6667 12.3731 15.2936 12 14.8333 12C14.3731 12 14 12.3731 14 12.8333C14 13.2936 14.3731 13.6667 14.8333 13.6667Z" fill="#C4C4C4"/>
<path d="M17.8333 16.6667C18.2936 16.6667 18.6667 16.2936 18.6667 15.8333C18.6667 15.3731 18.2936 15 17.8333 15C17.3731 15 17 15.3731 17 15.8333C17 16.2936 17.3731 16.6667 17.8333 16.6667Z" fill="#C4C4C4"/>
<path d="M16.8333 18.6667C17.2936 18.6667 17.6667 18.2936 17.6667 17.8333C17.6667 17.3731 17.2936 17 16.8333 17C16.3731 17 16 17.3731 16 17.8333C16 18.2936 16.3731 18.6667 16.8333 18.6667Z" fill="#C4C4C4"/>
<path d="M12.8333 12.6667C13.2936 12.6667 13.6667 12.2936 13.6667 11.8333C13.6667 11.3731 13.2936 11 12.8333 11C12.3731 11 12 11.3731 12 11.8333C12 12.2936 12.3731 12.6667 12.8333 12.6667Z" fill="#C4C4C4"/>
<path d="M10.8333 14.6667C11.2936 14.6667 11.6667 14.2936 11.6667 13.8333C11.6667 13.3731 11.2936 13 10.8333 13C10.3731 13 10 13.3731 10 13.8333C10 14.2936 10.3731 14.6667 10.8333 14.6667Z" fill="#C4C4C4"/>
<path d="M18.8333 14.6667C19.2936 14.6667 19.6667 14.2936 19.6667 13.8333C19.6667 13.3731 19.2936 13 18.8333 13C18.3731 13 18 13.3731 18 13.8333C18 14.2936 18.3731 14.6667 18.8333 14.6667Z" fill="#C4C4C4"/>
<path d="M14.8333 11.6667C15.2936 11.6667 15.6667 11.2936 15.6667 10.8333C15.6667 10.3731 15.2936 10 14.8333 10C14.3731 10 14 10.3731 14 10.8333C14 11.2936 14.3731 11.6667 14.8333 11.6667Z" fill="#C4C4C4"/>
<path d="M16.8333 14.6667C17.2936 14.6667 17.6667 14.2936 17.6667 13.8333C17.6667 13.3731 17.2936 13 16.8333 13C16.3731 13 16 13.3731 16 13.8333C16 14.2936 16.3731 14.6667 16.8333 14.6667Z" fill="#C4C4C4"/>
<path d="M21 5.83333C21.4602 5.83333 21.8333 5.46023 21.8333 5C21.8333 4.53976 21.4602 4.16666 21 4.16666C20.5397 4.16666 20.1666 4.53976 20.1666 5C20.1666 5.46023 20.5397 5.83333 21 5.83333Z" fill="#9F9F9F"/>
<path d="M22.8333 4.66666C23.2936 4.66666 23.6667 4.29357 23.6667 3.83333C23.6667 3.37309 23.2936 3 22.8333 3C22.3731 3 22 3.37309 22 3.83333C22 4.29357 22.3731 4.66666 22.8333 4.66666Z" fill="#9F9F9F"/>
<path d="M19.8333 4.66666C20.2936 4.66666 20.6667 4.29357 20.6667 3.83333C20.6667 3.37309 20.2936 3 19.8333 3C19.3731 3 19 3.37309 19 3.83333C19 4.29357 19.3731 4.66666 19.8333 4.66666Z" fill="#9F9F9F"/>
<path d="M24.8333 5.66666C25.2936 5.66666 25.6667 5.29357 25.6667 4.83333C25.6667 4.37309 25.2936 4 24.8333 4C24.3731 4 24 4.37309 24 4.83333C24 5.29357 24.3731 5.66666 24.8333 5.66666Z" fill="#9F9F9F"/>
<path d="M21.8333 8.66666C22.2936 8.66666 22.6667 8.29357 22.6667 7.83333C22.6667 7.37309 22.2936 7 21.8333 7C21.3731 7 21 7.37309 21 7.83333C21 8.29357 21.3731 8.66666 21.8333 8.66666Z" fill="#9F9F9F"/>
<path d="M24.8333 7.66666C25.2936 7.66666 25.6667 7.29357 25.6667 6.83333C25.6667 6.37309 25.2936 6 24.8333 6C24.3731 6 24 6.37309 24 6.83333C24 7.29357 24.3731 7.66666 24.8333 7.66666Z" fill="#9F9F9F"/>
<path d="M18.8333 6.66666C19.2936 6.66666 19.6667 6.29357 19.6667 5.83333C19.6667 5.37309 19.2936 5 18.8333 5C18.3731 5 18 5.37309 18 5.83333C18 6.29357 18.3731 6.66666 18.8333 6.66666Z" fill="#9F9F9F"/>
<path d="M18.8333 9.66666C19.2936 9.66666 19.6667 9.29357 19.6667 8.83333C19.6667 8.37309 19.2936 8 18.8333 8C18.3731 8 18 8.37309 18 8.83333C18 9.29357 18.3731 9.66666 18.8333 9.66666Z" fill="#9F9F9F"/>
<path d="M23.8333 9.66666C24.2936 9.66666 24.6667 9.29357 24.6667 8.83333C24.6667 8.37309 24.2936 8 23.8333 8C23.3731 8 23 8.37309 23 8.83333C23 9.29357 23.3731 9.66666 23.8333 9.66666Z" fill="#9F9F9F"/>
<path d="M21.8333 2.66666C22.2936 2.66666 22.6667 2.29357 22.6667 1.83333C22.6667 1.37309 22.2936 0.999996 21.8333 0.999996C21.3731 0.999996 21 1.37309 21 1.83333C21 2.29357 21.3731 2.66666 21.8333 2.66666Z" fill="#9F9F9F"/>
<path d="M25.8333 6.66666C26.2936 6.66666 26.6667 6.29357 26.6667 5.83333C26.6667 5.37309 26.2936 5 25.8333 5C25.3731 5 25 5.37309 25 5.83333C25 6.29357 25.3731 6.66666 25.8333 6.66666Z" fill="#9F9F9F"/>
<path d="M21.8333 10.6667C22.2936 10.6667 22.6667 10.2936 22.6667 9.83333C22.6667 9.37309 22.2936 9 21.8333 9C21.3731 9 21 9.37309 21 9.83333C21 10.2936 21.3731 10.6667 21.8333 10.6667Z" fill="#9F9F9F"/>
<path d="M22.8333 6.66666C23.2936 6.66666 23.6667 6.29357 23.6667 5.83333C23.6667 5.37309 23.2936 5 22.8333 5C22.3731 5 22 5.37309 22 5.83333C22 6.29357 22.3731 6.66666 22.8333 6.66666Z" fill="#9F9F9F"/>
</svg>
