<svg width="30" height="29" viewBox="0 0 30 29" fill="none" xmlns="http://www.w3.org/2000/svg">
<rect x="14.1666" y="28.3333" width="28.3333" height="0.416667" transform="rotate(-90 14.1666 28.3333)" fill="#9F9F9F"/>
<path d="M2.49996 21.6667C2.9602 21.6667 3.33329 21.2936 3.33329 20.8333C3.33329 20.3731 2.9602 20 2.49996 20C2.03972 20 1.66663 20.3731 1.66663 20.8333C1.66663 21.2936 2.03972 21.6667 2.49996 21.6667Z" fill="white"/>
<path d="M8.33333 21.6667C8.79357 21.6667 9.16667 21.2936 9.16667 20.8333C9.16667 20.3731 8.79357 20 8.33333 20C7.8731 20 7.5 20.3731 7.5 20.8333C7.5 21.2936 7.8731 21.6667 8.33333 21.6667Z" fill="white"/>
<path d="M4.99996 18.3333C5.4602 18.3333 5.83329 17.9602 5.83329 17.5C5.83329 17.0398 5.4602 16.6667 4.99996 16.6667C4.53972 16.6667 4.16663 17.0398 4.16663 17.5C4.16663 17.9602 4.53972 18.3333 4.99996 18.3333Z" fill="white"/>
<rect y="13.3333" width="29.1667" height="0.416667" fill="#9F9F9F"/>
<rect x="0.11499" y="23.5396" width="35.092" height="0.416667" transform="rotate(-35.4498 0.11499 23.5396)" fill="#9F9F9F"/>
<path d="M9.99996 15C10.4602 15 10.8333 14.6269 10.8333 14.1667C10.8333 13.7064 10.4602 13.3333 9.99996 13.3333C9.53972 13.3333 9.16663 13.7064 9.16663 14.1667C9.16663 14.6269 9.53972 15 9.99996 15Z" fill="white"/>
<path d="M14.1667 14.1667C14.6269 14.1667 15 13.7936 15 13.3333C15 12.8731 14.6269 12.5 14.1667 12.5C13.7065 12.5 13.3334 12.8731 13.3334 13.3333C13.3334 13.7936 13.7065 14.1667 14.1667 14.1667Z" fill="white"/>
<path d="M17.5 16.6667C17.9602 16.6667 18.3333 16.2936 18.3333 15.8333C18.3333 15.3731 17.9602 15 17.5 15C17.0397 15 16.6666 15.3731 16.6666 15.8333C16.6666 16.2936 17.0397 16.6667 17.5 16.6667Z" fill="white"/>
<path d="M19.1667 9.16667C19.6269 9.16667 20 8.79357 20 8.33333C20 7.8731 19.6269 7.5 19.1667 7.5C18.7065 7.5 18.3334 7.8731 18.3334 8.33333C18.3334 8.79357 18.7065 9.16667 19.1667 9.16667Z" fill="white"/>
<path d="M20 5.83334C20.4602 5.83334 20.8333 5.46024 20.8333 5C20.8333 4.53977 20.4602 4.16667 20 4.16667C19.5397 4.16667 19.1666 4.53977 19.1666 5C19.1666 5.46024 19.5397 5.83334 20 5.83334Z" fill="white"/>
<path d="M23.3333 2.49999C23.7936 2.49999 24.1667 2.1269 24.1667 1.66666C24.1667 1.20642 23.7936 0.833328 23.3333 0.833328C22.8731 0.833328 22.5 1.20642 22.5 1.66666C22.5 2.1269 22.8731 2.49999 23.3333 2.49999Z" fill="white"/>
<path d="M23.3333 9.99999C23.7936 9.99999 24.1667 9.6269 24.1667 9.16666C24.1667 8.70642 23.7936 8.33333 23.3333 8.33333C22.8731 8.33333 22.5 8.70642 22.5 9.16666C22.5 9.6269 22.8731 9.99999 23.3333 9.99999Z" fill="white"/>
<path d="M29.1667 8.33334C29.6269 8.33334 30 7.96024 30 7.5C30 7.03977 29.6269 6.66667 29.1667 6.66667C28.7065 6.66667 28.3334 7.03977 28.3334 7.5C28.3334 7.96024 28.7065 8.33334 29.1667 8.33334Z" fill="white"/>
</svg>
