<svg width="30" height="30" viewBox="0 0 30 30" fill="none" xmlns="http://www.w3.org/2000/svg">
<path d="M5.14291 22.2857C5.6163 22.2857 6.00005 21.902 6.00005 21.4286C6.00005 20.9552 5.6163 20.5714 5.14291 20.5714C4.66952 20.5714 4.28577 20.9552 4.28577 21.4286C4.28577 21.902 4.66952 22.2857 5.14291 22.2857Z" fill="#9F9F9F"/>
<path d="M5.99996 18.8571C6.47335 18.8571 6.85711 18.4734 6.85711 18C6.85711 17.5266 6.47335 17.1429 5.99996 17.1429C5.52658 17.1429 5.14282 17.5266 5.14282 18C5.14282 18.4734 5.52658 18.8571 5.99996 18.8571Z" fill="#9F9F9F"/>
<path d="M9.42855 18.8571C9.90194 18.8571 10.2857 18.4734 10.2857 18C10.2857 17.5266 9.90194 17.1429 9.42855 17.1429C8.95517 17.1429 8.57141 17.5266 8.57141 18C8.57141 18.4734 8.95517 18.8571 9.42855 18.8571Z" fill="#9F9F9F"/>
<path d="M8.57138 16.2857C9.04476 16.2857 9.42852 15.902 9.42852 15.4286C9.42852 14.9552 9.04476 14.5714 8.57138 14.5714C8.09799 14.5714 7.71423 14.9552 7.71423 15.4286C7.71423 15.902 8.09799 16.2857 8.57138 16.2857Z" fill="#9F9F9F"/>
<path d="M10.2857 12.8571C10.7591 12.8571 11.1429 12.4734 11.1429 12C11.1429 11.5266 10.7591 11.1429 10.2857 11.1429C9.81234 11.1429 9.42859 11.5266 9.42859 12C9.42859 12.4734 9.81234 12.8571 10.2857 12.8571Z" fill="#9F9F9F"/>
<path d="M12 6.85714C12.4734 6.85714 12.8571 6.47338 12.8571 6C12.8571 5.52661 12.4734 5.14285 12 5.14285C11.5266 5.14285 11.1428 5.52661 11.1428 6C11.1428 6.47338 11.5266 6.85714 12 6.85714Z" fill="#9F9F9F"/>
<path d="M24.8571 1.71429C25.3305 1.71429 25.7143 1.33053 25.7143 0.857143C25.7143 0.383756 25.3305 0 24.8571 0C24.3838 0 24 0.383756 24 0.857143C24 1.33053 24.3838 1.71429 24.8571 1.71429Z" fill="#9F9F9F"/>
<path d="M27.4286 6.85714C27.9019 6.85714 28.2857 6.47338 28.2857 6C28.2857 5.52661 27.9019 5.14285 27.4286 5.14285C26.9552 5.14285 26.5714 5.52661 26.5714 6C26.5714 6.47338 26.9552 6.85714 27.4286 6.85714Z" fill="#9F9F9F"/>
<path d="M29.1429 9.42858C29.6163 9.42858 30.0001 9.04482 30.0001 8.57144C30.0001 8.09805 29.6163 7.71429 29.1429 7.71429C28.6695 7.71429 28.2858 8.09805 28.2858 8.57144C28.2858 9.04482 28.6695 9.42858 29.1429 9.42858Z" fill="#9F9F9F"/>
<path d="M18.8571 22.2857C19.3305 22.2857 19.7143 21.902 19.7143 21.4286C19.7143 20.9552 19.3305 20.5714 18.8571 20.5714C18.3838 20.5714 18 20.9552 18 21.4286C18 21.902 18.3838 22.2857 18.8571 22.2857Z" fill="#9F9F9F"/>
<path d="M13.7143 24.8571C14.1877 24.8571 14.5715 24.4734 14.5715 24C14.5715 23.5266 14.1877 23.1429 13.7143 23.1429C13.2409 23.1429 12.8572 23.5266 12.8572 24C12.8572 24.4734 13.2409 24.8571 13.7143 24.8571Z" fill="#9F9F9F"/>
<path d="M8.57138 29.1429C9.04476 29.1429 9.42852 28.7591 9.42852 28.2857C9.42852 27.8123 9.04476 27.4286 8.57138 27.4286C8.09799 27.4286 7.71423 27.8123 7.71423 28.2857C7.71423 28.7591 8.09799 29.1429 8.57138 29.1429Z" fill="#9F9F9F"/>
<path d="M2.57138 24.8571C3.04476 24.8571 3.42852 24.4734 3.42852 24C3.42852 23.5266 3.04476 23.1429 2.57138 23.1429C2.09799 23.1429 1.71423 23.5266 1.71423 24C1.71423 24.4734 2.09799 24.8571 2.57138 24.8571Z" fill="#9F9F9F"/>
<path d="M12.8571 14.5714C13.3305 14.5714 13.7143 14.1877 13.7143 13.7143C13.7143 13.2409 13.3305 12.8571 12.8571 12.8571C12.3838 12.8571 12 13.2409 12 13.7143C12 14.1877 12.3838 14.5714 12.8571 14.5714Z" fill="#9F9F9F"/>
<path d="M15.4286 18.8571C15.9019 18.8571 16.2857 18.4734 16.2857 18C16.2857 17.5266 15.9019 17.1429 15.4286 17.1429C14.9552 17.1429 14.5714 17.5266 14.5714 18C14.5714 18.4734 14.9552 18.8571 15.4286 18.8571Z" fill="#9F9F9F"/>
<path d="M18.8571 15.4286C19.3305 15.4286 19.7143 15.0448 19.7143 14.5714C19.7143 14.098 19.3305 13.7143 18.8571 13.7143C18.3838 13.7143 18 14.098 18 14.5714C18 15.0448 18.3838 15.4286 18.8571 15.4286Z" fill="#9F9F9F"/>
<path d="M18 18C18.4734 18 18.8571 17.6163 18.8571 17.1429C18.8571 16.6695 18.4734 16.2857 18 16.2857C17.5266 16.2857 17.1428 16.6695 17.1428 17.1429C17.1428 17.6163 17.5266 18 18 18Z" fill="#9F9F9F"/>
<path d="M15.4286 10.2857C15.9019 10.2857 16.2857 9.90196 16.2857 9.42857C16.2857 8.95518 15.9019 8.57143 15.4286 8.57143C14.9552 8.57143 14.5714 8.95518 14.5714 9.42857C14.5714 9.90196 14.9552 10.2857 15.4286 10.2857Z" fill="#9F9F9F"/>
<path d="M18.8571 9.42858C19.3305 9.42858 19.7143 9.04482 19.7143 8.57144C19.7143 8.09805 19.3305 7.71429 18.8571 7.71429C18.3838 7.71429 18 8.09805 18 8.57144C18 9.04482 18.3838 9.42858 18.8571 9.42858Z" fill="#9F9F9F"/>
<path d="M23.1429 12C23.6163 12 24.0001 11.6163 24.0001 11.1429C24.0001 10.6695 23.6163 10.2857 23.1429 10.2857C22.6695 10.2857 22.2858 10.6695 22.2858 11.1429C22.2858 11.6163 22.6695 12 23.1429 12Z" fill="#9F9F9F"/>
<path d="M23.1429 16.2857C23.6163 16.2857 24.0001 15.902 24.0001 15.4286C24.0001 14.9552 23.6163 14.5714 23.1429 14.5714C22.6695 14.5714 22.2858 14.9552 22.2858 15.4286C22.2858 15.902 22.6695 16.2857 23.1429 16.2857Z" fill="#9F9F9F"/>
<path d="M12 22.2857C12.4734 22.2857 12.8571 21.902 12.8571 21.4286C12.8571 20.9552 12.4734 20.5714 12 20.5714C11.5266 20.5714 11.1428 20.9552 11.1428 21.4286C11.1428 21.902 11.5266 22.2857 12 22.2857Z" fill="#9F9F9F"/>
<path d="M9.42855 25.7143C9.90194 25.7143 10.2857 25.3305 10.2857 24.8571C10.2857 24.3838 9.90194 24 9.42855 24C8.95517 24 8.57141 24.3838 8.57141 24.8571C8.57141 25.3305 8.95517 25.7143 9.42855 25.7143Z" fill="#9F9F9F"/>
<path d="M15.4286 22.2857C15.9019 22.2857 16.2857 21.902 16.2857 21.4286C16.2857 20.9552 15.9019 20.5714 15.4286 20.5714C14.9552 20.5714 14.5714 20.9552 14.5714 21.4286C14.5714 21.902 14.9552 22.2857 15.4286 22.2857Z" fill="#9F9F9F"/>
<path d="M12.8571 11.1429C13.3305 11.1429 13.7143 10.7591 13.7143 10.2857C13.7143 9.81233 13.3305 9.42857 12.8571 9.42857C12.3838 9.42857 12 9.81233 12 10.2857C12 10.7591 12.3838 11.1429 12.8571 11.1429Z" fill="#9F9F9F"/>
<path d="M17.1429 5.99999C17.6163 5.99999 18.0001 5.61624 18.0001 5.14285C18.0001 4.66946 17.6163 4.28571 17.1429 4.28571C16.6695 4.28571 16.2858 4.66946 16.2858 5.14285C16.2858 5.61624 16.6695 5.99999 17.1429 5.99999Z" fill="#9F9F9F"/>
<path d="M20.5714 4.28573C21.0448 4.28573 21.4285 3.90197 21.4285 3.42858C21.4285 2.9552 21.0448 2.57144 20.5714 2.57144C20.098 2.57144 19.7142 2.9552 19.7142 3.42858C19.7142 3.90197 20.098 4.28573 20.5714 4.28573Z" fill="#9F9F9F"/>
<path d="M20.5714 6.85714C21.0448 6.85714 21.4285 6.47338 21.4285 6C21.4285 5.52661 21.0448 5.14285 20.5714 5.14285C20.098 5.14285 19.7142 5.52661 19.7142 6C19.7142 6.47338 20.098 6.85714 20.5714 6.85714Z" fill="#9F9F9F"/>
<path d="M25.7143 9.42858C26.1877 9.42858 26.5715 9.04482 26.5715 8.57144C26.5715 8.09805 26.1877 7.71429 25.7143 7.71429C25.2409 7.71429 24.8572 8.09805 24.8572 8.57144C24.8572 9.04482 25.2409 9.42858 25.7143 9.42858Z" fill="#9F9F9F"/>
<path d="M21.4286 13.7143C21.9019 13.7143 22.2857 13.3305 22.2857 12.8571C22.2857 12.3838 21.9019 12 21.4286 12C20.9552 12 20.5714 12.3838 20.5714 12.8571C20.5714 13.3305 20.9552 13.7143 21.4286 13.7143Z" fill="#9F9F9F"/>
<rect y="29.3434" width="40.2857" height="0.857143" transform="rotate(-45 0 29.3434)" fill="#C4C4C4"/>
</svg>
