<svg width="30" height="23" viewBox="0 0 30 23" fill="none" xmlns="http://www.w3.org/2000/svg">
<path d="M9.82822 3.03897C9.82822 4.38905 13.4141 4.11904 13.4141 5.6041" stroke="white" stroke-linecap="round" stroke-linejoin="round"/>
<path d="M9.74564 3.03897C9.74563 4.38905 6.1598 4.11904 6.1598 5.6041" stroke="#9F9F9F" stroke-linecap="round" stroke-linejoin="round"/>
<path d="M9.91637 3.26886C10.4822 3.26886 10.9409 2.80745 10.9409 2.23827C10.9409 1.6691 10.4822 1.20769 9.91637 1.20769C9.35054 1.20769 8.89185 1.6691 8.89185 2.23827C8.89185 2.80745 9.35054 3.26886 9.91637 3.26886Z" fill="#C4C4C4"/>
<path d="M3.90579 11.4387C3.90578 12.7536 2.03949 12.5114 2.03949 13.9578" stroke="white" stroke-linecap="round" stroke-linejoin="round"/>
<path d="M4.12969 11.3791C3.9971 12.8173 5.98682 12.4006 5.84097 13.9827" stroke="white" stroke-linecap="round" stroke-linejoin="round"/>
<path d="M2.01757 15.7001C2.5834 15.7001 3.0421 15.2387 3.0421 14.6695C3.0421 14.1003 2.5834 13.6389 2.01757 13.6389C1.45174 13.6389 0.993042 14.1003 0.993042 14.6695C0.993042 15.2387 1.45174 15.7001 2.01757 15.7001Z" fill="white"/>
<path d="M5.99905 7.25201C5.99904 8.56692 4.13275 8.32473 4.13275 9.77112" stroke="white" stroke-linecap="round" stroke-linejoin="round"/>
<path d="M13.1056 7.25201C13.1056 8.56692 11.2393 8.32473 11.2393 9.77112" stroke="white" stroke-linecap="round" stroke-linejoin="round"/>
<path d="M8.08865 11.1646C8.08864 12.4795 6.22235 12.2373 6.22235 13.6837" stroke="#9F9F9F" stroke-linecap="round" stroke-linejoin="round"/>
<path d="M5.77404 15.7001C6.33987 15.7001 6.79857 15.2387 6.79857 14.6695C6.79857 14.1003 6.33987 13.6389 5.77404 13.6389C5.20821 13.6389 4.74951 14.1003 4.74951 14.6695C4.74951 15.2387 5.20821 15.7001 5.77404 15.7001Z" fill="#C4C4C4"/>
<path d="M13.6302 7.39128C13.6302 8.70619 15.4965 8.46399 15.4965 9.91038" stroke="white" stroke-linecap="round" stroke-linejoin="round"/>
<path d="M6.22307 7.19237C6.09048 8.63062 8.0802 8.21392 7.93435 9.79598" stroke="#9F9F9F" stroke-linecap="round" stroke-linejoin="round"/>
<path d="M4.11095 11.5134C4.67678 11.5134 5.13548 11.0519 5.13548 10.4828C5.13548 9.9136 4.67678 9.45219 4.11095 9.45219C3.54512 9.45219 3.08643 9.9136 3.08643 10.4828C3.08643 11.0519 3.54512 11.5134 4.11095 11.5134Z" fill="white"/>
<path d="M7.8673 11.5134C8.43313 11.5134 8.89183 11.0519 8.89183 10.4828C8.89183 9.9136 8.43313 9.45219 7.8673 9.45219C7.30147 9.45219 6.84277 9.9136 6.84277 10.4828C6.84277 11.0519 7.30147 11.5134 7.8673 11.5134Z" fill="#C4C4C4"/>
<path d="M10.9412 11.5134C11.507 11.5134 11.9657 11.0519 11.9657 10.4828C11.9657 9.9136 11.507 9.45219 10.9412 9.45219C10.3753 9.45219 9.91663 9.9136 9.91663 10.4828C9.91663 11.0519 10.3753 11.5134 10.9412 11.5134Z" fill="white"/>
<path d="M15.7225 11.5134C16.2884 11.5134 16.7471 11.0519 16.7471 10.4828C16.7471 9.9136 16.2884 9.45219 15.7225 9.45219C15.1567 9.45219 14.698 9.9136 14.698 10.4828C14.698 11.0519 15.1567 11.5134 15.7225 11.5134Z" fill="white"/>
<path d="M6.15978 7.39117C6.72561 7.39117 7.18431 6.92976 7.18431 6.36059C7.18431 5.79141 6.72561 5.33 6.15978 5.33C5.59395 5.33 5.13525 5.79141 5.13525 6.36059C5.13525 6.92976 5.59395 7.39117 6.15978 7.39117Z" fill="#C4C4C4"/>
<path d="M13.3314 7.39117C13.8972 7.39117 14.3559 6.92976 14.3559 6.36059C14.3559 5.79141 13.8972 5.33 13.3314 5.33C12.7656 5.33 12.3069 5.79141 12.3069 6.36059C12.3069 6.92976 12.7656 7.39117 13.3314 7.39117Z" fill="white"/>
<rect x="0.25" y="0.250031" width="17.0443" height="16.2468" stroke="#9F9F9F" stroke-width="0.5"/>
<path d="M25.1723 1.88128C25.1723 2.71704 22.9525 2.54989 22.9525 3.46921" stroke="white" stroke-linecap="round" stroke-linejoin="round"/>
<path d="M25.2236 1.88129C25.2236 2.71705 27.4434 2.5499 27.4434 3.46923" stroke="#9F9F9F" stroke-linecap="round" stroke-linejoin="round"/>
<path d="M25.2779 2.02357C25.6282 2.02357 25.9121 1.73793 25.9121 1.38559C25.9121 1.03324 25.6282 0.747604 25.2779 0.747604C24.9276 0.747604 24.6437 1.03324 24.6437 1.38559C24.6437 1.73793 24.9276 2.02357 25.2779 2.02357Z" fill="#C4C4C4"/>
<path d="M22.853 3.6919C22.853 4.5059 21.6976 4.35597 21.6976 5.25135" stroke="white" stroke-linecap="round" stroke-linejoin="round"/>
<path d="M27.577 4.57554C27.577 5.38953 28.7323 5.2396 28.7323 6.13499" stroke="white" stroke-linecap="round" stroke-linejoin="round"/>
<path d="M27.2521 4.48937C27.2521 5.30337 26.0968 5.15344 26.0968 6.04882" stroke="#9F9F9F" stroke-linecap="round" stroke-linejoin="round"/>
<path d="M22.7922 3.77806C22.7922 4.59205 23.9475 4.44212 23.9475 5.3375" stroke="white" stroke-linecap="round" stroke-linejoin="round"/>
<path d="M21.3685 6.06075C21.7188 6.06075 22.0027 5.77512 22.0027 5.42277C22.0027 5.07042 21.7188 4.78479 21.3685 4.78479C21.0182 4.78479 20.7343 5.07042 20.7343 5.42277C20.7343 5.77512 21.0182 6.06075 21.3685 6.06075Z" fill="white"/>
<path d="M25.9123 7.12733C26.2626 7.12733 26.5465 6.84169 26.5465 6.48935C26.5465 6.137 26.2626 5.85136 25.9123 5.85136C25.562 5.85136 25.2781 6.137 25.2781 6.48935C25.2781 6.84169 25.562 7.12733 25.9123 7.12733Z" fill="#C4C4C4"/>
<path d="M28.8723 7.12733C29.2225 7.12733 29.5065 6.84169 29.5065 6.48935C29.5065 6.137 29.2225 5.85136 28.8723 5.85136C28.522 5.85136 28.238 6.137 28.238 6.48935C28.238 6.84169 28.522 7.12733 28.8723 7.12733Z" fill="white"/>
<path d="M24.0874 6.32983C24.4376 6.32983 24.7216 6.04419 24.7216 5.69185C24.7216 5.3395 24.4376 5.05386 24.0874 5.05386C23.7371 5.05386 23.4531 5.3395 23.4531 5.69185C23.4531 6.04419 23.7371 6.32983 24.0874 6.32983Z" fill="white"/>
<path d="M22.9635 4.46583C23.3137 4.46583 23.5977 4.18019 23.5977 3.82785C23.5977 3.4755 23.3137 3.18987 22.9635 3.18987C22.6132 3.18987 22.3292 3.4755 22.3292 3.82785C22.3292 4.18019 22.6132 4.46583 22.9635 4.46583Z" fill="white"/>
<path d="M27.392 4.57546C27.7423 4.57546 28.0263 4.28983 28.0263 3.93748C28.0263 3.58513 27.7423 3.2995 27.392 3.2995C27.0418 3.2995 26.7578 3.58513 26.7578 3.93748C26.7578 4.28983 27.0418 4.57546 27.392 4.57546Z" fill="#C4C4C4"/>
<rect x="19.3893" y="0.25" width="10.3608" height="9.86709" stroke="#9F9F9F" stroke-width="0.5"/>
<line x1="9.81958" y1="16.7468" x2="9.81958" y2="22.3291" stroke="#9F9F9F" stroke-width="0.5"/>
<line x1="24.9716" y1="10.3671" x2="24.9716" y2="22.3291" stroke="#9F9F9F" stroke-width="0.5"/>
<line x1="25.1202" y1="22.5791" x2="9.56961" y2="22.5792" stroke="#9F9F9F" stroke-width="0.5"/>
</svg>
