<svg width="25" height="30" viewBox="0 0 25 30" fill="none" xmlns="http://www.w3.org/2000/svg">
<path d="M14.7284 11.1915C17.3829 8.44597 18.0948 4.82781 16.3182 3.11013C14.5417 1.39246 10.9496 2.22571 8.29497 4.97126C5.64037 7.71681 4.92857 11.335 6.7051 13.0526C8.48163 14.7703 12.0738 13.9371 14.7284 11.1915Z" fill="#C4C4C4"/>
<path d="M13.8156 10.3804C16.1737 8.23267 17.0935 5.40263 15.8701 4.05932C14.6466 2.71601 11.7432 3.36813 9.38507 5.51585C7.02697 7.66358 6.10717 10.4936 7.33064 11.8369C8.55411 13.1802 11.4575 12.5281 13.8156 10.3804Z" fill="white"/>
<path d="M11.8725 8.39553C12.3809 7.93245 12.5793 7.32225 12.3155 7.03261C12.0517 6.74297 11.4256 6.88357 10.9172 7.34666C10.4088 7.80975 10.2104 8.41995 10.4742 8.70959C10.738 8.99923 11.3641 8.85862 11.8725 8.39553Z" fill="#9F9F9F"/>
<rect x="8.05676" y="13.5711" width="8.9274" height="8.9274" rx="1" transform="rotate(45 8.05676 13.5711)" fill="#9F9F9F"/>
<rect x="7.67444" y="30" width="24.4186" height="0.697676" transform="rotate(-90 7.67444 30)" fill="#C4C4C4"/>
<rect y="19.5349" width="24.4186" height="0.697676" fill="#C4C4C4"/>
</svg>
