<svg width="30" height="24" viewBox="0 0 30 24" fill="none" xmlns="http://www.w3.org/2000/svg">
<path d="M26.235 13.1141C26.2306 13.0591 26.1824 13.018 26.1274 13.0223L25.2302 13.0935C25.1751 13.0979 25.134 13.1461 25.1384 13.2011C25.1428 13.2562 25.1909 13.2973 25.246 13.2929L26.0435 13.2296L26.1068 14.0271C26.1111 14.0822 26.1593 14.1233 26.2144 14.1189C26.2694 14.1145 26.3105 14.0664 26.3061 14.0113L26.235 13.1141ZM19.8079 20.6942L26.2114 13.1869L26.0592 13.0571L19.6557 20.5644L19.8079 20.6942Z" fill="#E4E5E5"/>
<path d="M8.72488 6.12863C8.76393 6.08958 8.76393 6.02626 8.72488 5.98721L8.08849 5.35082C8.04943 5.31176 7.98612 5.31176 7.94706 5.35082C7.90801 5.38987 7.90801 5.45318 7.94706 5.49224L8.51275 6.05792L7.94706 6.62361C7.90801 6.66266 7.90801 6.72598 7.94706 6.76503C7.98612 6.80408 8.04943 6.80408 8.08849 6.76503L8.72488 6.12863ZM3.46167 6.15792H8.65417V5.95792H3.46167V6.15792Z" fill="white"/>
<path d="M26.0332 11.3211C26.0723 11.2821 26.0723 11.2188 26.0332 11.1797L25.3968 10.5433C25.3578 10.5043 25.2945 10.5043 25.2554 10.5433C25.2164 10.5824 25.2164 10.6457 25.2554 10.6847L25.8211 11.2504L25.2554 11.8161C25.2164 11.8552 25.2164 11.9185 25.2554 11.9575C25.2945 11.9966 25.3578 11.9966 25.3968 11.9575L26.0332 11.3211ZM20.77 11.3504H25.9625V11.1504H20.77V11.3504Z" fill="white"/>
<path d="M26.8345 9.61937C26.8896 9.61569 26.9313 9.56804 26.9277 9.51294L26.8678 8.61493C26.8641 8.55982 26.8165 8.51813 26.7614 8.5218C26.7063 8.52548 26.6646 8.57313 26.6682 8.62823L26.7214 9.42646L25.9232 9.47968C25.8681 9.48335 25.8264 9.531 25.8301 9.58611C25.8338 9.64121 25.8814 9.68291 25.9365 9.67923L26.8345 9.61937ZM19.8387 3.53693L26.762 9.59485L26.8937 9.44433L19.9704 3.38641L19.8387 3.53693Z" fill="white"/>
<path d="M8.71229 15.6589C8.75724 15.6268 8.76764 15.5643 8.73554 15.5194L8.21243 14.787C8.18033 14.7421 8.11787 14.7317 8.07293 14.7638C8.02799 14.7959 8.01758 14.8583 8.04968 14.9033L8.51467 15.5543L7.86369 16.0193C7.81875 16.0514 7.80834 16.1138 7.84044 16.1588C7.87254 16.2037 7.93499 16.2141 7.97993 16.182L8.71229 15.6589ZM3.44523 14.8107L8.63773 15.6762L8.67061 15.4789L3.47811 14.6135L3.44523 14.8107Z" fill="white"/>
<path d="M9.50718 13.9459C9.56199 13.9528 9.61197 13.9139 9.61882 13.8591L9.73045 12.966C9.7373 12.9112 9.69842 12.8612 9.64362 12.8544C9.58882 12.8475 9.53884 12.8864 9.53199 12.9412L9.43276 13.735L8.63894 13.6358C8.58414 13.629 8.53416 13.6678 8.52731 13.7226C8.52046 13.7774 8.55933 13.8274 8.61413 13.8343L9.50718 13.9459ZM3.38273 6.11932L9.44065 13.9081L9.59852 13.7853L3.54061 5.99653L3.38273 6.11932Z" fill="white"/>
<path d="M8.75334 7.77636C8.74649 7.72156 8.69651 7.68269 8.6417 7.68954L7.74865 7.80117C7.69385 7.80802 7.65498 7.858 7.66183 7.9128C7.66868 7.9676 7.71866 8.00647 7.77346 7.99962L8.56728 7.9004L8.66651 8.69422C8.67336 8.74902 8.72334 8.78789 8.77814 8.78104C8.83294 8.77419 8.87182 8.72421 8.86497 8.66941L8.75334 7.77636ZM2.67513 15.6389L8.73304 7.85016L8.57517 7.72737L2.51726 15.5161L2.67513 15.6389Z" fill="white"/>
<path d="M17.4079 2.60531C17.4129 2.55031 17.3724 2.50167 17.3174 2.49667L16.4211 2.41518C16.3661 2.41018 16.3175 2.45072 16.3125 2.50572C16.3075 2.56072 16.348 2.60936 16.403 2.61436L17.1997 2.68679L17.1273 3.48351C17.1223 3.53851 17.1628 3.58715 17.2178 3.59215C17.2728 3.59715 17.3215 3.55661 17.3265 3.50161L17.4079 2.60531ZM12.1799 7.00016L17.3724 2.67308L17.2443 2.51943L12.0518 6.84652L12.1799 7.00016Z" fill="white"/>
<path d="M18.1396 19.1332C18.1915 19.152 18.2489 19.1253 18.2677 19.0733L18.5753 18.2275C18.5942 18.1756 18.5674 18.1183 18.5155 18.0994C18.4636 18.0805 18.4062 18.1073 18.3874 18.1592L18.114 18.911L17.3621 18.6376C17.3102 18.6188 17.2528 18.6455 17.234 18.6974C17.2151 18.7493 17.2419 18.8067 17.2938 18.8256L18.1396 19.1332ZM12.0252 6.10021L18.0831 19.0815L18.2644 18.9969L12.2065 6.01563L12.0252 6.10021Z" fill="white"/>
<path d="M17.3174 10.4846C17.3724 10.4796 17.4129 10.431 17.4079 10.376L17.3265 9.47965C17.3215 9.42465 17.2728 9.38411 17.2178 9.38911C17.1628 9.39411 17.1223 9.44275 17.1273 9.49776L17.1997 10.2945L16.403 10.3669C16.348 10.3719 16.3075 10.4205 16.3125 10.4755C16.3175 10.5305 16.3661 10.5711 16.4211 10.5661L17.3174 10.4846ZM12.0518 6.13474L17.2443 10.4618L17.3724 10.3082L12.1799 5.9811L12.0518 6.13474Z" fill="white"/>
<path d="M17.4011 12.153C17.4216 12.1017 17.3967 12.0435 17.3454 12.023L16.5098 11.6887C16.4585 11.6682 16.4003 11.6932 16.3798 11.7445C16.3593 11.7957 16.3842 11.8539 16.4355 11.8744L17.1783 12.1716L16.8812 12.9143C16.8607 12.9656 16.8856 13.0238 16.9369 13.0443C16.9882 13.0648 17.0464 13.0399 17.0669 12.9886L17.4011 12.153ZM11.2898 14.804L17.3477 12.2078L17.2689 12.0239L11.211 14.6202L11.2898 14.804Z" fill="white"/>
<path d="M17.3083 20.0046C17.3636 20.0046 17.4083 19.9598 17.4083 19.9046L17.4083 19.0046C17.4083 18.9494 17.3636 18.9046 17.3083 18.9046C17.2531 18.9046 17.2083 18.9494 17.2083 19.0046L17.2083 19.8046L16.4083 19.8046C16.3531 19.8046 16.3083 19.8494 16.3083 19.9046C16.3083 19.9598 16.3531 20.0046 16.4083 20.0046L17.3083 20.0046ZM12.0451 14.7828L17.2376 19.9753L17.3791 19.8339L12.1866 14.6414L12.0451 14.7828Z" fill="white"/>
<path d="M18.2718 4.30748C18.2609 4.25333 18.2082 4.21821 18.1541 4.22904L17.2716 4.40554C17.2174 4.41637 17.1823 4.46905 17.1931 4.52321C17.204 4.57737 17.2566 4.61249 17.3108 4.60166L18.0953 4.44476L18.2521 5.22923C18.263 5.28338 18.3157 5.31851 18.3698 5.30768C18.424 5.29684 18.4591 5.24416 18.4483 5.19001L18.2718 4.30748ZM11.3336 14.7676L18.2569 4.38256L18.0905 4.27162L11.1672 14.6566L11.3336 14.7676Z" fill="white"/>
<path d="M2.01875 17.8842C3.13367 17.8842 4.0375 16.9804 4.0375 15.8654C4.0375 14.7505 3.13367 13.8467 2.01875 13.8467C0.903824 13.8467 0 14.7505 0 15.8654C0 16.9804 0.903824 17.8842 2.01875 17.8842Z" fill="#C4C4C4"/>
<path d="M2.01875 8.36458C3.13367 8.36458 4.0375 7.46076 4.0375 6.34584C4.0375 5.23091 3.13367 4.32709 2.01875 4.32709C0.903824 4.32709 0 5.23091 0 6.34584C0 7.46076 0.903824 8.36458 2.01875 8.36458Z" fill="#C4C4C4"/>
<path d="M10.6729 17.8842C11.7878 17.8842 12.6917 16.9804 12.6917 15.8654C12.6917 14.7505 11.7878 13.8467 10.6729 13.8467C9.558 13.8467 8.65417 14.7505 8.65417 15.8654C8.65417 16.9804 9.558 17.8842 10.6729 17.8842Z" fill="#C4C4C4"/>
<path d="M10.6729 8.36458C11.7878 8.36458 12.6917 7.46076 12.6917 6.34584C12.6917 5.23091 11.7878 4.32709 10.6729 4.32709C9.558 4.32709 8.65417 5.23091 8.65417 6.34584C8.65417 7.46076 9.558 8.36458 10.6729 8.36458Z" fill="#C4C4C4"/>
<path d="M19.3271 13.5571C20.442 13.5571 21.3458 12.6533 21.3458 11.5383C21.3458 10.4234 20.442 9.51959 19.3271 9.51959C18.2122 9.51959 17.3083 10.4234 17.3083 11.5383C17.3083 12.6533 18.2122 13.5571 19.3271 13.5571Z" fill="#C4C4C4"/>
<path d="M27.9813 13.5571C29.0962 13.5571 30 12.6533 30 11.5383C30 10.4234 29.0962 9.51959 27.9813 9.51959C26.8663 9.51959 25.9625 10.4234 25.9625 11.5383C25.9625 12.6533 26.8663 13.5571 27.9813 13.5571Z" fill="#C4C4C4"/>
<path d="M19.3271 4.0375C20.442 4.0375 21.3458 3.13367 21.3458 2.01875C21.3458 0.903824 20.442 0 19.3271 0C18.2122 0 17.3083 0.903824 17.3083 2.01875C17.3083 3.13367 18.2122 4.0375 19.3271 4.0375Z" fill="#C4C4C4"/>
<path d="M19.3271 23.0767C20.442 23.0767 21.3458 22.1729 21.3458 21.0579C21.3458 19.943 20.442 19.0392 19.3271 19.0392C18.2122 19.0392 17.3083 19.943 17.3083 21.0579C17.3083 22.1729 18.2122 23.0767 19.3271 23.0767Z" fill="#C4C4C4"/>
</svg>
