<svg width="30" height="29" viewBox="0 0 30 29" fill="none" xmlns="http://www.w3.org/2000/svg">
<rect x="19.7794" y="2.51987" width="3.02684" height="3.02684" rx="1" transform="rotate(45 19.7794 2.51987)" fill="#9F9F9F"/>
<path d="M12.3743 24.3589L12.3743 27.2686L9.85441 25.8137L12.3743 24.3589Z" fill="white"/>
<path d="M18.254 16.7992L18.254 19.7089L15.7342 18.254L18.254 16.7992Z" fill="white"/>
<path d="M24.1338 15.9593L24.1338 18.869L21.6139 17.4141L24.1338 15.9593Z" fill="white"/>
<path d="M19.094 23.5189L19.094 26.4286L16.5741 24.9737L19.094 23.5189Z" fill="white"/>
<path d="M25.8137 10.0795L25.8137 12.9892L23.2939 11.5344L25.8137 10.0795Z" fill="white"/>
<rect x="2.14026" y="16.7992" width="3.02684" height="3.02684" rx="1" transform="rotate(45 2.14026 16.7992)" fill="#9F9F9F"/>
<rect x="8.85999" y="12.5994" width="3.02684" height="3.02684" rx="1" transform="rotate(45 8.85999 12.5994)" fill="#9F9F9F"/>
<rect x="13.8998" y="5.87973" width="3.02684" height="3.02684" rx="1" transform="rotate(45 13.8998 5.87973)" fill="#9F9F9F"/>
<rect x="6.34009" y="6.7197" width="3.02684" height="3.02684" rx="1" transform="rotate(45 6.34009 6.7197)" fill="#9F9F9F"/>
<rect x="1.67993" y="27.7261" width="39.2107" height="0.839961" transform="rotate(-45 1.67993 27.7261)" fill="#C4C4C4"/>
</svg>
