<svg width="30" height="20" viewBox="0 0 30 20" fill="none" xmlns="http://www.w3.org/2000/svg">
<path d="M22.9054 11.282C23.4931 11.282 23.9696 10.8055 23.9696 10.2178C23.9696 9.63008 23.4931 9.15363 22.9054 9.15363C22.3176 9.15363 21.8412 9.63008 21.8412 10.2178C21.8412 10.8055 22.3176 11.282 22.9054 11.282Z" fill="#9F9F9F"/>
<path d="M22.728 11.0446C22.728 12.4387 19.0034 12.1599 19.0034 13.6934" stroke="#9F9F9F" stroke-linecap="round" stroke-linejoin="round"/>
<path d="M22.814 11.0446C22.814 12.4387 26.5386 12.1599 26.5386 13.6934" stroke="#9F9F9F" stroke-linecap="round" stroke-linejoin="round"/>
<path d="M18.8362 15.395C18.8362 16.7528 16.8977 16.5027 16.8977 17.9963" stroke="#C4C4C4" stroke-linecap="round" stroke-linejoin="round"/>
<path d="M26.2182 15.395C26.2182 16.7528 24.2796 16.5027 24.2796 17.9963" stroke="#C4C4C4" stroke-linecap="round" stroke-linejoin="round"/>
<path d="M26.7628 15.5388C26.7628 16.8965 28.7013 16.6464 28.7013 18.14" stroke="#C4C4C4" stroke-linecap="round" stroke-linejoin="round"/>
<path d="M19.0692 15.3334C18.9315 16.8185 20.9982 16.3882 20.8467 18.0219" stroke="#C4C4C4" stroke-linecap="round" stroke-linejoin="round"/>
<path d="M16.875 19.7955C17.4627 19.7955 17.9392 19.3191 17.9392 18.7313C17.9392 18.1436 17.4627 17.6671 16.875 17.6671C16.2872 17.6671 15.8108 18.1436 15.8108 18.7313C15.8108 19.3191 16.2872 19.7955 16.875 19.7955Z" fill="white"/>
<path d="M20.777 19.7955C21.3647 19.7955 21.8411 19.3191 21.8411 18.7313C21.8411 18.1436 21.3647 17.6671 20.777 17.6671C20.1892 17.6671 19.7128 18.1436 19.7128 18.7313C19.7128 19.3191 20.1892 19.7955 20.777 19.7955Z" fill="white"/>
<path d="M23.9696 19.7955C24.5573 19.7955 25.0338 19.3191 25.0338 18.7313C25.0338 18.1436 24.5573 17.6671 23.9696 17.6671C23.3818 17.6671 22.9054 18.1436 22.9054 18.7313C22.9054 19.3191 23.3818 19.7955 23.9696 19.7955Z" fill="white"/>
<path d="M28.9358 19.7955C29.5235 19.7955 30 19.3191 30 18.7313C30 18.1436 29.5235 17.6671 28.9358 17.6671C28.348 17.6671 27.8716 18.1436 27.8716 18.7313C27.8716 19.3191 28.348 19.7955 28.9358 19.7955Z" fill="white"/>
<path d="M19.0033 15.5388C19.591 15.5388 20.0675 15.0623 20.0675 14.4746C20.0675 13.8868 19.591 13.4104 19.0033 13.4104C18.4155 13.4104 17.9391 13.8868 17.9391 14.4746C17.9391 15.0623 18.4155 15.5388 19.0033 15.5388Z" fill="#C4C4C4"/>
<path d="M26.4527 15.5388C27.0405 15.5388 27.5169 15.0623 27.5169 14.4746C27.5169 13.8868 27.0405 13.4104 26.4527 13.4104C25.865 13.4104 25.3885 13.8868 25.3885 14.4746C25.3885 15.0623 25.865 15.5388 26.4527 15.5388Z" fill="#C4C4C4"/>
<path d="M7.09458 2.12838C7.68232 2.12838 8.15877 1.65192 8.15877 1.06419C8.15877 0.476453 7.68232 0 7.09458 0C6.50685 0 6.0304 0.476453 6.0304 1.06419C6.0304 1.65192 6.50685 2.12838 7.09458 2.12838Z" fill="#9F9F9F"/>
<path d="M6.91722 1.89102C6.91721 3.28511 3.19257 3.0063 3.19257 4.53978" stroke="#9F9F9F" stroke-linecap="round" stroke-linejoin="round"/>
<path d="M7.00319 1.89102C7.0032 3.28511 10.7278 3.0063 10.7278 4.53978" stroke="#9F9F9F" stroke-linecap="round" stroke-linejoin="round"/>
<path d="M3.02542 6.24139C3.02542 7.59917 1.08688 7.34908 1.08688 8.84263" stroke="#C4C4C4" stroke-linecap="round" stroke-linejoin="round"/>
<path d="M3.25843 6.17973C3.12071 7.66488 5.18745 7.23459 5.03596 8.86823" stroke="#C4C4C4" stroke-linecap="round" stroke-linejoin="round"/>
<path d="M1.06419 10.6419C1.65192 10.6419 2.12838 10.1654 2.12838 9.57769C2.12838 8.98996 1.65192 8.5135 1.06419 8.5135C0.476453 8.5135 0 8.98996 0 9.57769C0 10.1654 0.476453 10.6419 1.06419 10.6419Z" fill="white"/>
<path d="M4.96617 10.6419C5.5539 10.6419 6.03035 10.1654 6.03035 9.57769C6.03035 8.98996 5.5539 8.5135 4.96617 8.5135C4.37843 8.5135 3.90198 8.98996 3.90198 9.57769C3.90198 10.1654 4.37843 10.6419 4.96617 10.6419Z" fill="white"/>
<path d="M3.19248 6.38514C3.78022 6.38514 4.25667 5.90868 4.25667 5.32095C4.25667 4.73321 3.78022 4.25676 3.19248 4.25676C2.60475 4.25676 2.1283 4.73321 2.1283 5.32095C2.1283 5.90868 2.60475 6.38514 3.19248 6.38514Z" fill="#C4C4C4"/>
<path d="M10.6419 6.38514C11.2297 6.38514 11.7061 5.90868 11.7061 5.32095C11.7061 4.73321 11.2297 4.25676 10.6419 4.25676C10.0542 4.25676 9.57776 4.73321 9.57776 5.32095C9.57776 5.90868 10.0542 6.38514 10.6419 6.38514Z" fill="#C4C4C4"/>
<path d="M11.7032 9.57362H12.631V10.1156H11.7032V11.1727H11.1271V10.1156H10.1945V9.57362H11.1271V8.58485H11.7032V9.57362Z" fill="#9F9F9F"/>
<path d="M18.3605 9.57362H19.2882V10.1156H18.3605V11.1727H17.7843V10.1156H16.8517V9.57362H17.7843V8.58485H18.3605V9.57362Z" fill="#9F9F9F"/>
<path d="M14.0309 10.9042C14.1416 10.9042 14.227 10.9359 14.2872 10.9994C14.3475 11.0613 14.3776 11.1394 14.3776 11.2338C14.3776 11.3266 14.3475 11.4039 14.2872 11.4657C14.227 11.5259 14.1416 11.556 14.0309 11.556C13.9251 11.556 13.8413 11.5259 13.7794 11.4657C13.7176 11.4055 13.6866 11.3282 13.6866 11.2338C13.6866 11.1394 13.7168 11.0613 13.777 10.9994C13.8372 10.9359 13.9218 10.9042 14.0309 10.9042ZM14.0309 16.9042C14.1416 16.9042 14.227 16.9359 14.2872 16.9994C14.3475 17.0613 14.3776 17.1394 14.3776 17.2338C14.3776 17.3266 14.3475 17.4039 14.2872 17.4657C14.227 17.5259 14.1416 17.556 14.0309 17.556C13.9251 17.556 13.8413 17.5259 13.7794 17.4657C13.7176 17.4055 13.6866 17.3282 13.6866 17.2338C13.6866 17.1394 13.7168 17.0613 13.777 16.9994C13.8372 16.9359 13.9218 16.9042 14.0309 16.9042Z" fill="#9F9F9F"/>
</svg>
